%
M48
M72
T01C0.02500
T02C0.03150
T03C0.03543
T04C0.03937
T05C0.04000
T06C0.05512
T07C0.08661
T08C0.12598
%
T01
X90335Y87182
X72185Y100932
X66135Y106982
X77685Y118532
X56785Y144932
X56785Y180132
X77685Y189482
X122785Y177932
X168985Y174632
X168985Y164732
X225085Y160882
X225085Y191682
X225085Y203782
X149735Y263732
X83735Y278032
X81535Y295082
X77685Y257682
X194285Y117432
X194835Y55832
X208585Y48132
X231135Y44832
X162935Y49232
X145335Y56932
X298785Y65732
X303735Y38232
X402185Y128982
X315835Y172982
X373585Y220832
X326835Y249982
X398335Y259332
T02
X51728Y255202
X51728Y270950
X51728Y198115
X51728Y182367
X51728Y162682
X51728Y146934
X51728Y127249
X51728Y111501
X51728Y91816
X51728Y76068
T03
X114445Y139257
X114445Y149257
X114445Y159257
X114445Y169257
X114445Y179257
X114445Y189257
X114445Y199257
X114445Y209257
X114445Y219257
X114445Y229257
X114445Y239257
X114445Y249257
X114445Y259257
X114445Y269257
X114445Y279257
X214445Y279257
X214445Y269257
X214445Y259257
X214445Y249257
X214445Y239257
X214445Y229257
X214445Y219257
X214445Y209257
X214445Y199257
X214445Y189257
X214445Y179257
X214445Y169257
X214445Y159257
X214445Y149257
X214445Y139257
T04
X127043Y24887
X127043Y24887
X52240Y213863
X52240Y235517
X225469Y276856
X280587Y276856
X280587Y276856
X335705Y276856
X335705Y276856
X390823Y276856
X396728Y250478
X408539Y231580
X384524Y231580
T05
X378028Y270950
X368028Y270950
X358343Y270950
X348343Y270950
X321925Y270950
X311925Y270950
X302240Y270950
X292240Y270950
X267791Y270950
X257791Y270950
X248106Y270950
X238106Y270950
X315075Y111974
X325075Y111974
X335075Y111974
X345075Y111974
X355075Y111974
X365075Y111974
X375075Y111974
X385075Y111974
X395075Y111974
X405075Y111974
X415075Y111974
X425075Y111974
X425075Y51974
X415075Y51974
X405075Y51974
X395075Y51974
X385075Y51974
X375075Y51974
X365075Y51974
X355075Y51974
X345075Y51974
X335075Y51974
X325075Y51974
X315075Y51974
X169524Y30793
X159524Y30793
X149839Y30793
X139839Y30793
X114406Y30793
X104406Y30793
X94720Y30793
X84720Y30793
T06
X380508Y146816
X390429Y136816
X390390Y166462
X380469Y186186
X390429Y195911
X429720Y186186
X429720Y146856
T07
X54209Y154808
X54209Y190241
X54209Y119375
X54209Y83942
X54209Y263076
T08
X58146Y30793
X314051Y30793
X396728Y30793
X428224Y30793
X243185Y243391
X89642Y302446
X58146Y302446
X396728Y302446
X428224Y302446
M30
