G75*
%MOIN*%
%OFA0B0*%
%FSLAX25Y25*%
%IPPOS*%
%LPD*%
%AMOC8*
5,1,8,0,0,1.08239X$1,22.5*
%
%ADD10C,0.01600*%
%ADD11C,0.00000*%
%ADD12C,0.01200*%
%ADD13C,0.00400*%
%ADD14C,0.00200*%
%ADD15C,0.00500*%
%ADD16C,0.00600*%
%ADD17R,0.02362X0.04488*%
%ADD18R,0.03937X0.03465*%
%ADD19C,0.00800*%
%ADD20R,0.03937X0.00787*%
D10*
X0049997Y0025656D02*
X0055902Y0025656D01*
X0055902Y0033530D01*
X0067713Y0033530D01*
X0067713Y0025656D01*
X0079524Y0025656D01*
X0103146Y0025656D02*
X0152359Y0025656D01*
X0175981Y0025656D02*
X0187792Y0025656D01*
X0211414Y0025656D02*
X0223225Y0025656D01*
X0246847Y0025656D02*
X0258658Y0025656D01*
X0282280Y0025656D02*
X0296060Y0025656D01*
X0296060Y0033530D01*
X0307871Y0033530D01*
X0307871Y0025656D01*
X0313776Y0025656D01*
X0313776Y0025655D02*
X0313928Y0025657D01*
X0314080Y0025663D01*
X0314232Y0025673D01*
X0314383Y0025686D01*
X0314534Y0025704D01*
X0314685Y0025725D01*
X0314835Y0025751D01*
X0314984Y0025780D01*
X0315133Y0025813D01*
X0315280Y0025850D01*
X0315427Y0025890D01*
X0315572Y0025935D01*
X0315716Y0025983D01*
X0315859Y0026035D01*
X0316001Y0026090D01*
X0316141Y0026149D01*
X0316280Y0026212D01*
X0316417Y0026278D01*
X0316552Y0026348D01*
X0316685Y0026421D01*
X0316816Y0026498D01*
X0316946Y0026578D01*
X0317073Y0026661D01*
X0317198Y0026747D01*
X0317321Y0026837D01*
X0317441Y0026930D01*
X0317559Y0027026D01*
X0317675Y0027125D01*
X0317788Y0027227D01*
X0317898Y0027331D01*
X0318006Y0027439D01*
X0318110Y0027549D01*
X0318212Y0027662D01*
X0318311Y0027778D01*
X0318407Y0027896D01*
X0318500Y0028016D01*
X0318590Y0028139D01*
X0318676Y0028264D01*
X0318759Y0028391D01*
X0318839Y0028521D01*
X0318916Y0028652D01*
X0318989Y0028785D01*
X0319059Y0028920D01*
X0319125Y0029057D01*
X0319188Y0029196D01*
X0319247Y0029336D01*
X0319302Y0029478D01*
X0319354Y0029621D01*
X0319402Y0029765D01*
X0319447Y0029910D01*
X0319487Y0030057D01*
X0319524Y0030204D01*
X0319557Y0030353D01*
X0319586Y0030502D01*
X0319612Y0030652D01*
X0319633Y0030803D01*
X0319651Y0030954D01*
X0319664Y0031105D01*
X0319674Y0031257D01*
X0319680Y0031409D01*
X0319682Y0031561D01*
X0319682Y0086679D01*
X0319680Y0086831D01*
X0319674Y0086983D01*
X0319664Y0087135D01*
X0319651Y0087286D01*
X0319633Y0087437D01*
X0319612Y0087588D01*
X0319586Y0087738D01*
X0319557Y0087887D01*
X0319524Y0088036D01*
X0319487Y0088183D01*
X0319447Y0088330D01*
X0319402Y0088475D01*
X0319354Y0088619D01*
X0319302Y0088762D01*
X0319247Y0088904D01*
X0319188Y0089044D01*
X0319125Y0089183D01*
X0319059Y0089320D01*
X0318989Y0089455D01*
X0318916Y0089588D01*
X0318839Y0089719D01*
X0318759Y0089849D01*
X0318676Y0089976D01*
X0318590Y0090101D01*
X0318500Y0090224D01*
X0318407Y0090344D01*
X0318311Y0090462D01*
X0318212Y0090578D01*
X0318110Y0090691D01*
X0318006Y0090801D01*
X0317898Y0090909D01*
X0317788Y0091013D01*
X0317675Y0091115D01*
X0317559Y0091214D01*
X0317441Y0091310D01*
X0317321Y0091403D01*
X0317198Y0091493D01*
X0317073Y0091579D01*
X0316946Y0091662D01*
X0316816Y0091742D01*
X0316685Y0091819D01*
X0316552Y0091892D01*
X0316417Y0091962D01*
X0316280Y0092028D01*
X0316141Y0092091D01*
X0316001Y0092150D01*
X0315859Y0092205D01*
X0315716Y0092257D01*
X0315572Y0092305D01*
X0315427Y0092350D01*
X0315280Y0092390D01*
X0315133Y0092427D01*
X0314984Y0092460D01*
X0314835Y0092489D01*
X0314685Y0092515D01*
X0314534Y0092536D01*
X0314383Y0092554D01*
X0314232Y0092567D01*
X0314080Y0092577D01*
X0313928Y0092583D01*
X0313776Y0092585D01*
X0307871Y0092585D01*
X0307871Y0084711D01*
X0296060Y0084711D01*
X0296060Y0092585D01*
X0067713Y0092585D01*
X0067713Y0084711D01*
X0055902Y0084711D01*
X0055902Y0092585D01*
X0049997Y0092585D01*
X0049845Y0092583D01*
X0049693Y0092577D01*
X0049541Y0092567D01*
X0049390Y0092554D01*
X0049239Y0092536D01*
X0049088Y0092515D01*
X0048938Y0092489D01*
X0048789Y0092460D01*
X0048640Y0092427D01*
X0048493Y0092390D01*
X0048346Y0092350D01*
X0048201Y0092305D01*
X0048057Y0092257D01*
X0047914Y0092205D01*
X0047772Y0092150D01*
X0047632Y0092091D01*
X0047493Y0092028D01*
X0047356Y0091962D01*
X0047221Y0091892D01*
X0047088Y0091819D01*
X0046957Y0091742D01*
X0046827Y0091662D01*
X0046700Y0091579D01*
X0046575Y0091493D01*
X0046452Y0091403D01*
X0046332Y0091310D01*
X0046214Y0091214D01*
X0046098Y0091115D01*
X0045985Y0091013D01*
X0045875Y0090909D01*
X0045767Y0090801D01*
X0045663Y0090691D01*
X0045561Y0090578D01*
X0045462Y0090462D01*
X0045366Y0090344D01*
X0045273Y0090224D01*
X0045183Y0090101D01*
X0045097Y0089976D01*
X0045014Y0089849D01*
X0044934Y0089719D01*
X0044857Y0089588D01*
X0044784Y0089455D01*
X0044714Y0089320D01*
X0044648Y0089183D01*
X0044585Y0089044D01*
X0044526Y0088904D01*
X0044471Y0088762D01*
X0044419Y0088619D01*
X0044371Y0088475D01*
X0044326Y0088330D01*
X0044286Y0088183D01*
X0044249Y0088036D01*
X0044216Y0087887D01*
X0044187Y0087738D01*
X0044161Y0087588D01*
X0044140Y0087437D01*
X0044122Y0087286D01*
X0044109Y0087135D01*
X0044099Y0086983D01*
X0044093Y0086831D01*
X0044091Y0086679D01*
X0044091Y0031561D01*
X0044093Y0031409D01*
X0044099Y0031257D01*
X0044109Y0031105D01*
X0044122Y0030954D01*
X0044140Y0030803D01*
X0044161Y0030652D01*
X0044187Y0030502D01*
X0044216Y0030353D01*
X0044249Y0030204D01*
X0044286Y0030057D01*
X0044326Y0029910D01*
X0044371Y0029765D01*
X0044419Y0029621D01*
X0044471Y0029478D01*
X0044526Y0029336D01*
X0044585Y0029196D01*
X0044648Y0029057D01*
X0044714Y0028920D01*
X0044784Y0028785D01*
X0044857Y0028652D01*
X0044934Y0028521D01*
X0045014Y0028391D01*
X0045097Y0028264D01*
X0045183Y0028139D01*
X0045273Y0028016D01*
X0045366Y0027896D01*
X0045462Y0027778D01*
X0045561Y0027662D01*
X0045663Y0027549D01*
X0045767Y0027439D01*
X0045875Y0027331D01*
X0045985Y0027227D01*
X0046098Y0027125D01*
X0046214Y0027026D01*
X0046332Y0026930D01*
X0046452Y0026837D01*
X0046575Y0026747D01*
X0046700Y0026661D01*
X0046827Y0026578D01*
X0046957Y0026498D01*
X0047088Y0026421D01*
X0047221Y0026348D01*
X0047356Y0026278D01*
X0047493Y0026212D01*
X0047632Y0026149D01*
X0047772Y0026090D01*
X0047914Y0026035D01*
X0048057Y0025983D01*
X0048201Y0025935D01*
X0048346Y0025890D01*
X0048493Y0025850D01*
X0048640Y0025813D01*
X0048789Y0025780D01*
X0048938Y0025751D01*
X0049088Y0025725D01*
X0049239Y0025704D01*
X0049390Y0025686D01*
X0049541Y0025673D01*
X0049693Y0025663D01*
X0049845Y0025657D01*
X0049997Y0025655D01*
D11*
X0048028Y0031561D02*
X0048030Y0031649D01*
X0048036Y0031737D01*
X0048046Y0031825D01*
X0048060Y0031913D01*
X0048077Y0031999D01*
X0048099Y0032085D01*
X0048124Y0032169D01*
X0048154Y0032253D01*
X0048186Y0032335D01*
X0048223Y0032415D01*
X0048263Y0032494D01*
X0048307Y0032571D01*
X0048354Y0032646D01*
X0048404Y0032718D01*
X0048458Y0032789D01*
X0048514Y0032856D01*
X0048574Y0032922D01*
X0048636Y0032984D01*
X0048702Y0033044D01*
X0048769Y0033100D01*
X0048840Y0033154D01*
X0048912Y0033204D01*
X0048987Y0033251D01*
X0049064Y0033295D01*
X0049143Y0033335D01*
X0049223Y0033372D01*
X0049305Y0033404D01*
X0049389Y0033434D01*
X0049473Y0033459D01*
X0049559Y0033481D01*
X0049645Y0033498D01*
X0049733Y0033512D01*
X0049821Y0033522D01*
X0049909Y0033528D01*
X0049997Y0033530D01*
X0050085Y0033528D01*
X0050173Y0033522D01*
X0050261Y0033512D01*
X0050349Y0033498D01*
X0050435Y0033481D01*
X0050521Y0033459D01*
X0050605Y0033434D01*
X0050689Y0033404D01*
X0050771Y0033372D01*
X0050851Y0033335D01*
X0050930Y0033295D01*
X0051007Y0033251D01*
X0051082Y0033204D01*
X0051154Y0033154D01*
X0051225Y0033100D01*
X0051292Y0033044D01*
X0051358Y0032984D01*
X0051420Y0032922D01*
X0051480Y0032856D01*
X0051536Y0032789D01*
X0051590Y0032718D01*
X0051640Y0032646D01*
X0051687Y0032571D01*
X0051731Y0032494D01*
X0051771Y0032415D01*
X0051808Y0032335D01*
X0051840Y0032253D01*
X0051870Y0032169D01*
X0051895Y0032085D01*
X0051917Y0031999D01*
X0051934Y0031913D01*
X0051948Y0031825D01*
X0051958Y0031737D01*
X0051964Y0031649D01*
X0051966Y0031561D01*
X0051964Y0031473D01*
X0051958Y0031385D01*
X0051948Y0031297D01*
X0051934Y0031209D01*
X0051917Y0031123D01*
X0051895Y0031037D01*
X0051870Y0030953D01*
X0051840Y0030869D01*
X0051808Y0030787D01*
X0051771Y0030707D01*
X0051731Y0030628D01*
X0051687Y0030551D01*
X0051640Y0030476D01*
X0051590Y0030404D01*
X0051536Y0030333D01*
X0051480Y0030266D01*
X0051420Y0030200D01*
X0051358Y0030138D01*
X0051292Y0030078D01*
X0051225Y0030022D01*
X0051154Y0029968D01*
X0051082Y0029918D01*
X0051007Y0029871D01*
X0050930Y0029827D01*
X0050851Y0029787D01*
X0050771Y0029750D01*
X0050689Y0029718D01*
X0050605Y0029688D01*
X0050521Y0029663D01*
X0050435Y0029641D01*
X0050349Y0029624D01*
X0050261Y0029610D01*
X0050173Y0029600D01*
X0050085Y0029594D01*
X0049997Y0029592D01*
X0049909Y0029594D01*
X0049821Y0029600D01*
X0049733Y0029610D01*
X0049645Y0029624D01*
X0049559Y0029641D01*
X0049473Y0029663D01*
X0049389Y0029688D01*
X0049305Y0029718D01*
X0049223Y0029750D01*
X0049143Y0029787D01*
X0049064Y0029827D01*
X0048987Y0029871D01*
X0048912Y0029918D01*
X0048840Y0029968D01*
X0048769Y0030022D01*
X0048702Y0030078D01*
X0048636Y0030138D01*
X0048574Y0030200D01*
X0048514Y0030266D01*
X0048458Y0030333D01*
X0048404Y0030404D01*
X0048354Y0030476D01*
X0048307Y0030551D01*
X0048263Y0030628D01*
X0048223Y0030707D01*
X0048186Y0030787D01*
X0048154Y0030869D01*
X0048124Y0030953D01*
X0048099Y0031037D01*
X0048077Y0031123D01*
X0048060Y0031209D01*
X0048046Y0031297D01*
X0048036Y0031385D01*
X0048030Y0031473D01*
X0048028Y0031561D01*
X0046059Y0047309D02*
X0046061Y0047397D01*
X0046067Y0047485D01*
X0046077Y0047573D01*
X0046091Y0047661D01*
X0046108Y0047747D01*
X0046130Y0047833D01*
X0046155Y0047917D01*
X0046185Y0048001D01*
X0046217Y0048083D01*
X0046254Y0048163D01*
X0046294Y0048242D01*
X0046338Y0048319D01*
X0046385Y0048394D01*
X0046435Y0048466D01*
X0046489Y0048537D01*
X0046545Y0048604D01*
X0046605Y0048670D01*
X0046667Y0048732D01*
X0046733Y0048792D01*
X0046800Y0048848D01*
X0046871Y0048902D01*
X0046943Y0048952D01*
X0047018Y0048999D01*
X0047095Y0049043D01*
X0047174Y0049083D01*
X0047254Y0049120D01*
X0047336Y0049152D01*
X0047420Y0049182D01*
X0047504Y0049207D01*
X0047590Y0049229D01*
X0047676Y0049246D01*
X0047764Y0049260D01*
X0047852Y0049270D01*
X0047940Y0049276D01*
X0048028Y0049278D01*
X0048116Y0049276D01*
X0048204Y0049270D01*
X0048292Y0049260D01*
X0048380Y0049246D01*
X0048466Y0049229D01*
X0048552Y0049207D01*
X0048636Y0049182D01*
X0048720Y0049152D01*
X0048802Y0049120D01*
X0048882Y0049083D01*
X0048961Y0049043D01*
X0049038Y0048999D01*
X0049113Y0048952D01*
X0049185Y0048902D01*
X0049256Y0048848D01*
X0049323Y0048792D01*
X0049389Y0048732D01*
X0049451Y0048670D01*
X0049511Y0048604D01*
X0049567Y0048537D01*
X0049621Y0048466D01*
X0049671Y0048394D01*
X0049718Y0048319D01*
X0049762Y0048242D01*
X0049802Y0048163D01*
X0049839Y0048083D01*
X0049871Y0048001D01*
X0049901Y0047917D01*
X0049926Y0047833D01*
X0049948Y0047747D01*
X0049965Y0047661D01*
X0049979Y0047573D01*
X0049989Y0047485D01*
X0049995Y0047397D01*
X0049997Y0047309D01*
X0049995Y0047221D01*
X0049989Y0047133D01*
X0049979Y0047045D01*
X0049965Y0046957D01*
X0049948Y0046871D01*
X0049926Y0046785D01*
X0049901Y0046701D01*
X0049871Y0046617D01*
X0049839Y0046535D01*
X0049802Y0046455D01*
X0049762Y0046376D01*
X0049718Y0046299D01*
X0049671Y0046224D01*
X0049621Y0046152D01*
X0049567Y0046081D01*
X0049511Y0046014D01*
X0049451Y0045948D01*
X0049389Y0045886D01*
X0049323Y0045826D01*
X0049256Y0045770D01*
X0049185Y0045716D01*
X0049113Y0045666D01*
X0049038Y0045619D01*
X0048961Y0045575D01*
X0048882Y0045535D01*
X0048802Y0045498D01*
X0048720Y0045466D01*
X0048636Y0045436D01*
X0048552Y0045411D01*
X0048466Y0045389D01*
X0048380Y0045372D01*
X0048292Y0045358D01*
X0048204Y0045348D01*
X0048116Y0045342D01*
X0048028Y0045340D01*
X0047940Y0045342D01*
X0047852Y0045348D01*
X0047764Y0045358D01*
X0047676Y0045372D01*
X0047590Y0045389D01*
X0047504Y0045411D01*
X0047420Y0045436D01*
X0047336Y0045466D01*
X0047254Y0045498D01*
X0047174Y0045535D01*
X0047095Y0045575D01*
X0047018Y0045619D01*
X0046943Y0045666D01*
X0046871Y0045716D01*
X0046800Y0045770D01*
X0046733Y0045826D01*
X0046667Y0045886D01*
X0046605Y0045948D01*
X0046545Y0046014D01*
X0046489Y0046081D01*
X0046435Y0046152D01*
X0046385Y0046224D01*
X0046338Y0046299D01*
X0046294Y0046376D01*
X0046254Y0046455D01*
X0046217Y0046535D01*
X0046185Y0046617D01*
X0046155Y0046701D01*
X0046130Y0046785D01*
X0046108Y0046871D01*
X0046091Y0046957D01*
X0046077Y0047045D01*
X0046067Y0047133D01*
X0046061Y0047221D01*
X0046059Y0047309D01*
X0046059Y0070931D02*
X0046061Y0071019D01*
X0046067Y0071107D01*
X0046077Y0071195D01*
X0046091Y0071283D01*
X0046108Y0071369D01*
X0046130Y0071455D01*
X0046155Y0071539D01*
X0046185Y0071623D01*
X0046217Y0071705D01*
X0046254Y0071785D01*
X0046294Y0071864D01*
X0046338Y0071941D01*
X0046385Y0072016D01*
X0046435Y0072088D01*
X0046489Y0072159D01*
X0046545Y0072226D01*
X0046605Y0072292D01*
X0046667Y0072354D01*
X0046733Y0072414D01*
X0046800Y0072470D01*
X0046871Y0072524D01*
X0046943Y0072574D01*
X0047018Y0072621D01*
X0047095Y0072665D01*
X0047174Y0072705D01*
X0047254Y0072742D01*
X0047336Y0072774D01*
X0047420Y0072804D01*
X0047504Y0072829D01*
X0047590Y0072851D01*
X0047676Y0072868D01*
X0047764Y0072882D01*
X0047852Y0072892D01*
X0047940Y0072898D01*
X0048028Y0072900D01*
X0048116Y0072898D01*
X0048204Y0072892D01*
X0048292Y0072882D01*
X0048380Y0072868D01*
X0048466Y0072851D01*
X0048552Y0072829D01*
X0048636Y0072804D01*
X0048720Y0072774D01*
X0048802Y0072742D01*
X0048882Y0072705D01*
X0048961Y0072665D01*
X0049038Y0072621D01*
X0049113Y0072574D01*
X0049185Y0072524D01*
X0049256Y0072470D01*
X0049323Y0072414D01*
X0049389Y0072354D01*
X0049451Y0072292D01*
X0049511Y0072226D01*
X0049567Y0072159D01*
X0049621Y0072088D01*
X0049671Y0072016D01*
X0049718Y0071941D01*
X0049762Y0071864D01*
X0049802Y0071785D01*
X0049839Y0071705D01*
X0049871Y0071623D01*
X0049901Y0071539D01*
X0049926Y0071455D01*
X0049948Y0071369D01*
X0049965Y0071283D01*
X0049979Y0071195D01*
X0049989Y0071107D01*
X0049995Y0071019D01*
X0049997Y0070931D01*
X0049995Y0070843D01*
X0049989Y0070755D01*
X0049979Y0070667D01*
X0049965Y0070579D01*
X0049948Y0070493D01*
X0049926Y0070407D01*
X0049901Y0070323D01*
X0049871Y0070239D01*
X0049839Y0070157D01*
X0049802Y0070077D01*
X0049762Y0069998D01*
X0049718Y0069921D01*
X0049671Y0069846D01*
X0049621Y0069774D01*
X0049567Y0069703D01*
X0049511Y0069636D01*
X0049451Y0069570D01*
X0049389Y0069508D01*
X0049323Y0069448D01*
X0049256Y0069392D01*
X0049185Y0069338D01*
X0049113Y0069288D01*
X0049038Y0069241D01*
X0048961Y0069197D01*
X0048882Y0069157D01*
X0048802Y0069120D01*
X0048720Y0069088D01*
X0048636Y0069058D01*
X0048552Y0069033D01*
X0048466Y0069011D01*
X0048380Y0068994D01*
X0048292Y0068980D01*
X0048204Y0068970D01*
X0048116Y0068964D01*
X0048028Y0068962D01*
X0047940Y0068964D01*
X0047852Y0068970D01*
X0047764Y0068980D01*
X0047676Y0068994D01*
X0047590Y0069011D01*
X0047504Y0069033D01*
X0047420Y0069058D01*
X0047336Y0069088D01*
X0047254Y0069120D01*
X0047174Y0069157D01*
X0047095Y0069197D01*
X0047018Y0069241D01*
X0046943Y0069288D01*
X0046871Y0069338D01*
X0046800Y0069392D01*
X0046733Y0069448D01*
X0046667Y0069508D01*
X0046605Y0069570D01*
X0046545Y0069636D01*
X0046489Y0069703D01*
X0046435Y0069774D01*
X0046385Y0069846D01*
X0046338Y0069921D01*
X0046294Y0069998D01*
X0046254Y0070077D01*
X0046217Y0070157D01*
X0046185Y0070239D01*
X0046155Y0070323D01*
X0046130Y0070407D01*
X0046108Y0070493D01*
X0046091Y0070579D01*
X0046077Y0070667D01*
X0046067Y0070755D01*
X0046061Y0070843D01*
X0046059Y0070931D01*
X0048028Y0086679D02*
X0048030Y0086767D01*
X0048036Y0086855D01*
X0048046Y0086943D01*
X0048060Y0087031D01*
X0048077Y0087117D01*
X0048099Y0087203D01*
X0048124Y0087287D01*
X0048154Y0087371D01*
X0048186Y0087453D01*
X0048223Y0087533D01*
X0048263Y0087612D01*
X0048307Y0087689D01*
X0048354Y0087764D01*
X0048404Y0087836D01*
X0048458Y0087907D01*
X0048514Y0087974D01*
X0048574Y0088040D01*
X0048636Y0088102D01*
X0048702Y0088162D01*
X0048769Y0088218D01*
X0048840Y0088272D01*
X0048912Y0088322D01*
X0048987Y0088369D01*
X0049064Y0088413D01*
X0049143Y0088453D01*
X0049223Y0088490D01*
X0049305Y0088522D01*
X0049389Y0088552D01*
X0049473Y0088577D01*
X0049559Y0088599D01*
X0049645Y0088616D01*
X0049733Y0088630D01*
X0049821Y0088640D01*
X0049909Y0088646D01*
X0049997Y0088648D01*
X0050085Y0088646D01*
X0050173Y0088640D01*
X0050261Y0088630D01*
X0050349Y0088616D01*
X0050435Y0088599D01*
X0050521Y0088577D01*
X0050605Y0088552D01*
X0050689Y0088522D01*
X0050771Y0088490D01*
X0050851Y0088453D01*
X0050930Y0088413D01*
X0051007Y0088369D01*
X0051082Y0088322D01*
X0051154Y0088272D01*
X0051225Y0088218D01*
X0051292Y0088162D01*
X0051358Y0088102D01*
X0051420Y0088040D01*
X0051480Y0087974D01*
X0051536Y0087907D01*
X0051590Y0087836D01*
X0051640Y0087764D01*
X0051687Y0087689D01*
X0051731Y0087612D01*
X0051771Y0087533D01*
X0051808Y0087453D01*
X0051840Y0087371D01*
X0051870Y0087287D01*
X0051895Y0087203D01*
X0051917Y0087117D01*
X0051934Y0087031D01*
X0051948Y0086943D01*
X0051958Y0086855D01*
X0051964Y0086767D01*
X0051966Y0086679D01*
X0051964Y0086591D01*
X0051958Y0086503D01*
X0051948Y0086415D01*
X0051934Y0086327D01*
X0051917Y0086241D01*
X0051895Y0086155D01*
X0051870Y0086071D01*
X0051840Y0085987D01*
X0051808Y0085905D01*
X0051771Y0085825D01*
X0051731Y0085746D01*
X0051687Y0085669D01*
X0051640Y0085594D01*
X0051590Y0085522D01*
X0051536Y0085451D01*
X0051480Y0085384D01*
X0051420Y0085318D01*
X0051358Y0085256D01*
X0051292Y0085196D01*
X0051225Y0085140D01*
X0051154Y0085086D01*
X0051082Y0085036D01*
X0051007Y0084989D01*
X0050930Y0084945D01*
X0050851Y0084905D01*
X0050771Y0084868D01*
X0050689Y0084836D01*
X0050605Y0084806D01*
X0050521Y0084781D01*
X0050435Y0084759D01*
X0050349Y0084742D01*
X0050261Y0084728D01*
X0050173Y0084718D01*
X0050085Y0084712D01*
X0049997Y0084710D01*
X0049909Y0084712D01*
X0049821Y0084718D01*
X0049733Y0084728D01*
X0049645Y0084742D01*
X0049559Y0084759D01*
X0049473Y0084781D01*
X0049389Y0084806D01*
X0049305Y0084836D01*
X0049223Y0084868D01*
X0049143Y0084905D01*
X0049064Y0084945D01*
X0048987Y0084989D01*
X0048912Y0085036D01*
X0048840Y0085086D01*
X0048769Y0085140D01*
X0048702Y0085196D01*
X0048636Y0085256D01*
X0048574Y0085318D01*
X0048514Y0085384D01*
X0048458Y0085451D01*
X0048404Y0085522D01*
X0048354Y0085594D01*
X0048307Y0085669D01*
X0048263Y0085746D01*
X0048223Y0085825D01*
X0048186Y0085905D01*
X0048154Y0085987D01*
X0048124Y0086071D01*
X0048099Y0086155D01*
X0048077Y0086241D01*
X0048060Y0086327D01*
X0048046Y0086415D01*
X0048036Y0086503D01*
X0048030Y0086591D01*
X0048028Y0086679D01*
X0116925Y0031561D02*
X0116927Y0031649D01*
X0116933Y0031737D01*
X0116943Y0031825D01*
X0116957Y0031913D01*
X0116974Y0031999D01*
X0116996Y0032085D01*
X0117021Y0032169D01*
X0117051Y0032253D01*
X0117083Y0032335D01*
X0117120Y0032415D01*
X0117160Y0032494D01*
X0117204Y0032571D01*
X0117251Y0032646D01*
X0117301Y0032718D01*
X0117355Y0032789D01*
X0117411Y0032856D01*
X0117471Y0032922D01*
X0117533Y0032984D01*
X0117599Y0033044D01*
X0117666Y0033100D01*
X0117737Y0033154D01*
X0117809Y0033204D01*
X0117884Y0033251D01*
X0117961Y0033295D01*
X0118040Y0033335D01*
X0118120Y0033372D01*
X0118202Y0033404D01*
X0118286Y0033434D01*
X0118370Y0033459D01*
X0118456Y0033481D01*
X0118542Y0033498D01*
X0118630Y0033512D01*
X0118718Y0033522D01*
X0118806Y0033528D01*
X0118894Y0033530D01*
X0118982Y0033528D01*
X0119070Y0033522D01*
X0119158Y0033512D01*
X0119246Y0033498D01*
X0119332Y0033481D01*
X0119418Y0033459D01*
X0119502Y0033434D01*
X0119586Y0033404D01*
X0119668Y0033372D01*
X0119748Y0033335D01*
X0119827Y0033295D01*
X0119904Y0033251D01*
X0119979Y0033204D01*
X0120051Y0033154D01*
X0120122Y0033100D01*
X0120189Y0033044D01*
X0120255Y0032984D01*
X0120317Y0032922D01*
X0120377Y0032856D01*
X0120433Y0032789D01*
X0120487Y0032718D01*
X0120537Y0032646D01*
X0120584Y0032571D01*
X0120628Y0032494D01*
X0120668Y0032415D01*
X0120705Y0032335D01*
X0120737Y0032253D01*
X0120767Y0032169D01*
X0120792Y0032085D01*
X0120814Y0031999D01*
X0120831Y0031913D01*
X0120845Y0031825D01*
X0120855Y0031737D01*
X0120861Y0031649D01*
X0120863Y0031561D01*
X0120861Y0031473D01*
X0120855Y0031385D01*
X0120845Y0031297D01*
X0120831Y0031209D01*
X0120814Y0031123D01*
X0120792Y0031037D01*
X0120767Y0030953D01*
X0120737Y0030869D01*
X0120705Y0030787D01*
X0120668Y0030707D01*
X0120628Y0030628D01*
X0120584Y0030551D01*
X0120537Y0030476D01*
X0120487Y0030404D01*
X0120433Y0030333D01*
X0120377Y0030266D01*
X0120317Y0030200D01*
X0120255Y0030138D01*
X0120189Y0030078D01*
X0120122Y0030022D01*
X0120051Y0029968D01*
X0119979Y0029918D01*
X0119904Y0029871D01*
X0119827Y0029827D01*
X0119748Y0029787D01*
X0119668Y0029750D01*
X0119586Y0029718D01*
X0119502Y0029688D01*
X0119418Y0029663D01*
X0119332Y0029641D01*
X0119246Y0029624D01*
X0119158Y0029610D01*
X0119070Y0029600D01*
X0118982Y0029594D01*
X0118894Y0029592D01*
X0118806Y0029594D01*
X0118718Y0029600D01*
X0118630Y0029610D01*
X0118542Y0029624D01*
X0118456Y0029641D01*
X0118370Y0029663D01*
X0118286Y0029688D01*
X0118202Y0029718D01*
X0118120Y0029750D01*
X0118040Y0029787D01*
X0117961Y0029827D01*
X0117884Y0029871D01*
X0117809Y0029918D01*
X0117737Y0029968D01*
X0117666Y0030022D01*
X0117599Y0030078D01*
X0117533Y0030138D01*
X0117471Y0030200D01*
X0117411Y0030266D01*
X0117355Y0030333D01*
X0117301Y0030404D01*
X0117251Y0030476D01*
X0117204Y0030551D01*
X0117160Y0030628D01*
X0117120Y0030707D01*
X0117083Y0030787D01*
X0117051Y0030869D01*
X0117021Y0030953D01*
X0116996Y0031037D01*
X0116974Y0031123D01*
X0116957Y0031209D01*
X0116943Y0031297D01*
X0116933Y0031385D01*
X0116927Y0031473D01*
X0116925Y0031561D01*
X0138579Y0031561D02*
X0138581Y0031649D01*
X0138587Y0031737D01*
X0138597Y0031825D01*
X0138611Y0031913D01*
X0138628Y0031999D01*
X0138650Y0032085D01*
X0138675Y0032169D01*
X0138705Y0032253D01*
X0138737Y0032335D01*
X0138774Y0032415D01*
X0138814Y0032494D01*
X0138858Y0032571D01*
X0138905Y0032646D01*
X0138955Y0032718D01*
X0139009Y0032789D01*
X0139065Y0032856D01*
X0139125Y0032922D01*
X0139187Y0032984D01*
X0139253Y0033044D01*
X0139320Y0033100D01*
X0139391Y0033154D01*
X0139463Y0033204D01*
X0139538Y0033251D01*
X0139615Y0033295D01*
X0139694Y0033335D01*
X0139774Y0033372D01*
X0139856Y0033404D01*
X0139940Y0033434D01*
X0140024Y0033459D01*
X0140110Y0033481D01*
X0140196Y0033498D01*
X0140284Y0033512D01*
X0140372Y0033522D01*
X0140460Y0033528D01*
X0140548Y0033530D01*
X0140636Y0033528D01*
X0140724Y0033522D01*
X0140812Y0033512D01*
X0140900Y0033498D01*
X0140986Y0033481D01*
X0141072Y0033459D01*
X0141156Y0033434D01*
X0141240Y0033404D01*
X0141322Y0033372D01*
X0141402Y0033335D01*
X0141481Y0033295D01*
X0141558Y0033251D01*
X0141633Y0033204D01*
X0141705Y0033154D01*
X0141776Y0033100D01*
X0141843Y0033044D01*
X0141909Y0032984D01*
X0141971Y0032922D01*
X0142031Y0032856D01*
X0142087Y0032789D01*
X0142141Y0032718D01*
X0142191Y0032646D01*
X0142238Y0032571D01*
X0142282Y0032494D01*
X0142322Y0032415D01*
X0142359Y0032335D01*
X0142391Y0032253D01*
X0142421Y0032169D01*
X0142446Y0032085D01*
X0142468Y0031999D01*
X0142485Y0031913D01*
X0142499Y0031825D01*
X0142509Y0031737D01*
X0142515Y0031649D01*
X0142517Y0031561D01*
X0142515Y0031473D01*
X0142509Y0031385D01*
X0142499Y0031297D01*
X0142485Y0031209D01*
X0142468Y0031123D01*
X0142446Y0031037D01*
X0142421Y0030953D01*
X0142391Y0030869D01*
X0142359Y0030787D01*
X0142322Y0030707D01*
X0142282Y0030628D01*
X0142238Y0030551D01*
X0142191Y0030476D01*
X0142141Y0030404D01*
X0142087Y0030333D01*
X0142031Y0030266D01*
X0141971Y0030200D01*
X0141909Y0030138D01*
X0141843Y0030078D01*
X0141776Y0030022D01*
X0141705Y0029968D01*
X0141633Y0029918D01*
X0141558Y0029871D01*
X0141481Y0029827D01*
X0141402Y0029787D01*
X0141322Y0029750D01*
X0141240Y0029718D01*
X0141156Y0029688D01*
X0141072Y0029663D01*
X0140986Y0029641D01*
X0140900Y0029624D01*
X0140812Y0029610D01*
X0140724Y0029600D01*
X0140636Y0029594D01*
X0140548Y0029592D01*
X0140460Y0029594D01*
X0140372Y0029600D01*
X0140284Y0029610D01*
X0140196Y0029624D01*
X0140110Y0029641D01*
X0140024Y0029663D01*
X0139940Y0029688D01*
X0139856Y0029718D01*
X0139774Y0029750D01*
X0139694Y0029787D01*
X0139615Y0029827D01*
X0139538Y0029871D01*
X0139463Y0029918D01*
X0139391Y0029968D01*
X0139320Y0030022D01*
X0139253Y0030078D01*
X0139187Y0030138D01*
X0139125Y0030200D01*
X0139065Y0030266D01*
X0139009Y0030333D01*
X0138955Y0030404D01*
X0138905Y0030476D01*
X0138858Y0030551D01*
X0138814Y0030628D01*
X0138774Y0030707D01*
X0138737Y0030787D01*
X0138705Y0030869D01*
X0138675Y0030953D01*
X0138650Y0031037D01*
X0138628Y0031123D01*
X0138611Y0031209D01*
X0138597Y0031297D01*
X0138587Y0031385D01*
X0138581Y0031473D01*
X0138579Y0031561D01*
X0311807Y0031561D02*
X0311809Y0031649D01*
X0311815Y0031737D01*
X0311825Y0031825D01*
X0311839Y0031913D01*
X0311856Y0031999D01*
X0311878Y0032085D01*
X0311903Y0032169D01*
X0311933Y0032253D01*
X0311965Y0032335D01*
X0312002Y0032415D01*
X0312042Y0032494D01*
X0312086Y0032571D01*
X0312133Y0032646D01*
X0312183Y0032718D01*
X0312237Y0032789D01*
X0312293Y0032856D01*
X0312353Y0032922D01*
X0312415Y0032984D01*
X0312481Y0033044D01*
X0312548Y0033100D01*
X0312619Y0033154D01*
X0312691Y0033204D01*
X0312766Y0033251D01*
X0312843Y0033295D01*
X0312922Y0033335D01*
X0313002Y0033372D01*
X0313084Y0033404D01*
X0313168Y0033434D01*
X0313252Y0033459D01*
X0313338Y0033481D01*
X0313424Y0033498D01*
X0313512Y0033512D01*
X0313600Y0033522D01*
X0313688Y0033528D01*
X0313776Y0033530D01*
X0313864Y0033528D01*
X0313952Y0033522D01*
X0314040Y0033512D01*
X0314128Y0033498D01*
X0314214Y0033481D01*
X0314300Y0033459D01*
X0314384Y0033434D01*
X0314468Y0033404D01*
X0314550Y0033372D01*
X0314630Y0033335D01*
X0314709Y0033295D01*
X0314786Y0033251D01*
X0314861Y0033204D01*
X0314933Y0033154D01*
X0315004Y0033100D01*
X0315071Y0033044D01*
X0315137Y0032984D01*
X0315199Y0032922D01*
X0315259Y0032856D01*
X0315315Y0032789D01*
X0315369Y0032718D01*
X0315419Y0032646D01*
X0315466Y0032571D01*
X0315510Y0032494D01*
X0315550Y0032415D01*
X0315587Y0032335D01*
X0315619Y0032253D01*
X0315649Y0032169D01*
X0315674Y0032085D01*
X0315696Y0031999D01*
X0315713Y0031913D01*
X0315727Y0031825D01*
X0315737Y0031737D01*
X0315743Y0031649D01*
X0315745Y0031561D01*
X0315743Y0031473D01*
X0315737Y0031385D01*
X0315727Y0031297D01*
X0315713Y0031209D01*
X0315696Y0031123D01*
X0315674Y0031037D01*
X0315649Y0030953D01*
X0315619Y0030869D01*
X0315587Y0030787D01*
X0315550Y0030707D01*
X0315510Y0030628D01*
X0315466Y0030551D01*
X0315419Y0030476D01*
X0315369Y0030404D01*
X0315315Y0030333D01*
X0315259Y0030266D01*
X0315199Y0030200D01*
X0315137Y0030138D01*
X0315071Y0030078D01*
X0315004Y0030022D01*
X0314933Y0029968D01*
X0314861Y0029918D01*
X0314786Y0029871D01*
X0314709Y0029827D01*
X0314630Y0029787D01*
X0314550Y0029750D01*
X0314468Y0029718D01*
X0314384Y0029688D01*
X0314300Y0029663D01*
X0314214Y0029641D01*
X0314128Y0029624D01*
X0314040Y0029610D01*
X0313952Y0029600D01*
X0313864Y0029594D01*
X0313776Y0029592D01*
X0313688Y0029594D01*
X0313600Y0029600D01*
X0313512Y0029610D01*
X0313424Y0029624D01*
X0313338Y0029641D01*
X0313252Y0029663D01*
X0313168Y0029688D01*
X0313084Y0029718D01*
X0313002Y0029750D01*
X0312922Y0029787D01*
X0312843Y0029827D01*
X0312766Y0029871D01*
X0312691Y0029918D01*
X0312619Y0029968D01*
X0312548Y0030022D01*
X0312481Y0030078D01*
X0312415Y0030138D01*
X0312353Y0030200D01*
X0312293Y0030266D01*
X0312237Y0030333D01*
X0312183Y0030404D01*
X0312133Y0030476D01*
X0312086Y0030551D01*
X0312042Y0030628D01*
X0312002Y0030707D01*
X0311965Y0030787D01*
X0311933Y0030869D01*
X0311903Y0030953D01*
X0311878Y0031037D01*
X0311856Y0031123D01*
X0311839Y0031209D01*
X0311825Y0031297D01*
X0311815Y0031385D01*
X0311809Y0031473D01*
X0311807Y0031561D01*
X0313776Y0047309D02*
X0313778Y0047397D01*
X0313784Y0047485D01*
X0313794Y0047573D01*
X0313808Y0047661D01*
X0313825Y0047747D01*
X0313847Y0047833D01*
X0313872Y0047917D01*
X0313902Y0048001D01*
X0313934Y0048083D01*
X0313971Y0048163D01*
X0314011Y0048242D01*
X0314055Y0048319D01*
X0314102Y0048394D01*
X0314152Y0048466D01*
X0314206Y0048537D01*
X0314262Y0048604D01*
X0314322Y0048670D01*
X0314384Y0048732D01*
X0314450Y0048792D01*
X0314517Y0048848D01*
X0314588Y0048902D01*
X0314660Y0048952D01*
X0314735Y0048999D01*
X0314812Y0049043D01*
X0314891Y0049083D01*
X0314971Y0049120D01*
X0315053Y0049152D01*
X0315137Y0049182D01*
X0315221Y0049207D01*
X0315307Y0049229D01*
X0315393Y0049246D01*
X0315481Y0049260D01*
X0315569Y0049270D01*
X0315657Y0049276D01*
X0315745Y0049278D01*
X0315833Y0049276D01*
X0315921Y0049270D01*
X0316009Y0049260D01*
X0316097Y0049246D01*
X0316183Y0049229D01*
X0316269Y0049207D01*
X0316353Y0049182D01*
X0316437Y0049152D01*
X0316519Y0049120D01*
X0316599Y0049083D01*
X0316678Y0049043D01*
X0316755Y0048999D01*
X0316830Y0048952D01*
X0316902Y0048902D01*
X0316973Y0048848D01*
X0317040Y0048792D01*
X0317106Y0048732D01*
X0317168Y0048670D01*
X0317228Y0048604D01*
X0317284Y0048537D01*
X0317338Y0048466D01*
X0317388Y0048394D01*
X0317435Y0048319D01*
X0317479Y0048242D01*
X0317519Y0048163D01*
X0317556Y0048083D01*
X0317588Y0048001D01*
X0317618Y0047917D01*
X0317643Y0047833D01*
X0317665Y0047747D01*
X0317682Y0047661D01*
X0317696Y0047573D01*
X0317706Y0047485D01*
X0317712Y0047397D01*
X0317714Y0047309D01*
X0317712Y0047221D01*
X0317706Y0047133D01*
X0317696Y0047045D01*
X0317682Y0046957D01*
X0317665Y0046871D01*
X0317643Y0046785D01*
X0317618Y0046701D01*
X0317588Y0046617D01*
X0317556Y0046535D01*
X0317519Y0046455D01*
X0317479Y0046376D01*
X0317435Y0046299D01*
X0317388Y0046224D01*
X0317338Y0046152D01*
X0317284Y0046081D01*
X0317228Y0046014D01*
X0317168Y0045948D01*
X0317106Y0045886D01*
X0317040Y0045826D01*
X0316973Y0045770D01*
X0316902Y0045716D01*
X0316830Y0045666D01*
X0316755Y0045619D01*
X0316678Y0045575D01*
X0316599Y0045535D01*
X0316519Y0045498D01*
X0316437Y0045466D01*
X0316353Y0045436D01*
X0316269Y0045411D01*
X0316183Y0045389D01*
X0316097Y0045372D01*
X0316009Y0045358D01*
X0315921Y0045348D01*
X0315833Y0045342D01*
X0315745Y0045340D01*
X0315657Y0045342D01*
X0315569Y0045348D01*
X0315481Y0045358D01*
X0315393Y0045372D01*
X0315307Y0045389D01*
X0315221Y0045411D01*
X0315137Y0045436D01*
X0315053Y0045466D01*
X0314971Y0045498D01*
X0314891Y0045535D01*
X0314812Y0045575D01*
X0314735Y0045619D01*
X0314660Y0045666D01*
X0314588Y0045716D01*
X0314517Y0045770D01*
X0314450Y0045826D01*
X0314384Y0045886D01*
X0314322Y0045948D01*
X0314262Y0046014D01*
X0314206Y0046081D01*
X0314152Y0046152D01*
X0314102Y0046224D01*
X0314055Y0046299D01*
X0314011Y0046376D01*
X0313971Y0046455D01*
X0313934Y0046535D01*
X0313902Y0046617D01*
X0313872Y0046701D01*
X0313847Y0046785D01*
X0313825Y0046871D01*
X0313808Y0046957D01*
X0313794Y0047045D01*
X0313784Y0047133D01*
X0313778Y0047221D01*
X0313776Y0047309D01*
X0313776Y0070931D02*
X0313778Y0071019D01*
X0313784Y0071107D01*
X0313794Y0071195D01*
X0313808Y0071283D01*
X0313825Y0071369D01*
X0313847Y0071455D01*
X0313872Y0071539D01*
X0313902Y0071623D01*
X0313934Y0071705D01*
X0313971Y0071785D01*
X0314011Y0071864D01*
X0314055Y0071941D01*
X0314102Y0072016D01*
X0314152Y0072088D01*
X0314206Y0072159D01*
X0314262Y0072226D01*
X0314322Y0072292D01*
X0314384Y0072354D01*
X0314450Y0072414D01*
X0314517Y0072470D01*
X0314588Y0072524D01*
X0314660Y0072574D01*
X0314735Y0072621D01*
X0314812Y0072665D01*
X0314891Y0072705D01*
X0314971Y0072742D01*
X0315053Y0072774D01*
X0315137Y0072804D01*
X0315221Y0072829D01*
X0315307Y0072851D01*
X0315393Y0072868D01*
X0315481Y0072882D01*
X0315569Y0072892D01*
X0315657Y0072898D01*
X0315745Y0072900D01*
X0315833Y0072898D01*
X0315921Y0072892D01*
X0316009Y0072882D01*
X0316097Y0072868D01*
X0316183Y0072851D01*
X0316269Y0072829D01*
X0316353Y0072804D01*
X0316437Y0072774D01*
X0316519Y0072742D01*
X0316599Y0072705D01*
X0316678Y0072665D01*
X0316755Y0072621D01*
X0316830Y0072574D01*
X0316902Y0072524D01*
X0316973Y0072470D01*
X0317040Y0072414D01*
X0317106Y0072354D01*
X0317168Y0072292D01*
X0317228Y0072226D01*
X0317284Y0072159D01*
X0317338Y0072088D01*
X0317388Y0072016D01*
X0317435Y0071941D01*
X0317479Y0071864D01*
X0317519Y0071785D01*
X0317556Y0071705D01*
X0317588Y0071623D01*
X0317618Y0071539D01*
X0317643Y0071455D01*
X0317665Y0071369D01*
X0317682Y0071283D01*
X0317696Y0071195D01*
X0317706Y0071107D01*
X0317712Y0071019D01*
X0317714Y0070931D01*
X0317712Y0070843D01*
X0317706Y0070755D01*
X0317696Y0070667D01*
X0317682Y0070579D01*
X0317665Y0070493D01*
X0317643Y0070407D01*
X0317618Y0070323D01*
X0317588Y0070239D01*
X0317556Y0070157D01*
X0317519Y0070077D01*
X0317479Y0069998D01*
X0317435Y0069921D01*
X0317388Y0069846D01*
X0317338Y0069774D01*
X0317284Y0069703D01*
X0317228Y0069636D01*
X0317168Y0069570D01*
X0317106Y0069508D01*
X0317040Y0069448D01*
X0316973Y0069392D01*
X0316902Y0069338D01*
X0316830Y0069288D01*
X0316755Y0069241D01*
X0316678Y0069197D01*
X0316599Y0069157D01*
X0316519Y0069120D01*
X0316437Y0069088D01*
X0316353Y0069058D01*
X0316269Y0069033D01*
X0316183Y0069011D01*
X0316097Y0068994D01*
X0316009Y0068980D01*
X0315921Y0068970D01*
X0315833Y0068964D01*
X0315745Y0068962D01*
X0315657Y0068964D01*
X0315569Y0068970D01*
X0315481Y0068980D01*
X0315393Y0068994D01*
X0315307Y0069011D01*
X0315221Y0069033D01*
X0315137Y0069058D01*
X0315053Y0069088D01*
X0314971Y0069120D01*
X0314891Y0069157D01*
X0314812Y0069197D01*
X0314735Y0069241D01*
X0314660Y0069288D01*
X0314588Y0069338D01*
X0314517Y0069392D01*
X0314450Y0069448D01*
X0314384Y0069508D01*
X0314322Y0069570D01*
X0314262Y0069636D01*
X0314206Y0069703D01*
X0314152Y0069774D01*
X0314102Y0069846D01*
X0314055Y0069921D01*
X0314011Y0069998D01*
X0313971Y0070077D01*
X0313934Y0070157D01*
X0313902Y0070239D01*
X0313872Y0070323D01*
X0313847Y0070407D01*
X0313825Y0070493D01*
X0313808Y0070579D01*
X0313794Y0070667D01*
X0313784Y0070755D01*
X0313778Y0070843D01*
X0313776Y0070931D01*
X0311807Y0086679D02*
X0311809Y0086767D01*
X0311815Y0086855D01*
X0311825Y0086943D01*
X0311839Y0087031D01*
X0311856Y0087117D01*
X0311878Y0087203D01*
X0311903Y0087287D01*
X0311933Y0087371D01*
X0311965Y0087453D01*
X0312002Y0087533D01*
X0312042Y0087612D01*
X0312086Y0087689D01*
X0312133Y0087764D01*
X0312183Y0087836D01*
X0312237Y0087907D01*
X0312293Y0087974D01*
X0312353Y0088040D01*
X0312415Y0088102D01*
X0312481Y0088162D01*
X0312548Y0088218D01*
X0312619Y0088272D01*
X0312691Y0088322D01*
X0312766Y0088369D01*
X0312843Y0088413D01*
X0312922Y0088453D01*
X0313002Y0088490D01*
X0313084Y0088522D01*
X0313168Y0088552D01*
X0313252Y0088577D01*
X0313338Y0088599D01*
X0313424Y0088616D01*
X0313512Y0088630D01*
X0313600Y0088640D01*
X0313688Y0088646D01*
X0313776Y0088648D01*
X0313864Y0088646D01*
X0313952Y0088640D01*
X0314040Y0088630D01*
X0314128Y0088616D01*
X0314214Y0088599D01*
X0314300Y0088577D01*
X0314384Y0088552D01*
X0314468Y0088522D01*
X0314550Y0088490D01*
X0314630Y0088453D01*
X0314709Y0088413D01*
X0314786Y0088369D01*
X0314861Y0088322D01*
X0314933Y0088272D01*
X0315004Y0088218D01*
X0315071Y0088162D01*
X0315137Y0088102D01*
X0315199Y0088040D01*
X0315259Y0087974D01*
X0315315Y0087907D01*
X0315369Y0087836D01*
X0315419Y0087764D01*
X0315466Y0087689D01*
X0315510Y0087612D01*
X0315550Y0087533D01*
X0315587Y0087453D01*
X0315619Y0087371D01*
X0315649Y0087287D01*
X0315674Y0087203D01*
X0315696Y0087117D01*
X0315713Y0087031D01*
X0315727Y0086943D01*
X0315737Y0086855D01*
X0315743Y0086767D01*
X0315745Y0086679D01*
X0315743Y0086591D01*
X0315737Y0086503D01*
X0315727Y0086415D01*
X0315713Y0086327D01*
X0315696Y0086241D01*
X0315674Y0086155D01*
X0315649Y0086071D01*
X0315619Y0085987D01*
X0315587Y0085905D01*
X0315550Y0085825D01*
X0315510Y0085746D01*
X0315466Y0085669D01*
X0315419Y0085594D01*
X0315369Y0085522D01*
X0315315Y0085451D01*
X0315259Y0085384D01*
X0315199Y0085318D01*
X0315137Y0085256D01*
X0315071Y0085196D01*
X0315004Y0085140D01*
X0314933Y0085086D01*
X0314861Y0085036D01*
X0314786Y0084989D01*
X0314709Y0084945D01*
X0314630Y0084905D01*
X0314550Y0084868D01*
X0314468Y0084836D01*
X0314384Y0084806D01*
X0314300Y0084781D01*
X0314214Y0084759D01*
X0314128Y0084742D01*
X0314040Y0084728D01*
X0313952Y0084718D01*
X0313864Y0084712D01*
X0313776Y0084710D01*
X0313688Y0084712D01*
X0313600Y0084718D01*
X0313512Y0084728D01*
X0313424Y0084742D01*
X0313338Y0084759D01*
X0313252Y0084781D01*
X0313168Y0084806D01*
X0313084Y0084836D01*
X0313002Y0084868D01*
X0312922Y0084905D01*
X0312843Y0084945D01*
X0312766Y0084989D01*
X0312691Y0085036D01*
X0312619Y0085086D01*
X0312548Y0085140D01*
X0312481Y0085196D01*
X0312415Y0085256D01*
X0312353Y0085318D01*
X0312293Y0085384D01*
X0312237Y0085451D01*
X0312183Y0085522D01*
X0312133Y0085594D01*
X0312086Y0085669D01*
X0312042Y0085746D01*
X0312002Y0085825D01*
X0311965Y0085905D01*
X0311933Y0085987D01*
X0311903Y0086071D01*
X0311878Y0086155D01*
X0311856Y0086241D01*
X0311839Y0086327D01*
X0311825Y0086415D01*
X0311815Y0086503D01*
X0311809Y0086591D01*
X0311807Y0086679D01*
D12*
X0280312Y0027624D02*
X0260627Y0027624D01*
X0258658Y0025656D01*
X0246847Y0025656D02*
X0244879Y0027624D01*
X0225194Y0027624D01*
X0223225Y0025656D01*
X0211414Y0025656D02*
X0209446Y0027624D01*
X0189760Y0027624D01*
X0187792Y0025656D01*
X0175981Y0025656D02*
X0174012Y0027624D01*
X0154327Y0027624D01*
X0152359Y0025656D01*
X0103146Y0025656D02*
X0101178Y0027624D01*
X0081493Y0027624D01*
X0079524Y0025656D01*
X0280312Y0027624D02*
X0282280Y0025656D01*
D13*
X0297329Y0043356D02*
X0296995Y0043690D01*
X0296995Y0045024D01*
X0297329Y0045358D01*
X0298330Y0045358D01*
X0298330Y0043356D01*
X0297329Y0043356D01*
X0299205Y0043356D02*
X0299205Y0045358D01*
X0300540Y0045358D02*
X0299205Y0043356D01*
X0300540Y0043356D02*
X0300540Y0045358D01*
X0301415Y0045024D02*
X0301749Y0045358D01*
X0302416Y0045358D01*
X0302749Y0045024D01*
X0302749Y0043690D01*
X0302416Y0043356D01*
X0301749Y0043356D01*
X0301415Y0043690D01*
X0301415Y0044357D01*
X0302082Y0044357D01*
X0301749Y0053199D02*
X0302416Y0053199D01*
X0302749Y0053533D01*
X0302416Y0054200D02*
X0302749Y0054533D01*
X0302749Y0054867D01*
X0302416Y0055201D01*
X0301749Y0055201D01*
X0301415Y0054867D01*
X0301749Y0054200D02*
X0301415Y0053866D01*
X0301415Y0053533D01*
X0301749Y0053199D01*
X0301749Y0054200D02*
X0302416Y0054200D01*
X0300540Y0054867D02*
X0300540Y0053533D01*
X0300206Y0053199D01*
X0299539Y0053199D01*
X0299205Y0053533D01*
X0298330Y0053199D02*
X0296995Y0053199D01*
X0298330Y0053199D02*
X0298330Y0055201D01*
X0299205Y0054867D02*
X0299539Y0055201D01*
X0300206Y0055201D01*
X0300540Y0054867D01*
X0300540Y0063041D02*
X0299539Y0063041D01*
X0299205Y0063375D01*
X0299205Y0064710D01*
X0299539Y0065043D01*
X0300540Y0065043D01*
X0300540Y0063041D01*
X0301415Y0063375D02*
X0301749Y0063041D01*
X0302416Y0063041D01*
X0302749Y0063375D01*
X0302416Y0064042D02*
X0301749Y0064042D01*
X0301415Y0063709D01*
X0301415Y0063375D01*
X0302416Y0064042D02*
X0302749Y0064376D01*
X0302749Y0064710D01*
X0302416Y0065043D01*
X0301749Y0065043D01*
X0301415Y0064710D01*
X0298330Y0064376D02*
X0298330Y0063041D01*
X0298330Y0064042D02*
X0296995Y0064042D01*
X0296995Y0064376D02*
X0296995Y0063041D01*
X0296995Y0064376D02*
X0297662Y0065043D01*
X0298330Y0064376D01*
X0297732Y0072884D02*
X0297732Y0074886D01*
X0299066Y0074886D02*
X0297732Y0072884D01*
X0299066Y0072884D02*
X0299066Y0074886D01*
X0299872Y0074886D02*
X0300540Y0074886D01*
X0300206Y0074886D02*
X0300206Y0072884D01*
X0300540Y0072884D02*
X0299872Y0072884D01*
X0301415Y0073551D02*
X0302082Y0072884D01*
X0302749Y0073551D01*
X0302749Y0074886D01*
X0301415Y0074886D02*
X0301415Y0073551D01*
X0140462Y0087648D02*
X0140462Y0089649D01*
X0139795Y0088982D01*
X0139128Y0089649D01*
X0139128Y0087648D01*
X0138252Y0087648D02*
X0137585Y0087648D01*
X0137919Y0087648D02*
X0137919Y0089649D01*
X0138252Y0089649D02*
X0137585Y0089649D01*
X0136779Y0089316D02*
X0136779Y0088982D01*
X0136446Y0088649D01*
X0135778Y0088649D01*
X0135445Y0088315D01*
X0135445Y0087981D01*
X0135778Y0087648D01*
X0136446Y0087648D01*
X0136779Y0087981D01*
X0136779Y0089316D02*
X0136446Y0089649D01*
X0135778Y0089649D01*
X0135445Y0089316D01*
X0134569Y0089316D02*
X0134569Y0087981D01*
X0134236Y0087648D01*
X0133568Y0087648D01*
X0133235Y0087981D01*
X0133235Y0089316D01*
X0133568Y0089649D01*
X0134236Y0089649D01*
X0134569Y0089316D01*
X0129636Y0089649D02*
X0129636Y0087648D01*
X0128301Y0087648D02*
X0128301Y0089649D01*
X0128968Y0088982D01*
X0129636Y0089649D01*
X0127426Y0089316D02*
X0127426Y0087981D01*
X0127092Y0087648D01*
X0126425Y0087648D01*
X0126091Y0087981D01*
X0126091Y0089316D01*
X0126425Y0089649D01*
X0127092Y0089649D01*
X0127426Y0089316D01*
X0125216Y0089316D02*
X0125216Y0088982D01*
X0124882Y0088649D01*
X0124215Y0088649D01*
X0123881Y0088315D01*
X0123881Y0087981D01*
X0124215Y0087648D01*
X0124882Y0087648D01*
X0125216Y0087981D01*
X0125216Y0089316D02*
X0124882Y0089649D01*
X0124215Y0089649D01*
X0123881Y0089316D01*
X0123006Y0089649D02*
X0122339Y0089649D01*
X0122672Y0089649D02*
X0122672Y0087648D01*
X0122339Y0087648D02*
X0123006Y0087648D01*
X0119056Y0087981D02*
X0118723Y0087648D01*
X0118056Y0087648D01*
X0117722Y0087981D01*
X0117722Y0088315D01*
X0118056Y0088649D01*
X0118723Y0088649D01*
X0119056Y0088982D01*
X0119056Y0089316D01*
X0118723Y0089649D01*
X0118056Y0089649D01*
X0117722Y0089316D01*
X0116847Y0089316D02*
X0116847Y0087981D01*
X0116513Y0087648D01*
X0115846Y0087648D01*
X0115512Y0087981D01*
X0114637Y0087648D02*
X0114637Y0089649D01*
X0115512Y0089316D02*
X0115846Y0089649D01*
X0116513Y0089649D01*
X0116847Y0089316D01*
X0114637Y0088315D02*
X0113302Y0089649D01*
X0114303Y0088649D02*
X0113302Y0087648D01*
X0109214Y0087648D02*
X0109214Y0089649D01*
X0108213Y0089649D01*
X0107879Y0089316D01*
X0107879Y0088649D01*
X0108213Y0088315D01*
X0109214Y0088315D01*
X0108547Y0088315D02*
X0107879Y0087648D01*
X0107004Y0087981D02*
X0106670Y0087648D01*
X0106003Y0087648D01*
X0105670Y0087981D01*
X0105670Y0088315D01*
X0106003Y0088649D01*
X0106670Y0088649D01*
X0107004Y0088982D01*
X0107004Y0089316D01*
X0106670Y0089649D01*
X0106003Y0089649D01*
X0105670Y0089316D01*
X0104794Y0089649D02*
X0103460Y0089649D01*
X0104127Y0089649D02*
X0104127Y0087648D01*
X0098266Y0087981D02*
X0097933Y0087648D01*
X0097266Y0087648D01*
X0096932Y0087981D01*
X0096932Y0088649D01*
X0097266Y0088982D01*
X0097599Y0088982D01*
X0098266Y0088649D01*
X0098266Y0089649D01*
X0096932Y0089649D01*
X0096057Y0089649D02*
X0096057Y0088315D01*
X0095389Y0087648D01*
X0094722Y0088315D01*
X0094722Y0089649D01*
X0089529Y0089316D02*
X0089529Y0087981D01*
X0089195Y0087648D01*
X0088528Y0087648D01*
X0088194Y0087981D01*
X0088194Y0088649D01*
X0088862Y0088649D01*
X0089529Y0089316D02*
X0089195Y0089649D01*
X0088528Y0089649D01*
X0088194Y0089316D01*
X0087319Y0089649D02*
X0085985Y0087648D01*
X0085985Y0089649D01*
X0085109Y0089649D02*
X0084108Y0089649D01*
X0083775Y0089316D01*
X0083775Y0087981D01*
X0084108Y0087648D01*
X0085109Y0087648D01*
X0085109Y0089649D01*
X0087319Y0089649D02*
X0087319Y0087648D01*
X0066517Y0074886D02*
X0066517Y0073551D01*
X0065849Y0072884D01*
X0065182Y0073551D01*
X0065182Y0074886D01*
X0064307Y0074886D02*
X0063639Y0074886D01*
X0063973Y0074886D02*
X0063973Y0072884D01*
X0064307Y0072884D02*
X0063639Y0072884D01*
X0062833Y0072884D02*
X0062833Y0074886D01*
X0061499Y0072884D01*
X0061499Y0074886D01*
X0062166Y0065043D02*
X0061499Y0064376D01*
X0061499Y0063041D01*
X0061499Y0064042D02*
X0062833Y0064042D01*
X0062833Y0064376D02*
X0062166Y0065043D01*
X0062833Y0064376D02*
X0062833Y0063041D01*
X0063709Y0063375D02*
X0063709Y0064710D01*
X0064042Y0065043D01*
X0065043Y0065043D01*
X0065043Y0063041D01*
X0064042Y0063041D01*
X0063709Y0063375D01*
X0065919Y0063375D02*
X0066252Y0063041D01*
X0066920Y0063041D01*
X0067253Y0063375D01*
X0066920Y0064042D02*
X0066252Y0064042D01*
X0065919Y0063709D01*
X0065919Y0063375D01*
X0066920Y0064042D02*
X0067253Y0064376D01*
X0067253Y0064710D01*
X0066920Y0065043D01*
X0066252Y0065043D01*
X0065919Y0064710D01*
X0066252Y0055201D02*
X0066920Y0055201D01*
X0067253Y0054867D01*
X0067253Y0054533D01*
X0066920Y0054200D01*
X0066252Y0054200D01*
X0065919Y0053866D01*
X0065919Y0053533D01*
X0066252Y0053199D01*
X0066920Y0053199D01*
X0067253Y0053533D01*
X0065919Y0054867D02*
X0066252Y0055201D01*
X0065043Y0054867D02*
X0064710Y0055201D01*
X0064042Y0055201D01*
X0063709Y0054867D01*
X0062833Y0055201D02*
X0062833Y0053199D01*
X0061499Y0053199D01*
X0063709Y0053533D02*
X0064042Y0053199D01*
X0064710Y0053199D01*
X0065043Y0053533D01*
X0065043Y0054867D01*
X0065043Y0045358D02*
X0063709Y0043356D01*
X0063709Y0045358D01*
X0062833Y0045358D02*
X0061833Y0045358D01*
X0061499Y0045024D01*
X0061499Y0043690D01*
X0061833Y0043356D01*
X0062833Y0043356D01*
X0062833Y0045358D01*
X0065043Y0045358D02*
X0065043Y0043356D01*
X0065919Y0043690D02*
X0065919Y0044357D01*
X0066586Y0044357D01*
X0067253Y0045024D02*
X0067253Y0043690D01*
X0066920Y0043356D01*
X0066252Y0043356D01*
X0065919Y0043690D01*
X0065919Y0045024D02*
X0066252Y0045358D01*
X0066920Y0045358D01*
X0067253Y0045024D01*
D14*
X0094464Y0055467D02*
X0094464Y0056869D01*
X0094931Y0056869D02*
X0093997Y0056869D01*
X0095470Y0056635D02*
X0095704Y0056869D01*
X0096171Y0056869D01*
X0096404Y0056635D01*
X0096404Y0056402D01*
X0096171Y0056168D01*
X0095704Y0056168D01*
X0095470Y0055934D01*
X0095470Y0055701D01*
X0095704Y0055467D01*
X0096171Y0055467D01*
X0096404Y0055701D01*
X0096943Y0055467D02*
X0097410Y0055934D01*
X0097177Y0055934D02*
X0097877Y0055934D01*
X0097877Y0055467D02*
X0097877Y0056869D01*
X0097177Y0056869D01*
X0096943Y0056635D01*
X0096943Y0056168D01*
X0097177Y0055934D01*
X0098417Y0055234D02*
X0099351Y0055234D01*
X0099890Y0055467D02*
X0100357Y0055934D01*
X0100123Y0055934D02*
X0100824Y0055934D01*
X0100824Y0055467D02*
X0100824Y0056869D01*
X0100123Y0056869D01*
X0099890Y0056635D01*
X0099890Y0056168D01*
X0100123Y0055934D01*
X0103839Y0049979D02*
X0104773Y0049979D01*
X0104306Y0049979D02*
X0104306Y0048578D01*
X0105313Y0048811D02*
X0105546Y0048578D01*
X0106013Y0048578D01*
X0106247Y0048811D01*
X0106013Y0049278D02*
X0105546Y0049278D01*
X0105313Y0049045D01*
X0105313Y0048811D01*
X0106013Y0049278D02*
X0106247Y0049512D01*
X0106247Y0049745D01*
X0106013Y0049979D01*
X0105546Y0049979D01*
X0105313Y0049745D01*
X0106786Y0049745D02*
X0106786Y0049278D01*
X0107019Y0049045D01*
X0107720Y0049045D01*
X0107253Y0049045D02*
X0106786Y0048578D01*
X0107720Y0048578D02*
X0107720Y0049979D01*
X0107019Y0049979D01*
X0106786Y0049745D01*
X0108259Y0048344D02*
X0109193Y0048344D01*
X0109732Y0048811D02*
X0109732Y0049745D01*
X0109966Y0049979D01*
X0110666Y0049979D01*
X0110666Y0048578D01*
X0109966Y0048578D01*
X0109732Y0048811D01*
X0139272Y0049795D02*
X0139506Y0049562D01*
X0139973Y0049562D01*
X0140207Y0049795D01*
X0140207Y0050730D01*
X0139973Y0050963D01*
X0139506Y0050963D01*
X0139272Y0050730D01*
X0140746Y0050730D02*
X0140979Y0050963D01*
X0141446Y0050963D01*
X0141680Y0050730D01*
X0141680Y0050496D01*
X0141446Y0050262D01*
X0140979Y0050262D01*
X0140746Y0050029D01*
X0140746Y0049795D01*
X0140979Y0049562D01*
X0141446Y0049562D01*
X0141680Y0049795D01*
X0142219Y0049795D02*
X0142219Y0050730D01*
X0142452Y0050963D01*
X0142920Y0050963D01*
X0143153Y0050730D01*
X0143153Y0049795D01*
X0142920Y0049562D01*
X0142452Y0049562D01*
X0142219Y0049795D01*
X0143692Y0049328D02*
X0144626Y0049328D01*
X0145165Y0049795D02*
X0145165Y0050963D01*
X0146100Y0050963D02*
X0146100Y0049795D01*
X0145866Y0049562D01*
X0145399Y0049562D01*
X0145165Y0049795D01*
X0176433Y0045808D02*
X0176433Y0045575D01*
X0176666Y0045341D01*
X0176433Y0045108D01*
X0176433Y0044874D01*
X0176666Y0044641D01*
X0177133Y0044641D01*
X0177367Y0044874D01*
X0177906Y0044874D02*
X0178139Y0044641D01*
X0178606Y0044641D01*
X0178840Y0044874D01*
X0177906Y0045808D01*
X0177906Y0044874D01*
X0178840Y0044874D02*
X0178840Y0045808D01*
X0178606Y0046042D01*
X0178139Y0046042D01*
X0177906Y0045808D01*
X0177367Y0045808D02*
X0177133Y0046042D01*
X0176666Y0046042D01*
X0176433Y0045808D01*
X0176666Y0045341D02*
X0176900Y0045341D01*
X0179379Y0044407D02*
X0180313Y0044407D01*
X0180852Y0044874D02*
X0180852Y0045808D01*
X0181086Y0046042D01*
X0181787Y0046042D01*
X0181787Y0044641D01*
X0181086Y0044641D01*
X0180852Y0044874D01*
X0182326Y0044641D02*
X0182326Y0045575D01*
X0182793Y0046042D01*
X0183260Y0045575D01*
X0183260Y0044641D01*
X0183260Y0045341D02*
X0182326Y0045341D01*
X0183799Y0045341D02*
X0183799Y0045808D01*
X0184032Y0046042D01*
X0184733Y0046042D01*
X0184733Y0044641D01*
X0184733Y0045108D02*
X0184032Y0045108D01*
X0183799Y0045341D01*
X0185272Y0044407D02*
X0186206Y0044407D01*
X0186745Y0044641D02*
X0187212Y0045108D01*
X0186979Y0045108D02*
X0187680Y0045108D01*
X0187680Y0044641D02*
X0187680Y0046042D01*
X0186979Y0046042D01*
X0186745Y0045808D01*
X0186745Y0045341D01*
X0186979Y0045108D01*
X0200791Y0048811D02*
X0201025Y0048578D01*
X0201492Y0048578D01*
X0201725Y0048811D01*
X0200791Y0049745D01*
X0200791Y0048811D01*
X0200791Y0049745D02*
X0201025Y0049979D01*
X0201492Y0049979D01*
X0201725Y0049745D01*
X0201725Y0048811D01*
X0202265Y0048344D02*
X0203199Y0048344D01*
X0203738Y0048578D02*
X0203738Y0049979D01*
X0204205Y0049512D01*
X0204672Y0049979D01*
X0204672Y0048578D01*
X0205678Y0048578D02*
X0205678Y0049979D01*
X0206145Y0049979D02*
X0205211Y0049979D01*
X0206684Y0049512D02*
X0206684Y0048578D01*
X0206684Y0049278D02*
X0207618Y0049278D01*
X0207618Y0049512D02*
X0207151Y0049979D01*
X0206684Y0049512D01*
X0207618Y0049512D02*
X0207618Y0048578D01*
X0208158Y0048344D02*
X0209092Y0048344D01*
X0209631Y0048811D02*
X0209864Y0048578D01*
X0210331Y0048578D01*
X0210565Y0048811D01*
X0210565Y0049745D01*
X0210331Y0049979D01*
X0209864Y0049979D01*
X0209631Y0049745D01*
X0212099Y0046042D02*
X0212566Y0046042D01*
X0212800Y0045808D01*
X0213339Y0045808D02*
X0214273Y0044874D01*
X0214040Y0044641D01*
X0213572Y0044641D01*
X0213339Y0044874D01*
X0213339Y0045808D01*
X0213572Y0046042D01*
X0214040Y0046042D01*
X0214273Y0045808D01*
X0214273Y0044874D01*
X0214812Y0044407D02*
X0215746Y0044407D01*
X0216285Y0044874D02*
X0216285Y0045808D01*
X0216519Y0046042D01*
X0217220Y0046042D01*
X0217220Y0044641D01*
X0216519Y0044641D01*
X0216285Y0044874D01*
X0217759Y0044641D02*
X0217759Y0045575D01*
X0218226Y0046042D01*
X0218693Y0045575D01*
X0218693Y0044641D01*
X0218693Y0045341D02*
X0217759Y0045341D01*
X0219232Y0045341D02*
X0219232Y0045808D01*
X0219465Y0046042D01*
X0220166Y0046042D01*
X0220166Y0044641D01*
X0220166Y0045108D02*
X0219465Y0045108D01*
X0219232Y0045341D01*
X0220705Y0044407D02*
X0221639Y0044407D01*
X0222178Y0044641D02*
X0222646Y0045108D01*
X0222412Y0045108D02*
X0223113Y0045108D01*
X0223113Y0044641D02*
X0223113Y0046042D01*
X0222412Y0046042D01*
X0222178Y0045808D01*
X0222178Y0045341D01*
X0222412Y0045108D01*
X0212800Y0044641D02*
X0211866Y0045575D01*
X0211866Y0045808D01*
X0212099Y0046042D01*
X0211866Y0044641D02*
X0212800Y0044641D01*
X0247299Y0044641D02*
X0248233Y0044641D01*
X0247766Y0044641D02*
X0247766Y0046042D01*
X0248233Y0045575D01*
X0248772Y0045808D02*
X0249706Y0044874D01*
X0249473Y0044641D01*
X0249006Y0044641D01*
X0248772Y0044874D01*
X0248772Y0045808D01*
X0249006Y0046042D01*
X0249473Y0046042D01*
X0249706Y0045808D01*
X0249706Y0044874D01*
X0250245Y0044407D02*
X0251179Y0044407D01*
X0251719Y0044874D02*
X0251719Y0045808D01*
X0251952Y0046042D01*
X0252653Y0046042D01*
X0252653Y0044641D01*
X0251952Y0044641D01*
X0251719Y0044874D01*
X0253192Y0044641D02*
X0253192Y0045575D01*
X0253659Y0046042D01*
X0254126Y0045575D01*
X0254126Y0044641D01*
X0254126Y0045341D02*
X0253192Y0045341D01*
X0254665Y0045341D02*
X0254665Y0045808D01*
X0254899Y0046042D01*
X0255599Y0046042D01*
X0255599Y0044641D01*
X0255599Y0045108D02*
X0254899Y0045108D01*
X0254665Y0045341D01*
X0256138Y0044407D02*
X0257072Y0044407D01*
X0257612Y0044641D02*
X0258079Y0045108D01*
X0257845Y0045108D02*
X0258546Y0045108D01*
X0258546Y0044641D02*
X0258546Y0046042D01*
X0257845Y0046042D01*
X0257612Y0045808D01*
X0257612Y0045341D01*
X0257845Y0045108D01*
X0282732Y0044874D02*
X0282965Y0044641D01*
X0283432Y0044641D01*
X0283666Y0044874D01*
X0282732Y0045808D01*
X0282732Y0044874D01*
X0283666Y0044874D02*
X0283666Y0045808D01*
X0283432Y0046042D01*
X0282965Y0046042D01*
X0282732Y0045808D01*
X0284205Y0045808D02*
X0285139Y0044874D01*
X0284906Y0044641D01*
X0284439Y0044641D01*
X0284205Y0044874D01*
X0284205Y0045808D01*
X0284439Y0046042D01*
X0284906Y0046042D01*
X0285139Y0045808D01*
X0285139Y0044874D01*
X0285678Y0044407D02*
X0286612Y0044407D01*
X0287152Y0044874D02*
X0287152Y0045808D01*
X0287385Y0046042D01*
X0288086Y0046042D01*
X0288086Y0044641D01*
X0287385Y0044641D01*
X0287152Y0044874D01*
X0288625Y0044641D02*
X0288625Y0045575D01*
X0289092Y0046042D01*
X0289559Y0045575D01*
X0289559Y0044641D01*
X0289559Y0045341D02*
X0288625Y0045341D01*
X0290098Y0045341D02*
X0290098Y0045808D01*
X0290332Y0046042D01*
X0291032Y0046042D01*
X0291032Y0044641D01*
X0291032Y0045108D02*
X0290332Y0045108D01*
X0290098Y0045341D01*
X0291571Y0044407D02*
X0292505Y0044407D01*
X0293045Y0044641D02*
X0293512Y0045108D01*
X0293278Y0045108D02*
X0293979Y0045108D01*
X0293979Y0044641D02*
X0293979Y0046042D01*
X0293278Y0046042D01*
X0293045Y0045808D01*
X0293045Y0045341D01*
X0293278Y0045108D01*
X0293391Y0056278D02*
X0294792Y0056278D01*
X0294792Y0056978D01*
X0294559Y0057212D01*
X0294092Y0057212D01*
X0293858Y0056978D01*
X0293858Y0056278D01*
X0293858Y0056745D02*
X0293391Y0057212D01*
X0293158Y0057751D02*
X0293158Y0058685D01*
X0293391Y0059224D02*
X0293391Y0059691D01*
X0293391Y0059458D02*
X0294792Y0059458D01*
X0294792Y0059691D02*
X0294792Y0059224D01*
X0294559Y0060206D02*
X0294792Y0060440D01*
X0294792Y0060907D01*
X0294559Y0061141D01*
X0294325Y0061141D01*
X0293391Y0060206D01*
X0293391Y0061141D01*
X0293625Y0061680D02*
X0293391Y0061913D01*
X0293391Y0062380D01*
X0293625Y0062614D01*
X0293158Y0063153D02*
X0293158Y0064087D01*
X0293625Y0064626D02*
X0294559Y0065560D01*
X0293625Y0065560D01*
X0293391Y0065327D01*
X0293391Y0064860D01*
X0293625Y0064626D01*
X0294559Y0064626D01*
X0294792Y0064860D01*
X0294792Y0065327D01*
X0294559Y0065560D01*
X0294559Y0062614D02*
X0294792Y0062380D01*
X0294792Y0061913D01*
X0294559Y0061680D01*
X0293625Y0061680D01*
X0281013Y0061634D02*
X0280079Y0061634D01*
X0279612Y0061167D01*
X0280079Y0060700D01*
X0281013Y0060700D01*
X0281013Y0062173D02*
X0279612Y0062173D01*
X0280079Y0062173D02*
X0280079Y0062873D01*
X0280312Y0063107D01*
X0280779Y0063107D01*
X0281013Y0062873D01*
X0281013Y0062173D01*
X0280079Y0062640D02*
X0279612Y0063107D01*
X0279378Y0063646D02*
X0279378Y0064580D01*
X0279612Y0065119D02*
X0279612Y0066054D01*
X0279612Y0065586D02*
X0281013Y0065586D01*
X0280546Y0065119D01*
X0279378Y0060161D02*
X0279378Y0059226D01*
X0279845Y0058687D02*
X0279612Y0058454D01*
X0279612Y0057987D01*
X0279845Y0057753D01*
X0280779Y0057753D01*
X0281013Y0057987D01*
X0281013Y0058454D01*
X0280779Y0058687D01*
X0293391Y0073010D02*
X0294792Y0073010D01*
X0294792Y0073711D01*
X0294559Y0073944D01*
X0294092Y0073944D01*
X0293858Y0073711D01*
X0293858Y0073010D01*
X0293858Y0073477D02*
X0293391Y0073944D01*
X0293158Y0074483D02*
X0293158Y0075417D01*
X0293391Y0075957D02*
X0293391Y0076424D01*
X0293391Y0076190D02*
X0294792Y0076190D01*
X0294792Y0075957D02*
X0294792Y0076424D01*
X0294559Y0076939D02*
X0294792Y0077172D01*
X0294792Y0077639D01*
X0294559Y0077873D01*
X0294325Y0077873D01*
X0293391Y0076939D01*
X0293391Y0077873D01*
X0293625Y0078412D02*
X0293391Y0078646D01*
X0293391Y0079113D01*
X0293625Y0079346D01*
X0293158Y0079885D02*
X0293158Y0080819D01*
X0293391Y0081359D02*
X0293391Y0082293D01*
X0293391Y0081826D02*
X0294792Y0081826D01*
X0294325Y0081359D01*
X0294559Y0079346D02*
X0294792Y0079113D01*
X0294792Y0078646D01*
X0294559Y0078412D01*
X0293625Y0078412D01*
X0300207Y0079323D02*
X0300441Y0079089D01*
X0300908Y0079089D01*
X0301141Y0079323D01*
X0301680Y0079323D02*
X0301914Y0079089D01*
X0302381Y0079089D01*
X0302614Y0079323D01*
X0301680Y0080257D01*
X0301680Y0079323D01*
X0301680Y0080257D02*
X0301914Y0080491D01*
X0302381Y0080491D01*
X0302614Y0080257D01*
X0302614Y0079323D01*
X0303154Y0080491D02*
X0304088Y0079089D01*
X0304627Y0079089D02*
X0305561Y0079089D01*
X0304627Y0080024D01*
X0304627Y0080257D01*
X0304860Y0080491D01*
X0305327Y0080491D01*
X0305561Y0080257D01*
X0306100Y0080257D02*
X0307034Y0079323D01*
X0306801Y0079089D01*
X0306334Y0079089D01*
X0306100Y0079323D01*
X0306100Y0080257D01*
X0306334Y0080491D01*
X0306801Y0080491D01*
X0307034Y0080257D01*
X0307034Y0079323D01*
X0307573Y0078856D02*
X0308507Y0078856D01*
X0309047Y0079089D02*
X0309047Y0080491D01*
X0309981Y0080491D02*
X0309047Y0079089D01*
X0309981Y0079089D02*
X0309981Y0080491D01*
X0310520Y0080257D02*
X0310753Y0080491D01*
X0311220Y0080491D01*
X0311454Y0080257D01*
X0311454Y0079323D01*
X0311220Y0079089D01*
X0310753Y0079089D01*
X0310520Y0079323D01*
X0310520Y0080257D01*
X0311993Y0080257D02*
X0312227Y0080491D01*
X0312694Y0080491D01*
X0312927Y0080257D01*
X0312927Y0079323D01*
X0312694Y0079089D01*
X0312227Y0079089D01*
X0311993Y0079323D01*
X0313466Y0078856D02*
X0314400Y0078856D01*
X0315173Y0079323D02*
X0315407Y0079089D01*
X0315640Y0079089D01*
X0315874Y0079323D01*
X0315173Y0079323D02*
X0315173Y0080491D01*
X0314940Y0080491D02*
X0315407Y0080491D01*
X0301141Y0080257D02*
X0300908Y0080491D01*
X0300441Y0080491D01*
X0300207Y0080257D01*
X0300207Y0080024D01*
X0300441Y0079790D01*
X0300207Y0079557D01*
X0300207Y0079323D01*
X0300441Y0079790D02*
X0300674Y0079790D01*
X0281013Y0078622D02*
X0280779Y0078855D01*
X0280312Y0078855D01*
X0280079Y0078622D01*
X0280079Y0077921D01*
X0280079Y0078388D02*
X0279612Y0078855D01*
X0279378Y0079394D02*
X0279378Y0080328D01*
X0279845Y0080867D02*
X0280779Y0081802D01*
X0279845Y0081802D01*
X0279612Y0081568D01*
X0279612Y0081101D01*
X0279845Y0080867D01*
X0280779Y0080867D01*
X0281013Y0081101D01*
X0281013Y0081568D01*
X0280779Y0081802D01*
X0281013Y0078622D02*
X0281013Y0077921D01*
X0279612Y0077921D01*
X0280079Y0077382D02*
X0281013Y0077382D01*
X0280079Y0077382D02*
X0279612Y0076915D01*
X0280079Y0076448D01*
X0281013Y0076448D01*
X0279378Y0075909D02*
X0279378Y0074974D01*
X0279845Y0074435D02*
X0279612Y0074202D01*
X0279612Y0073735D01*
X0279845Y0073501D01*
X0280779Y0073501D01*
X0281013Y0073735D01*
X0281013Y0074202D01*
X0280779Y0074435D01*
X0268394Y0083260D02*
X0268161Y0083026D01*
X0267694Y0083026D01*
X0267460Y0083260D01*
X0267460Y0084428D01*
X0268394Y0084428D02*
X0268394Y0083260D01*
X0266921Y0082793D02*
X0265987Y0082793D01*
X0265448Y0083494D02*
X0264981Y0083026D01*
X0264514Y0083494D01*
X0264514Y0084428D01*
X0263975Y0084428D02*
X0263975Y0083026D01*
X0263975Y0083494D02*
X0263274Y0083494D01*
X0263041Y0083727D01*
X0263041Y0084194D01*
X0263274Y0084428D01*
X0263975Y0084428D01*
X0263508Y0083494D02*
X0263041Y0083026D01*
X0265448Y0083494D02*
X0265448Y0084428D01*
X0220407Y0069430D02*
X0220407Y0068496D01*
X0220174Y0068263D01*
X0219707Y0068263D01*
X0219473Y0068496D01*
X0218934Y0068029D02*
X0218000Y0068029D01*
X0217461Y0068263D02*
X0217461Y0069197D01*
X0216994Y0069664D01*
X0216527Y0069197D01*
X0216527Y0068263D01*
X0216527Y0068963D02*
X0217461Y0068963D01*
X0215988Y0069664D02*
X0215054Y0069664D01*
X0215521Y0069664D02*
X0215521Y0068263D01*
X0214514Y0068263D02*
X0214514Y0069664D01*
X0214047Y0069197D01*
X0213580Y0069664D01*
X0213580Y0068263D01*
X0213041Y0068029D02*
X0212107Y0068029D01*
X0211568Y0068263D02*
X0210634Y0068263D01*
X0211101Y0068263D02*
X0211101Y0069664D01*
X0211568Y0069197D01*
X0219473Y0069430D02*
X0219707Y0069664D01*
X0220174Y0069664D01*
X0220407Y0069430D01*
X0209092Y0083777D02*
X0208158Y0083777D01*
X0207618Y0084011D02*
X0207618Y0084945D01*
X0207151Y0085412D01*
X0206684Y0084945D01*
X0206684Y0084011D01*
X0206684Y0084711D02*
X0207618Y0084711D01*
X0206145Y0085412D02*
X0205211Y0085412D01*
X0205678Y0085412D02*
X0205678Y0084011D01*
X0204672Y0084011D02*
X0204672Y0085412D01*
X0204205Y0084945D01*
X0203738Y0085412D01*
X0203738Y0084011D01*
X0203199Y0083777D02*
X0202265Y0083777D01*
X0201725Y0084011D02*
X0200791Y0084945D01*
X0200791Y0085178D01*
X0201025Y0085412D01*
X0201492Y0085412D01*
X0201725Y0085178D01*
X0201725Y0084011D02*
X0200791Y0084011D01*
X0209631Y0084244D02*
X0209864Y0084011D01*
X0210331Y0084011D01*
X0210565Y0084244D01*
X0210565Y0085178D01*
X0210331Y0085412D01*
X0209864Y0085412D01*
X0209631Y0085178D01*
X0174141Y0086213D02*
X0173908Y0085979D01*
X0173441Y0085979D01*
X0173207Y0086213D01*
X0173207Y0087380D01*
X0174141Y0087380D02*
X0174141Y0086213D01*
X0172668Y0085746D02*
X0171734Y0085746D01*
X0171195Y0085979D02*
X0171195Y0086913D01*
X0170728Y0087380D01*
X0170261Y0086913D01*
X0170261Y0085979D01*
X0170261Y0086680D02*
X0171195Y0086680D01*
X0169722Y0087380D02*
X0168787Y0087380D01*
X0169255Y0087380D02*
X0169255Y0085979D01*
X0168248Y0085979D02*
X0168248Y0087380D01*
X0167781Y0086913D01*
X0167314Y0087380D01*
X0167314Y0085979D01*
X0166775Y0085979D02*
X0165841Y0085979D01*
X0165302Y0086213D02*
X0165068Y0085979D01*
X0164601Y0085979D01*
X0164368Y0086213D01*
X0164368Y0086680D01*
X0164835Y0086680D01*
X0165302Y0087147D02*
X0165302Y0086213D01*
X0165302Y0087147D02*
X0165068Y0087380D01*
X0164601Y0087380D01*
X0164368Y0087147D01*
X0163829Y0086913D02*
X0163829Y0085979D01*
X0163829Y0086680D02*
X0162894Y0086680D01*
X0162894Y0086913D02*
X0162894Y0085979D01*
X0162355Y0086213D02*
X0162122Y0085979D01*
X0161655Y0085979D01*
X0161421Y0086213D01*
X0161421Y0086446D01*
X0161655Y0086680D01*
X0161888Y0086680D01*
X0161655Y0086680D02*
X0161421Y0086913D01*
X0161421Y0087147D01*
X0161655Y0087380D01*
X0162122Y0087380D01*
X0162355Y0087147D01*
X0162894Y0086913D02*
X0163362Y0087380D01*
X0163829Y0086913D01*
X0165841Y0087380D02*
X0166775Y0087380D01*
X0166775Y0085979D01*
X0166775Y0086680D02*
X0166308Y0086680D01*
X0160882Y0087147D02*
X0160649Y0087380D01*
X0160182Y0087380D01*
X0159948Y0087147D01*
X0159948Y0086913D01*
X0160882Y0085979D01*
X0159948Y0085979D01*
X0159409Y0086213D02*
X0159409Y0086446D01*
X0159175Y0086680D01*
X0158708Y0086680D01*
X0158475Y0086446D01*
X0158475Y0086213D01*
X0158708Y0085979D01*
X0159175Y0085979D01*
X0159409Y0086213D01*
X0159175Y0086680D02*
X0159409Y0086913D01*
X0159409Y0087147D01*
X0159175Y0087380D01*
X0158708Y0087380D01*
X0158475Y0087147D01*
X0158475Y0086913D01*
X0158708Y0086680D01*
X0080225Y0085505D02*
X0080225Y0085038D01*
X0079992Y0084804D01*
X0079058Y0084804D01*
X0078824Y0085038D01*
X0078824Y0085505D01*
X0079058Y0085739D01*
X0079525Y0085739D01*
X0079525Y0085272D01*
X0079992Y0085739D02*
X0080225Y0085505D01*
X0079992Y0084265D02*
X0080225Y0084032D01*
X0080225Y0083565D01*
X0079992Y0083331D01*
X0079058Y0083331D01*
X0078824Y0083565D01*
X0078824Y0084032D01*
X0079058Y0084265D01*
X0079992Y0084265D01*
X0079992Y0082792D02*
X0079525Y0082792D01*
X0079291Y0082559D01*
X0079291Y0081858D01*
X0078824Y0081858D02*
X0080225Y0081858D01*
X0080225Y0082559D01*
X0079992Y0082792D01*
X0079291Y0082325D02*
X0078824Y0082792D01*
X0079525Y0081319D02*
X0079291Y0081085D01*
X0079291Y0080385D01*
X0078824Y0080385D02*
X0080225Y0080385D01*
X0080225Y0081085D01*
X0079992Y0081319D01*
X0079525Y0081319D01*
X0078591Y0079846D02*
X0078591Y0078911D01*
X0079058Y0078139D02*
X0080225Y0078139D01*
X0080225Y0078372D02*
X0080225Y0077905D01*
X0079058Y0078139D02*
X0078824Y0077905D01*
X0078824Y0077672D01*
X0079058Y0077438D01*
X0078937Y0071632D02*
X0079170Y0071399D01*
X0079170Y0070465D01*
X0078937Y0070231D01*
X0078470Y0070231D01*
X0078236Y0070465D01*
X0077697Y0069998D02*
X0076763Y0069998D01*
X0076224Y0070231D02*
X0075290Y0070231D01*
X0074751Y0070231D02*
X0073817Y0070231D01*
X0073277Y0070231D02*
X0072577Y0070231D01*
X0072343Y0070465D01*
X0072343Y0071399D01*
X0072577Y0071632D01*
X0073277Y0071632D01*
X0073277Y0070231D01*
X0074284Y0070932D02*
X0074751Y0070932D01*
X0074751Y0071632D02*
X0074751Y0070231D01*
X0074751Y0071632D02*
X0073817Y0071632D01*
X0076224Y0071632D02*
X0076224Y0070231D01*
X0078236Y0071399D02*
X0078470Y0071632D01*
X0078937Y0071632D01*
X0063169Y0079323D02*
X0062935Y0079089D01*
X0062701Y0079089D01*
X0062468Y0079323D01*
X0062468Y0080491D01*
X0062701Y0080491D02*
X0062234Y0080491D01*
X0061695Y0080257D02*
X0061695Y0079323D01*
X0061462Y0079089D01*
X0060995Y0079089D01*
X0060761Y0079323D01*
X0060222Y0079323D02*
X0059988Y0079089D01*
X0059521Y0079089D01*
X0059288Y0079323D01*
X0059288Y0080257D01*
X0059521Y0080491D01*
X0059988Y0080491D01*
X0060222Y0080257D01*
X0060222Y0079323D01*
X0060761Y0080257D02*
X0060995Y0080491D01*
X0061462Y0080491D01*
X0061695Y0080257D01*
X0058749Y0080491D02*
X0058749Y0079089D01*
X0057815Y0079089D02*
X0057815Y0080491D01*
X0058749Y0080491D02*
X0057815Y0079089D01*
X0057276Y0078856D02*
X0056341Y0078856D01*
X0055802Y0079323D02*
X0055569Y0079089D01*
X0055102Y0079089D01*
X0054868Y0079323D01*
X0054868Y0080257D01*
X0055802Y0079323D01*
X0055802Y0080257D01*
X0055569Y0080491D01*
X0055102Y0080491D01*
X0054868Y0080257D01*
X0054329Y0080257D02*
X0054095Y0080491D01*
X0053628Y0080491D01*
X0053395Y0080257D01*
X0054329Y0079323D01*
X0054095Y0079089D01*
X0053628Y0079089D01*
X0053395Y0079323D01*
X0053395Y0080257D01*
X0054329Y0080257D02*
X0054329Y0079323D01*
X0052856Y0079089D02*
X0051922Y0080491D01*
X0051383Y0080257D02*
X0051149Y0080491D01*
X0050682Y0080491D01*
X0050448Y0080257D01*
X0051383Y0079323D01*
X0051149Y0079089D01*
X0050682Y0079089D01*
X0050448Y0079323D01*
X0050448Y0080257D01*
X0049909Y0080024D02*
X0049442Y0080491D01*
X0049442Y0079089D01*
X0049909Y0079089D02*
X0048975Y0079089D01*
X0051383Y0079323D02*
X0051383Y0080257D01*
D15*
X0133319Y0048293D02*
X0133321Y0048330D01*
X0133327Y0048366D01*
X0133337Y0048401D01*
X0133350Y0048435D01*
X0133368Y0048468D01*
X0133388Y0048498D01*
X0133412Y0048526D01*
X0133439Y0048551D01*
X0133468Y0048574D01*
X0133499Y0048593D01*
X0133533Y0048608D01*
X0133567Y0048620D01*
X0133603Y0048628D01*
X0133640Y0048632D01*
X0133676Y0048632D01*
X0133713Y0048628D01*
X0133749Y0048620D01*
X0133783Y0048608D01*
X0133817Y0048593D01*
X0133848Y0048574D01*
X0133877Y0048551D01*
X0133904Y0048526D01*
X0133928Y0048498D01*
X0133948Y0048468D01*
X0133966Y0048435D01*
X0133979Y0048401D01*
X0133989Y0048366D01*
X0133995Y0048330D01*
X0133997Y0048293D01*
X0133995Y0048256D01*
X0133989Y0048220D01*
X0133979Y0048185D01*
X0133966Y0048151D01*
X0133948Y0048118D01*
X0133928Y0048088D01*
X0133904Y0048060D01*
X0133877Y0048035D01*
X0133848Y0048012D01*
X0133817Y0047993D01*
X0133783Y0047978D01*
X0133749Y0047966D01*
X0133713Y0047958D01*
X0133676Y0047954D01*
X0133640Y0047954D01*
X0133603Y0047958D01*
X0133567Y0047966D01*
X0133533Y0047978D01*
X0133499Y0047993D01*
X0133468Y0048012D01*
X0133439Y0048035D01*
X0133412Y0048060D01*
X0133388Y0048088D01*
X0133368Y0048118D01*
X0133350Y0048151D01*
X0133337Y0048185D01*
X0133327Y0048220D01*
X0133321Y0048256D01*
X0133319Y0048293D01*
X0214895Y0087748D02*
X0215346Y0087298D01*
X0216247Y0087298D01*
X0216697Y0087748D01*
X0214895Y0089550D01*
X0214895Y0087748D01*
X0214895Y0089550D02*
X0215346Y0090000D01*
X0216247Y0090000D01*
X0216697Y0089550D01*
X0216697Y0087748D01*
X0217720Y0087748D02*
X0217720Y0087298D01*
X0218170Y0087298D01*
X0218170Y0087748D01*
X0217720Y0087748D01*
X0219315Y0087748D02*
X0219766Y0087298D01*
X0220666Y0087298D01*
X0221117Y0087748D01*
X0220216Y0088649D02*
X0219766Y0088649D01*
X0219315Y0088198D01*
X0219315Y0087748D01*
X0219766Y0088649D02*
X0219315Y0089099D01*
X0219315Y0089550D01*
X0219766Y0090000D01*
X0220666Y0090000D01*
X0221117Y0089550D01*
X0225208Y0089099D02*
X0225208Y0087298D01*
X0225208Y0088649D02*
X0227010Y0088649D01*
X0227010Y0089099D02*
X0226109Y0090000D01*
X0225208Y0089099D01*
X0227010Y0089099D02*
X0227010Y0087298D01*
X0228155Y0087748D02*
X0228605Y0087298D01*
X0229506Y0087298D01*
X0229956Y0087748D01*
X0229506Y0088649D02*
X0228605Y0088649D01*
X0228155Y0088198D01*
X0228155Y0087748D01*
X0229506Y0088649D02*
X0229956Y0089099D01*
X0229956Y0089550D01*
X0229506Y0090000D01*
X0228605Y0090000D01*
X0228155Y0089550D01*
X0231101Y0088649D02*
X0232903Y0088649D01*
X0234048Y0089550D02*
X0234048Y0090000D01*
X0234048Y0089550D02*
X0234949Y0088649D01*
X0234949Y0087298D01*
X0234949Y0088649D02*
X0235849Y0089550D01*
X0235849Y0090000D01*
X0236994Y0089550D02*
X0237445Y0090000D01*
X0238796Y0090000D01*
X0238796Y0087298D01*
X0237445Y0087298D01*
X0236994Y0087748D01*
X0236994Y0088198D01*
X0237445Y0088649D01*
X0238796Y0088649D01*
X0237445Y0088649D02*
X0236994Y0089099D01*
X0236994Y0089550D01*
X0242887Y0089550D02*
X0243338Y0090000D01*
X0244239Y0090000D01*
X0244689Y0089550D01*
X0244689Y0087748D01*
X0244239Y0087298D01*
X0243338Y0087298D01*
X0242887Y0087748D01*
X0245834Y0087748D02*
X0246284Y0087298D01*
X0247185Y0087298D01*
X0247635Y0087748D01*
X0247635Y0089550D01*
X0247185Y0090000D01*
X0246284Y0090000D01*
X0245834Y0089550D01*
X0251727Y0090000D02*
X0251727Y0087298D01*
X0253078Y0087298D01*
X0253528Y0087748D01*
X0253528Y0088649D01*
X0253078Y0089099D01*
X0251727Y0089099D01*
X0254673Y0088649D02*
X0254673Y0088198D01*
X0256475Y0088198D01*
X0256475Y0087748D02*
X0256475Y0088649D01*
X0256025Y0089099D01*
X0255124Y0089099D01*
X0254673Y0088649D01*
X0255124Y0087298D02*
X0256025Y0087298D01*
X0256475Y0087748D01*
X0257620Y0087748D02*
X0258070Y0088198D01*
X0258971Y0088198D01*
X0259421Y0088649D01*
X0258971Y0089099D01*
X0257620Y0089099D01*
X0257620Y0087748D02*
X0258070Y0087298D01*
X0259421Y0087298D01*
X0260566Y0087298D02*
X0260566Y0088649D01*
X0261017Y0089099D01*
X0262368Y0089099D01*
X0262368Y0087298D01*
X0263513Y0088198D02*
X0265315Y0088198D01*
X0265315Y0087748D02*
X0265315Y0088649D01*
X0264864Y0089099D01*
X0263963Y0089099D01*
X0263513Y0088649D01*
X0263513Y0088198D01*
X0263963Y0087298D02*
X0264864Y0087298D01*
X0265315Y0087748D01*
X0266460Y0087298D02*
X0267811Y0087298D01*
X0268261Y0087748D01*
X0268261Y0088649D01*
X0267811Y0089099D01*
X0266460Y0089099D01*
X0269775Y0089099D02*
X0269775Y0087298D01*
X0270225Y0087298D02*
X0269325Y0087298D01*
X0269775Y0089099D02*
X0270225Y0089099D01*
X0269775Y0090000D02*
X0269775Y0090450D01*
X0273172Y0090000D02*
X0273172Y0087298D01*
X0271370Y0087298D01*
D16*
X0252201Y0080242D02*
X0252201Y0053746D01*
X0227713Y0053746D01*
X0227713Y0080242D02*
X0252201Y0080242D01*
D17*
X0253383Y0076010D03*
X0253383Y0057978D03*
D18*
X0254170Y0066994D03*
D19*
X0176001Y0078825D02*
X0176001Y0052624D01*
X0174603Y0051226D01*
X0148402Y0051226D01*
X0148402Y0078825D01*
X0176001Y0078825D01*
X0176101Y0050626D02*
X0176103Y0050675D01*
X0176109Y0050723D01*
X0176119Y0050771D01*
X0176133Y0050818D01*
X0176150Y0050864D01*
X0176171Y0050908D01*
X0176196Y0050950D01*
X0176224Y0050990D01*
X0176256Y0051028D01*
X0176290Y0051063D01*
X0176327Y0051095D01*
X0176366Y0051124D01*
X0176408Y0051150D01*
X0176452Y0051172D01*
X0176497Y0051190D01*
X0176544Y0051205D01*
X0176591Y0051216D01*
X0176640Y0051223D01*
X0176689Y0051226D01*
X0176738Y0051225D01*
X0176786Y0051220D01*
X0176835Y0051211D01*
X0176882Y0051198D01*
X0176928Y0051181D01*
X0176972Y0051161D01*
X0177015Y0051137D01*
X0177056Y0051110D01*
X0177094Y0051079D01*
X0177130Y0051046D01*
X0177162Y0051010D01*
X0177192Y0050971D01*
X0177219Y0050930D01*
X0177242Y0050886D01*
X0177261Y0050841D01*
X0177277Y0050795D01*
X0177289Y0050748D01*
X0177297Y0050699D01*
X0177301Y0050650D01*
X0177301Y0050602D01*
X0177297Y0050553D01*
X0177289Y0050504D01*
X0177277Y0050457D01*
X0177261Y0050411D01*
X0177242Y0050366D01*
X0177219Y0050322D01*
X0177192Y0050281D01*
X0177162Y0050242D01*
X0177130Y0050206D01*
X0177094Y0050173D01*
X0177056Y0050142D01*
X0177015Y0050115D01*
X0176972Y0050091D01*
X0176928Y0050071D01*
X0176882Y0050054D01*
X0176835Y0050041D01*
X0176786Y0050032D01*
X0176738Y0050027D01*
X0176689Y0050026D01*
X0176640Y0050029D01*
X0176591Y0050036D01*
X0176544Y0050047D01*
X0176497Y0050062D01*
X0176452Y0050080D01*
X0176408Y0050102D01*
X0176366Y0050128D01*
X0176327Y0050157D01*
X0176290Y0050189D01*
X0176256Y0050224D01*
X0176224Y0050262D01*
X0176196Y0050302D01*
X0176171Y0050344D01*
X0176150Y0050388D01*
X0176133Y0050434D01*
X0176119Y0050481D01*
X0176109Y0050529D01*
X0176103Y0050577D01*
X0176101Y0050626D01*
X0109839Y0057652D02*
X0109839Y0064526D01*
X0108658Y0062270D02*
X0105509Y0062270D01*
X0107083Y0059908D01*
X0108658Y0062270D01*
X0107871Y0061876D02*
X0106296Y0061876D01*
X0107083Y0060695D01*
X0107871Y0061876D01*
X0107642Y0061533D02*
X0106525Y0061533D01*
X0107057Y0060735D02*
X0107110Y0060735D01*
X0104327Y0057652D02*
X0104327Y0064526D01*
D20*
X0107083Y0059514D03*
M02*
