G75*
%MOIN*%
%OFA0B0*%
%FSLAX25Y25*%
%IPPOS*%
%LPD*%
%AMOC8*
5,1,8,0,0,1.08239X$1,22.5*
%
%ADD10C,0.01600*%
%ADD11C,0.00000*%
%ADD12C,0.01200*%
%ADD13R,0.11811X0.06299*%
%ADD14R,0.22835X0.24409*%
%ADD15R,0.05906X0.05118*%
%ADD16C,0.04724*%
%ADD17C,0.12661*%
%ADD18R,0.23622X0.05906*%
%ADD19R,0.06299X0.05118*%
%ADD20R,0.02200X0.05000*%
%ADD21R,0.05000X0.02200*%
%ADD22R,0.05512X0.05512*%
%ADD23R,0.06000X0.06000*%
%ADD24C,0.02226*%
%ADD25C,0.02332*%
%ADD26R,0.10630X0.06299*%
%ADD27C,0.06000*%
%ADD28C,0.02969*%
%ADD29C,0.01000*%
%ADD30C,0.02400*%
%ADD31C,0.01500*%
%ADD32C,0.03750*%
D10*
X0049997Y0025656D02*
X0055902Y0025656D01*
X0055902Y0033530D01*
X0067713Y0033530D01*
X0067713Y0025656D01*
X0079524Y0025656D01*
X0077524Y0029256D02*
X0071313Y0029256D01*
X0071313Y0034246D01*
X0070765Y0035569D01*
X0069752Y0036582D01*
X0068429Y0037130D01*
X0055186Y0037130D01*
X0053863Y0036582D01*
X0052850Y0035569D01*
X0052816Y0035486D01*
X0052698Y0035604D01*
X0050945Y0036330D01*
X0049048Y0036330D01*
X0047691Y0035768D01*
X0047691Y0042541D01*
X0048977Y0042541D01*
X0050729Y0043267D01*
X0050902Y0043440D01*
X0050902Y0040370D01*
X0052074Y0039199D01*
X0059731Y0039199D01*
X0060902Y0040370D01*
X0060902Y0040622D01*
X0086689Y0040622D01*
X0086616Y0040592D01*
X0084273Y0038249D01*
X0083098Y0035412D01*
X0082594Y0035412D01*
X0080990Y0034747D01*
X0079804Y0033561D01*
X0078696Y0033561D01*
X0077524Y0032390D01*
X0077524Y0029256D01*
X0071313Y0029256D01*
X0071313Y0034246D01*
X0070765Y0035569D01*
X0069752Y0036582D01*
X0068429Y0037130D01*
X0055186Y0037130D01*
X0053863Y0036582D01*
X0052850Y0035569D01*
X0052816Y0035486D01*
X0052698Y0035604D01*
X0050945Y0036330D01*
X0049048Y0036330D01*
X0047691Y0035768D01*
X0047691Y0042541D01*
X0048977Y0042541D01*
X0050729Y0043267D01*
X0051102Y0043640D01*
X0051102Y0040962D01*
X0051225Y0040504D01*
X0051462Y0040094D01*
X0051797Y0039759D01*
X0052207Y0039522D01*
X0052665Y0039399D01*
X0055702Y0039399D01*
X0055702Y0043999D01*
X0056102Y0043999D01*
X0056102Y0039399D01*
X0059139Y0039399D01*
X0059597Y0039522D01*
X0060007Y0039759D01*
X0060343Y0040094D01*
X0060580Y0040504D01*
X0060702Y0040962D01*
X0060702Y0043999D01*
X0056102Y0043999D01*
X0056102Y0044399D01*
X0055702Y0044399D01*
X0055702Y0048999D01*
X0052665Y0048999D01*
X0052507Y0048957D01*
X0052407Y0049199D01*
X0059731Y0049199D01*
X0060902Y0050370D01*
X0060902Y0054538D01*
X0063280Y0056916D01*
X0063281Y0056916D01*
X0064012Y0057647D01*
X0064408Y0058603D01*
X0064408Y0065917D01*
X0066304Y0067813D01*
X0066304Y0060654D01*
X0067475Y0059482D01*
X0077330Y0059482D01*
X0076605Y0058758D01*
X0067475Y0058758D01*
X0066304Y0057586D01*
X0066304Y0049630D01*
X0067475Y0048459D01*
X0079762Y0048459D01*
X0080934Y0049630D01*
X0080934Y0054036D01*
X0082818Y0055920D01*
X0095712Y0055920D01*
X0096888Y0056407D01*
X0097207Y0056726D01*
X0098943Y0056726D01*
X0098979Y0056699D01*
X0098516Y0056699D01*
X0097236Y0056168D01*
X0096255Y0055188D01*
X0095725Y0053908D01*
X0095725Y0052522D01*
X0096255Y0051241D01*
X0097236Y0050261D01*
X0098516Y0049730D01*
X0099902Y0049730D01*
X0101183Y0050261D01*
X0101718Y0050795D01*
X0102327Y0050841D01*
X0102327Y0050221D01*
X0103499Y0049049D01*
X0107360Y0049049D01*
X0116563Y0039846D01*
X0116823Y0039586D01*
X0109518Y0039555D01*
X0107865Y0039555D01*
X0107865Y0043919D01*
X0107446Y0044930D01*
X0106673Y0045703D01*
X0105662Y0046122D01*
X0060902Y0046122D01*
X0060902Y0048027D01*
X0059731Y0049199D01*
X0060902Y0050370D01*
X0060902Y0054538D01*
X0063281Y0056916D01*
X0064012Y0057647D01*
X0064408Y0058603D01*
X0064408Y0065917D01*
X0066504Y0068013D01*
X0066504Y0065407D01*
X0072844Y0065407D01*
X0072844Y0069582D01*
X0068072Y0069582D01*
X0075092Y0076601D01*
X0075823Y0077332D01*
X0076219Y0078288D01*
X0076219Y0085602D01*
X0076664Y0086048D01*
X0081550Y0086048D01*
X0081020Y0084768D01*
X0081020Y0076779D01*
X0081782Y0074941D01*
X0083188Y0073535D01*
X0085026Y0072774D01*
X0087015Y0072774D01*
X0088735Y0073486D01*
X0088735Y0064509D01*
X0089131Y0063553D01*
X0089863Y0062822D01*
X0090364Y0062320D01*
X0080934Y0062320D01*
X0080934Y0068610D01*
X0079762Y0069782D01*
X0068272Y0069782D01*
X0075092Y0076601D01*
X0075823Y0077332D01*
X0076219Y0078288D01*
X0076219Y0085602D01*
X0076664Y0086048D01*
X0081792Y0086048D01*
X0081572Y0085616D01*
X0081339Y0084898D01*
X0081220Y0084151D01*
X0081220Y0080974D01*
X0085820Y0080974D01*
X0085820Y0080574D01*
X0081220Y0080574D01*
X0081220Y0077396D01*
X0081339Y0076650D01*
X0081572Y0075931D01*
X0081915Y0075258D01*
X0082359Y0074647D01*
X0082893Y0074112D01*
X0083505Y0073668D01*
X0084178Y0073325D01*
X0084896Y0073092D01*
X0085643Y0072974D01*
X0085820Y0072974D01*
X0085820Y0080574D01*
X0086220Y0080574D01*
X0086220Y0072974D01*
X0086398Y0072974D01*
X0087144Y0073092D01*
X0087863Y0073325D01*
X0088536Y0073668D01*
X0088735Y0073813D01*
X0088735Y0064509D01*
X0089131Y0063553D01*
X0089863Y0062822D01*
X0089863Y0062822D01*
X0090364Y0062320D01*
X0080856Y0062320D01*
X0080734Y0062269D01*
X0080734Y0063857D01*
X0074394Y0063857D01*
X0074394Y0065407D01*
X0080734Y0065407D01*
X0080734Y0068019D01*
X0080611Y0068476D01*
X0080374Y0068887D01*
X0080039Y0069222D01*
X0079628Y0069459D01*
X0079171Y0069582D01*
X0074394Y0069582D01*
X0074394Y0065407D01*
X0072844Y0065407D01*
X0072844Y0063857D01*
X0074394Y0063857D01*
X0074394Y0059682D01*
X0077530Y0059682D01*
X0076605Y0058758D01*
X0067475Y0058758D01*
X0066304Y0057586D01*
X0066304Y0049630D01*
X0067475Y0048459D01*
X0079762Y0048459D01*
X0080934Y0049630D01*
X0080934Y0054036D01*
X0082818Y0055920D01*
X0095712Y0055920D01*
X0096888Y0056407D01*
X0097207Y0056726D01*
X0098943Y0056726D01*
X0098979Y0056699D01*
X0098516Y0056699D01*
X0097236Y0056168D01*
X0096255Y0055188D01*
X0095725Y0053908D01*
X0095725Y0052522D01*
X0096255Y0051241D01*
X0097236Y0050261D01*
X0098516Y0049730D01*
X0099902Y0049730D01*
X0101183Y0050261D01*
X0101718Y0050795D01*
X0102327Y0050841D01*
X0102327Y0050221D01*
X0103499Y0049049D01*
X0107360Y0049049D01*
X0116563Y0039846D01*
X0117337Y0039072D01*
X0118347Y0038654D01*
X0126991Y0038654D01*
X0127526Y0038119D01*
X0128950Y0037529D01*
X0129349Y0037529D01*
X0129349Y0037307D01*
X0132999Y0037307D01*
X0132999Y0036807D01*
X0133499Y0036807D01*
X0133499Y0037307D01*
X0137149Y0037307D01*
X0137149Y0038431D01*
X0137037Y0038994D01*
X0136817Y0039524D01*
X0136498Y0040001D01*
X0136093Y0040407D01*
X0135616Y0040726D01*
X0135085Y0040945D01*
X0134523Y0041057D01*
X0133596Y0041057D01*
X0133596Y0041550D01*
X0134065Y0041550D01*
X0133772Y0041257D01*
X0133596Y0041257D01*
X0133596Y0041550D01*
X0134855Y0041550D01*
X0135999Y0042024D01*
X0136875Y0042900D01*
X0136978Y0043150D01*
X0137538Y0043150D01*
X0138493Y0043546D01*
X0139910Y0044963D01*
X0139910Y0044424D01*
X0140024Y0043851D01*
X0140248Y0043311D01*
X0140572Y0042825D01*
X0140985Y0042412D01*
X0141471Y0042088D01*
X0142011Y0041864D01*
X0142584Y0041750D01*
X0143610Y0041750D01*
X0143610Y0045450D01*
X0144210Y0045450D01*
X0144210Y0041750D01*
X0145236Y0041750D01*
X0145809Y0041864D01*
X0146349Y0042088D01*
X0146835Y0042412D01*
X0147248Y0042825D01*
X0147573Y0043311D01*
X0147796Y0043851D01*
X0147910Y0044424D01*
X0147910Y0045450D01*
X0144210Y0045450D01*
X0144210Y0046050D01*
X0147910Y0046050D01*
X0147910Y0046678D01*
X0148078Y0046678D01*
X0148078Y0044797D01*
X0149249Y0043626D01*
X0150904Y0043626D01*
X0147361Y0040083D01*
X0146660Y0040783D01*
X0145516Y0041257D01*
X0142304Y0041257D01*
X0141160Y0040783D01*
X0140284Y0039908D01*
X0139810Y0038763D01*
X0139810Y0036330D01*
X0139599Y0036330D01*
X0137847Y0035604D01*
X0137175Y0034932D01*
X0137349Y0035351D01*
X0137349Y0037480D01*
X0141661Y0041793D01*
X0142246Y0041550D01*
X0145574Y0041550D01*
X0146737Y0042032D01*
X0147628Y0042923D01*
X0148110Y0044086D01*
X0148110Y0044765D01*
X0149249Y0043626D01*
X0150904Y0043626D01*
X0147361Y0040083D01*
X0146660Y0040783D01*
X0145516Y0041257D01*
X0142304Y0041257D01*
X0141160Y0040783D01*
X0140284Y0039908D01*
X0139810Y0038763D01*
X0139810Y0036330D01*
X0139599Y0036330D01*
X0137847Y0035604D01*
X0136784Y0034541D01*
X0136817Y0034590D01*
X0137037Y0035120D01*
X0137149Y0035683D01*
X0137149Y0036807D01*
X0133499Y0036807D01*
X0133499Y0033057D01*
X0134523Y0033057D01*
X0135085Y0033169D01*
X0135616Y0033389D01*
X0136093Y0033708D01*
X0136405Y0034020D01*
X0135779Y0032510D01*
X0135779Y0030613D01*
X0136341Y0029256D01*
X0123101Y0029256D01*
X0123663Y0030613D01*
X0123663Y0032510D01*
X0122937Y0034262D01*
X0122787Y0034412D01*
X0129526Y0034441D01*
X0129623Y0034207D01*
X0130498Y0033331D01*
X0131642Y0032857D01*
X0134855Y0032857D01*
X0135999Y0033331D01*
X0136205Y0033537D01*
X0135779Y0032510D01*
X0135779Y0030613D01*
X0136341Y0029256D01*
X0123101Y0029256D01*
X0123663Y0030613D01*
X0123663Y0032510D01*
X0122937Y0034262D01*
X0121595Y0035604D01*
X0119843Y0036330D01*
X0117946Y0036330D01*
X0116193Y0035604D01*
X0114852Y0034262D01*
X0114968Y0034378D01*
X0110047Y0034357D01*
X0110041Y0034355D01*
X0109529Y0034355D01*
X0109018Y0034353D01*
X0109013Y0034355D01*
X0106192Y0034355D01*
X0104686Y0032849D01*
X0105146Y0032390D01*
X0105146Y0029256D01*
X0114688Y0029256D01*
X0114126Y0030613D01*
X0114126Y0032510D01*
X0114852Y0034262D01*
X0114126Y0032510D01*
X0114126Y0030613D01*
X0114688Y0029256D01*
X0105146Y0029256D01*
X0105146Y0032390D01*
X0103975Y0033561D01*
X0102529Y0033561D01*
X0102384Y0033761D01*
X0101921Y0034224D01*
X0101391Y0034609D01*
X0100807Y0034907D01*
X0100184Y0035109D01*
X0099664Y0035191D01*
X0098398Y0038249D01*
X0096054Y0040592D01*
X0095982Y0040622D01*
X0102365Y0040622D01*
X0102365Y0037882D01*
X0099895Y0035412D01*
X0099573Y0035412D01*
X0098398Y0038249D01*
X0096054Y0040592D01*
X0092992Y0041860D01*
X0089678Y0041860D01*
X0086616Y0040592D01*
X0084273Y0038249D01*
X0083098Y0035412D01*
X0082594Y0035412D01*
X0080990Y0034747D01*
X0079804Y0033561D01*
X0078696Y0033561D01*
X0077524Y0032390D01*
X0077524Y0029256D01*
X0077524Y0029593D02*
X0071313Y0029593D01*
X0077524Y0029593D01*
X0077524Y0031191D02*
X0071313Y0031191D01*
X0077524Y0031191D01*
X0077924Y0032790D02*
X0071313Y0032790D01*
X0077924Y0032790D01*
X0080631Y0034388D02*
X0071254Y0034388D01*
X0080631Y0034388D01*
X0083336Y0035987D02*
X0070347Y0035987D01*
X0083336Y0035987D01*
X0083998Y0037585D02*
X0047691Y0037585D01*
X0083998Y0037585D01*
X0085208Y0039184D02*
X0047691Y0039184D01*
X0085208Y0039184D01*
X0087075Y0040782D02*
X0060654Y0040782D01*
X0060702Y0042381D02*
X0114028Y0042381D01*
X0107865Y0042381D01*
X0107840Y0043979D02*
X0112430Y0043979D01*
X0060702Y0043979D01*
X0060702Y0044399D02*
X0056102Y0044399D01*
X0056102Y0048999D01*
X0059139Y0048999D01*
X0059597Y0048876D01*
X0060007Y0048639D01*
X0060343Y0048304D01*
X0060580Y0047894D01*
X0060702Y0047436D01*
X0060702Y0044399D01*
X0060702Y0045578D02*
X0110831Y0045578D01*
X0106798Y0045578D01*
X0109233Y0047176D02*
X0060902Y0047176D01*
X0060702Y0047176D02*
X0109233Y0047176D01*
X0107634Y0048775D02*
X0080078Y0048775D01*
X0107634Y0048775D01*
X0102327Y0050373D02*
X0101295Y0050373D01*
X0102327Y0050373D01*
X0097123Y0050373D02*
X0080934Y0050373D01*
X0097123Y0050373D01*
X0095953Y0051972D02*
X0080934Y0051972D01*
X0095953Y0051972D01*
X0095725Y0053570D02*
X0080934Y0053570D01*
X0095725Y0053570D01*
X0096247Y0055169D02*
X0082067Y0055169D01*
X0096247Y0055169D01*
X0102390Y0060637D02*
X0102390Y0064673D01*
X0102038Y0065026D01*
X0102327Y0065315D01*
X0102327Y0064788D01*
X0103499Y0063616D01*
X0110668Y0063616D01*
X0110765Y0063714D01*
X0124862Y0049617D01*
X0124862Y0048507D01*
X0125452Y0047083D01*
X0126542Y0045993D01*
X0127966Y0045403D01*
X0129149Y0045403D01*
X0129149Y0045279D01*
X0128950Y0045279D01*
X0127526Y0044689D01*
X0126991Y0044154D01*
X0120033Y0044154D01*
X0111839Y0052348D01*
X0111839Y0057390D01*
X0110668Y0058561D01*
X0105122Y0058561D01*
X0102390Y0060637D01*
X0102390Y0061563D02*
X0112916Y0061563D01*
X0111318Y0063161D02*
X0102390Y0063161D01*
X0102355Y0064760D02*
X0102304Y0064760D01*
X0103276Y0059964D02*
X0114515Y0059964D01*
X0116113Y0058366D02*
X0110863Y0058366D01*
X0111839Y0056767D02*
X0117712Y0056767D01*
X0119310Y0055169D02*
X0111839Y0055169D01*
X0111839Y0053570D02*
X0120909Y0053570D01*
X0122507Y0051972D02*
X0112215Y0051972D01*
X0113814Y0050373D02*
X0124106Y0050373D01*
X0128397Y0053153D02*
X0112155Y0069395D01*
X0111839Y0069711D01*
X0111839Y0071956D01*
X0110668Y0073128D01*
X0109285Y0073128D01*
X0109219Y0073901D01*
X0110259Y0074941D01*
X0111020Y0076779D01*
X0111020Y0084768D01*
X0110490Y0086048D01*
X0111550Y0086048D01*
X0111020Y0084768D01*
X0111020Y0076779D01*
X0111782Y0074941D01*
X0113188Y0073535D01*
X0115026Y0072774D01*
X0117015Y0072774D01*
X0118853Y0073535D01*
X0120259Y0074941D01*
X0121020Y0076779D01*
X0121020Y0084768D01*
X0120490Y0086048D01*
X0121550Y0086048D01*
X0121020Y0084768D01*
X0121020Y0076779D01*
X0121782Y0074941D01*
X0123188Y0073535D01*
X0125026Y0072774D01*
X0127015Y0072774D01*
X0128505Y0073391D01*
X0130470Y0071427D01*
X0131201Y0070696D01*
X0132157Y0070300D01*
X0140801Y0070300D01*
X0140801Y0052074D01*
X0140997Y0051878D01*
X0140031Y0051878D01*
X0139075Y0051482D01*
X0138344Y0050750D01*
X0136534Y0048941D01*
X0135999Y0049476D01*
X0134855Y0049950D01*
X0132612Y0049950D01*
X0132612Y0050048D01*
X0132022Y0051473D01*
X0130932Y0052563D01*
X0129508Y0053153D01*
X0128397Y0053153D01*
X0127980Y0053570D02*
X0140801Y0053570D01*
X0140801Y0055169D02*
X0126381Y0055169D01*
X0124783Y0056767D02*
X0140801Y0056767D01*
X0140801Y0058366D02*
X0123184Y0058366D01*
X0121586Y0059964D02*
X0140801Y0059964D01*
X0140801Y0061563D02*
X0119987Y0061563D01*
X0118389Y0063161D02*
X0140801Y0063161D01*
X0140801Y0064760D02*
X0116790Y0064760D01*
X0115192Y0066358D02*
X0140801Y0066358D01*
X0140801Y0067957D02*
X0113593Y0067957D01*
X0112155Y0069395D02*
X0112155Y0069395D01*
X0111995Y0069555D02*
X0140801Y0069555D01*
X0149801Y0069555D02*
X0151577Y0069555D01*
X0151577Y0067957D02*
X0149801Y0067957D01*
X0149801Y0066358D02*
X0151577Y0066358D01*
X0151577Y0064760D02*
X0149801Y0064760D01*
X0149801Y0063161D02*
X0151577Y0063161D01*
X0151577Y0061563D02*
X0149801Y0061563D01*
X0149801Y0059964D02*
X0151577Y0059964D01*
X0151577Y0058366D02*
X0149801Y0058366D01*
X0149801Y0056767D02*
X0151577Y0056767D01*
X0151577Y0055169D02*
X0149801Y0055169D01*
X0149801Y0053570D02*
X0151577Y0053570D01*
X0151577Y0052668D02*
X0151595Y0052626D01*
X0149801Y0052626D01*
X0149801Y0077426D01*
X0151577Y0077426D01*
X0151577Y0052668D01*
X0157077Y0055868D02*
X0157077Y0072150D01*
X0157494Y0071977D01*
X0158812Y0071977D01*
X0159248Y0070926D01*
X0160228Y0069946D01*
X0161508Y0069415D01*
X0162895Y0069415D01*
X0164175Y0069946D01*
X0165155Y0070926D01*
X0165686Y0072207D01*
X0165686Y0072848D01*
X0166289Y0073452D01*
X0166670Y0074371D01*
X0166670Y0077426D01*
X0167517Y0077426D01*
X0167185Y0076623D01*
X0167185Y0075082D01*
X0167775Y0073657D01*
X0168865Y0072567D01*
X0170289Y0071977D01*
X0171830Y0071977D01*
X0172497Y0072253D01*
X0172497Y0070434D01*
X0172877Y0069515D01*
X0173581Y0068812D01*
X0174565Y0067828D01*
X0174601Y0067812D01*
X0174601Y0065557D01*
X0171087Y0065557D01*
X0170302Y0066342D01*
X0168878Y0066932D01*
X0167336Y0066932D01*
X0165912Y0066342D01*
X0164822Y0065252D01*
X0164232Y0063828D01*
X0164232Y0062286D01*
X0164822Y0060862D01*
X0165912Y0059772D01*
X0167336Y0059182D01*
X0168878Y0059182D01*
X0170302Y0059772D01*
X0171087Y0060557D01*
X0174601Y0060557D01*
X0174601Y0052626D01*
X0169426Y0052626D01*
X0169426Y0054893D01*
X0169045Y0055812D01*
X0168258Y0056599D01*
X0167555Y0057303D01*
X0166636Y0057683D01*
X0163717Y0057683D01*
X0163717Y0057845D01*
X0163187Y0059125D01*
X0162207Y0060105D01*
X0160926Y0060636D01*
X0159540Y0060636D01*
X0158259Y0060105D01*
X0157279Y0059125D01*
X0157077Y0058638D01*
X0157077Y0072150D01*
X0157494Y0071977D01*
X0159035Y0071977D01*
X0160459Y0072567D01*
X0161549Y0073657D01*
X0161567Y0073699D01*
X0161649Y0073733D01*
X0162352Y0074436D01*
X0162733Y0075355D01*
X0162733Y0077604D01*
X0162755Y0077626D01*
X0163776Y0077626D01*
X0163776Y0081926D01*
X0163776Y0081926D01*
X0163776Y0077626D01*
X0164797Y0077626D01*
X0164997Y0077426D01*
X0167517Y0077426D01*
X0167185Y0076623D01*
X0167185Y0075082D01*
X0167775Y0073657D01*
X0168865Y0072567D01*
X0170289Y0071977D01*
X0171830Y0071977D01*
X0172497Y0072253D01*
X0172497Y0070434D01*
X0172877Y0069515D01*
X0173581Y0068812D01*
X0174565Y0067828D01*
X0174601Y0067812D01*
X0174601Y0065557D01*
X0171087Y0065557D01*
X0170302Y0066342D01*
X0168878Y0066932D01*
X0167336Y0066932D01*
X0165912Y0066342D01*
X0164822Y0065252D01*
X0164232Y0063828D01*
X0164232Y0062286D01*
X0164822Y0060862D01*
X0165912Y0059772D01*
X0167336Y0059182D01*
X0168878Y0059182D01*
X0170302Y0059772D01*
X0171087Y0060557D01*
X0174601Y0060557D01*
X0174601Y0052626D01*
X0172004Y0052626D01*
X0168147Y0052626D01*
X0167947Y0052426D01*
X0166926Y0052426D01*
X0166926Y0048126D01*
X0166926Y0048126D01*
X0166926Y0052426D01*
X0165905Y0052426D01*
X0165705Y0052626D01*
X0161848Y0052626D01*
X0161648Y0052426D01*
X0160627Y0052426D01*
X0160627Y0048168D01*
X0160627Y0048168D01*
X0160627Y0052426D01*
X0160030Y0052426D01*
X0160030Y0052777D01*
X0159612Y0053788D01*
X0158838Y0054562D01*
X0157854Y0055546D01*
X0157077Y0055868D01*
X0157077Y0056767D02*
X0174601Y0056767D01*
X0168090Y0056767D01*
X0169312Y0055169D02*
X0174601Y0055169D01*
X0158231Y0055169D01*
X0159702Y0053570D02*
X0174601Y0053570D01*
X0169426Y0053570D01*
X0166926Y0051972D02*
X0166926Y0051972D01*
X0166926Y0050373D02*
X0166926Y0050373D01*
X0164426Y0052626D02*
X0162733Y0052626D01*
X0162733Y0052683D01*
X0164426Y0052683D01*
X0164426Y0052626D01*
X0160627Y0051972D02*
X0160627Y0051972D01*
X0160627Y0050373D02*
X0160627Y0050373D01*
X0160627Y0048775D02*
X0160627Y0048775D01*
X0166926Y0048775D02*
X0166926Y0048775D01*
X0168816Y0040622D02*
X0176528Y0040622D01*
X0176737Y0040709D01*
X0176737Y0035851D01*
X0177090Y0035498D01*
X0176737Y0035145D01*
X0176737Y0033649D01*
X0175613Y0033649D01*
X0174515Y0034747D01*
X0172912Y0035412D01*
X0172408Y0035412D01*
X0171232Y0038249D01*
X0168889Y0040592D01*
X0168816Y0040622D01*
X0170297Y0039184D02*
X0176737Y0039184D01*
X0176737Y0037585D02*
X0171507Y0037585D01*
X0172169Y0035987D02*
X0176737Y0035987D01*
X0176737Y0034388D02*
X0174874Y0034388D01*
X0190922Y0040772D02*
X0195319Y0040772D01*
X0194884Y0040592D01*
X0192616Y0038324D01*
X0192061Y0039662D01*
X0190971Y0040752D01*
X0190922Y0040772D01*
X0192259Y0039184D02*
X0193476Y0039184D01*
X0203887Y0040772D02*
X0212109Y0040772D01*
X0212170Y0040711D01*
X0212170Y0039238D01*
X0211641Y0039767D01*
X0210216Y0040357D01*
X0208675Y0040357D01*
X0207251Y0039767D01*
X0206199Y0038715D01*
X0204322Y0040592D01*
X0203887Y0040772D01*
X0205730Y0039184D02*
X0206667Y0039184D01*
X0215786Y0044449D02*
X0216437Y0043797D01*
X0218005Y0043797D01*
X0219052Y0044845D01*
X0219784Y0045576D01*
X0220739Y0045972D01*
X0235814Y0045972D01*
X0235688Y0046098D01*
X0235098Y0047523D01*
X0235098Y0049064D01*
X0235688Y0050488D01*
X0236778Y0051578D01*
X0238202Y0052168D01*
X0239313Y0052168D01*
X0239934Y0052789D01*
X0220822Y0052789D01*
X0219650Y0053961D01*
X0219650Y0059867D01*
X0218335Y0059867D01*
X0218335Y0052386D01*
X0217164Y0051215D01*
X0216310Y0051215D01*
X0215786Y0050690D01*
X0215786Y0044449D01*
X0215786Y0050690D01*
X0216310Y0051215D01*
X0217164Y0051215D01*
X0218335Y0052386D01*
X0218335Y0059161D01*
X0218070Y0059427D01*
X0218135Y0059671D01*
X0218135Y0061987D01*
X0213862Y0061987D01*
X0213862Y0062946D01*
X0218135Y0062946D01*
X0218135Y0065263D01*
X0218013Y0065720D01*
X0217776Y0066131D01*
X0217441Y0066466D01*
X0217030Y0066703D01*
X0216572Y0066826D01*
X0213862Y0066826D01*
X0213862Y0062946D01*
X0212903Y0062946D01*
X0212903Y0061987D01*
X0210261Y0061987D01*
X0205988Y0061987D01*
X0205988Y0062946D01*
X0212903Y0062946D01*
X0212903Y0066826D01*
X0210193Y0066826D01*
X0209735Y0066703D01*
X0209446Y0066536D01*
X0209156Y0066703D01*
X0208698Y0066826D01*
X0205988Y0066826D01*
X0205988Y0062946D01*
X0205029Y0062946D01*
X0205029Y0061987D01*
X0200756Y0061987D01*
X0200756Y0059671D01*
X0200821Y0059427D01*
X0200556Y0059161D01*
X0200556Y0052386D01*
X0201727Y0051215D01*
X0209290Y0051215D01*
X0209446Y0051370D01*
X0209601Y0051215D01*
X0210455Y0051215D01*
X0210586Y0051084D01*
X0210586Y0051031D01*
X0210216Y0051184D01*
X0208675Y0051184D01*
X0207251Y0050594D01*
X0206465Y0049809D01*
X0202607Y0049809D01*
X0196668Y0055749D01*
X0196877Y0055835D01*
X0197967Y0056925D01*
X0198557Y0058349D01*
X0198557Y0059891D01*
X0197967Y0061315D01*
X0196877Y0062405D01*
X0195453Y0062995D01*
X0194342Y0062995D01*
X0191447Y0065890D01*
X0191734Y0066009D01*
X0192188Y0066463D01*
X0201164Y0066463D01*
X0200556Y0065854D01*
X0200556Y0052386D01*
X0201727Y0051215D01*
X0209290Y0051215D01*
X0209446Y0051370D01*
X0209601Y0051215D01*
X0210455Y0051215D01*
X0210586Y0051084D01*
X0210586Y0051031D01*
X0210216Y0051184D01*
X0208675Y0051184D01*
X0207251Y0050594D01*
X0206465Y0049809D01*
X0202607Y0049809D01*
X0196668Y0055749D01*
X0196877Y0055835D01*
X0197967Y0056925D01*
X0198557Y0058349D01*
X0198557Y0059891D01*
X0197967Y0061315D01*
X0196877Y0062405D01*
X0195453Y0062995D01*
X0194342Y0062995D01*
X0189208Y0068129D01*
X0188323Y0068496D01*
X0188323Y0069460D01*
X0187943Y0070379D01*
X0187240Y0071082D01*
X0184969Y0073352D01*
X0188725Y0073352D01*
X0188838Y0073239D01*
X0188838Y0072352D01*
X0187787Y0071916D01*
X0187096Y0071226D01*
X0184969Y0073352D01*
X0188725Y0073352D01*
X0188838Y0073239D01*
X0188838Y0072129D01*
X0189428Y0070705D01*
X0190518Y0069615D01*
X0191942Y0069025D01*
X0193484Y0069025D01*
X0194908Y0069615D01*
X0195998Y0070705D01*
X0196588Y0072129D01*
X0196588Y0073670D01*
X0195998Y0075095D01*
X0194908Y0076185D01*
X0193484Y0076775D01*
X0192374Y0076775D01*
X0191177Y0077972D01*
X0190258Y0078352D01*
X0189263Y0078352D01*
X0183227Y0078352D01*
X0182430Y0079149D01*
X0179861Y0079149D01*
X0180954Y0080242D01*
X0196004Y0080242D01*
X0195728Y0079576D01*
X0195728Y0078034D01*
X0196318Y0076610D01*
X0197408Y0075520D01*
X0198832Y0074930D01*
X0200374Y0074930D01*
X0200556Y0075006D01*
X0200556Y0071463D01*
X0196312Y0071463D01*
X0196588Y0072129D01*
X0196588Y0073670D01*
X0195998Y0075095D01*
X0194908Y0076185D01*
X0193484Y0076775D01*
X0192374Y0076775D01*
X0191177Y0077972D01*
X0190258Y0078352D01*
X0183227Y0078352D01*
X0182430Y0079149D01*
X0179861Y0079149D01*
X0180954Y0080242D01*
X0196004Y0080242D01*
X0195728Y0079576D01*
X0195728Y0078034D01*
X0196318Y0076610D01*
X0197408Y0075520D01*
X0198832Y0074930D01*
X0200374Y0074930D01*
X0200556Y0075006D01*
X0200556Y0074827D01*
X0200821Y0074562D01*
X0200756Y0074318D01*
X0200756Y0072001D01*
X0205029Y0072001D01*
X0205029Y0071042D01*
X0205988Y0071042D01*
X0205988Y0067163D01*
X0208698Y0067163D01*
X0209156Y0067285D01*
X0209566Y0067522D01*
X0209902Y0067857D01*
X0210139Y0068268D01*
X0210261Y0068726D01*
X0210261Y0071042D01*
X0205988Y0071042D01*
X0205988Y0072001D01*
X0210261Y0072001D01*
X0210261Y0074318D01*
X0210196Y0074562D01*
X0210461Y0074827D01*
X0210461Y0080242D01*
X0216706Y0080242D01*
X0216987Y0079563D01*
X0218077Y0078473D01*
X0219502Y0077883D01*
X0219650Y0077883D01*
X0219650Y0065067D01*
X0218335Y0065067D01*
X0218335Y0065854D01*
X0217164Y0067026D01*
X0209601Y0067026D01*
X0209446Y0066870D01*
X0209321Y0066994D01*
X0210461Y0068134D01*
X0210461Y0080242D01*
X0216706Y0080242D01*
X0216987Y0079563D01*
X0218077Y0078473D01*
X0219502Y0077883D01*
X0219850Y0077883D01*
X0219850Y0067794D01*
X0232268Y0067794D01*
X0232268Y0080999D01*
X0224147Y0080999D01*
X0224147Y0082529D01*
X0223871Y0083195D01*
X0241875Y0083195D01*
X0243871Y0081199D01*
X0224147Y0081199D01*
X0224147Y0082529D01*
X0223871Y0083195D01*
X0241875Y0083195D01*
X0244071Y0080999D01*
X0233868Y0080999D01*
X0233868Y0067794D01*
X0246285Y0067794D01*
X0246285Y0072299D01*
X0246316Y0072286D01*
X0246316Y0057203D01*
X0246285Y0057172D01*
X0246285Y0066194D01*
X0233868Y0066194D01*
X0233868Y0067794D01*
X0232268Y0067794D01*
X0232268Y0066194D01*
X0233868Y0066194D01*
X0233868Y0052989D01*
X0240134Y0052989D01*
X0239313Y0052168D01*
X0238202Y0052168D01*
X0236778Y0051578D01*
X0235688Y0050488D01*
X0235098Y0049064D01*
X0235098Y0047523D01*
X0235688Y0046098D01*
X0235814Y0045972D01*
X0220739Y0045972D01*
X0219784Y0045576D01*
X0219052Y0044845D01*
X0218005Y0043797D01*
X0216437Y0043797D01*
X0215786Y0044449D01*
X0216256Y0043979D02*
X0218187Y0043979D01*
X0216256Y0043979D01*
X0215786Y0045578D02*
X0219787Y0045578D01*
X0215786Y0045578D01*
X0215786Y0047176D02*
X0235242Y0047176D01*
X0215786Y0047176D01*
X0215786Y0048775D02*
X0235098Y0048775D01*
X0215786Y0048775D01*
X0215786Y0050373D02*
X0235640Y0050373D01*
X0215786Y0050373D01*
X0217921Y0051972D02*
X0237728Y0051972D01*
X0217921Y0051972D01*
X0218335Y0053570D02*
X0220041Y0053570D01*
X0220210Y0053684D02*
X0220545Y0053349D01*
X0220955Y0053112D01*
X0221413Y0052989D01*
X0232268Y0052989D01*
X0232268Y0066194D01*
X0219850Y0066194D01*
X0219850Y0054552D01*
X0219973Y0054095D01*
X0220210Y0053684D01*
X0220324Y0053570D02*
X0218335Y0053570D01*
X0218335Y0055169D02*
X0219650Y0055169D01*
X0219850Y0055169D02*
X0218335Y0055169D01*
X0218335Y0056767D02*
X0219650Y0056767D01*
X0219850Y0056767D02*
X0218335Y0056767D01*
X0218335Y0058366D02*
X0219650Y0058366D01*
X0219850Y0058366D02*
X0218335Y0058366D01*
X0218135Y0059964D02*
X0219850Y0059964D01*
X0219850Y0061563D02*
X0218135Y0061563D01*
X0218135Y0063161D02*
X0219850Y0063161D01*
X0219850Y0064760D02*
X0218135Y0064760D01*
X0217831Y0066358D02*
X0219650Y0066358D01*
X0219650Y0067957D02*
X0210284Y0067957D01*
X0209959Y0067957D02*
X0219850Y0067957D01*
X0219850Y0069555D02*
X0210261Y0069555D01*
X0210461Y0069555D02*
X0219650Y0069555D01*
X0219650Y0071154D02*
X0210461Y0071154D01*
X0210461Y0072752D02*
X0219650Y0072752D01*
X0219850Y0072752D02*
X0210261Y0072752D01*
X0210252Y0074351D02*
X0219850Y0074351D01*
X0219650Y0074351D02*
X0210461Y0074351D01*
X0210461Y0075949D02*
X0219650Y0075949D01*
X0219850Y0075949D02*
X0210461Y0075949D01*
X0210461Y0077548D02*
X0219650Y0077548D01*
X0219850Y0077548D02*
X0210461Y0077548D01*
X0210461Y0079146D02*
X0217404Y0079146D01*
X0210461Y0079146D01*
X0200765Y0074351D02*
X0196306Y0074351D01*
X0200556Y0074351D01*
X0200556Y0072752D02*
X0196588Y0072752D01*
X0200756Y0072752D01*
X0200756Y0071042D02*
X0200756Y0068726D01*
X0200878Y0068268D01*
X0201115Y0067857D01*
X0201451Y0067522D01*
X0201861Y0067285D01*
X0202319Y0067163D01*
X0205029Y0067163D01*
X0205029Y0071042D01*
X0200756Y0071042D01*
X0200756Y0069555D02*
X0194765Y0069555D01*
X0196184Y0071154D02*
X0205029Y0071154D01*
X0205988Y0071154D02*
X0219850Y0071154D01*
X0217548Y0066358D02*
X0232268Y0066358D01*
X0232268Y0064760D02*
X0233868Y0064760D01*
X0233868Y0066358D02*
X0246316Y0066358D01*
X0246285Y0064760D02*
X0246316Y0064760D01*
X0246285Y0063161D02*
X0246316Y0063161D01*
X0246285Y0061563D02*
X0246316Y0061563D01*
X0246285Y0059964D02*
X0246316Y0059964D01*
X0246285Y0058366D02*
X0246316Y0058366D01*
X0254268Y0062811D02*
X0254268Y0071178D01*
X0254601Y0070845D01*
X0264678Y0070845D01*
X0264626Y0070718D01*
X0264626Y0069176D01*
X0264972Y0068339D01*
X0264201Y0067568D01*
X0263782Y0066557D01*
X0263782Y0063144D01*
X0254601Y0063144D01*
X0254268Y0062811D01*
X0254268Y0063161D02*
X0263782Y0063161D01*
X0263782Y0064760D02*
X0254268Y0064760D01*
X0254268Y0066358D02*
X0263782Y0066358D01*
X0264590Y0067957D02*
X0254268Y0067957D01*
X0254268Y0069555D02*
X0264626Y0069555D01*
X0270973Y0066760D02*
X0271099Y0067065D01*
X0271201Y0067167D01*
X0271216Y0067163D01*
X0273927Y0067163D01*
X0273927Y0071042D01*
X0274886Y0071042D01*
X0274886Y0067163D01*
X0277596Y0067163D01*
X0277712Y0067194D01*
X0277712Y0066795D01*
X0277596Y0066826D01*
X0274886Y0066826D01*
X0274886Y0062946D01*
X0273927Y0062946D01*
X0273927Y0066826D01*
X0271216Y0066826D01*
X0270973Y0066760D01*
X0269653Y0065242D02*
X0269282Y0064871D01*
X0269282Y0058974D01*
X0269282Y0061746D01*
X0269453Y0061675D01*
X0269453Y0058974D01*
X0269282Y0058974D01*
X0269453Y0058974D01*
X0269453Y0059161D01*
X0269719Y0059427D01*
X0269653Y0059671D01*
X0269653Y0061987D01*
X0273927Y0061987D01*
X0273927Y0062946D01*
X0269653Y0062946D01*
X0269653Y0065242D01*
X0269653Y0064760D02*
X0269282Y0064760D01*
X0269282Y0063161D02*
X0269653Y0063161D01*
X0269653Y0061563D02*
X0269282Y0061563D01*
X0269453Y0061563D01*
X0269453Y0059964D02*
X0269282Y0059964D01*
X0269653Y0059964D01*
X0273927Y0063161D02*
X0274886Y0063161D01*
X0274886Y0064760D02*
X0273927Y0064760D01*
X0273927Y0066358D02*
X0274886Y0066358D01*
X0274886Y0067957D02*
X0273927Y0067957D01*
X0273927Y0069555D02*
X0274886Y0069555D01*
X0282912Y0069555D02*
X0283036Y0069555D01*
X0283036Y0067957D02*
X0282912Y0067957D01*
X0283036Y0067741D02*
X0283782Y0066994D01*
X0283036Y0066248D01*
X0283036Y0064207D01*
X0282912Y0064331D01*
X0282912Y0076545D01*
X0283036Y0076493D01*
X0283036Y0075221D01*
X0283389Y0074868D01*
X0283036Y0074516D01*
X0283036Y0067741D01*
X0283147Y0066358D02*
X0282912Y0066358D01*
X0282912Y0064760D02*
X0283036Y0064760D01*
X0279159Y0060730D02*
X0283036Y0056853D01*
X0283036Y0055215D01*
X0283021Y0055178D01*
X0282830Y0054716D01*
X0282830Y0054700D01*
X0282824Y0054684D01*
X0282830Y0054182D01*
X0282830Y0053682D01*
X0282836Y0053667D01*
X0282836Y0053650D01*
X0283034Y0053188D01*
X0283036Y0053184D01*
X0283036Y0051993D01*
X0284208Y0050821D01*
X0292164Y0050821D01*
X0292942Y0051599D01*
X0302871Y0051599D01*
X0302871Y0050370D01*
X0304042Y0049199D01*
X0302871Y0048027D01*
X0302871Y0040370D01*
X0304042Y0039199D01*
X0311699Y0039199D01*
X0312871Y0040370D01*
X0312871Y0043440D01*
X0313044Y0043267D01*
X0314796Y0042541D01*
X0316082Y0042541D01*
X0316082Y0035768D01*
X0314725Y0036330D01*
X0312828Y0036330D01*
X0311075Y0035604D01*
X0310957Y0035486D01*
X0310923Y0035569D01*
X0309910Y0036582D01*
X0308587Y0037130D01*
X0295344Y0037130D01*
X0294020Y0036582D01*
X0295344Y0037130D01*
X0308587Y0037130D01*
X0309910Y0036582D01*
X0310923Y0035569D01*
X0310957Y0035486D01*
X0311075Y0035604D01*
X0312828Y0036330D01*
X0314725Y0036330D01*
X0316082Y0035768D01*
X0316082Y0042541D01*
X0314796Y0042541D01*
X0313044Y0043267D01*
X0312671Y0043640D01*
X0312671Y0040962D01*
X0312548Y0040504D01*
X0312311Y0040094D01*
X0311976Y0039759D01*
X0311566Y0039522D01*
X0311108Y0039399D01*
X0308071Y0039399D01*
X0308071Y0043999D01*
X0307671Y0043999D01*
X0307671Y0039399D01*
X0304634Y0039399D01*
X0304176Y0039522D01*
X0303766Y0039759D01*
X0303430Y0040094D01*
X0303193Y0040504D01*
X0303071Y0040962D01*
X0303071Y0043999D01*
X0307671Y0043999D01*
X0307671Y0044399D01*
X0307671Y0048999D01*
X0304634Y0048999D01*
X0304176Y0048876D01*
X0303766Y0048639D01*
X0303430Y0048304D01*
X0303193Y0047894D01*
X0303071Y0047436D01*
X0303071Y0044399D01*
X0307671Y0044399D01*
X0308071Y0044399D01*
X0308071Y0048999D01*
X0311108Y0048999D01*
X0311266Y0048957D01*
X0311366Y0049199D01*
X0304042Y0049199D01*
X0311366Y0049199D01*
X0311366Y0049199D01*
X0304042Y0049199D01*
X0302871Y0050370D01*
X0302871Y0051599D01*
X0292942Y0051599D01*
X0292164Y0050821D01*
X0284208Y0050821D01*
X0283036Y0051993D01*
X0283036Y0053184D01*
X0283034Y0053189D01*
X0282836Y0053650D01*
X0282836Y0053667D01*
X0282830Y0053682D01*
X0282830Y0054183D01*
X0282824Y0054684D01*
X0282830Y0054700D01*
X0282830Y0054716D01*
X0283021Y0055179D01*
X0283036Y0055215D01*
X0283036Y0056853D01*
X0279359Y0060530D01*
X0279359Y0052654D01*
X0279619Y0052762D01*
X0281005Y0052762D01*
X0282285Y0052231D01*
X0283265Y0051251D01*
X0283796Y0049971D01*
X0283796Y0048585D01*
X0283479Y0047819D01*
X0283796Y0048585D01*
X0283796Y0049971D01*
X0283265Y0051251D01*
X0282285Y0052231D01*
X0281005Y0052762D01*
X0279619Y0052762D01*
X0279359Y0052654D01*
X0279359Y0059161D01*
X0279094Y0059427D01*
X0279159Y0059671D01*
X0279159Y0060730D01*
X0279159Y0059964D02*
X0279924Y0059964D01*
X0279359Y0059964D01*
X0279359Y0058366D02*
X0281523Y0058366D01*
X0279359Y0058366D01*
X0279359Y0056767D02*
X0283036Y0056767D01*
X0279359Y0056767D01*
X0279359Y0055169D02*
X0283017Y0055169D01*
X0279359Y0055169D01*
X0279359Y0053570D02*
X0282870Y0053570D01*
X0279359Y0053570D01*
X0282545Y0051972D02*
X0283057Y0051972D01*
X0282545Y0051972D01*
X0283629Y0050373D02*
X0302871Y0050373D01*
X0283629Y0050373D01*
X0283796Y0048775D02*
X0303618Y0048775D01*
X0304000Y0048775D02*
X0283796Y0048775D01*
X0283479Y0047819D02*
X0286453Y0044845D01*
X0285721Y0045576D01*
X0283479Y0047819D01*
X0284122Y0047176D02*
X0302871Y0047176D01*
X0303071Y0047176D02*
X0284122Y0047176D01*
X0285720Y0045578D02*
X0302871Y0045578D01*
X0303071Y0045578D02*
X0285720Y0045578D01*
X0285721Y0045576D02*
X0285721Y0045576D01*
X0286453Y0044845D02*
X0286592Y0044509D01*
X0287304Y0043797D01*
X0292164Y0043797D01*
X0293335Y0042626D01*
X0293335Y0035896D01*
X0294020Y0036582D01*
X0293335Y0035896D01*
X0293335Y0042626D01*
X0292164Y0043797D01*
X0287304Y0043797D01*
X0286592Y0044509D01*
X0286453Y0044845D01*
X0287122Y0043979D02*
X0303071Y0043979D01*
X0302871Y0043979D02*
X0287122Y0043979D01*
X0283036Y0040711D02*
X0283036Y0039238D01*
X0282507Y0039767D01*
X0281082Y0040357D01*
X0279541Y0040357D01*
X0278117Y0039767D01*
X0277065Y0038715D01*
X0275188Y0040592D01*
X0274753Y0040772D01*
X0282975Y0040772D01*
X0283036Y0040711D01*
X0277533Y0039184D02*
X0276596Y0039184D01*
X0266185Y0040772D02*
X0265750Y0040592D01*
X0263482Y0038324D01*
X0262927Y0039662D01*
X0261837Y0040752D01*
X0261788Y0040772D01*
X0266185Y0040772D01*
X0264342Y0039184D02*
X0263125Y0039184D01*
X0256172Y0045972D02*
X0255643Y0045753D01*
X0255643Y0046111D01*
X0255053Y0047536D01*
X0254268Y0048321D01*
X0254268Y0053178D01*
X0254601Y0052845D01*
X0262265Y0052845D01*
X0262919Y0052574D01*
X0269453Y0052574D01*
X0269453Y0052386D01*
X0270625Y0051215D01*
X0272729Y0051215D01*
X0272933Y0051010D01*
X0277123Y0046821D01*
X0277123Y0046821D01*
X0277855Y0046089D01*
X0277972Y0045972D01*
X0256172Y0045972D01*
X0255202Y0047176D02*
X0276768Y0047176D01*
X0277855Y0046089D02*
X0277855Y0046089D01*
X0275169Y0048775D02*
X0254268Y0048775D01*
X0249268Y0048775D02*
X0248363Y0048775D01*
X0248363Y0048585D02*
X0248363Y0049971D01*
X0247832Y0051251D01*
X0247634Y0051450D01*
X0249268Y0053085D01*
X0249268Y0048321D01*
X0248483Y0047536D01*
X0248380Y0047287D01*
X0247988Y0047680D01*
X0248363Y0048585D01*
X0248196Y0050373D02*
X0249268Y0050373D01*
X0249268Y0051972D02*
X0248155Y0051972D01*
X0254268Y0051972D02*
X0269868Y0051972D01*
X0273571Y0050373D02*
X0254268Y0050373D01*
X0242537Y0045972D02*
X0242371Y0046371D01*
X0242258Y0046098D01*
X0242132Y0045972D01*
X0242537Y0045972D01*
X0239755Y0040592D02*
X0239320Y0040772D01*
X0247542Y0040772D01*
X0247603Y0040711D01*
X0247603Y0035851D01*
X0247956Y0035498D01*
X0247603Y0035145D01*
X0247603Y0033649D01*
X0246479Y0033649D01*
X0245381Y0034747D01*
X0243778Y0035412D01*
X0243274Y0035412D01*
X0242099Y0038249D01*
X0239755Y0040592D01*
X0241163Y0039184D02*
X0247603Y0039184D01*
X0247603Y0037585D02*
X0242373Y0037585D01*
X0243035Y0035987D02*
X0247603Y0035987D01*
X0247603Y0034388D02*
X0245740Y0034388D01*
X0230752Y0040772D02*
X0230317Y0040592D01*
X0227974Y0038249D01*
X0226798Y0035412D01*
X0226294Y0035412D01*
X0224691Y0034747D01*
X0223505Y0033561D01*
X0222469Y0033561D01*
X0222469Y0035145D01*
X0222116Y0035498D01*
X0222469Y0035851D01*
X0222469Y0040772D01*
X0230752Y0040772D01*
X0228909Y0039184D02*
X0222469Y0039184D01*
X0222469Y0037585D02*
X0227699Y0037585D01*
X0227037Y0035987D02*
X0222469Y0035987D01*
X0222469Y0034388D02*
X0224332Y0034388D01*
X0223225Y0025656D02*
X0211414Y0025656D01*
X0187792Y0025656D02*
X0175981Y0025656D01*
X0155932Y0035412D02*
X0156910Y0037771D01*
X0156069Y0038119D01*
X0154979Y0039209D01*
X0154646Y0040014D01*
X0149485Y0034853D01*
X0148530Y0034457D01*
X0147640Y0034457D01*
X0147536Y0034207D01*
X0146660Y0033331D01*
X0145516Y0032857D01*
X0145172Y0032857D01*
X0145316Y0032510D01*
X0145316Y0030613D01*
X0144754Y0029256D01*
X0150359Y0029256D01*
X0150359Y0032390D01*
X0151530Y0033561D01*
X0152639Y0033561D01*
X0153825Y0034747D01*
X0155428Y0035412D01*
X0155932Y0035412D01*
X0156171Y0035987D02*
X0150619Y0035987D01*
X0152217Y0037585D02*
X0156833Y0037585D01*
X0155004Y0039184D02*
X0153816Y0039184D01*
X0149659Y0042381D02*
X0147086Y0042381D01*
X0146788Y0042381D02*
X0149659Y0042381D01*
X0148896Y0043979D02*
X0148066Y0043979D01*
X0147822Y0043979D02*
X0148896Y0043979D01*
X0148078Y0045578D02*
X0144210Y0045578D01*
X0143610Y0045578D02*
X0140525Y0045578D01*
X0140397Y0045450D02*
X0140997Y0046050D01*
X0143610Y0046050D01*
X0143610Y0045450D01*
X0140397Y0045450D01*
X0139999Y0043979D02*
X0138926Y0043979D01*
X0141033Y0042381D02*
X0136356Y0042381D01*
X0135479Y0040782D02*
X0141159Y0040782D01*
X0140651Y0040782D01*
X0139984Y0039184D02*
X0136958Y0039184D01*
X0137149Y0037585D02*
X0139810Y0037585D01*
X0137454Y0037585D01*
X0137349Y0035987D02*
X0138771Y0035987D01*
X0137149Y0035987D01*
X0133499Y0035987D02*
X0132999Y0035987D01*
X0132999Y0036807D02*
X0132999Y0033057D01*
X0131975Y0033057D01*
X0131412Y0033169D01*
X0130882Y0033389D01*
X0130405Y0033708D01*
X0129999Y0034113D01*
X0129680Y0034590D01*
X0129461Y0035120D01*
X0129349Y0035683D01*
X0129349Y0036807D01*
X0132999Y0036807D01*
X0129349Y0035987D02*
X0120671Y0035987D01*
X0122811Y0034388D02*
X0129547Y0034388D01*
X0129815Y0034388D02*
X0122811Y0034388D01*
X0123547Y0032790D02*
X0135895Y0032790D01*
X0123547Y0032790D01*
X0123663Y0031191D02*
X0135779Y0031191D01*
X0123663Y0031191D01*
X0123240Y0029593D02*
X0136202Y0029593D01*
X0123240Y0029593D01*
X0114548Y0029593D02*
X0105146Y0029593D01*
X0114548Y0029593D01*
X0114126Y0031191D02*
X0105146Y0031191D01*
X0114126Y0031191D01*
X0114242Y0032790D02*
X0104746Y0032790D01*
X0114242Y0032790D01*
X0114978Y0034388D02*
X0101695Y0034388D01*
X0100470Y0035987D02*
X0099335Y0035987D01*
X0117118Y0035987D01*
X0117225Y0039184D02*
X0097463Y0039184D01*
X0102365Y0039184D01*
X0102068Y0037585D02*
X0098673Y0037585D01*
X0128814Y0037585D01*
X0132999Y0034388D02*
X0133499Y0034388D01*
X0139052Y0039184D02*
X0139984Y0039184D01*
X0143610Y0042381D02*
X0144210Y0042381D01*
X0144210Y0043979D02*
X0143610Y0043979D01*
X0146662Y0040782D02*
X0148061Y0040782D01*
X0146662Y0040782D01*
X0147611Y0034388D02*
X0153466Y0034388D01*
X0150759Y0032790D02*
X0145200Y0032790D01*
X0145316Y0031191D02*
X0150359Y0031191D01*
X0150359Y0029593D02*
X0144894Y0029593D01*
X0152359Y0025656D02*
X0103146Y0025656D01*
X0107865Y0040782D02*
X0115627Y0040782D01*
X0095595Y0040782D01*
X0115412Y0048775D02*
X0124862Y0048775D01*
X0125413Y0047176D02*
X0117011Y0047176D01*
X0118609Y0045578D02*
X0127543Y0045578D01*
X0132477Y0050373D02*
X0137967Y0050373D01*
X0140903Y0051972D02*
X0131523Y0051972D01*
X0157077Y0058366D02*
X0174601Y0058366D01*
X0163501Y0058366D01*
X0162348Y0059964D02*
X0165720Y0059964D01*
X0157077Y0059964D01*
X0158118Y0059964D01*
X0157077Y0061563D02*
X0164532Y0061563D01*
X0157077Y0061563D01*
X0157077Y0063161D02*
X0164232Y0063161D01*
X0157077Y0063161D01*
X0157077Y0064760D02*
X0164618Y0064760D01*
X0157077Y0064760D01*
X0157077Y0066358D02*
X0165951Y0066358D01*
X0157077Y0066358D01*
X0157077Y0067957D02*
X0174435Y0067957D01*
X0157077Y0067957D01*
X0157077Y0069555D02*
X0161170Y0069555D01*
X0163232Y0069555D02*
X0172861Y0069555D01*
X0157077Y0069555D01*
X0157077Y0071154D02*
X0159153Y0071154D01*
X0157077Y0071154D02*
X0172497Y0071154D01*
X0165250Y0071154D01*
X0165686Y0072752D02*
X0168680Y0072752D01*
X0160644Y0072752D01*
X0162267Y0074351D02*
X0167487Y0074351D01*
X0166662Y0074351D01*
X0166670Y0075949D02*
X0167185Y0075949D01*
X0162733Y0075949D01*
X0162733Y0077548D02*
X0164875Y0077548D01*
X0163776Y0079146D02*
X0163776Y0079146D01*
X0163776Y0080745D02*
X0163776Y0080745D01*
X0151577Y0075949D02*
X0149801Y0075949D01*
X0149801Y0074351D02*
X0151577Y0074351D01*
X0151577Y0072752D02*
X0149801Y0072752D01*
X0149801Y0071154D02*
X0151577Y0071154D01*
X0140801Y0075500D02*
X0140801Y0076251D01*
X0140490Y0075500D01*
X0140801Y0075500D01*
X0140801Y0075949D02*
X0140677Y0075949D01*
X0131020Y0078230D02*
X0131020Y0078230D01*
X0131020Y0084768D01*
X0130490Y0086048D01*
X0131550Y0086048D01*
X0131020Y0084768D01*
X0131020Y0078230D01*
X0131020Y0079146D02*
X0131020Y0079146D01*
X0131020Y0080745D02*
X0131020Y0080745D01*
X0131020Y0082343D02*
X0131020Y0082343D01*
X0131020Y0083942D02*
X0131020Y0083942D01*
X0130700Y0085541D02*
X0131340Y0085541D01*
X0140490Y0086048D02*
X0141020Y0084768D01*
X0141020Y0083374D01*
X0141094Y0083374D01*
X0142050Y0082978D01*
X0142578Y0082449D01*
X0142578Y0082529D01*
X0143168Y0083953D01*
X0144258Y0085043D01*
X0145683Y0085633D01*
X0147224Y0085633D01*
X0148096Y0085272D01*
X0148871Y0086048D01*
X0140490Y0086048D01*
X0140700Y0085541D02*
X0145459Y0085541D01*
X0147447Y0085541D02*
X0148364Y0085541D01*
X0143164Y0083942D02*
X0141020Y0083942D01*
X0121340Y0085541D02*
X0120700Y0085541D01*
X0121020Y0083942D02*
X0121020Y0083942D01*
X0121020Y0082343D02*
X0121020Y0082343D01*
X0121020Y0080745D02*
X0121020Y0080745D01*
X0121020Y0079146D02*
X0121020Y0079146D01*
X0121020Y0077548D02*
X0121020Y0077548D01*
X0120677Y0075949D02*
X0121364Y0075949D01*
X0122372Y0074351D02*
X0119669Y0074351D01*
X0112372Y0074351D02*
X0109669Y0074351D01*
X0110677Y0075949D02*
X0111364Y0075949D01*
X0111020Y0077548D02*
X0111020Y0077548D01*
X0111020Y0079146D02*
X0111020Y0079146D01*
X0111020Y0080745D02*
X0111020Y0080745D01*
X0111020Y0082343D02*
X0111020Y0082343D01*
X0111020Y0083942D02*
X0111020Y0083942D01*
X0110700Y0085541D02*
X0111340Y0085541D01*
X0101550Y0086048D02*
X0101020Y0084768D01*
X0100490Y0086048D01*
X0101550Y0086048D01*
X0101340Y0085541D02*
X0100700Y0085541D01*
X0101020Y0084768D02*
X0101020Y0076779D01*
X0100259Y0074941D01*
X0098853Y0073535D01*
X0098346Y0073325D01*
X0101219Y0073325D01*
X0102390Y0072153D01*
X0102390Y0072019D01*
X0103499Y0073128D01*
X0104066Y0073128D01*
X0104062Y0073173D01*
X0103188Y0073535D01*
X0101782Y0074941D01*
X0101020Y0076779D01*
X0101020Y0084768D01*
X0101020Y0083942D02*
X0101020Y0083942D01*
X0101020Y0082343D02*
X0101020Y0082343D01*
X0101020Y0080745D02*
X0101020Y0080745D01*
X0101020Y0079146D02*
X0101020Y0079146D01*
X0101020Y0077548D02*
X0101020Y0077548D01*
X0100677Y0075949D02*
X0101364Y0075949D01*
X0102372Y0074351D02*
X0099669Y0074351D01*
X0101791Y0072752D02*
X0103123Y0072752D01*
X0111043Y0072752D02*
X0129144Y0072752D01*
X0130743Y0071154D02*
X0111839Y0071154D01*
X0091020Y0079451D02*
X0091020Y0084768D01*
X0090490Y0086048D01*
X0091550Y0086048D01*
X0091020Y0084768D01*
X0091020Y0079451D01*
X0091020Y0079451D01*
X0090820Y0079251D01*
X0090820Y0080574D01*
X0086220Y0080574D01*
X0086220Y0080974D01*
X0090820Y0080974D01*
X0090820Y0084151D01*
X0090702Y0084898D01*
X0090469Y0085616D01*
X0090249Y0086048D01*
X0091550Y0086048D01*
X0091020Y0084768D01*
X0091020Y0079451D01*
X0091020Y0080745D02*
X0091020Y0080745D01*
X0086220Y0080745D01*
X0085820Y0080745D02*
X0076219Y0080745D01*
X0081020Y0080745D01*
X0081020Y0079146D02*
X0076219Y0079146D01*
X0081220Y0079146D01*
X0081220Y0077548D02*
X0075912Y0077548D01*
X0081020Y0077548D01*
X0081364Y0075949D02*
X0074440Y0075949D01*
X0081566Y0075949D01*
X0082372Y0074351D02*
X0072841Y0074351D01*
X0082655Y0074351D01*
X0085820Y0074351D02*
X0086220Y0074351D01*
X0086220Y0075949D02*
X0085820Y0075949D01*
X0085820Y0077548D02*
X0086220Y0077548D01*
X0086220Y0079146D02*
X0085820Y0079146D01*
X0081220Y0082343D02*
X0076219Y0082343D01*
X0081020Y0082343D01*
X0081020Y0083942D02*
X0076219Y0083942D01*
X0081220Y0083942D01*
X0081340Y0085541D02*
X0076219Y0085541D01*
X0081547Y0085541D01*
X0090493Y0085541D02*
X0091340Y0085541D01*
X0090700Y0085541D01*
X0090820Y0083942D02*
X0091020Y0083942D01*
X0091020Y0083942D01*
X0091020Y0082343D02*
X0091020Y0082343D01*
X0090820Y0082343D01*
X0088735Y0072752D02*
X0071243Y0072752D01*
X0088735Y0072752D01*
X0088735Y0071154D02*
X0069644Y0071154D01*
X0088735Y0071154D01*
X0088735Y0069555D02*
X0079988Y0069555D01*
X0079268Y0069555D02*
X0088735Y0069555D01*
X0088735Y0067957D02*
X0080934Y0067957D01*
X0080734Y0067957D02*
X0088735Y0067957D01*
X0088735Y0066358D02*
X0080934Y0066358D01*
X0080734Y0066358D02*
X0088735Y0066358D01*
X0088735Y0064760D02*
X0080934Y0064760D01*
X0080934Y0063161D02*
X0089523Y0063161D01*
X0080734Y0063161D01*
X0074394Y0063161D02*
X0072844Y0063161D01*
X0072844Y0063857D02*
X0072844Y0059682D01*
X0068067Y0059682D01*
X0067609Y0059805D01*
X0067199Y0060042D01*
X0066863Y0060377D01*
X0066626Y0060788D01*
X0066504Y0061245D01*
X0066504Y0063857D01*
X0072844Y0063857D01*
X0072844Y0064760D02*
X0064408Y0064760D01*
X0066304Y0064760D01*
X0066304Y0066358D02*
X0064849Y0066358D01*
X0066504Y0066358D01*
X0066504Y0067957D02*
X0066447Y0067957D01*
X0072844Y0067957D02*
X0074394Y0067957D01*
X0074394Y0069555D02*
X0072844Y0069555D01*
X0072844Y0066358D02*
X0074394Y0066358D01*
X0074394Y0064760D02*
X0088735Y0064760D01*
X0074394Y0061563D02*
X0072844Y0061563D01*
X0072844Y0059964D02*
X0074394Y0059964D01*
X0067333Y0059964D02*
X0064408Y0059964D01*
X0066993Y0059964D01*
X0067083Y0058366D02*
X0064309Y0058366D01*
X0067083Y0058366D01*
X0066304Y0056767D02*
X0063132Y0056767D01*
X0066304Y0056767D01*
X0066304Y0055169D02*
X0061533Y0055169D01*
X0066304Y0055169D01*
X0066304Y0053570D02*
X0060902Y0053570D01*
X0066304Y0053570D01*
X0066304Y0051972D02*
X0060902Y0051972D01*
X0066304Y0051972D01*
X0066304Y0050373D02*
X0060902Y0050373D01*
X0066304Y0050373D01*
X0067159Y0048775D02*
X0060155Y0048775D01*
X0059773Y0048775D02*
X0067159Y0048775D01*
X0059731Y0049199D02*
X0052407Y0049199D01*
X0052407Y0049199D01*
X0059731Y0049199D01*
X0056102Y0048775D02*
X0055702Y0048775D01*
X0055702Y0047176D02*
X0056102Y0047176D01*
X0056102Y0045578D02*
X0055702Y0045578D01*
X0055702Y0043979D02*
X0056102Y0043979D01*
X0056102Y0042381D02*
X0055702Y0042381D01*
X0055702Y0040782D02*
X0056102Y0040782D01*
X0051150Y0040782D02*
X0047691Y0040782D01*
X0050902Y0040782D01*
X0050902Y0042381D02*
X0047691Y0042381D01*
X0051102Y0042381D01*
X0051773Y0035987D02*
X0053268Y0035987D01*
X0051773Y0035987D01*
X0048220Y0035987D02*
X0047691Y0035987D01*
X0048220Y0035987D01*
X0044091Y0031561D02*
X0044093Y0031409D01*
X0044099Y0031257D01*
X0044109Y0031105D01*
X0044122Y0030954D01*
X0044140Y0030803D01*
X0044161Y0030652D01*
X0044187Y0030502D01*
X0044216Y0030353D01*
X0044249Y0030204D01*
X0044286Y0030057D01*
X0044326Y0029910D01*
X0044371Y0029765D01*
X0044419Y0029621D01*
X0044471Y0029478D01*
X0044526Y0029336D01*
X0044585Y0029196D01*
X0044648Y0029057D01*
X0044714Y0028920D01*
X0044784Y0028785D01*
X0044857Y0028652D01*
X0044934Y0028521D01*
X0045014Y0028391D01*
X0045097Y0028264D01*
X0045183Y0028139D01*
X0045273Y0028016D01*
X0045366Y0027896D01*
X0045462Y0027778D01*
X0045561Y0027662D01*
X0045663Y0027549D01*
X0045767Y0027439D01*
X0045875Y0027331D01*
X0045985Y0027227D01*
X0046098Y0027125D01*
X0046214Y0027026D01*
X0046332Y0026930D01*
X0046452Y0026837D01*
X0046575Y0026747D01*
X0046700Y0026661D01*
X0046827Y0026578D01*
X0046957Y0026498D01*
X0047088Y0026421D01*
X0047221Y0026348D01*
X0047356Y0026278D01*
X0047493Y0026212D01*
X0047632Y0026149D01*
X0047772Y0026090D01*
X0047914Y0026035D01*
X0048057Y0025983D01*
X0048201Y0025935D01*
X0048346Y0025890D01*
X0048493Y0025850D01*
X0048640Y0025813D01*
X0048789Y0025780D01*
X0048938Y0025751D01*
X0049088Y0025725D01*
X0049239Y0025704D01*
X0049390Y0025686D01*
X0049541Y0025673D01*
X0049693Y0025663D01*
X0049845Y0025657D01*
X0049997Y0025655D01*
X0044091Y0031561D02*
X0044091Y0086679D01*
X0047691Y0082473D02*
X0049048Y0081911D01*
X0050945Y0081911D01*
X0052698Y0082637D01*
X0052816Y0082755D01*
X0052850Y0082671D01*
X0053863Y0081659D01*
X0055186Y0081111D01*
X0068310Y0081111D01*
X0060902Y0073703D01*
X0060902Y0077712D01*
X0059731Y0078884D01*
X0052074Y0078884D01*
X0050902Y0077712D01*
X0050902Y0074801D01*
X0050729Y0074974D01*
X0048977Y0075700D01*
X0047691Y0075700D01*
X0047691Y0082473D01*
X0047691Y0082343D02*
X0048003Y0082343D01*
X0047691Y0080745D02*
X0067945Y0080745D01*
X0066346Y0079146D02*
X0047691Y0079146D01*
X0047691Y0077548D02*
X0050902Y0077548D01*
X0050902Y0075949D02*
X0047691Y0075949D01*
X0052342Y0068884D02*
X0056084Y0068884D01*
X0056084Y0068884D01*
X0052342Y0068884D01*
X0052342Y0068884D01*
X0050902Y0067062D02*
X0050902Y0060056D01*
X0051916Y0059041D01*
X0050902Y0058027D01*
X0050902Y0051179D01*
X0050729Y0051352D01*
X0048977Y0052078D01*
X0047691Y0052078D01*
X0047691Y0066163D01*
X0048977Y0066163D01*
X0050729Y0066889D01*
X0050902Y0067062D01*
X0050902Y0066358D02*
X0049449Y0066358D01*
X0050902Y0064760D02*
X0047691Y0064760D01*
X0047691Y0063161D02*
X0050902Y0063161D01*
X0050902Y0061563D02*
X0047691Y0061563D01*
X0047691Y0059964D02*
X0050993Y0059964D01*
X0051241Y0058366D02*
X0047691Y0058366D01*
X0047691Y0056767D02*
X0050902Y0056767D01*
X0050902Y0055169D02*
X0047691Y0055169D01*
X0047691Y0053570D02*
X0050902Y0053570D01*
X0050902Y0051972D02*
X0049232Y0051972D01*
X0064408Y0061563D02*
X0066304Y0061563D01*
X0066504Y0061563D02*
X0064408Y0061563D01*
X0064408Y0063161D02*
X0066304Y0063161D01*
X0066504Y0063161D02*
X0064408Y0063161D01*
X0061551Y0074351D02*
X0060902Y0074351D01*
X0060902Y0075949D02*
X0063149Y0075949D01*
X0064748Y0077548D02*
X0060902Y0077548D01*
X0053178Y0082343D02*
X0051990Y0082343D01*
X0055902Y0084711D02*
X0055902Y0092585D01*
X0049997Y0092585D01*
X0049845Y0092583D01*
X0049693Y0092577D01*
X0049541Y0092567D01*
X0049390Y0092554D01*
X0049239Y0092536D01*
X0049088Y0092515D01*
X0048938Y0092489D01*
X0048789Y0092460D01*
X0048640Y0092427D01*
X0048493Y0092390D01*
X0048346Y0092350D01*
X0048201Y0092305D01*
X0048057Y0092257D01*
X0047914Y0092205D01*
X0047772Y0092150D01*
X0047632Y0092091D01*
X0047493Y0092028D01*
X0047356Y0091962D01*
X0047221Y0091892D01*
X0047088Y0091819D01*
X0046957Y0091742D01*
X0046827Y0091662D01*
X0046700Y0091579D01*
X0046575Y0091493D01*
X0046452Y0091403D01*
X0046332Y0091310D01*
X0046214Y0091214D01*
X0046098Y0091115D01*
X0045985Y0091013D01*
X0045875Y0090909D01*
X0045767Y0090801D01*
X0045663Y0090691D01*
X0045561Y0090578D01*
X0045462Y0090462D01*
X0045366Y0090344D01*
X0045273Y0090224D01*
X0045183Y0090101D01*
X0045097Y0089976D01*
X0045014Y0089849D01*
X0044934Y0089719D01*
X0044857Y0089588D01*
X0044784Y0089455D01*
X0044714Y0089320D01*
X0044648Y0089183D01*
X0044585Y0089044D01*
X0044526Y0088904D01*
X0044471Y0088762D01*
X0044419Y0088619D01*
X0044371Y0088475D01*
X0044326Y0088330D01*
X0044286Y0088183D01*
X0044249Y0088036D01*
X0044216Y0087887D01*
X0044187Y0087738D01*
X0044161Y0087588D01*
X0044140Y0087437D01*
X0044122Y0087286D01*
X0044109Y0087135D01*
X0044099Y0086983D01*
X0044093Y0086831D01*
X0044091Y0086679D01*
X0055902Y0084711D02*
X0067713Y0084711D01*
X0067713Y0092585D01*
X0296060Y0092585D01*
X0296060Y0084711D01*
X0307871Y0084711D01*
X0307871Y0092585D01*
X0313776Y0092585D01*
X0313928Y0092583D01*
X0314080Y0092577D01*
X0314232Y0092567D01*
X0314383Y0092554D01*
X0314534Y0092536D01*
X0314685Y0092515D01*
X0314835Y0092489D01*
X0314984Y0092460D01*
X0315133Y0092427D01*
X0315280Y0092390D01*
X0315427Y0092350D01*
X0315572Y0092305D01*
X0315716Y0092257D01*
X0315859Y0092205D01*
X0316001Y0092150D01*
X0316141Y0092091D01*
X0316280Y0092028D01*
X0316417Y0091962D01*
X0316552Y0091892D01*
X0316685Y0091819D01*
X0316816Y0091742D01*
X0316946Y0091662D01*
X0317073Y0091579D01*
X0317198Y0091493D01*
X0317321Y0091403D01*
X0317441Y0091310D01*
X0317559Y0091214D01*
X0317675Y0091115D01*
X0317788Y0091013D01*
X0317898Y0090909D01*
X0318006Y0090801D01*
X0318110Y0090691D01*
X0318212Y0090578D01*
X0318311Y0090462D01*
X0318407Y0090344D01*
X0318500Y0090224D01*
X0318590Y0090101D01*
X0318676Y0089976D01*
X0318759Y0089849D01*
X0318839Y0089719D01*
X0318916Y0089588D01*
X0318989Y0089455D01*
X0319059Y0089320D01*
X0319125Y0089183D01*
X0319188Y0089044D01*
X0319247Y0088904D01*
X0319302Y0088762D01*
X0319354Y0088619D01*
X0319402Y0088475D01*
X0319447Y0088330D01*
X0319487Y0088183D01*
X0319524Y0088036D01*
X0319557Y0087887D01*
X0319586Y0087738D01*
X0319612Y0087588D01*
X0319633Y0087437D01*
X0319651Y0087286D01*
X0319664Y0087135D01*
X0319674Y0086983D01*
X0319680Y0086831D01*
X0319682Y0086679D01*
X0319682Y0031561D01*
X0319680Y0031409D01*
X0319674Y0031257D01*
X0319664Y0031105D01*
X0319651Y0030954D01*
X0319633Y0030803D01*
X0319612Y0030652D01*
X0319586Y0030502D01*
X0319557Y0030353D01*
X0319524Y0030204D01*
X0319487Y0030057D01*
X0319447Y0029910D01*
X0319402Y0029765D01*
X0319354Y0029621D01*
X0319302Y0029478D01*
X0319247Y0029336D01*
X0319188Y0029196D01*
X0319125Y0029057D01*
X0319059Y0028920D01*
X0318989Y0028785D01*
X0318916Y0028652D01*
X0318839Y0028521D01*
X0318759Y0028391D01*
X0318676Y0028264D01*
X0318590Y0028139D01*
X0318500Y0028016D01*
X0318407Y0027896D01*
X0318311Y0027778D01*
X0318212Y0027662D01*
X0318110Y0027549D01*
X0318006Y0027439D01*
X0317898Y0027331D01*
X0317788Y0027227D01*
X0317675Y0027125D01*
X0317559Y0027026D01*
X0317441Y0026930D01*
X0317321Y0026837D01*
X0317198Y0026747D01*
X0317073Y0026661D01*
X0316946Y0026578D01*
X0316816Y0026498D01*
X0316685Y0026421D01*
X0316552Y0026348D01*
X0316417Y0026278D01*
X0316280Y0026212D01*
X0316141Y0026149D01*
X0316001Y0026090D01*
X0315859Y0026035D01*
X0315716Y0025983D01*
X0315572Y0025935D01*
X0315427Y0025890D01*
X0315280Y0025850D01*
X0315133Y0025813D01*
X0314984Y0025780D01*
X0314835Y0025751D01*
X0314685Y0025725D01*
X0314534Y0025704D01*
X0314383Y0025686D01*
X0314232Y0025673D01*
X0314080Y0025663D01*
X0313928Y0025657D01*
X0313776Y0025655D01*
X0313776Y0025656D02*
X0307871Y0025656D01*
X0307871Y0033530D01*
X0296060Y0033530D01*
X0296060Y0025656D01*
X0282280Y0025656D01*
X0293335Y0035987D02*
X0293426Y0035987D01*
X0293335Y0035987D01*
X0293335Y0037585D02*
X0316082Y0037585D01*
X0293335Y0037585D01*
X0293335Y0039184D02*
X0316082Y0039184D01*
X0293335Y0039184D01*
X0293335Y0040782D02*
X0302871Y0040782D01*
X0303119Y0040782D02*
X0293335Y0040782D01*
X0293335Y0042381D02*
X0302871Y0042381D01*
X0303071Y0042381D02*
X0293335Y0042381D01*
X0307671Y0042381D02*
X0308071Y0042381D01*
X0308071Y0043979D02*
X0307671Y0043979D01*
X0307671Y0045578D02*
X0308071Y0045578D01*
X0308071Y0047176D02*
X0307671Y0047176D01*
X0307671Y0048775D02*
X0308071Y0048775D01*
X0312871Y0051179D02*
X0312871Y0058027D01*
X0311857Y0059041D01*
X0312871Y0060056D01*
X0312871Y0067062D01*
X0313044Y0066889D01*
X0314796Y0066163D01*
X0316082Y0066163D01*
X0316082Y0052078D01*
X0314796Y0052078D01*
X0313044Y0051352D01*
X0312871Y0051179D01*
X0312871Y0051972D02*
X0314541Y0051972D01*
X0316082Y0053570D02*
X0312871Y0053570D01*
X0312871Y0055169D02*
X0316082Y0055169D01*
X0316082Y0056767D02*
X0312871Y0056767D01*
X0312532Y0058366D02*
X0316082Y0058366D01*
X0316082Y0059964D02*
X0312780Y0059964D01*
X0312871Y0061563D02*
X0316082Y0061563D01*
X0316082Y0063161D02*
X0312871Y0063161D01*
X0312871Y0064760D02*
X0316082Y0064760D01*
X0314324Y0066358D02*
X0312871Y0066358D01*
X0311431Y0068884D02*
X0306548Y0068884D01*
X0306548Y0068884D01*
X0311431Y0068884D01*
X0311431Y0068884D01*
X0302871Y0072561D02*
X0295350Y0080081D01*
X0294619Y0080813D01*
X0293663Y0081208D01*
X0293335Y0081208D01*
X0293335Y0081996D01*
X0292226Y0083105D01*
X0292358Y0083238D01*
X0292652Y0083531D01*
X0293008Y0082671D01*
X0294020Y0081659D01*
X0295344Y0081111D01*
X0308587Y0081111D01*
X0309910Y0081659D01*
X0310923Y0082671D01*
X0310957Y0082755D01*
X0311075Y0082637D01*
X0312828Y0081911D01*
X0314725Y0081911D01*
X0316082Y0082473D01*
X0316082Y0075700D01*
X0314796Y0075700D01*
X0313044Y0074974D01*
X0312871Y0074801D01*
X0312871Y0077712D01*
X0311699Y0078884D01*
X0304042Y0078884D01*
X0302871Y0077712D01*
X0302871Y0072561D01*
X0302871Y0072752D02*
X0302679Y0072752D01*
X0302871Y0074351D02*
X0301081Y0074351D01*
X0299482Y0075949D02*
X0302871Y0075949D01*
X0302871Y0077548D02*
X0297884Y0077548D01*
X0296285Y0079146D02*
X0316082Y0079146D01*
X0316082Y0077548D02*
X0312871Y0077548D01*
X0312871Y0075949D02*
X0316082Y0075949D01*
X0316082Y0080745D02*
X0294687Y0080745D01*
X0293336Y0082343D02*
X0292988Y0082343D01*
X0289077Y0087311D02*
X0283731Y0087311D01*
X0282912Y0086971D01*
X0282912Y0087196D01*
X0282572Y0088016D01*
X0289077Y0088016D01*
X0289430Y0087663D01*
X0289077Y0087311D01*
X0283317Y0087139D02*
X0282912Y0087139D01*
X0277712Y0085163D02*
X0276912Y0085163D01*
X0277360Y0084716D01*
X0277712Y0083867D01*
X0277712Y0085163D01*
X0277681Y0083942D02*
X0277712Y0083942D01*
X0271900Y0085163D02*
X0271452Y0084716D01*
X0270922Y0083435D01*
X0270922Y0082774D01*
X0270625Y0082774D01*
X0269856Y0082005D01*
X0267864Y0082005D01*
X0266688Y0081518D01*
X0266314Y0081144D01*
X0257612Y0081144D01*
X0257612Y0082097D01*
X0260678Y0085163D01*
X0271900Y0085163D01*
X0271132Y0083942D02*
X0259456Y0083942D01*
X0257858Y0082343D02*
X0270195Y0082343D01*
X0254491Y0086048D02*
X0254076Y0085633D01*
X0252966Y0085633D01*
X0251542Y0085043D01*
X0250452Y0083953D01*
X0249862Y0082529D01*
X0249862Y0082279D01*
X0246093Y0086048D01*
X0254491Y0086048D01*
X0252743Y0085541D02*
X0246600Y0085541D01*
X0248199Y0083942D02*
X0250447Y0083942D01*
X0249862Y0082343D02*
X0249797Y0082343D01*
X0242726Y0082343D02*
X0224147Y0082343D01*
X0242726Y0082343D01*
X0233868Y0080745D02*
X0232268Y0080745D01*
X0232268Y0079146D02*
X0233868Y0079146D01*
X0233868Y0077548D02*
X0232268Y0077548D01*
X0232268Y0075949D02*
X0233868Y0075949D01*
X0233868Y0074351D02*
X0232268Y0074351D01*
X0232268Y0072752D02*
X0233868Y0072752D01*
X0233868Y0071154D02*
X0232268Y0071154D01*
X0232268Y0069555D02*
X0233868Y0069555D01*
X0233868Y0067957D02*
X0232268Y0067957D01*
X0232268Y0063161D02*
X0233868Y0063161D01*
X0233868Y0061563D02*
X0232268Y0061563D01*
X0232268Y0059964D02*
X0233868Y0059964D01*
X0233868Y0058366D02*
X0232268Y0058366D01*
X0232268Y0056767D02*
X0233868Y0056767D01*
X0233868Y0055169D02*
X0232268Y0055169D01*
X0232268Y0053570D02*
X0233868Y0053570D01*
X0213862Y0063161D02*
X0212903Y0063161D01*
X0212903Y0064760D02*
X0213862Y0064760D01*
X0213862Y0066358D02*
X0212903Y0066358D01*
X0205988Y0066358D02*
X0205029Y0066358D01*
X0205029Y0066826D02*
X0202319Y0066826D01*
X0201861Y0066703D01*
X0201451Y0066466D01*
X0201115Y0066131D01*
X0200878Y0065720D01*
X0200756Y0065263D01*
X0200756Y0062946D01*
X0205029Y0062946D01*
X0205029Y0066826D01*
X0205029Y0067957D02*
X0205988Y0067957D01*
X0205988Y0069555D02*
X0205029Y0069555D01*
X0201058Y0067957D02*
X0189381Y0067957D01*
X0188284Y0069555D02*
X0190661Y0069555D01*
X0189242Y0071154D02*
X0187168Y0071154D01*
X0185569Y0072752D02*
X0188838Y0072752D01*
X0185569Y0072752D01*
X0191601Y0077548D02*
X0195930Y0077548D01*
X0191601Y0077548D01*
X0195144Y0075949D02*
X0196979Y0075949D01*
X0195144Y0075949D01*
X0195728Y0079146D02*
X0182433Y0079146D01*
X0195728Y0079146D01*
X0192084Y0066358D02*
X0201060Y0066358D01*
X0201343Y0066358D02*
X0190979Y0066358D01*
X0192578Y0064760D02*
X0200556Y0064760D01*
X0200756Y0064760D02*
X0192578Y0064760D01*
X0194176Y0063161D02*
X0200556Y0063161D01*
X0200756Y0063161D02*
X0194176Y0063161D01*
X0197719Y0061563D02*
X0200556Y0061563D01*
X0200756Y0061563D02*
X0197719Y0061563D01*
X0198526Y0059964D02*
X0200556Y0059964D01*
X0200756Y0059964D02*
X0198526Y0059964D01*
X0198557Y0058366D02*
X0200556Y0058366D01*
X0198557Y0058366D01*
X0197809Y0056767D02*
X0200556Y0056767D01*
X0197809Y0056767D01*
X0197247Y0055169D02*
X0200556Y0055169D01*
X0197247Y0055169D01*
X0198846Y0053570D02*
X0200556Y0053570D01*
X0198846Y0053570D01*
X0200444Y0051972D02*
X0200970Y0051972D01*
X0200444Y0051972D01*
X0202043Y0050373D02*
X0207030Y0050373D01*
X0202043Y0050373D01*
X0196570Y0048775D02*
X0186449Y0048775D01*
X0186156Y0048067D02*
X0186746Y0049491D01*
X0186746Y0051033D01*
X0186156Y0052457D01*
X0185066Y0053547D01*
X0183642Y0054137D01*
X0183601Y0054137D01*
X0183601Y0061744D01*
X0199373Y0045972D01*
X0185306Y0045972D01*
X0185042Y0045862D01*
X0184261Y0046643D01*
X0185066Y0046977D01*
X0186156Y0048067D01*
X0185265Y0047176D02*
X0198169Y0047176D01*
X0194972Y0050373D02*
X0186746Y0050373D01*
X0186357Y0051972D02*
X0193373Y0051972D01*
X0191775Y0053570D02*
X0185009Y0053570D01*
X0183601Y0055169D02*
X0190176Y0055169D01*
X0188578Y0056767D02*
X0183601Y0056767D01*
X0183601Y0058366D02*
X0186979Y0058366D01*
X0185381Y0059964D02*
X0183601Y0059964D01*
X0183601Y0061563D02*
X0183782Y0061563D01*
X0174601Y0059964D02*
X0170494Y0059964D01*
X0174601Y0059964D01*
X0174601Y0066358D02*
X0170263Y0066358D01*
X0174601Y0066358D01*
X0205029Y0064760D02*
X0205988Y0064760D01*
X0205988Y0063161D02*
X0205029Y0063161D01*
X0246285Y0067957D02*
X0246316Y0067957D01*
X0246285Y0069555D02*
X0246316Y0069555D01*
X0246285Y0071154D02*
X0246316Y0071154D01*
X0254268Y0071154D02*
X0254292Y0071154D01*
X0269241Y0073822D02*
X0269241Y0075020D01*
X0269453Y0075233D01*
X0269453Y0073747D01*
X0269271Y0073822D01*
X0269241Y0073822D01*
X0269241Y0074351D02*
X0269453Y0074351D01*
X0282912Y0074351D02*
X0283036Y0074351D01*
X0283036Y0075949D02*
X0282912Y0075949D01*
X0282912Y0072752D02*
X0283036Y0072752D01*
X0283036Y0071154D02*
X0282912Y0071154D01*
X0292983Y0074868D02*
X0293096Y0074982D01*
X0302871Y0065207D01*
X0302871Y0060056D01*
X0303885Y0059041D01*
X0302871Y0058027D01*
X0302871Y0056799D01*
X0293335Y0056799D01*
X0293335Y0058767D01*
X0292983Y0059120D01*
X0293335Y0059473D01*
X0293335Y0063119D01*
X0294862Y0063119D01*
X0296286Y0063709D01*
X0297376Y0064799D01*
X0297966Y0066223D01*
X0297966Y0067765D01*
X0297376Y0069189D01*
X0296286Y0070279D01*
X0294862Y0070869D01*
X0293335Y0070869D01*
X0293335Y0074516D01*
X0292983Y0074868D01*
X0293335Y0074351D02*
X0293727Y0074351D01*
X0293335Y0072752D02*
X0295325Y0072752D01*
X0296924Y0071154D02*
X0293335Y0071154D01*
X0297010Y0069555D02*
X0298522Y0069555D01*
X0297887Y0067957D02*
X0300121Y0067957D01*
X0301719Y0066358D02*
X0297966Y0066358D01*
X0297337Y0064760D02*
X0302871Y0064760D01*
X0302871Y0063161D02*
X0294964Y0063161D01*
X0293335Y0061563D02*
X0302871Y0061563D01*
X0302962Y0059964D02*
X0293335Y0059964D01*
X0293335Y0058366D02*
X0303209Y0058366D01*
X0312671Y0042381D02*
X0316082Y0042381D01*
X0312871Y0042381D01*
X0312871Y0040782D02*
X0316082Y0040782D01*
X0312623Y0040782D01*
X0308071Y0040782D02*
X0307671Y0040782D01*
X0310505Y0035987D02*
X0312000Y0035987D01*
X0310505Y0035987D01*
X0315553Y0035987D02*
X0316082Y0035987D01*
X0315553Y0035987D01*
X0258658Y0025656D02*
X0246847Y0025656D01*
X0310595Y0082343D02*
X0311783Y0082343D01*
X0315770Y0082343D02*
X0316082Y0082343D01*
D11*
X0311807Y0086679D02*
X0311809Y0086767D01*
X0311815Y0086855D01*
X0311825Y0086943D01*
X0311839Y0087031D01*
X0311856Y0087117D01*
X0311878Y0087203D01*
X0311903Y0087287D01*
X0311933Y0087371D01*
X0311965Y0087453D01*
X0312002Y0087533D01*
X0312042Y0087612D01*
X0312086Y0087689D01*
X0312133Y0087764D01*
X0312183Y0087836D01*
X0312237Y0087907D01*
X0312293Y0087974D01*
X0312353Y0088040D01*
X0312415Y0088102D01*
X0312481Y0088162D01*
X0312548Y0088218D01*
X0312619Y0088272D01*
X0312691Y0088322D01*
X0312766Y0088369D01*
X0312843Y0088413D01*
X0312922Y0088453D01*
X0313002Y0088490D01*
X0313084Y0088522D01*
X0313168Y0088552D01*
X0313252Y0088577D01*
X0313338Y0088599D01*
X0313424Y0088616D01*
X0313512Y0088630D01*
X0313600Y0088640D01*
X0313688Y0088646D01*
X0313776Y0088648D01*
X0313864Y0088646D01*
X0313952Y0088640D01*
X0314040Y0088630D01*
X0314128Y0088616D01*
X0314214Y0088599D01*
X0314300Y0088577D01*
X0314384Y0088552D01*
X0314468Y0088522D01*
X0314550Y0088490D01*
X0314630Y0088453D01*
X0314709Y0088413D01*
X0314786Y0088369D01*
X0314861Y0088322D01*
X0314933Y0088272D01*
X0315004Y0088218D01*
X0315071Y0088162D01*
X0315137Y0088102D01*
X0315199Y0088040D01*
X0315259Y0087974D01*
X0315315Y0087907D01*
X0315369Y0087836D01*
X0315419Y0087764D01*
X0315466Y0087689D01*
X0315510Y0087612D01*
X0315550Y0087533D01*
X0315587Y0087453D01*
X0315619Y0087371D01*
X0315649Y0087287D01*
X0315674Y0087203D01*
X0315696Y0087117D01*
X0315713Y0087031D01*
X0315727Y0086943D01*
X0315737Y0086855D01*
X0315743Y0086767D01*
X0315745Y0086679D01*
X0315743Y0086591D01*
X0315737Y0086503D01*
X0315727Y0086415D01*
X0315713Y0086327D01*
X0315696Y0086241D01*
X0315674Y0086155D01*
X0315649Y0086071D01*
X0315619Y0085987D01*
X0315587Y0085905D01*
X0315550Y0085825D01*
X0315510Y0085746D01*
X0315466Y0085669D01*
X0315419Y0085594D01*
X0315369Y0085522D01*
X0315315Y0085451D01*
X0315259Y0085384D01*
X0315199Y0085318D01*
X0315137Y0085256D01*
X0315071Y0085196D01*
X0315004Y0085140D01*
X0314933Y0085086D01*
X0314861Y0085036D01*
X0314786Y0084989D01*
X0314709Y0084945D01*
X0314630Y0084905D01*
X0314550Y0084868D01*
X0314468Y0084836D01*
X0314384Y0084806D01*
X0314300Y0084781D01*
X0314214Y0084759D01*
X0314128Y0084742D01*
X0314040Y0084728D01*
X0313952Y0084718D01*
X0313864Y0084712D01*
X0313776Y0084710D01*
X0313688Y0084712D01*
X0313600Y0084718D01*
X0313512Y0084728D01*
X0313424Y0084742D01*
X0313338Y0084759D01*
X0313252Y0084781D01*
X0313168Y0084806D01*
X0313084Y0084836D01*
X0313002Y0084868D01*
X0312922Y0084905D01*
X0312843Y0084945D01*
X0312766Y0084989D01*
X0312691Y0085036D01*
X0312619Y0085086D01*
X0312548Y0085140D01*
X0312481Y0085196D01*
X0312415Y0085256D01*
X0312353Y0085318D01*
X0312293Y0085384D01*
X0312237Y0085451D01*
X0312183Y0085522D01*
X0312133Y0085594D01*
X0312086Y0085669D01*
X0312042Y0085746D01*
X0312002Y0085825D01*
X0311965Y0085905D01*
X0311933Y0085987D01*
X0311903Y0086071D01*
X0311878Y0086155D01*
X0311856Y0086241D01*
X0311839Y0086327D01*
X0311825Y0086415D01*
X0311815Y0086503D01*
X0311809Y0086591D01*
X0311807Y0086679D01*
X0313776Y0070931D02*
X0313778Y0071019D01*
X0313784Y0071107D01*
X0313794Y0071195D01*
X0313808Y0071283D01*
X0313825Y0071369D01*
X0313847Y0071455D01*
X0313872Y0071539D01*
X0313902Y0071623D01*
X0313934Y0071705D01*
X0313971Y0071785D01*
X0314011Y0071864D01*
X0314055Y0071941D01*
X0314102Y0072016D01*
X0314152Y0072088D01*
X0314206Y0072159D01*
X0314262Y0072226D01*
X0314322Y0072292D01*
X0314384Y0072354D01*
X0314450Y0072414D01*
X0314517Y0072470D01*
X0314588Y0072524D01*
X0314660Y0072574D01*
X0314735Y0072621D01*
X0314812Y0072665D01*
X0314891Y0072705D01*
X0314971Y0072742D01*
X0315053Y0072774D01*
X0315137Y0072804D01*
X0315221Y0072829D01*
X0315307Y0072851D01*
X0315393Y0072868D01*
X0315481Y0072882D01*
X0315569Y0072892D01*
X0315657Y0072898D01*
X0315745Y0072900D01*
X0315833Y0072898D01*
X0315921Y0072892D01*
X0316009Y0072882D01*
X0316097Y0072868D01*
X0316183Y0072851D01*
X0316269Y0072829D01*
X0316353Y0072804D01*
X0316437Y0072774D01*
X0316519Y0072742D01*
X0316599Y0072705D01*
X0316678Y0072665D01*
X0316755Y0072621D01*
X0316830Y0072574D01*
X0316902Y0072524D01*
X0316973Y0072470D01*
X0317040Y0072414D01*
X0317106Y0072354D01*
X0317168Y0072292D01*
X0317228Y0072226D01*
X0317284Y0072159D01*
X0317338Y0072088D01*
X0317388Y0072016D01*
X0317435Y0071941D01*
X0317479Y0071864D01*
X0317519Y0071785D01*
X0317556Y0071705D01*
X0317588Y0071623D01*
X0317618Y0071539D01*
X0317643Y0071455D01*
X0317665Y0071369D01*
X0317682Y0071283D01*
X0317696Y0071195D01*
X0317706Y0071107D01*
X0317712Y0071019D01*
X0317714Y0070931D01*
X0317712Y0070843D01*
X0317706Y0070755D01*
X0317696Y0070667D01*
X0317682Y0070579D01*
X0317665Y0070493D01*
X0317643Y0070407D01*
X0317618Y0070323D01*
X0317588Y0070239D01*
X0317556Y0070157D01*
X0317519Y0070077D01*
X0317479Y0069998D01*
X0317435Y0069921D01*
X0317388Y0069846D01*
X0317338Y0069774D01*
X0317284Y0069703D01*
X0317228Y0069636D01*
X0317168Y0069570D01*
X0317106Y0069508D01*
X0317040Y0069448D01*
X0316973Y0069392D01*
X0316902Y0069338D01*
X0316830Y0069288D01*
X0316755Y0069241D01*
X0316678Y0069197D01*
X0316599Y0069157D01*
X0316519Y0069120D01*
X0316437Y0069088D01*
X0316353Y0069058D01*
X0316269Y0069033D01*
X0316183Y0069011D01*
X0316097Y0068994D01*
X0316009Y0068980D01*
X0315921Y0068970D01*
X0315833Y0068964D01*
X0315745Y0068962D01*
X0315657Y0068964D01*
X0315569Y0068970D01*
X0315481Y0068980D01*
X0315393Y0068994D01*
X0315307Y0069011D01*
X0315221Y0069033D01*
X0315137Y0069058D01*
X0315053Y0069088D01*
X0314971Y0069120D01*
X0314891Y0069157D01*
X0314812Y0069197D01*
X0314735Y0069241D01*
X0314660Y0069288D01*
X0314588Y0069338D01*
X0314517Y0069392D01*
X0314450Y0069448D01*
X0314384Y0069508D01*
X0314322Y0069570D01*
X0314262Y0069636D01*
X0314206Y0069703D01*
X0314152Y0069774D01*
X0314102Y0069846D01*
X0314055Y0069921D01*
X0314011Y0069998D01*
X0313971Y0070077D01*
X0313934Y0070157D01*
X0313902Y0070239D01*
X0313872Y0070323D01*
X0313847Y0070407D01*
X0313825Y0070493D01*
X0313808Y0070579D01*
X0313794Y0070667D01*
X0313784Y0070755D01*
X0313778Y0070843D01*
X0313776Y0070931D01*
X0313776Y0047309D02*
X0313778Y0047397D01*
X0313784Y0047485D01*
X0313794Y0047573D01*
X0313808Y0047661D01*
X0313825Y0047747D01*
X0313847Y0047833D01*
X0313872Y0047917D01*
X0313902Y0048001D01*
X0313934Y0048083D01*
X0313971Y0048163D01*
X0314011Y0048242D01*
X0314055Y0048319D01*
X0314102Y0048394D01*
X0314152Y0048466D01*
X0314206Y0048537D01*
X0314262Y0048604D01*
X0314322Y0048670D01*
X0314384Y0048732D01*
X0314450Y0048792D01*
X0314517Y0048848D01*
X0314588Y0048902D01*
X0314660Y0048952D01*
X0314735Y0048999D01*
X0314812Y0049043D01*
X0314891Y0049083D01*
X0314971Y0049120D01*
X0315053Y0049152D01*
X0315137Y0049182D01*
X0315221Y0049207D01*
X0315307Y0049229D01*
X0315393Y0049246D01*
X0315481Y0049260D01*
X0315569Y0049270D01*
X0315657Y0049276D01*
X0315745Y0049278D01*
X0315833Y0049276D01*
X0315921Y0049270D01*
X0316009Y0049260D01*
X0316097Y0049246D01*
X0316183Y0049229D01*
X0316269Y0049207D01*
X0316353Y0049182D01*
X0316437Y0049152D01*
X0316519Y0049120D01*
X0316599Y0049083D01*
X0316678Y0049043D01*
X0316755Y0048999D01*
X0316830Y0048952D01*
X0316902Y0048902D01*
X0316973Y0048848D01*
X0317040Y0048792D01*
X0317106Y0048732D01*
X0317168Y0048670D01*
X0317228Y0048604D01*
X0317284Y0048537D01*
X0317338Y0048466D01*
X0317388Y0048394D01*
X0317435Y0048319D01*
X0317479Y0048242D01*
X0317519Y0048163D01*
X0317556Y0048083D01*
X0317588Y0048001D01*
X0317618Y0047917D01*
X0317643Y0047833D01*
X0317665Y0047747D01*
X0317682Y0047661D01*
X0317696Y0047573D01*
X0317706Y0047485D01*
X0317712Y0047397D01*
X0317714Y0047309D01*
X0317712Y0047221D01*
X0317706Y0047133D01*
X0317696Y0047045D01*
X0317682Y0046957D01*
X0317665Y0046871D01*
X0317643Y0046785D01*
X0317618Y0046701D01*
X0317588Y0046617D01*
X0317556Y0046535D01*
X0317519Y0046455D01*
X0317479Y0046376D01*
X0317435Y0046299D01*
X0317388Y0046224D01*
X0317338Y0046152D01*
X0317284Y0046081D01*
X0317228Y0046014D01*
X0317168Y0045948D01*
X0317106Y0045886D01*
X0317040Y0045826D01*
X0316973Y0045770D01*
X0316902Y0045716D01*
X0316830Y0045666D01*
X0316755Y0045619D01*
X0316678Y0045575D01*
X0316599Y0045535D01*
X0316519Y0045498D01*
X0316437Y0045466D01*
X0316353Y0045436D01*
X0316269Y0045411D01*
X0316183Y0045389D01*
X0316097Y0045372D01*
X0316009Y0045358D01*
X0315921Y0045348D01*
X0315833Y0045342D01*
X0315745Y0045340D01*
X0315657Y0045342D01*
X0315569Y0045348D01*
X0315481Y0045358D01*
X0315393Y0045372D01*
X0315307Y0045389D01*
X0315221Y0045411D01*
X0315137Y0045436D01*
X0315053Y0045466D01*
X0314971Y0045498D01*
X0314891Y0045535D01*
X0314812Y0045575D01*
X0314735Y0045619D01*
X0314660Y0045666D01*
X0314588Y0045716D01*
X0314517Y0045770D01*
X0314450Y0045826D01*
X0314384Y0045886D01*
X0314322Y0045948D01*
X0314262Y0046014D01*
X0314206Y0046081D01*
X0314152Y0046152D01*
X0314102Y0046224D01*
X0314055Y0046299D01*
X0314011Y0046376D01*
X0313971Y0046455D01*
X0313934Y0046535D01*
X0313902Y0046617D01*
X0313872Y0046701D01*
X0313847Y0046785D01*
X0313825Y0046871D01*
X0313808Y0046957D01*
X0313794Y0047045D01*
X0313784Y0047133D01*
X0313778Y0047221D01*
X0313776Y0047309D01*
X0311807Y0031561D02*
X0311809Y0031649D01*
X0311815Y0031737D01*
X0311825Y0031825D01*
X0311839Y0031913D01*
X0311856Y0031999D01*
X0311878Y0032085D01*
X0311903Y0032169D01*
X0311933Y0032253D01*
X0311965Y0032335D01*
X0312002Y0032415D01*
X0312042Y0032494D01*
X0312086Y0032571D01*
X0312133Y0032646D01*
X0312183Y0032718D01*
X0312237Y0032789D01*
X0312293Y0032856D01*
X0312353Y0032922D01*
X0312415Y0032984D01*
X0312481Y0033044D01*
X0312548Y0033100D01*
X0312619Y0033154D01*
X0312691Y0033204D01*
X0312766Y0033251D01*
X0312843Y0033295D01*
X0312922Y0033335D01*
X0313002Y0033372D01*
X0313084Y0033404D01*
X0313168Y0033434D01*
X0313252Y0033459D01*
X0313338Y0033481D01*
X0313424Y0033498D01*
X0313512Y0033512D01*
X0313600Y0033522D01*
X0313688Y0033528D01*
X0313776Y0033530D01*
X0313864Y0033528D01*
X0313952Y0033522D01*
X0314040Y0033512D01*
X0314128Y0033498D01*
X0314214Y0033481D01*
X0314300Y0033459D01*
X0314384Y0033434D01*
X0314468Y0033404D01*
X0314550Y0033372D01*
X0314630Y0033335D01*
X0314709Y0033295D01*
X0314786Y0033251D01*
X0314861Y0033204D01*
X0314933Y0033154D01*
X0315004Y0033100D01*
X0315071Y0033044D01*
X0315137Y0032984D01*
X0315199Y0032922D01*
X0315259Y0032856D01*
X0315315Y0032789D01*
X0315369Y0032718D01*
X0315419Y0032646D01*
X0315466Y0032571D01*
X0315510Y0032494D01*
X0315550Y0032415D01*
X0315587Y0032335D01*
X0315619Y0032253D01*
X0315649Y0032169D01*
X0315674Y0032085D01*
X0315696Y0031999D01*
X0315713Y0031913D01*
X0315727Y0031825D01*
X0315737Y0031737D01*
X0315743Y0031649D01*
X0315745Y0031561D01*
X0315743Y0031473D01*
X0315737Y0031385D01*
X0315727Y0031297D01*
X0315713Y0031209D01*
X0315696Y0031123D01*
X0315674Y0031037D01*
X0315649Y0030953D01*
X0315619Y0030869D01*
X0315587Y0030787D01*
X0315550Y0030707D01*
X0315510Y0030628D01*
X0315466Y0030551D01*
X0315419Y0030476D01*
X0315369Y0030404D01*
X0315315Y0030333D01*
X0315259Y0030266D01*
X0315199Y0030200D01*
X0315137Y0030138D01*
X0315071Y0030078D01*
X0315004Y0030022D01*
X0314933Y0029968D01*
X0314861Y0029918D01*
X0314786Y0029871D01*
X0314709Y0029827D01*
X0314630Y0029787D01*
X0314550Y0029750D01*
X0314468Y0029718D01*
X0314384Y0029688D01*
X0314300Y0029663D01*
X0314214Y0029641D01*
X0314128Y0029624D01*
X0314040Y0029610D01*
X0313952Y0029600D01*
X0313864Y0029594D01*
X0313776Y0029592D01*
X0313688Y0029594D01*
X0313600Y0029600D01*
X0313512Y0029610D01*
X0313424Y0029624D01*
X0313338Y0029641D01*
X0313252Y0029663D01*
X0313168Y0029688D01*
X0313084Y0029718D01*
X0313002Y0029750D01*
X0312922Y0029787D01*
X0312843Y0029827D01*
X0312766Y0029871D01*
X0312691Y0029918D01*
X0312619Y0029968D01*
X0312548Y0030022D01*
X0312481Y0030078D01*
X0312415Y0030138D01*
X0312353Y0030200D01*
X0312293Y0030266D01*
X0312237Y0030333D01*
X0312183Y0030404D01*
X0312133Y0030476D01*
X0312086Y0030551D01*
X0312042Y0030628D01*
X0312002Y0030707D01*
X0311965Y0030787D01*
X0311933Y0030869D01*
X0311903Y0030953D01*
X0311878Y0031037D01*
X0311856Y0031123D01*
X0311839Y0031209D01*
X0311825Y0031297D01*
X0311815Y0031385D01*
X0311809Y0031473D01*
X0311807Y0031561D01*
X0138579Y0031561D02*
X0138581Y0031649D01*
X0138587Y0031737D01*
X0138597Y0031825D01*
X0138611Y0031913D01*
X0138628Y0031999D01*
X0138650Y0032085D01*
X0138675Y0032169D01*
X0138705Y0032253D01*
X0138737Y0032335D01*
X0138774Y0032415D01*
X0138814Y0032494D01*
X0138858Y0032571D01*
X0138905Y0032646D01*
X0138955Y0032718D01*
X0139009Y0032789D01*
X0139065Y0032856D01*
X0139125Y0032922D01*
X0139187Y0032984D01*
X0139253Y0033044D01*
X0139320Y0033100D01*
X0139391Y0033154D01*
X0139463Y0033204D01*
X0139538Y0033251D01*
X0139615Y0033295D01*
X0139694Y0033335D01*
X0139774Y0033372D01*
X0139856Y0033404D01*
X0139940Y0033434D01*
X0140024Y0033459D01*
X0140110Y0033481D01*
X0140196Y0033498D01*
X0140284Y0033512D01*
X0140372Y0033522D01*
X0140460Y0033528D01*
X0140548Y0033530D01*
X0140636Y0033528D01*
X0140724Y0033522D01*
X0140812Y0033512D01*
X0140900Y0033498D01*
X0140986Y0033481D01*
X0141072Y0033459D01*
X0141156Y0033434D01*
X0141240Y0033404D01*
X0141322Y0033372D01*
X0141402Y0033335D01*
X0141481Y0033295D01*
X0141558Y0033251D01*
X0141633Y0033204D01*
X0141705Y0033154D01*
X0141776Y0033100D01*
X0141843Y0033044D01*
X0141909Y0032984D01*
X0141971Y0032922D01*
X0142031Y0032856D01*
X0142087Y0032789D01*
X0142141Y0032718D01*
X0142191Y0032646D01*
X0142238Y0032571D01*
X0142282Y0032494D01*
X0142322Y0032415D01*
X0142359Y0032335D01*
X0142391Y0032253D01*
X0142421Y0032169D01*
X0142446Y0032085D01*
X0142468Y0031999D01*
X0142485Y0031913D01*
X0142499Y0031825D01*
X0142509Y0031737D01*
X0142515Y0031649D01*
X0142517Y0031561D01*
X0142515Y0031473D01*
X0142509Y0031385D01*
X0142499Y0031297D01*
X0142485Y0031209D01*
X0142468Y0031123D01*
X0142446Y0031037D01*
X0142421Y0030953D01*
X0142391Y0030869D01*
X0142359Y0030787D01*
X0142322Y0030707D01*
X0142282Y0030628D01*
X0142238Y0030551D01*
X0142191Y0030476D01*
X0142141Y0030404D01*
X0142087Y0030333D01*
X0142031Y0030266D01*
X0141971Y0030200D01*
X0141909Y0030138D01*
X0141843Y0030078D01*
X0141776Y0030022D01*
X0141705Y0029968D01*
X0141633Y0029918D01*
X0141558Y0029871D01*
X0141481Y0029827D01*
X0141402Y0029787D01*
X0141322Y0029750D01*
X0141240Y0029718D01*
X0141156Y0029688D01*
X0141072Y0029663D01*
X0140986Y0029641D01*
X0140900Y0029624D01*
X0140812Y0029610D01*
X0140724Y0029600D01*
X0140636Y0029594D01*
X0140548Y0029592D01*
X0140460Y0029594D01*
X0140372Y0029600D01*
X0140284Y0029610D01*
X0140196Y0029624D01*
X0140110Y0029641D01*
X0140024Y0029663D01*
X0139940Y0029688D01*
X0139856Y0029718D01*
X0139774Y0029750D01*
X0139694Y0029787D01*
X0139615Y0029827D01*
X0139538Y0029871D01*
X0139463Y0029918D01*
X0139391Y0029968D01*
X0139320Y0030022D01*
X0139253Y0030078D01*
X0139187Y0030138D01*
X0139125Y0030200D01*
X0139065Y0030266D01*
X0139009Y0030333D01*
X0138955Y0030404D01*
X0138905Y0030476D01*
X0138858Y0030551D01*
X0138814Y0030628D01*
X0138774Y0030707D01*
X0138737Y0030787D01*
X0138705Y0030869D01*
X0138675Y0030953D01*
X0138650Y0031037D01*
X0138628Y0031123D01*
X0138611Y0031209D01*
X0138597Y0031297D01*
X0138587Y0031385D01*
X0138581Y0031473D01*
X0138579Y0031561D01*
X0116925Y0031561D02*
X0116927Y0031649D01*
X0116933Y0031737D01*
X0116943Y0031825D01*
X0116957Y0031913D01*
X0116974Y0031999D01*
X0116996Y0032085D01*
X0117021Y0032169D01*
X0117051Y0032253D01*
X0117083Y0032335D01*
X0117120Y0032415D01*
X0117160Y0032494D01*
X0117204Y0032571D01*
X0117251Y0032646D01*
X0117301Y0032718D01*
X0117355Y0032789D01*
X0117411Y0032856D01*
X0117471Y0032922D01*
X0117533Y0032984D01*
X0117599Y0033044D01*
X0117666Y0033100D01*
X0117737Y0033154D01*
X0117809Y0033204D01*
X0117884Y0033251D01*
X0117961Y0033295D01*
X0118040Y0033335D01*
X0118120Y0033372D01*
X0118202Y0033404D01*
X0118286Y0033434D01*
X0118370Y0033459D01*
X0118456Y0033481D01*
X0118542Y0033498D01*
X0118630Y0033512D01*
X0118718Y0033522D01*
X0118806Y0033528D01*
X0118894Y0033530D01*
X0118982Y0033528D01*
X0119070Y0033522D01*
X0119158Y0033512D01*
X0119246Y0033498D01*
X0119332Y0033481D01*
X0119418Y0033459D01*
X0119502Y0033434D01*
X0119586Y0033404D01*
X0119668Y0033372D01*
X0119748Y0033335D01*
X0119827Y0033295D01*
X0119904Y0033251D01*
X0119979Y0033204D01*
X0120051Y0033154D01*
X0120122Y0033100D01*
X0120189Y0033044D01*
X0120255Y0032984D01*
X0120317Y0032922D01*
X0120377Y0032856D01*
X0120433Y0032789D01*
X0120487Y0032718D01*
X0120537Y0032646D01*
X0120584Y0032571D01*
X0120628Y0032494D01*
X0120668Y0032415D01*
X0120705Y0032335D01*
X0120737Y0032253D01*
X0120767Y0032169D01*
X0120792Y0032085D01*
X0120814Y0031999D01*
X0120831Y0031913D01*
X0120845Y0031825D01*
X0120855Y0031737D01*
X0120861Y0031649D01*
X0120863Y0031561D01*
X0120861Y0031473D01*
X0120855Y0031385D01*
X0120845Y0031297D01*
X0120831Y0031209D01*
X0120814Y0031123D01*
X0120792Y0031037D01*
X0120767Y0030953D01*
X0120737Y0030869D01*
X0120705Y0030787D01*
X0120668Y0030707D01*
X0120628Y0030628D01*
X0120584Y0030551D01*
X0120537Y0030476D01*
X0120487Y0030404D01*
X0120433Y0030333D01*
X0120377Y0030266D01*
X0120317Y0030200D01*
X0120255Y0030138D01*
X0120189Y0030078D01*
X0120122Y0030022D01*
X0120051Y0029968D01*
X0119979Y0029918D01*
X0119904Y0029871D01*
X0119827Y0029827D01*
X0119748Y0029787D01*
X0119668Y0029750D01*
X0119586Y0029718D01*
X0119502Y0029688D01*
X0119418Y0029663D01*
X0119332Y0029641D01*
X0119246Y0029624D01*
X0119158Y0029610D01*
X0119070Y0029600D01*
X0118982Y0029594D01*
X0118894Y0029592D01*
X0118806Y0029594D01*
X0118718Y0029600D01*
X0118630Y0029610D01*
X0118542Y0029624D01*
X0118456Y0029641D01*
X0118370Y0029663D01*
X0118286Y0029688D01*
X0118202Y0029718D01*
X0118120Y0029750D01*
X0118040Y0029787D01*
X0117961Y0029827D01*
X0117884Y0029871D01*
X0117809Y0029918D01*
X0117737Y0029968D01*
X0117666Y0030022D01*
X0117599Y0030078D01*
X0117533Y0030138D01*
X0117471Y0030200D01*
X0117411Y0030266D01*
X0117355Y0030333D01*
X0117301Y0030404D01*
X0117251Y0030476D01*
X0117204Y0030551D01*
X0117160Y0030628D01*
X0117120Y0030707D01*
X0117083Y0030787D01*
X0117051Y0030869D01*
X0117021Y0030953D01*
X0116996Y0031037D01*
X0116974Y0031123D01*
X0116957Y0031209D01*
X0116943Y0031297D01*
X0116933Y0031385D01*
X0116927Y0031473D01*
X0116925Y0031561D01*
X0048028Y0031561D02*
X0048030Y0031649D01*
X0048036Y0031737D01*
X0048046Y0031825D01*
X0048060Y0031913D01*
X0048077Y0031999D01*
X0048099Y0032085D01*
X0048124Y0032169D01*
X0048154Y0032253D01*
X0048186Y0032335D01*
X0048223Y0032415D01*
X0048263Y0032494D01*
X0048307Y0032571D01*
X0048354Y0032646D01*
X0048404Y0032718D01*
X0048458Y0032789D01*
X0048514Y0032856D01*
X0048574Y0032922D01*
X0048636Y0032984D01*
X0048702Y0033044D01*
X0048769Y0033100D01*
X0048840Y0033154D01*
X0048912Y0033204D01*
X0048987Y0033251D01*
X0049064Y0033295D01*
X0049143Y0033335D01*
X0049223Y0033372D01*
X0049305Y0033404D01*
X0049389Y0033434D01*
X0049473Y0033459D01*
X0049559Y0033481D01*
X0049645Y0033498D01*
X0049733Y0033512D01*
X0049821Y0033522D01*
X0049909Y0033528D01*
X0049997Y0033530D01*
X0050085Y0033528D01*
X0050173Y0033522D01*
X0050261Y0033512D01*
X0050349Y0033498D01*
X0050435Y0033481D01*
X0050521Y0033459D01*
X0050605Y0033434D01*
X0050689Y0033404D01*
X0050771Y0033372D01*
X0050851Y0033335D01*
X0050930Y0033295D01*
X0051007Y0033251D01*
X0051082Y0033204D01*
X0051154Y0033154D01*
X0051225Y0033100D01*
X0051292Y0033044D01*
X0051358Y0032984D01*
X0051420Y0032922D01*
X0051480Y0032856D01*
X0051536Y0032789D01*
X0051590Y0032718D01*
X0051640Y0032646D01*
X0051687Y0032571D01*
X0051731Y0032494D01*
X0051771Y0032415D01*
X0051808Y0032335D01*
X0051840Y0032253D01*
X0051870Y0032169D01*
X0051895Y0032085D01*
X0051917Y0031999D01*
X0051934Y0031913D01*
X0051948Y0031825D01*
X0051958Y0031737D01*
X0051964Y0031649D01*
X0051966Y0031561D01*
X0051964Y0031473D01*
X0051958Y0031385D01*
X0051948Y0031297D01*
X0051934Y0031209D01*
X0051917Y0031123D01*
X0051895Y0031037D01*
X0051870Y0030953D01*
X0051840Y0030869D01*
X0051808Y0030787D01*
X0051771Y0030707D01*
X0051731Y0030628D01*
X0051687Y0030551D01*
X0051640Y0030476D01*
X0051590Y0030404D01*
X0051536Y0030333D01*
X0051480Y0030266D01*
X0051420Y0030200D01*
X0051358Y0030138D01*
X0051292Y0030078D01*
X0051225Y0030022D01*
X0051154Y0029968D01*
X0051082Y0029918D01*
X0051007Y0029871D01*
X0050930Y0029827D01*
X0050851Y0029787D01*
X0050771Y0029750D01*
X0050689Y0029718D01*
X0050605Y0029688D01*
X0050521Y0029663D01*
X0050435Y0029641D01*
X0050349Y0029624D01*
X0050261Y0029610D01*
X0050173Y0029600D01*
X0050085Y0029594D01*
X0049997Y0029592D01*
X0049909Y0029594D01*
X0049821Y0029600D01*
X0049733Y0029610D01*
X0049645Y0029624D01*
X0049559Y0029641D01*
X0049473Y0029663D01*
X0049389Y0029688D01*
X0049305Y0029718D01*
X0049223Y0029750D01*
X0049143Y0029787D01*
X0049064Y0029827D01*
X0048987Y0029871D01*
X0048912Y0029918D01*
X0048840Y0029968D01*
X0048769Y0030022D01*
X0048702Y0030078D01*
X0048636Y0030138D01*
X0048574Y0030200D01*
X0048514Y0030266D01*
X0048458Y0030333D01*
X0048404Y0030404D01*
X0048354Y0030476D01*
X0048307Y0030551D01*
X0048263Y0030628D01*
X0048223Y0030707D01*
X0048186Y0030787D01*
X0048154Y0030869D01*
X0048124Y0030953D01*
X0048099Y0031037D01*
X0048077Y0031123D01*
X0048060Y0031209D01*
X0048046Y0031297D01*
X0048036Y0031385D01*
X0048030Y0031473D01*
X0048028Y0031561D01*
X0046059Y0047309D02*
X0046061Y0047397D01*
X0046067Y0047485D01*
X0046077Y0047573D01*
X0046091Y0047661D01*
X0046108Y0047747D01*
X0046130Y0047833D01*
X0046155Y0047917D01*
X0046185Y0048001D01*
X0046217Y0048083D01*
X0046254Y0048163D01*
X0046294Y0048242D01*
X0046338Y0048319D01*
X0046385Y0048394D01*
X0046435Y0048466D01*
X0046489Y0048537D01*
X0046545Y0048604D01*
X0046605Y0048670D01*
X0046667Y0048732D01*
X0046733Y0048792D01*
X0046800Y0048848D01*
X0046871Y0048902D01*
X0046943Y0048952D01*
X0047018Y0048999D01*
X0047095Y0049043D01*
X0047174Y0049083D01*
X0047254Y0049120D01*
X0047336Y0049152D01*
X0047420Y0049182D01*
X0047504Y0049207D01*
X0047590Y0049229D01*
X0047676Y0049246D01*
X0047764Y0049260D01*
X0047852Y0049270D01*
X0047940Y0049276D01*
X0048028Y0049278D01*
X0048116Y0049276D01*
X0048204Y0049270D01*
X0048292Y0049260D01*
X0048380Y0049246D01*
X0048466Y0049229D01*
X0048552Y0049207D01*
X0048636Y0049182D01*
X0048720Y0049152D01*
X0048802Y0049120D01*
X0048882Y0049083D01*
X0048961Y0049043D01*
X0049038Y0048999D01*
X0049113Y0048952D01*
X0049185Y0048902D01*
X0049256Y0048848D01*
X0049323Y0048792D01*
X0049389Y0048732D01*
X0049451Y0048670D01*
X0049511Y0048604D01*
X0049567Y0048537D01*
X0049621Y0048466D01*
X0049671Y0048394D01*
X0049718Y0048319D01*
X0049762Y0048242D01*
X0049802Y0048163D01*
X0049839Y0048083D01*
X0049871Y0048001D01*
X0049901Y0047917D01*
X0049926Y0047833D01*
X0049948Y0047747D01*
X0049965Y0047661D01*
X0049979Y0047573D01*
X0049989Y0047485D01*
X0049995Y0047397D01*
X0049997Y0047309D01*
X0049995Y0047221D01*
X0049989Y0047133D01*
X0049979Y0047045D01*
X0049965Y0046957D01*
X0049948Y0046871D01*
X0049926Y0046785D01*
X0049901Y0046701D01*
X0049871Y0046617D01*
X0049839Y0046535D01*
X0049802Y0046455D01*
X0049762Y0046376D01*
X0049718Y0046299D01*
X0049671Y0046224D01*
X0049621Y0046152D01*
X0049567Y0046081D01*
X0049511Y0046014D01*
X0049451Y0045948D01*
X0049389Y0045886D01*
X0049323Y0045826D01*
X0049256Y0045770D01*
X0049185Y0045716D01*
X0049113Y0045666D01*
X0049038Y0045619D01*
X0048961Y0045575D01*
X0048882Y0045535D01*
X0048802Y0045498D01*
X0048720Y0045466D01*
X0048636Y0045436D01*
X0048552Y0045411D01*
X0048466Y0045389D01*
X0048380Y0045372D01*
X0048292Y0045358D01*
X0048204Y0045348D01*
X0048116Y0045342D01*
X0048028Y0045340D01*
X0047940Y0045342D01*
X0047852Y0045348D01*
X0047764Y0045358D01*
X0047676Y0045372D01*
X0047590Y0045389D01*
X0047504Y0045411D01*
X0047420Y0045436D01*
X0047336Y0045466D01*
X0047254Y0045498D01*
X0047174Y0045535D01*
X0047095Y0045575D01*
X0047018Y0045619D01*
X0046943Y0045666D01*
X0046871Y0045716D01*
X0046800Y0045770D01*
X0046733Y0045826D01*
X0046667Y0045886D01*
X0046605Y0045948D01*
X0046545Y0046014D01*
X0046489Y0046081D01*
X0046435Y0046152D01*
X0046385Y0046224D01*
X0046338Y0046299D01*
X0046294Y0046376D01*
X0046254Y0046455D01*
X0046217Y0046535D01*
X0046185Y0046617D01*
X0046155Y0046701D01*
X0046130Y0046785D01*
X0046108Y0046871D01*
X0046091Y0046957D01*
X0046077Y0047045D01*
X0046067Y0047133D01*
X0046061Y0047221D01*
X0046059Y0047309D01*
X0046059Y0070931D02*
X0046061Y0071019D01*
X0046067Y0071107D01*
X0046077Y0071195D01*
X0046091Y0071283D01*
X0046108Y0071369D01*
X0046130Y0071455D01*
X0046155Y0071539D01*
X0046185Y0071623D01*
X0046217Y0071705D01*
X0046254Y0071785D01*
X0046294Y0071864D01*
X0046338Y0071941D01*
X0046385Y0072016D01*
X0046435Y0072088D01*
X0046489Y0072159D01*
X0046545Y0072226D01*
X0046605Y0072292D01*
X0046667Y0072354D01*
X0046733Y0072414D01*
X0046800Y0072470D01*
X0046871Y0072524D01*
X0046943Y0072574D01*
X0047018Y0072621D01*
X0047095Y0072665D01*
X0047174Y0072705D01*
X0047254Y0072742D01*
X0047336Y0072774D01*
X0047420Y0072804D01*
X0047504Y0072829D01*
X0047590Y0072851D01*
X0047676Y0072868D01*
X0047764Y0072882D01*
X0047852Y0072892D01*
X0047940Y0072898D01*
X0048028Y0072900D01*
X0048116Y0072898D01*
X0048204Y0072892D01*
X0048292Y0072882D01*
X0048380Y0072868D01*
X0048466Y0072851D01*
X0048552Y0072829D01*
X0048636Y0072804D01*
X0048720Y0072774D01*
X0048802Y0072742D01*
X0048882Y0072705D01*
X0048961Y0072665D01*
X0049038Y0072621D01*
X0049113Y0072574D01*
X0049185Y0072524D01*
X0049256Y0072470D01*
X0049323Y0072414D01*
X0049389Y0072354D01*
X0049451Y0072292D01*
X0049511Y0072226D01*
X0049567Y0072159D01*
X0049621Y0072088D01*
X0049671Y0072016D01*
X0049718Y0071941D01*
X0049762Y0071864D01*
X0049802Y0071785D01*
X0049839Y0071705D01*
X0049871Y0071623D01*
X0049901Y0071539D01*
X0049926Y0071455D01*
X0049948Y0071369D01*
X0049965Y0071283D01*
X0049979Y0071195D01*
X0049989Y0071107D01*
X0049995Y0071019D01*
X0049997Y0070931D01*
X0049995Y0070843D01*
X0049989Y0070755D01*
X0049979Y0070667D01*
X0049965Y0070579D01*
X0049948Y0070493D01*
X0049926Y0070407D01*
X0049901Y0070323D01*
X0049871Y0070239D01*
X0049839Y0070157D01*
X0049802Y0070077D01*
X0049762Y0069998D01*
X0049718Y0069921D01*
X0049671Y0069846D01*
X0049621Y0069774D01*
X0049567Y0069703D01*
X0049511Y0069636D01*
X0049451Y0069570D01*
X0049389Y0069508D01*
X0049323Y0069448D01*
X0049256Y0069392D01*
X0049185Y0069338D01*
X0049113Y0069288D01*
X0049038Y0069241D01*
X0048961Y0069197D01*
X0048882Y0069157D01*
X0048802Y0069120D01*
X0048720Y0069088D01*
X0048636Y0069058D01*
X0048552Y0069033D01*
X0048466Y0069011D01*
X0048380Y0068994D01*
X0048292Y0068980D01*
X0048204Y0068970D01*
X0048116Y0068964D01*
X0048028Y0068962D01*
X0047940Y0068964D01*
X0047852Y0068970D01*
X0047764Y0068980D01*
X0047676Y0068994D01*
X0047590Y0069011D01*
X0047504Y0069033D01*
X0047420Y0069058D01*
X0047336Y0069088D01*
X0047254Y0069120D01*
X0047174Y0069157D01*
X0047095Y0069197D01*
X0047018Y0069241D01*
X0046943Y0069288D01*
X0046871Y0069338D01*
X0046800Y0069392D01*
X0046733Y0069448D01*
X0046667Y0069508D01*
X0046605Y0069570D01*
X0046545Y0069636D01*
X0046489Y0069703D01*
X0046435Y0069774D01*
X0046385Y0069846D01*
X0046338Y0069921D01*
X0046294Y0069998D01*
X0046254Y0070077D01*
X0046217Y0070157D01*
X0046185Y0070239D01*
X0046155Y0070323D01*
X0046130Y0070407D01*
X0046108Y0070493D01*
X0046091Y0070579D01*
X0046077Y0070667D01*
X0046067Y0070755D01*
X0046061Y0070843D01*
X0046059Y0070931D01*
X0048028Y0086679D02*
X0048030Y0086767D01*
X0048036Y0086855D01*
X0048046Y0086943D01*
X0048060Y0087031D01*
X0048077Y0087117D01*
X0048099Y0087203D01*
X0048124Y0087287D01*
X0048154Y0087371D01*
X0048186Y0087453D01*
X0048223Y0087533D01*
X0048263Y0087612D01*
X0048307Y0087689D01*
X0048354Y0087764D01*
X0048404Y0087836D01*
X0048458Y0087907D01*
X0048514Y0087974D01*
X0048574Y0088040D01*
X0048636Y0088102D01*
X0048702Y0088162D01*
X0048769Y0088218D01*
X0048840Y0088272D01*
X0048912Y0088322D01*
X0048987Y0088369D01*
X0049064Y0088413D01*
X0049143Y0088453D01*
X0049223Y0088490D01*
X0049305Y0088522D01*
X0049389Y0088552D01*
X0049473Y0088577D01*
X0049559Y0088599D01*
X0049645Y0088616D01*
X0049733Y0088630D01*
X0049821Y0088640D01*
X0049909Y0088646D01*
X0049997Y0088648D01*
X0050085Y0088646D01*
X0050173Y0088640D01*
X0050261Y0088630D01*
X0050349Y0088616D01*
X0050435Y0088599D01*
X0050521Y0088577D01*
X0050605Y0088552D01*
X0050689Y0088522D01*
X0050771Y0088490D01*
X0050851Y0088453D01*
X0050930Y0088413D01*
X0051007Y0088369D01*
X0051082Y0088322D01*
X0051154Y0088272D01*
X0051225Y0088218D01*
X0051292Y0088162D01*
X0051358Y0088102D01*
X0051420Y0088040D01*
X0051480Y0087974D01*
X0051536Y0087907D01*
X0051590Y0087836D01*
X0051640Y0087764D01*
X0051687Y0087689D01*
X0051731Y0087612D01*
X0051771Y0087533D01*
X0051808Y0087453D01*
X0051840Y0087371D01*
X0051870Y0087287D01*
X0051895Y0087203D01*
X0051917Y0087117D01*
X0051934Y0087031D01*
X0051948Y0086943D01*
X0051958Y0086855D01*
X0051964Y0086767D01*
X0051966Y0086679D01*
X0051964Y0086591D01*
X0051958Y0086503D01*
X0051948Y0086415D01*
X0051934Y0086327D01*
X0051917Y0086241D01*
X0051895Y0086155D01*
X0051870Y0086071D01*
X0051840Y0085987D01*
X0051808Y0085905D01*
X0051771Y0085825D01*
X0051731Y0085746D01*
X0051687Y0085669D01*
X0051640Y0085594D01*
X0051590Y0085522D01*
X0051536Y0085451D01*
X0051480Y0085384D01*
X0051420Y0085318D01*
X0051358Y0085256D01*
X0051292Y0085196D01*
X0051225Y0085140D01*
X0051154Y0085086D01*
X0051082Y0085036D01*
X0051007Y0084989D01*
X0050930Y0084945D01*
X0050851Y0084905D01*
X0050771Y0084868D01*
X0050689Y0084836D01*
X0050605Y0084806D01*
X0050521Y0084781D01*
X0050435Y0084759D01*
X0050349Y0084742D01*
X0050261Y0084728D01*
X0050173Y0084718D01*
X0050085Y0084712D01*
X0049997Y0084710D01*
X0049909Y0084712D01*
X0049821Y0084718D01*
X0049733Y0084728D01*
X0049645Y0084742D01*
X0049559Y0084759D01*
X0049473Y0084781D01*
X0049389Y0084806D01*
X0049305Y0084836D01*
X0049223Y0084868D01*
X0049143Y0084905D01*
X0049064Y0084945D01*
X0048987Y0084989D01*
X0048912Y0085036D01*
X0048840Y0085086D01*
X0048769Y0085140D01*
X0048702Y0085196D01*
X0048636Y0085256D01*
X0048574Y0085318D01*
X0048514Y0085384D01*
X0048458Y0085451D01*
X0048404Y0085522D01*
X0048354Y0085594D01*
X0048307Y0085669D01*
X0048263Y0085746D01*
X0048223Y0085825D01*
X0048186Y0085905D01*
X0048154Y0085987D01*
X0048124Y0086071D01*
X0048099Y0086155D01*
X0048077Y0086241D01*
X0048060Y0086327D01*
X0048046Y0086415D01*
X0048036Y0086503D01*
X0048030Y0086591D01*
X0048028Y0086679D01*
D12*
X0055902Y0065026D02*
X0071650Y0080774D01*
X0071650Y0088648D01*
X0073619Y0090616D01*
X0290154Y0090616D01*
X0292123Y0088648D01*
X0292123Y0086679D01*
X0290154Y0084711D01*
X0284249Y0084711D01*
X0282280Y0082742D01*
X0282280Y0080774D01*
X0284249Y0078805D01*
X0287989Y0078805D01*
X0288186Y0078608D01*
X0290154Y0080577D01*
X0288186Y0080774D02*
X0288186Y0078608D01*
X0293146Y0078608D01*
X0307871Y0063884D01*
X0307871Y0054199D02*
X0285430Y0054199D01*
X0288186Y0055380D01*
X0280312Y0063254D01*
X0280312Y0086679D01*
X0279327Y0087663D01*
X0278343Y0088648D01*
X0075587Y0088648D01*
X0073619Y0086679D01*
X0073619Y0078805D01*
X0061808Y0066994D01*
X0061808Y0059120D01*
X0056886Y0054199D01*
X0055902Y0054199D01*
X0055902Y0063884D02*
X0055902Y0065026D01*
X0091335Y0065026D02*
X0091335Y0076089D01*
X0096020Y0080774D01*
X0106020Y0080774D02*
X0107083Y0068372D01*
X0097241Y0061286D02*
X0095075Y0061286D01*
X0091335Y0065026D01*
X0097241Y0061286D02*
X0107083Y0053805D01*
X0099209Y0053215D01*
X0105115Y0036955D02*
X0109524Y0036955D01*
X0133249Y0037057D01*
X0141942Y0045750D01*
X0143910Y0045750D01*
X0140548Y0049278D02*
X0150026Y0049278D01*
X0151178Y0048126D01*
X0154327Y0048126D02*
X0154327Y0043372D01*
X0148012Y0037057D01*
X0143910Y0037057D01*
X0137020Y0045750D02*
X0133249Y0045750D01*
X0137020Y0045750D02*
X0140548Y0049278D01*
X0105115Y0036955D02*
X0099209Y0031049D01*
X0101178Y0027624D02*
X0103146Y0025656D01*
X0101178Y0027624D02*
X0081493Y0027624D01*
X0079524Y0025656D01*
X0152359Y0025656D02*
X0154327Y0027624D01*
X0174012Y0027624D01*
X0175981Y0025656D01*
X0172044Y0031049D02*
X0181178Y0031049D01*
X0181886Y0031758D01*
X0187792Y0025656D02*
X0189760Y0027624D01*
X0209446Y0027624D01*
X0211414Y0025656D01*
X0207477Y0031049D02*
X0216611Y0031049D01*
X0217320Y0031758D01*
X0223225Y0025656D02*
X0225194Y0027624D01*
X0244879Y0027624D01*
X0246847Y0025656D01*
X0242910Y0031049D02*
X0252044Y0031049D01*
X0252753Y0031758D01*
X0258658Y0025656D02*
X0260627Y0027624D01*
X0280312Y0027624D01*
X0282280Y0025656D01*
X0278343Y0031049D02*
X0287477Y0031049D01*
X0288186Y0031758D01*
X0288186Y0039238D02*
X0284249Y0043175D01*
X0284249Y0043372D01*
X0279327Y0048293D01*
X0280312Y0049278D01*
X0279327Y0048293D02*
X0274406Y0053215D01*
X0274406Y0055774D01*
X0274406Y0062467D02*
X0271847Y0065026D01*
X0270469Y0065026D01*
X0274406Y0062467D02*
X0274406Y0071522D01*
X0272186Y0075994D02*
X0274406Y0078215D01*
X0288186Y0071128D02*
X0288186Y0066994D01*
X0288186Y0062860D01*
X0263556Y0055774D02*
X0261335Y0057994D01*
X0244879Y0049278D02*
X0244879Y0047112D01*
X0248619Y0043372D01*
X0252753Y0039238D01*
X0252753Y0039435D01*
X0256690Y0043372D01*
X0284249Y0043372D01*
X0248619Y0043372D02*
X0221257Y0043372D01*
X0217320Y0039435D01*
X0217320Y0039238D01*
X0213186Y0043372D01*
X0213186Y0055577D01*
X0213383Y0055774D01*
X0213383Y0053215D01*
X0213383Y0062467D02*
X0205509Y0062467D01*
X0205509Y0071522D01*
X0213383Y0062467D02*
X0228540Y0062467D01*
X0230115Y0064041D01*
X0233068Y0066994D01*
X0213186Y0043372D02*
X0185823Y0043372D01*
X0184839Y0042388D01*
X0179918Y0047309D01*
X0177949Y0049278D01*
X0184839Y0042388D02*
X0181886Y0039435D01*
X0181886Y0039238D01*
X0145301Y0072900D02*
X0132674Y0072900D01*
X0126020Y0079553D01*
X0126020Y0080774D01*
X0136020Y0080774D02*
X0140577Y0080774D01*
X0145301Y0076049D01*
D13*
X0261335Y0075994D03*
X0261335Y0057994D03*
D14*
X0233068Y0066994D03*
D15*
X0213383Y0062467D03*
X0205509Y0062467D03*
X0205509Y0055774D03*
X0213383Y0055774D03*
X0205509Y0071522D03*
X0205509Y0078215D03*
X0274406Y0078215D03*
X0274406Y0071522D03*
X0274406Y0062467D03*
X0274406Y0055774D03*
D16*
X0278343Y0031049D03*
X0262595Y0031049D03*
X0242910Y0031049D03*
X0227162Y0031049D03*
X0207477Y0031049D03*
X0191729Y0031049D03*
X0172044Y0031049D03*
X0156296Y0031049D03*
X0099209Y0031049D03*
X0083461Y0031049D03*
D17*
X0091335Y0033530D03*
X0164170Y0033530D03*
X0199603Y0033530D03*
X0235036Y0033530D03*
X0270469Y0033530D03*
D18*
X0270469Y0028608D03*
X0235036Y0028608D03*
X0199603Y0028608D03*
X0164170Y0028608D03*
X0091335Y0028608D03*
D19*
X0097241Y0061286D03*
X0097241Y0068766D03*
X0181886Y0039238D03*
X0181886Y0031758D03*
X0217320Y0031758D03*
X0217320Y0039238D03*
X0252753Y0039238D03*
X0252753Y0031758D03*
X0288186Y0031758D03*
X0288186Y0039238D03*
X0288186Y0055380D03*
X0288186Y0062860D03*
X0288186Y0071128D03*
X0288186Y0078608D03*
D20*
X0173225Y0081926D03*
X0170075Y0081926D03*
X0166926Y0081926D03*
X0163776Y0081926D03*
X0160627Y0081926D03*
X0157477Y0081926D03*
X0154327Y0081926D03*
X0151178Y0081926D03*
X0151178Y0048126D03*
X0154327Y0048126D03*
X0157477Y0048126D03*
X0160627Y0048126D03*
X0163776Y0048126D03*
X0166926Y0048126D03*
X0170075Y0048126D03*
X0173225Y0048126D03*
D21*
X0179101Y0054002D03*
X0179101Y0057152D03*
X0179101Y0060301D03*
X0179101Y0063451D03*
X0179101Y0066600D03*
X0179101Y0069750D03*
X0179101Y0072900D03*
X0179101Y0076049D03*
X0145301Y0076049D03*
X0145301Y0072900D03*
X0145301Y0069750D03*
X0145301Y0066600D03*
X0145301Y0063451D03*
X0145301Y0060301D03*
X0145301Y0057152D03*
X0145301Y0054002D03*
D22*
X0107083Y0053805D03*
X0107083Y0068372D03*
D23*
X0055902Y0063884D03*
X0055902Y0054199D03*
X0055902Y0044199D03*
X0055902Y0073884D03*
X0307871Y0073884D03*
X0307871Y0063884D03*
X0307871Y0054199D03*
X0307871Y0044199D03*
D24*
X0144897Y0035970D02*
X0142923Y0035970D01*
X0142923Y0038144D01*
X0144897Y0038144D01*
X0144897Y0035970D01*
X0134236Y0035970D02*
X0132262Y0035970D01*
X0132262Y0038144D01*
X0134236Y0038144D01*
X0134236Y0035970D01*
X0134236Y0044663D02*
X0132262Y0044663D01*
X0132262Y0046837D01*
X0134236Y0046837D01*
X0134236Y0044663D01*
D25*
X0142876Y0044716D02*
X0144944Y0044716D01*
X0142876Y0044716D02*
X0142876Y0046784D01*
X0144944Y0046784D01*
X0144944Y0044716D01*
D26*
X0073619Y0053608D03*
X0073619Y0064632D03*
D27*
X0086020Y0077774D02*
X0086020Y0083774D01*
X0096020Y0083774D02*
X0096020Y0077774D01*
X0106020Y0077774D02*
X0106020Y0083774D01*
X0116020Y0083774D02*
X0116020Y0077774D01*
X0126020Y0077774D02*
X0126020Y0083774D01*
X0136020Y0083774D02*
X0136020Y0077774D01*
D28*
X0162201Y0072900D03*
X0189760Y0068963D03*
X0160233Y0057152D03*
X0177949Y0049278D03*
X0213383Y0053215D03*
X0227162Y0065026D03*
X0244879Y0070931D03*
X0270469Y0065026D03*
X0280312Y0049278D03*
X0244879Y0049278D03*
X0274406Y0082742D03*
X0099209Y0053215D03*
X0075587Y0065026D03*
D29*
X0097241Y0068766D02*
X0097241Y0068963D01*
X0107083Y0068963D01*
X0107083Y0068372D01*
X0107083Y0067978D01*
X0110036Y0067978D01*
X0128737Y0049278D01*
X0157477Y0048126D02*
X0158264Y0047338D01*
X0158264Y0045341D01*
X0160233Y0043372D01*
X0162201Y0043372D01*
X0163776Y0044947D01*
X0163776Y0048126D01*
X0160627Y0048126D02*
X0160233Y0048519D01*
X0160233Y0055183D01*
X0160233Y0057152D01*
X0160233Y0055183D02*
X0166138Y0055183D01*
X0166926Y0054396D01*
X0166926Y0048126D01*
X0179101Y0054002D02*
X0179918Y0053215D01*
X0182871Y0050262D01*
X0194682Y0059120D02*
X0187792Y0066010D01*
X0185823Y0066010D01*
X0185823Y0068963D01*
X0181886Y0072900D01*
X0179101Y0072900D01*
X0175981Y0069947D02*
X0174997Y0070931D01*
X0174997Y0077821D01*
X0179918Y0082742D01*
X0219288Y0082742D01*
X0220272Y0081758D01*
X0205509Y0078805D02*
X0205509Y0078215D01*
X0205509Y0078805D02*
X0199603Y0078805D01*
X0192713Y0072900D02*
X0189760Y0075852D01*
X0179918Y0075852D01*
X0179101Y0076049D01*
X0171060Y0075852D02*
X0170075Y0075852D01*
X0170075Y0081926D01*
X0173225Y0081926D02*
X0174012Y0082742D01*
X0176965Y0085695D01*
X0242910Y0085695D01*
X0251768Y0076837D01*
X0251768Y0045341D01*
X0243894Y0053215D02*
X0238973Y0048293D01*
X0243894Y0053215D02*
X0245863Y0053215D01*
X0248816Y0056167D01*
X0248816Y0075852D01*
X0247831Y0075852D01*
X0244879Y0070931D02*
X0237005Y0070931D01*
X0233068Y0066994D01*
X0230115Y0064041D02*
X0229131Y0065026D01*
X0227162Y0065026D01*
X0205509Y0071522D02*
X0202949Y0068963D01*
X0189760Y0068963D01*
X0181886Y0066994D02*
X0201572Y0047309D01*
X0209446Y0047309D01*
X0188776Y0037467D02*
X0183855Y0032545D01*
X0181886Y0032545D01*
X0181886Y0031758D01*
X0209446Y0036482D02*
X0214367Y0031561D01*
X0217320Y0031758D01*
X0252753Y0031758D02*
X0252753Y0032545D01*
X0254721Y0032545D01*
X0259642Y0037467D01*
X0280312Y0036482D02*
X0285233Y0031561D01*
X0288186Y0031758D01*
X0253737Y0081758D02*
X0259642Y0087663D01*
X0279327Y0087663D01*
X0181886Y0066994D02*
X0179918Y0066994D01*
X0179101Y0066600D01*
X0179101Y0063451D02*
X0178934Y0063057D01*
X0168107Y0063057D01*
X0175981Y0069947D02*
X0178934Y0069947D01*
X0179101Y0069750D01*
X0164170Y0074868D02*
X0162201Y0072900D01*
X0164170Y0074868D02*
X0164170Y0081532D01*
X0163776Y0081926D01*
X0160627Y0081926D02*
X0160233Y0081758D01*
X0160233Y0075852D01*
X0158264Y0075852D01*
X0151178Y0081926D02*
X0150390Y0081758D01*
X0146453Y0081758D01*
D30*
X0097241Y0061286D02*
X0095075Y0059120D01*
X0081493Y0059120D01*
X0075981Y0053608D01*
X0073619Y0053608D01*
X0073619Y0064632D02*
X0075194Y0064632D01*
X0075587Y0065026D01*
X0261335Y0075994D02*
X0265690Y0075994D01*
X0268501Y0078805D01*
X0273816Y0078805D01*
X0274406Y0078215D01*
X0274406Y0082742D01*
X0274406Y0055774D02*
X0263556Y0055774D01*
D31*
X0266532Y0056167D02*
X0261335Y0057994D01*
X0266532Y0056167D02*
X0266532Y0066010D01*
X0268501Y0067978D01*
X0268501Y0069947D01*
X0288186Y0066994D02*
X0294091Y0066994D01*
X0213383Y0056167D02*
X0213383Y0055774D01*
X0213383Y0056167D02*
X0205509Y0056167D01*
X0205509Y0055774D01*
X0179918Y0047309D02*
X0175981Y0043372D01*
X0162201Y0043372D01*
X0160233Y0043372D02*
X0158264Y0041404D01*
X0157477Y0048126D02*
X0157280Y0048293D01*
X0157280Y0052230D01*
X0156296Y0053215D01*
X0154327Y0053215D01*
X0154327Y0081926D01*
X0107083Y0053805D02*
X0107083Y0053215D01*
X0118894Y0041404D01*
X0129721Y0041404D01*
X0105115Y0043372D02*
X0105115Y0036955D01*
X0105115Y0043372D02*
X0055902Y0043372D01*
X0055902Y0044199D01*
D32*
X0128737Y0049278D03*
X0129721Y0041404D03*
X0158264Y0041404D03*
X0182871Y0050262D03*
X0194682Y0059120D03*
X0209446Y0047309D03*
X0188776Y0037467D03*
X0209446Y0036482D03*
X0238973Y0048293D03*
X0251768Y0045341D03*
X0259642Y0037467D03*
X0280312Y0036482D03*
X0294091Y0066994D03*
X0268501Y0069947D03*
X0247831Y0075852D03*
X0253737Y0081758D03*
X0220272Y0081758D03*
X0199603Y0078805D03*
X0192713Y0072900D03*
X0171060Y0075852D03*
X0158264Y0075852D03*
X0146453Y0081758D03*
X0168107Y0063057D03*
M02*
