%
M48
M72
T01C0.01969
T02C0.02500
T03C0.03150
T04C0.03937
T05C0.04000
T06C0.08661
%
T01
X99209Y53215
X75587Y65026
X160233Y57152
X177949Y49278
X213383Y53215
X227162Y65026
X244879Y70931
X270469Y65026
X280312Y49278
X244879Y49278
X189760Y68963
X162201Y72900
X274406Y82742
T02
X253737Y81758
X247831Y75852
X268501Y69947
X294091Y66994
X251768Y45341
X238973Y48293
X259642Y37467
X280312Y36482
X209446Y36482
X188776Y37467
X209446Y47309
X194682Y59120
X182871Y50262
X158264Y41404
X129721Y41404
X128737Y49278
X168107Y63057
X192713Y72900
X199603Y78805
X220272Y81758
X171060Y75852
X158264Y75852
X146453Y81758
T03
X156296Y31049
X172044Y31049
X191729Y31049
X207477Y31049
X227162Y31049
X242910Y31049
X262595Y31049
X278343Y31049
X99209Y31049
X83461Y31049
T04
X49997Y31561
X48028Y47309
X48028Y70931
X49997Y86679
X118894Y31561
X140548Y31561
X313776Y31561
X315745Y47309
X315745Y70931
X313776Y86679
T05
X307871Y73884
X307871Y63884
X307871Y54199
X307871Y44199
X136020Y80774
X126020Y80774
X116020Y80774
X106020Y80774
X96020Y80774
X86020Y80774
X55902Y73884
X55902Y63884
X55902Y54199
X55902Y44199
T06
X91335Y33530
X164170Y33530
X199603Y33530
X235036Y33530
X270469Y33530
M30
