  0
SECTION
  2
HEADER
  9
$ACADVER
  1
AC1009
  9
$FILLMODE
 70
0
  9
$EXTMIN
 10
-0.2032
 20
-0.2032
 30
0.0000
  9
$EXTMAX
 10
80.2032
 20
180.2032
 30
0.0000
  0
ENDSEC
  0
SECTION
  2
TABLES
  0
TABLE
  2
LTYPE
 70
1
  0
LTYPE
  2
CONTINUOUS
 70
64
  3
Solid line
 72
65
 73
0
 40
0
  0
ENDTAB
  0
TABLE
  2
LAYER
 70
255
  0
LAYER
  2
1
 70
64
 62
22
  6
CONTINUOUS
  0
ENDTAB
  0
ENDSEC
  0
SECTION
  2
BLOCKS
  0
BLOCK
  8
0
  2
RECT
 70
64
 10
0.0000
 20
0.0000
 30
0.0000
  3
RECT
  0
SOLID
  8
0
 10
-0.5000
 20
-0.5000
 30
0.0000
 11
0.5000
 21
-0.5000
 31
0.0000
 12
-0.5000
 22
0.5000
 32
0.0000
 13
0.5000
 23
0.5000
 33
0.0000
  0
ENDBLK
  8
0
  0
BLOCK
  8
0
  2
PIE
 70
64
 10
0.0000
 20
0.0000
 30
0.0000
  3
PIE
  0
CIRCLE
  8
0
 10
0.0000
 20
0.0000
 30
0.0000
 40
0.5000
  0
ENDBLK
  8
0
  0
BLOCK
  8
0
  2
OCTAGONP
 70
64
 10
0.0000
 20
0.0000
 30
0.0000
  3
OCTAGONP
  0
POLYLINE
  8
0
 66
1
 10
0.0000
 20
0.0000
 30
0.0000
 40
0.0000
 41
0.0000
 70
1
  0
VERTEX
  8
0
 10
-0.5000
 20
-0.2071
 30
0.0000
  0
VERTEX
  8
0
 10
-0.5000
 20
0.2071
 30
0.0000
  0
VERTEX
  8
0
 10
-0.2071
 20
0.5000
 30
0.0000
  0
VERTEX
  8
0
 10
0.2071
 20
0.5000
 30
0.0000
  0
VERTEX
  8
0
 10
0.5000
 20
0.2071
 30
0.0000
  0
VERTEX
  8
0
 10
0.5000
 20
-0.2071
 30
0.0000
  0
VERTEX
  8
0
 10
0.2071
 20
-0.5000
 30
0.0000
  0
VERTEX
  8
0
 10
-0.2071
 20
-0.5000
 30
0.0000
  0
SEQEND
  8
0
  0
ENDBLK
  8
0
  0
BLOCK
  8
0
  2
SQUAREP
 70
64
 10
0.0000
 20
0.0000
 30
0.0000
  3
SQUAREP
  0
SOLID
  8
0
 10
-0.5000
 20
-0.5000
 30
0.0000
 11
0.5000
 21
-0.5000
 31
0.0000
 12
-0.5000
 22
0.5000
 32
0.0000
 13
0.5000
 23
0.5000
 33
0.0000
  0
ENDBLK
  8
0
  0
BLOCK
  8
0
  2
ROUNDP
 70
64
 10
0.0000
 20
0.0000
 30
0.0000
  3
ROUNDP
  0
CIRCLE
  8
0
 10
0.0000
 20
0.0000
 30
0.0000
 40
0.5000
  0
ENDBLK
  8
0
  0
BLOCK
  8
0
  2
ANNULUSP
 70
64
 10
0.0000
 20
0.0000
 30
0.0000
  3
ANNULUSP
  0
CIRCLE
  8
0
 10
0.0000
 20
0.0000
 30
0.0000
 40
0.5000
  0
ENDBLK
  8
0
  0
BLOCK
  8
0
  2
THERMALP
 70
64
 10
0.0000
 20
0.0000
 30
0.0000
  3
THERMALP
  0
LINE
  8
0
 10
-0.2379
 20
0.4500
 30
0.0000
 11
0.2379
 21
0.4500
 31
0.0000
  0
LINE
  8
0
 10
0.4500
 20
0.2379
 30
0.0000
 11
0.4500
 21
-0.2379
 31
0.0000
  0
LINE
  8
0
 10
0.2379
 20
-0.4500
 30
0.0000
 11
-0.2379
 21
-0.4500
 31
0.0000
  0
LINE
  8
0
 10
-0.4500
 20
-0.2379
 30
0.0000
 11
-0.4500
 21
0.2379
 31
0.0000
  0
ENDBLK
  8
0
  0
BLOCK
  8
0
  2
OCTAGONV
 70
64
 10
0.0000
 20
0.0000
 30
0.0000
  3
OCTAGONV
  0
POLYLINE
  8
0
 66
1
 10
0.0000
 20
0.0000
 30
0.0000
 40
0.0000
 41
0.0000
 70
1
  0
VERTEX
  8
0
 10
-0.5000
 20
-0.2071
 30
0.0000
  0
VERTEX
  8
0
 10
-0.5000
 20
0.2071
 30
0.0000
  0
VERTEX
  8
0
 10
-0.2071
 20
0.5000
 30
0.0000
  0
VERTEX
  8
0
 10
0.2071
 20
0.5000
 30
0.0000
  0
VERTEX
  8
0
 10
0.5000
 20
0.2071
 30
0.0000
  0
VERTEX
  8
0
 10
0.5000
 20
-0.2071
 30
0.0000
  0
VERTEX
  8
0
 10
0.2071
 20
-0.5000
 30
0.0000
  0
VERTEX
  8
0
 10
-0.2071
 20
-0.5000
 30
0.0000
  0
SEQEND
  8
0
  0
ENDBLK
  8
0
  0
BLOCK
  8
0
  2
SQUAREV
 70
64
 10
0.0000
 20
0.0000
 30
0.0000
  3
SQUAREV
  0
SOLID
  8
0
 10
-0.5000
 20
-0.5000
 30
0.0000
 11
0.5000
 21
-0.5000
 31
0.0000
 12
-0.5000
 22
0.5000
 32
0.0000
 13
0.5000
 23
0.5000
 33
0.0000
  0
ENDBLK
  8
0
  0
BLOCK
  8
0
  2
ROUNDV
 70
64
 10
0.0000
 20
0.0000
 30
0.0000
  3
ROUNDV
  0
CIRCLE
  8
0
 10
0.0000
 20
0.0000
 30
0.0000
 40
0.5000
  0
ENDBLK
  8
0
  0
BLOCK
  8
0
  2
ANNULUSV
 70
64
 10
0.0000
 20
0.0000
 30
0.0000
  3
ANNULUSV
  0
CIRCLE
  8
0
 10
0.0000
 20
0.0000
 30
0.0000
 40
0.5000
  0
ENDBLK
  8
0
  0
BLOCK
  8
0
  2
THERMALV
 70
64
 10
0.0000
 20
0.0000
 30
0.0000
  3
THERMALV
  0
LINE
  8
0
 10
-0.2379
 20
0.4500
 30
0.0000
 11
0.2379
 21
0.4500
 31
0.0000
  0
LINE
  8
0
 10
0.4500
 20
0.2379
 30
0.0000
 11
0.4500
 21
-0.2379
 31
0.0000
  0
LINE
  8
0
 10
0.2379
 20
-0.4500
 30
0.0000
 11
-0.2379
 21
-0.4500
 31
0.0000
  0
LINE
  8
0
 10
-0.4500
 20
-0.2379
 30
0.0000
 11
-0.4500
 21
0.2379
 31
0.0000
  0
ENDBLK
  8
0
  0
ENDSEC
  0
SECTION
  2
ENTITIES
  0
LINE
  8
1
 10
60.0000
 20
163.0000
 30
0.0000
 11
60.0000
 21
155.0000
 31
0.0000
  0
ARC
  8
1
 10
61.0000
 20
163.0000
 30
0.0000
 40
1.0000
 50
90.0000
 51
180.0000
  0
LINE
  8
1
 10
61.0000
 20
164.0000
 30
0.0000
 11
64.0000
 21
164.0000
 31
0.0000
  0
ARC
  8
1
 10
64.0000
 20
163.0000
 30
0.0000
 40
1.0000
 50
0.0000
 51
90.0000
  0
LINE
  8
1
 10
65.0000
 20
163.0000
 30
0.0000
 11
65.0000
 21
155.0000
 31
0.0000
  0
LINE
  8
1
 10
72.0000
 20
155.0000
 30
0.0000
 11
65.0000
 21
155.0000
 31
0.0000
  0
ARC
  8
1
 10
72.0000
 20
153.0000
 30
0.0000
 40
2.0000
 50
0.0000
 51
90.0000
  0
LINE
  8
1
 10
74.0000
 20
8.0000
 30
0.0000
 11
74.0000
 21
153.0000
 31
0.0000
  0
LINE
  8
1
 10
8.0000
 20
6.0000
 30
0.0000
 11
72.0000
 21
6.0000
 31
0.0000
  0
LINE
  8
1
 10
6.0000
 20
73.0000
 30
0.0000
 11
6.0000
 21
8.0000
 31
0.0000
  0
ARC
  8
1
 10
8.0000
 20
8.0000
 30
0.0000
 40
2.0000
 50
180.0000
 51
270.0000
  0
ARC
  8
1
 10
72.0000
 20
8.0000
 30
0.0000
 40
2.0000
 50
270.0000
 51
0.0000
  0
LINE
  8
1
 10
8.0000
 20
75.0000
 30
0.0000
 11
68.0000
 21
75.0000
 31
0.0000
  0
ARC
  8
1
 10
8.0000
 20
73.0000
 30
0.0000
 40
2.0000
 50
90.0000
 51
180.0000
  0
LINE
  8
1
 10
64.0000
 20
151.0000
 30
0.0000
 11
68.0000
 21
151.0000
 31
0.0000
  0
ARC
  8
1
 10
68.0000
 20
149.0000
 30
0.0000
 40
2.0000
 50
0.0000
 51
90.0000
  0
LINE
  8
1
 10
70.0000
 20
149.0000
 30
0.0000
 11
70.0000
 21
77.0000
 31
0.0000
  0
ARC
  8
1
 10
68.0000
 20
77.0000
 30
0.0000
 40
2.0000
 50
270.0000
 51
0.0000
  0
ARC
  8
1
 10
64.0000
 20
155.0000
 30
0.0000
 40
4.0000
 50
180.0000
 51
270.0000
  0
LINE
  8
1
 10
51.0000
 20
155.0000
 30
0.0000
 11
47.0000
 21
155.0000
 31
0.0000
  0
LINE
  8
1
 10
47.0000
 20
163.0000
 30
0.0000
 11
47.0000
 21
155.0000
 31
0.0000
  0
LINE
  8
1
 10
51.0000
 20
163.0000
 30
0.0000
 11
51.0000
 21
155.0000
 31
0.0000
  0
ARC
  8
1
 10
52.0000
 20
163.0000
 30
0.0000
 40
1.0000
 50
90.0000
 51
180.0000
  0
ARC
  8
1
 10
46.0000
 20
163.0000
 30
0.0000
 40
1.0000
 50
0.0000
 51
90.0000
  0
LINE
  8
1
 10
43.0000
 20
164.0000
 30
0.0000
 11
46.0000
 21
164.0000
 31
0.0000
  0
LINE
  8
1
 10
52.0000
 20
164.0000
 30
0.0000
 11
55.0000
 21
164.0000
 31
0.0000
  0
ARC
  8
1
 10
55.0000
 20
163.0000
 30
0.0000
 40
1.0000
 50
0.0000
 51
90.0000
  0
ARC
  8
1
 10
43.0000
 20
163.0000
 30
0.0000
 40
1.0000
 50
90.0000
 51
180.0000
  0
LINE
  8
1
 10
42.0000
 20
163.0000
 30
0.0000
 11
42.0000
 21
155.0000
 31
0.0000
  0
LINE
  8
1
 10
56.0000
 20
163.0000
 30
0.0000
 11
56.0000
 21
155.0000
 31
0.0000
  0
ARC
  8
1
 10
56.0000
 20
153.0000
 30
0.0000
 40
2.0000
 50
0.0000
 51
90.0000
  0
LINE
  8
1
 10
42.0000
 20
155.0000
 30
0.0000
 11
38.0000
 21
155.0000
 31
0.0000
  0
LINE
  8
1
 10
38.0000
 20
163.0000
 30
0.0000
 11
38.0000
 21
155.0000
 31
0.0000
  0
LINE
  8
1
 10
58.0000
 20
153.0000
 30
0.0000
 11
58.0000
 21
150.0000
 31
0.0000
  0
ARC
  8
1
 10
60.0000
 20
150.0000
 30
0.0000
 40
2.0000
 50
180.0000
 51
270.0000
  0
ARC
  8
1
 10
37.0000
 20
163.0000
 30
0.0000
 40
1.0000
 50
0.0000
 51
90.0000
  0
LINE
  8
1
 10
20.0000
 20
163.0000
 30
0.0000
 11
20.0000
 21
155.0000
 31
0.0000
  0
ARC
  8
1
 10
19.0000
 20
163.0000
 30
0.0000
 40
1.0000
 50
0.0000
 51
90.0000
  0
LINE
  8
1
 10
34.0000
 20
164.0000
 30
0.0000
 11
37.0000
 21
164.0000
 31
0.0000
  0
LINE
  8
1
 10
60.0000
 20
148.0000
 30
0.0000
 11
65.0000
 21
148.0000
 31
0.0000
  0
ARC
  8
1
 10
65.0000
 20
146.0000
 30
0.0000
 40
2.0000
 50
0.0000
 51
90.0000
  0
ARC
  8
1
 10
34.0000
 20
163.0000
 30
0.0000
 40
1.0000
 50
90.0000
 51
180.0000
  0
LINE
  8
1
 10
15.0000
 20
164.0000
 30
0.0000
 11
19.0000
 21
164.0000
 31
0.0000
  0
ARC
  8
1
 10
15.0000
 20
163.0000
 30
0.0000
 40
1.0000
 50
90.0000
 51
180.0000
  0
LINE
  8
1
 10
33.0000
 20
163.0000
 30
0.0000
 11
33.0000
 21
155.0000
 31
0.0000
  0
LINE
  8
1
 10
67.0000
 20
146.0000
 30
0.0000
 11
67.0000
 21
88.0000
 31
0.0000
  0
ARC
  8
1
 10
65.0000
 20
88.0000
 30
0.0000
 40
2.0000
 50
270.0000
 51
0.0000
  0
LINE
  8
1
 10
33.0000
 20
155.0000
 30
0.0000
 11
14.0000
 21
155.0000
 31
0.0000
  0
LINE
  8
1
 10
14.0000
 20
155.0000
 30
0.0000
 11
14.0000
 21
163.0000
 31
0.0000
  0
LINE
  8
1
 10
14.0000
 20
155.0000
 30
0.0000
 11
8.0000
 21
155.0000
 31
0.0000
  0
LINE
  8
1
 10
8.0000
 20
86.0000
 30
0.0000
 11
65.0000
 21
86.0000
 31
0.0000
  0
ARC
  8
1
 10
8.0000
 20
153.0000
 30
0.0000
 40
2.0000
 50
90.0000
 51
180.0000
  0
LINE
  8
1
 10
6.0000
 20
153.0000
 30
0.0000
 11
6.0000
 21
88.0000
 31
0.0000
  0
ARC
  8
1
 10
8.0000
 20
88.0000
 30
0.0000
 40
2.0000
 50
180.0000
 51
270.0000
  0
ENDSEC
  0
EOF
