G75*
%MOIN*%
%OFA0B0*%
%FSLAX25Y25*%
%IPPOS*%
%LPD*%
%AMOC8*
5,1,8,0,0,1.08239X$1,22.5*
%
%ADD10C,0.01600*%
%ADD11C,0.00000*%
%ADD12C,0.04737*%
%ADD13C,0.01200*%
%ADD14R,0.07300X0.04737*%
%ADD15C,0.05524*%
%ADD16C,0.13461*%
%ADD17R,0.23622X0.05906*%
%ADD18R,0.06800X0.06800*%
%ADD19R,0.05918X0.07099*%
%ADD20C,0.06800*%
%ADD21C,0.03769*%
%ADD22C,0.04550*%
D10*
X0008290Y0025656D02*
X0014195Y0025656D01*
X0014195Y0033530D01*
X0026006Y0033530D01*
X0026006Y0025656D01*
X0037817Y0025656D01*
X0061439Y0025656D02*
X0110652Y0025656D01*
X0134274Y0025656D02*
X0146085Y0025656D01*
X0169707Y0025656D02*
X0181518Y0025656D01*
X0205140Y0025656D02*
X0216951Y0025656D01*
X0240573Y0025656D02*
X0254353Y0025656D01*
X0254353Y0033530D01*
X0266164Y0033530D01*
X0266164Y0025656D01*
X0272069Y0025656D01*
X0272069Y0025655D02*
X0272221Y0025657D01*
X0272373Y0025663D01*
X0272525Y0025673D01*
X0272676Y0025686D01*
X0272827Y0025704D01*
X0272978Y0025725D01*
X0273128Y0025751D01*
X0273277Y0025780D01*
X0273426Y0025813D01*
X0273573Y0025850D01*
X0273720Y0025890D01*
X0273865Y0025935D01*
X0274009Y0025983D01*
X0274152Y0026035D01*
X0274294Y0026090D01*
X0274434Y0026149D01*
X0274573Y0026212D01*
X0274710Y0026278D01*
X0274845Y0026348D01*
X0274978Y0026421D01*
X0275109Y0026498D01*
X0275239Y0026578D01*
X0275366Y0026661D01*
X0275491Y0026747D01*
X0275614Y0026837D01*
X0275734Y0026930D01*
X0275852Y0027026D01*
X0275968Y0027125D01*
X0276081Y0027227D01*
X0276191Y0027331D01*
X0276299Y0027439D01*
X0276403Y0027549D01*
X0276505Y0027662D01*
X0276604Y0027778D01*
X0276700Y0027896D01*
X0276793Y0028016D01*
X0276883Y0028139D01*
X0276969Y0028264D01*
X0277052Y0028391D01*
X0277132Y0028521D01*
X0277209Y0028652D01*
X0277282Y0028785D01*
X0277352Y0028920D01*
X0277418Y0029057D01*
X0277481Y0029196D01*
X0277540Y0029336D01*
X0277595Y0029478D01*
X0277647Y0029621D01*
X0277695Y0029765D01*
X0277740Y0029910D01*
X0277780Y0030057D01*
X0277817Y0030204D01*
X0277850Y0030353D01*
X0277879Y0030502D01*
X0277905Y0030652D01*
X0277926Y0030803D01*
X0277944Y0030954D01*
X0277957Y0031105D01*
X0277967Y0031257D01*
X0277973Y0031409D01*
X0277975Y0031561D01*
X0277975Y0086679D01*
X0277973Y0086831D01*
X0277967Y0086983D01*
X0277957Y0087135D01*
X0277944Y0087286D01*
X0277926Y0087437D01*
X0277905Y0087588D01*
X0277879Y0087738D01*
X0277850Y0087887D01*
X0277817Y0088036D01*
X0277780Y0088183D01*
X0277740Y0088330D01*
X0277695Y0088475D01*
X0277647Y0088619D01*
X0277595Y0088762D01*
X0277540Y0088904D01*
X0277481Y0089044D01*
X0277418Y0089183D01*
X0277352Y0089320D01*
X0277282Y0089455D01*
X0277209Y0089588D01*
X0277132Y0089719D01*
X0277052Y0089849D01*
X0276969Y0089976D01*
X0276883Y0090101D01*
X0276793Y0090224D01*
X0276700Y0090344D01*
X0276604Y0090462D01*
X0276505Y0090578D01*
X0276403Y0090691D01*
X0276299Y0090801D01*
X0276191Y0090909D01*
X0276081Y0091013D01*
X0275968Y0091115D01*
X0275852Y0091214D01*
X0275734Y0091310D01*
X0275614Y0091403D01*
X0275491Y0091493D01*
X0275366Y0091579D01*
X0275239Y0091662D01*
X0275109Y0091742D01*
X0274978Y0091819D01*
X0274845Y0091892D01*
X0274710Y0091962D01*
X0274573Y0092028D01*
X0274434Y0092091D01*
X0274294Y0092150D01*
X0274152Y0092205D01*
X0274009Y0092257D01*
X0273865Y0092305D01*
X0273720Y0092350D01*
X0273573Y0092390D01*
X0273426Y0092427D01*
X0273277Y0092460D01*
X0273128Y0092489D01*
X0272978Y0092515D01*
X0272827Y0092536D01*
X0272676Y0092554D01*
X0272525Y0092567D01*
X0272373Y0092577D01*
X0272221Y0092583D01*
X0272069Y0092585D01*
X0266164Y0092585D01*
X0266164Y0084711D01*
X0254353Y0084711D01*
X0254353Y0092585D01*
X0026006Y0092585D01*
X0026006Y0084711D01*
X0014195Y0084711D01*
X0014195Y0092585D01*
X0008290Y0092585D01*
X0008138Y0092583D01*
X0007986Y0092577D01*
X0007834Y0092567D01*
X0007683Y0092554D01*
X0007532Y0092536D01*
X0007381Y0092515D01*
X0007231Y0092489D01*
X0007082Y0092460D01*
X0006933Y0092427D01*
X0006786Y0092390D01*
X0006639Y0092350D01*
X0006494Y0092305D01*
X0006350Y0092257D01*
X0006207Y0092205D01*
X0006065Y0092150D01*
X0005925Y0092091D01*
X0005786Y0092028D01*
X0005649Y0091962D01*
X0005514Y0091892D01*
X0005381Y0091819D01*
X0005250Y0091742D01*
X0005120Y0091662D01*
X0004993Y0091579D01*
X0004868Y0091493D01*
X0004745Y0091403D01*
X0004625Y0091310D01*
X0004507Y0091214D01*
X0004391Y0091115D01*
X0004278Y0091013D01*
X0004168Y0090909D01*
X0004060Y0090801D01*
X0003956Y0090691D01*
X0003854Y0090578D01*
X0003755Y0090462D01*
X0003659Y0090344D01*
X0003566Y0090224D01*
X0003476Y0090101D01*
X0003390Y0089976D01*
X0003307Y0089849D01*
X0003227Y0089719D01*
X0003150Y0089588D01*
X0003077Y0089455D01*
X0003007Y0089320D01*
X0002941Y0089183D01*
X0002878Y0089044D01*
X0002819Y0088904D01*
X0002764Y0088762D01*
X0002712Y0088619D01*
X0002664Y0088475D01*
X0002619Y0088330D01*
X0002579Y0088183D01*
X0002542Y0088036D01*
X0002509Y0087887D01*
X0002480Y0087738D01*
X0002454Y0087588D01*
X0002433Y0087437D01*
X0002415Y0087286D01*
X0002402Y0087135D01*
X0002392Y0086983D01*
X0002386Y0086831D01*
X0002384Y0086679D01*
X0002384Y0031561D01*
X0002386Y0031409D01*
X0002392Y0031257D01*
X0002402Y0031105D01*
X0002415Y0030954D01*
X0002433Y0030803D01*
X0002454Y0030652D01*
X0002480Y0030502D01*
X0002509Y0030353D01*
X0002542Y0030204D01*
X0002579Y0030057D01*
X0002619Y0029910D01*
X0002664Y0029765D01*
X0002712Y0029621D01*
X0002764Y0029478D01*
X0002819Y0029336D01*
X0002878Y0029196D01*
X0002941Y0029057D01*
X0003007Y0028920D01*
X0003077Y0028785D01*
X0003150Y0028652D01*
X0003227Y0028521D01*
X0003307Y0028391D01*
X0003390Y0028264D01*
X0003476Y0028139D01*
X0003566Y0028016D01*
X0003659Y0027896D01*
X0003755Y0027778D01*
X0003854Y0027662D01*
X0003956Y0027549D01*
X0004060Y0027439D01*
X0004168Y0027331D01*
X0004278Y0027227D01*
X0004391Y0027125D01*
X0004507Y0027026D01*
X0004625Y0026930D01*
X0004745Y0026837D01*
X0004868Y0026747D01*
X0004993Y0026661D01*
X0005120Y0026578D01*
X0005250Y0026498D01*
X0005381Y0026421D01*
X0005514Y0026348D01*
X0005649Y0026278D01*
X0005786Y0026212D01*
X0005925Y0026149D01*
X0006065Y0026090D01*
X0006207Y0026035D01*
X0006350Y0025983D01*
X0006494Y0025935D01*
X0006639Y0025890D01*
X0006786Y0025850D01*
X0006933Y0025813D01*
X0007082Y0025780D01*
X0007231Y0025751D01*
X0007381Y0025725D01*
X0007532Y0025704D01*
X0007683Y0025686D01*
X0007834Y0025673D01*
X0007986Y0025663D01*
X0008138Y0025657D01*
X0008290Y0025655D01*
D11*
X0006321Y0031561D02*
X0006323Y0031649D01*
X0006329Y0031737D01*
X0006339Y0031825D01*
X0006353Y0031913D01*
X0006370Y0031999D01*
X0006392Y0032085D01*
X0006417Y0032169D01*
X0006447Y0032253D01*
X0006479Y0032335D01*
X0006516Y0032415D01*
X0006556Y0032494D01*
X0006600Y0032571D01*
X0006647Y0032646D01*
X0006697Y0032718D01*
X0006751Y0032789D01*
X0006807Y0032856D01*
X0006867Y0032922D01*
X0006929Y0032984D01*
X0006995Y0033044D01*
X0007062Y0033100D01*
X0007133Y0033154D01*
X0007205Y0033204D01*
X0007280Y0033251D01*
X0007357Y0033295D01*
X0007436Y0033335D01*
X0007516Y0033372D01*
X0007598Y0033404D01*
X0007682Y0033434D01*
X0007766Y0033459D01*
X0007852Y0033481D01*
X0007938Y0033498D01*
X0008026Y0033512D01*
X0008114Y0033522D01*
X0008202Y0033528D01*
X0008290Y0033530D01*
X0008378Y0033528D01*
X0008466Y0033522D01*
X0008554Y0033512D01*
X0008642Y0033498D01*
X0008728Y0033481D01*
X0008814Y0033459D01*
X0008898Y0033434D01*
X0008982Y0033404D01*
X0009064Y0033372D01*
X0009144Y0033335D01*
X0009223Y0033295D01*
X0009300Y0033251D01*
X0009375Y0033204D01*
X0009447Y0033154D01*
X0009518Y0033100D01*
X0009585Y0033044D01*
X0009651Y0032984D01*
X0009713Y0032922D01*
X0009773Y0032856D01*
X0009829Y0032789D01*
X0009883Y0032718D01*
X0009933Y0032646D01*
X0009980Y0032571D01*
X0010024Y0032494D01*
X0010064Y0032415D01*
X0010101Y0032335D01*
X0010133Y0032253D01*
X0010163Y0032169D01*
X0010188Y0032085D01*
X0010210Y0031999D01*
X0010227Y0031913D01*
X0010241Y0031825D01*
X0010251Y0031737D01*
X0010257Y0031649D01*
X0010259Y0031561D01*
X0010257Y0031473D01*
X0010251Y0031385D01*
X0010241Y0031297D01*
X0010227Y0031209D01*
X0010210Y0031123D01*
X0010188Y0031037D01*
X0010163Y0030953D01*
X0010133Y0030869D01*
X0010101Y0030787D01*
X0010064Y0030707D01*
X0010024Y0030628D01*
X0009980Y0030551D01*
X0009933Y0030476D01*
X0009883Y0030404D01*
X0009829Y0030333D01*
X0009773Y0030266D01*
X0009713Y0030200D01*
X0009651Y0030138D01*
X0009585Y0030078D01*
X0009518Y0030022D01*
X0009447Y0029968D01*
X0009375Y0029918D01*
X0009300Y0029871D01*
X0009223Y0029827D01*
X0009144Y0029787D01*
X0009064Y0029750D01*
X0008982Y0029718D01*
X0008898Y0029688D01*
X0008814Y0029663D01*
X0008728Y0029641D01*
X0008642Y0029624D01*
X0008554Y0029610D01*
X0008466Y0029600D01*
X0008378Y0029594D01*
X0008290Y0029592D01*
X0008202Y0029594D01*
X0008114Y0029600D01*
X0008026Y0029610D01*
X0007938Y0029624D01*
X0007852Y0029641D01*
X0007766Y0029663D01*
X0007682Y0029688D01*
X0007598Y0029718D01*
X0007516Y0029750D01*
X0007436Y0029787D01*
X0007357Y0029827D01*
X0007280Y0029871D01*
X0007205Y0029918D01*
X0007133Y0029968D01*
X0007062Y0030022D01*
X0006995Y0030078D01*
X0006929Y0030138D01*
X0006867Y0030200D01*
X0006807Y0030266D01*
X0006751Y0030333D01*
X0006697Y0030404D01*
X0006647Y0030476D01*
X0006600Y0030551D01*
X0006556Y0030628D01*
X0006516Y0030707D01*
X0006479Y0030787D01*
X0006447Y0030869D01*
X0006417Y0030953D01*
X0006392Y0031037D01*
X0006370Y0031123D01*
X0006353Y0031209D01*
X0006339Y0031297D01*
X0006329Y0031385D01*
X0006323Y0031473D01*
X0006321Y0031561D01*
X0004352Y0047309D02*
X0004354Y0047397D01*
X0004360Y0047485D01*
X0004370Y0047573D01*
X0004384Y0047661D01*
X0004401Y0047747D01*
X0004423Y0047833D01*
X0004448Y0047917D01*
X0004478Y0048001D01*
X0004510Y0048083D01*
X0004547Y0048163D01*
X0004587Y0048242D01*
X0004631Y0048319D01*
X0004678Y0048394D01*
X0004728Y0048466D01*
X0004782Y0048537D01*
X0004838Y0048604D01*
X0004898Y0048670D01*
X0004960Y0048732D01*
X0005026Y0048792D01*
X0005093Y0048848D01*
X0005164Y0048902D01*
X0005236Y0048952D01*
X0005311Y0048999D01*
X0005388Y0049043D01*
X0005467Y0049083D01*
X0005547Y0049120D01*
X0005629Y0049152D01*
X0005713Y0049182D01*
X0005797Y0049207D01*
X0005883Y0049229D01*
X0005969Y0049246D01*
X0006057Y0049260D01*
X0006145Y0049270D01*
X0006233Y0049276D01*
X0006321Y0049278D01*
X0006409Y0049276D01*
X0006497Y0049270D01*
X0006585Y0049260D01*
X0006673Y0049246D01*
X0006759Y0049229D01*
X0006845Y0049207D01*
X0006929Y0049182D01*
X0007013Y0049152D01*
X0007095Y0049120D01*
X0007175Y0049083D01*
X0007254Y0049043D01*
X0007331Y0048999D01*
X0007406Y0048952D01*
X0007478Y0048902D01*
X0007549Y0048848D01*
X0007616Y0048792D01*
X0007682Y0048732D01*
X0007744Y0048670D01*
X0007804Y0048604D01*
X0007860Y0048537D01*
X0007914Y0048466D01*
X0007964Y0048394D01*
X0008011Y0048319D01*
X0008055Y0048242D01*
X0008095Y0048163D01*
X0008132Y0048083D01*
X0008164Y0048001D01*
X0008194Y0047917D01*
X0008219Y0047833D01*
X0008241Y0047747D01*
X0008258Y0047661D01*
X0008272Y0047573D01*
X0008282Y0047485D01*
X0008288Y0047397D01*
X0008290Y0047309D01*
X0008288Y0047221D01*
X0008282Y0047133D01*
X0008272Y0047045D01*
X0008258Y0046957D01*
X0008241Y0046871D01*
X0008219Y0046785D01*
X0008194Y0046701D01*
X0008164Y0046617D01*
X0008132Y0046535D01*
X0008095Y0046455D01*
X0008055Y0046376D01*
X0008011Y0046299D01*
X0007964Y0046224D01*
X0007914Y0046152D01*
X0007860Y0046081D01*
X0007804Y0046014D01*
X0007744Y0045948D01*
X0007682Y0045886D01*
X0007616Y0045826D01*
X0007549Y0045770D01*
X0007478Y0045716D01*
X0007406Y0045666D01*
X0007331Y0045619D01*
X0007254Y0045575D01*
X0007175Y0045535D01*
X0007095Y0045498D01*
X0007013Y0045466D01*
X0006929Y0045436D01*
X0006845Y0045411D01*
X0006759Y0045389D01*
X0006673Y0045372D01*
X0006585Y0045358D01*
X0006497Y0045348D01*
X0006409Y0045342D01*
X0006321Y0045340D01*
X0006233Y0045342D01*
X0006145Y0045348D01*
X0006057Y0045358D01*
X0005969Y0045372D01*
X0005883Y0045389D01*
X0005797Y0045411D01*
X0005713Y0045436D01*
X0005629Y0045466D01*
X0005547Y0045498D01*
X0005467Y0045535D01*
X0005388Y0045575D01*
X0005311Y0045619D01*
X0005236Y0045666D01*
X0005164Y0045716D01*
X0005093Y0045770D01*
X0005026Y0045826D01*
X0004960Y0045886D01*
X0004898Y0045948D01*
X0004838Y0046014D01*
X0004782Y0046081D01*
X0004728Y0046152D01*
X0004678Y0046224D01*
X0004631Y0046299D01*
X0004587Y0046376D01*
X0004547Y0046455D01*
X0004510Y0046535D01*
X0004478Y0046617D01*
X0004448Y0046701D01*
X0004423Y0046785D01*
X0004401Y0046871D01*
X0004384Y0046957D01*
X0004370Y0047045D01*
X0004360Y0047133D01*
X0004354Y0047221D01*
X0004352Y0047309D01*
X0004352Y0070931D02*
X0004354Y0071019D01*
X0004360Y0071107D01*
X0004370Y0071195D01*
X0004384Y0071283D01*
X0004401Y0071369D01*
X0004423Y0071455D01*
X0004448Y0071539D01*
X0004478Y0071623D01*
X0004510Y0071705D01*
X0004547Y0071785D01*
X0004587Y0071864D01*
X0004631Y0071941D01*
X0004678Y0072016D01*
X0004728Y0072088D01*
X0004782Y0072159D01*
X0004838Y0072226D01*
X0004898Y0072292D01*
X0004960Y0072354D01*
X0005026Y0072414D01*
X0005093Y0072470D01*
X0005164Y0072524D01*
X0005236Y0072574D01*
X0005311Y0072621D01*
X0005388Y0072665D01*
X0005467Y0072705D01*
X0005547Y0072742D01*
X0005629Y0072774D01*
X0005713Y0072804D01*
X0005797Y0072829D01*
X0005883Y0072851D01*
X0005969Y0072868D01*
X0006057Y0072882D01*
X0006145Y0072892D01*
X0006233Y0072898D01*
X0006321Y0072900D01*
X0006409Y0072898D01*
X0006497Y0072892D01*
X0006585Y0072882D01*
X0006673Y0072868D01*
X0006759Y0072851D01*
X0006845Y0072829D01*
X0006929Y0072804D01*
X0007013Y0072774D01*
X0007095Y0072742D01*
X0007175Y0072705D01*
X0007254Y0072665D01*
X0007331Y0072621D01*
X0007406Y0072574D01*
X0007478Y0072524D01*
X0007549Y0072470D01*
X0007616Y0072414D01*
X0007682Y0072354D01*
X0007744Y0072292D01*
X0007804Y0072226D01*
X0007860Y0072159D01*
X0007914Y0072088D01*
X0007964Y0072016D01*
X0008011Y0071941D01*
X0008055Y0071864D01*
X0008095Y0071785D01*
X0008132Y0071705D01*
X0008164Y0071623D01*
X0008194Y0071539D01*
X0008219Y0071455D01*
X0008241Y0071369D01*
X0008258Y0071283D01*
X0008272Y0071195D01*
X0008282Y0071107D01*
X0008288Y0071019D01*
X0008290Y0070931D01*
X0008288Y0070843D01*
X0008282Y0070755D01*
X0008272Y0070667D01*
X0008258Y0070579D01*
X0008241Y0070493D01*
X0008219Y0070407D01*
X0008194Y0070323D01*
X0008164Y0070239D01*
X0008132Y0070157D01*
X0008095Y0070077D01*
X0008055Y0069998D01*
X0008011Y0069921D01*
X0007964Y0069846D01*
X0007914Y0069774D01*
X0007860Y0069703D01*
X0007804Y0069636D01*
X0007744Y0069570D01*
X0007682Y0069508D01*
X0007616Y0069448D01*
X0007549Y0069392D01*
X0007478Y0069338D01*
X0007406Y0069288D01*
X0007331Y0069241D01*
X0007254Y0069197D01*
X0007175Y0069157D01*
X0007095Y0069120D01*
X0007013Y0069088D01*
X0006929Y0069058D01*
X0006845Y0069033D01*
X0006759Y0069011D01*
X0006673Y0068994D01*
X0006585Y0068980D01*
X0006497Y0068970D01*
X0006409Y0068964D01*
X0006321Y0068962D01*
X0006233Y0068964D01*
X0006145Y0068970D01*
X0006057Y0068980D01*
X0005969Y0068994D01*
X0005883Y0069011D01*
X0005797Y0069033D01*
X0005713Y0069058D01*
X0005629Y0069088D01*
X0005547Y0069120D01*
X0005467Y0069157D01*
X0005388Y0069197D01*
X0005311Y0069241D01*
X0005236Y0069288D01*
X0005164Y0069338D01*
X0005093Y0069392D01*
X0005026Y0069448D01*
X0004960Y0069508D01*
X0004898Y0069570D01*
X0004838Y0069636D01*
X0004782Y0069703D01*
X0004728Y0069774D01*
X0004678Y0069846D01*
X0004631Y0069921D01*
X0004587Y0069998D01*
X0004547Y0070077D01*
X0004510Y0070157D01*
X0004478Y0070239D01*
X0004448Y0070323D01*
X0004423Y0070407D01*
X0004401Y0070493D01*
X0004384Y0070579D01*
X0004370Y0070667D01*
X0004360Y0070755D01*
X0004354Y0070843D01*
X0004352Y0070931D01*
X0006321Y0086679D02*
X0006323Y0086767D01*
X0006329Y0086855D01*
X0006339Y0086943D01*
X0006353Y0087031D01*
X0006370Y0087117D01*
X0006392Y0087203D01*
X0006417Y0087287D01*
X0006447Y0087371D01*
X0006479Y0087453D01*
X0006516Y0087533D01*
X0006556Y0087612D01*
X0006600Y0087689D01*
X0006647Y0087764D01*
X0006697Y0087836D01*
X0006751Y0087907D01*
X0006807Y0087974D01*
X0006867Y0088040D01*
X0006929Y0088102D01*
X0006995Y0088162D01*
X0007062Y0088218D01*
X0007133Y0088272D01*
X0007205Y0088322D01*
X0007280Y0088369D01*
X0007357Y0088413D01*
X0007436Y0088453D01*
X0007516Y0088490D01*
X0007598Y0088522D01*
X0007682Y0088552D01*
X0007766Y0088577D01*
X0007852Y0088599D01*
X0007938Y0088616D01*
X0008026Y0088630D01*
X0008114Y0088640D01*
X0008202Y0088646D01*
X0008290Y0088648D01*
X0008378Y0088646D01*
X0008466Y0088640D01*
X0008554Y0088630D01*
X0008642Y0088616D01*
X0008728Y0088599D01*
X0008814Y0088577D01*
X0008898Y0088552D01*
X0008982Y0088522D01*
X0009064Y0088490D01*
X0009144Y0088453D01*
X0009223Y0088413D01*
X0009300Y0088369D01*
X0009375Y0088322D01*
X0009447Y0088272D01*
X0009518Y0088218D01*
X0009585Y0088162D01*
X0009651Y0088102D01*
X0009713Y0088040D01*
X0009773Y0087974D01*
X0009829Y0087907D01*
X0009883Y0087836D01*
X0009933Y0087764D01*
X0009980Y0087689D01*
X0010024Y0087612D01*
X0010064Y0087533D01*
X0010101Y0087453D01*
X0010133Y0087371D01*
X0010163Y0087287D01*
X0010188Y0087203D01*
X0010210Y0087117D01*
X0010227Y0087031D01*
X0010241Y0086943D01*
X0010251Y0086855D01*
X0010257Y0086767D01*
X0010259Y0086679D01*
X0010257Y0086591D01*
X0010251Y0086503D01*
X0010241Y0086415D01*
X0010227Y0086327D01*
X0010210Y0086241D01*
X0010188Y0086155D01*
X0010163Y0086071D01*
X0010133Y0085987D01*
X0010101Y0085905D01*
X0010064Y0085825D01*
X0010024Y0085746D01*
X0009980Y0085669D01*
X0009933Y0085594D01*
X0009883Y0085522D01*
X0009829Y0085451D01*
X0009773Y0085384D01*
X0009713Y0085318D01*
X0009651Y0085256D01*
X0009585Y0085196D01*
X0009518Y0085140D01*
X0009447Y0085086D01*
X0009375Y0085036D01*
X0009300Y0084989D01*
X0009223Y0084945D01*
X0009144Y0084905D01*
X0009064Y0084868D01*
X0008982Y0084836D01*
X0008898Y0084806D01*
X0008814Y0084781D01*
X0008728Y0084759D01*
X0008642Y0084742D01*
X0008554Y0084728D01*
X0008466Y0084718D01*
X0008378Y0084712D01*
X0008290Y0084710D01*
X0008202Y0084712D01*
X0008114Y0084718D01*
X0008026Y0084728D01*
X0007938Y0084742D01*
X0007852Y0084759D01*
X0007766Y0084781D01*
X0007682Y0084806D01*
X0007598Y0084836D01*
X0007516Y0084868D01*
X0007436Y0084905D01*
X0007357Y0084945D01*
X0007280Y0084989D01*
X0007205Y0085036D01*
X0007133Y0085086D01*
X0007062Y0085140D01*
X0006995Y0085196D01*
X0006929Y0085256D01*
X0006867Y0085318D01*
X0006807Y0085384D01*
X0006751Y0085451D01*
X0006697Y0085522D01*
X0006647Y0085594D01*
X0006600Y0085669D01*
X0006556Y0085746D01*
X0006516Y0085825D01*
X0006479Y0085905D01*
X0006447Y0085987D01*
X0006417Y0086071D01*
X0006392Y0086155D01*
X0006370Y0086241D01*
X0006353Y0086327D01*
X0006339Y0086415D01*
X0006329Y0086503D01*
X0006323Y0086591D01*
X0006321Y0086679D01*
X0075218Y0031561D02*
X0075220Y0031649D01*
X0075226Y0031737D01*
X0075236Y0031825D01*
X0075250Y0031913D01*
X0075267Y0031999D01*
X0075289Y0032085D01*
X0075314Y0032169D01*
X0075344Y0032253D01*
X0075376Y0032335D01*
X0075413Y0032415D01*
X0075453Y0032494D01*
X0075497Y0032571D01*
X0075544Y0032646D01*
X0075594Y0032718D01*
X0075648Y0032789D01*
X0075704Y0032856D01*
X0075764Y0032922D01*
X0075826Y0032984D01*
X0075892Y0033044D01*
X0075959Y0033100D01*
X0076030Y0033154D01*
X0076102Y0033204D01*
X0076177Y0033251D01*
X0076254Y0033295D01*
X0076333Y0033335D01*
X0076413Y0033372D01*
X0076495Y0033404D01*
X0076579Y0033434D01*
X0076663Y0033459D01*
X0076749Y0033481D01*
X0076835Y0033498D01*
X0076923Y0033512D01*
X0077011Y0033522D01*
X0077099Y0033528D01*
X0077187Y0033530D01*
X0077275Y0033528D01*
X0077363Y0033522D01*
X0077451Y0033512D01*
X0077539Y0033498D01*
X0077625Y0033481D01*
X0077711Y0033459D01*
X0077795Y0033434D01*
X0077879Y0033404D01*
X0077961Y0033372D01*
X0078041Y0033335D01*
X0078120Y0033295D01*
X0078197Y0033251D01*
X0078272Y0033204D01*
X0078344Y0033154D01*
X0078415Y0033100D01*
X0078482Y0033044D01*
X0078548Y0032984D01*
X0078610Y0032922D01*
X0078670Y0032856D01*
X0078726Y0032789D01*
X0078780Y0032718D01*
X0078830Y0032646D01*
X0078877Y0032571D01*
X0078921Y0032494D01*
X0078961Y0032415D01*
X0078998Y0032335D01*
X0079030Y0032253D01*
X0079060Y0032169D01*
X0079085Y0032085D01*
X0079107Y0031999D01*
X0079124Y0031913D01*
X0079138Y0031825D01*
X0079148Y0031737D01*
X0079154Y0031649D01*
X0079156Y0031561D01*
X0079154Y0031473D01*
X0079148Y0031385D01*
X0079138Y0031297D01*
X0079124Y0031209D01*
X0079107Y0031123D01*
X0079085Y0031037D01*
X0079060Y0030953D01*
X0079030Y0030869D01*
X0078998Y0030787D01*
X0078961Y0030707D01*
X0078921Y0030628D01*
X0078877Y0030551D01*
X0078830Y0030476D01*
X0078780Y0030404D01*
X0078726Y0030333D01*
X0078670Y0030266D01*
X0078610Y0030200D01*
X0078548Y0030138D01*
X0078482Y0030078D01*
X0078415Y0030022D01*
X0078344Y0029968D01*
X0078272Y0029918D01*
X0078197Y0029871D01*
X0078120Y0029827D01*
X0078041Y0029787D01*
X0077961Y0029750D01*
X0077879Y0029718D01*
X0077795Y0029688D01*
X0077711Y0029663D01*
X0077625Y0029641D01*
X0077539Y0029624D01*
X0077451Y0029610D01*
X0077363Y0029600D01*
X0077275Y0029594D01*
X0077187Y0029592D01*
X0077099Y0029594D01*
X0077011Y0029600D01*
X0076923Y0029610D01*
X0076835Y0029624D01*
X0076749Y0029641D01*
X0076663Y0029663D01*
X0076579Y0029688D01*
X0076495Y0029718D01*
X0076413Y0029750D01*
X0076333Y0029787D01*
X0076254Y0029827D01*
X0076177Y0029871D01*
X0076102Y0029918D01*
X0076030Y0029968D01*
X0075959Y0030022D01*
X0075892Y0030078D01*
X0075826Y0030138D01*
X0075764Y0030200D01*
X0075704Y0030266D01*
X0075648Y0030333D01*
X0075594Y0030404D01*
X0075544Y0030476D01*
X0075497Y0030551D01*
X0075453Y0030628D01*
X0075413Y0030707D01*
X0075376Y0030787D01*
X0075344Y0030869D01*
X0075314Y0030953D01*
X0075289Y0031037D01*
X0075267Y0031123D01*
X0075250Y0031209D01*
X0075236Y0031297D01*
X0075226Y0031385D01*
X0075220Y0031473D01*
X0075218Y0031561D01*
X0096872Y0031561D02*
X0096874Y0031649D01*
X0096880Y0031737D01*
X0096890Y0031825D01*
X0096904Y0031913D01*
X0096921Y0031999D01*
X0096943Y0032085D01*
X0096968Y0032169D01*
X0096998Y0032253D01*
X0097030Y0032335D01*
X0097067Y0032415D01*
X0097107Y0032494D01*
X0097151Y0032571D01*
X0097198Y0032646D01*
X0097248Y0032718D01*
X0097302Y0032789D01*
X0097358Y0032856D01*
X0097418Y0032922D01*
X0097480Y0032984D01*
X0097546Y0033044D01*
X0097613Y0033100D01*
X0097684Y0033154D01*
X0097756Y0033204D01*
X0097831Y0033251D01*
X0097908Y0033295D01*
X0097987Y0033335D01*
X0098067Y0033372D01*
X0098149Y0033404D01*
X0098233Y0033434D01*
X0098317Y0033459D01*
X0098403Y0033481D01*
X0098489Y0033498D01*
X0098577Y0033512D01*
X0098665Y0033522D01*
X0098753Y0033528D01*
X0098841Y0033530D01*
X0098929Y0033528D01*
X0099017Y0033522D01*
X0099105Y0033512D01*
X0099193Y0033498D01*
X0099279Y0033481D01*
X0099365Y0033459D01*
X0099449Y0033434D01*
X0099533Y0033404D01*
X0099615Y0033372D01*
X0099695Y0033335D01*
X0099774Y0033295D01*
X0099851Y0033251D01*
X0099926Y0033204D01*
X0099998Y0033154D01*
X0100069Y0033100D01*
X0100136Y0033044D01*
X0100202Y0032984D01*
X0100264Y0032922D01*
X0100324Y0032856D01*
X0100380Y0032789D01*
X0100434Y0032718D01*
X0100484Y0032646D01*
X0100531Y0032571D01*
X0100575Y0032494D01*
X0100615Y0032415D01*
X0100652Y0032335D01*
X0100684Y0032253D01*
X0100714Y0032169D01*
X0100739Y0032085D01*
X0100761Y0031999D01*
X0100778Y0031913D01*
X0100792Y0031825D01*
X0100802Y0031737D01*
X0100808Y0031649D01*
X0100810Y0031561D01*
X0100808Y0031473D01*
X0100802Y0031385D01*
X0100792Y0031297D01*
X0100778Y0031209D01*
X0100761Y0031123D01*
X0100739Y0031037D01*
X0100714Y0030953D01*
X0100684Y0030869D01*
X0100652Y0030787D01*
X0100615Y0030707D01*
X0100575Y0030628D01*
X0100531Y0030551D01*
X0100484Y0030476D01*
X0100434Y0030404D01*
X0100380Y0030333D01*
X0100324Y0030266D01*
X0100264Y0030200D01*
X0100202Y0030138D01*
X0100136Y0030078D01*
X0100069Y0030022D01*
X0099998Y0029968D01*
X0099926Y0029918D01*
X0099851Y0029871D01*
X0099774Y0029827D01*
X0099695Y0029787D01*
X0099615Y0029750D01*
X0099533Y0029718D01*
X0099449Y0029688D01*
X0099365Y0029663D01*
X0099279Y0029641D01*
X0099193Y0029624D01*
X0099105Y0029610D01*
X0099017Y0029600D01*
X0098929Y0029594D01*
X0098841Y0029592D01*
X0098753Y0029594D01*
X0098665Y0029600D01*
X0098577Y0029610D01*
X0098489Y0029624D01*
X0098403Y0029641D01*
X0098317Y0029663D01*
X0098233Y0029688D01*
X0098149Y0029718D01*
X0098067Y0029750D01*
X0097987Y0029787D01*
X0097908Y0029827D01*
X0097831Y0029871D01*
X0097756Y0029918D01*
X0097684Y0029968D01*
X0097613Y0030022D01*
X0097546Y0030078D01*
X0097480Y0030138D01*
X0097418Y0030200D01*
X0097358Y0030266D01*
X0097302Y0030333D01*
X0097248Y0030404D01*
X0097198Y0030476D01*
X0097151Y0030551D01*
X0097107Y0030628D01*
X0097067Y0030707D01*
X0097030Y0030787D01*
X0096998Y0030869D01*
X0096968Y0030953D01*
X0096943Y0031037D01*
X0096921Y0031123D01*
X0096904Y0031209D01*
X0096890Y0031297D01*
X0096880Y0031385D01*
X0096874Y0031473D01*
X0096872Y0031561D01*
X0270100Y0031561D02*
X0270102Y0031649D01*
X0270108Y0031737D01*
X0270118Y0031825D01*
X0270132Y0031913D01*
X0270149Y0031999D01*
X0270171Y0032085D01*
X0270196Y0032169D01*
X0270226Y0032253D01*
X0270258Y0032335D01*
X0270295Y0032415D01*
X0270335Y0032494D01*
X0270379Y0032571D01*
X0270426Y0032646D01*
X0270476Y0032718D01*
X0270530Y0032789D01*
X0270586Y0032856D01*
X0270646Y0032922D01*
X0270708Y0032984D01*
X0270774Y0033044D01*
X0270841Y0033100D01*
X0270912Y0033154D01*
X0270984Y0033204D01*
X0271059Y0033251D01*
X0271136Y0033295D01*
X0271215Y0033335D01*
X0271295Y0033372D01*
X0271377Y0033404D01*
X0271461Y0033434D01*
X0271545Y0033459D01*
X0271631Y0033481D01*
X0271717Y0033498D01*
X0271805Y0033512D01*
X0271893Y0033522D01*
X0271981Y0033528D01*
X0272069Y0033530D01*
X0272157Y0033528D01*
X0272245Y0033522D01*
X0272333Y0033512D01*
X0272421Y0033498D01*
X0272507Y0033481D01*
X0272593Y0033459D01*
X0272677Y0033434D01*
X0272761Y0033404D01*
X0272843Y0033372D01*
X0272923Y0033335D01*
X0273002Y0033295D01*
X0273079Y0033251D01*
X0273154Y0033204D01*
X0273226Y0033154D01*
X0273297Y0033100D01*
X0273364Y0033044D01*
X0273430Y0032984D01*
X0273492Y0032922D01*
X0273552Y0032856D01*
X0273608Y0032789D01*
X0273662Y0032718D01*
X0273712Y0032646D01*
X0273759Y0032571D01*
X0273803Y0032494D01*
X0273843Y0032415D01*
X0273880Y0032335D01*
X0273912Y0032253D01*
X0273942Y0032169D01*
X0273967Y0032085D01*
X0273989Y0031999D01*
X0274006Y0031913D01*
X0274020Y0031825D01*
X0274030Y0031737D01*
X0274036Y0031649D01*
X0274038Y0031561D01*
X0274036Y0031473D01*
X0274030Y0031385D01*
X0274020Y0031297D01*
X0274006Y0031209D01*
X0273989Y0031123D01*
X0273967Y0031037D01*
X0273942Y0030953D01*
X0273912Y0030869D01*
X0273880Y0030787D01*
X0273843Y0030707D01*
X0273803Y0030628D01*
X0273759Y0030551D01*
X0273712Y0030476D01*
X0273662Y0030404D01*
X0273608Y0030333D01*
X0273552Y0030266D01*
X0273492Y0030200D01*
X0273430Y0030138D01*
X0273364Y0030078D01*
X0273297Y0030022D01*
X0273226Y0029968D01*
X0273154Y0029918D01*
X0273079Y0029871D01*
X0273002Y0029827D01*
X0272923Y0029787D01*
X0272843Y0029750D01*
X0272761Y0029718D01*
X0272677Y0029688D01*
X0272593Y0029663D01*
X0272507Y0029641D01*
X0272421Y0029624D01*
X0272333Y0029610D01*
X0272245Y0029600D01*
X0272157Y0029594D01*
X0272069Y0029592D01*
X0271981Y0029594D01*
X0271893Y0029600D01*
X0271805Y0029610D01*
X0271717Y0029624D01*
X0271631Y0029641D01*
X0271545Y0029663D01*
X0271461Y0029688D01*
X0271377Y0029718D01*
X0271295Y0029750D01*
X0271215Y0029787D01*
X0271136Y0029827D01*
X0271059Y0029871D01*
X0270984Y0029918D01*
X0270912Y0029968D01*
X0270841Y0030022D01*
X0270774Y0030078D01*
X0270708Y0030138D01*
X0270646Y0030200D01*
X0270586Y0030266D01*
X0270530Y0030333D01*
X0270476Y0030404D01*
X0270426Y0030476D01*
X0270379Y0030551D01*
X0270335Y0030628D01*
X0270295Y0030707D01*
X0270258Y0030787D01*
X0270226Y0030869D01*
X0270196Y0030953D01*
X0270171Y0031037D01*
X0270149Y0031123D01*
X0270132Y0031209D01*
X0270118Y0031297D01*
X0270108Y0031385D01*
X0270102Y0031473D01*
X0270100Y0031561D01*
X0272069Y0047309D02*
X0272071Y0047397D01*
X0272077Y0047485D01*
X0272087Y0047573D01*
X0272101Y0047661D01*
X0272118Y0047747D01*
X0272140Y0047833D01*
X0272165Y0047917D01*
X0272195Y0048001D01*
X0272227Y0048083D01*
X0272264Y0048163D01*
X0272304Y0048242D01*
X0272348Y0048319D01*
X0272395Y0048394D01*
X0272445Y0048466D01*
X0272499Y0048537D01*
X0272555Y0048604D01*
X0272615Y0048670D01*
X0272677Y0048732D01*
X0272743Y0048792D01*
X0272810Y0048848D01*
X0272881Y0048902D01*
X0272953Y0048952D01*
X0273028Y0048999D01*
X0273105Y0049043D01*
X0273184Y0049083D01*
X0273264Y0049120D01*
X0273346Y0049152D01*
X0273430Y0049182D01*
X0273514Y0049207D01*
X0273600Y0049229D01*
X0273686Y0049246D01*
X0273774Y0049260D01*
X0273862Y0049270D01*
X0273950Y0049276D01*
X0274038Y0049278D01*
X0274126Y0049276D01*
X0274214Y0049270D01*
X0274302Y0049260D01*
X0274390Y0049246D01*
X0274476Y0049229D01*
X0274562Y0049207D01*
X0274646Y0049182D01*
X0274730Y0049152D01*
X0274812Y0049120D01*
X0274892Y0049083D01*
X0274971Y0049043D01*
X0275048Y0048999D01*
X0275123Y0048952D01*
X0275195Y0048902D01*
X0275266Y0048848D01*
X0275333Y0048792D01*
X0275399Y0048732D01*
X0275461Y0048670D01*
X0275521Y0048604D01*
X0275577Y0048537D01*
X0275631Y0048466D01*
X0275681Y0048394D01*
X0275728Y0048319D01*
X0275772Y0048242D01*
X0275812Y0048163D01*
X0275849Y0048083D01*
X0275881Y0048001D01*
X0275911Y0047917D01*
X0275936Y0047833D01*
X0275958Y0047747D01*
X0275975Y0047661D01*
X0275989Y0047573D01*
X0275999Y0047485D01*
X0276005Y0047397D01*
X0276007Y0047309D01*
X0276005Y0047221D01*
X0275999Y0047133D01*
X0275989Y0047045D01*
X0275975Y0046957D01*
X0275958Y0046871D01*
X0275936Y0046785D01*
X0275911Y0046701D01*
X0275881Y0046617D01*
X0275849Y0046535D01*
X0275812Y0046455D01*
X0275772Y0046376D01*
X0275728Y0046299D01*
X0275681Y0046224D01*
X0275631Y0046152D01*
X0275577Y0046081D01*
X0275521Y0046014D01*
X0275461Y0045948D01*
X0275399Y0045886D01*
X0275333Y0045826D01*
X0275266Y0045770D01*
X0275195Y0045716D01*
X0275123Y0045666D01*
X0275048Y0045619D01*
X0274971Y0045575D01*
X0274892Y0045535D01*
X0274812Y0045498D01*
X0274730Y0045466D01*
X0274646Y0045436D01*
X0274562Y0045411D01*
X0274476Y0045389D01*
X0274390Y0045372D01*
X0274302Y0045358D01*
X0274214Y0045348D01*
X0274126Y0045342D01*
X0274038Y0045340D01*
X0273950Y0045342D01*
X0273862Y0045348D01*
X0273774Y0045358D01*
X0273686Y0045372D01*
X0273600Y0045389D01*
X0273514Y0045411D01*
X0273430Y0045436D01*
X0273346Y0045466D01*
X0273264Y0045498D01*
X0273184Y0045535D01*
X0273105Y0045575D01*
X0273028Y0045619D01*
X0272953Y0045666D01*
X0272881Y0045716D01*
X0272810Y0045770D01*
X0272743Y0045826D01*
X0272677Y0045886D01*
X0272615Y0045948D01*
X0272555Y0046014D01*
X0272499Y0046081D01*
X0272445Y0046152D01*
X0272395Y0046224D01*
X0272348Y0046299D01*
X0272304Y0046376D01*
X0272264Y0046455D01*
X0272227Y0046535D01*
X0272195Y0046617D01*
X0272165Y0046701D01*
X0272140Y0046785D01*
X0272118Y0046871D01*
X0272101Y0046957D01*
X0272087Y0047045D01*
X0272077Y0047133D01*
X0272071Y0047221D01*
X0272069Y0047309D01*
X0272069Y0070931D02*
X0272071Y0071019D01*
X0272077Y0071107D01*
X0272087Y0071195D01*
X0272101Y0071283D01*
X0272118Y0071369D01*
X0272140Y0071455D01*
X0272165Y0071539D01*
X0272195Y0071623D01*
X0272227Y0071705D01*
X0272264Y0071785D01*
X0272304Y0071864D01*
X0272348Y0071941D01*
X0272395Y0072016D01*
X0272445Y0072088D01*
X0272499Y0072159D01*
X0272555Y0072226D01*
X0272615Y0072292D01*
X0272677Y0072354D01*
X0272743Y0072414D01*
X0272810Y0072470D01*
X0272881Y0072524D01*
X0272953Y0072574D01*
X0273028Y0072621D01*
X0273105Y0072665D01*
X0273184Y0072705D01*
X0273264Y0072742D01*
X0273346Y0072774D01*
X0273430Y0072804D01*
X0273514Y0072829D01*
X0273600Y0072851D01*
X0273686Y0072868D01*
X0273774Y0072882D01*
X0273862Y0072892D01*
X0273950Y0072898D01*
X0274038Y0072900D01*
X0274126Y0072898D01*
X0274214Y0072892D01*
X0274302Y0072882D01*
X0274390Y0072868D01*
X0274476Y0072851D01*
X0274562Y0072829D01*
X0274646Y0072804D01*
X0274730Y0072774D01*
X0274812Y0072742D01*
X0274892Y0072705D01*
X0274971Y0072665D01*
X0275048Y0072621D01*
X0275123Y0072574D01*
X0275195Y0072524D01*
X0275266Y0072470D01*
X0275333Y0072414D01*
X0275399Y0072354D01*
X0275461Y0072292D01*
X0275521Y0072226D01*
X0275577Y0072159D01*
X0275631Y0072088D01*
X0275681Y0072016D01*
X0275728Y0071941D01*
X0275772Y0071864D01*
X0275812Y0071785D01*
X0275849Y0071705D01*
X0275881Y0071623D01*
X0275911Y0071539D01*
X0275936Y0071455D01*
X0275958Y0071369D01*
X0275975Y0071283D01*
X0275989Y0071195D01*
X0275999Y0071107D01*
X0276005Y0071019D01*
X0276007Y0070931D01*
X0276005Y0070843D01*
X0275999Y0070755D01*
X0275989Y0070667D01*
X0275975Y0070579D01*
X0275958Y0070493D01*
X0275936Y0070407D01*
X0275911Y0070323D01*
X0275881Y0070239D01*
X0275849Y0070157D01*
X0275812Y0070077D01*
X0275772Y0069998D01*
X0275728Y0069921D01*
X0275681Y0069846D01*
X0275631Y0069774D01*
X0275577Y0069703D01*
X0275521Y0069636D01*
X0275461Y0069570D01*
X0275399Y0069508D01*
X0275333Y0069448D01*
X0275266Y0069392D01*
X0275195Y0069338D01*
X0275123Y0069288D01*
X0275048Y0069241D01*
X0274971Y0069197D01*
X0274892Y0069157D01*
X0274812Y0069120D01*
X0274730Y0069088D01*
X0274646Y0069058D01*
X0274562Y0069033D01*
X0274476Y0069011D01*
X0274390Y0068994D01*
X0274302Y0068980D01*
X0274214Y0068970D01*
X0274126Y0068964D01*
X0274038Y0068962D01*
X0273950Y0068964D01*
X0273862Y0068970D01*
X0273774Y0068980D01*
X0273686Y0068994D01*
X0273600Y0069011D01*
X0273514Y0069033D01*
X0273430Y0069058D01*
X0273346Y0069088D01*
X0273264Y0069120D01*
X0273184Y0069157D01*
X0273105Y0069197D01*
X0273028Y0069241D01*
X0272953Y0069288D01*
X0272881Y0069338D01*
X0272810Y0069392D01*
X0272743Y0069448D01*
X0272677Y0069508D01*
X0272615Y0069570D01*
X0272555Y0069636D01*
X0272499Y0069703D01*
X0272445Y0069774D01*
X0272395Y0069846D01*
X0272348Y0069921D01*
X0272304Y0069998D01*
X0272264Y0070077D01*
X0272227Y0070157D01*
X0272195Y0070239D01*
X0272165Y0070323D01*
X0272140Y0070407D01*
X0272118Y0070493D01*
X0272101Y0070579D01*
X0272087Y0070667D01*
X0272077Y0070755D01*
X0272071Y0070843D01*
X0272069Y0070931D01*
X0270100Y0086679D02*
X0270102Y0086767D01*
X0270108Y0086855D01*
X0270118Y0086943D01*
X0270132Y0087031D01*
X0270149Y0087117D01*
X0270171Y0087203D01*
X0270196Y0087287D01*
X0270226Y0087371D01*
X0270258Y0087453D01*
X0270295Y0087533D01*
X0270335Y0087612D01*
X0270379Y0087689D01*
X0270426Y0087764D01*
X0270476Y0087836D01*
X0270530Y0087907D01*
X0270586Y0087974D01*
X0270646Y0088040D01*
X0270708Y0088102D01*
X0270774Y0088162D01*
X0270841Y0088218D01*
X0270912Y0088272D01*
X0270984Y0088322D01*
X0271059Y0088369D01*
X0271136Y0088413D01*
X0271215Y0088453D01*
X0271295Y0088490D01*
X0271377Y0088522D01*
X0271461Y0088552D01*
X0271545Y0088577D01*
X0271631Y0088599D01*
X0271717Y0088616D01*
X0271805Y0088630D01*
X0271893Y0088640D01*
X0271981Y0088646D01*
X0272069Y0088648D01*
X0272157Y0088646D01*
X0272245Y0088640D01*
X0272333Y0088630D01*
X0272421Y0088616D01*
X0272507Y0088599D01*
X0272593Y0088577D01*
X0272677Y0088552D01*
X0272761Y0088522D01*
X0272843Y0088490D01*
X0272923Y0088453D01*
X0273002Y0088413D01*
X0273079Y0088369D01*
X0273154Y0088322D01*
X0273226Y0088272D01*
X0273297Y0088218D01*
X0273364Y0088162D01*
X0273430Y0088102D01*
X0273492Y0088040D01*
X0273552Y0087974D01*
X0273608Y0087907D01*
X0273662Y0087836D01*
X0273712Y0087764D01*
X0273759Y0087689D01*
X0273803Y0087612D01*
X0273843Y0087533D01*
X0273880Y0087453D01*
X0273912Y0087371D01*
X0273942Y0087287D01*
X0273967Y0087203D01*
X0273989Y0087117D01*
X0274006Y0087031D01*
X0274020Y0086943D01*
X0274030Y0086855D01*
X0274036Y0086767D01*
X0274038Y0086679D01*
X0274036Y0086591D01*
X0274030Y0086503D01*
X0274020Y0086415D01*
X0274006Y0086327D01*
X0273989Y0086241D01*
X0273967Y0086155D01*
X0273942Y0086071D01*
X0273912Y0085987D01*
X0273880Y0085905D01*
X0273843Y0085825D01*
X0273803Y0085746D01*
X0273759Y0085669D01*
X0273712Y0085594D01*
X0273662Y0085522D01*
X0273608Y0085451D01*
X0273552Y0085384D01*
X0273492Y0085318D01*
X0273430Y0085256D01*
X0273364Y0085196D01*
X0273297Y0085140D01*
X0273226Y0085086D01*
X0273154Y0085036D01*
X0273079Y0084989D01*
X0273002Y0084945D01*
X0272923Y0084905D01*
X0272843Y0084868D01*
X0272761Y0084836D01*
X0272677Y0084806D01*
X0272593Y0084781D01*
X0272507Y0084759D01*
X0272421Y0084742D01*
X0272333Y0084728D01*
X0272245Y0084718D01*
X0272157Y0084712D01*
X0272069Y0084710D01*
X0271981Y0084712D01*
X0271893Y0084718D01*
X0271805Y0084728D01*
X0271717Y0084742D01*
X0271631Y0084759D01*
X0271545Y0084781D01*
X0271461Y0084806D01*
X0271377Y0084836D01*
X0271295Y0084868D01*
X0271215Y0084905D01*
X0271136Y0084945D01*
X0271059Y0084989D01*
X0270984Y0085036D01*
X0270912Y0085086D01*
X0270841Y0085140D01*
X0270774Y0085196D01*
X0270708Y0085256D01*
X0270646Y0085318D01*
X0270586Y0085384D01*
X0270530Y0085451D01*
X0270476Y0085522D01*
X0270426Y0085594D01*
X0270379Y0085669D01*
X0270335Y0085746D01*
X0270295Y0085825D01*
X0270258Y0085905D01*
X0270226Y0085987D01*
X0270196Y0086071D01*
X0270171Y0086155D01*
X0270149Y0086241D01*
X0270132Y0086327D01*
X0270118Y0086415D01*
X0270108Y0086503D01*
X0270102Y0086591D01*
X0270100Y0086679D01*
D12*
X0272069Y0086679D03*
X0274038Y0070931D03*
X0274038Y0047309D03*
X0272069Y0031561D03*
X0098841Y0031561D03*
X0077187Y0031561D03*
X0008290Y0031561D03*
X0006321Y0047309D03*
X0006321Y0070931D03*
X0008290Y0086679D03*
D13*
X0039786Y0027624D02*
X0059471Y0027624D01*
X0061439Y0025656D01*
X0039786Y0027624D02*
X0037817Y0025656D01*
X0110652Y0025656D02*
X0112620Y0027624D01*
X0132306Y0027624D01*
X0134274Y0025656D01*
X0146085Y0025656D02*
X0148054Y0027624D01*
X0167739Y0027624D01*
X0169707Y0025656D01*
X0181518Y0025656D02*
X0183487Y0027624D01*
X0203172Y0027624D01*
X0205140Y0025656D01*
X0216951Y0025656D02*
X0218920Y0027624D01*
X0238605Y0027624D01*
X0240573Y0025656D01*
D14*
X0238908Y0052821D03*
X0218617Y0052821D03*
X0203475Y0052821D03*
X0183183Y0052821D03*
X0168042Y0052821D03*
X0147750Y0052821D03*
X0132609Y0052821D03*
X0112317Y0052821D03*
X0097176Y0052821D03*
X0076884Y0052821D03*
X0061743Y0052821D03*
X0041451Y0052821D03*
X0041451Y0065419D03*
X0061743Y0065419D03*
X0076884Y0065419D03*
X0097176Y0065419D03*
X0112317Y0065419D03*
X0132609Y0065419D03*
X0147750Y0065419D03*
X0168042Y0065419D03*
X0183183Y0065419D03*
X0203475Y0065419D03*
X0218617Y0065419D03*
X0238908Y0065419D03*
D15*
X0236636Y0031049D03*
X0220888Y0031049D03*
X0201203Y0031049D03*
X0185455Y0031049D03*
X0165770Y0031049D03*
X0150022Y0031049D03*
X0130337Y0031049D03*
X0114589Y0031049D03*
X0057502Y0031049D03*
X0041754Y0031049D03*
D16*
X0049628Y0033530D03*
X0122463Y0033530D03*
X0157896Y0033530D03*
X0193329Y0033530D03*
X0228762Y0033530D03*
D17*
X0228762Y0028608D03*
X0193329Y0028608D03*
X0157896Y0028608D03*
X0122463Y0028608D03*
X0049628Y0028608D03*
D18*
X0014195Y0044199D03*
X0014195Y0054199D03*
X0014195Y0063884D03*
X0014195Y0073884D03*
X0266164Y0073884D03*
X0266164Y0063884D03*
X0266164Y0054199D03*
X0266164Y0044199D03*
D19*
X0049431Y0045341D03*
X0041951Y0045341D03*
D20*
X0044313Y0077774D02*
X0044313Y0083774D01*
X0054313Y0083774D02*
X0054313Y0077774D01*
X0064313Y0077774D02*
X0064313Y0083774D01*
X0074313Y0083774D02*
X0074313Y0077774D01*
X0084313Y0077774D02*
X0084313Y0083774D01*
X0094313Y0083774D02*
X0094313Y0077774D01*
D21*
X0120494Y0072900D03*
X0148054Y0068963D03*
X0116557Y0057152D03*
X0136243Y0049278D03*
X0171676Y0053215D03*
X0203172Y0049278D03*
X0238605Y0049278D03*
X0228762Y0065026D03*
X0203172Y0070931D03*
X0185455Y0065026D03*
X0232699Y0082742D03*
X0057502Y0053215D03*
X0033880Y0065026D03*
D22*
X0087030Y0049278D03*
X0088014Y0041404D03*
X0116557Y0041404D03*
X0141164Y0050262D03*
X0167739Y0047309D03*
X0147069Y0037467D03*
X0167739Y0036482D03*
X0197266Y0048293D03*
X0210061Y0045341D03*
X0217935Y0037467D03*
X0238605Y0036482D03*
X0152975Y0059120D03*
X0126400Y0063057D03*
X0151006Y0072900D03*
X0157896Y0078805D03*
X0178565Y0081758D03*
X0206124Y0075852D03*
X0212030Y0081758D03*
X0226794Y0069947D03*
X0252384Y0066994D03*
X0129353Y0075852D03*
X0116557Y0075852D03*
X0104746Y0081758D03*
M02*
