G75*
%MOIN*%
%OFA0B0*%
%FSLAX25Y25*%
%IPPOS*%
%LPD*%
%AMOC8*
5,1,8,0,0,1.08239X$1,22.5*
%
%ADD10C,0.01600*%
%ADD11C,0.00000*%
%ADD12C,0.01200*%
%ADD13C,0.00400*%
%ADD14C,0.00200*%
%ADD15C,0.00500*%
%ADD16C,0.00600*%
%ADD17R,0.02362X0.04488*%
%ADD18R,0.03937X0.03465*%
%ADD19C,0.00800*%
%ADD20R,0.03937X0.00787*%
D10*
X0008290Y0025656D02*
X0014195Y0025656D01*
X0014195Y0033530D01*
X0026006Y0033530D01*
X0026006Y0025656D01*
X0037817Y0025656D01*
X0061439Y0025656D02*
X0110652Y0025656D01*
X0134274Y0025656D02*
X0146085Y0025656D01*
X0169707Y0025656D02*
X0181518Y0025656D01*
X0205140Y0025656D02*
X0216951Y0025656D01*
X0240573Y0025656D02*
X0254353Y0025656D01*
X0254353Y0033530D01*
X0266164Y0033530D01*
X0266164Y0025656D01*
X0272069Y0025656D01*
X0272069Y0025655D02*
X0272221Y0025657D01*
X0272373Y0025663D01*
X0272525Y0025673D01*
X0272676Y0025686D01*
X0272827Y0025704D01*
X0272978Y0025725D01*
X0273128Y0025751D01*
X0273277Y0025780D01*
X0273426Y0025813D01*
X0273573Y0025850D01*
X0273720Y0025890D01*
X0273865Y0025935D01*
X0274009Y0025983D01*
X0274152Y0026035D01*
X0274294Y0026090D01*
X0274434Y0026149D01*
X0274573Y0026212D01*
X0274710Y0026278D01*
X0274845Y0026348D01*
X0274978Y0026421D01*
X0275109Y0026498D01*
X0275239Y0026578D01*
X0275366Y0026661D01*
X0275491Y0026747D01*
X0275614Y0026837D01*
X0275734Y0026930D01*
X0275852Y0027026D01*
X0275968Y0027125D01*
X0276081Y0027227D01*
X0276191Y0027331D01*
X0276299Y0027439D01*
X0276403Y0027549D01*
X0276505Y0027662D01*
X0276604Y0027778D01*
X0276700Y0027896D01*
X0276793Y0028016D01*
X0276883Y0028139D01*
X0276969Y0028264D01*
X0277052Y0028391D01*
X0277132Y0028521D01*
X0277209Y0028652D01*
X0277282Y0028785D01*
X0277352Y0028920D01*
X0277418Y0029057D01*
X0277481Y0029196D01*
X0277540Y0029336D01*
X0277595Y0029478D01*
X0277647Y0029621D01*
X0277695Y0029765D01*
X0277740Y0029910D01*
X0277780Y0030057D01*
X0277817Y0030204D01*
X0277850Y0030353D01*
X0277879Y0030502D01*
X0277905Y0030652D01*
X0277926Y0030803D01*
X0277944Y0030954D01*
X0277957Y0031105D01*
X0277967Y0031257D01*
X0277973Y0031409D01*
X0277975Y0031561D01*
X0277975Y0086679D01*
X0277973Y0086831D01*
X0277967Y0086983D01*
X0277957Y0087135D01*
X0277944Y0087286D01*
X0277926Y0087437D01*
X0277905Y0087588D01*
X0277879Y0087738D01*
X0277850Y0087887D01*
X0277817Y0088036D01*
X0277780Y0088183D01*
X0277740Y0088330D01*
X0277695Y0088475D01*
X0277647Y0088619D01*
X0277595Y0088762D01*
X0277540Y0088904D01*
X0277481Y0089044D01*
X0277418Y0089183D01*
X0277352Y0089320D01*
X0277282Y0089455D01*
X0277209Y0089588D01*
X0277132Y0089719D01*
X0277052Y0089849D01*
X0276969Y0089976D01*
X0276883Y0090101D01*
X0276793Y0090224D01*
X0276700Y0090344D01*
X0276604Y0090462D01*
X0276505Y0090578D01*
X0276403Y0090691D01*
X0276299Y0090801D01*
X0276191Y0090909D01*
X0276081Y0091013D01*
X0275968Y0091115D01*
X0275852Y0091214D01*
X0275734Y0091310D01*
X0275614Y0091403D01*
X0275491Y0091493D01*
X0275366Y0091579D01*
X0275239Y0091662D01*
X0275109Y0091742D01*
X0274978Y0091819D01*
X0274845Y0091892D01*
X0274710Y0091962D01*
X0274573Y0092028D01*
X0274434Y0092091D01*
X0274294Y0092150D01*
X0274152Y0092205D01*
X0274009Y0092257D01*
X0273865Y0092305D01*
X0273720Y0092350D01*
X0273573Y0092390D01*
X0273426Y0092427D01*
X0273277Y0092460D01*
X0273128Y0092489D01*
X0272978Y0092515D01*
X0272827Y0092536D01*
X0272676Y0092554D01*
X0272525Y0092567D01*
X0272373Y0092577D01*
X0272221Y0092583D01*
X0272069Y0092585D01*
X0266164Y0092585D01*
X0266164Y0084711D01*
X0254353Y0084711D01*
X0254353Y0092585D01*
X0026006Y0092585D01*
X0026006Y0084711D01*
X0014195Y0084711D01*
X0014195Y0092585D01*
X0008290Y0092585D01*
X0008138Y0092583D01*
X0007986Y0092577D01*
X0007834Y0092567D01*
X0007683Y0092554D01*
X0007532Y0092536D01*
X0007381Y0092515D01*
X0007231Y0092489D01*
X0007082Y0092460D01*
X0006933Y0092427D01*
X0006786Y0092390D01*
X0006639Y0092350D01*
X0006494Y0092305D01*
X0006350Y0092257D01*
X0006207Y0092205D01*
X0006065Y0092150D01*
X0005925Y0092091D01*
X0005786Y0092028D01*
X0005649Y0091962D01*
X0005514Y0091892D01*
X0005381Y0091819D01*
X0005250Y0091742D01*
X0005120Y0091662D01*
X0004993Y0091579D01*
X0004868Y0091493D01*
X0004745Y0091403D01*
X0004625Y0091310D01*
X0004507Y0091214D01*
X0004391Y0091115D01*
X0004278Y0091013D01*
X0004168Y0090909D01*
X0004060Y0090801D01*
X0003956Y0090691D01*
X0003854Y0090578D01*
X0003755Y0090462D01*
X0003659Y0090344D01*
X0003566Y0090224D01*
X0003476Y0090101D01*
X0003390Y0089976D01*
X0003307Y0089849D01*
X0003227Y0089719D01*
X0003150Y0089588D01*
X0003077Y0089455D01*
X0003007Y0089320D01*
X0002941Y0089183D01*
X0002878Y0089044D01*
X0002819Y0088904D01*
X0002764Y0088762D01*
X0002712Y0088619D01*
X0002664Y0088475D01*
X0002619Y0088330D01*
X0002579Y0088183D01*
X0002542Y0088036D01*
X0002509Y0087887D01*
X0002480Y0087738D01*
X0002454Y0087588D01*
X0002433Y0087437D01*
X0002415Y0087286D01*
X0002402Y0087135D01*
X0002392Y0086983D01*
X0002386Y0086831D01*
X0002384Y0086679D01*
X0002384Y0031561D01*
X0002386Y0031409D01*
X0002392Y0031257D01*
X0002402Y0031105D01*
X0002415Y0030954D01*
X0002433Y0030803D01*
X0002454Y0030652D01*
X0002480Y0030502D01*
X0002509Y0030353D01*
X0002542Y0030204D01*
X0002579Y0030057D01*
X0002619Y0029910D01*
X0002664Y0029765D01*
X0002712Y0029621D01*
X0002764Y0029478D01*
X0002819Y0029336D01*
X0002878Y0029196D01*
X0002941Y0029057D01*
X0003007Y0028920D01*
X0003077Y0028785D01*
X0003150Y0028652D01*
X0003227Y0028521D01*
X0003307Y0028391D01*
X0003390Y0028264D01*
X0003476Y0028139D01*
X0003566Y0028016D01*
X0003659Y0027896D01*
X0003755Y0027778D01*
X0003854Y0027662D01*
X0003956Y0027549D01*
X0004060Y0027439D01*
X0004168Y0027331D01*
X0004278Y0027227D01*
X0004391Y0027125D01*
X0004507Y0027026D01*
X0004625Y0026930D01*
X0004745Y0026837D01*
X0004868Y0026747D01*
X0004993Y0026661D01*
X0005120Y0026578D01*
X0005250Y0026498D01*
X0005381Y0026421D01*
X0005514Y0026348D01*
X0005649Y0026278D01*
X0005786Y0026212D01*
X0005925Y0026149D01*
X0006065Y0026090D01*
X0006207Y0026035D01*
X0006350Y0025983D01*
X0006494Y0025935D01*
X0006639Y0025890D01*
X0006786Y0025850D01*
X0006933Y0025813D01*
X0007082Y0025780D01*
X0007231Y0025751D01*
X0007381Y0025725D01*
X0007532Y0025704D01*
X0007683Y0025686D01*
X0007834Y0025673D01*
X0007986Y0025663D01*
X0008138Y0025657D01*
X0008290Y0025655D01*
D11*
X0006321Y0031561D02*
X0006323Y0031649D01*
X0006329Y0031737D01*
X0006339Y0031825D01*
X0006353Y0031913D01*
X0006370Y0031999D01*
X0006392Y0032085D01*
X0006417Y0032169D01*
X0006447Y0032253D01*
X0006479Y0032335D01*
X0006516Y0032415D01*
X0006556Y0032494D01*
X0006600Y0032571D01*
X0006647Y0032646D01*
X0006697Y0032718D01*
X0006751Y0032789D01*
X0006807Y0032856D01*
X0006867Y0032922D01*
X0006929Y0032984D01*
X0006995Y0033044D01*
X0007062Y0033100D01*
X0007133Y0033154D01*
X0007205Y0033204D01*
X0007280Y0033251D01*
X0007357Y0033295D01*
X0007436Y0033335D01*
X0007516Y0033372D01*
X0007598Y0033404D01*
X0007682Y0033434D01*
X0007766Y0033459D01*
X0007852Y0033481D01*
X0007938Y0033498D01*
X0008026Y0033512D01*
X0008114Y0033522D01*
X0008202Y0033528D01*
X0008290Y0033530D01*
X0008378Y0033528D01*
X0008466Y0033522D01*
X0008554Y0033512D01*
X0008642Y0033498D01*
X0008728Y0033481D01*
X0008814Y0033459D01*
X0008898Y0033434D01*
X0008982Y0033404D01*
X0009064Y0033372D01*
X0009144Y0033335D01*
X0009223Y0033295D01*
X0009300Y0033251D01*
X0009375Y0033204D01*
X0009447Y0033154D01*
X0009518Y0033100D01*
X0009585Y0033044D01*
X0009651Y0032984D01*
X0009713Y0032922D01*
X0009773Y0032856D01*
X0009829Y0032789D01*
X0009883Y0032718D01*
X0009933Y0032646D01*
X0009980Y0032571D01*
X0010024Y0032494D01*
X0010064Y0032415D01*
X0010101Y0032335D01*
X0010133Y0032253D01*
X0010163Y0032169D01*
X0010188Y0032085D01*
X0010210Y0031999D01*
X0010227Y0031913D01*
X0010241Y0031825D01*
X0010251Y0031737D01*
X0010257Y0031649D01*
X0010259Y0031561D01*
X0010257Y0031473D01*
X0010251Y0031385D01*
X0010241Y0031297D01*
X0010227Y0031209D01*
X0010210Y0031123D01*
X0010188Y0031037D01*
X0010163Y0030953D01*
X0010133Y0030869D01*
X0010101Y0030787D01*
X0010064Y0030707D01*
X0010024Y0030628D01*
X0009980Y0030551D01*
X0009933Y0030476D01*
X0009883Y0030404D01*
X0009829Y0030333D01*
X0009773Y0030266D01*
X0009713Y0030200D01*
X0009651Y0030138D01*
X0009585Y0030078D01*
X0009518Y0030022D01*
X0009447Y0029968D01*
X0009375Y0029918D01*
X0009300Y0029871D01*
X0009223Y0029827D01*
X0009144Y0029787D01*
X0009064Y0029750D01*
X0008982Y0029718D01*
X0008898Y0029688D01*
X0008814Y0029663D01*
X0008728Y0029641D01*
X0008642Y0029624D01*
X0008554Y0029610D01*
X0008466Y0029600D01*
X0008378Y0029594D01*
X0008290Y0029592D01*
X0008202Y0029594D01*
X0008114Y0029600D01*
X0008026Y0029610D01*
X0007938Y0029624D01*
X0007852Y0029641D01*
X0007766Y0029663D01*
X0007682Y0029688D01*
X0007598Y0029718D01*
X0007516Y0029750D01*
X0007436Y0029787D01*
X0007357Y0029827D01*
X0007280Y0029871D01*
X0007205Y0029918D01*
X0007133Y0029968D01*
X0007062Y0030022D01*
X0006995Y0030078D01*
X0006929Y0030138D01*
X0006867Y0030200D01*
X0006807Y0030266D01*
X0006751Y0030333D01*
X0006697Y0030404D01*
X0006647Y0030476D01*
X0006600Y0030551D01*
X0006556Y0030628D01*
X0006516Y0030707D01*
X0006479Y0030787D01*
X0006447Y0030869D01*
X0006417Y0030953D01*
X0006392Y0031037D01*
X0006370Y0031123D01*
X0006353Y0031209D01*
X0006339Y0031297D01*
X0006329Y0031385D01*
X0006323Y0031473D01*
X0006321Y0031561D01*
X0004352Y0047309D02*
X0004354Y0047397D01*
X0004360Y0047485D01*
X0004370Y0047573D01*
X0004384Y0047661D01*
X0004401Y0047747D01*
X0004423Y0047833D01*
X0004448Y0047917D01*
X0004478Y0048001D01*
X0004510Y0048083D01*
X0004547Y0048163D01*
X0004587Y0048242D01*
X0004631Y0048319D01*
X0004678Y0048394D01*
X0004728Y0048466D01*
X0004782Y0048537D01*
X0004838Y0048604D01*
X0004898Y0048670D01*
X0004960Y0048732D01*
X0005026Y0048792D01*
X0005093Y0048848D01*
X0005164Y0048902D01*
X0005236Y0048952D01*
X0005311Y0048999D01*
X0005388Y0049043D01*
X0005467Y0049083D01*
X0005547Y0049120D01*
X0005629Y0049152D01*
X0005713Y0049182D01*
X0005797Y0049207D01*
X0005883Y0049229D01*
X0005969Y0049246D01*
X0006057Y0049260D01*
X0006145Y0049270D01*
X0006233Y0049276D01*
X0006321Y0049278D01*
X0006409Y0049276D01*
X0006497Y0049270D01*
X0006585Y0049260D01*
X0006673Y0049246D01*
X0006759Y0049229D01*
X0006845Y0049207D01*
X0006929Y0049182D01*
X0007013Y0049152D01*
X0007095Y0049120D01*
X0007175Y0049083D01*
X0007254Y0049043D01*
X0007331Y0048999D01*
X0007406Y0048952D01*
X0007478Y0048902D01*
X0007549Y0048848D01*
X0007616Y0048792D01*
X0007682Y0048732D01*
X0007744Y0048670D01*
X0007804Y0048604D01*
X0007860Y0048537D01*
X0007914Y0048466D01*
X0007964Y0048394D01*
X0008011Y0048319D01*
X0008055Y0048242D01*
X0008095Y0048163D01*
X0008132Y0048083D01*
X0008164Y0048001D01*
X0008194Y0047917D01*
X0008219Y0047833D01*
X0008241Y0047747D01*
X0008258Y0047661D01*
X0008272Y0047573D01*
X0008282Y0047485D01*
X0008288Y0047397D01*
X0008290Y0047309D01*
X0008288Y0047221D01*
X0008282Y0047133D01*
X0008272Y0047045D01*
X0008258Y0046957D01*
X0008241Y0046871D01*
X0008219Y0046785D01*
X0008194Y0046701D01*
X0008164Y0046617D01*
X0008132Y0046535D01*
X0008095Y0046455D01*
X0008055Y0046376D01*
X0008011Y0046299D01*
X0007964Y0046224D01*
X0007914Y0046152D01*
X0007860Y0046081D01*
X0007804Y0046014D01*
X0007744Y0045948D01*
X0007682Y0045886D01*
X0007616Y0045826D01*
X0007549Y0045770D01*
X0007478Y0045716D01*
X0007406Y0045666D01*
X0007331Y0045619D01*
X0007254Y0045575D01*
X0007175Y0045535D01*
X0007095Y0045498D01*
X0007013Y0045466D01*
X0006929Y0045436D01*
X0006845Y0045411D01*
X0006759Y0045389D01*
X0006673Y0045372D01*
X0006585Y0045358D01*
X0006497Y0045348D01*
X0006409Y0045342D01*
X0006321Y0045340D01*
X0006233Y0045342D01*
X0006145Y0045348D01*
X0006057Y0045358D01*
X0005969Y0045372D01*
X0005883Y0045389D01*
X0005797Y0045411D01*
X0005713Y0045436D01*
X0005629Y0045466D01*
X0005547Y0045498D01*
X0005467Y0045535D01*
X0005388Y0045575D01*
X0005311Y0045619D01*
X0005236Y0045666D01*
X0005164Y0045716D01*
X0005093Y0045770D01*
X0005026Y0045826D01*
X0004960Y0045886D01*
X0004898Y0045948D01*
X0004838Y0046014D01*
X0004782Y0046081D01*
X0004728Y0046152D01*
X0004678Y0046224D01*
X0004631Y0046299D01*
X0004587Y0046376D01*
X0004547Y0046455D01*
X0004510Y0046535D01*
X0004478Y0046617D01*
X0004448Y0046701D01*
X0004423Y0046785D01*
X0004401Y0046871D01*
X0004384Y0046957D01*
X0004370Y0047045D01*
X0004360Y0047133D01*
X0004354Y0047221D01*
X0004352Y0047309D01*
X0004352Y0070931D02*
X0004354Y0071019D01*
X0004360Y0071107D01*
X0004370Y0071195D01*
X0004384Y0071283D01*
X0004401Y0071369D01*
X0004423Y0071455D01*
X0004448Y0071539D01*
X0004478Y0071623D01*
X0004510Y0071705D01*
X0004547Y0071785D01*
X0004587Y0071864D01*
X0004631Y0071941D01*
X0004678Y0072016D01*
X0004728Y0072088D01*
X0004782Y0072159D01*
X0004838Y0072226D01*
X0004898Y0072292D01*
X0004960Y0072354D01*
X0005026Y0072414D01*
X0005093Y0072470D01*
X0005164Y0072524D01*
X0005236Y0072574D01*
X0005311Y0072621D01*
X0005388Y0072665D01*
X0005467Y0072705D01*
X0005547Y0072742D01*
X0005629Y0072774D01*
X0005713Y0072804D01*
X0005797Y0072829D01*
X0005883Y0072851D01*
X0005969Y0072868D01*
X0006057Y0072882D01*
X0006145Y0072892D01*
X0006233Y0072898D01*
X0006321Y0072900D01*
X0006409Y0072898D01*
X0006497Y0072892D01*
X0006585Y0072882D01*
X0006673Y0072868D01*
X0006759Y0072851D01*
X0006845Y0072829D01*
X0006929Y0072804D01*
X0007013Y0072774D01*
X0007095Y0072742D01*
X0007175Y0072705D01*
X0007254Y0072665D01*
X0007331Y0072621D01*
X0007406Y0072574D01*
X0007478Y0072524D01*
X0007549Y0072470D01*
X0007616Y0072414D01*
X0007682Y0072354D01*
X0007744Y0072292D01*
X0007804Y0072226D01*
X0007860Y0072159D01*
X0007914Y0072088D01*
X0007964Y0072016D01*
X0008011Y0071941D01*
X0008055Y0071864D01*
X0008095Y0071785D01*
X0008132Y0071705D01*
X0008164Y0071623D01*
X0008194Y0071539D01*
X0008219Y0071455D01*
X0008241Y0071369D01*
X0008258Y0071283D01*
X0008272Y0071195D01*
X0008282Y0071107D01*
X0008288Y0071019D01*
X0008290Y0070931D01*
X0008288Y0070843D01*
X0008282Y0070755D01*
X0008272Y0070667D01*
X0008258Y0070579D01*
X0008241Y0070493D01*
X0008219Y0070407D01*
X0008194Y0070323D01*
X0008164Y0070239D01*
X0008132Y0070157D01*
X0008095Y0070077D01*
X0008055Y0069998D01*
X0008011Y0069921D01*
X0007964Y0069846D01*
X0007914Y0069774D01*
X0007860Y0069703D01*
X0007804Y0069636D01*
X0007744Y0069570D01*
X0007682Y0069508D01*
X0007616Y0069448D01*
X0007549Y0069392D01*
X0007478Y0069338D01*
X0007406Y0069288D01*
X0007331Y0069241D01*
X0007254Y0069197D01*
X0007175Y0069157D01*
X0007095Y0069120D01*
X0007013Y0069088D01*
X0006929Y0069058D01*
X0006845Y0069033D01*
X0006759Y0069011D01*
X0006673Y0068994D01*
X0006585Y0068980D01*
X0006497Y0068970D01*
X0006409Y0068964D01*
X0006321Y0068962D01*
X0006233Y0068964D01*
X0006145Y0068970D01*
X0006057Y0068980D01*
X0005969Y0068994D01*
X0005883Y0069011D01*
X0005797Y0069033D01*
X0005713Y0069058D01*
X0005629Y0069088D01*
X0005547Y0069120D01*
X0005467Y0069157D01*
X0005388Y0069197D01*
X0005311Y0069241D01*
X0005236Y0069288D01*
X0005164Y0069338D01*
X0005093Y0069392D01*
X0005026Y0069448D01*
X0004960Y0069508D01*
X0004898Y0069570D01*
X0004838Y0069636D01*
X0004782Y0069703D01*
X0004728Y0069774D01*
X0004678Y0069846D01*
X0004631Y0069921D01*
X0004587Y0069998D01*
X0004547Y0070077D01*
X0004510Y0070157D01*
X0004478Y0070239D01*
X0004448Y0070323D01*
X0004423Y0070407D01*
X0004401Y0070493D01*
X0004384Y0070579D01*
X0004370Y0070667D01*
X0004360Y0070755D01*
X0004354Y0070843D01*
X0004352Y0070931D01*
X0006321Y0086679D02*
X0006323Y0086767D01*
X0006329Y0086855D01*
X0006339Y0086943D01*
X0006353Y0087031D01*
X0006370Y0087117D01*
X0006392Y0087203D01*
X0006417Y0087287D01*
X0006447Y0087371D01*
X0006479Y0087453D01*
X0006516Y0087533D01*
X0006556Y0087612D01*
X0006600Y0087689D01*
X0006647Y0087764D01*
X0006697Y0087836D01*
X0006751Y0087907D01*
X0006807Y0087974D01*
X0006867Y0088040D01*
X0006929Y0088102D01*
X0006995Y0088162D01*
X0007062Y0088218D01*
X0007133Y0088272D01*
X0007205Y0088322D01*
X0007280Y0088369D01*
X0007357Y0088413D01*
X0007436Y0088453D01*
X0007516Y0088490D01*
X0007598Y0088522D01*
X0007682Y0088552D01*
X0007766Y0088577D01*
X0007852Y0088599D01*
X0007938Y0088616D01*
X0008026Y0088630D01*
X0008114Y0088640D01*
X0008202Y0088646D01*
X0008290Y0088648D01*
X0008378Y0088646D01*
X0008466Y0088640D01*
X0008554Y0088630D01*
X0008642Y0088616D01*
X0008728Y0088599D01*
X0008814Y0088577D01*
X0008898Y0088552D01*
X0008982Y0088522D01*
X0009064Y0088490D01*
X0009144Y0088453D01*
X0009223Y0088413D01*
X0009300Y0088369D01*
X0009375Y0088322D01*
X0009447Y0088272D01*
X0009518Y0088218D01*
X0009585Y0088162D01*
X0009651Y0088102D01*
X0009713Y0088040D01*
X0009773Y0087974D01*
X0009829Y0087907D01*
X0009883Y0087836D01*
X0009933Y0087764D01*
X0009980Y0087689D01*
X0010024Y0087612D01*
X0010064Y0087533D01*
X0010101Y0087453D01*
X0010133Y0087371D01*
X0010163Y0087287D01*
X0010188Y0087203D01*
X0010210Y0087117D01*
X0010227Y0087031D01*
X0010241Y0086943D01*
X0010251Y0086855D01*
X0010257Y0086767D01*
X0010259Y0086679D01*
X0010257Y0086591D01*
X0010251Y0086503D01*
X0010241Y0086415D01*
X0010227Y0086327D01*
X0010210Y0086241D01*
X0010188Y0086155D01*
X0010163Y0086071D01*
X0010133Y0085987D01*
X0010101Y0085905D01*
X0010064Y0085825D01*
X0010024Y0085746D01*
X0009980Y0085669D01*
X0009933Y0085594D01*
X0009883Y0085522D01*
X0009829Y0085451D01*
X0009773Y0085384D01*
X0009713Y0085318D01*
X0009651Y0085256D01*
X0009585Y0085196D01*
X0009518Y0085140D01*
X0009447Y0085086D01*
X0009375Y0085036D01*
X0009300Y0084989D01*
X0009223Y0084945D01*
X0009144Y0084905D01*
X0009064Y0084868D01*
X0008982Y0084836D01*
X0008898Y0084806D01*
X0008814Y0084781D01*
X0008728Y0084759D01*
X0008642Y0084742D01*
X0008554Y0084728D01*
X0008466Y0084718D01*
X0008378Y0084712D01*
X0008290Y0084710D01*
X0008202Y0084712D01*
X0008114Y0084718D01*
X0008026Y0084728D01*
X0007938Y0084742D01*
X0007852Y0084759D01*
X0007766Y0084781D01*
X0007682Y0084806D01*
X0007598Y0084836D01*
X0007516Y0084868D01*
X0007436Y0084905D01*
X0007357Y0084945D01*
X0007280Y0084989D01*
X0007205Y0085036D01*
X0007133Y0085086D01*
X0007062Y0085140D01*
X0006995Y0085196D01*
X0006929Y0085256D01*
X0006867Y0085318D01*
X0006807Y0085384D01*
X0006751Y0085451D01*
X0006697Y0085522D01*
X0006647Y0085594D01*
X0006600Y0085669D01*
X0006556Y0085746D01*
X0006516Y0085825D01*
X0006479Y0085905D01*
X0006447Y0085987D01*
X0006417Y0086071D01*
X0006392Y0086155D01*
X0006370Y0086241D01*
X0006353Y0086327D01*
X0006339Y0086415D01*
X0006329Y0086503D01*
X0006323Y0086591D01*
X0006321Y0086679D01*
X0075218Y0031561D02*
X0075220Y0031649D01*
X0075226Y0031737D01*
X0075236Y0031825D01*
X0075250Y0031913D01*
X0075267Y0031999D01*
X0075289Y0032085D01*
X0075314Y0032169D01*
X0075344Y0032253D01*
X0075376Y0032335D01*
X0075413Y0032415D01*
X0075453Y0032494D01*
X0075497Y0032571D01*
X0075544Y0032646D01*
X0075594Y0032718D01*
X0075648Y0032789D01*
X0075704Y0032856D01*
X0075764Y0032922D01*
X0075826Y0032984D01*
X0075892Y0033044D01*
X0075959Y0033100D01*
X0076030Y0033154D01*
X0076102Y0033204D01*
X0076177Y0033251D01*
X0076254Y0033295D01*
X0076333Y0033335D01*
X0076413Y0033372D01*
X0076495Y0033404D01*
X0076579Y0033434D01*
X0076663Y0033459D01*
X0076749Y0033481D01*
X0076835Y0033498D01*
X0076923Y0033512D01*
X0077011Y0033522D01*
X0077099Y0033528D01*
X0077187Y0033530D01*
X0077275Y0033528D01*
X0077363Y0033522D01*
X0077451Y0033512D01*
X0077539Y0033498D01*
X0077625Y0033481D01*
X0077711Y0033459D01*
X0077795Y0033434D01*
X0077879Y0033404D01*
X0077961Y0033372D01*
X0078041Y0033335D01*
X0078120Y0033295D01*
X0078197Y0033251D01*
X0078272Y0033204D01*
X0078344Y0033154D01*
X0078415Y0033100D01*
X0078482Y0033044D01*
X0078548Y0032984D01*
X0078610Y0032922D01*
X0078670Y0032856D01*
X0078726Y0032789D01*
X0078780Y0032718D01*
X0078830Y0032646D01*
X0078877Y0032571D01*
X0078921Y0032494D01*
X0078961Y0032415D01*
X0078998Y0032335D01*
X0079030Y0032253D01*
X0079060Y0032169D01*
X0079085Y0032085D01*
X0079107Y0031999D01*
X0079124Y0031913D01*
X0079138Y0031825D01*
X0079148Y0031737D01*
X0079154Y0031649D01*
X0079156Y0031561D01*
X0079154Y0031473D01*
X0079148Y0031385D01*
X0079138Y0031297D01*
X0079124Y0031209D01*
X0079107Y0031123D01*
X0079085Y0031037D01*
X0079060Y0030953D01*
X0079030Y0030869D01*
X0078998Y0030787D01*
X0078961Y0030707D01*
X0078921Y0030628D01*
X0078877Y0030551D01*
X0078830Y0030476D01*
X0078780Y0030404D01*
X0078726Y0030333D01*
X0078670Y0030266D01*
X0078610Y0030200D01*
X0078548Y0030138D01*
X0078482Y0030078D01*
X0078415Y0030022D01*
X0078344Y0029968D01*
X0078272Y0029918D01*
X0078197Y0029871D01*
X0078120Y0029827D01*
X0078041Y0029787D01*
X0077961Y0029750D01*
X0077879Y0029718D01*
X0077795Y0029688D01*
X0077711Y0029663D01*
X0077625Y0029641D01*
X0077539Y0029624D01*
X0077451Y0029610D01*
X0077363Y0029600D01*
X0077275Y0029594D01*
X0077187Y0029592D01*
X0077099Y0029594D01*
X0077011Y0029600D01*
X0076923Y0029610D01*
X0076835Y0029624D01*
X0076749Y0029641D01*
X0076663Y0029663D01*
X0076579Y0029688D01*
X0076495Y0029718D01*
X0076413Y0029750D01*
X0076333Y0029787D01*
X0076254Y0029827D01*
X0076177Y0029871D01*
X0076102Y0029918D01*
X0076030Y0029968D01*
X0075959Y0030022D01*
X0075892Y0030078D01*
X0075826Y0030138D01*
X0075764Y0030200D01*
X0075704Y0030266D01*
X0075648Y0030333D01*
X0075594Y0030404D01*
X0075544Y0030476D01*
X0075497Y0030551D01*
X0075453Y0030628D01*
X0075413Y0030707D01*
X0075376Y0030787D01*
X0075344Y0030869D01*
X0075314Y0030953D01*
X0075289Y0031037D01*
X0075267Y0031123D01*
X0075250Y0031209D01*
X0075236Y0031297D01*
X0075226Y0031385D01*
X0075220Y0031473D01*
X0075218Y0031561D01*
X0096872Y0031561D02*
X0096874Y0031649D01*
X0096880Y0031737D01*
X0096890Y0031825D01*
X0096904Y0031913D01*
X0096921Y0031999D01*
X0096943Y0032085D01*
X0096968Y0032169D01*
X0096998Y0032253D01*
X0097030Y0032335D01*
X0097067Y0032415D01*
X0097107Y0032494D01*
X0097151Y0032571D01*
X0097198Y0032646D01*
X0097248Y0032718D01*
X0097302Y0032789D01*
X0097358Y0032856D01*
X0097418Y0032922D01*
X0097480Y0032984D01*
X0097546Y0033044D01*
X0097613Y0033100D01*
X0097684Y0033154D01*
X0097756Y0033204D01*
X0097831Y0033251D01*
X0097908Y0033295D01*
X0097987Y0033335D01*
X0098067Y0033372D01*
X0098149Y0033404D01*
X0098233Y0033434D01*
X0098317Y0033459D01*
X0098403Y0033481D01*
X0098489Y0033498D01*
X0098577Y0033512D01*
X0098665Y0033522D01*
X0098753Y0033528D01*
X0098841Y0033530D01*
X0098929Y0033528D01*
X0099017Y0033522D01*
X0099105Y0033512D01*
X0099193Y0033498D01*
X0099279Y0033481D01*
X0099365Y0033459D01*
X0099449Y0033434D01*
X0099533Y0033404D01*
X0099615Y0033372D01*
X0099695Y0033335D01*
X0099774Y0033295D01*
X0099851Y0033251D01*
X0099926Y0033204D01*
X0099998Y0033154D01*
X0100069Y0033100D01*
X0100136Y0033044D01*
X0100202Y0032984D01*
X0100264Y0032922D01*
X0100324Y0032856D01*
X0100380Y0032789D01*
X0100434Y0032718D01*
X0100484Y0032646D01*
X0100531Y0032571D01*
X0100575Y0032494D01*
X0100615Y0032415D01*
X0100652Y0032335D01*
X0100684Y0032253D01*
X0100714Y0032169D01*
X0100739Y0032085D01*
X0100761Y0031999D01*
X0100778Y0031913D01*
X0100792Y0031825D01*
X0100802Y0031737D01*
X0100808Y0031649D01*
X0100810Y0031561D01*
X0100808Y0031473D01*
X0100802Y0031385D01*
X0100792Y0031297D01*
X0100778Y0031209D01*
X0100761Y0031123D01*
X0100739Y0031037D01*
X0100714Y0030953D01*
X0100684Y0030869D01*
X0100652Y0030787D01*
X0100615Y0030707D01*
X0100575Y0030628D01*
X0100531Y0030551D01*
X0100484Y0030476D01*
X0100434Y0030404D01*
X0100380Y0030333D01*
X0100324Y0030266D01*
X0100264Y0030200D01*
X0100202Y0030138D01*
X0100136Y0030078D01*
X0100069Y0030022D01*
X0099998Y0029968D01*
X0099926Y0029918D01*
X0099851Y0029871D01*
X0099774Y0029827D01*
X0099695Y0029787D01*
X0099615Y0029750D01*
X0099533Y0029718D01*
X0099449Y0029688D01*
X0099365Y0029663D01*
X0099279Y0029641D01*
X0099193Y0029624D01*
X0099105Y0029610D01*
X0099017Y0029600D01*
X0098929Y0029594D01*
X0098841Y0029592D01*
X0098753Y0029594D01*
X0098665Y0029600D01*
X0098577Y0029610D01*
X0098489Y0029624D01*
X0098403Y0029641D01*
X0098317Y0029663D01*
X0098233Y0029688D01*
X0098149Y0029718D01*
X0098067Y0029750D01*
X0097987Y0029787D01*
X0097908Y0029827D01*
X0097831Y0029871D01*
X0097756Y0029918D01*
X0097684Y0029968D01*
X0097613Y0030022D01*
X0097546Y0030078D01*
X0097480Y0030138D01*
X0097418Y0030200D01*
X0097358Y0030266D01*
X0097302Y0030333D01*
X0097248Y0030404D01*
X0097198Y0030476D01*
X0097151Y0030551D01*
X0097107Y0030628D01*
X0097067Y0030707D01*
X0097030Y0030787D01*
X0096998Y0030869D01*
X0096968Y0030953D01*
X0096943Y0031037D01*
X0096921Y0031123D01*
X0096904Y0031209D01*
X0096890Y0031297D01*
X0096880Y0031385D01*
X0096874Y0031473D01*
X0096872Y0031561D01*
X0270100Y0031561D02*
X0270102Y0031649D01*
X0270108Y0031737D01*
X0270118Y0031825D01*
X0270132Y0031913D01*
X0270149Y0031999D01*
X0270171Y0032085D01*
X0270196Y0032169D01*
X0270226Y0032253D01*
X0270258Y0032335D01*
X0270295Y0032415D01*
X0270335Y0032494D01*
X0270379Y0032571D01*
X0270426Y0032646D01*
X0270476Y0032718D01*
X0270530Y0032789D01*
X0270586Y0032856D01*
X0270646Y0032922D01*
X0270708Y0032984D01*
X0270774Y0033044D01*
X0270841Y0033100D01*
X0270912Y0033154D01*
X0270984Y0033204D01*
X0271059Y0033251D01*
X0271136Y0033295D01*
X0271215Y0033335D01*
X0271295Y0033372D01*
X0271377Y0033404D01*
X0271461Y0033434D01*
X0271545Y0033459D01*
X0271631Y0033481D01*
X0271717Y0033498D01*
X0271805Y0033512D01*
X0271893Y0033522D01*
X0271981Y0033528D01*
X0272069Y0033530D01*
X0272157Y0033528D01*
X0272245Y0033522D01*
X0272333Y0033512D01*
X0272421Y0033498D01*
X0272507Y0033481D01*
X0272593Y0033459D01*
X0272677Y0033434D01*
X0272761Y0033404D01*
X0272843Y0033372D01*
X0272923Y0033335D01*
X0273002Y0033295D01*
X0273079Y0033251D01*
X0273154Y0033204D01*
X0273226Y0033154D01*
X0273297Y0033100D01*
X0273364Y0033044D01*
X0273430Y0032984D01*
X0273492Y0032922D01*
X0273552Y0032856D01*
X0273608Y0032789D01*
X0273662Y0032718D01*
X0273712Y0032646D01*
X0273759Y0032571D01*
X0273803Y0032494D01*
X0273843Y0032415D01*
X0273880Y0032335D01*
X0273912Y0032253D01*
X0273942Y0032169D01*
X0273967Y0032085D01*
X0273989Y0031999D01*
X0274006Y0031913D01*
X0274020Y0031825D01*
X0274030Y0031737D01*
X0274036Y0031649D01*
X0274038Y0031561D01*
X0274036Y0031473D01*
X0274030Y0031385D01*
X0274020Y0031297D01*
X0274006Y0031209D01*
X0273989Y0031123D01*
X0273967Y0031037D01*
X0273942Y0030953D01*
X0273912Y0030869D01*
X0273880Y0030787D01*
X0273843Y0030707D01*
X0273803Y0030628D01*
X0273759Y0030551D01*
X0273712Y0030476D01*
X0273662Y0030404D01*
X0273608Y0030333D01*
X0273552Y0030266D01*
X0273492Y0030200D01*
X0273430Y0030138D01*
X0273364Y0030078D01*
X0273297Y0030022D01*
X0273226Y0029968D01*
X0273154Y0029918D01*
X0273079Y0029871D01*
X0273002Y0029827D01*
X0272923Y0029787D01*
X0272843Y0029750D01*
X0272761Y0029718D01*
X0272677Y0029688D01*
X0272593Y0029663D01*
X0272507Y0029641D01*
X0272421Y0029624D01*
X0272333Y0029610D01*
X0272245Y0029600D01*
X0272157Y0029594D01*
X0272069Y0029592D01*
X0271981Y0029594D01*
X0271893Y0029600D01*
X0271805Y0029610D01*
X0271717Y0029624D01*
X0271631Y0029641D01*
X0271545Y0029663D01*
X0271461Y0029688D01*
X0271377Y0029718D01*
X0271295Y0029750D01*
X0271215Y0029787D01*
X0271136Y0029827D01*
X0271059Y0029871D01*
X0270984Y0029918D01*
X0270912Y0029968D01*
X0270841Y0030022D01*
X0270774Y0030078D01*
X0270708Y0030138D01*
X0270646Y0030200D01*
X0270586Y0030266D01*
X0270530Y0030333D01*
X0270476Y0030404D01*
X0270426Y0030476D01*
X0270379Y0030551D01*
X0270335Y0030628D01*
X0270295Y0030707D01*
X0270258Y0030787D01*
X0270226Y0030869D01*
X0270196Y0030953D01*
X0270171Y0031037D01*
X0270149Y0031123D01*
X0270132Y0031209D01*
X0270118Y0031297D01*
X0270108Y0031385D01*
X0270102Y0031473D01*
X0270100Y0031561D01*
X0272069Y0047309D02*
X0272071Y0047397D01*
X0272077Y0047485D01*
X0272087Y0047573D01*
X0272101Y0047661D01*
X0272118Y0047747D01*
X0272140Y0047833D01*
X0272165Y0047917D01*
X0272195Y0048001D01*
X0272227Y0048083D01*
X0272264Y0048163D01*
X0272304Y0048242D01*
X0272348Y0048319D01*
X0272395Y0048394D01*
X0272445Y0048466D01*
X0272499Y0048537D01*
X0272555Y0048604D01*
X0272615Y0048670D01*
X0272677Y0048732D01*
X0272743Y0048792D01*
X0272810Y0048848D01*
X0272881Y0048902D01*
X0272953Y0048952D01*
X0273028Y0048999D01*
X0273105Y0049043D01*
X0273184Y0049083D01*
X0273264Y0049120D01*
X0273346Y0049152D01*
X0273430Y0049182D01*
X0273514Y0049207D01*
X0273600Y0049229D01*
X0273686Y0049246D01*
X0273774Y0049260D01*
X0273862Y0049270D01*
X0273950Y0049276D01*
X0274038Y0049278D01*
X0274126Y0049276D01*
X0274214Y0049270D01*
X0274302Y0049260D01*
X0274390Y0049246D01*
X0274476Y0049229D01*
X0274562Y0049207D01*
X0274646Y0049182D01*
X0274730Y0049152D01*
X0274812Y0049120D01*
X0274892Y0049083D01*
X0274971Y0049043D01*
X0275048Y0048999D01*
X0275123Y0048952D01*
X0275195Y0048902D01*
X0275266Y0048848D01*
X0275333Y0048792D01*
X0275399Y0048732D01*
X0275461Y0048670D01*
X0275521Y0048604D01*
X0275577Y0048537D01*
X0275631Y0048466D01*
X0275681Y0048394D01*
X0275728Y0048319D01*
X0275772Y0048242D01*
X0275812Y0048163D01*
X0275849Y0048083D01*
X0275881Y0048001D01*
X0275911Y0047917D01*
X0275936Y0047833D01*
X0275958Y0047747D01*
X0275975Y0047661D01*
X0275989Y0047573D01*
X0275999Y0047485D01*
X0276005Y0047397D01*
X0276007Y0047309D01*
X0276005Y0047221D01*
X0275999Y0047133D01*
X0275989Y0047045D01*
X0275975Y0046957D01*
X0275958Y0046871D01*
X0275936Y0046785D01*
X0275911Y0046701D01*
X0275881Y0046617D01*
X0275849Y0046535D01*
X0275812Y0046455D01*
X0275772Y0046376D01*
X0275728Y0046299D01*
X0275681Y0046224D01*
X0275631Y0046152D01*
X0275577Y0046081D01*
X0275521Y0046014D01*
X0275461Y0045948D01*
X0275399Y0045886D01*
X0275333Y0045826D01*
X0275266Y0045770D01*
X0275195Y0045716D01*
X0275123Y0045666D01*
X0275048Y0045619D01*
X0274971Y0045575D01*
X0274892Y0045535D01*
X0274812Y0045498D01*
X0274730Y0045466D01*
X0274646Y0045436D01*
X0274562Y0045411D01*
X0274476Y0045389D01*
X0274390Y0045372D01*
X0274302Y0045358D01*
X0274214Y0045348D01*
X0274126Y0045342D01*
X0274038Y0045340D01*
X0273950Y0045342D01*
X0273862Y0045348D01*
X0273774Y0045358D01*
X0273686Y0045372D01*
X0273600Y0045389D01*
X0273514Y0045411D01*
X0273430Y0045436D01*
X0273346Y0045466D01*
X0273264Y0045498D01*
X0273184Y0045535D01*
X0273105Y0045575D01*
X0273028Y0045619D01*
X0272953Y0045666D01*
X0272881Y0045716D01*
X0272810Y0045770D01*
X0272743Y0045826D01*
X0272677Y0045886D01*
X0272615Y0045948D01*
X0272555Y0046014D01*
X0272499Y0046081D01*
X0272445Y0046152D01*
X0272395Y0046224D01*
X0272348Y0046299D01*
X0272304Y0046376D01*
X0272264Y0046455D01*
X0272227Y0046535D01*
X0272195Y0046617D01*
X0272165Y0046701D01*
X0272140Y0046785D01*
X0272118Y0046871D01*
X0272101Y0046957D01*
X0272087Y0047045D01*
X0272077Y0047133D01*
X0272071Y0047221D01*
X0272069Y0047309D01*
X0272069Y0070931D02*
X0272071Y0071019D01*
X0272077Y0071107D01*
X0272087Y0071195D01*
X0272101Y0071283D01*
X0272118Y0071369D01*
X0272140Y0071455D01*
X0272165Y0071539D01*
X0272195Y0071623D01*
X0272227Y0071705D01*
X0272264Y0071785D01*
X0272304Y0071864D01*
X0272348Y0071941D01*
X0272395Y0072016D01*
X0272445Y0072088D01*
X0272499Y0072159D01*
X0272555Y0072226D01*
X0272615Y0072292D01*
X0272677Y0072354D01*
X0272743Y0072414D01*
X0272810Y0072470D01*
X0272881Y0072524D01*
X0272953Y0072574D01*
X0273028Y0072621D01*
X0273105Y0072665D01*
X0273184Y0072705D01*
X0273264Y0072742D01*
X0273346Y0072774D01*
X0273430Y0072804D01*
X0273514Y0072829D01*
X0273600Y0072851D01*
X0273686Y0072868D01*
X0273774Y0072882D01*
X0273862Y0072892D01*
X0273950Y0072898D01*
X0274038Y0072900D01*
X0274126Y0072898D01*
X0274214Y0072892D01*
X0274302Y0072882D01*
X0274390Y0072868D01*
X0274476Y0072851D01*
X0274562Y0072829D01*
X0274646Y0072804D01*
X0274730Y0072774D01*
X0274812Y0072742D01*
X0274892Y0072705D01*
X0274971Y0072665D01*
X0275048Y0072621D01*
X0275123Y0072574D01*
X0275195Y0072524D01*
X0275266Y0072470D01*
X0275333Y0072414D01*
X0275399Y0072354D01*
X0275461Y0072292D01*
X0275521Y0072226D01*
X0275577Y0072159D01*
X0275631Y0072088D01*
X0275681Y0072016D01*
X0275728Y0071941D01*
X0275772Y0071864D01*
X0275812Y0071785D01*
X0275849Y0071705D01*
X0275881Y0071623D01*
X0275911Y0071539D01*
X0275936Y0071455D01*
X0275958Y0071369D01*
X0275975Y0071283D01*
X0275989Y0071195D01*
X0275999Y0071107D01*
X0276005Y0071019D01*
X0276007Y0070931D01*
X0276005Y0070843D01*
X0275999Y0070755D01*
X0275989Y0070667D01*
X0275975Y0070579D01*
X0275958Y0070493D01*
X0275936Y0070407D01*
X0275911Y0070323D01*
X0275881Y0070239D01*
X0275849Y0070157D01*
X0275812Y0070077D01*
X0275772Y0069998D01*
X0275728Y0069921D01*
X0275681Y0069846D01*
X0275631Y0069774D01*
X0275577Y0069703D01*
X0275521Y0069636D01*
X0275461Y0069570D01*
X0275399Y0069508D01*
X0275333Y0069448D01*
X0275266Y0069392D01*
X0275195Y0069338D01*
X0275123Y0069288D01*
X0275048Y0069241D01*
X0274971Y0069197D01*
X0274892Y0069157D01*
X0274812Y0069120D01*
X0274730Y0069088D01*
X0274646Y0069058D01*
X0274562Y0069033D01*
X0274476Y0069011D01*
X0274390Y0068994D01*
X0274302Y0068980D01*
X0274214Y0068970D01*
X0274126Y0068964D01*
X0274038Y0068962D01*
X0273950Y0068964D01*
X0273862Y0068970D01*
X0273774Y0068980D01*
X0273686Y0068994D01*
X0273600Y0069011D01*
X0273514Y0069033D01*
X0273430Y0069058D01*
X0273346Y0069088D01*
X0273264Y0069120D01*
X0273184Y0069157D01*
X0273105Y0069197D01*
X0273028Y0069241D01*
X0272953Y0069288D01*
X0272881Y0069338D01*
X0272810Y0069392D01*
X0272743Y0069448D01*
X0272677Y0069508D01*
X0272615Y0069570D01*
X0272555Y0069636D01*
X0272499Y0069703D01*
X0272445Y0069774D01*
X0272395Y0069846D01*
X0272348Y0069921D01*
X0272304Y0069998D01*
X0272264Y0070077D01*
X0272227Y0070157D01*
X0272195Y0070239D01*
X0272165Y0070323D01*
X0272140Y0070407D01*
X0272118Y0070493D01*
X0272101Y0070579D01*
X0272087Y0070667D01*
X0272077Y0070755D01*
X0272071Y0070843D01*
X0272069Y0070931D01*
X0270100Y0086679D02*
X0270102Y0086767D01*
X0270108Y0086855D01*
X0270118Y0086943D01*
X0270132Y0087031D01*
X0270149Y0087117D01*
X0270171Y0087203D01*
X0270196Y0087287D01*
X0270226Y0087371D01*
X0270258Y0087453D01*
X0270295Y0087533D01*
X0270335Y0087612D01*
X0270379Y0087689D01*
X0270426Y0087764D01*
X0270476Y0087836D01*
X0270530Y0087907D01*
X0270586Y0087974D01*
X0270646Y0088040D01*
X0270708Y0088102D01*
X0270774Y0088162D01*
X0270841Y0088218D01*
X0270912Y0088272D01*
X0270984Y0088322D01*
X0271059Y0088369D01*
X0271136Y0088413D01*
X0271215Y0088453D01*
X0271295Y0088490D01*
X0271377Y0088522D01*
X0271461Y0088552D01*
X0271545Y0088577D01*
X0271631Y0088599D01*
X0271717Y0088616D01*
X0271805Y0088630D01*
X0271893Y0088640D01*
X0271981Y0088646D01*
X0272069Y0088648D01*
X0272157Y0088646D01*
X0272245Y0088640D01*
X0272333Y0088630D01*
X0272421Y0088616D01*
X0272507Y0088599D01*
X0272593Y0088577D01*
X0272677Y0088552D01*
X0272761Y0088522D01*
X0272843Y0088490D01*
X0272923Y0088453D01*
X0273002Y0088413D01*
X0273079Y0088369D01*
X0273154Y0088322D01*
X0273226Y0088272D01*
X0273297Y0088218D01*
X0273364Y0088162D01*
X0273430Y0088102D01*
X0273492Y0088040D01*
X0273552Y0087974D01*
X0273608Y0087907D01*
X0273662Y0087836D01*
X0273712Y0087764D01*
X0273759Y0087689D01*
X0273803Y0087612D01*
X0273843Y0087533D01*
X0273880Y0087453D01*
X0273912Y0087371D01*
X0273942Y0087287D01*
X0273967Y0087203D01*
X0273989Y0087117D01*
X0274006Y0087031D01*
X0274020Y0086943D01*
X0274030Y0086855D01*
X0274036Y0086767D01*
X0274038Y0086679D01*
X0274036Y0086591D01*
X0274030Y0086503D01*
X0274020Y0086415D01*
X0274006Y0086327D01*
X0273989Y0086241D01*
X0273967Y0086155D01*
X0273942Y0086071D01*
X0273912Y0085987D01*
X0273880Y0085905D01*
X0273843Y0085825D01*
X0273803Y0085746D01*
X0273759Y0085669D01*
X0273712Y0085594D01*
X0273662Y0085522D01*
X0273608Y0085451D01*
X0273552Y0085384D01*
X0273492Y0085318D01*
X0273430Y0085256D01*
X0273364Y0085196D01*
X0273297Y0085140D01*
X0273226Y0085086D01*
X0273154Y0085036D01*
X0273079Y0084989D01*
X0273002Y0084945D01*
X0272923Y0084905D01*
X0272843Y0084868D01*
X0272761Y0084836D01*
X0272677Y0084806D01*
X0272593Y0084781D01*
X0272507Y0084759D01*
X0272421Y0084742D01*
X0272333Y0084728D01*
X0272245Y0084718D01*
X0272157Y0084712D01*
X0272069Y0084710D01*
X0271981Y0084712D01*
X0271893Y0084718D01*
X0271805Y0084728D01*
X0271717Y0084742D01*
X0271631Y0084759D01*
X0271545Y0084781D01*
X0271461Y0084806D01*
X0271377Y0084836D01*
X0271295Y0084868D01*
X0271215Y0084905D01*
X0271136Y0084945D01*
X0271059Y0084989D01*
X0270984Y0085036D01*
X0270912Y0085086D01*
X0270841Y0085140D01*
X0270774Y0085196D01*
X0270708Y0085256D01*
X0270646Y0085318D01*
X0270586Y0085384D01*
X0270530Y0085451D01*
X0270476Y0085522D01*
X0270426Y0085594D01*
X0270379Y0085669D01*
X0270335Y0085746D01*
X0270295Y0085825D01*
X0270258Y0085905D01*
X0270226Y0085987D01*
X0270196Y0086071D01*
X0270171Y0086155D01*
X0270149Y0086241D01*
X0270132Y0086327D01*
X0270118Y0086415D01*
X0270108Y0086503D01*
X0270102Y0086591D01*
X0270100Y0086679D01*
D12*
X0238605Y0027624D02*
X0218920Y0027624D01*
X0216951Y0025656D01*
X0205140Y0025656D02*
X0203172Y0027624D01*
X0183487Y0027624D01*
X0181518Y0025656D01*
X0169707Y0025656D02*
X0167739Y0027624D01*
X0148054Y0027624D01*
X0146085Y0025656D01*
X0134274Y0025656D02*
X0132306Y0027624D01*
X0112620Y0027624D01*
X0110652Y0025656D01*
X0061439Y0025656D02*
X0059471Y0027624D01*
X0039786Y0027624D01*
X0037817Y0025656D01*
X0238605Y0027624D02*
X0240573Y0025656D01*
D13*
X0255622Y0043356D02*
X0255288Y0043690D01*
X0255288Y0045024D01*
X0255622Y0045358D01*
X0256623Y0045358D01*
X0256623Y0043356D01*
X0255622Y0043356D01*
X0257498Y0043356D02*
X0257498Y0045358D01*
X0258833Y0045358D02*
X0257498Y0043356D01*
X0258833Y0043356D02*
X0258833Y0045358D01*
X0259708Y0045024D02*
X0260042Y0045358D01*
X0260709Y0045358D01*
X0261043Y0045024D01*
X0261043Y0043690D01*
X0260709Y0043356D01*
X0260042Y0043356D01*
X0259708Y0043690D01*
X0259708Y0044357D01*
X0260375Y0044357D01*
X0260042Y0053199D02*
X0260709Y0053199D01*
X0261043Y0053533D01*
X0260709Y0054200D02*
X0260042Y0054200D01*
X0259708Y0053866D01*
X0259708Y0053533D01*
X0260042Y0053199D01*
X0260709Y0054200D02*
X0261043Y0054533D01*
X0261043Y0054867D01*
X0260709Y0055201D01*
X0260042Y0055201D01*
X0259708Y0054867D01*
X0258833Y0054867D02*
X0258833Y0053533D01*
X0258499Y0053199D01*
X0257832Y0053199D01*
X0257498Y0053533D01*
X0256623Y0053199D02*
X0255288Y0053199D01*
X0256623Y0053199D02*
X0256623Y0055201D01*
X0257498Y0054867D02*
X0257832Y0055201D01*
X0258499Y0055201D01*
X0258833Y0054867D01*
X0258833Y0063041D02*
X0257832Y0063041D01*
X0257498Y0063375D01*
X0257498Y0064710D01*
X0257832Y0065043D01*
X0258833Y0065043D01*
X0258833Y0063041D01*
X0259708Y0063375D02*
X0260042Y0063041D01*
X0260709Y0063041D01*
X0261043Y0063375D01*
X0260709Y0064042D02*
X0260042Y0064042D01*
X0259708Y0063709D01*
X0259708Y0063375D01*
X0260709Y0064042D02*
X0261043Y0064376D01*
X0261043Y0064710D01*
X0260709Y0065043D01*
X0260042Y0065043D01*
X0259708Y0064710D01*
X0256623Y0064376D02*
X0255956Y0065043D01*
X0255288Y0064376D01*
X0255288Y0063041D01*
X0255288Y0064042D02*
X0256623Y0064042D01*
X0256623Y0064376D02*
X0256623Y0063041D01*
X0256025Y0072884D02*
X0256025Y0074886D01*
X0257359Y0074886D02*
X0256025Y0072884D01*
X0257359Y0072884D02*
X0257359Y0074886D01*
X0258165Y0074886D02*
X0258833Y0074886D01*
X0258499Y0074886D02*
X0258499Y0072884D01*
X0258833Y0072884D02*
X0258165Y0072884D01*
X0259708Y0073551D02*
X0260375Y0072884D01*
X0261043Y0073551D01*
X0261043Y0074886D01*
X0259708Y0074886D02*
X0259708Y0073551D01*
X0098755Y0087648D02*
X0098755Y0089649D01*
X0098088Y0088982D01*
X0097421Y0089649D01*
X0097421Y0087648D01*
X0096546Y0087648D02*
X0095878Y0087648D01*
X0096212Y0087648D02*
X0096212Y0089649D01*
X0096546Y0089649D02*
X0095878Y0089649D01*
X0095072Y0089316D02*
X0095072Y0088982D01*
X0094739Y0088649D01*
X0094071Y0088649D01*
X0093738Y0088315D01*
X0093738Y0087981D01*
X0094071Y0087648D01*
X0094739Y0087648D01*
X0095072Y0087981D01*
X0092862Y0087981D02*
X0092529Y0087648D01*
X0091862Y0087648D01*
X0091528Y0087981D01*
X0091528Y0089316D01*
X0091862Y0089649D01*
X0092529Y0089649D01*
X0092862Y0089316D01*
X0092862Y0087981D01*
X0093738Y0089316D02*
X0094071Y0089649D01*
X0094739Y0089649D01*
X0095072Y0089316D01*
X0087929Y0089649D02*
X0087929Y0087648D01*
X0086594Y0087648D02*
X0086594Y0089649D01*
X0087261Y0088982D01*
X0087929Y0089649D01*
X0085719Y0089316D02*
X0085719Y0087981D01*
X0085385Y0087648D01*
X0084718Y0087648D01*
X0084384Y0087981D01*
X0084384Y0089316D01*
X0084718Y0089649D01*
X0085385Y0089649D01*
X0085719Y0089316D01*
X0083509Y0089316D02*
X0083509Y0088982D01*
X0083175Y0088649D01*
X0082508Y0088649D01*
X0082174Y0088315D01*
X0082174Y0087981D01*
X0082508Y0087648D01*
X0083175Y0087648D01*
X0083509Y0087981D01*
X0081299Y0087648D02*
X0080632Y0087648D01*
X0080965Y0087648D02*
X0080965Y0089649D01*
X0080632Y0089649D02*
X0081299Y0089649D01*
X0082174Y0089316D02*
X0082508Y0089649D01*
X0083175Y0089649D01*
X0083509Y0089316D01*
X0077349Y0089316D02*
X0077349Y0088982D01*
X0077016Y0088649D01*
X0076349Y0088649D01*
X0076015Y0088315D01*
X0076015Y0087981D01*
X0076349Y0087648D01*
X0077016Y0087648D01*
X0077349Y0087981D01*
X0075140Y0087981D02*
X0074806Y0087648D01*
X0074139Y0087648D01*
X0073805Y0087981D01*
X0072930Y0087648D02*
X0072930Y0089649D01*
X0073805Y0089316D02*
X0074139Y0089649D01*
X0074806Y0089649D01*
X0075140Y0089316D01*
X0075140Y0087981D01*
X0072930Y0088315D02*
X0071595Y0089649D01*
X0072596Y0088649D02*
X0071595Y0087648D01*
X0067507Y0087648D02*
X0067507Y0089649D01*
X0066506Y0089649D01*
X0066172Y0089316D01*
X0066172Y0088649D01*
X0066506Y0088315D01*
X0067507Y0088315D01*
X0066840Y0088315D02*
X0066172Y0087648D01*
X0065297Y0087981D02*
X0064963Y0087648D01*
X0064296Y0087648D01*
X0063963Y0087981D01*
X0063963Y0088315D01*
X0064296Y0088649D01*
X0064963Y0088649D01*
X0065297Y0088982D01*
X0065297Y0089316D01*
X0064963Y0089649D01*
X0064296Y0089649D01*
X0063963Y0089316D01*
X0063087Y0089649D02*
X0061753Y0089649D01*
X0062420Y0089649D02*
X0062420Y0087648D01*
X0056559Y0087981D02*
X0056226Y0087648D01*
X0055559Y0087648D01*
X0055225Y0087981D01*
X0055225Y0088649D01*
X0055559Y0088982D01*
X0055892Y0088982D01*
X0056559Y0088649D01*
X0056559Y0089649D01*
X0055225Y0089649D01*
X0054350Y0089649D02*
X0054350Y0088315D01*
X0053682Y0087648D01*
X0053015Y0088315D01*
X0053015Y0089649D01*
X0047822Y0089316D02*
X0047822Y0087981D01*
X0047488Y0087648D01*
X0046821Y0087648D01*
X0046487Y0087981D01*
X0046487Y0088649D01*
X0047155Y0088649D01*
X0047822Y0089316D02*
X0047488Y0089649D01*
X0046821Y0089649D01*
X0046487Y0089316D01*
X0045612Y0089649D02*
X0044278Y0087648D01*
X0044278Y0089649D01*
X0043402Y0089649D02*
X0042401Y0089649D01*
X0042068Y0089316D01*
X0042068Y0087981D01*
X0042401Y0087648D01*
X0043402Y0087648D01*
X0043402Y0089649D01*
X0045612Y0089649D02*
X0045612Y0087648D01*
X0076015Y0089316D02*
X0076349Y0089649D01*
X0077016Y0089649D01*
X0077349Y0089316D01*
X0024810Y0074886D02*
X0024810Y0073551D01*
X0024142Y0072884D01*
X0023475Y0073551D01*
X0023475Y0074886D01*
X0022600Y0074886D02*
X0021932Y0074886D01*
X0022266Y0074886D02*
X0022266Y0072884D01*
X0022600Y0072884D02*
X0021932Y0072884D01*
X0021126Y0072884D02*
X0021126Y0074886D01*
X0019792Y0072884D01*
X0019792Y0074886D01*
X0020459Y0065043D02*
X0019792Y0064376D01*
X0019792Y0063041D01*
X0019792Y0064042D02*
X0021126Y0064042D01*
X0021126Y0064376D02*
X0020459Y0065043D01*
X0021126Y0064376D02*
X0021126Y0063041D01*
X0022002Y0063375D02*
X0022002Y0064710D01*
X0022335Y0065043D01*
X0023336Y0065043D01*
X0023336Y0063041D01*
X0022335Y0063041D01*
X0022002Y0063375D01*
X0024212Y0063375D02*
X0024212Y0063709D01*
X0024545Y0064042D01*
X0025213Y0064042D01*
X0025546Y0064376D01*
X0025546Y0064710D01*
X0025213Y0065043D01*
X0024545Y0065043D01*
X0024212Y0064710D01*
X0024212Y0063375D02*
X0024545Y0063041D01*
X0025213Y0063041D01*
X0025546Y0063375D01*
X0025213Y0055201D02*
X0025546Y0054867D01*
X0025546Y0054533D01*
X0025213Y0054200D01*
X0024545Y0054200D01*
X0024212Y0053866D01*
X0024212Y0053533D01*
X0024545Y0053199D01*
X0025213Y0053199D01*
X0025546Y0053533D01*
X0024212Y0054867D02*
X0024545Y0055201D01*
X0025213Y0055201D01*
X0023336Y0054867D02*
X0023003Y0055201D01*
X0022335Y0055201D01*
X0022002Y0054867D01*
X0021126Y0055201D02*
X0021126Y0053199D01*
X0019792Y0053199D01*
X0022002Y0053533D02*
X0022335Y0053199D01*
X0023003Y0053199D01*
X0023336Y0053533D01*
X0023336Y0054867D01*
X0023336Y0045358D02*
X0022002Y0043356D01*
X0022002Y0045358D01*
X0021126Y0045358D02*
X0020126Y0045358D01*
X0019792Y0045024D01*
X0019792Y0043690D01*
X0020126Y0043356D01*
X0021126Y0043356D01*
X0021126Y0045358D01*
X0023336Y0045358D02*
X0023336Y0043356D01*
X0024212Y0043690D02*
X0024545Y0043356D01*
X0025213Y0043356D01*
X0025546Y0043690D01*
X0025546Y0045024D01*
X0025213Y0045358D01*
X0024545Y0045358D01*
X0024212Y0045024D01*
X0024212Y0044357D02*
X0024879Y0044357D01*
X0024212Y0044357D02*
X0024212Y0043690D01*
D14*
X0052757Y0055467D02*
X0052757Y0056869D01*
X0053224Y0056869D02*
X0052290Y0056869D01*
X0053763Y0056635D02*
X0053997Y0056869D01*
X0054464Y0056869D01*
X0054697Y0056635D01*
X0054697Y0056402D01*
X0054464Y0056168D01*
X0053997Y0056168D01*
X0053763Y0055934D01*
X0053763Y0055701D01*
X0053997Y0055467D01*
X0054464Y0055467D01*
X0054697Y0055701D01*
X0055236Y0055467D02*
X0055703Y0055934D01*
X0055470Y0055934D02*
X0056170Y0055934D01*
X0056170Y0055467D02*
X0056170Y0056869D01*
X0055470Y0056869D01*
X0055236Y0056635D01*
X0055236Y0056168D01*
X0055470Y0055934D01*
X0056710Y0055234D02*
X0057644Y0055234D01*
X0058183Y0055467D02*
X0058650Y0055934D01*
X0058416Y0055934D02*
X0059117Y0055934D01*
X0059117Y0055467D02*
X0059117Y0056869D01*
X0058416Y0056869D01*
X0058183Y0056635D01*
X0058183Y0056168D01*
X0058416Y0055934D01*
X0062132Y0049979D02*
X0063067Y0049979D01*
X0062599Y0049979D02*
X0062599Y0048578D01*
X0063606Y0048811D02*
X0063839Y0048578D01*
X0064306Y0048578D01*
X0064540Y0048811D01*
X0064306Y0049278D02*
X0064540Y0049512D01*
X0064540Y0049745D01*
X0064306Y0049979D01*
X0063839Y0049979D01*
X0063606Y0049745D01*
X0063839Y0049278D02*
X0063606Y0049045D01*
X0063606Y0048811D01*
X0063839Y0049278D02*
X0064306Y0049278D01*
X0065079Y0049278D02*
X0065079Y0049745D01*
X0065312Y0049979D01*
X0066013Y0049979D01*
X0066013Y0048578D01*
X0066013Y0049045D02*
X0065312Y0049045D01*
X0065079Y0049278D01*
X0065546Y0049045D02*
X0065079Y0048578D01*
X0066552Y0048344D02*
X0067486Y0048344D01*
X0068025Y0048811D02*
X0068025Y0049745D01*
X0068259Y0049979D01*
X0068960Y0049979D01*
X0068960Y0048578D01*
X0068259Y0048578D01*
X0068025Y0048811D01*
X0097565Y0049795D02*
X0097799Y0049562D01*
X0098266Y0049562D01*
X0098500Y0049795D01*
X0098500Y0050730D01*
X0098266Y0050963D01*
X0097799Y0050963D01*
X0097565Y0050730D01*
X0099039Y0050730D02*
X0099272Y0050963D01*
X0099739Y0050963D01*
X0099973Y0050730D01*
X0099973Y0050496D01*
X0099739Y0050262D01*
X0099272Y0050262D01*
X0099039Y0050029D01*
X0099039Y0049795D01*
X0099272Y0049562D01*
X0099739Y0049562D01*
X0099973Y0049795D01*
X0100512Y0049795D02*
X0100512Y0050730D01*
X0100745Y0050963D01*
X0101213Y0050963D01*
X0101446Y0050730D01*
X0101446Y0049795D01*
X0101213Y0049562D01*
X0100745Y0049562D01*
X0100512Y0049795D01*
X0101985Y0049328D02*
X0102919Y0049328D01*
X0103458Y0049795D02*
X0103458Y0050963D01*
X0104393Y0050963D02*
X0104393Y0049795D01*
X0104159Y0049562D01*
X0103692Y0049562D01*
X0103458Y0049795D01*
X0134726Y0045808D02*
X0134726Y0045575D01*
X0134959Y0045341D01*
X0134726Y0045108D01*
X0134726Y0044874D01*
X0134959Y0044641D01*
X0135426Y0044641D01*
X0135660Y0044874D01*
X0136199Y0044874D02*
X0136432Y0044641D01*
X0136900Y0044641D01*
X0137133Y0044874D01*
X0136199Y0045808D01*
X0136199Y0044874D01*
X0137133Y0044874D02*
X0137133Y0045808D01*
X0136900Y0046042D01*
X0136432Y0046042D01*
X0136199Y0045808D01*
X0135660Y0045808D02*
X0135426Y0046042D01*
X0134959Y0046042D01*
X0134726Y0045808D01*
X0134959Y0045341D02*
X0135193Y0045341D01*
X0137672Y0044407D02*
X0138606Y0044407D01*
X0139145Y0044874D02*
X0139145Y0045808D01*
X0139379Y0046042D01*
X0140080Y0046042D01*
X0140080Y0044641D01*
X0139379Y0044641D01*
X0139145Y0044874D01*
X0140619Y0044641D02*
X0140619Y0045575D01*
X0141086Y0046042D01*
X0141553Y0045575D01*
X0141553Y0044641D01*
X0141553Y0045341D02*
X0140619Y0045341D01*
X0142092Y0045341D02*
X0142325Y0045108D01*
X0143026Y0045108D01*
X0143026Y0044641D02*
X0143026Y0046042D01*
X0142325Y0046042D01*
X0142092Y0045808D01*
X0142092Y0045341D01*
X0143565Y0044407D02*
X0144499Y0044407D01*
X0145038Y0044641D02*
X0145505Y0045108D01*
X0145272Y0045108D02*
X0145973Y0045108D01*
X0145973Y0044641D02*
X0145973Y0046042D01*
X0145272Y0046042D01*
X0145038Y0045808D01*
X0145038Y0045341D01*
X0145272Y0045108D01*
X0159084Y0048811D02*
X0159084Y0049745D01*
X0160018Y0048811D01*
X0159785Y0048578D01*
X0159318Y0048578D01*
X0159084Y0048811D01*
X0159084Y0049745D02*
X0159318Y0049979D01*
X0159785Y0049979D01*
X0160018Y0049745D01*
X0160018Y0048811D01*
X0160558Y0048344D02*
X0161492Y0048344D01*
X0162031Y0048578D02*
X0162031Y0049979D01*
X0162498Y0049512D01*
X0162965Y0049979D01*
X0162965Y0048578D01*
X0163971Y0048578D02*
X0163971Y0049979D01*
X0164438Y0049979D02*
X0163504Y0049979D01*
X0164977Y0049512D02*
X0164977Y0048578D01*
X0164977Y0049278D02*
X0165911Y0049278D01*
X0165911Y0049512D02*
X0165911Y0048578D01*
X0166451Y0048344D02*
X0167385Y0048344D01*
X0167924Y0048811D02*
X0168157Y0048578D01*
X0168624Y0048578D01*
X0168858Y0048811D01*
X0168858Y0049745D01*
X0168624Y0049979D01*
X0168157Y0049979D01*
X0167924Y0049745D01*
X0165911Y0049512D02*
X0165444Y0049979D01*
X0164977Y0049512D01*
X0170159Y0045808D02*
X0170392Y0046042D01*
X0170859Y0046042D01*
X0171093Y0045808D01*
X0171632Y0045808D02*
X0172566Y0044874D01*
X0172333Y0044641D01*
X0171866Y0044641D01*
X0171632Y0044874D01*
X0171632Y0045808D01*
X0171866Y0046042D01*
X0172333Y0046042D01*
X0172566Y0045808D01*
X0172566Y0044874D01*
X0173105Y0044407D02*
X0174039Y0044407D01*
X0174578Y0044874D02*
X0174578Y0045808D01*
X0174812Y0046042D01*
X0175513Y0046042D01*
X0175513Y0044641D01*
X0174812Y0044641D01*
X0174578Y0044874D01*
X0176052Y0044641D02*
X0176052Y0045575D01*
X0176519Y0046042D01*
X0176986Y0045575D01*
X0176986Y0044641D01*
X0176986Y0045341D02*
X0176052Y0045341D01*
X0177525Y0045341D02*
X0177525Y0045808D01*
X0177759Y0046042D01*
X0178459Y0046042D01*
X0178459Y0044641D01*
X0178459Y0045108D02*
X0177759Y0045108D01*
X0177525Y0045341D01*
X0178998Y0044407D02*
X0179932Y0044407D01*
X0180472Y0044641D02*
X0180939Y0045108D01*
X0180705Y0045108D02*
X0181406Y0045108D01*
X0181406Y0044641D02*
X0181406Y0046042D01*
X0180705Y0046042D01*
X0180472Y0045808D01*
X0180472Y0045341D01*
X0180705Y0045108D01*
X0171093Y0044641D02*
X0170159Y0045575D01*
X0170159Y0045808D01*
X0170159Y0044641D02*
X0171093Y0044641D01*
X0205592Y0044641D02*
X0206526Y0044641D01*
X0206059Y0044641D02*
X0206059Y0046042D01*
X0206526Y0045575D01*
X0207065Y0045808D02*
X0207999Y0044874D01*
X0207766Y0044641D01*
X0207299Y0044641D01*
X0207065Y0044874D01*
X0207065Y0045808D01*
X0207299Y0046042D01*
X0207766Y0046042D01*
X0207999Y0045808D01*
X0207999Y0044874D01*
X0208538Y0044407D02*
X0209472Y0044407D01*
X0210012Y0044874D02*
X0210012Y0045808D01*
X0210245Y0046042D01*
X0210946Y0046042D01*
X0210946Y0044641D01*
X0210245Y0044641D01*
X0210012Y0044874D01*
X0211485Y0044641D02*
X0211485Y0045575D01*
X0211952Y0046042D01*
X0212419Y0045575D01*
X0212419Y0044641D01*
X0212419Y0045341D02*
X0211485Y0045341D01*
X0212958Y0045341D02*
X0213192Y0045108D01*
X0213892Y0045108D01*
X0213892Y0044641D02*
X0213892Y0046042D01*
X0213192Y0046042D01*
X0212958Y0045808D01*
X0212958Y0045341D01*
X0214431Y0044407D02*
X0215365Y0044407D01*
X0215905Y0044641D02*
X0216372Y0045108D01*
X0216138Y0045108D02*
X0216839Y0045108D01*
X0216839Y0044641D02*
X0216839Y0046042D01*
X0216138Y0046042D01*
X0215905Y0045808D01*
X0215905Y0045341D01*
X0216138Y0045108D01*
X0241025Y0044874D02*
X0241258Y0044641D01*
X0241725Y0044641D01*
X0241959Y0044874D01*
X0241025Y0045808D01*
X0241025Y0044874D01*
X0241959Y0044874D02*
X0241959Y0045808D01*
X0241725Y0046042D01*
X0241258Y0046042D01*
X0241025Y0045808D01*
X0242498Y0045808D02*
X0243432Y0044874D01*
X0243199Y0044641D01*
X0242732Y0044641D01*
X0242498Y0044874D01*
X0242498Y0045808D01*
X0242732Y0046042D01*
X0243199Y0046042D01*
X0243432Y0045808D01*
X0243432Y0044874D01*
X0243971Y0044407D02*
X0244906Y0044407D01*
X0245445Y0044874D02*
X0245445Y0045808D01*
X0245678Y0046042D01*
X0246379Y0046042D01*
X0246379Y0044641D01*
X0245678Y0044641D01*
X0245445Y0044874D01*
X0246918Y0044641D02*
X0246918Y0045575D01*
X0247385Y0046042D01*
X0247852Y0045575D01*
X0247852Y0044641D01*
X0247852Y0045341D02*
X0246918Y0045341D01*
X0248391Y0045341D02*
X0248625Y0045108D01*
X0249325Y0045108D01*
X0249325Y0044641D02*
X0249325Y0046042D01*
X0248625Y0046042D01*
X0248391Y0045808D01*
X0248391Y0045341D01*
X0249864Y0044407D02*
X0250799Y0044407D01*
X0251338Y0044641D02*
X0251805Y0045108D01*
X0251571Y0045108D02*
X0252272Y0045108D01*
X0252272Y0044641D02*
X0252272Y0046042D01*
X0251571Y0046042D01*
X0251338Y0045808D01*
X0251338Y0045341D01*
X0251571Y0045108D01*
X0251684Y0056278D02*
X0253085Y0056278D01*
X0253085Y0056978D01*
X0252852Y0057212D01*
X0252385Y0057212D01*
X0252151Y0056978D01*
X0252151Y0056278D01*
X0252151Y0056745D02*
X0251684Y0057212D01*
X0251451Y0057751D02*
X0251451Y0058685D01*
X0251684Y0059224D02*
X0251684Y0059691D01*
X0251684Y0059458D02*
X0253085Y0059458D01*
X0253085Y0059691D02*
X0253085Y0059224D01*
X0252852Y0060206D02*
X0253085Y0060440D01*
X0253085Y0060907D01*
X0252852Y0061141D01*
X0252618Y0061141D01*
X0251684Y0060206D01*
X0251684Y0061141D01*
X0251918Y0061680D02*
X0251684Y0061913D01*
X0251684Y0062380D01*
X0251918Y0062614D01*
X0251451Y0063153D02*
X0251451Y0064087D01*
X0251918Y0064626D02*
X0252852Y0065560D01*
X0251918Y0065560D01*
X0251684Y0065327D01*
X0251684Y0064860D01*
X0251918Y0064626D01*
X0252852Y0064626D01*
X0253085Y0064860D01*
X0253085Y0065327D01*
X0252852Y0065560D01*
X0252852Y0062614D02*
X0253085Y0062380D01*
X0253085Y0061913D01*
X0252852Y0061680D01*
X0251918Y0061680D01*
X0239306Y0061634D02*
X0238372Y0061634D01*
X0237905Y0061167D01*
X0238372Y0060700D01*
X0239306Y0060700D01*
X0237671Y0060161D02*
X0237671Y0059226D01*
X0238138Y0058687D02*
X0237905Y0058454D01*
X0237905Y0057987D01*
X0238138Y0057753D01*
X0239072Y0057753D01*
X0239306Y0057987D01*
X0239306Y0058454D01*
X0239072Y0058687D01*
X0239306Y0062173D02*
X0237905Y0062173D01*
X0238372Y0062173D02*
X0238372Y0062873D01*
X0238605Y0063107D01*
X0239072Y0063107D01*
X0239306Y0062873D01*
X0239306Y0062173D01*
X0238372Y0062640D02*
X0237905Y0063107D01*
X0237671Y0063646D02*
X0237671Y0064580D01*
X0237905Y0065119D02*
X0237905Y0066054D01*
X0237905Y0065586D02*
X0239306Y0065586D01*
X0238839Y0065119D01*
X0251684Y0073010D02*
X0253085Y0073010D01*
X0253085Y0073711D01*
X0252852Y0073944D01*
X0252385Y0073944D01*
X0252151Y0073711D01*
X0252151Y0073010D01*
X0252151Y0073477D02*
X0251684Y0073944D01*
X0251451Y0074483D02*
X0251451Y0075417D01*
X0251684Y0075957D02*
X0251684Y0076424D01*
X0251684Y0076190D02*
X0253085Y0076190D01*
X0253085Y0075957D02*
X0253085Y0076424D01*
X0252852Y0076939D02*
X0253085Y0077172D01*
X0253085Y0077639D01*
X0252852Y0077873D01*
X0252618Y0077873D01*
X0251684Y0076939D01*
X0251684Y0077873D01*
X0251918Y0078412D02*
X0251684Y0078646D01*
X0251684Y0079113D01*
X0251918Y0079346D01*
X0251451Y0079885D02*
X0251451Y0080819D01*
X0251684Y0081359D02*
X0251684Y0082293D01*
X0251684Y0081826D02*
X0253085Y0081826D01*
X0252618Y0081359D01*
X0252852Y0079346D02*
X0253085Y0079113D01*
X0253085Y0078646D01*
X0252852Y0078412D01*
X0251918Y0078412D01*
X0258500Y0079323D02*
X0258734Y0079089D01*
X0259201Y0079089D01*
X0259434Y0079323D01*
X0259973Y0079323D02*
X0260207Y0079089D01*
X0260674Y0079089D01*
X0260907Y0079323D01*
X0259973Y0080257D01*
X0259973Y0079323D01*
X0259973Y0080257D02*
X0260207Y0080491D01*
X0260674Y0080491D01*
X0260907Y0080257D01*
X0260907Y0079323D01*
X0261447Y0080491D02*
X0262381Y0079089D01*
X0262920Y0079089D02*
X0263854Y0079089D01*
X0262920Y0080024D01*
X0262920Y0080257D01*
X0263153Y0080491D01*
X0263620Y0080491D01*
X0263854Y0080257D01*
X0264393Y0080257D02*
X0265327Y0079323D01*
X0265094Y0079089D01*
X0264627Y0079089D01*
X0264393Y0079323D01*
X0264393Y0080257D01*
X0264627Y0080491D01*
X0265094Y0080491D01*
X0265327Y0080257D01*
X0265327Y0079323D01*
X0265866Y0078856D02*
X0266800Y0078856D01*
X0267340Y0079089D02*
X0267340Y0080491D01*
X0268274Y0080491D02*
X0267340Y0079089D01*
X0268274Y0079089D02*
X0268274Y0080491D01*
X0268813Y0080257D02*
X0269046Y0080491D01*
X0269513Y0080491D01*
X0269747Y0080257D01*
X0269747Y0079323D01*
X0269513Y0079089D01*
X0269046Y0079089D01*
X0268813Y0079323D01*
X0268813Y0080257D01*
X0270286Y0080257D02*
X0270520Y0080491D01*
X0270987Y0080491D01*
X0271220Y0080257D01*
X0271220Y0079323D01*
X0270987Y0079089D01*
X0270520Y0079089D01*
X0270286Y0079323D01*
X0271759Y0078856D02*
X0272693Y0078856D01*
X0273466Y0079323D02*
X0273466Y0080491D01*
X0273233Y0080491D02*
X0273700Y0080491D01*
X0273466Y0079323D02*
X0273700Y0079089D01*
X0273933Y0079089D01*
X0274167Y0079323D01*
X0259434Y0080257D02*
X0259201Y0080491D01*
X0258734Y0080491D01*
X0258500Y0080257D01*
X0258500Y0080024D01*
X0258734Y0079790D01*
X0258500Y0079557D01*
X0258500Y0079323D01*
X0258734Y0079790D02*
X0258967Y0079790D01*
X0239306Y0078622D02*
X0239072Y0078855D01*
X0238605Y0078855D01*
X0238372Y0078622D01*
X0238372Y0077921D01*
X0238372Y0078388D02*
X0237905Y0078855D01*
X0237671Y0079394D02*
X0237671Y0080328D01*
X0238138Y0080867D02*
X0239072Y0081802D01*
X0238138Y0081802D01*
X0237905Y0081568D01*
X0237905Y0081101D01*
X0238138Y0080867D01*
X0239072Y0080867D01*
X0239306Y0081101D01*
X0239306Y0081568D01*
X0239072Y0081802D01*
X0239306Y0078622D02*
X0239306Y0077921D01*
X0237905Y0077921D01*
X0238372Y0077382D02*
X0237905Y0076915D01*
X0238372Y0076448D01*
X0239306Y0076448D01*
X0239306Y0077382D02*
X0238372Y0077382D01*
X0237671Y0075909D02*
X0237671Y0074974D01*
X0238138Y0074435D02*
X0237905Y0074202D01*
X0237905Y0073735D01*
X0238138Y0073501D01*
X0239072Y0073501D01*
X0239306Y0073735D01*
X0239306Y0074202D01*
X0239072Y0074435D01*
X0226687Y0083260D02*
X0226454Y0083026D01*
X0225987Y0083026D01*
X0225753Y0083260D01*
X0225753Y0084428D01*
X0226687Y0084428D02*
X0226687Y0083260D01*
X0225214Y0082793D02*
X0224280Y0082793D01*
X0223741Y0083494D02*
X0223274Y0083026D01*
X0222807Y0083494D01*
X0222807Y0084428D01*
X0222268Y0084428D02*
X0221567Y0084428D01*
X0221334Y0084194D01*
X0221334Y0083727D01*
X0221567Y0083494D01*
X0222268Y0083494D01*
X0221801Y0083494D02*
X0221334Y0083026D01*
X0222268Y0083026D02*
X0222268Y0084428D01*
X0223741Y0084428D02*
X0223741Y0083494D01*
X0178701Y0069430D02*
X0178701Y0068496D01*
X0178467Y0068263D01*
X0178000Y0068263D01*
X0177766Y0068496D01*
X0177227Y0068029D02*
X0176293Y0068029D01*
X0175754Y0068263D02*
X0175754Y0069197D01*
X0175287Y0069664D01*
X0174820Y0069197D01*
X0174820Y0068263D01*
X0174820Y0068963D02*
X0175754Y0068963D01*
X0174281Y0069664D02*
X0173347Y0069664D01*
X0173814Y0069664D02*
X0173814Y0068263D01*
X0172807Y0068263D02*
X0172807Y0069664D01*
X0172340Y0069197D01*
X0171873Y0069664D01*
X0171873Y0068263D01*
X0171334Y0068029D02*
X0170400Y0068029D01*
X0169861Y0068263D02*
X0168927Y0068263D01*
X0169394Y0068263D02*
X0169394Y0069664D01*
X0169861Y0069197D01*
X0177766Y0069430D02*
X0178000Y0069664D01*
X0178467Y0069664D01*
X0178701Y0069430D01*
X0168624Y0084011D02*
X0168157Y0084011D01*
X0167924Y0084244D01*
X0167385Y0083777D02*
X0166451Y0083777D01*
X0165911Y0084011D02*
X0165911Y0084945D01*
X0165444Y0085412D01*
X0164977Y0084945D01*
X0164977Y0084011D01*
X0164977Y0084711D02*
X0165911Y0084711D01*
X0164438Y0085412D02*
X0163504Y0085412D01*
X0163971Y0085412D02*
X0163971Y0084011D01*
X0162965Y0084011D02*
X0162965Y0085412D01*
X0162498Y0084945D01*
X0162031Y0085412D01*
X0162031Y0084011D01*
X0161492Y0083777D02*
X0160558Y0083777D01*
X0160018Y0084011D02*
X0159084Y0084945D01*
X0159084Y0085178D01*
X0159318Y0085412D01*
X0159785Y0085412D01*
X0160018Y0085178D01*
X0160018Y0084011D02*
X0159084Y0084011D01*
X0167924Y0085178D02*
X0168157Y0085412D01*
X0168624Y0085412D01*
X0168858Y0085178D01*
X0168858Y0084244D01*
X0168624Y0084011D01*
X0132434Y0086213D02*
X0132201Y0085979D01*
X0131734Y0085979D01*
X0131500Y0086213D01*
X0131500Y0087380D01*
X0132434Y0087380D02*
X0132434Y0086213D01*
X0130961Y0085746D02*
X0130027Y0085746D01*
X0129488Y0085979D02*
X0129488Y0086913D01*
X0129021Y0087380D01*
X0128554Y0086913D01*
X0128554Y0085979D01*
X0128554Y0086680D02*
X0129488Y0086680D01*
X0128015Y0087380D02*
X0127081Y0087380D01*
X0127548Y0087380D02*
X0127548Y0085979D01*
X0126541Y0085979D02*
X0126541Y0087380D01*
X0126074Y0086913D01*
X0125607Y0087380D01*
X0125607Y0085979D01*
X0125068Y0085979D02*
X0124134Y0085979D01*
X0123595Y0086213D02*
X0123361Y0085979D01*
X0122894Y0085979D01*
X0122661Y0086213D01*
X0122661Y0086680D01*
X0123128Y0086680D01*
X0123595Y0087147D02*
X0123595Y0086213D01*
X0123595Y0087147D02*
X0123361Y0087380D01*
X0122894Y0087380D01*
X0122661Y0087147D01*
X0122122Y0086913D02*
X0121655Y0087380D01*
X0121188Y0086913D01*
X0121188Y0085979D01*
X0120648Y0086213D02*
X0120415Y0085979D01*
X0119948Y0085979D01*
X0119714Y0086213D01*
X0119714Y0086446D01*
X0119948Y0086680D01*
X0120181Y0086680D01*
X0119948Y0086680D02*
X0119714Y0086913D01*
X0119714Y0087147D01*
X0119948Y0087380D01*
X0120415Y0087380D01*
X0120648Y0087147D01*
X0121188Y0086680D02*
X0122122Y0086680D01*
X0122122Y0086913D02*
X0122122Y0085979D01*
X0124601Y0086680D02*
X0125068Y0086680D01*
X0125068Y0087380D02*
X0125068Y0085979D01*
X0125068Y0087380D02*
X0124134Y0087380D01*
X0119175Y0087147D02*
X0118942Y0087380D01*
X0118475Y0087380D01*
X0118241Y0087147D01*
X0118241Y0086913D01*
X0119175Y0085979D01*
X0118241Y0085979D01*
X0117702Y0086213D02*
X0117702Y0086446D01*
X0117468Y0086680D01*
X0117001Y0086680D01*
X0116768Y0086446D01*
X0116768Y0086213D01*
X0117001Y0085979D01*
X0117468Y0085979D01*
X0117702Y0086213D01*
X0117468Y0086680D02*
X0117702Y0086913D01*
X0117702Y0087147D01*
X0117468Y0087380D01*
X0117001Y0087380D01*
X0116768Y0087147D01*
X0116768Y0086913D01*
X0117001Y0086680D01*
X0038519Y0085505D02*
X0038519Y0085038D01*
X0038285Y0084804D01*
X0037351Y0084804D01*
X0037117Y0085038D01*
X0037117Y0085505D01*
X0037351Y0085739D01*
X0037818Y0085739D01*
X0037818Y0085272D01*
X0038285Y0085739D02*
X0038519Y0085505D01*
X0038285Y0084265D02*
X0038519Y0084032D01*
X0038519Y0083565D01*
X0038285Y0083331D01*
X0037351Y0083331D01*
X0037117Y0083565D01*
X0037117Y0084032D01*
X0037351Y0084265D01*
X0038285Y0084265D01*
X0038285Y0082792D02*
X0037818Y0082792D01*
X0037584Y0082559D01*
X0037584Y0081858D01*
X0037117Y0081858D02*
X0038519Y0081858D01*
X0038519Y0082559D01*
X0038285Y0082792D01*
X0037584Y0082325D02*
X0037117Y0082792D01*
X0037818Y0081319D02*
X0037584Y0081085D01*
X0037584Y0080385D01*
X0037117Y0080385D02*
X0038519Y0080385D01*
X0038519Y0081085D01*
X0038285Y0081319D01*
X0037818Y0081319D01*
X0036884Y0079846D02*
X0036884Y0078911D01*
X0037351Y0078139D02*
X0038519Y0078139D01*
X0038519Y0078372D02*
X0038519Y0077905D01*
X0037351Y0078139D02*
X0037117Y0077905D01*
X0037117Y0077672D01*
X0037351Y0077438D01*
X0037230Y0071632D02*
X0037463Y0071399D01*
X0037463Y0070465D01*
X0037230Y0070231D01*
X0036763Y0070231D01*
X0036529Y0070465D01*
X0035990Y0069998D02*
X0035056Y0069998D01*
X0034517Y0070231D02*
X0033583Y0070231D01*
X0033044Y0070231D02*
X0032110Y0070231D01*
X0031570Y0070231D02*
X0030870Y0070231D01*
X0030636Y0070465D01*
X0030636Y0071399D01*
X0030870Y0071632D01*
X0031570Y0071632D01*
X0031570Y0070231D01*
X0032577Y0070932D02*
X0033044Y0070932D01*
X0033044Y0071632D02*
X0033044Y0070231D01*
X0034517Y0070231D02*
X0034517Y0071632D01*
X0033044Y0071632D02*
X0032110Y0071632D01*
X0036529Y0071399D02*
X0036763Y0071632D01*
X0037230Y0071632D01*
X0021462Y0079323D02*
X0021228Y0079089D01*
X0020995Y0079089D01*
X0020761Y0079323D01*
X0020761Y0080491D01*
X0020995Y0080491D02*
X0020527Y0080491D01*
X0019988Y0080257D02*
X0019988Y0079323D01*
X0019755Y0079089D01*
X0019288Y0079089D01*
X0019054Y0079323D01*
X0018515Y0079323D02*
X0018282Y0079089D01*
X0017814Y0079089D01*
X0017581Y0079323D01*
X0017581Y0080257D01*
X0017814Y0080491D01*
X0018282Y0080491D01*
X0018515Y0080257D01*
X0018515Y0079323D01*
X0019054Y0080257D02*
X0019288Y0080491D01*
X0019755Y0080491D01*
X0019988Y0080257D01*
X0017042Y0080491D02*
X0017042Y0079089D01*
X0016108Y0079089D02*
X0016108Y0080491D01*
X0017042Y0080491D02*
X0016108Y0079089D01*
X0015569Y0078856D02*
X0014634Y0078856D01*
X0014095Y0079323D02*
X0013161Y0080257D01*
X0013161Y0079323D01*
X0013395Y0079089D01*
X0013862Y0079089D01*
X0014095Y0079323D01*
X0014095Y0080257D01*
X0013862Y0080491D01*
X0013395Y0080491D01*
X0013161Y0080257D01*
X0012622Y0080257D02*
X0012389Y0080491D01*
X0011921Y0080491D01*
X0011688Y0080257D01*
X0012622Y0079323D01*
X0012389Y0079089D01*
X0011921Y0079089D01*
X0011688Y0079323D01*
X0011688Y0080257D01*
X0012622Y0080257D02*
X0012622Y0079323D01*
X0011149Y0079089D02*
X0010215Y0080491D01*
X0009676Y0080257D02*
X0009442Y0080491D01*
X0008975Y0080491D01*
X0008741Y0080257D01*
X0009676Y0079323D01*
X0009442Y0079089D01*
X0008975Y0079089D01*
X0008741Y0079323D01*
X0008741Y0080257D01*
X0008202Y0080024D02*
X0007735Y0080491D01*
X0007735Y0079089D01*
X0008202Y0079089D02*
X0007268Y0079089D01*
X0009676Y0079323D02*
X0009676Y0080257D01*
D15*
X0091612Y0048293D02*
X0091614Y0048330D01*
X0091620Y0048366D01*
X0091630Y0048401D01*
X0091643Y0048435D01*
X0091661Y0048468D01*
X0091681Y0048498D01*
X0091705Y0048526D01*
X0091732Y0048551D01*
X0091761Y0048574D01*
X0091792Y0048593D01*
X0091826Y0048608D01*
X0091860Y0048620D01*
X0091896Y0048628D01*
X0091933Y0048632D01*
X0091969Y0048632D01*
X0092006Y0048628D01*
X0092042Y0048620D01*
X0092076Y0048608D01*
X0092110Y0048593D01*
X0092141Y0048574D01*
X0092170Y0048551D01*
X0092197Y0048526D01*
X0092221Y0048498D01*
X0092241Y0048468D01*
X0092259Y0048435D01*
X0092272Y0048401D01*
X0092282Y0048366D01*
X0092288Y0048330D01*
X0092290Y0048293D01*
X0092288Y0048256D01*
X0092282Y0048220D01*
X0092272Y0048185D01*
X0092259Y0048151D01*
X0092241Y0048118D01*
X0092221Y0048088D01*
X0092197Y0048060D01*
X0092170Y0048035D01*
X0092141Y0048012D01*
X0092110Y0047993D01*
X0092076Y0047978D01*
X0092042Y0047966D01*
X0092006Y0047958D01*
X0091969Y0047954D01*
X0091933Y0047954D01*
X0091896Y0047958D01*
X0091860Y0047966D01*
X0091826Y0047978D01*
X0091792Y0047993D01*
X0091761Y0048012D01*
X0091732Y0048035D01*
X0091705Y0048060D01*
X0091681Y0048088D01*
X0091661Y0048118D01*
X0091643Y0048151D01*
X0091630Y0048185D01*
X0091620Y0048220D01*
X0091614Y0048256D01*
X0091612Y0048293D01*
X0173188Y0087748D02*
X0173639Y0087298D01*
X0174540Y0087298D01*
X0174990Y0087748D01*
X0173188Y0089550D01*
X0173188Y0087748D01*
X0174990Y0087748D02*
X0174990Y0089550D01*
X0174540Y0090000D01*
X0173639Y0090000D01*
X0173188Y0089550D01*
X0176013Y0087748D02*
X0176013Y0087298D01*
X0176463Y0087298D01*
X0176463Y0087748D01*
X0176013Y0087748D01*
X0177608Y0087748D02*
X0178059Y0087298D01*
X0178959Y0087298D01*
X0179410Y0087748D01*
X0178509Y0088649D02*
X0178059Y0088649D01*
X0177608Y0088198D01*
X0177608Y0087748D01*
X0178059Y0088649D02*
X0177608Y0089099D01*
X0177608Y0089550D01*
X0178059Y0090000D01*
X0178959Y0090000D01*
X0179410Y0089550D01*
X0183501Y0089099D02*
X0183501Y0087298D01*
X0185303Y0087298D02*
X0185303Y0089099D01*
X0184402Y0090000D01*
X0183501Y0089099D01*
X0183501Y0088649D02*
X0185303Y0088649D01*
X0186448Y0088198D02*
X0186898Y0088649D01*
X0187799Y0088649D01*
X0188249Y0089099D01*
X0188249Y0089550D01*
X0187799Y0090000D01*
X0186898Y0090000D01*
X0186448Y0089550D01*
X0189394Y0088649D02*
X0191196Y0088649D01*
X0192341Y0089550D02*
X0193242Y0088649D01*
X0193242Y0087298D01*
X0195287Y0087748D02*
X0195738Y0087298D01*
X0197089Y0087298D01*
X0197089Y0090000D01*
X0195738Y0090000D01*
X0195287Y0089550D01*
X0195287Y0089099D01*
X0195738Y0088649D01*
X0197089Y0088649D01*
X0195738Y0088649D02*
X0195287Y0088198D01*
X0195287Y0087748D01*
X0194142Y0089550D02*
X0193242Y0088649D01*
X0194142Y0089550D02*
X0194142Y0090000D01*
X0192341Y0090000D02*
X0192341Y0089550D01*
X0188249Y0087748D02*
X0187799Y0087298D01*
X0186898Y0087298D01*
X0186448Y0087748D01*
X0186448Y0088198D01*
X0201180Y0087748D02*
X0201631Y0087298D01*
X0202532Y0087298D01*
X0202982Y0087748D01*
X0202982Y0089550D01*
X0202532Y0090000D01*
X0201631Y0090000D01*
X0201180Y0089550D01*
X0204127Y0089550D02*
X0204577Y0090000D01*
X0205478Y0090000D01*
X0205928Y0089550D01*
X0205928Y0087748D01*
X0205478Y0087298D01*
X0204577Y0087298D01*
X0204127Y0087748D01*
X0210020Y0087298D02*
X0210020Y0090000D01*
X0210020Y0089099D02*
X0211371Y0089099D01*
X0211822Y0088649D01*
X0211822Y0087748D01*
X0211371Y0087298D01*
X0210020Y0087298D01*
X0212966Y0088198D02*
X0214768Y0088198D01*
X0214768Y0087748D02*
X0214768Y0088649D01*
X0214318Y0089099D01*
X0213417Y0089099D01*
X0212966Y0088649D01*
X0212966Y0088198D01*
X0213417Y0087298D02*
X0214318Y0087298D01*
X0214768Y0087748D01*
X0215913Y0087748D02*
X0216363Y0087298D01*
X0217715Y0087298D01*
X0217264Y0088198D02*
X0217715Y0088649D01*
X0217264Y0089099D01*
X0215913Y0089099D01*
X0216363Y0088198D02*
X0217264Y0088198D01*
X0216363Y0088198D02*
X0215913Y0087748D01*
X0218860Y0087298D02*
X0218860Y0088649D01*
X0219310Y0089099D01*
X0220661Y0089099D01*
X0220661Y0087298D01*
X0221806Y0088198D02*
X0223608Y0088198D01*
X0223608Y0087748D02*
X0223608Y0088649D01*
X0223157Y0089099D01*
X0222256Y0089099D01*
X0221806Y0088649D01*
X0221806Y0088198D01*
X0222256Y0087298D02*
X0223157Y0087298D01*
X0223608Y0087748D01*
X0224753Y0087298D02*
X0226104Y0087298D01*
X0226554Y0087748D01*
X0226554Y0088649D01*
X0226104Y0089099D01*
X0224753Y0089099D01*
X0228068Y0089099D02*
X0228068Y0087298D01*
X0228518Y0087298D02*
X0227618Y0087298D01*
X0229663Y0087298D02*
X0231465Y0087298D01*
X0231465Y0090000D01*
X0228518Y0089099D02*
X0228068Y0089099D01*
X0228068Y0090000D02*
X0228068Y0090450D01*
D16*
X0210494Y0080242D02*
X0210494Y0053746D01*
X0186006Y0053746D01*
X0186006Y0080242D02*
X0210494Y0080242D01*
D17*
X0211676Y0076010D03*
X0211676Y0057978D03*
D18*
X0212463Y0066994D03*
D19*
X0134394Y0050626D02*
X0134396Y0050675D01*
X0134402Y0050723D01*
X0134412Y0050771D01*
X0134426Y0050818D01*
X0134443Y0050864D01*
X0134464Y0050908D01*
X0134489Y0050950D01*
X0134517Y0050990D01*
X0134549Y0051028D01*
X0134583Y0051063D01*
X0134620Y0051095D01*
X0134659Y0051124D01*
X0134701Y0051150D01*
X0134745Y0051172D01*
X0134790Y0051190D01*
X0134837Y0051205D01*
X0134884Y0051216D01*
X0134933Y0051223D01*
X0134982Y0051226D01*
X0135031Y0051225D01*
X0135079Y0051220D01*
X0135128Y0051211D01*
X0135175Y0051198D01*
X0135221Y0051181D01*
X0135265Y0051161D01*
X0135308Y0051137D01*
X0135349Y0051110D01*
X0135387Y0051079D01*
X0135423Y0051046D01*
X0135455Y0051010D01*
X0135485Y0050971D01*
X0135512Y0050930D01*
X0135535Y0050886D01*
X0135554Y0050841D01*
X0135570Y0050795D01*
X0135582Y0050748D01*
X0135590Y0050699D01*
X0135594Y0050650D01*
X0135594Y0050602D01*
X0135590Y0050553D01*
X0135582Y0050504D01*
X0135570Y0050457D01*
X0135554Y0050411D01*
X0135535Y0050366D01*
X0135512Y0050322D01*
X0135485Y0050281D01*
X0135455Y0050242D01*
X0135423Y0050206D01*
X0135387Y0050173D01*
X0135349Y0050142D01*
X0135308Y0050115D01*
X0135265Y0050091D01*
X0135221Y0050071D01*
X0135175Y0050054D01*
X0135128Y0050041D01*
X0135079Y0050032D01*
X0135031Y0050027D01*
X0134982Y0050026D01*
X0134933Y0050029D01*
X0134884Y0050036D01*
X0134837Y0050047D01*
X0134790Y0050062D01*
X0134745Y0050080D01*
X0134701Y0050102D01*
X0134659Y0050128D01*
X0134620Y0050157D01*
X0134583Y0050189D01*
X0134549Y0050224D01*
X0134517Y0050262D01*
X0134489Y0050302D01*
X0134464Y0050344D01*
X0134443Y0050388D01*
X0134426Y0050434D01*
X0134412Y0050481D01*
X0134402Y0050529D01*
X0134396Y0050577D01*
X0134394Y0050626D01*
X0132896Y0051226D02*
X0134294Y0052624D01*
X0134294Y0078825D01*
X0106695Y0078825D01*
X0106695Y0051226D01*
X0132896Y0051226D01*
X0068132Y0057652D02*
X0068132Y0064526D01*
X0066951Y0062270D02*
X0063802Y0062270D01*
X0065376Y0059908D01*
X0066951Y0062270D01*
X0066164Y0061876D02*
X0064589Y0061876D01*
X0065376Y0060695D01*
X0066164Y0061876D01*
X0065935Y0061533D02*
X0064818Y0061533D01*
X0065350Y0060735D02*
X0065403Y0060735D01*
X0062620Y0057652D02*
X0062620Y0064526D01*
D20*
X0065376Y0059514D03*
M02*
