G75*
%MOIN*%
%OFA0B0*%
%FSLAX25Y25*%
%IPPOS*%
%LPD*%
%AMOC8*
5,1,8,0,0,1.08239X$1,22.5*
%
%ADD10C,0.01600*%
%ADD11C,0.00000*%
%ADD12C,0.01200*%
%ADD13R,0.11811X0.06299*%
%ADD14R,0.22835X0.24409*%
%ADD15R,0.05906X0.05118*%
%ADD16C,0.04724*%
%ADD17C,0.12661*%
%ADD18R,0.23622X0.05906*%
%ADD19R,0.06299X0.05118*%
%ADD20R,0.02200X0.05000*%
%ADD21R,0.05000X0.02200*%
%ADD22R,0.05512X0.05512*%
%ADD23R,0.06000X0.06000*%
%ADD24C,0.02045*%
%ADD25R,0.10630X0.06299*%
%ADD26C,0.06000*%
%ADD27C,0.02969*%
%ADD28C,0.01000*%
%ADD29C,0.02400*%
%ADD30C,0.01500*%
%ADD31C,0.03750*%
D10*
X0008290Y0025656D02*
X0014195Y0025656D01*
X0014195Y0033530D01*
X0026006Y0033530D01*
X0026006Y0025656D01*
X0037817Y0025656D01*
X0035817Y0029256D02*
X0029606Y0029256D01*
X0029606Y0034246D01*
X0029058Y0035569D01*
X0028046Y0036582D01*
X0026722Y0037130D01*
X0013479Y0037130D01*
X0012156Y0036582D01*
X0011143Y0035569D01*
X0011109Y0035486D01*
X0010991Y0035604D01*
X0009238Y0036330D01*
X0007341Y0036330D01*
X0005984Y0035768D01*
X0005984Y0042541D01*
X0007270Y0042541D01*
X0009022Y0043267D01*
X0009195Y0043440D01*
X0009195Y0040370D01*
X0010367Y0039199D01*
X0018024Y0039199D01*
X0019195Y0040370D01*
X0019195Y0040622D01*
X0044982Y0040622D01*
X0044909Y0040592D01*
X0042566Y0038249D01*
X0041391Y0035412D01*
X0040887Y0035412D01*
X0039283Y0034747D01*
X0038097Y0033561D01*
X0036989Y0033561D01*
X0035817Y0032390D01*
X0035817Y0029256D01*
X0029606Y0029256D01*
X0029606Y0034246D01*
X0029058Y0035569D01*
X0028046Y0036582D01*
X0026722Y0037130D01*
X0013479Y0037130D01*
X0012156Y0036582D01*
X0011143Y0035569D01*
X0011109Y0035486D01*
X0010991Y0035604D01*
X0009238Y0036330D01*
X0007341Y0036330D01*
X0005984Y0035768D01*
X0005984Y0042541D01*
X0007270Y0042541D01*
X0009022Y0043267D01*
X0009395Y0043640D01*
X0009395Y0040962D01*
X0009518Y0040504D01*
X0009755Y0040094D01*
X0010090Y0039759D01*
X0010500Y0039522D01*
X0010958Y0039399D01*
X0013995Y0039399D01*
X0013995Y0043999D01*
X0014395Y0043999D01*
X0014395Y0039399D01*
X0017432Y0039399D01*
X0017890Y0039522D01*
X0018300Y0039759D01*
X0018636Y0040094D01*
X0018873Y0040504D01*
X0018995Y0040962D01*
X0018995Y0043999D01*
X0014395Y0043999D01*
X0014395Y0044399D01*
X0013995Y0044399D01*
X0013995Y0048999D01*
X0010958Y0048999D01*
X0010800Y0048957D01*
X0010700Y0049199D01*
X0010700Y0049199D01*
X0018024Y0049199D01*
X0019195Y0050370D01*
X0019195Y0054538D01*
X0021574Y0056916D01*
X0022305Y0057647D01*
X0022701Y0058603D01*
X0022701Y0065917D01*
X0024597Y0067813D01*
X0024597Y0060654D01*
X0025768Y0059482D01*
X0035623Y0059482D01*
X0034898Y0058758D01*
X0025768Y0058758D01*
X0024597Y0057586D01*
X0024597Y0049630D01*
X0025768Y0048459D01*
X0038055Y0048459D01*
X0039227Y0049630D01*
X0039227Y0054036D01*
X0041111Y0055920D01*
X0054005Y0055920D01*
X0055181Y0056407D01*
X0055500Y0056726D01*
X0057236Y0056726D01*
X0057272Y0056699D01*
X0056809Y0056699D01*
X0055529Y0056168D01*
X0054549Y0055188D01*
X0054018Y0053908D01*
X0054018Y0052522D01*
X0054549Y0051241D01*
X0055529Y0050261D01*
X0056809Y0049730D01*
X0058195Y0049730D01*
X0059476Y0050261D01*
X0060011Y0050795D01*
X0060620Y0050841D01*
X0060620Y0050221D01*
X0061792Y0049049D01*
X0065653Y0049049D01*
X0074856Y0039846D01*
X0075116Y0039586D01*
X0067811Y0039555D01*
X0066158Y0039555D01*
X0066158Y0043919D01*
X0065739Y0044930D01*
X0064966Y0045703D01*
X0063955Y0046122D01*
X0019195Y0046122D01*
X0019195Y0048027D01*
X0018024Y0049199D01*
X0010700Y0049199D01*
X0018024Y0049199D01*
X0019195Y0050370D01*
X0019195Y0054538D01*
X0021574Y0056916D01*
X0021574Y0056916D01*
X0022305Y0057647D01*
X0022701Y0058603D01*
X0022701Y0065917D01*
X0024797Y0068013D01*
X0024797Y0065407D01*
X0031137Y0065407D01*
X0031137Y0069582D01*
X0026365Y0069582D01*
X0033385Y0076601D01*
X0034116Y0077332D01*
X0034512Y0078288D01*
X0034512Y0085602D01*
X0034957Y0086048D01*
X0039843Y0086048D01*
X0039313Y0084768D01*
X0039313Y0076779D01*
X0040075Y0074941D01*
X0041481Y0073535D01*
X0043319Y0072774D01*
X0045308Y0072774D01*
X0047028Y0073486D01*
X0047028Y0064509D01*
X0047424Y0063553D01*
X0048156Y0062822D01*
X0048657Y0062320D01*
X0039227Y0062320D01*
X0039227Y0068610D01*
X0038055Y0069782D01*
X0026565Y0069782D01*
X0033385Y0076601D01*
X0034116Y0077332D01*
X0034512Y0078288D01*
X0034512Y0085602D01*
X0034957Y0086048D01*
X0040085Y0086048D01*
X0039865Y0085616D01*
X0039632Y0084898D01*
X0039513Y0084151D01*
X0039513Y0080974D01*
X0044113Y0080974D01*
X0044113Y0080574D01*
X0039513Y0080574D01*
X0039513Y0077396D01*
X0039632Y0076650D01*
X0039865Y0075931D01*
X0040208Y0075258D01*
X0040652Y0074647D01*
X0041186Y0074112D01*
X0041798Y0073668D01*
X0042471Y0073325D01*
X0043189Y0073092D01*
X0043936Y0072974D01*
X0044113Y0072974D01*
X0044113Y0080574D01*
X0044513Y0080574D01*
X0044513Y0072974D01*
X0044691Y0072974D01*
X0045437Y0073092D01*
X0046156Y0073325D01*
X0046829Y0073668D01*
X0047028Y0073813D01*
X0047028Y0064509D01*
X0047424Y0063553D01*
X0048156Y0062822D01*
X0048156Y0062822D01*
X0048657Y0062320D01*
X0039149Y0062320D01*
X0039027Y0062269D01*
X0039027Y0063857D01*
X0032687Y0063857D01*
X0032687Y0065407D01*
X0039027Y0065407D01*
X0039027Y0068019D01*
X0038904Y0068476D01*
X0038667Y0068887D01*
X0038332Y0069222D01*
X0037922Y0069459D01*
X0037464Y0069582D01*
X0032687Y0069582D01*
X0032687Y0065407D01*
X0031137Y0065407D01*
X0031137Y0063857D01*
X0032687Y0063857D01*
X0032687Y0059682D01*
X0035823Y0059682D01*
X0034898Y0058758D01*
X0025768Y0058758D01*
X0024597Y0057586D01*
X0024597Y0049630D01*
X0025768Y0048459D01*
X0038055Y0048459D01*
X0039227Y0049630D01*
X0039227Y0054036D01*
X0041111Y0055920D01*
X0054005Y0055920D01*
X0055181Y0056407D01*
X0055500Y0056726D01*
X0057236Y0056726D01*
X0057272Y0056699D01*
X0056809Y0056699D01*
X0055529Y0056168D01*
X0054549Y0055188D01*
X0054018Y0053908D01*
X0054018Y0052522D01*
X0054549Y0051241D01*
X0055529Y0050261D01*
X0056809Y0049730D01*
X0058195Y0049730D01*
X0059476Y0050261D01*
X0060011Y0050795D01*
X0060620Y0050841D01*
X0060620Y0050221D01*
X0061792Y0049049D01*
X0065653Y0049049D01*
X0074856Y0039846D01*
X0075630Y0039072D01*
X0076640Y0038654D01*
X0085284Y0038654D01*
X0085819Y0038119D01*
X0087243Y0037529D01*
X0087576Y0037529D01*
X0087576Y0037222D01*
X0091377Y0037222D01*
X0091377Y0036893D01*
X0087576Y0036893D01*
X0087576Y0035872D01*
X0087685Y0035327D01*
X0087898Y0034814D01*
X0088206Y0034351D01*
X0088600Y0033958D01*
X0089062Y0033649D01*
X0089576Y0033437D01*
X0090121Y0033328D01*
X0091377Y0033328D01*
X0091377Y0036893D01*
X0091706Y0036893D01*
X0091706Y0037222D01*
X0095507Y0037222D01*
X0095507Y0038242D01*
X0095399Y0038787D01*
X0095186Y0039301D01*
X0094877Y0039763D01*
X0094484Y0040156D01*
X0094022Y0040465D01*
X0093508Y0040678D01*
X0092963Y0040786D01*
X0091889Y0040786D01*
X0091889Y0041821D01*
X0092629Y0041821D01*
X0091889Y0041082D01*
X0091889Y0041821D01*
X0093286Y0041821D01*
X0094397Y0042281D01*
X0095247Y0043131D01*
X0095255Y0043150D01*
X0095831Y0043150D01*
X0096786Y0043546D01*
X0098238Y0044998D01*
X0098238Y0044565D01*
X0098346Y0044020D01*
X0098559Y0043506D01*
X0098868Y0043044D01*
X0099261Y0042651D01*
X0099723Y0042342D01*
X0100237Y0042129D01*
X0100782Y0042021D01*
X0102039Y0042021D01*
X0102039Y0045585D01*
X0102368Y0045585D01*
X0102368Y0042021D01*
X0103624Y0042021D01*
X0104169Y0042129D01*
X0104683Y0042342D01*
X0105145Y0042651D01*
X0105538Y0043044D01*
X0105847Y0043506D01*
X0106060Y0044020D01*
X0106168Y0044565D01*
X0106168Y0045586D01*
X0102368Y0045586D01*
X0102368Y0045915D01*
X0106168Y0045915D01*
X0106168Y0046678D01*
X0106371Y0046678D01*
X0106371Y0044797D01*
X0107542Y0043626D01*
X0109197Y0043626D01*
X0105578Y0040006D01*
X0105058Y0040526D01*
X0103947Y0040986D01*
X0100459Y0040986D01*
X0099348Y0040526D01*
X0098498Y0039676D01*
X0098038Y0038565D01*
X0098038Y0036330D01*
X0097892Y0036330D01*
X0096140Y0035604D01*
X0095440Y0034903D01*
X0095707Y0035549D01*
X0095707Y0037546D01*
X0100122Y0041961D01*
X0100459Y0041821D01*
X0103947Y0041821D01*
X0105058Y0042281D01*
X0105908Y0043131D01*
X0106368Y0044242D01*
X0106368Y0046678D01*
X0106371Y0046678D01*
X0106371Y0044797D01*
X0107542Y0043626D01*
X0109197Y0043626D01*
X0105578Y0040006D01*
X0105058Y0040526D01*
X0103947Y0040986D01*
X0100459Y0040986D01*
X0099348Y0040526D01*
X0098498Y0039676D01*
X0098038Y0038565D01*
X0098038Y0036330D01*
X0097892Y0036330D01*
X0096140Y0035604D01*
X0094798Y0034262D01*
X0094072Y0032510D01*
X0094072Y0030613D01*
X0094635Y0029256D01*
X0081394Y0029256D01*
X0081956Y0030613D01*
X0081956Y0032510D01*
X0081230Y0034262D01*
X0081080Y0034412D01*
X0087835Y0034441D01*
X0087837Y0034438D01*
X0088687Y0033588D01*
X0089798Y0033128D01*
X0093286Y0033128D01*
X0094397Y0033588D01*
X0094606Y0033797D01*
X0094072Y0032510D01*
X0094072Y0030613D01*
X0094635Y0029256D01*
X0081394Y0029256D01*
X0081956Y0030613D01*
X0081956Y0032510D01*
X0081230Y0034262D01*
X0079889Y0035604D01*
X0078136Y0036330D01*
X0076239Y0036330D01*
X0074486Y0035604D01*
X0073145Y0034262D01*
X0073261Y0034378D01*
X0068340Y0034357D01*
X0068334Y0034355D01*
X0067822Y0034355D01*
X0067311Y0034353D01*
X0067306Y0034355D01*
X0064485Y0034355D01*
X0062979Y0032849D01*
X0063439Y0032390D01*
X0063439Y0029256D01*
X0072981Y0029256D01*
X0072419Y0030613D01*
X0072419Y0032510D01*
X0073145Y0034262D01*
X0072419Y0032510D01*
X0072419Y0030613D01*
X0072981Y0029256D01*
X0063439Y0029256D01*
X0063439Y0032390D01*
X0062268Y0033561D01*
X0060822Y0033561D01*
X0060677Y0033761D01*
X0060214Y0034224D01*
X0059684Y0034609D01*
X0059100Y0034907D01*
X0058477Y0035109D01*
X0057957Y0035191D01*
X0056691Y0038249D01*
X0054347Y0040592D01*
X0054275Y0040622D01*
X0060658Y0040622D01*
X0060658Y0037882D01*
X0058188Y0035412D01*
X0057866Y0035412D01*
X0056691Y0038249D01*
X0054347Y0040592D01*
X0051285Y0041860D01*
X0047971Y0041860D01*
X0044909Y0040592D01*
X0042566Y0038249D01*
X0041391Y0035412D01*
X0040887Y0035412D01*
X0039283Y0034747D01*
X0038097Y0033561D01*
X0036989Y0033561D01*
X0035817Y0032390D01*
X0035817Y0029256D01*
X0035817Y0029593D02*
X0029606Y0029593D01*
X0035817Y0029593D01*
X0035817Y0031191D02*
X0029606Y0031191D01*
X0035817Y0031191D01*
X0036217Y0032790D02*
X0029606Y0032790D01*
X0036217Y0032790D01*
X0038924Y0034388D02*
X0029547Y0034388D01*
X0038924Y0034388D01*
X0041629Y0035987D02*
X0028640Y0035987D01*
X0041629Y0035987D01*
X0042291Y0037585D02*
X0005984Y0037585D01*
X0042291Y0037585D01*
X0043501Y0039184D02*
X0005984Y0039184D01*
X0043501Y0039184D01*
X0045368Y0040782D02*
X0018947Y0040782D01*
X0014395Y0040782D02*
X0013995Y0040782D01*
X0009443Y0040782D02*
X0005984Y0040782D01*
X0009195Y0040782D01*
X0009195Y0042381D02*
X0005984Y0042381D01*
X0009395Y0042381D01*
X0013995Y0042381D02*
X0014395Y0042381D01*
X0018995Y0042381D02*
X0072321Y0042381D01*
X0066158Y0042381D01*
X0066133Y0043979D02*
X0070723Y0043979D01*
X0018995Y0043979D01*
X0018995Y0044399D02*
X0018995Y0047436D01*
X0018873Y0047894D01*
X0018636Y0048304D01*
X0018300Y0048639D01*
X0017890Y0048876D01*
X0017432Y0048999D01*
X0014395Y0048999D01*
X0014395Y0044399D01*
X0018995Y0044399D01*
X0014395Y0043979D02*
X0013995Y0043979D01*
X0013995Y0045578D02*
X0014395Y0045578D01*
X0014395Y0047176D02*
X0013995Y0047176D01*
X0013995Y0048775D02*
X0014395Y0048775D01*
X0018066Y0048775D02*
X0025452Y0048775D01*
X0018448Y0048775D01*
X0018995Y0047176D02*
X0067526Y0047176D01*
X0019195Y0047176D01*
X0018995Y0045578D02*
X0069124Y0045578D01*
X0065091Y0045578D01*
X0065927Y0048775D02*
X0038371Y0048775D01*
X0065927Y0048775D01*
X0060620Y0050373D02*
X0059588Y0050373D01*
X0060620Y0050373D01*
X0055416Y0050373D02*
X0039227Y0050373D01*
X0055416Y0050373D01*
X0054246Y0051972D02*
X0039227Y0051972D01*
X0054246Y0051972D01*
X0054018Y0053570D02*
X0039227Y0053570D01*
X0054018Y0053570D01*
X0054540Y0055169D02*
X0040360Y0055169D01*
X0054540Y0055169D01*
X0060683Y0060637D02*
X0063416Y0058561D01*
X0068961Y0058561D01*
X0070132Y0057390D01*
X0070132Y0052348D01*
X0078326Y0044154D01*
X0085284Y0044154D01*
X0085819Y0044689D01*
X0087243Y0045279D01*
X0087376Y0045279D01*
X0087376Y0045403D01*
X0086259Y0045403D01*
X0084835Y0045993D01*
X0083745Y0047083D01*
X0083155Y0048507D01*
X0083155Y0049617D01*
X0069058Y0063714D01*
X0068961Y0063616D01*
X0061792Y0063616D01*
X0060620Y0064788D01*
X0060620Y0065315D01*
X0060331Y0065026D01*
X0060683Y0064673D01*
X0060683Y0060637D01*
X0060683Y0061563D02*
X0071209Y0061563D01*
X0072808Y0059964D02*
X0061569Y0059964D01*
X0060683Y0063161D02*
X0069611Y0063161D01*
X0075083Y0064760D02*
X0099094Y0064760D01*
X0099094Y0066358D02*
X0073485Y0066358D01*
X0071886Y0067957D02*
X0099094Y0067957D01*
X0099094Y0069555D02*
X0070288Y0069555D01*
X0070132Y0069711D02*
X0070132Y0071956D01*
X0068961Y0073128D01*
X0067578Y0073128D01*
X0067512Y0073901D01*
X0068552Y0074941D01*
X0069313Y0076779D01*
X0069313Y0084768D01*
X0068783Y0086048D01*
X0069843Y0086048D01*
X0069313Y0084768D01*
X0069313Y0076779D01*
X0070075Y0074941D01*
X0071481Y0073535D01*
X0073319Y0072774D01*
X0075308Y0072774D01*
X0077146Y0073535D01*
X0078552Y0074941D01*
X0079313Y0076779D01*
X0079313Y0084768D01*
X0078783Y0086048D01*
X0079843Y0086048D01*
X0079313Y0084768D01*
X0079313Y0076779D01*
X0080075Y0074941D01*
X0081481Y0073535D01*
X0083319Y0072774D01*
X0085308Y0072774D01*
X0086799Y0073391D01*
X0088763Y0071427D01*
X0089494Y0070696D01*
X0090450Y0070300D01*
X0099094Y0070300D01*
X0099094Y0052074D01*
X0099290Y0051878D01*
X0098324Y0051878D01*
X0097368Y0051482D01*
X0096637Y0050750D01*
X0094751Y0048865D01*
X0094397Y0049219D01*
X0093286Y0049679D01*
X0090905Y0049679D01*
X0090905Y0050048D01*
X0090315Y0051473D01*
X0089225Y0052563D01*
X0087801Y0053153D01*
X0086690Y0053153D01*
X0070449Y0069395D01*
X0070132Y0069711D01*
X0070449Y0069395D02*
X0070449Y0069395D01*
X0070132Y0071154D02*
X0089036Y0071154D01*
X0087437Y0072752D02*
X0069336Y0072752D01*
X0070665Y0074351D02*
X0067962Y0074351D01*
X0068970Y0075949D02*
X0069657Y0075949D01*
X0069313Y0077548D02*
X0069313Y0077548D01*
X0069313Y0079146D02*
X0069313Y0079146D01*
X0069313Y0080745D02*
X0069313Y0080745D01*
X0069313Y0082343D02*
X0069313Y0082343D01*
X0069313Y0083942D02*
X0069313Y0083942D01*
X0068994Y0085541D02*
X0069633Y0085541D01*
X0059843Y0086048D02*
X0059313Y0084768D01*
X0058783Y0086048D01*
X0059843Y0086048D01*
X0059633Y0085541D02*
X0058994Y0085541D01*
X0059313Y0084768D02*
X0059313Y0076779D01*
X0058552Y0074941D01*
X0057146Y0073535D01*
X0056639Y0073325D01*
X0059512Y0073325D01*
X0060683Y0072153D01*
X0060683Y0072019D01*
X0061792Y0073128D01*
X0062359Y0073128D01*
X0062355Y0073173D01*
X0061481Y0073535D01*
X0060075Y0074941D01*
X0059313Y0076779D01*
X0059313Y0084768D01*
X0059313Y0083942D02*
X0059313Y0083942D01*
X0059313Y0082343D02*
X0059313Y0082343D01*
X0059313Y0080745D02*
X0059313Y0080745D01*
X0059313Y0079146D02*
X0059313Y0079146D01*
X0059313Y0077548D02*
X0059313Y0077548D01*
X0058970Y0075949D02*
X0059657Y0075949D01*
X0060665Y0074351D02*
X0057962Y0074351D01*
X0060084Y0072752D02*
X0061416Y0072752D01*
X0047028Y0072752D02*
X0029536Y0072752D01*
X0047028Y0072752D01*
X0047028Y0071154D02*
X0027937Y0071154D01*
X0047028Y0071154D01*
X0047028Y0069555D02*
X0038281Y0069555D01*
X0037561Y0069555D02*
X0047028Y0069555D01*
X0047028Y0067957D02*
X0039227Y0067957D01*
X0039027Y0067957D02*
X0047028Y0067957D01*
X0047028Y0066358D02*
X0039227Y0066358D01*
X0039027Y0066358D02*
X0047028Y0066358D01*
X0047028Y0064760D02*
X0039227Y0064760D01*
X0039227Y0063161D02*
X0047816Y0063161D01*
X0039027Y0063161D01*
X0032687Y0063161D02*
X0031137Y0063161D01*
X0031137Y0063857D02*
X0031137Y0059682D01*
X0026360Y0059682D01*
X0025902Y0059805D01*
X0025492Y0060042D01*
X0025156Y0060377D01*
X0024920Y0060788D01*
X0024797Y0061245D01*
X0024797Y0063857D01*
X0031137Y0063857D01*
X0031137Y0064760D02*
X0022701Y0064760D01*
X0024597Y0064760D01*
X0024597Y0066358D02*
X0023142Y0066358D01*
X0024797Y0066358D01*
X0024797Y0067957D02*
X0024740Y0067957D01*
X0031137Y0067957D02*
X0032687Y0067957D01*
X0032687Y0069555D02*
X0031137Y0069555D01*
X0031137Y0066358D02*
X0032687Y0066358D01*
X0032687Y0064760D02*
X0047028Y0064760D01*
X0060597Y0064760D02*
X0060648Y0064760D01*
X0076682Y0063161D02*
X0099094Y0063161D01*
X0099094Y0061563D02*
X0078280Y0061563D01*
X0079879Y0059964D02*
X0099094Y0059964D01*
X0099094Y0058366D02*
X0081477Y0058366D01*
X0083076Y0056767D02*
X0099094Y0056767D01*
X0099094Y0055169D02*
X0084674Y0055169D01*
X0086273Y0053570D02*
X0099094Y0053570D01*
X0099196Y0051972D02*
X0089816Y0051972D01*
X0090770Y0050373D02*
X0096260Y0050373D01*
X0108094Y0052626D02*
X0109888Y0052626D01*
X0109870Y0052668D01*
X0109870Y0077426D01*
X0108094Y0077426D01*
X0108094Y0052626D01*
X0108094Y0053570D02*
X0109870Y0053570D01*
X0109870Y0055169D02*
X0108094Y0055169D01*
X0108094Y0056767D02*
X0109870Y0056767D01*
X0109870Y0058366D02*
X0108094Y0058366D01*
X0108094Y0059964D02*
X0109870Y0059964D01*
X0109870Y0061563D02*
X0108094Y0061563D01*
X0108094Y0063161D02*
X0109870Y0063161D01*
X0109870Y0064760D02*
X0108094Y0064760D01*
X0108094Y0066358D02*
X0109870Y0066358D01*
X0109870Y0067957D02*
X0108094Y0067957D01*
X0108094Y0069555D02*
X0109870Y0069555D01*
X0109870Y0071154D02*
X0108094Y0071154D01*
X0108094Y0072752D02*
X0109870Y0072752D01*
X0109870Y0074351D02*
X0108094Y0074351D01*
X0108094Y0075949D02*
X0109870Y0075949D01*
X0117328Y0071977D02*
X0118752Y0072567D01*
X0119843Y0073657D01*
X0119860Y0073699D01*
X0119942Y0073733D01*
X0120645Y0074436D01*
X0121026Y0075355D01*
X0121026Y0077604D01*
X0121048Y0077626D01*
X0122069Y0077626D01*
X0122069Y0081926D01*
X0122069Y0081926D01*
X0122069Y0077626D01*
X0123090Y0077626D01*
X0123290Y0077426D01*
X0125810Y0077426D01*
X0125478Y0076623D01*
X0125478Y0075082D01*
X0126068Y0073657D01*
X0127158Y0072567D01*
X0128582Y0071977D01*
X0130124Y0071977D01*
X0130790Y0072253D01*
X0130790Y0070434D01*
X0131170Y0069515D01*
X0131874Y0068812D01*
X0132858Y0067828D01*
X0132894Y0067812D01*
X0132894Y0065557D01*
X0129380Y0065557D01*
X0128595Y0066342D01*
X0127171Y0066932D01*
X0125629Y0066932D01*
X0124205Y0066342D01*
X0123115Y0065252D01*
X0122525Y0063828D01*
X0122525Y0062286D01*
X0123115Y0060862D01*
X0124205Y0059772D01*
X0125629Y0059182D01*
X0127171Y0059182D01*
X0128595Y0059772D01*
X0129380Y0060557D01*
X0132894Y0060557D01*
X0132894Y0052626D01*
X0127719Y0052626D01*
X0127719Y0054893D01*
X0127338Y0055812D01*
X0126551Y0056599D01*
X0125848Y0057303D01*
X0124929Y0057683D01*
X0120042Y0057683D01*
X0120042Y0057845D01*
X0119511Y0059125D01*
X0118531Y0060105D01*
X0117251Y0060636D01*
X0115864Y0060636D01*
X0115370Y0060431D01*
X0115370Y0072150D01*
X0115787Y0071977D01*
X0117105Y0071977D01*
X0117541Y0070926D01*
X0118521Y0069946D01*
X0119801Y0069415D01*
X0121188Y0069415D01*
X0122468Y0069946D01*
X0123448Y0070926D01*
X0123979Y0072207D01*
X0123979Y0072848D01*
X0124582Y0073452D01*
X0124963Y0074371D01*
X0124963Y0077426D01*
X0125810Y0077426D01*
X0125478Y0076623D01*
X0125478Y0075082D01*
X0126068Y0073657D01*
X0127158Y0072567D01*
X0128582Y0071977D01*
X0130124Y0071977D01*
X0130790Y0072253D01*
X0130790Y0070434D01*
X0131170Y0069515D01*
X0131874Y0068812D01*
X0132858Y0067828D01*
X0132894Y0067812D01*
X0132894Y0065557D01*
X0129380Y0065557D01*
X0128595Y0066342D01*
X0127171Y0066932D01*
X0125629Y0066932D01*
X0124205Y0066342D01*
X0123115Y0065252D01*
X0122525Y0063828D01*
X0122525Y0062286D01*
X0123115Y0060862D01*
X0124205Y0059772D01*
X0125629Y0059182D01*
X0127171Y0059182D01*
X0128595Y0059772D01*
X0129380Y0060557D01*
X0132894Y0060557D01*
X0132894Y0052626D01*
X0130297Y0052626D01*
X0126440Y0052626D01*
X0126240Y0052426D01*
X0125219Y0052426D01*
X0125219Y0048126D01*
X0125219Y0048126D01*
X0125219Y0052426D01*
X0124198Y0052426D01*
X0123998Y0052626D01*
X0120141Y0052626D01*
X0119941Y0052426D01*
X0118920Y0052426D01*
X0118920Y0048168D01*
X0118920Y0048168D01*
X0118920Y0052426D01*
X0118323Y0052426D01*
X0118323Y0052777D01*
X0117905Y0053788D01*
X0117131Y0054562D01*
X0116147Y0055546D01*
X0115370Y0055868D01*
X0115370Y0072150D01*
X0115787Y0071977D01*
X0117328Y0071977D01*
X0117446Y0071154D02*
X0115370Y0071154D01*
X0130790Y0071154D01*
X0123543Y0071154D01*
X0121525Y0069555D02*
X0131154Y0069555D01*
X0115370Y0069555D01*
X0119464Y0069555D01*
X0115370Y0067957D02*
X0132729Y0067957D01*
X0115370Y0067957D01*
X0115370Y0066358D02*
X0124244Y0066358D01*
X0115370Y0066358D01*
X0115370Y0064760D02*
X0122911Y0064760D01*
X0115370Y0064760D01*
X0115370Y0063161D02*
X0122525Y0063161D01*
X0115370Y0063161D01*
X0115370Y0061563D02*
X0122825Y0061563D01*
X0115370Y0061563D01*
X0115370Y0059964D02*
X0124013Y0059964D01*
X0118672Y0059964D01*
X0119826Y0058366D02*
X0132894Y0058366D01*
X0115370Y0058366D01*
X0115370Y0056767D02*
X0132894Y0056767D01*
X0126383Y0056767D01*
X0127605Y0055169D02*
X0132894Y0055169D01*
X0116524Y0055169D01*
X0117995Y0053570D02*
X0132894Y0053570D01*
X0127719Y0053570D01*
X0125219Y0051972D02*
X0125219Y0051972D01*
X0125219Y0050373D02*
X0125219Y0050373D01*
X0125219Y0048775D02*
X0125219Y0048775D01*
X0118920Y0048775D02*
X0118920Y0048775D01*
X0118920Y0050373D02*
X0118920Y0050373D01*
X0118920Y0051972D02*
X0118920Y0051972D01*
X0121026Y0052626D02*
X0121026Y0052683D01*
X0122719Y0052683D01*
X0122719Y0052626D01*
X0121026Y0052626D01*
X0106371Y0045578D02*
X0106368Y0045578D01*
X0106371Y0045578D02*
X0106168Y0045578D01*
X0102368Y0045578D02*
X0102039Y0045578D01*
X0102038Y0045586D02*
X0098826Y0045586D01*
X0099155Y0045915D01*
X0102038Y0045915D01*
X0102038Y0045586D01*
X0102039Y0043979D02*
X0102368Y0043979D01*
X0106043Y0043979D02*
X0107189Y0043979D01*
X0106260Y0043979D01*
X0105158Y0042381D02*
X0107952Y0042381D01*
X0104741Y0042381D01*
X0102368Y0042381D02*
X0102039Y0042381D01*
X0099666Y0042381D02*
X0094496Y0042381D01*
X0092983Y0040782D02*
X0099966Y0040782D01*
X0098944Y0040782D01*
X0098294Y0039184D02*
X0097345Y0039184D01*
X0098294Y0039184D02*
X0095234Y0039184D01*
X0095507Y0037585D02*
X0098038Y0037585D01*
X0095747Y0037585D01*
X0095507Y0036893D02*
X0091706Y0036893D01*
X0091706Y0033328D01*
X0092963Y0033328D01*
X0093508Y0033437D01*
X0094022Y0033649D01*
X0094484Y0033958D01*
X0094877Y0034351D01*
X0095186Y0034814D01*
X0095399Y0035327D01*
X0095507Y0035872D01*
X0095507Y0036893D01*
X0095507Y0035987D02*
X0097064Y0035987D01*
X0095707Y0035987D01*
X0094924Y0034388D02*
X0094902Y0034388D01*
X0091706Y0034388D02*
X0091377Y0034388D01*
X0091377Y0035987D02*
X0091706Y0035987D01*
X0088182Y0034388D02*
X0081104Y0034388D01*
X0087887Y0034388D01*
X0087576Y0035987D02*
X0078964Y0035987D01*
X0075411Y0035987D02*
X0057628Y0035987D01*
X0058763Y0035987D01*
X0059988Y0034388D02*
X0073271Y0034388D01*
X0072535Y0032790D02*
X0063039Y0032790D01*
X0072535Y0032790D01*
X0072419Y0031191D02*
X0063439Y0031191D01*
X0072419Y0031191D01*
X0072841Y0029593D02*
X0063439Y0029593D01*
X0072841Y0029593D01*
X0081533Y0029593D02*
X0094495Y0029593D01*
X0081533Y0029593D01*
X0081956Y0031191D02*
X0094072Y0031191D01*
X0081956Y0031191D01*
X0081840Y0032790D02*
X0094188Y0032790D01*
X0081840Y0032790D01*
X0087107Y0037585D02*
X0056966Y0037585D01*
X0060361Y0037585D01*
X0060658Y0039184D02*
X0055756Y0039184D01*
X0075518Y0039184D01*
X0073920Y0040782D02*
X0066158Y0040782D01*
X0073920Y0040782D02*
X0053888Y0040782D01*
X0075304Y0047176D02*
X0083706Y0047176D01*
X0085836Y0045578D02*
X0076902Y0045578D01*
X0073705Y0048775D02*
X0083155Y0048775D01*
X0082399Y0050373D02*
X0072107Y0050373D01*
X0070508Y0051972D02*
X0080800Y0051972D01*
X0079202Y0053570D02*
X0070132Y0053570D01*
X0070132Y0055169D02*
X0077603Y0055169D01*
X0076005Y0056767D02*
X0070132Y0056767D01*
X0069156Y0058366D02*
X0074406Y0058366D01*
X0097219Y0043979D02*
X0098363Y0043979D01*
X0104440Y0040782D02*
X0106354Y0040782D01*
X0104440Y0040782D01*
X0112109Y0039184D02*
X0113297Y0039184D01*
X0113272Y0039209D02*
X0112939Y0040014D01*
X0107778Y0034853D01*
X0106823Y0034457D01*
X0105916Y0034457D01*
X0105908Y0034438D01*
X0105058Y0033588D01*
X0103947Y0033128D01*
X0103353Y0033128D01*
X0103609Y0032510D01*
X0103609Y0030613D01*
X0103047Y0029256D01*
X0108652Y0029256D01*
X0108652Y0032390D01*
X0109824Y0033561D01*
X0110932Y0033561D01*
X0112118Y0034747D01*
X0113721Y0035412D01*
X0114225Y0035412D01*
X0115203Y0037771D01*
X0114362Y0038119D01*
X0113272Y0039209D01*
X0115126Y0037585D02*
X0110510Y0037585D01*
X0108912Y0035987D02*
X0114464Y0035987D01*
X0111759Y0034388D02*
X0105858Y0034388D01*
X0103493Y0032790D02*
X0109052Y0032790D01*
X0108652Y0031191D02*
X0103609Y0031191D01*
X0103187Y0029593D02*
X0108652Y0029593D01*
X0110652Y0025656D02*
X0061439Y0025656D01*
X0011561Y0035987D02*
X0010066Y0035987D01*
X0011561Y0035987D01*
X0006513Y0035987D02*
X0005984Y0035987D01*
X0006513Y0035987D01*
X0002384Y0031561D02*
X0002386Y0031409D01*
X0002392Y0031257D01*
X0002402Y0031105D01*
X0002415Y0030954D01*
X0002433Y0030803D01*
X0002454Y0030652D01*
X0002480Y0030502D01*
X0002509Y0030353D01*
X0002542Y0030204D01*
X0002579Y0030057D01*
X0002619Y0029910D01*
X0002664Y0029765D01*
X0002712Y0029621D01*
X0002764Y0029478D01*
X0002819Y0029336D01*
X0002878Y0029196D01*
X0002941Y0029057D01*
X0003007Y0028920D01*
X0003077Y0028785D01*
X0003150Y0028652D01*
X0003227Y0028521D01*
X0003307Y0028391D01*
X0003390Y0028264D01*
X0003476Y0028139D01*
X0003566Y0028016D01*
X0003659Y0027896D01*
X0003755Y0027778D01*
X0003854Y0027662D01*
X0003956Y0027549D01*
X0004060Y0027439D01*
X0004168Y0027331D01*
X0004278Y0027227D01*
X0004391Y0027125D01*
X0004507Y0027026D01*
X0004625Y0026930D01*
X0004745Y0026837D01*
X0004868Y0026747D01*
X0004993Y0026661D01*
X0005120Y0026578D01*
X0005250Y0026498D01*
X0005381Y0026421D01*
X0005514Y0026348D01*
X0005649Y0026278D01*
X0005786Y0026212D01*
X0005925Y0026149D01*
X0006065Y0026090D01*
X0006207Y0026035D01*
X0006350Y0025983D01*
X0006494Y0025935D01*
X0006639Y0025890D01*
X0006786Y0025850D01*
X0006933Y0025813D01*
X0007082Y0025780D01*
X0007231Y0025751D01*
X0007381Y0025725D01*
X0007532Y0025704D01*
X0007683Y0025686D01*
X0007834Y0025673D01*
X0007986Y0025663D01*
X0008138Y0025657D01*
X0008290Y0025655D01*
X0002384Y0031561D02*
X0002384Y0086679D01*
X0002386Y0086831D01*
X0002392Y0086983D01*
X0002402Y0087135D01*
X0002415Y0087286D01*
X0002433Y0087437D01*
X0002454Y0087588D01*
X0002480Y0087738D01*
X0002509Y0087887D01*
X0002542Y0088036D01*
X0002579Y0088183D01*
X0002619Y0088330D01*
X0002664Y0088475D01*
X0002712Y0088619D01*
X0002764Y0088762D01*
X0002819Y0088904D01*
X0002878Y0089044D01*
X0002941Y0089183D01*
X0003007Y0089320D01*
X0003077Y0089455D01*
X0003150Y0089588D01*
X0003227Y0089719D01*
X0003307Y0089849D01*
X0003390Y0089976D01*
X0003476Y0090101D01*
X0003566Y0090224D01*
X0003659Y0090344D01*
X0003755Y0090462D01*
X0003854Y0090578D01*
X0003956Y0090691D01*
X0004060Y0090801D01*
X0004168Y0090909D01*
X0004278Y0091013D01*
X0004391Y0091115D01*
X0004507Y0091214D01*
X0004625Y0091310D01*
X0004745Y0091403D01*
X0004868Y0091493D01*
X0004993Y0091579D01*
X0005120Y0091662D01*
X0005250Y0091742D01*
X0005381Y0091819D01*
X0005514Y0091892D01*
X0005649Y0091962D01*
X0005786Y0092028D01*
X0005925Y0092091D01*
X0006065Y0092150D01*
X0006207Y0092205D01*
X0006350Y0092257D01*
X0006494Y0092305D01*
X0006639Y0092350D01*
X0006786Y0092390D01*
X0006933Y0092427D01*
X0007082Y0092460D01*
X0007231Y0092489D01*
X0007381Y0092515D01*
X0007532Y0092536D01*
X0007683Y0092554D01*
X0007834Y0092567D01*
X0007986Y0092577D01*
X0008138Y0092583D01*
X0008290Y0092585D01*
X0014195Y0092585D01*
X0014195Y0084711D01*
X0026006Y0084711D01*
X0026006Y0092585D01*
X0254353Y0092585D01*
X0254353Y0084711D01*
X0266164Y0084711D01*
X0266164Y0092585D01*
X0272069Y0092585D01*
X0272221Y0092583D01*
X0272373Y0092577D01*
X0272525Y0092567D01*
X0272676Y0092554D01*
X0272827Y0092536D01*
X0272978Y0092515D01*
X0273128Y0092489D01*
X0273277Y0092460D01*
X0273426Y0092427D01*
X0273573Y0092390D01*
X0273720Y0092350D01*
X0273865Y0092305D01*
X0274009Y0092257D01*
X0274152Y0092205D01*
X0274294Y0092150D01*
X0274434Y0092091D01*
X0274573Y0092028D01*
X0274710Y0091962D01*
X0274845Y0091892D01*
X0274978Y0091819D01*
X0275109Y0091742D01*
X0275239Y0091662D01*
X0275366Y0091579D01*
X0275491Y0091493D01*
X0275614Y0091403D01*
X0275734Y0091310D01*
X0275852Y0091214D01*
X0275968Y0091115D01*
X0276081Y0091013D01*
X0276191Y0090909D01*
X0276299Y0090801D01*
X0276403Y0090691D01*
X0276505Y0090578D01*
X0276604Y0090462D01*
X0276700Y0090344D01*
X0276793Y0090224D01*
X0276883Y0090101D01*
X0276969Y0089976D01*
X0277052Y0089849D01*
X0277132Y0089719D01*
X0277209Y0089588D01*
X0277282Y0089455D01*
X0277352Y0089320D01*
X0277418Y0089183D01*
X0277481Y0089044D01*
X0277540Y0088904D01*
X0277595Y0088762D01*
X0277647Y0088619D01*
X0277695Y0088475D01*
X0277740Y0088330D01*
X0277780Y0088183D01*
X0277817Y0088036D01*
X0277850Y0087887D01*
X0277879Y0087738D01*
X0277905Y0087588D01*
X0277926Y0087437D01*
X0277944Y0087286D01*
X0277957Y0087135D01*
X0277967Y0086983D01*
X0277973Y0086831D01*
X0277975Y0086679D01*
X0277975Y0031561D01*
X0277973Y0031409D01*
X0277967Y0031257D01*
X0277957Y0031105D01*
X0277944Y0030954D01*
X0277926Y0030803D01*
X0277905Y0030652D01*
X0277879Y0030502D01*
X0277850Y0030353D01*
X0277817Y0030204D01*
X0277780Y0030057D01*
X0277740Y0029910D01*
X0277695Y0029765D01*
X0277647Y0029621D01*
X0277595Y0029478D01*
X0277540Y0029336D01*
X0277481Y0029196D01*
X0277418Y0029057D01*
X0277352Y0028920D01*
X0277282Y0028785D01*
X0277209Y0028652D01*
X0277132Y0028521D01*
X0277052Y0028391D01*
X0276969Y0028264D01*
X0276883Y0028139D01*
X0276793Y0028016D01*
X0276700Y0027896D01*
X0276604Y0027778D01*
X0276505Y0027662D01*
X0276403Y0027549D01*
X0276299Y0027439D01*
X0276191Y0027331D01*
X0276081Y0027227D01*
X0275968Y0027125D01*
X0275852Y0027026D01*
X0275734Y0026930D01*
X0275614Y0026837D01*
X0275491Y0026747D01*
X0275366Y0026661D01*
X0275239Y0026578D01*
X0275109Y0026498D01*
X0274978Y0026421D01*
X0274845Y0026348D01*
X0274710Y0026278D01*
X0274573Y0026212D01*
X0274434Y0026149D01*
X0274294Y0026090D01*
X0274152Y0026035D01*
X0274009Y0025983D01*
X0273865Y0025935D01*
X0273720Y0025890D01*
X0273573Y0025850D01*
X0273426Y0025813D01*
X0273277Y0025780D01*
X0273128Y0025751D01*
X0272978Y0025725D01*
X0272827Y0025704D01*
X0272676Y0025686D01*
X0272525Y0025673D01*
X0272373Y0025663D01*
X0272221Y0025657D01*
X0272069Y0025655D01*
X0272069Y0025656D02*
X0266164Y0025656D01*
X0266164Y0033530D01*
X0254353Y0033530D01*
X0254353Y0025656D01*
X0240573Y0025656D01*
X0216951Y0025656D02*
X0205140Y0025656D01*
X0204772Y0033649D02*
X0203674Y0034747D01*
X0202071Y0035412D01*
X0201567Y0035412D01*
X0200392Y0038249D01*
X0198048Y0040592D01*
X0197613Y0040772D01*
X0205835Y0040772D01*
X0205896Y0040711D01*
X0205896Y0035851D01*
X0206249Y0035498D01*
X0205896Y0035145D01*
X0205896Y0033649D01*
X0204772Y0033649D01*
X0204033Y0034388D02*
X0205896Y0034388D01*
X0205896Y0035987D02*
X0201328Y0035987D01*
X0200666Y0037585D02*
X0205896Y0037585D01*
X0205896Y0039184D02*
X0199456Y0039184D01*
X0189045Y0040772D02*
X0188610Y0040592D01*
X0186267Y0038249D01*
X0185092Y0035412D01*
X0184587Y0035412D01*
X0182984Y0034747D01*
X0181798Y0033561D01*
X0180762Y0033561D01*
X0180762Y0035145D01*
X0180410Y0035498D01*
X0180762Y0035851D01*
X0180762Y0040772D01*
X0189045Y0040772D01*
X0187202Y0039184D02*
X0180762Y0039184D01*
X0180762Y0037585D02*
X0185992Y0037585D01*
X0185330Y0035987D02*
X0180762Y0035987D01*
X0180762Y0034388D02*
X0182625Y0034388D01*
X0170463Y0039238D02*
X0169934Y0039767D01*
X0168509Y0040357D01*
X0166968Y0040357D01*
X0165544Y0039767D01*
X0164492Y0038715D01*
X0162615Y0040592D01*
X0162180Y0040772D01*
X0170402Y0040772D01*
X0170463Y0040711D01*
X0170463Y0039238D01*
X0164960Y0039184D02*
X0164023Y0039184D01*
X0153612Y0040772D02*
X0153177Y0040592D01*
X0150909Y0038324D01*
X0150354Y0039662D01*
X0149264Y0040752D01*
X0149215Y0040772D01*
X0153612Y0040772D01*
X0151769Y0039184D02*
X0150552Y0039184D01*
X0135030Y0039184D02*
X0128590Y0039184D01*
X0129525Y0038249D02*
X0127182Y0040592D01*
X0127109Y0040622D01*
X0133727Y0040622D01*
X0134821Y0040622D01*
X0135030Y0040709D01*
X0135030Y0035851D01*
X0135383Y0035498D01*
X0135030Y0035145D01*
X0135030Y0033649D01*
X0133906Y0033649D01*
X0132808Y0034747D01*
X0131205Y0035412D01*
X0130701Y0035412D01*
X0129525Y0038249D01*
X0129800Y0037585D02*
X0135030Y0037585D01*
X0135030Y0035987D02*
X0130462Y0035987D01*
X0133167Y0034388D02*
X0135030Y0034388D01*
X0134274Y0025656D02*
X0146085Y0025656D01*
X0169707Y0025656D02*
X0181518Y0025656D01*
X0220130Y0040752D02*
X0221220Y0039662D01*
X0221775Y0038324D01*
X0224043Y0040592D01*
X0224478Y0040772D01*
X0220081Y0040772D01*
X0220130Y0040752D01*
X0221418Y0039184D02*
X0222635Y0039184D01*
X0233046Y0040772D02*
X0241268Y0040772D01*
X0241329Y0040711D01*
X0241329Y0039238D01*
X0240800Y0039767D01*
X0239376Y0040357D01*
X0237834Y0040357D01*
X0236410Y0039767D01*
X0235358Y0038715D01*
X0233481Y0040592D01*
X0233046Y0040772D01*
X0234890Y0039184D02*
X0235826Y0039184D01*
X0244885Y0044509D02*
X0244746Y0044845D01*
X0244015Y0045576D01*
X0244014Y0045576D01*
X0241772Y0047819D01*
X0242089Y0048585D01*
X0242089Y0049971D01*
X0241559Y0051251D01*
X0240578Y0052231D01*
X0239298Y0052762D01*
X0237912Y0052762D01*
X0237652Y0052654D01*
X0237652Y0060530D01*
X0241329Y0056853D01*
X0241329Y0055215D01*
X0241314Y0055178D01*
X0241123Y0054716D01*
X0241123Y0054700D01*
X0241117Y0054684D01*
X0241123Y0054182D01*
X0241123Y0053682D01*
X0241129Y0053667D01*
X0241129Y0053650D01*
X0241327Y0053188D01*
X0241329Y0053184D01*
X0241329Y0051993D01*
X0242501Y0050821D01*
X0250457Y0050821D01*
X0251235Y0051599D01*
X0261164Y0051599D01*
X0261164Y0050370D01*
X0262335Y0049199D01*
X0269659Y0049199D01*
X0262335Y0049199D01*
X0269659Y0049199D01*
X0269659Y0049199D01*
X0269559Y0048957D01*
X0269401Y0048999D01*
X0266364Y0048999D01*
X0266364Y0044399D01*
X0265964Y0044399D01*
X0265964Y0048999D01*
X0262927Y0048999D01*
X0262469Y0048876D01*
X0262059Y0048639D01*
X0261723Y0048304D01*
X0261486Y0047894D01*
X0261364Y0047436D01*
X0261364Y0044399D01*
X0265964Y0044399D01*
X0265964Y0043999D01*
X0266364Y0043999D01*
X0266364Y0039399D01*
X0269401Y0039399D01*
X0269859Y0039522D01*
X0270269Y0039759D01*
X0270604Y0040094D01*
X0270841Y0040504D01*
X0270964Y0040962D01*
X0270964Y0043640D01*
X0271337Y0043267D01*
X0273089Y0042541D01*
X0274375Y0042541D01*
X0274375Y0035768D01*
X0273018Y0036330D01*
X0271121Y0036330D01*
X0269368Y0035604D01*
X0269250Y0035486D01*
X0269216Y0035569D01*
X0268203Y0036582D01*
X0266880Y0037130D01*
X0253637Y0037130D01*
X0252314Y0036582D01*
X0251628Y0035896D01*
X0251628Y0042626D01*
X0250457Y0043797D01*
X0245597Y0043797D01*
X0244885Y0044509D01*
X0244746Y0044845D01*
X0241772Y0047819D01*
X0242089Y0048585D01*
X0242089Y0049971D01*
X0241559Y0051251D01*
X0240578Y0052231D01*
X0239298Y0052762D01*
X0237912Y0052762D01*
X0237652Y0052654D01*
X0237652Y0059161D01*
X0237387Y0059427D01*
X0237452Y0059671D01*
X0237452Y0060730D01*
X0241329Y0056853D01*
X0241329Y0055215D01*
X0241315Y0055179D01*
X0241123Y0054716D01*
X0241123Y0054700D01*
X0241117Y0054684D01*
X0241123Y0054183D01*
X0241123Y0053682D01*
X0241129Y0053667D01*
X0241129Y0053650D01*
X0241327Y0053189D01*
X0241329Y0053184D01*
X0241329Y0051993D01*
X0242501Y0050821D01*
X0250457Y0050821D01*
X0251235Y0051599D01*
X0261164Y0051599D01*
X0261164Y0050370D01*
X0262335Y0049199D01*
X0261164Y0048027D01*
X0261164Y0040370D01*
X0262335Y0039199D01*
X0269992Y0039199D01*
X0271164Y0040370D01*
X0271164Y0043440D01*
X0271337Y0043267D01*
X0273089Y0042541D01*
X0274375Y0042541D01*
X0274375Y0035768D01*
X0273018Y0036330D01*
X0271121Y0036330D01*
X0269368Y0035604D01*
X0269250Y0035486D01*
X0269216Y0035569D01*
X0268203Y0036582D01*
X0266880Y0037130D01*
X0253637Y0037130D01*
X0252314Y0036582D01*
X0251628Y0035896D01*
X0251628Y0042626D01*
X0250457Y0043797D01*
X0245597Y0043797D01*
X0244885Y0044509D01*
X0245415Y0043979D02*
X0261364Y0043979D01*
X0261364Y0043999D02*
X0261364Y0040962D01*
X0261486Y0040504D01*
X0261723Y0040094D01*
X0262059Y0039759D01*
X0262469Y0039522D01*
X0262927Y0039399D01*
X0265964Y0039399D01*
X0265964Y0043999D01*
X0261364Y0043999D01*
X0261164Y0043979D02*
X0245415Y0043979D01*
X0244013Y0045578D02*
X0261364Y0045578D01*
X0261164Y0045578D02*
X0244013Y0045578D01*
X0242415Y0047176D02*
X0261364Y0047176D01*
X0261164Y0047176D02*
X0242415Y0047176D01*
X0242089Y0048775D02*
X0261911Y0048775D01*
X0262293Y0048775D02*
X0242089Y0048775D01*
X0241922Y0050373D02*
X0261164Y0050373D01*
X0241922Y0050373D01*
X0241350Y0051972D02*
X0240838Y0051972D01*
X0241350Y0051972D01*
X0241164Y0053570D02*
X0237652Y0053570D01*
X0241164Y0053570D01*
X0241310Y0055169D02*
X0237652Y0055169D01*
X0241310Y0055169D01*
X0241329Y0056767D02*
X0237652Y0056767D01*
X0241329Y0056767D01*
X0239816Y0058366D02*
X0237652Y0058366D01*
X0239816Y0058366D01*
X0238217Y0059964D02*
X0237652Y0059964D01*
X0237452Y0059964D02*
X0238217Y0059964D01*
X0232220Y0061987D02*
X0227946Y0061987D01*
X0227946Y0059671D01*
X0228012Y0059427D01*
X0227746Y0059161D01*
X0227746Y0058974D01*
X0227575Y0058974D01*
X0227575Y0061746D01*
X0227746Y0061675D01*
X0227746Y0058974D01*
X0227575Y0058974D01*
X0227575Y0064871D01*
X0227946Y0065242D01*
X0227946Y0062946D01*
X0232220Y0062946D01*
X0232220Y0066826D01*
X0229509Y0066826D01*
X0229266Y0066760D01*
X0229392Y0067065D01*
X0229494Y0067167D01*
X0229509Y0067163D01*
X0232220Y0067163D01*
X0232220Y0071042D01*
X0233179Y0071042D01*
X0233179Y0067163D01*
X0235889Y0067163D01*
X0236005Y0067194D01*
X0236005Y0066795D01*
X0235889Y0066826D01*
X0233179Y0066826D01*
X0233179Y0062946D01*
X0232220Y0062946D01*
X0232220Y0061987D01*
X0232220Y0063161D02*
X0233179Y0063161D01*
X0233179Y0064760D02*
X0232220Y0064760D01*
X0232220Y0066358D02*
X0233179Y0066358D01*
X0233179Y0067957D02*
X0232220Y0067957D01*
X0232220Y0069555D02*
X0233179Y0069555D01*
X0241205Y0069555D02*
X0241329Y0069555D01*
X0241329Y0071154D02*
X0241205Y0071154D01*
X0241205Y0072752D02*
X0241329Y0072752D01*
X0241329Y0074351D02*
X0241205Y0074351D01*
X0241329Y0074516D02*
X0241329Y0067741D01*
X0242076Y0066994D01*
X0241329Y0066248D01*
X0241329Y0064207D01*
X0241205Y0064331D01*
X0241205Y0076545D01*
X0241329Y0076493D01*
X0241329Y0075221D01*
X0241682Y0074868D01*
X0241329Y0074516D01*
X0241329Y0075949D02*
X0241205Y0075949D01*
X0251276Y0074868D02*
X0251389Y0074982D01*
X0261164Y0065207D01*
X0261164Y0060056D01*
X0262178Y0059041D01*
X0261164Y0058027D01*
X0261164Y0056799D01*
X0251628Y0056799D01*
X0251628Y0058767D01*
X0251276Y0059120D01*
X0251628Y0059473D01*
X0251628Y0063119D01*
X0253155Y0063119D01*
X0254579Y0063709D01*
X0255669Y0064799D01*
X0256259Y0066223D01*
X0256259Y0067765D01*
X0255669Y0069189D01*
X0254579Y0070279D01*
X0253155Y0070869D01*
X0251628Y0070869D01*
X0251628Y0074516D01*
X0251276Y0074868D01*
X0251628Y0074351D02*
X0252020Y0074351D01*
X0251628Y0072752D02*
X0253618Y0072752D01*
X0255217Y0071154D02*
X0251628Y0071154D01*
X0255303Y0069555D02*
X0256815Y0069555D01*
X0256180Y0067957D02*
X0258414Y0067957D01*
X0260012Y0066358D02*
X0256259Y0066358D01*
X0255630Y0064760D02*
X0261164Y0064760D01*
X0261164Y0063161D02*
X0253257Y0063161D01*
X0251628Y0061563D02*
X0261164Y0061563D01*
X0261255Y0059964D02*
X0251628Y0059964D01*
X0251628Y0058366D02*
X0261502Y0058366D01*
X0270150Y0059041D02*
X0271164Y0058027D01*
X0271164Y0051179D01*
X0271337Y0051352D01*
X0273089Y0052078D01*
X0274375Y0052078D01*
X0274375Y0066163D01*
X0273089Y0066163D01*
X0271337Y0066889D01*
X0271164Y0067062D01*
X0271164Y0060056D01*
X0270150Y0059041D01*
X0270825Y0058366D02*
X0274375Y0058366D01*
X0274375Y0059964D02*
X0271073Y0059964D01*
X0271164Y0061563D02*
X0274375Y0061563D01*
X0274375Y0063161D02*
X0271164Y0063161D01*
X0271164Y0064760D02*
X0274375Y0064760D01*
X0272617Y0066358D02*
X0271164Y0066358D01*
X0269724Y0068884D02*
X0264841Y0068884D01*
X0264841Y0068884D01*
X0269724Y0068884D01*
X0269724Y0068884D01*
X0261164Y0072561D02*
X0253644Y0080081D01*
X0252912Y0080813D01*
X0251957Y0081208D01*
X0251628Y0081208D01*
X0251628Y0081996D01*
X0250519Y0083105D01*
X0250651Y0083238D01*
X0250945Y0083531D01*
X0251301Y0082671D01*
X0252314Y0081659D01*
X0253637Y0081111D01*
X0266880Y0081111D01*
X0268203Y0081659D01*
X0269216Y0082671D01*
X0269250Y0082755D01*
X0269368Y0082637D01*
X0271121Y0081911D01*
X0273018Y0081911D01*
X0274375Y0082473D01*
X0274375Y0075700D01*
X0273089Y0075700D01*
X0271337Y0074974D01*
X0271164Y0074801D01*
X0271164Y0077712D01*
X0269992Y0078884D01*
X0262335Y0078884D01*
X0261164Y0077712D01*
X0261164Y0072561D01*
X0261164Y0072752D02*
X0260972Y0072752D01*
X0261164Y0074351D02*
X0259374Y0074351D01*
X0257775Y0075949D02*
X0261164Y0075949D01*
X0261164Y0077548D02*
X0256177Y0077548D01*
X0254578Y0079146D02*
X0274375Y0079146D01*
X0274375Y0077548D02*
X0271164Y0077548D01*
X0271164Y0075949D02*
X0274375Y0075949D01*
X0274375Y0080745D02*
X0252980Y0080745D01*
X0251629Y0082343D02*
X0251281Y0082343D01*
X0247370Y0087311D02*
X0242025Y0087311D01*
X0241205Y0086971D01*
X0241205Y0087196D01*
X0240865Y0088016D01*
X0247370Y0088016D01*
X0247723Y0087663D01*
X0247370Y0087311D01*
X0241610Y0087139D02*
X0241205Y0087139D01*
X0236005Y0085163D02*
X0236005Y0083867D01*
X0235653Y0084716D01*
X0235205Y0085163D01*
X0236005Y0085163D01*
X0235974Y0083942D02*
X0236005Y0083942D01*
X0230193Y0085163D02*
X0229745Y0084716D01*
X0229215Y0083435D01*
X0229215Y0082774D01*
X0228918Y0082774D01*
X0228150Y0082005D01*
X0226157Y0082005D01*
X0224981Y0081518D01*
X0224607Y0081144D01*
X0215905Y0081144D01*
X0215905Y0082097D01*
X0218971Y0085163D01*
X0230193Y0085163D01*
X0229425Y0083942D02*
X0217749Y0083942D01*
X0216151Y0082343D02*
X0228488Y0082343D01*
X0212784Y0086048D02*
X0212369Y0085633D01*
X0211259Y0085633D01*
X0209835Y0085043D01*
X0208745Y0083953D01*
X0208155Y0082529D01*
X0208155Y0082279D01*
X0204386Y0086048D01*
X0212784Y0086048D01*
X0211036Y0085541D02*
X0204893Y0085541D01*
X0206492Y0083942D02*
X0208740Y0083942D01*
X0208155Y0082343D02*
X0208090Y0082343D01*
X0202364Y0080999D02*
X0192161Y0080999D01*
X0192161Y0067794D01*
X0204578Y0067794D01*
X0204578Y0072299D01*
X0204609Y0072286D01*
X0204609Y0057203D01*
X0204578Y0057172D01*
X0204578Y0066194D01*
X0192161Y0066194D01*
X0192161Y0067794D01*
X0190561Y0067794D01*
X0190561Y0080999D01*
X0182440Y0080999D01*
X0182440Y0082529D01*
X0182164Y0083195D01*
X0200168Y0083195D01*
X0202164Y0081199D01*
X0182440Y0081199D01*
X0182440Y0082529D01*
X0182164Y0083195D01*
X0200168Y0083195D01*
X0202364Y0080999D01*
X0201019Y0082343D02*
X0182440Y0082343D01*
X0201019Y0082343D01*
X0192161Y0080745D02*
X0190561Y0080745D01*
X0190561Y0079146D02*
X0192161Y0079146D01*
X0192161Y0077548D02*
X0190561Y0077548D01*
X0190561Y0075949D02*
X0192161Y0075949D01*
X0192161Y0074351D02*
X0190561Y0074351D01*
X0190561Y0072752D02*
X0192161Y0072752D01*
X0192161Y0071154D02*
X0190561Y0071154D01*
X0190561Y0069555D02*
X0192161Y0069555D01*
X0192161Y0067957D02*
X0190561Y0067957D01*
X0190561Y0067794D02*
X0190561Y0066194D01*
X0192161Y0066194D01*
X0192161Y0052989D01*
X0198427Y0052989D01*
X0197606Y0052168D01*
X0196495Y0052168D01*
X0195071Y0051578D01*
X0193981Y0050488D01*
X0193391Y0049064D01*
X0193391Y0047523D01*
X0193981Y0046098D01*
X0194107Y0045972D01*
X0179032Y0045972D01*
X0178077Y0045576D01*
X0177345Y0044845D01*
X0176298Y0043797D01*
X0174730Y0043797D01*
X0174079Y0044449D01*
X0174079Y0050690D01*
X0174603Y0051215D01*
X0175457Y0051215D01*
X0176628Y0052386D01*
X0176628Y0059867D01*
X0177943Y0059867D01*
X0177943Y0053961D01*
X0179115Y0052789D01*
X0198227Y0052789D01*
X0197606Y0052168D01*
X0196495Y0052168D01*
X0195071Y0051578D01*
X0193981Y0050488D01*
X0193391Y0049064D01*
X0193391Y0047523D01*
X0193981Y0046098D01*
X0194107Y0045972D01*
X0179032Y0045972D01*
X0178077Y0045576D01*
X0177345Y0044845D01*
X0176298Y0043797D01*
X0174730Y0043797D01*
X0174079Y0044449D01*
X0174079Y0050690D01*
X0174603Y0051215D01*
X0175457Y0051215D01*
X0176628Y0052386D01*
X0176628Y0059161D01*
X0176363Y0059427D01*
X0176428Y0059671D01*
X0176428Y0061987D01*
X0172155Y0061987D01*
X0172155Y0062946D01*
X0176428Y0062946D01*
X0176428Y0065263D01*
X0176306Y0065720D01*
X0176069Y0066131D01*
X0175734Y0066466D01*
X0175323Y0066703D01*
X0174865Y0066826D01*
X0172155Y0066826D01*
X0172155Y0062946D01*
X0171196Y0062946D01*
X0171196Y0061987D01*
X0168554Y0061987D01*
X0164281Y0061987D01*
X0164281Y0062946D01*
X0171196Y0062946D01*
X0171196Y0066826D01*
X0168486Y0066826D01*
X0168028Y0066703D01*
X0167739Y0066536D01*
X0167449Y0066703D01*
X0166991Y0066826D01*
X0164281Y0066826D01*
X0164281Y0062946D01*
X0163322Y0062946D01*
X0163322Y0061987D01*
X0159049Y0061987D01*
X0159049Y0059671D01*
X0159114Y0059427D01*
X0158849Y0059161D01*
X0158849Y0052386D01*
X0160020Y0051215D01*
X0167583Y0051215D01*
X0167739Y0051370D01*
X0167894Y0051215D01*
X0168748Y0051215D01*
X0168879Y0051084D01*
X0168879Y0051031D01*
X0168509Y0051184D01*
X0166968Y0051184D01*
X0165544Y0050594D01*
X0164759Y0049809D01*
X0160900Y0049809D01*
X0154961Y0055749D01*
X0155170Y0055835D01*
X0156260Y0056925D01*
X0156850Y0058349D01*
X0156850Y0059891D01*
X0156260Y0061315D01*
X0155170Y0062405D01*
X0153746Y0062995D01*
X0152635Y0062995D01*
X0149740Y0065890D01*
X0150027Y0066009D01*
X0150481Y0066463D01*
X0159457Y0066463D01*
X0158849Y0065854D01*
X0158849Y0052386D01*
X0160020Y0051215D01*
X0167583Y0051215D01*
X0167739Y0051370D01*
X0167894Y0051215D01*
X0168748Y0051215D01*
X0168879Y0051084D01*
X0168879Y0051031D01*
X0168509Y0051184D01*
X0166968Y0051184D01*
X0165544Y0050594D01*
X0164759Y0049809D01*
X0160900Y0049809D01*
X0154961Y0055749D01*
X0155170Y0055835D01*
X0156260Y0056925D01*
X0156850Y0058349D01*
X0156850Y0059891D01*
X0156260Y0061315D01*
X0155170Y0062405D01*
X0153746Y0062995D01*
X0152635Y0062995D01*
X0147501Y0068129D01*
X0146617Y0068496D01*
X0146617Y0069460D01*
X0146236Y0070379D01*
X0145533Y0071082D01*
X0143262Y0073352D01*
X0147018Y0073352D01*
X0147131Y0073239D01*
X0147131Y0072352D01*
X0146080Y0071916D01*
X0145389Y0071226D01*
X0143262Y0073352D01*
X0147018Y0073352D01*
X0147131Y0073239D01*
X0147131Y0072129D01*
X0147721Y0070705D01*
X0148811Y0069615D01*
X0150236Y0069025D01*
X0151777Y0069025D01*
X0153201Y0069615D01*
X0154291Y0070705D01*
X0154881Y0072129D01*
X0154881Y0073670D01*
X0154291Y0075095D01*
X0153201Y0076185D01*
X0151777Y0076775D01*
X0150667Y0076775D01*
X0149470Y0077972D01*
X0148551Y0078352D01*
X0141520Y0078352D01*
X0140723Y0079149D01*
X0138154Y0079149D01*
X0139247Y0080242D01*
X0154297Y0080242D01*
X0154021Y0079576D01*
X0154021Y0078034D01*
X0154611Y0076610D01*
X0155701Y0075520D01*
X0157125Y0074930D01*
X0158667Y0074930D01*
X0158849Y0075006D01*
X0158849Y0071463D01*
X0154605Y0071463D01*
X0154881Y0072129D01*
X0154881Y0073670D01*
X0154291Y0075095D01*
X0153201Y0076185D01*
X0151777Y0076775D01*
X0150667Y0076775D01*
X0149470Y0077972D01*
X0148551Y0078352D01*
X0141520Y0078352D01*
X0140723Y0079149D01*
X0138154Y0079149D01*
X0139247Y0080242D01*
X0154297Y0080242D01*
X0154021Y0079576D01*
X0154021Y0078034D01*
X0154611Y0076610D01*
X0155701Y0075520D01*
X0157125Y0074930D01*
X0158667Y0074930D01*
X0158849Y0075006D01*
X0158849Y0074827D01*
X0159114Y0074562D01*
X0159049Y0074318D01*
X0159049Y0072001D01*
X0163322Y0072001D01*
X0163322Y0071042D01*
X0164281Y0071042D01*
X0164281Y0067163D01*
X0166991Y0067163D01*
X0167449Y0067285D01*
X0167860Y0067522D01*
X0168195Y0067857D01*
X0168432Y0068268D01*
X0168554Y0068726D01*
X0168554Y0071042D01*
X0164281Y0071042D01*
X0164281Y0072001D01*
X0168554Y0072001D01*
X0168554Y0074318D01*
X0168489Y0074562D01*
X0168754Y0074827D01*
X0168754Y0080242D01*
X0174999Y0080242D01*
X0175280Y0079563D01*
X0176370Y0078473D01*
X0177795Y0077883D01*
X0177943Y0077883D01*
X0177943Y0065067D01*
X0176628Y0065067D01*
X0176628Y0065854D01*
X0175457Y0067026D01*
X0167894Y0067026D01*
X0167739Y0066870D01*
X0167614Y0066994D01*
X0168754Y0068134D01*
X0168754Y0080242D01*
X0174999Y0080242D01*
X0175280Y0079563D01*
X0176370Y0078473D01*
X0177795Y0077883D01*
X0178143Y0077883D01*
X0178143Y0067794D01*
X0190561Y0067794D01*
X0190561Y0066358D02*
X0175841Y0066358D01*
X0176124Y0066358D02*
X0177943Y0066358D01*
X0178143Y0066194D02*
X0178143Y0054552D01*
X0178266Y0054095D01*
X0178503Y0053684D01*
X0178838Y0053349D01*
X0179249Y0053112D01*
X0179706Y0052989D01*
X0190561Y0052989D01*
X0190561Y0066194D01*
X0178143Y0066194D01*
X0178143Y0064760D02*
X0176428Y0064760D01*
X0172155Y0064760D02*
X0171196Y0064760D01*
X0171196Y0066358D02*
X0172155Y0066358D01*
X0168577Y0067957D02*
X0177943Y0067957D01*
X0178143Y0067957D02*
X0168252Y0067957D01*
X0168554Y0069555D02*
X0178143Y0069555D01*
X0177943Y0069555D02*
X0168754Y0069555D01*
X0168754Y0071154D02*
X0177943Y0071154D01*
X0178143Y0071154D02*
X0164281Y0071154D01*
X0163322Y0071154D02*
X0154477Y0071154D01*
X0153058Y0069555D02*
X0159049Y0069555D01*
X0159049Y0068726D02*
X0159171Y0068268D01*
X0159408Y0067857D01*
X0159744Y0067522D01*
X0160154Y0067285D01*
X0160612Y0067163D01*
X0163322Y0067163D01*
X0163322Y0071042D01*
X0159049Y0071042D01*
X0159049Y0068726D01*
X0159351Y0067957D02*
X0147674Y0067957D01*
X0146577Y0069555D02*
X0148954Y0069555D01*
X0147535Y0071154D02*
X0145461Y0071154D01*
X0143862Y0072752D02*
X0147131Y0072752D01*
X0143862Y0072752D01*
X0153437Y0075949D02*
X0155272Y0075949D01*
X0153437Y0075949D01*
X0154599Y0074351D02*
X0158849Y0074351D01*
X0159058Y0074351D02*
X0154599Y0074351D01*
X0154881Y0072752D02*
X0158849Y0072752D01*
X0159049Y0072752D02*
X0154881Y0072752D01*
X0163322Y0069555D02*
X0164281Y0069555D01*
X0164281Y0067957D02*
X0163322Y0067957D01*
X0163322Y0066826D02*
X0160612Y0066826D01*
X0160154Y0066703D01*
X0159744Y0066466D01*
X0159408Y0066131D01*
X0159171Y0065720D01*
X0159049Y0065263D01*
X0159049Y0062946D01*
X0163322Y0062946D01*
X0163322Y0066826D01*
X0163322Y0066358D02*
X0164281Y0066358D01*
X0164281Y0064760D02*
X0163322Y0064760D01*
X0163322Y0063161D02*
X0164281Y0063161D01*
X0159049Y0063161D02*
X0152469Y0063161D01*
X0158849Y0063161D01*
X0158849Y0061563D02*
X0156012Y0061563D01*
X0159049Y0061563D01*
X0159049Y0059964D02*
X0156819Y0059964D01*
X0158849Y0059964D01*
X0158849Y0058366D02*
X0156850Y0058366D01*
X0158849Y0058366D01*
X0158849Y0056767D02*
X0156102Y0056767D01*
X0158849Y0056767D01*
X0158849Y0055169D02*
X0155540Y0055169D01*
X0158849Y0055169D01*
X0158849Y0053570D02*
X0157139Y0053570D01*
X0158849Y0053570D01*
X0158737Y0051972D02*
X0159263Y0051972D01*
X0158737Y0051972D01*
X0160336Y0050373D02*
X0165323Y0050373D01*
X0160336Y0050373D01*
X0154863Y0048775D02*
X0144742Y0048775D01*
X0144449Y0048067D02*
X0145039Y0049491D01*
X0145039Y0051033D01*
X0144449Y0052457D01*
X0143359Y0053547D01*
X0141935Y0054137D01*
X0141894Y0054137D01*
X0141894Y0061744D01*
X0157666Y0045972D01*
X0143599Y0045972D01*
X0143335Y0045862D01*
X0142554Y0046643D01*
X0143359Y0046977D01*
X0144449Y0048067D01*
X0143558Y0047176D02*
X0156462Y0047176D01*
X0153265Y0050373D02*
X0145039Y0050373D01*
X0144650Y0051972D02*
X0151666Y0051972D01*
X0150068Y0053570D02*
X0143302Y0053570D01*
X0141894Y0055169D02*
X0148469Y0055169D01*
X0146871Y0056767D02*
X0141894Y0056767D01*
X0141894Y0058366D02*
X0145272Y0058366D01*
X0143674Y0059964D02*
X0141894Y0059964D01*
X0141894Y0061563D02*
X0142075Y0061563D01*
X0132894Y0059964D02*
X0128787Y0059964D01*
X0132894Y0059964D01*
X0132894Y0066358D02*
X0128556Y0066358D01*
X0132894Y0066358D01*
X0149272Y0066358D02*
X0159636Y0066358D01*
X0159353Y0066358D02*
X0150377Y0066358D01*
X0150871Y0064760D02*
X0158849Y0064760D01*
X0159049Y0064760D02*
X0150871Y0064760D01*
X0168554Y0072752D02*
X0178143Y0072752D01*
X0177943Y0072752D02*
X0168754Y0072752D01*
X0168754Y0074351D02*
X0177943Y0074351D01*
X0178143Y0074351D02*
X0168545Y0074351D01*
X0168754Y0075949D02*
X0177943Y0075949D01*
X0178143Y0075949D02*
X0168754Y0075949D01*
X0168754Y0077548D02*
X0177943Y0077548D01*
X0178143Y0077548D02*
X0168754Y0077548D01*
X0168754Y0079146D02*
X0175697Y0079146D01*
X0168754Y0079146D01*
X0154223Y0077548D02*
X0149894Y0077548D01*
X0154223Y0077548D01*
X0154021Y0079146D02*
X0140726Y0079146D01*
X0154021Y0079146D01*
X0126973Y0072752D02*
X0123979Y0072752D01*
X0126973Y0072752D02*
X0118938Y0072752D01*
X0120560Y0074351D02*
X0125780Y0074351D01*
X0124955Y0074351D01*
X0124963Y0075949D02*
X0125478Y0075949D01*
X0121026Y0075949D01*
X0121026Y0077548D02*
X0123168Y0077548D01*
X0122069Y0079146D02*
X0122069Y0079146D01*
X0122069Y0080745D02*
X0122069Y0080745D01*
X0107165Y0086048D02*
X0106389Y0085272D01*
X0105517Y0085633D01*
X0103976Y0085633D01*
X0102551Y0085043D01*
X0101461Y0083953D01*
X0100871Y0082529D01*
X0100871Y0082449D01*
X0100343Y0082978D01*
X0099387Y0083374D01*
X0099313Y0083374D01*
X0099313Y0084768D01*
X0098783Y0086048D01*
X0107165Y0086048D01*
X0106657Y0085541D02*
X0105740Y0085541D01*
X0103752Y0085541D02*
X0098994Y0085541D01*
X0099313Y0083942D02*
X0101457Y0083942D01*
X0089843Y0086048D02*
X0089313Y0084768D01*
X0088783Y0086048D01*
X0089843Y0086048D01*
X0089633Y0085541D02*
X0088994Y0085541D01*
X0089313Y0084768D02*
X0089313Y0078230D01*
X0089313Y0078230D01*
X0089313Y0084768D01*
X0089313Y0083942D02*
X0089313Y0083942D01*
X0089313Y0082343D02*
X0089313Y0082343D01*
X0089313Y0080745D02*
X0089313Y0080745D01*
X0089313Y0079146D02*
X0089313Y0079146D01*
X0079313Y0079146D02*
X0079313Y0079146D01*
X0079313Y0077548D02*
X0079313Y0077548D01*
X0078970Y0075949D02*
X0079657Y0075949D01*
X0080665Y0074351D02*
X0077962Y0074351D01*
X0079313Y0080745D02*
X0079313Y0080745D01*
X0079313Y0082343D02*
X0079313Y0082343D01*
X0079313Y0083942D02*
X0079313Y0083942D01*
X0078994Y0085541D02*
X0079633Y0085541D01*
X0099094Y0076251D02*
X0098783Y0075500D01*
X0099094Y0075500D01*
X0099094Y0076251D01*
X0099094Y0075949D02*
X0098970Y0075949D01*
X0049313Y0079451D02*
X0049313Y0079451D01*
X0049313Y0084768D01*
X0048783Y0086048D01*
X0049843Y0086048D01*
X0049313Y0084768D01*
X0049313Y0079451D01*
X0049113Y0079251D01*
X0049113Y0080574D01*
X0044513Y0080574D01*
X0044513Y0080974D01*
X0049113Y0080974D01*
X0049113Y0084151D01*
X0048995Y0084898D01*
X0048762Y0085616D01*
X0048542Y0086048D01*
X0049843Y0086048D01*
X0049313Y0084768D01*
X0049313Y0079451D01*
X0049313Y0080745D02*
X0044513Y0080745D01*
X0044113Y0080745D02*
X0034512Y0080745D01*
X0039313Y0080745D01*
X0039313Y0082343D02*
X0034512Y0082343D01*
X0039513Y0082343D01*
X0039513Y0083942D02*
X0034512Y0083942D01*
X0039313Y0083942D01*
X0039633Y0085541D02*
X0034512Y0085541D01*
X0039840Y0085541D01*
X0048786Y0085541D02*
X0049633Y0085541D01*
X0048994Y0085541D01*
X0049113Y0083942D02*
X0049313Y0083942D01*
X0049313Y0083942D01*
X0049313Y0082343D02*
X0049313Y0082343D01*
X0049113Y0082343D01*
X0049313Y0080745D02*
X0049313Y0080745D01*
X0044513Y0079146D02*
X0044113Y0079146D01*
X0039513Y0079146D02*
X0034512Y0079146D01*
X0039313Y0079146D01*
X0039313Y0077548D02*
X0034205Y0077548D01*
X0039513Y0077548D01*
X0044113Y0077548D02*
X0044513Y0077548D01*
X0044513Y0075949D02*
X0044113Y0075949D01*
X0044113Y0074351D02*
X0044513Y0074351D01*
X0040948Y0074351D02*
X0031134Y0074351D01*
X0040665Y0074351D01*
X0039859Y0075949D02*
X0032733Y0075949D01*
X0039657Y0075949D01*
X0026603Y0081111D02*
X0019195Y0073703D01*
X0019195Y0077712D01*
X0018024Y0078884D01*
X0010367Y0078884D01*
X0009195Y0077712D01*
X0009195Y0074801D01*
X0009022Y0074974D01*
X0007270Y0075700D01*
X0005984Y0075700D01*
X0005984Y0082473D01*
X0007341Y0081911D01*
X0009238Y0081911D01*
X0010991Y0082637D01*
X0011109Y0082755D01*
X0011143Y0082671D01*
X0012156Y0081659D01*
X0013479Y0081111D01*
X0026603Y0081111D01*
X0026238Y0080745D02*
X0005984Y0080745D01*
X0005984Y0082343D02*
X0006296Y0082343D01*
X0010283Y0082343D02*
X0011471Y0082343D01*
X0005984Y0079146D02*
X0024639Y0079146D01*
X0023041Y0077548D02*
X0019195Y0077548D01*
X0019195Y0075949D02*
X0021442Y0075949D01*
X0019844Y0074351D02*
X0019195Y0074351D01*
X0009195Y0075949D02*
X0005984Y0075949D01*
X0005984Y0077548D02*
X0009195Y0077548D01*
X0010635Y0068884D02*
X0014377Y0068884D01*
X0014377Y0068884D01*
X0010635Y0068884D01*
X0010635Y0068884D01*
X0009195Y0067062D02*
X0009195Y0060056D01*
X0010209Y0059041D01*
X0009195Y0058027D01*
X0009195Y0051179D01*
X0009022Y0051352D01*
X0007270Y0052078D01*
X0005984Y0052078D01*
X0005984Y0066163D01*
X0007270Y0066163D01*
X0009022Y0066889D01*
X0009195Y0067062D01*
X0009195Y0066358D02*
X0007742Y0066358D01*
X0009195Y0064760D02*
X0005984Y0064760D01*
X0005984Y0063161D02*
X0009195Y0063161D01*
X0009195Y0061563D02*
X0005984Y0061563D01*
X0005984Y0059964D02*
X0009286Y0059964D01*
X0009534Y0058366D02*
X0005984Y0058366D01*
X0005984Y0056767D02*
X0009195Y0056767D01*
X0009195Y0055169D02*
X0005984Y0055169D01*
X0005984Y0053570D02*
X0009195Y0053570D01*
X0009195Y0051972D02*
X0007525Y0051972D01*
X0019195Y0051972D02*
X0024597Y0051972D01*
X0019195Y0051972D01*
X0019195Y0050373D02*
X0024597Y0050373D01*
X0019195Y0050373D01*
X0019195Y0053570D02*
X0024597Y0053570D01*
X0019195Y0053570D01*
X0019826Y0055169D02*
X0024597Y0055169D01*
X0019826Y0055169D01*
X0021425Y0056767D02*
X0024597Y0056767D01*
X0021425Y0056767D01*
X0022603Y0058366D02*
X0025376Y0058366D01*
X0022603Y0058366D01*
X0022701Y0059964D02*
X0025286Y0059964D01*
X0025626Y0059964D02*
X0022701Y0059964D01*
X0022701Y0061563D02*
X0024597Y0061563D01*
X0024797Y0061563D02*
X0022701Y0061563D01*
X0022701Y0063161D02*
X0024597Y0063161D01*
X0024797Y0063161D02*
X0022701Y0063161D01*
X0031137Y0061563D02*
X0032687Y0061563D01*
X0032687Y0059964D02*
X0031137Y0059964D01*
X0171196Y0063161D02*
X0172155Y0063161D01*
X0176428Y0063161D02*
X0178143Y0063161D01*
X0178143Y0061563D02*
X0176428Y0061563D01*
X0176428Y0059964D02*
X0178143Y0059964D01*
X0178143Y0058366D02*
X0176628Y0058366D01*
X0177943Y0058366D01*
X0177943Y0056767D02*
X0176628Y0056767D01*
X0178143Y0056767D01*
X0178143Y0055169D02*
X0176628Y0055169D01*
X0177943Y0055169D01*
X0178334Y0053570D02*
X0176628Y0053570D01*
X0178617Y0053570D01*
X0176214Y0051972D02*
X0196021Y0051972D01*
X0176214Y0051972D01*
X0174079Y0050373D02*
X0193933Y0050373D01*
X0174079Y0050373D01*
X0174079Y0048775D02*
X0193391Y0048775D01*
X0174079Y0048775D01*
X0174079Y0047176D02*
X0193535Y0047176D01*
X0174079Y0047176D01*
X0174079Y0045578D02*
X0178080Y0045578D01*
X0174079Y0045578D01*
X0174549Y0043979D02*
X0176480Y0043979D01*
X0174549Y0043979D01*
X0200425Y0045972D02*
X0200551Y0046098D01*
X0200664Y0046371D01*
X0200830Y0045972D01*
X0200425Y0045972D01*
X0206281Y0047680D02*
X0206674Y0047287D01*
X0206776Y0047536D01*
X0207561Y0048321D01*
X0207561Y0053085D01*
X0205927Y0051450D01*
X0206125Y0051251D01*
X0206656Y0049971D01*
X0206656Y0048585D01*
X0206281Y0047680D01*
X0206656Y0048775D02*
X0207561Y0048775D01*
X0212561Y0048775D02*
X0233462Y0048775D01*
X0231864Y0050373D02*
X0212561Y0050373D01*
X0212561Y0051972D02*
X0228161Y0051972D01*
X0227746Y0052386D02*
X0228918Y0051215D01*
X0231022Y0051215D01*
X0231226Y0051010D01*
X0235416Y0046821D01*
X0236148Y0046089D01*
X0236265Y0045972D01*
X0214465Y0045972D01*
X0213936Y0045753D01*
X0213936Y0046111D01*
X0213346Y0047536D01*
X0212561Y0048321D01*
X0212561Y0053178D01*
X0212894Y0052845D01*
X0220558Y0052845D01*
X0221212Y0052574D01*
X0227746Y0052574D01*
X0227746Y0052386D01*
X0235061Y0047176D02*
X0213495Y0047176D01*
X0207561Y0050373D02*
X0206489Y0050373D01*
X0206449Y0051972D02*
X0207561Y0051972D01*
X0192161Y0053570D02*
X0190561Y0053570D01*
X0190561Y0055169D02*
X0192161Y0055169D01*
X0192161Y0056767D02*
X0190561Y0056767D01*
X0190561Y0058366D02*
X0192161Y0058366D01*
X0192161Y0059964D02*
X0190561Y0059964D01*
X0190561Y0061563D02*
X0192161Y0061563D01*
X0192161Y0063161D02*
X0190561Y0063161D01*
X0190561Y0064760D02*
X0192161Y0064760D01*
X0192161Y0066358D02*
X0204609Y0066358D01*
X0204578Y0064760D02*
X0204609Y0064760D01*
X0204578Y0063161D02*
X0204609Y0063161D01*
X0204578Y0061563D02*
X0204609Y0061563D01*
X0204578Y0059964D02*
X0204609Y0059964D01*
X0204578Y0058366D02*
X0204609Y0058366D01*
X0212561Y0062811D02*
X0212561Y0071178D01*
X0212894Y0070845D01*
X0222971Y0070845D01*
X0222919Y0070718D01*
X0222919Y0069176D01*
X0223265Y0068339D01*
X0222494Y0067568D01*
X0222075Y0066557D01*
X0222075Y0063144D01*
X0212894Y0063144D01*
X0212561Y0062811D01*
X0212561Y0063161D02*
X0222075Y0063161D01*
X0222075Y0064760D02*
X0212561Y0064760D01*
X0212561Y0066358D02*
X0222075Y0066358D01*
X0222883Y0067957D02*
X0212561Y0067957D01*
X0212561Y0069555D02*
X0222919Y0069555D01*
X0227534Y0073822D02*
X0227534Y0075020D01*
X0227746Y0075233D01*
X0227746Y0073747D01*
X0227564Y0073822D01*
X0227534Y0073822D01*
X0227534Y0074351D02*
X0227746Y0074351D01*
X0212585Y0071154D02*
X0212561Y0071154D01*
X0204609Y0071154D02*
X0204578Y0071154D01*
X0204578Y0069555D02*
X0204609Y0069555D01*
X0204578Y0067957D02*
X0204609Y0067957D01*
X0227575Y0064760D02*
X0227946Y0064760D01*
X0227946Y0063161D02*
X0227575Y0063161D01*
X0227575Y0061563D02*
X0227746Y0061563D01*
X0227575Y0061563D02*
X0227946Y0061563D01*
X0227946Y0059964D02*
X0227575Y0059964D01*
X0227746Y0059964D01*
X0241205Y0064760D02*
X0241329Y0064760D01*
X0241440Y0066358D02*
X0241205Y0066358D01*
X0241205Y0067957D02*
X0241329Y0067957D01*
X0271164Y0056767D02*
X0274375Y0056767D01*
X0274375Y0055169D02*
X0271164Y0055169D01*
X0271164Y0053570D02*
X0274375Y0053570D01*
X0272834Y0051972D02*
X0271164Y0051972D01*
X0266364Y0048775D02*
X0265964Y0048775D01*
X0265964Y0047176D02*
X0266364Y0047176D01*
X0266364Y0045578D02*
X0265964Y0045578D01*
X0265964Y0043979D02*
X0266364Y0043979D01*
X0266364Y0042381D02*
X0265964Y0042381D01*
X0261364Y0042381D02*
X0251628Y0042381D01*
X0261164Y0042381D01*
X0261164Y0040782D02*
X0251628Y0040782D01*
X0261412Y0040782D01*
X0265964Y0040782D02*
X0266364Y0040782D01*
X0270916Y0040782D02*
X0274375Y0040782D01*
X0271164Y0040782D01*
X0274375Y0039184D02*
X0251628Y0039184D01*
X0274375Y0039184D01*
X0274375Y0037585D02*
X0251628Y0037585D01*
X0274375Y0037585D01*
X0274375Y0035987D02*
X0273846Y0035987D01*
X0274375Y0035987D01*
X0270293Y0035987D02*
X0268798Y0035987D01*
X0270293Y0035987D01*
X0270964Y0042381D02*
X0274375Y0042381D01*
X0271164Y0042381D01*
X0251719Y0035987D02*
X0251628Y0035987D01*
X0251719Y0035987D01*
X0236148Y0046089D02*
X0236148Y0046089D01*
X0235416Y0046821D02*
X0235416Y0046821D01*
X0268888Y0082343D02*
X0270076Y0082343D01*
X0274063Y0082343D02*
X0274375Y0082343D01*
D11*
X0270100Y0086679D02*
X0270102Y0086767D01*
X0270108Y0086855D01*
X0270118Y0086943D01*
X0270132Y0087031D01*
X0270149Y0087117D01*
X0270171Y0087203D01*
X0270196Y0087287D01*
X0270226Y0087371D01*
X0270258Y0087453D01*
X0270295Y0087533D01*
X0270335Y0087612D01*
X0270379Y0087689D01*
X0270426Y0087764D01*
X0270476Y0087836D01*
X0270530Y0087907D01*
X0270586Y0087974D01*
X0270646Y0088040D01*
X0270708Y0088102D01*
X0270774Y0088162D01*
X0270841Y0088218D01*
X0270912Y0088272D01*
X0270984Y0088322D01*
X0271059Y0088369D01*
X0271136Y0088413D01*
X0271215Y0088453D01*
X0271295Y0088490D01*
X0271377Y0088522D01*
X0271461Y0088552D01*
X0271545Y0088577D01*
X0271631Y0088599D01*
X0271717Y0088616D01*
X0271805Y0088630D01*
X0271893Y0088640D01*
X0271981Y0088646D01*
X0272069Y0088648D01*
X0272157Y0088646D01*
X0272245Y0088640D01*
X0272333Y0088630D01*
X0272421Y0088616D01*
X0272507Y0088599D01*
X0272593Y0088577D01*
X0272677Y0088552D01*
X0272761Y0088522D01*
X0272843Y0088490D01*
X0272923Y0088453D01*
X0273002Y0088413D01*
X0273079Y0088369D01*
X0273154Y0088322D01*
X0273226Y0088272D01*
X0273297Y0088218D01*
X0273364Y0088162D01*
X0273430Y0088102D01*
X0273492Y0088040D01*
X0273552Y0087974D01*
X0273608Y0087907D01*
X0273662Y0087836D01*
X0273712Y0087764D01*
X0273759Y0087689D01*
X0273803Y0087612D01*
X0273843Y0087533D01*
X0273880Y0087453D01*
X0273912Y0087371D01*
X0273942Y0087287D01*
X0273967Y0087203D01*
X0273989Y0087117D01*
X0274006Y0087031D01*
X0274020Y0086943D01*
X0274030Y0086855D01*
X0274036Y0086767D01*
X0274038Y0086679D01*
X0274036Y0086591D01*
X0274030Y0086503D01*
X0274020Y0086415D01*
X0274006Y0086327D01*
X0273989Y0086241D01*
X0273967Y0086155D01*
X0273942Y0086071D01*
X0273912Y0085987D01*
X0273880Y0085905D01*
X0273843Y0085825D01*
X0273803Y0085746D01*
X0273759Y0085669D01*
X0273712Y0085594D01*
X0273662Y0085522D01*
X0273608Y0085451D01*
X0273552Y0085384D01*
X0273492Y0085318D01*
X0273430Y0085256D01*
X0273364Y0085196D01*
X0273297Y0085140D01*
X0273226Y0085086D01*
X0273154Y0085036D01*
X0273079Y0084989D01*
X0273002Y0084945D01*
X0272923Y0084905D01*
X0272843Y0084868D01*
X0272761Y0084836D01*
X0272677Y0084806D01*
X0272593Y0084781D01*
X0272507Y0084759D01*
X0272421Y0084742D01*
X0272333Y0084728D01*
X0272245Y0084718D01*
X0272157Y0084712D01*
X0272069Y0084710D01*
X0271981Y0084712D01*
X0271893Y0084718D01*
X0271805Y0084728D01*
X0271717Y0084742D01*
X0271631Y0084759D01*
X0271545Y0084781D01*
X0271461Y0084806D01*
X0271377Y0084836D01*
X0271295Y0084868D01*
X0271215Y0084905D01*
X0271136Y0084945D01*
X0271059Y0084989D01*
X0270984Y0085036D01*
X0270912Y0085086D01*
X0270841Y0085140D01*
X0270774Y0085196D01*
X0270708Y0085256D01*
X0270646Y0085318D01*
X0270586Y0085384D01*
X0270530Y0085451D01*
X0270476Y0085522D01*
X0270426Y0085594D01*
X0270379Y0085669D01*
X0270335Y0085746D01*
X0270295Y0085825D01*
X0270258Y0085905D01*
X0270226Y0085987D01*
X0270196Y0086071D01*
X0270171Y0086155D01*
X0270149Y0086241D01*
X0270132Y0086327D01*
X0270118Y0086415D01*
X0270108Y0086503D01*
X0270102Y0086591D01*
X0270100Y0086679D01*
X0272069Y0070931D02*
X0272071Y0071019D01*
X0272077Y0071107D01*
X0272087Y0071195D01*
X0272101Y0071283D01*
X0272118Y0071369D01*
X0272140Y0071455D01*
X0272165Y0071539D01*
X0272195Y0071623D01*
X0272227Y0071705D01*
X0272264Y0071785D01*
X0272304Y0071864D01*
X0272348Y0071941D01*
X0272395Y0072016D01*
X0272445Y0072088D01*
X0272499Y0072159D01*
X0272555Y0072226D01*
X0272615Y0072292D01*
X0272677Y0072354D01*
X0272743Y0072414D01*
X0272810Y0072470D01*
X0272881Y0072524D01*
X0272953Y0072574D01*
X0273028Y0072621D01*
X0273105Y0072665D01*
X0273184Y0072705D01*
X0273264Y0072742D01*
X0273346Y0072774D01*
X0273430Y0072804D01*
X0273514Y0072829D01*
X0273600Y0072851D01*
X0273686Y0072868D01*
X0273774Y0072882D01*
X0273862Y0072892D01*
X0273950Y0072898D01*
X0274038Y0072900D01*
X0274126Y0072898D01*
X0274214Y0072892D01*
X0274302Y0072882D01*
X0274390Y0072868D01*
X0274476Y0072851D01*
X0274562Y0072829D01*
X0274646Y0072804D01*
X0274730Y0072774D01*
X0274812Y0072742D01*
X0274892Y0072705D01*
X0274971Y0072665D01*
X0275048Y0072621D01*
X0275123Y0072574D01*
X0275195Y0072524D01*
X0275266Y0072470D01*
X0275333Y0072414D01*
X0275399Y0072354D01*
X0275461Y0072292D01*
X0275521Y0072226D01*
X0275577Y0072159D01*
X0275631Y0072088D01*
X0275681Y0072016D01*
X0275728Y0071941D01*
X0275772Y0071864D01*
X0275812Y0071785D01*
X0275849Y0071705D01*
X0275881Y0071623D01*
X0275911Y0071539D01*
X0275936Y0071455D01*
X0275958Y0071369D01*
X0275975Y0071283D01*
X0275989Y0071195D01*
X0275999Y0071107D01*
X0276005Y0071019D01*
X0276007Y0070931D01*
X0276005Y0070843D01*
X0275999Y0070755D01*
X0275989Y0070667D01*
X0275975Y0070579D01*
X0275958Y0070493D01*
X0275936Y0070407D01*
X0275911Y0070323D01*
X0275881Y0070239D01*
X0275849Y0070157D01*
X0275812Y0070077D01*
X0275772Y0069998D01*
X0275728Y0069921D01*
X0275681Y0069846D01*
X0275631Y0069774D01*
X0275577Y0069703D01*
X0275521Y0069636D01*
X0275461Y0069570D01*
X0275399Y0069508D01*
X0275333Y0069448D01*
X0275266Y0069392D01*
X0275195Y0069338D01*
X0275123Y0069288D01*
X0275048Y0069241D01*
X0274971Y0069197D01*
X0274892Y0069157D01*
X0274812Y0069120D01*
X0274730Y0069088D01*
X0274646Y0069058D01*
X0274562Y0069033D01*
X0274476Y0069011D01*
X0274390Y0068994D01*
X0274302Y0068980D01*
X0274214Y0068970D01*
X0274126Y0068964D01*
X0274038Y0068962D01*
X0273950Y0068964D01*
X0273862Y0068970D01*
X0273774Y0068980D01*
X0273686Y0068994D01*
X0273600Y0069011D01*
X0273514Y0069033D01*
X0273430Y0069058D01*
X0273346Y0069088D01*
X0273264Y0069120D01*
X0273184Y0069157D01*
X0273105Y0069197D01*
X0273028Y0069241D01*
X0272953Y0069288D01*
X0272881Y0069338D01*
X0272810Y0069392D01*
X0272743Y0069448D01*
X0272677Y0069508D01*
X0272615Y0069570D01*
X0272555Y0069636D01*
X0272499Y0069703D01*
X0272445Y0069774D01*
X0272395Y0069846D01*
X0272348Y0069921D01*
X0272304Y0069998D01*
X0272264Y0070077D01*
X0272227Y0070157D01*
X0272195Y0070239D01*
X0272165Y0070323D01*
X0272140Y0070407D01*
X0272118Y0070493D01*
X0272101Y0070579D01*
X0272087Y0070667D01*
X0272077Y0070755D01*
X0272071Y0070843D01*
X0272069Y0070931D01*
X0272069Y0047309D02*
X0272071Y0047397D01*
X0272077Y0047485D01*
X0272087Y0047573D01*
X0272101Y0047661D01*
X0272118Y0047747D01*
X0272140Y0047833D01*
X0272165Y0047917D01*
X0272195Y0048001D01*
X0272227Y0048083D01*
X0272264Y0048163D01*
X0272304Y0048242D01*
X0272348Y0048319D01*
X0272395Y0048394D01*
X0272445Y0048466D01*
X0272499Y0048537D01*
X0272555Y0048604D01*
X0272615Y0048670D01*
X0272677Y0048732D01*
X0272743Y0048792D01*
X0272810Y0048848D01*
X0272881Y0048902D01*
X0272953Y0048952D01*
X0273028Y0048999D01*
X0273105Y0049043D01*
X0273184Y0049083D01*
X0273264Y0049120D01*
X0273346Y0049152D01*
X0273430Y0049182D01*
X0273514Y0049207D01*
X0273600Y0049229D01*
X0273686Y0049246D01*
X0273774Y0049260D01*
X0273862Y0049270D01*
X0273950Y0049276D01*
X0274038Y0049278D01*
X0274126Y0049276D01*
X0274214Y0049270D01*
X0274302Y0049260D01*
X0274390Y0049246D01*
X0274476Y0049229D01*
X0274562Y0049207D01*
X0274646Y0049182D01*
X0274730Y0049152D01*
X0274812Y0049120D01*
X0274892Y0049083D01*
X0274971Y0049043D01*
X0275048Y0048999D01*
X0275123Y0048952D01*
X0275195Y0048902D01*
X0275266Y0048848D01*
X0275333Y0048792D01*
X0275399Y0048732D01*
X0275461Y0048670D01*
X0275521Y0048604D01*
X0275577Y0048537D01*
X0275631Y0048466D01*
X0275681Y0048394D01*
X0275728Y0048319D01*
X0275772Y0048242D01*
X0275812Y0048163D01*
X0275849Y0048083D01*
X0275881Y0048001D01*
X0275911Y0047917D01*
X0275936Y0047833D01*
X0275958Y0047747D01*
X0275975Y0047661D01*
X0275989Y0047573D01*
X0275999Y0047485D01*
X0276005Y0047397D01*
X0276007Y0047309D01*
X0276005Y0047221D01*
X0275999Y0047133D01*
X0275989Y0047045D01*
X0275975Y0046957D01*
X0275958Y0046871D01*
X0275936Y0046785D01*
X0275911Y0046701D01*
X0275881Y0046617D01*
X0275849Y0046535D01*
X0275812Y0046455D01*
X0275772Y0046376D01*
X0275728Y0046299D01*
X0275681Y0046224D01*
X0275631Y0046152D01*
X0275577Y0046081D01*
X0275521Y0046014D01*
X0275461Y0045948D01*
X0275399Y0045886D01*
X0275333Y0045826D01*
X0275266Y0045770D01*
X0275195Y0045716D01*
X0275123Y0045666D01*
X0275048Y0045619D01*
X0274971Y0045575D01*
X0274892Y0045535D01*
X0274812Y0045498D01*
X0274730Y0045466D01*
X0274646Y0045436D01*
X0274562Y0045411D01*
X0274476Y0045389D01*
X0274390Y0045372D01*
X0274302Y0045358D01*
X0274214Y0045348D01*
X0274126Y0045342D01*
X0274038Y0045340D01*
X0273950Y0045342D01*
X0273862Y0045348D01*
X0273774Y0045358D01*
X0273686Y0045372D01*
X0273600Y0045389D01*
X0273514Y0045411D01*
X0273430Y0045436D01*
X0273346Y0045466D01*
X0273264Y0045498D01*
X0273184Y0045535D01*
X0273105Y0045575D01*
X0273028Y0045619D01*
X0272953Y0045666D01*
X0272881Y0045716D01*
X0272810Y0045770D01*
X0272743Y0045826D01*
X0272677Y0045886D01*
X0272615Y0045948D01*
X0272555Y0046014D01*
X0272499Y0046081D01*
X0272445Y0046152D01*
X0272395Y0046224D01*
X0272348Y0046299D01*
X0272304Y0046376D01*
X0272264Y0046455D01*
X0272227Y0046535D01*
X0272195Y0046617D01*
X0272165Y0046701D01*
X0272140Y0046785D01*
X0272118Y0046871D01*
X0272101Y0046957D01*
X0272087Y0047045D01*
X0272077Y0047133D01*
X0272071Y0047221D01*
X0272069Y0047309D01*
X0270100Y0031561D02*
X0270102Y0031649D01*
X0270108Y0031737D01*
X0270118Y0031825D01*
X0270132Y0031913D01*
X0270149Y0031999D01*
X0270171Y0032085D01*
X0270196Y0032169D01*
X0270226Y0032253D01*
X0270258Y0032335D01*
X0270295Y0032415D01*
X0270335Y0032494D01*
X0270379Y0032571D01*
X0270426Y0032646D01*
X0270476Y0032718D01*
X0270530Y0032789D01*
X0270586Y0032856D01*
X0270646Y0032922D01*
X0270708Y0032984D01*
X0270774Y0033044D01*
X0270841Y0033100D01*
X0270912Y0033154D01*
X0270984Y0033204D01*
X0271059Y0033251D01*
X0271136Y0033295D01*
X0271215Y0033335D01*
X0271295Y0033372D01*
X0271377Y0033404D01*
X0271461Y0033434D01*
X0271545Y0033459D01*
X0271631Y0033481D01*
X0271717Y0033498D01*
X0271805Y0033512D01*
X0271893Y0033522D01*
X0271981Y0033528D01*
X0272069Y0033530D01*
X0272157Y0033528D01*
X0272245Y0033522D01*
X0272333Y0033512D01*
X0272421Y0033498D01*
X0272507Y0033481D01*
X0272593Y0033459D01*
X0272677Y0033434D01*
X0272761Y0033404D01*
X0272843Y0033372D01*
X0272923Y0033335D01*
X0273002Y0033295D01*
X0273079Y0033251D01*
X0273154Y0033204D01*
X0273226Y0033154D01*
X0273297Y0033100D01*
X0273364Y0033044D01*
X0273430Y0032984D01*
X0273492Y0032922D01*
X0273552Y0032856D01*
X0273608Y0032789D01*
X0273662Y0032718D01*
X0273712Y0032646D01*
X0273759Y0032571D01*
X0273803Y0032494D01*
X0273843Y0032415D01*
X0273880Y0032335D01*
X0273912Y0032253D01*
X0273942Y0032169D01*
X0273967Y0032085D01*
X0273989Y0031999D01*
X0274006Y0031913D01*
X0274020Y0031825D01*
X0274030Y0031737D01*
X0274036Y0031649D01*
X0274038Y0031561D01*
X0274036Y0031473D01*
X0274030Y0031385D01*
X0274020Y0031297D01*
X0274006Y0031209D01*
X0273989Y0031123D01*
X0273967Y0031037D01*
X0273942Y0030953D01*
X0273912Y0030869D01*
X0273880Y0030787D01*
X0273843Y0030707D01*
X0273803Y0030628D01*
X0273759Y0030551D01*
X0273712Y0030476D01*
X0273662Y0030404D01*
X0273608Y0030333D01*
X0273552Y0030266D01*
X0273492Y0030200D01*
X0273430Y0030138D01*
X0273364Y0030078D01*
X0273297Y0030022D01*
X0273226Y0029968D01*
X0273154Y0029918D01*
X0273079Y0029871D01*
X0273002Y0029827D01*
X0272923Y0029787D01*
X0272843Y0029750D01*
X0272761Y0029718D01*
X0272677Y0029688D01*
X0272593Y0029663D01*
X0272507Y0029641D01*
X0272421Y0029624D01*
X0272333Y0029610D01*
X0272245Y0029600D01*
X0272157Y0029594D01*
X0272069Y0029592D01*
X0271981Y0029594D01*
X0271893Y0029600D01*
X0271805Y0029610D01*
X0271717Y0029624D01*
X0271631Y0029641D01*
X0271545Y0029663D01*
X0271461Y0029688D01*
X0271377Y0029718D01*
X0271295Y0029750D01*
X0271215Y0029787D01*
X0271136Y0029827D01*
X0271059Y0029871D01*
X0270984Y0029918D01*
X0270912Y0029968D01*
X0270841Y0030022D01*
X0270774Y0030078D01*
X0270708Y0030138D01*
X0270646Y0030200D01*
X0270586Y0030266D01*
X0270530Y0030333D01*
X0270476Y0030404D01*
X0270426Y0030476D01*
X0270379Y0030551D01*
X0270335Y0030628D01*
X0270295Y0030707D01*
X0270258Y0030787D01*
X0270226Y0030869D01*
X0270196Y0030953D01*
X0270171Y0031037D01*
X0270149Y0031123D01*
X0270132Y0031209D01*
X0270118Y0031297D01*
X0270108Y0031385D01*
X0270102Y0031473D01*
X0270100Y0031561D01*
X0096872Y0031561D02*
X0096874Y0031649D01*
X0096880Y0031737D01*
X0096890Y0031825D01*
X0096904Y0031913D01*
X0096921Y0031999D01*
X0096943Y0032085D01*
X0096968Y0032169D01*
X0096998Y0032253D01*
X0097030Y0032335D01*
X0097067Y0032415D01*
X0097107Y0032494D01*
X0097151Y0032571D01*
X0097198Y0032646D01*
X0097248Y0032718D01*
X0097302Y0032789D01*
X0097358Y0032856D01*
X0097418Y0032922D01*
X0097480Y0032984D01*
X0097546Y0033044D01*
X0097613Y0033100D01*
X0097684Y0033154D01*
X0097756Y0033204D01*
X0097831Y0033251D01*
X0097908Y0033295D01*
X0097987Y0033335D01*
X0098067Y0033372D01*
X0098149Y0033404D01*
X0098233Y0033434D01*
X0098317Y0033459D01*
X0098403Y0033481D01*
X0098489Y0033498D01*
X0098577Y0033512D01*
X0098665Y0033522D01*
X0098753Y0033528D01*
X0098841Y0033530D01*
X0098929Y0033528D01*
X0099017Y0033522D01*
X0099105Y0033512D01*
X0099193Y0033498D01*
X0099279Y0033481D01*
X0099365Y0033459D01*
X0099449Y0033434D01*
X0099533Y0033404D01*
X0099615Y0033372D01*
X0099695Y0033335D01*
X0099774Y0033295D01*
X0099851Y0033251D01*
X0099926Y0033204D01*
X0099998Y0033154D01*
X0100069Y0033100D01*
X0100136Y0033044D01*
X0100202Y0032984D01*
X0100264Y0032922D01*
X0100324Y0032856D01*
X0100380Y0032789D01*
X0100434Y0032718D01*
X0100484Y0032646D01*
X0100531Y0032571D01*
X0100575Y0032494D01*
X0100615Y0032415D01*
X0100652Y0032335D01*
X0100684Y0032253D01*
X0100714Y0032169D01*
X0100739Y0032085D01*
X0100761Y0031999D01*
X0100778Y0031913D01*
X0100792Y0031825D01*
X0100802Y0031737D01*
X0100808Y0031649D01*
X0100810Y0031561D01*
X0100808Y0031473D01*
X0100802Y0031385D01*
X0100792Y0031297D01*
X0100778Y0031209D01*
X0100761Y0031123D01*
X0100739Y0031037D01*
X0100714Y0030953D01*
X0100684Y0030869D01*
X0100652Y0030787D01*
X0100615Y0030707D01*
X0100575Y0030628D01*
X0100531Y0030551D01*
X0100484Y0030476D01*
X0100434Y0030404D01*
X0100380Y0030333D01*
X0100324Y0030266D01*
X0100264Y0030200D01*
X0100202Y0030138D01*
X0100136Y0030078D01*
X0100069Y0030022D01*
X0099998Y0029968D01*
X0099926Y0029918D01*
X0099851Y0029871D01*
X0099774Y0029827D01*
X0099695Y0029787D01*
X0099615Y0029750D01*
X0099533Y0029718D01*
X0099449Y0029688D01*
X0099365Y0029663D01*
X0099279Y0029641D01*
X0099193Y0029624D01*
X0099105Y0029610D01*
X0099017Y0029600D01*
X0098929Y0029594D01*
X0098841Y0029592D01*
X0098753Y0029594D01*
X0098665Y0029600D01*
X0098577Y0029610D01*
X0098489Y0029624D01*
X0098403Y0029641D01*
X0098317Y0029663D01*
X0098233Y0029688D01*
X0098149Y0029718D01*
X0098067Y0029750D01*
X0097987Y0029787D01*
X0097908Y0029827D01*
X0097831Y0029871D01*
X0097756Y0029918D01*
X0097684Y0029968D01*
X0097613Y0030022D01*
X0097546Y0030078D01*
X0097480Y0030138D01*
X0097418Y0030200D01*
X0097358Y0030266D01*
X0097302Y0030333D01*
X0097248Y0030404D01*
X0097198Y0030476D01*
X0097151Y0030551D01*
X0097107Y0030628D01*
X0097067Y0030707D01*
X0097030Y0030787D01*
X0096998Y0030869D01*
X0096968Y0030953D01*
X0096943Y0031037D01*
X0096921Y0031123D01*
X0096904Y0031209D01*
X0096890Y0031297D01*
X0096880Y0031385D01*
X0096874Y0031473D01*
X0096872Y0031561D01*
X0075218Y0031561D02*
X0075220Y0031649D01*
X0075226Y0031737D01*
X0075236Y0031825D01*
X0075250Y0031913D01*
X0075267Y0031999D01*
X0075289Y0032085D01*
X0075314Y0032169D01*
X0075344Y0032253D01*
X0075376Y0032335D01*
X0075413Y0032415D01*
X0075453Y0032494D01*
X0075497Y0032571D01*
X0075544Y0032646D01*
X0075594Y0032718D01*
X0075648Y0032789D01*
X0075704Y0032856D01*
X0075764Y0032922D01*
X0075826Y0032984D01*
X0075892Y0033044D01*
X0075959Y0033100D01*
X0076030Y0033154D01*
X0076102Y0033204D01*
X0076177Y0033251D01*
X0076254Y0033295D01*
X0076333Y0033335D01*
X0076413Y0033372D01*
X0076495Y0033404D01*
X0076579Y0033434D01*
X0076663Y0033459D01*
X0076749Y0033481D01*
X0076835Y0033498D01*
X0076923Y0033512D01*
X0077011Y0033522D01*
X0077099Y0033528D01*
X0077187Y0033530D01*
X0077275Y0033528D01*
X0077363Y0033522D01*
X0077451Y0033512D01*
X0077539Y0033498D01*
X0077625Y0033481D01*
X0077711Y0033459D01*
X0077795Y0033434D01*
X0077879Y0033404D01*
X0077961Y0033372D01*
X0078041Y0033335D01*
X0078120Y0033295D01*
X0078197Y0033251D01*
X0078272Y0033204D01*
X0078344Y0033154D01*
X0078415Y0033100D01*
X0078482Y0033044D01*
X0078548Y0032984D01*
X0078610Y0032922D01*
X0078670Y0032856D01*
X0078726Y0032789D01*
X0078780Y0032718D01*
X0078830Y0032646D01*
X0078877Y0032571D01*
X0078921Y0032494D01*
X0078961Y0032415D01*
X0078998Y0032335D01*
X0079030Y0032253D01*
X0079060Y0032169D01*
X0079085Y0032085D01*
X0079107Y0031999D01*
X0079124Y0031913D01*
X0079138Y0031825D01*
X0079148Y0031737D01*
X0079154Y0031649D01*
X0079156Y0031561D01*
X0079154Y0031473D01*
X0079148Y0031385D01*
X0079138Y0031297D01*
X0079124Y0031209D01*
X0079107Y0031123D01*
X0079085Y0031037D01*
X0079060Y0030953D01*
X0079030Y0030869D01*
X0078998Y0030787D01*
X0078961Y0030707D01*
X0078921Y0030628D01*
X0078877Y0030551D01*
X0078830Y0030476D01*
X0078780Y0030404D01*
X0078726Y0030333D01*
X0078670Y0030266D01*
X0078610Y0030200D01*
X0078548Y0030138D01*
X0078482Y0030078D01*
X0078415Y0030022D01*
X0078344Y0029968D01*
X0078272Y0029918D01*
X0078197Y0029871D01*
X0078120Y0029827D01*
X0078041Y0029787D01*
X0077961Y0029750D01*
X0077879Y0029718D01*
X0077795Y0029688D01*
X0077711Y0029663D01*
X0077625Y0029641D01*
X0077539Y0029624D01*
X0077451Y0029610D01*
X0077363Y0029600D01*
X0077275Y0029594D01*
X0077187Y0029592D01*
X0077099Y0029594D01*
X0077011Y0029600D01*
X0076923Y0029610D01*
X0076835Y0029624D01*
X0076749Y0029641D01*
X0076663Y0029663D01*
X0076579Y0029688D01*
X0076495Y0029718D01*
X0076413Y0029750D01*
X0076333Y0029787D01*
X0076254Y0029827D01*
X0076177Y0029871D01*
X0076102Y0029918D01*
X0076030Y0029968D01*
X0075959Y0030022D01*
X0075892Y0030078D01*
X0075826Y0030138D01*
X0075764Y0030200D01*
X0075704Y0030266D01*
X0075648Y0030333D01*
X0075594Y0030404D01*
X0075544Y0030476D01*
X0075497Y0030551D01*
X0075453Y0030628D01*
X0075413Y0030707D01*
X0075376Y0030787D01*
X0075344Y0030869D01*
X0075314Y0030953D01*
X0075289Y0031037D01*
X0075267Y0031123D01*
X0075250Y0031209D01*
X0075236Y0031297D01*
X0075226Y0031385D01*
X0075220Y0031473D01*
X0075218Y0031561D01*
X0006321Y0031561D02*
X0006323Y0031649D01*
X0006329Y0031737D01*
X0006339Y0031825D01*
X0006353Y0031913D01*
X0006370Y0031999D01*
X0006392Y0032085D01*
X0006417Y0032169D01*
X0006447Y0032253D01*
X0006479Y0032335D01*
X0006516Y0032415D01*
X0006556Y0032494D01*
X0006600Y0032571D01*
X0006647Y0032646D01*
X0006697Y0032718D01*
X0006751Y0032789D01*
X0006807Y0032856D01*
X0006867Y0032922D01*
X0006929Y0032984D01*
X0006995Y0033044D01*
X0007062Y0033100D01*
X0007133Y0033154D01*
X0007205Y0033204D01*
X0007280Y0033251D01*
X0007357Y0033295D01*
X0007436Y0033335D01*
X0007516Y0033372D01*
X0007598Y0033404D01*
X0007682Y0033434D01*
X0007766Y0033459D01*
X0007852Y0033481D01*
X0007938Y0033498D01*
X0008026Y0033512D01*
X0008114Y0033522D01*
X0008202Y0033528D01*
X0008290Y0033530D01*
X0008378Y0033528D01*
X0008466Y0033522D01*
X0008554Y0033512D01*
X0008642Y0033498D01*
X0008728Y0033481D01*
X0008814Y0033459D01*
X0008898Y0033434D01*
X0008982Y0033404D01*
X0009064Y0033372D01*
X0009144Y0033335D01*
X0009223Y0033295D01*
X0009300Y0033251D01*
X0009375Y0033204D01*
X0009447Y0033154D01*
X0009518Y0033100D01*
X0009585Y0033044D01*
X0009651Y0032984D01*
X0009713Y0032922D01*
X0009773Y0032856D01*
X0009829Y0032789D01*
X0009883Y0032718D01*
X0009933Y0032646D01*
X0009980Y0032571D01*
X0010024Y0032494D01*
X0010064Y0032415D01*
X0010101Y0032335D01*
X0010133Y0032253D01*
X0010163Y0032169D01*
X0010188Y0032085D01*
X0010210Y0031999D01*
X0010227Y0031913D01*
X0010241Y0031825D01*
X0010251Y0031737D01*
X0010257Y0031649D01*
X0010259Y0031561D01*
X0010257Y0031473D01*
X0010251Y0031385D01*
X0010241Y0031297D01*
X0010227Y0031209D01*
X0010210Y0031123D01*
X0010188Y0031037D01*
X0010163Y0030953D01*
X0010133Y0030869D01*
X0010101Y0030787D01*
X0010064Y0030707D01*
X0010024Y0030628D01*
X0009980Y0030551D01*
X0009933Y0030476D01*
X0009883Y0030404D01*
X0009829Y0030333D01*
X0009773Y0030266D01*
X0009713Y0030200D01*
X0009651Y0030138D01*
X0009585Y0030078D01*
X0009518Y0030022D01*
X0009447Y0029968D01*
X0009375Y0029918D01*
X0009300Y0029871D01*
X0009223Y0029827D01*
X0009144Y0029787D01*
X0009064Y0029750D01*
X0008982Y0029718D01*
X0008898Y0029688D01*
X0008814Y0029663D01*
X0008728Y0029641D01*
X0008642Y0029624D01*
X0008554Y0029610D01*
X0008466Y0029600D01*
X0008378Y0029594D01*
X0008290Y0029592D01*
X0008202Y0029594D01*
X0008114Y0029600D01*
X0008026Y0029610D01*
X0007938Y0029624D01*
X0007852Y0029641D01*
X0007766Y0029663D01*
X0007682Y0029688D01*
X0007598Y0029718D01*
X0007516Y0029750D01*
X0007436Y0029787D01*
X0007357Y0029827D01*
X0007280Y0029871D01*
X0007205Y0029918D01*
X0007133Y0029968D01*
X0007062Y0030022D01*
X0006995Y0030078D01*
X0006929Y0030138D01*
X0006867Y0030200D01*
X0006807Y0030266D01*
X0006751Y0030333D01*
X0006697Y0030404D01*
X0006647Y0030476D01*
X0006600Y0030551D01*
X0006556Y0030628D01*
X0006516Y0030707D01*
X0006479Y0030787D01*
X0006447Y0030869D01*
X0006417Y0030953D01*
X0006392Y0031037D01*
X0006370Y0031123D01*
X0006353Y0031209D01*
X0006339Y0031297D01*
X0006329Y0031385D01*
X0006323Y0031473D01*
X0006321Y0031561D01*
X0004352Y0047309D02*
X0004354Y0047397D01*
X0004360Y0047485D01*
X0004370Y0047573D01*
X0004384Y0047661D01*
X0004401Y0047747D01*
X0004423Y0047833D01*
X0004448Y0047917D01*
X0004478Y0048001D01*
X0004510Y0048083D01*
X0004547Y0048163D01*
X0004587Y0048242D01*
X0004631Y0048319D01*
X0004678Y0048394D01*
X0004728Y0048466D01*
X0004782Y0048537D01*
X0004838Y0048604D01*
X0004898Y0048670D01*
X0004960Y0048732D01*
X0005026Y0048792D01*
X0005093Y0048848D01*
X0005164Y0048902D01*
X0005236Y0048952D01*
X0005311Y0048999D01*
X0005388Y0049043D01*
X0005467Y0049083D01*
X0005547Y0049120D01*
X0005629Y0049152D01*
X0005713Y0049182D01*
X0005797Y0049207D01*
X0005883Y0049229D01*
X0005969Y0049246D01*
X0006057Y0049260D01*
X0006145Y0049270D01*
X0006233Y0049276D01*
X0006321Y0049278D01*
X0006409Y0049276D01*
X0006497Y0049270D01*
X0006585Y0049260D01*
X0006673Y0049246D01*
X0006759Y0049229D01*
X0006845Y0049207D01*
X0006929Y0049182D01*
X0007013Y0049152D01*
X0007095Y0049120D01*
X0007175Y0049083D01*
X0007254Y0049043D01*
X0007331Y0048999D01*
X0007406Y0048952D01*
X0007478Y0048902D01*
X0007549Y0048848D01*
X0007616Y0048792D01*
X0007682Y0048732D01*
X0007744Y0048670D01*
X0007804Y0048604D01*
X0007860Y0048537D01*
X0007914Y0048466D01*
X0007964Y0048394D01*
X0008011Y0048319D01*
X0008055Y0048242D01*
X0008095Y0048163D01*
X0008132Y0048083D01*
X0008164Y0048001D01*
X0008194Y0047917D01*
X0008219Y0047833D01*
X0008241Y0047747D01*
X0008258Y0047661D01*
X0008272Y0047573D01*
X0008282Y0047485D01*
X0008288Y0047397D01*
X0008290Y0047309D01*
X0008288Y0047221D01*
X0008282Y0047133D01*
X0008272Y0047045D01*
X0008258Y0046957D01*
X0008241Y0046871D01*
X0008219Y0046785D01*
X0008194Y0046701D01*
X0008164Y0046617D01*
X0008132Y0046535D01*
X0008095Y0046455D01*
X0008055Y0046376D01*
X0008011Y0046299D01*
X0007964Y0046224D01*
X0007914Y0046152D01*
X0007860Y0046081D01*
X0007804Y0046014D01*
X0007744Y0045948D01*
X0007682Y0045886D01*
X0007616Y0045826D01*
X0007549Y0045770D01*
X0007478Y0045716D01*
X0007406Y0045666D01*
X0007331Y0045619D01*
X0007254Y0045575D01*
X0007175Y0045535D01*
X0007095Y0045498D01*
X0007013Y0045466D01*
X0006929Y0045436D01*
X0006845Y0045411D01*
X0006759Y0045389D01*
X0006673Y0045372D01*
X0006585Y0045358D01*
X0006497Y0045348D01*
X0006409Y0045342D01*
X0006321Y0045340D01*
X0006233Y0045342D01*
X0006145Y0045348D01*
X0006057Y0045358D01*
X0005969Y0045372D01*
X0005883Y0045389D01*
X0005797Y0045411D01*
X0005713Y0045436D01*
X0005629Y0045466D01*
X0005547Y0045498D01*
X0005467Y0045535D01*
X0005388Y0045575D01*
X0005311Y0045619D01*
X0005236Y0045666D01*
X0005164Y0045716D01*
X0005093Y0045770D01*
X0005026Y0045826D01*
X0004960Y0045886D01*
X0004898Y0045948D01*
X0004838Y0046014D01*
X0004782Y0046081D01*
X0004728Y0046152D01*
X0004678Y0046224D01*
X0004631Y0046299D01*
X0004587Y0046376D01*
X0004547Y0046455D01*
X0004510Y0046535D01*
X0004478Y0046617D01*
X0004448Y0046701D01*
X0004423Y0046785D01*
X0004401Y0046871D01*
X0004384Y0046957D01*
X0004370Y0047045D01*
X0004360Y0047133D01*
X0004354Y0047221D01*
X0004352Y0047309D01*
X0004352Y0070931D02*
X0004354Y0071019D01*
X0004360Y0071107D01*
X0004370Y0071195D01*
X0004384Y0071283D01*
X0004401Y0071369D01*
X0004423Y0071455D01*
X0004448Y0071539D01*
X0004478Y0071623D01*
X0004510Y0071705D01*
X0004547Y0071785D01*
X0004587Y0071864D01*
X0004631Y0071941D01*
X0004678Y0072016D01*
X0004728Y0072088D01*
X0004782Y0072159D01*
X0004838Y0072226D01*
X0004898Y0072292D01*
X0004960Y0072354D01*
X0005026Y0072414D01*
X0005093Y0072470D01*
X0005164Y0072524D01*
X0005236Y0072574D01*
X0005311Y0072621D01*
X0005388Y0072665D01*
X0005467Y0072705D01*
X0005547Y0072742D01*
X0005629Y0072774D01*
X0005713Y0072804D01*
X0005797Y0072829D01*
X0005883Y0072851D01*
X0005969Y0072868D01*
X0006057Y0072882D01*
X0006145Y0072892D01*
X0006233Y0072898D01*
X0006321Y0072900D01*
X0006409Y0072898D01*
X0006497Y0072892D01*
X0006585Y0072882D01*
X0006673Y0072868D01*
X0006759Y0072851D01*
X0006845Y0072829D01*
X0006929Y0072804D01*
X0007013Y0072774D01*
X0007095Y0072742D01*
X0007175Y0072705D01*
X0007254Y0072665D01*
X0007331Y0072621D01*
X0007406Y0072574D01*
X0007478Y0072524D01*
X0007549Y0072470D01*
X0007616Y0072414D01*
X0007682Y0072354D01*
X0007744Y0072292D01*
X0007804Y0072226D01*
X0007860Y0072159D01*
X0007914Y0072088D01*
X0007964Y0072016D01*
X0008011Y0071941D01*
X0008055Y0071864D01*
X0008095Y0071785D01*
X0008132Y0071705D01*
X0008164Y0071623D01*
X0008194Y0071539D01*
X0008219Y0071455D01*
X0008241Y0071369D01*
X0008258Y0071283D01*
X0008272Y0071195D01*
X0008282Y0071107D01*
X0008288Y0071019D01*
X0008290Y0070931D01*
X0008288Y0070843D01*
X0008282Y0070755D01*
X0008272Y0070667D01*
X0008258Y0070579D01*
X0008241Y0070493D01*
X0008219Y0070407D01*
X0008194Y0070323D01*
X0008164Y0070239D01*
X0008132Y0070157D01*
X0008095Y0070077D01*
X0008055Y0069998D01*
X0008011Y0069921D01*
X0007964Y0069846D01*
X0007914Y0069774D01*
X0007860Y0069703D01*
X0007804Y0069636D01*
X0007744Y0069570D01*
X0007682Y0069508D01*
X0007616Y0069448D01*
X0007549Y0069392D01*
X0007478Y0069338D01*
X0007406Y0069288D01*
X0007331Y0069241D01*
X0007254Y0069197D01*
X0007175Y0069157D01*
X0007095Y0069120D01*
X0007013Y0069088D01*
X0006929Y0069058D01*
X0006845Y0069033D01*
X0006759Y0069011D01*
X0006673Y0068994D01*
X0006585Y0068980D01*
X0006497Y0068970D01*
X0006409Y0068964D01*
X0006321Y0068962D01*
X0006233Y0068964D01*
X0006145Y0068970D01*
X0006057Y0068980D01*
X0005969Y0068994D01*
X0005883Y0069011D01*
X0005797Y0069033D01*
X0005713Y0069058D01*
X0005629Y0069088D01*
X0005547Y0069120D01*
X0005467Y0069157D01*
X0005388Y0069197D01*
X0005311Y0069241D01*
X0005236Y0069288D01*
X0005164Y0069338D01*
X0005093Y0069392D01*
X0005026Y0069448D01*
X0004960Y0069508D01*
X0004898Y0069570D01*
X0004838Y0069636D01*
X0004782Y0069703D01*
X0004728Y0069774D01*
X0004678Y0069846D01*
X0004631Y0069921D01*
X0004587Y0069998D01*
X0004547Y0070077D01*
X0004510Y0070157D01*
X0004478Y0070239D01*
X0004448Y0070323D01*
X0004423Y0070407D01*
X0004401Y0070493D01*
X0004384Y0070579D01*
X0004370Y0070667D01*
X0004360Y0070755D01*
X0004354Y0070843D01*
X0004352Y0070931D01*
X0006321Y0086679D02*
X0006323Y0086767D01*
X0006329Y0086855D01*
X0006339Y0086943D01*
X0006353Y0087031D01*
X0006370Y0087117D01*
X0006392Y0087203D01*
X0006417Y0087287D01*
X0006447Y0087371D01*
X0006479Y0087453D01*
X0006516Y0087533D01*
X0006556Y0087612D01*
X0006600Y0087689D01*
X0006647Y0087764D01*
X0006697Y0087836D01*
X0006751Y0087907D01*
X0006807Y0087974D01*
X0006867Y0088040D01*
X0006929Y0088102D01*
X0006995Y0088162D01*
X0007062Y0088218D01*
X0007133Y0088272D01*
X0007205Y0088322D01*
X0007280Y0088369D01*
X0007357Y0088413D01*
X0007436Y0088453D01*
X0007516Y0088490D01*
X0007598Y0088522D01*
X0007682Y0088552D01*
X0007766Y0088577D01*
X0007852Y0088599D01*
X0007938Y0088616D01*
X0008026Y0088630D01*
X0008114Y0088640D01*
X0008202Y0088646D01*
X0008290Y0088648D01*
X0008378Y0088646D01*
X0008466Y0088640D01*
X0008554Y0088630D01*
X0008642Y0088616D01*
X0008728Y0088599D01*
X0008814Y0088577D01*
X0008898Y0088552D01*
X0008982Y0088522D01*
X0009064Y0088490D01*
X0009144Y0088453D01*
X0009223Y0088413D01*
X0009300Y0088369D01*
X0009375Y0088322D01*
X0009447Y0088272D01*
X0009518Y0088218D01*
X0009585Y0088162D01*
X0009651Y0088102D01*
X0009713Y0088040D01*
X0009773Y0087974D01*
X0009829Y0087907D01*
X0009883Y0087836D01*
X0009933Y0087764D01*
X0009980Y0087689D01*
X0010024Y0087612D01*
X0010064Y0087533D01*
X0010101Y0087453D01*
X0010133Y0087371D01*
X0010163Y0087287D01*
X0010188Y0087203D01*
X0010210Y0087117D01*
X0010227Y0087031D01*
X0010241Y0086943D01*
X0010251Y0086855D01*
X0010257Y0086767D01*
X0010259Y0086679D01*
X0010257Y0086591D01*
X0010251Y0086503D01*
X0010241Y0086415D01*
X0010227Y0086327D01*
X0010210Y0086241D01*
X0010188Y0086155D01*
X0010163Y0086071D01*
X0010133Y0085987D01*
X0010101Y0085905D01*
X0010064Y0085825D01*
X0010024Y0085746D01*
X0009980Y0085669D01*
X0009933Y0085594D01*
X0009883Y0085522D01*
X0009829Y0085451D01*
X0009773Y0085384D01*
X0009713Y0085318D01*
X0009651Y0085256D01*
X0009585Y0085196D01*
X0009518Y0085140D01*
X0009447Y0085086D01*
X0009375Y0085036D01*
X0009300Y0084989D01*
X0009223Y0084945D01*
X0009144Y0084905D01*
X0009064Y0084868D01*
X0008982Y0084836D01*
X0008898Y0084806D01*
X0008814Y0084781D01*
X0008728Y0084759D01*
X0008642Y0084742D01*
X0008554Y0084728D01*
X0008466Y0084718D01*
X0008378Y0084712D01*
X0008290Y0084710D01*
X0008202Y0084712D01*
X0008114Y0084718D01*
X0008026Y0084728D01*
X0007938Y0084742D01*
X0007852Y0084759D01*
X0007766Y0084781D01*
X0007682Y0084806D01*
X0007598Y0084836D01*
X0007516Y0084868D01*
X0007436Y0084905D01*
X0007357Y0084945D01*
X0007280Y0084989D01*
X0007205Y0085036D01*
X0007133Y0085086D01*
X0007062Y0085140D01*
X0006995Y0085196D01*
X0006929Y0085256D01*
X0006867Y0085318D01*
X0006807Y0085384D01*
X0006751Y0085451D01*
X0006697Y0085522D01*
X0006647Y0085594D01*
X0006600Y0085669D01*
X0006556Y0085746D01*
X0006516Y0085825D01*
X0006479Y0085905D01*
X0006447Y0085987D01*
X0006417Y0086071D01*
X0006392Y0086155D01*
X0006370Y0086241D01*
X0006353Y0086327D01*
X0006339Y0086415D01*
X0006329Y0086503D01*
X0006323Y0086591D01*
X0006321Y0086679D01*
D12*
X0014195Y0065026D02*
X0029943Y0080774D01*
X0029943Y0088648D01*
X0031912Y0090616D01*
X0248447Y0090616D01*
X0250416Y0088648D01*
X0250416Y0086679D01*
X0248447Y0084711D01*
X0242542Y0084711D01*
X0240573Y0082742D01*
X0240573Y0080774D01*
X0242542Y0078805D01*
X0246282Y0078805D01*
X0246479Y0078608D01*
X0248447Y0080577D01*
X0246479Y0080774D02*
X0246479Y0078608D01*
X0251439Y0078608D01*
X0266164Y0063884D01*
X0246479Y0062860D02*
X0246479Y0066994D01*
X0246479Y0071128D01*
X0232699Y0071522D02*
X0232699Y0062467D01*
X0230140Y0065026D01*
X0228762Y0065026D01*
X0238605Y0063254D02*
X0246479Y0055380D01*
X0243723Y0054199D01*
X0266164Y0054199D01*
X0238605Y0049278D02*
X0237620Y0048293D01*
X0232699Y0053215D01*
X0232699Y0055774D01*
X0221849Y0055774D02*
X0219628Y0057994D01*
X0238605Y0063254D02*
X0238605Y0086679D01*
X0237620Y0087663D01*
X0236636Y0088648D01*
X0033880Y0088648D01*
X0031912Y0086679D01*
X0031912Y0078805D01*
X0020101Y0066994D01*
X0020101Y0059120D01*
X0015180Y0054199D01*
X0014195Y0054199D01*
X0014195Y0063884D02*
X0014195Y0065026D01*
X0049628Y0065026D02*
X0049628Y0076089D01*
X0054313Y0080774D01*
X0064313Y0080774D02*
X0065376Y0068372D01*
X0053369Y0061286D02*
X0049628Y0065026D01*
X0053369Y0061286D02*
X0055534Y0061286D01*
X0065376Y0053805D01*
X0057502Y0053215D01*
X0091542Y0045750D02*
X0095313Y0045750D01*
X0098841Y0049278D01*
X0108319Y0049278D01*
X0109471Y0048126D01*
X0112620Y0048126D02*
X0112620Y0043372D01*
X0106306Y0037057D01*
X0102203Y0037057D01*
X0100235Y0045750D02*
X0091542Y0037057D01*
X0067817Y0036955D01*
X0063408Y0036955D01*
X0057502Y0031049D01*
X0059471Y0027624D02*
X0061439Y0025656D01*
X0059471Y0027624D02*
X0039786Y0027624D01*
X0037817Y0025656D01*
X0100235Y0045750D02*
X0102203Y0045750D01*
X0136243Y0049278D02*
X0138211Y0047309D01*
X0143132Y0042388D01*
X0144117Y0043372D01*
X0171479Y0043372D01*
X0171479Y0055577D01*
X0171676Y0055774D01*
X0171676Y0053215D01*
X0171676Y0062467D02*
X0163802Y0062467D01*
X0163802Y0071522D01*
X0186833Y0062467D02*
X0188408Y0064041D01*
X0191361Y0066994D01*
X0186833Y0062467D02*
X0171676Y0062467D01*
X0203172Y0049278D02*
X0203172Y0047112D01*
X0206912Y0043372D01*
X0211046Y0039238D01*
X0211046Y0039435D01*
X0214983Y0043372D01*
X0242542Y0043372D01*
X0237620Y0048293D01*
X0242542Y0043372D02*
X0242542Y0043175D01*
X0246479Y0039238D01*
X0246479Y0031758D02*
X0245770Y0031049D01*
X0236636Y0031049D01*
X0238605Y0027624D02*
X0240573Y0025656D01*
X0238605Y0027624D02*
X0218920Y0027624D01*
X0216951Y0025656D01*
X0205140Y0025656D02*
X0203172Y0027624D01*
X0183487Y0027624D01*
X0181518Y0025656D01*
X0169707Y0025656D02*
X0167739Y0027624D01*
X0148054Y0027624D01*
X0146085Y0025656D01*
X0140180Y0031758D02*
X0139471Y0031049D01*
X0130337Y0031049D01*
X0132306Y0027624D02*
X0134274Y0025656D01*
X0132306Y0027624D02*
X0112620Y0027624D01*
X0110652Y0025656D01*
X0140180Y0039238D02*
X0140180Y0039435D01*
X0143132Y0042388D01*
X0171479Y0043372D02*
X0175613Y0039238D01*
X0175613Y0039435D01*
X0179550Y0043372D01*
X0206912Y0043372D01*
X0211046Y0031758D02*
X0210337Y0031049D01*
X0201203Y0031049D01*
X0175613Y0031758D02*
X0174904Y0031049D01*
X0165770Y0031049D01*
X0103594Y0072900D02*
X0090967Y0072900D01*
X0084313Y0079553D01*
X0084313Y0080774D01*
X0094313Y0080774D02*
X0098870Y0080774D01*
X0103594Y0076049D01*
X0230479Y0075994D02*
X0232699Y0078215D01*
D13*
X0219628Y0075994D03*
X0219628Y0057994D03*
D14*
X0191361Y0066994D03*
D15*
X0171676Y0062467D03*
X0163802Y0062467D03*
X0163802Y0055774D03*
X0171676Y0055774D03*
X0163802Y0071522D03*
X0163802Y0078215D03*
X0232699Y0078215D03*
X0232699Y0071522D03*
X0232699Y0062467D03*
X0232699Y0055774D03*
D16*
X0236636Y0031049D03*
X0220888Y0031049D03*
X0201203Y0031049D03*
X0185455Y0031049D03*
X0165770Y0031049D03*
X0150022Y0031049D03*
X0130337Y0031049D03*
X0114589Y0031049D03*
X0057502Y0031049D03*
X0041754Y0031049D03*
D17*
X0049628Y0033530D03*
X0122463Y0033530D03*
X0157896Y0033530D03*
X0193329Y0033530D03*
X0228762Y0033530D03*
D18*
X0228762Y0028608D03*
X0193329Y0028608D03*
X0157896Y0028608D03*
X0122463Y0028608D03*
X0049628Y0028608D03*
D19*
X0140180Y0031758D03*
X0140180Y0039238D03*
X0175613Y0039238D03*
X0175613Y0031758D03*
X0211046Y0031758D03*
X0211046Y0039238D03*
X0246479Y0039238D03*
X0246479Y0031758D03*
X0246479Y0055380D03*
X0246479Y0062860D03*
X0246479Y0071128D03*
X0246479Y0078608D03*
X0055534Y0068766D03*
X0055534Y0061286D03*
D20*
X0109471Y0048126D03*
X0112620Y0048126D03*
X0115770Y0048126D03*
X0118920Y0048126D03*
X0122069Y0048126D03*
X0125219Y0048126D03*
X0128369Y0048126D03*
X0131518Y0048126D03*
X0131518Y0081926D03*
X0128369Y0081926D03*
X0125219Y0081926D03*
X0122069Y0081926D03*
X0118920Y0081926D03*
X0115770Y0081926D03*
X0112620Y0081926D03*
X0109471Y0081926D03*
D21*
X0103594Y0076049D03*
X0103594Y0072900D03*
X0103594Y0069750D03*
X0103594Y0066600D03*
X0103594Y0063451D03*
X0103594Y0060301D03*
X0103594Y0057152D03*
X0103594Y0054002D03*
X0137394Y0054002D03*
X0137394Y0057152D03*
X0137394Y0060301D03*
X0137394Y0063451D03*
X0137394Y0066600D03*
X0137394Y0069750D03*
X0137394Y0072900D03*
X0137394Y0076049D03*
D22*
X0065376Y0068372D03*
X0065376Y0053805D03*
D23*
X0014195Y0054199D03*
X0014195Y0063884D03*
X0014195Y0073884D03*
X0014195Y0044199D03*
X0266164Y0044199D03*
X0266164Y0054199D03*
X0266164Y0063884D03*
X0266164Y0073884D03*
D24*
X0103346Y0044843D02*
X0101060Y0044843D01*
X0101060Y0046657D01*
X0103346Y0046657D01*
X0103346Y0044843D01*
X0092685Y0044843D02*
X0090399Y0044843D01*
X0090399Y0046657D01*
X0092685Y0046657D01*
X0092685Y0044843D01*
X0092685Y0036150D02*
X0090399Y0036150D01*
X0090399Y0037964D01*
X0092685Y0037964D01*
X0092685Y0036150D01*
X0101060Y0036150D02*
X0103346Y0036150D01*
X0101060Y0036150D02*
X0101060Y0037964D01*
X0103346Y0037964D01*
X0103346Y0036150D01*
D25*
X0031912Y0053608D03*
X0031912Y0064632D03*
D26*
X0044313Y0077774D02*
X0044313Y0083774D01*
X0054313Y0083774D02*
X0054313Y0077774D01*
X0064313Y0077774D02*
X0064313Y0083774D01*
X0074313Y0083774D02*
X0074313Y0077774D01*
X0084313Y0077774D02*
X0084313Y0083774D01*
X0094313Y0083774D02*
X0094313Y0077774D01*
D27*
X0120494Y0072900D03*
X0148054Y0068963D03*
X0116557Y0057152D03*
X0136243Y0049278D03*
X0171676Y0053215D03*
X0203172Y0049278D03*
X0238605Y0049278D03*
X0228762Y0065026D03*
X0203172Y0070931D03*
X0185455Y0065026D03*
X0232699Y0082742D03*
X0057502Y0053215D03*
X0033880Y0065026D03*
D28*
X0055534Y0068766D02*
X0055534Y0068963D01*
X0065376Y0068963D01*
X0065376Y0068372D01*
X0065376Y0067978D01*
X0068329Y0067978D01*
X0087030Y0049278D01*
X0115770Y0048126D02*
X0116557Y0047338D01*
X0116557Y0045341D01*
X0118526Y0043372D01*
X0120494Y0043372D01*
X0122069Y0044947D01*
X0122069Y0048126D01*
X0118920Y0048126D02*
X0118526Y0048519D01*
X0118526Y0055183D01*
X0116557Y0057152D01*
X0118526Y0055183D02*
X0124431Y0055183D01*
X0125219Y0054396D01*
X0125219Y0048126D01*
X0137394Y0054002D02*
X0138211Y0053215D01*
X0141164Y0050262D01*
X0140180Y0066994D02*
X0159865Y0047309D01*
X0167739Y0047309D01*
X0147069Y0037467D02*
X0142148Y0032545D01*
X0140180Y0032545D01*
X0140180Y0031758D01*
X0167739Y0036482D02*
X0172660Y0031561D01*
X0175613Y0031758D01*
X0211046Y0031758D02*
X0211046Y0032545D01*
X0213014Y0032545D01*
X0217935Y0037467D01*
X0210061Y0045341D02*
X0210061Y0076837D01*
X0201203Y0085695D01*
X0135258Y0085695D01*
X0132306Y0082742D01*
X0131518Y0081926D01*
X0128369Y0081926D02*
X0128369Y0075852D01*
X0129353Y0075852D01*
X0133290Y0077821D02*
X0138211Y0082742D01*
X0177581Y0082742D01*
X0178565Y0081758D01*
X0163802Y0078805D02*
X0163802Y0078215D01*
X0163802Y0078805D02*
X0157896Y0078805D01*
X0151006Y0072900D02*
X0148054Y0075852D01*
X0138211Y0075852D01*
X0137394Y0076049D01*
X0133290Y0077821D02*
X0133290Y0070931D01*
X0134274Y0069947D01*
X0137227Y0069947D01*
X0137394Y0069750D01*
X0140180Y0072900D02*
X0144117Y0068963D01*
X0144117Y0066010D01*
X0146085Y0066010D01*
X0152975Y0059120D01*
X0137394Y0063451D02*
X0137227Y0063057D01*
X0126400Y0063057D01*
X0137394Y0066600D02*
X0138211Y0066994D01*
X0140180Y0066994D01*
X0148054Y0068963D02*
X0161243Y0068963D01*
X0163802Y0071522D01*
X0185455Y0065026D02*
X0187424Y0065026D01*
X0188408Y0064041D01*
X0191361Y0066994D02*
X0195298Y0070931D01*
X0203172Y0070931D01*
X0206124Y0075852D02*
X0207109Y0075852D01*
X0207109Y0056167D01*
X0204156Y0053215D01*
X0202187Y0053215D01*
X0197266Y0048293D01*
X0238605Y0036482D02*
X0243526Y0031561D01*
X0246479Y0031758D01*
X0140180Y0072900D02*
X0137394Y0072900D01*
X0122463Y0074868D02*
X0122463Y0081532D01*
X0122069Y0081926D01*
X0118920Y0081926D02*
X0118526Y0081758D01*
X0118526Y0075852D01*
X0116557Y0075852D01*
X0120494Y0072900D02*
X0122463Y0074868D01*
X0109471Y0081926D02*
X0108683Y0081758D01*
X0104746Y0081758D01*
X0212030Y0081758D02*
X0217935Y0087663D01*
X0237620Y0087663D01*
D29*
X0232699Y0082742D02*
X0232699Y0078215D01*
X0232109Y0078805D01*
X0226794Y0078805D01*
X0223983Y0075994D01*
X0219628Y0075994D01*
X0221849Y0055774D02*
X0232699Y0055774D01*
X0055534Y0061286D02*
X0053369Y0059120D01*
X0039786Y0059120D01*
X0034274Y0053608D01*
X0031912Y0053608D01*
X0031912Y0064632D02*
X0033487Y0064632D01*
X0033880Y0065026D01*
D30*
X0065376Y0053805D02*
X0065376Y0053215D01*
X0077187Y0041404D01*
X0088014Y0041404D01*
X0063408Y0043372D02*
X0063408Y0036955D01*
X0063408Y0043372D02*
X0014195Y0043372D01*
X0014195Y0044199D01*
X0112620Y0053215D02*
X0114589Y0053215D01*
X0115573Y0052230D01*
X0115573Y0048293D01*
X0115770Y0048126D01*
X0118526Y0043372D02*
X0116557Y0041404D01*
X0120494Y0043372D02*
X0134274Y0043372D01*
X0138211Y0047309D01*
X0112620Y0053215D02*
X0112620Y0081926D01*
X0163802Y0056167D02*
X0163802Y0055774D01*
X0163802Y0056167D02*
X0171676Y0056167D01*
X0171676Y0055774D01*
X0219628Y0057994D02*
X0224825Y0056167D01*
X0224825Y0066010D01*
X0226794Y0067978D01*
X0226794Y0069947D01*
X0246479Y0066994D02*
X0252384Y0066994D01*
D31*
X0252384Y0066994D03*
X0226794Y0069947D03*
X0206124Y0075852D03*
X0212030Y0081758D03*
X0178565Y0081758D03*
X0157896Y0078805D03*
X0151006Y0072900D03*
X0129353Y0075852D03*
X0116557Y0075852D03*
X0104746Y0081758D03*
X0126400Y0063057D03*
X0152975Y0059120D03*
X0141164Y0050262D03*
X0116557Y0041404D03*
X0088014Y0041404D03*
X0087030Y0049278D03*
X0147069Y0037467D03*
X0167739Y0036482D03*
X0167739Y0047309D03*
X0197266Y0048293D03*
X0210061Y0045341D03*
X0217935Y0037467D03*
X0238605Y0036482D03*
M02*
