G75*
%MOIN*%
%OFA0B0*%
%FSLAX25Y25*%
%IPPOS*%
%LPD*%
%AMOC8*
5,1,8,0,0,1.08239X$1,22.5*
%
%ADD10C,0.01600*%
%ADD11C,0.00000*%
%ADD12C,0.01200*%
%ADD13C,0.00500*%
%ADD14C,0.01000*%
%ADD15C,0.00600*%
%ADD16C,0.00400*%
%ADD17C,0.00800*%
D10*
X0008290Y0025656D02*
X0014195Y0025656D01*
X0014195Y0033530D01*
X0026006Y0033530D01*
X0026006Y0025656D01*
X0037817Y0025656D01*
X0061439Y0025656D02*
X0110652Y0025656D01*
X0134274Y0025656D02*
X0146085Y0025656D01*
X0169707Y0025656D02*
X0181518Y0025656D01*
X0205140Y0025656D02*
X0216951Y0025656D01*
X0240573Y0025656D02*
X0254353Y0025656D01*
X0254353Y0033530D01*
X0266164Y0033530D01*
X0266164Y0025656D01*
X0272069Y0025656D01*
X0272069Y0025655D02*
X0272221Y0025657D01*
X0272373Y0025663D01*
X0272525Y0025673D01*
X0272676Y0025686D01*
X0272827Y0025704D01*
X0272978Y0025725D01*
X0273128Y0025751D01*
X0273277Y0025780D01*
X0273426Y0025813D01*
X0273573Y0025850D01*
X0273720Y0025890D01*
X0273865Y0025935D01*
X0274009Y0025983D01*
X0274152Y0026035D01*
X0274294Y0026090D01*
X0274434Y0026149D01*
X0274573Y0026212D01*
X0274710Y0026278D01*
X0274845Y0026348D01*
X0274978Y0026421D01*
X0275109Y0026498D01*
X0275239Y0026578D01*
X0275366Y0026661D01*
X0275491Y0026747D01*
X0275614Y0026837D01*
X0275734Y0026930D01*
X0275852Y0027026D01*
X0275968Y0027125D01*
X0276081Y0027227D01*
X0276191Y0027331D01*
X0276299Y0027439D01*
X0276403Y0027549D01*
X0276505Y0027662D01*
X0276604Y0027778D01*
X0276700Y0027896D01*
X0276793Y0028016D01*
X0276883Y0028139D01*
X0276969Y0028264D01*
X0277052Y0028391D01*
X0277132Y0028521D01*
X0277209Y0028652D01*
X0277282Y0028785D01*
X0277352Y0028920D01*
X0277418Y0029057D01*
X0277481Y0029196D01*
X0277540Y0029336D01*
X0277595Y0029478D01*
X0277647Y0029621D01*
X0277695Y0029765D01*
X0277740Y0029910D01*
X0277780Y0030057D01*
X0277817Y0030204D01*
X0277850Y0030353D01*
X0277879Y0030502D01*
X0277905Y0030652D01*
X0277926Y0030803D01*
X0277944Y0030954D01*
X0277957Y0031105D01*
X0277967Y0031257D01*
X0277973Y0031409D01*
X0277975Y0031561D01*
X0277975Y0086679D01*
X0277973Y0086831D01*
X0277967Y0086983D01*
X0277957Y0087135D01*
X0277944Y0087286D01*
X0277926Y0087437D01*
X0277905Y0087588D01*
X0277879Y0087738D01*
X0277850Y0087887D01*
X0277817Y0088036D01*
X0277780Y0088183D01*
X0277740Y0088330D01*
X0277695Y0088475D01*
X0277647Y0088619D01*
X0277595Y0088762D01*
X0277540Y0088904D01*
X0277481Y0089044D01*
X0277418Y0089183D01*
X0277352Y0089320D01*
X0277282Y0089455D01*
X0277209Y0089588D01*
X0277132Y0089719D01*
X0277052Y0089849D01*
X0276969Y0089976D01*
X0276883Y0090101D01*
X0276793Y0090224D01*
X0276700Y0090344D01*
X0276604Y0090462D01*
X0276505Y0090578D01*
X0276403Y0090691D01*
X0276299Y0090801D01*
X0276191Y0090909D01*
X0276081Y0091013D01*
X0275968Y0091115D01*
X0275852Y0091214D01*
X0275734Y0091310D01*
X0275614Y0091403D01*
X0275491Y0091493D01*
X0275366Y0091579D01*
X0275239Y0091662D01*
X0275109Y0091742D01*
X0274978Y0091819D01*
X0274845Y0091892D01*
X0274710Y0091962D01*
X0274573Y0092028D01*
X0274434Y0092091D01*
X0274294Y0092150D01*
X0274152Y0092205D01*
X0274009Y0092257D01*
X0273865Y0092305D01*
X0273720Y0092350D01*
X0273573Y0092390D01*
X0273426Y0092427D01*
X0273277Y0092460D01*
X0273128Y0092489D01*
X0272978Y0092515D01*
X0272827Y0092536D01*
X0272676Y0092554D01*
X0272525Y0092567D01*
X0272373Y0092577D01*
X0272221Y0092583D01*
X0272069Y0092585D01*
X0266164Y0092585D01*
X0266164Y0084711D01*
X0254353Y0084711D01*
X0254353Y0092585D01*
X0026006Y0092585D01*
X0026006Y0084711D01*
X0014195Y0084711D01*
X0014195Y0092585D01*
X0008290Y0092585D01*
X0008138Y0092583D01*
X0007986Y0092577D01*
X0007834Y0092567D01*
X0007683Y0092554D01*
X0007532Y0092536D01*
X0007381Y0092515D01*
X0007231Y0092489D01*
X0007082Y0092460D01*
X0006933Y0092427D01*
X0006786Y0092390D01*
X0006639Y0092350D01*
X0006494Y0092305D01*
X0006350Y0092257D01*
X0006207Y0092205D01*
X0006065Y0092150D01*
X0005925Y0092091D01*
X0005786Y0092028D01*
X0005649Y0091962D01*
X0005514Y0091892D01*
X0005381Y0091819D01*
X0005250Y0091742D01*
X0005120Y0091662D01*
X0004993Y0091579D01*
X0004868Y0091493D01*
X0004745Y0091403D01*
X0004625Y0091310D01*
X0004507Y0091214D01*
X0004391Y0091115D01*
X0004278Y0091013D01*
X0004168Y0090909D01*
X0004060Y0090801D01*
X0003956Y0090691D01*
X0003854Y0090578D01*
X0003755Y0090462D01*
X0003659Y0090344D01*
X0003566Y0090224D01*
X0003476Y0090101D01*
X0003390Y0089976D01*
X0003307Y0089849D01*
X0003227Y0089719D01*
X0003150Y0089588D01*
X0003077Y0089455D01*
X0003007Y0089320D01*
X0002941Y0089183D01*
X0002878Y0089044D01*
X0002819Y0088904D01*
X0002764Y0088762D01*
X0002712Y0088619D01*
X0002664Y0088475D01*
X0002619Y0088330D01*
X0002579Y0088183D01*
X0002542Y0088036D01*
X0002509Y0087887D01*
X0002480Y0087738D01*
X0002454Y0087588D01*
X0002433Y0087437D01*
X0002415Y0087286D01*
X0002402Y0087135D01*
X0002392Y0086983D01*
X0002386Y0086831D01*
X0002384Y0086679D01*
X0002384Y0031561D01*
X0002386Y0031409D01*
X0002392Y0031257D01*
X0002402Y0031105D01*
X0002415Y0030954D01*
X0002433Y0030803D01*
X0002454Y0030652D01*
X0002480Y0030502D01*
X0002509Y0030353D01*
X0002542Y0030204D01*
X0002579Y0030057D01*
X0002619Y0029910D01*
X0002664Y0029765D01*
X0002712Y0029621D01*
X0002764Y0029478D01*
X0002819Y0029336D01*
X0002878Y0029196D01*
X0002941Y0029057D01*
X0003007Y0028920D01*
X0003077Y0028785D01*
X0003150Y0028652D01*
X0003227Y0028521D01*
X0003307Y0028391D01*
X0003390Y0028264D01*
X0003476Y0028139D01*
X0003566Y0028016D01*
X0003659Y0027896D01*
X0003755Y0027778D01*
X0003854Y0027662D01*
X0003956Y0027549D01*
X0004060Y0027439D01*
X0004168Y0027331D01*
X0004278Y0027227D01*
X0004391Y0027125D01*
X0004507Y0027026D01*
X0004625Y0026930D01*
X0004745Y0026837D01*
X0004868Y0026747D01*
X0004993Y0026661D01*
X0005120Y0026578D01*
X0005250Y0026498D01*
X0005381Y0026421D01*
X0005514Y0026348D01*
X0005649Y0026278D01*
X0005786Y0026212D01*
X0005925Y0026149D01*
X0006065Y0026090D01*
X0006207Y0026035D01*
X0006350Y0025983D01*
X0006494Y0025935D01*
X0006639Y0025890D01*
X0006786Y0025850D01*
X0006933Y0025813D01*
X0007082Y0025780D01*
X0007231Y0025751D01*
X0007381Y0025725D01*
X0007532Y0025704D01*
X0007683Y0025686D01*
X0007834Y0025673D01*
X0007986Y0025663D01*
X0008138Y0025657D01*
X0008290Y0025655D01*
X0226794Y0072900D02*
X0226794Y0080774D01*
X0232699Y0080774D01*
X0236636Y0084711D01*
X0236636Y0088648D01*
X0250416Y0088648D01*
X0250416Y0072900D01*
X0226794Y0072900D01*
D11*
X0272069Y0070931D02*
X0272071Y0071019D01*
X0272077Y0071107D01*
X0272087Y0071195D01*
X0272101Y0071283D01*
X0272118Y0071369D01*
X0272140Y0071455D01*
X0272165Y0071539D01*
X0272195Y0071623D01*
X0272227Y0071705D01*
X0272264Y0071785D01*
X0272304Y0071864D01*
X0272348Y0071941D01*
X0272395Y0072016D01*
X0272445Y0072088D01*
X0272499Y0072159D01*
X0272555Y0072226D01*
X0272615Y0072292D01*
X0272677Y0072354D01*
X0272743Y0072414D01*
X0272810Y0072470D01*
X0272881Y0072524D01*
X0272953Y0072574D01*
X0273028Y0072621D01*
X0273105Y0072665D01*
X0273184Y0072705D01*
X0273264Y0072742D01*
X0273346Y0072774D01*
X0273430Y0072804D01*
X0273514Y0072829D01*
X0273600Y0072851D01*
X0273686Y0072868D01*
X0273774Y0072882D01*
X0273862Y0072892D01*
X0273950Y0072898D01*
X0274038Y0072900D01*
X0274126Y0072898D01*
X0274214Y0072892D01*
X0274302Y0072882D01*
X0274390Y0072868D01*
X0274476Y0072851D01*
X0274562Y0072829D01*
X0274646Y0072804D01*
X0274730Y0072774D01*
X0274812Y0072742D01*
X0274892Y0072705D01*
X0274971Y0072665D01*
X0275048Y0072621D01*
X0275123Y0072574D01*
X0275195Y0072524D01*
X0275266Y0072470D01*
X0275333Y0072414D01*
X0275399Y0072354D01*
X0275461Y0072292D01*
X0275521Y0072226D01*
X0275577Y0072159D01*
X0275631Y0072088D01*
X0275681Y0072016D01*
X0275728Y0071941D01*
X0275772Y0071864D01*
X0275812Y0071785D01*
X0275849Y0071705D01*
X0275881Y0071623D01*
X0275911Y0071539D01*
X0275936Y0071455D01*
X0275958Y0071369D01*
X0275975Y0071283D01*
X0275989Y0071195D01*
X0275999Y0071107D01*
X0276005Y0071019D01*
X0276007Y0070931D01*
X0276005Y0070843D01*
X0275999Y0070755D01*
X0275989Y0070667D01*
X0275975Y0070579D01*
X0275958Y0070493D01*
X0275936Y0070407D01*
X0275911Y0070323D01*
X0275881Y0070239D01*
X0275849Y0070157D01*
X0275812Y0070077D01*
X0275772Y0069998D01*
X0275728Y0069921D01*
X0275681Y0069846D01*
X0275631Y0069774D01*
X0275577Y0069703D01*
X0275521Y0069636D01*
X0275461Y0069570D01*
X0275399Y0069508D01*
X0275333Y0069448D01*
X0275266Y0069392D01*
X0275195Y0069338D01*
X0275123Y0069288D01*
X0275048Y0069241D01*
X0274971Y0069197D01*
X0274892Y0069157D01*
X0274812Y0069120D01*
X0274730Y0069088D01*
X0274646Y0069058D01*
X0274562Y0069033D01*
X0274476Y0069011D01*
X0274390Y0068994D01*
X0274302Y0068980D01*
X0274214Y0068970D01*
X0274126Y0068964D01*
X0274038Y0068962D01*
X0273950Y0068964D01*
X0273862Y0068970D01*
X0273774Y0068980D01*
X0273686Y0068994D01*
X0273600Y0069011D01*
X0273514Y0069033D01*
X0273430Y0069058D01*
X0273346Y0069088D01*
X0273264Y0069120D01*
X0273184Y0069157D01*
X0273105Y0069197D01*
X0273028Y0069241D01*
X0272953Y0069288D01*
X0272881Y0069338D01*
X0272810Y0069392D01*
X0272743Y0069448D01*
X0272677Y0069508D01*
X0272615Y0069570D01*
X0272555Y0069636D01*
X0272499Y0069703D01*
X0272445Y0069774D01*
X0272395Y0069846D01*
X0272348Y0069921D01*
X0272304Y0069998D01*
X0272264Y0070077D01*
X0272227Y0070157D01*
X0272195Y0070239D01*
X0272165Y0070323D01*
X0272140Y0070407D01*
X0272118Y0070493D01*
X0272101Y0070579D01*
X0272087Y0070667D01*
X0272077Y0070755D01*
X0272071Y0070843D01*
X0272069Y0070931D01*
X0270100Y0086679D02*
X0270102Y0086767D01*
X0270108Y0086855D01*
X0270118Y0086943D01*
X0270132Y0087031D01*
X0270149Y0087117D01*
X0270171Y0087203D01*
X0270196Y0087287D01*
X0270226Y0087371D01*
X0270258Y0087453D01*
X0270295Y0087533D01*
X0270335Y0087612D01*
X0270379Y0087689D01*
X0270426Y0087764D01*
X0270476Y0087836D01*
X0270530Y0087907D01*
X0270586Y0087974D01*
X0270646Y0088040D01*
X0270708Y0088102D01*
X0270774Y0088162D01*
X0270841Y0088218D01*
X0270912Y0088272D01*
X0270984Y0088322D01*
X0271059Y0088369D01*
X0271136Y0088413D01*
X0271215Y0088453D01*
X0271295Y0088490D01*
X0271377Y0088522D01*
X0271461Y0088552D01*
X0271545Y0088577D01*
X0271631Y0088599D01*
X0271717Y0088616D01*
X0271805Y0088630D01*
X0271893Y0088640D01*
X0271981Y0088646D01*
X0272069Y0088648D01*
X0272157Y0088646D01*
X0272245Y0088640D01*
X0272333Y0088630D01*
X0272421Y0088616D01*
X0272507Y0088599D01*
X0272593Y0088577D01*
X0272677Y0088552D01*
X0272761Y0088522D01*
X0272843Y0088490D01*
X0272923Y0088453D01*
X0273002Y0088413D01*
X0273079Y0088369D01*
X0273154Y0088322D01*
X0273226Y0088272D01*
X0273297Y0088218D01*
X0273364Y0088162D01*
X0273430Y0088102D01*
X0273492Y0088040D01*
X0273552Y0087974D01*
X0273608Y0087907D01*
X0273662Y0087836D01*
X0273712Y0087764D01*
X0273759Y0087689D01*
X0273803Y0087612D01*
X0273843Y0087533D01*
X0273880Y0087453D01*
X0273912Y0087371D01*
X0273942Y0087287D01*
X0273967Y0087203D01*
X0273989Y0087117D01*
X0274006Y0087031D01*
X0274020Y0086943D01*
X0274030Y0086855D01*
X0274036Y0086767D01*
X0274038Y0086679D01*
X0274036Y0086591D01*
X0274030Y0086503D01*
X0274020Y0086415D01*
X0274006Y0086327D01*
X0273989Y0086241D01*
X0273967Y0086155D01*
X0273942Y0086071D01*
X0273912Y0085987D01*
X0273880Y0085905D01*
X0273843Y0085825D01*
X0273803Y0085746D01*
X0273759Y0085669D01*
X0273712Y0085594D01*
X0273662Y0085522D01*
X0273608Y0085451D01*
X0273552Y0085384D01*
X0273492Y0085318D01*
X0273430Y0085256D01*
X0273364Y0085196D01*
X0273297Y0085140D01*
X0273226Y0085086D01*
X0273154Y0085036D01*
X0273079Y0084989D01*
X0273002Y0084945D01*
X0272923Y0084905D01*
X0272843Y0084868D01*
X0272761Y0084836D01*
X0272677Y0084806D01*
X0272593Y0084781D01*
X0272507Y0084759D01*
X0272421Y0084742D01*
X0272333Y0084728D01*
X0272245Y0084718D01*
X0272157Y0084712D01*
X0272069Y0084710D01*
X0271981Y0084712D01*
X0271893Y0084718D01*
X0271805Y0084728D01*
X0271717Y0084742D01*
X0271631Y0084759D01*
X0271545Y0084781D01*
X0271461Y0084806D01*
X0271377Y0084836D01*
X0271295Y0084868D01*
X0271215Y0084905D01*
X0271136Y0084945D01*
X0271059Y0084989D01*
X0270984Y0085036D01*
X0270912Y0085086D01*
X0270841Y0085140D01*
X0270774Y0085196D01*
X0270708Y0085256D01*
X0270646Y0085318D01*
X0270586Y0085384D01*
X0270530Y0085451D01*
X0270476Y0085522D01*
X0270426Y0085594D01*
X0270379Y0085669D01*
X0270335Y0085746D01*
X0270295Y0085825D01*
X0270258Y0085905D01*
X0270226Y0085987D01*
X0270196Y0086071D01*
X0270171Y0086155D01*
X0270149Y0086241D01*
X0270132Y0086327D01*
X0270118Y0086415D01*
X0270108Y0086503D01*
X0270102Y0086591D01*
X0270100Y0086679D01*
X0272069Y0047309D02*
X0272071Y0047397D01*
X0272077Y0047485D01*
X0272087Y0047573D01*
X0272101Y0047661D01*
X0272118Y0047747D01*
X0272140Y0047833D01*
X0272165Y0047917D01*
X0272195Y0048001D01*
X0272227Y0048083D01*
X0272264Y0048163D01*
X0272304Y0048242D01*
X0272348Y0048319D01*
X0272395Y0048394D01*
X0272445Y0048466D01*
X0272499Y0048537D01*
X0272555Y0048604D01*
X0272615Y0048670D01*
X0272677Y0048732D01*
X0272743Y0048792D01*
X0272810Y0048848D01*
X0272881Y0048902D01*
X0272953Y0048952D01*
X0273028Y0048999D01*
X0273105Y0049043D01*
X0273184Y0049083D01*
X0273264Y0049120D01*
X0273346Y0049152D01*
X0273430Y0049182D01*
X0273514Y0049207D01*
X0273600Y0049229D01*
X0273686Y0049246D01*
X0273774Y0049260D01*
X0273862Y0049270D01*
X0273950Y0049276D01*
X0274038Y0049278D01*
X0274126Y0049276D01*
X0274214Y0049270D01*
X0274302Y0049260D01*
X0274390Y0049246D01*
X0274476Y0049229D01*
X0274562Y0049207D01*
X0274646Y0049182D01*
X0274730Y0049152D01*
X0274812Y0049120D01*
X0274892Y0049083D01*
X0274971Y0049043D01*
X0275048Y0048999D01*
X0275123Y0048952D01*
X0275195Y0048902D01*
X0275266Y0048848D01*
X0275333Y0048792D01*
X0275399Y0048732D01*
X0275461Y0048670D01*
X0275521Y0048604D01*
X0275577Y0048537D01*
X0275631Y0048466D01*
X0275681Y0048394D01*
X0275728Y0048319D01*
X0275772Y0048242D01*
X0275812Y0048163D01*
X0275849Y0048083D01*
X0275881Y0048001D01*
X0275911Y0047917D01*
X0275936Y0047833D01*
X0275958Y0047747D01*
X0275975Y0047661D01*
X0275989Y0047573D01*
X0275999Y0047485D01*
X0276005Y0047397D01*
X0276007Y0047309D01*
X0276005Y0047221D01*
X0275999Y0047133D01*
X0275989Y0047045D01*
X0275975Y0046957D01*
X0275958Y0046871D01*
X0275936Y0046785D01*
X0275911Y0046701D01*
X0275881Y0046617D01*
X0275849Y0046535D01*
X0275812Y0046455D01*
X0275772Y0046376D01*
X0275728Y0046299D01*
X0275681Y0046224D01*
X0275631Y0046152D01*
X0275577Y0046081D01*
X0275521Y0046014D01*
X0275461Y0045948D01*
X0275399Y0045886D01*
X0275333Y0045826D01*
X0275266Y0045770D01*
X0275195Y0045716D01*
X0275123Y0045666D01*
X0275048Y0045619D01*
X0274971Y0045575D01*
X0274892Y0045535D01*
X0274812Y0045498D01*
X0274730Y0045466D01*
X0274646Y0045436D01*
X0274562Y0045411D01*
X0274476Y0045389D01*
X0274390Y0045372D01*
X0274302Y0045358D01*
X0274214Y0045348D01*
X0274126Y0045342D01*
X0274038Y0045340D01*
X0273950Y0045342D01*
X0273862Y0045348D01*
X0273774Y0045358D01*
X0273686Y0045372D01*
X0273600Y0045389D01*
X0273514Y0045411D01*
X0273430Y0045436D01*
X0273346Y0045466D01*
X0273264Y0045498D01*
X0273184Y0045535D01*
X0273105Y0045575D01*
X0273028Y0045619D01*
X0272953Y0045666D01*
X0272881Y0045716D01*
X0272810Y0045770D01*
X0272743Y0045826D01*
X0272677Y0045886D01*
X0272615Y0045948D01*
X0272555Y0046014D01*
X0272499Y0046081D01*
X0272445Y0046152D01*
X0272395Y0046224D01*
X0272348Y0046299D01*
X0272304Y0046376D01*
X0272264Y0046455D01*
X0272227Y0046535D01*
X0272195Y0046617D01*
X0272165Y0046701D01*
X0272140Y0046785D01*
X0272118Y0046871D01*
X0272101Y0046957D01*
X0272087Y0047045D01*
X0272077Y0047133D01*
X0272071Y0047221D01*
X0272069Y0047309D01*
X0270100Y0031561D02*
X0270102Y0031649D01*
X0270108Y0031737D01*
X0270118Y0031825D01*
X0270132Y0031913D01*
X0270149Y0031999D01*
X0270171Y0032085D01*
X0270196Y0032169D01*
X0270226Y0032253D01*
X0270258Y0032335D01*
X0270295Y0032415D01*
X0270335Y0032494D01*
X0270379Y0032571D01*
X0270426Y0032646D01*
X0270476Y0032718D01*
X0270530Y0032789D01*
X0270586Y0032856D01*
X0270646Y0032922D01*
X0270708Y0032984D01*
X0270774Y0033044D01*
X0270841Y0033100D01*
X0270912Y0033154D01*
X0270984Y0033204D01*
X0271059Y0033251D01*
X0271136Y0033295D01*
X0271215Y0033335D01*
X0271295Y0033372D01*
X0271377Y0033404D01*
X0271461Y0033434D01*
X0271545Y0033459D01*
X0271631Y0033481D01*
X0271717Y0033498D01*
X0271805Y0033512D01*
X0271893Y0033522D01*
X0271981Y0033528D01*
X0272069Y0033530D01*
X0272157Y0033528D01*
X0272245Y0033522D01*
X0272333Y0033512D01*
X0272421Y0033498D01*
X0272507Y0033481D01*
X0272593Y0033459D01*
X0272677Y0033434D01*
X0272761Y0033404D01*
X0272843Y0033372D01*
X0272923Y0033335D01*
X0273002Y0033295D01*
X0273079Y0033251D01*
X0273154Y0033204D01*
X0273226Y0033154D01*
X0273297Y0033100D01*
X0273364Y0033044D01*
X0273430Y0032984D01*
X0273492Y0032922D01*
X0273552Y0032856D01*
X0273608Y0032789D01*
X0273662Y0032718D01*
X0273712Y0032646D01*
X0273759Y0032571D01*
X0273803Y0032494D01*
X0273843Y0032415D01*
X0273880Y0032335D01*
X0273912Y0032253D01*
X0273942Y0032169D01*
X0273967Y0032085D01*
X0273989Y0031999D01*
X0274006Y0031913D01*
X0274020Y0031825D01*
X0274030Y0031737D01*
X0274036Y0031649D01*
X0274038Y0031561D01*
X0274036Y0031473D01*
X0274030Y0031385D01*
X0274020Y0031297D01*
X0274006Y0031209D01*
X0273989Y0031123D01*
X0273967Y0031037D01*
X0273942Y0030953D01*
X0273912Y0030869D01*
X0273880Y0030787D01*
X0273843Y0030707D01*
X0273803Y0030628D01*
X0273759Y0030551D01*
X0273712Y0030476D01*
X0273662Y0030404D01*
X0273608Y0030333D01*
X0273552Y0030266D01*
X0273492Y0030200D01*
X0273430Y0030138D01*
X0273364Y0030078D01*
X0273297Y0030022D01*
X0273226Y0029968D01*
X0273154Y0029918D01*
X0273079Y0029871D01*
X0273002Y0029827D01*
X0272923Y0029787D01*
X0272843Y0029750D01*
X0272761Y0029718D01*
X0272677Y0029688D01*
X0272593Y0029663D01*
X0272507Y0029641D01*
X0272421Y0029624D01*
X0272333Y0029610D01*
X0272245Y0029600D01*
X0272157Y0029594D01*
X0272069Y0029592D01*
X0271981Y0029594D01*
X0271893Y0029600D01*
X0271805Y0029610D01*
X0271717Y0029624D01*
X0271631Y0029641D01*
X0271545Y0029663D01*
X0271461Y0029688D01*
X0271377Y0029718D01*
X0271295Y0029750D01*
X0271215Y0029787D01*
X0271136Y0029827D01*
X0271059Y0029871D01*
X0270984Y0029918D01*
X0270912Y0029968D01*
X0270841Y0030022D01*
X0270774Y0030078D01*
X0270708Y0030138D01*
X0270646Y0030200D01*
X0270586Y0030266D01*
X0270530Y0030333D01*
X0270476Y0030404D01*
X0270426Y0030476D01*
X0270379Y0030551D01*
X0270335Y0030628D01*
X0270295Y0030707D01*
X0270258Y0030787D01*
X0270226Y0030869D01*
X0270196Y0030953D01*
X0270171Y0031037D01*
X0270149Y0031123D01*
X0270132Y0031209D01*
X0270118Y0031297D01*
X0270108Y0031385D01*
X0270102Y0031473D01*
X0270100Y0031561D01*
X0096872Y0031561D02*
X0096874Y0031649D01*
X0096880Y0031737D01*
X0096890Y0031825D01*
X0096904Y0031913D01*
X0096921Y0031999D01*
X0096943Y0032085D01*
X0096968Y0032169D01*
X0096998Y0032253D01*
X0097030Y0032335D01*
X0097067Y0032415D01*
X0097107Y0032494D01*
X0097151Y0032571D01*
X0097198Y0032646D01*
X0097248Y0032718D01*
X0097302Y0032789D01*
X0097358Y0032856D01*
X0097418Y0032922D01*
X0097480Y0032984D01*
X0097546Y0033044D01*
X0097613Y0033100D01*
X0097684Y0033154D01*
X0097756Y0033204D01*
X0097831Y0033251D01*
X0097908Y0033295D01*
X0097987Y0033335D01*
X0098067Y0033372D01*
X0098149Y0033404D01*
X0098233Y0033434D01*
X0098317Y0033459D01*
X0098403Y0033481D01*
X0098489Y0033498D01*
X0098577Y0033512D01*
X0098665Y0033522D01*
X0098753Y0033528D01*
X0098841Y0033530D01*
X0098929Y0033528D01*
X0099017Y0033522D01*
X0099105Y0033512D01*
X0099193Y0033498D01*
X0099279Y0033481D01*
X0099365Y0033459D01*
X0099449Y0033434D01*
X0099533Y0033404D01*
X0099615Y0033372D01*
X0099695Y0033335D01*
X0099774Y0033295D01*
X0099851Y0033251D01*
X0099926Y0033204D01*
X0099998Y0033154D01*
X0100069Y0033100D01*
X0100136Y0033044D01*
X0100202Y0032984D01*
X0100264Y0032922D01*
X0100324Y0032856D01*
X0100380Y0032789D01*
X0100434Y0032718D01*
X0100484Y0032646D01*
X0100531Y0032571D01*
X0100575Y0032494D01*
X0100615Y0032415D01*
X0100652Y0032335D01*
X0100684Y0032253D01*
X0100714Y0032169D01*
X0100739Y0032085D01*
X0100761Y0031999D01*
X0100778Y0031913D01*
X0100792Y0031825D01*
X0100802Y0031737D01*
X0100808Y0031649D01*
X0100810Y0031561D01*
X0100808Y0031473D01*
X0100802Y0031385D01*
X0100792Y0031297D01*
X0100778Y0031209D01*
X0100761Y0031123D01*
X0100739Y0031037D01*
X0100714Y0030953D01*
X0100684Y0030869D01*
X0100652Y0030787D01*
X0100615Y0030707D01*
X0100575Y0030628D01*
X0100531Y0030551D01*
X0100484Y0030476D01*
X0100434Y0030404D01*
X0100380Y0030333D01*
X0100324Y0030266D01*
X0100264Y0030200D01*
X0100202Y0030138D01*
X0100136Y0030078D01*
X0100069Y0030022D01*
X0099998Y0029968D01*
X0099926Y0029918D01*
X0099851Y0029871D01*
X0099774Y0029827D01*
X0099695Y0029787D01*
X0099615Y0029750D01*
X0099533Y0029718D01*
X0099449Y0029688D01*
X0099365Y0029663D01*
X0099279Y0029641D01*
X0099193Y0029624D01*
X0099105Y0029610D01*
X0099017Y0029600D01*
X0098929Y0029594D01*
X0098841Y0029592D01*
X0098753Y0029594D01*
X0098665Y0029600D01*
X0098577Y0029610D01*
X0098489Y0029624D01*
X0098403Y0029641D01*
X0098317Y0029663D01*
X0098233Y0029688D01*
X0098149Y0029718D01*
X0098067Y0029750D01*
X0097987Y0029787D01*
X0097908Y0029827D01*
X0097831Y0029871D01*
X0097756Y0029918D01*
X0097684Y0029968D01*
X0097613Y0030022D01*
X0097546Y0030078D01*
X0097480Y0030138D01*
X0097418Y0030200D01*
X0097358Y0030266D01*
X0097302Y0030333D01*
X0097248Y0030404D01*
X0097198Y0030476D01*
X0097151Y0030551D01*
X0097107Y0030628D01*
X0097067Y0030707D01*
X0097030Y0030787D01*
X0096998Y0030869D01*
X0096968Y0030953D01*
X0096943Y0031037D01*
X0096921Y0031123D01*
X0096904Y0031209D01*
X0096890Y0031297D01*
X0096880Y0031385D01*
X0096874Y0031473D01*
X0096872Y0031561D01*
X0075218Y0031561D02*
X0075220Y0031649D01*
X0075226Y0031737D01*
X0075236Y0031825D01*
X0075250Y0031913D01*
X0075267Y0031999D01*
X0075289Y0032085D01*
X0075314Y0032169D01*
X0075344Y0032253D01*
X0075376Y0032335D01*
X0075413Y0032415D01*
X0075453Y0032494D01*
X0075497Y0032571D01*
X0075544Y0032646D01*
X0075594Y0032718D01*
X0075648Y0032789D01*
X0075704Y0032856D01*
X0075764Y0032922D01*
X0075826Y0032984D01*
X0075892Y0033044D01*
X0075959Y0033100D01*
X0076030Y0033154D01*
X0076102Y0033204D01*
X0076177Y0033251D01*
X0076254Y0033295D01*
X0076333Y0033335D01*
X0076413Y0033372D01*
X0076495Y0033404D01*
X0076579Y0033434D01*
X0076663Y0033459D01*
X0076749Y0033481D01*
X0076835Y0033498D01*
X0076923Y0033512D01*
X0077011Y0033522D01*
X0077099Y0033528D01*
X0077187Y0033530D01*
X0077275Y0033528D01*
X0077363Y0033522D01*
X0077451Y0033512D01*
X0077539Y0033498D01*
X0077625Y0033481D01*
X0077711Y0033459D01*
X0077795Y0033434D01*
X0077879Y0033404D01*
X0077961Y0033372D01*
X0078041Y0033335D01*
X0078120Y0033295D01*
X0078197Y0033251D01*
X0078272Y0033204D01*
X0078344Y0033154D01*
X0078415Y0033100D01*
X0078482Y0033044D01*
X0078548Y0032984D01*
X0078610Y0032922D01*
X0078670Y0032856D01*
X0078726Y0032789D01*
X0078780Y0032718D01*
X0078830Y0032646D01*
X0078877Y0032571D01*
X0078921Y0032494D01*
X0078961Y0032415D01*
X0078998Y0032335D01*
X0079030Y0032253D01*
X0079060Y0032169D01*
X0079085Y0032085D01*
X0079107Y0031999D01*
X0079124Y0031913D01*
X0079138Y0031825D01*
X0079148Y0031737D01*
X0079154Y0031649D01*
X0079156Y0031561D01*
X0079154Y0031473D01*
X0079148Y0031385D01*
X0079138Y0031297D01*
X0079124Y0031209D01*
X0079107Y0031123D01*
X0079085Y0031037D01*
X0079060Y0030953D01*
X0079030Y0030869D01*
X0078998Y0030787D01*
X0078961Y0030707D01*
X0078921Y0030628D01*
X0078877Y0030551D01*
X0078830Y0030476D01*
X0078780Y0030404D01*
X0078726Y0030333D01*
X0078670Y0030266D01*
X0078610Y0030200D01*
X0078548Y0030138D01*
X0078482Y0030078D01*
X0078415Y0030022D01*
X0078344Y0029968D01*
X0078272Y0029918D01*
X0078197Y0029871D01*
X0078120Y0029827D01*
X0078041Y0029787D01*
X0077961Y0029750D01*
X0077879Y0029718D01*
X0077795Y0029688D01*
X0077711Y0029663D01*
X0077625Y0029641D01*
X0077539Y0029624D01*
X0077451Y0029610D01*
X0077363Y0029600D01*
X0077275Y0029594D01*
X0077187Y0029592D01*
X0077099Y0029594D01*
X0077011Y0029600D01*
X0076923Y0029610D01*
X0076835Y0029624D01*
X0076749Y0029641D01*
X0076663Y0029663D01*
X0076579Y0029688D01*
X0076495Y0029718D01*
X0076413Y0029750D01*
X0076333Y0029787D01*
X0076254Y0029827D01*
X0076177Y0029871D01*
X0076102Y0029918D01*
X0076030Y0029968D01*
X0075959Y0030022D01*
X0075892Y0030078D01*
X0075826Y0030138D01*
X0075764Y0030200D01*
X0075704Y0030266D01*
X0075648Y0030333D01*
X0075594Y0030404D01*
X0075544Y0030476D01*
X0075497Y0030551D01*
X0075453Y0030628D01*
X0075413Y0030707D01*
X0075376Y0030787D01*
X0075344Y0030869D01*
X0075314Y0030953D01*
X0075289Y0031037D01*
X0075267Y0031123D01*
X0075250Y0031209D01*
X0075236Y0031297D01*
X0075226Y0031385D01*
X0075220Y0031473D01*
X0075218Y0031561D01*
X0006321Y0031561D02*
X0006323Y0031649D01*
X0006329Y0031737D01*
X0006339Y0031825D01*
X0006353Y0031913D01*
X0006370Y0031999D01*
X0006392Y0032085D01*
X0006417Y0032169D01*
X0006447Y0032253D01*
X0006479Y0032335D01*
X0006516Y0032415D01*
X0006556Y0032494D01*
X0006600Y0032571D01*
X0006647Y0032646D01*
X0006697Y0032718D01*
X0006751Y0032789D01*
X0006807Y0032856D01*
X0006867Y0032922D01*
X0006929Y0032984D01*
X0006995Y0033044D01*
X0007062Y0033100D01*
X0007133Y0033154D01*
X0007205Y0033204D01*
X0007280Y0033251D01*
X0007357Y0033295D01*
X0007436Y0033335D01*
X0007516Y0033372D01*
X0007598Y0033404D01*
X0007682Y0033434D01*
X0007766Y0033459D01*
X0007852Y0033481D01*
X0007938Y0033498D01*
X0008026Y0033512D01*
X0008114Y0033522D01*
X0008202Y0033528D01*
X0008290Y0033530D01*
X0008378Y0033528D01*
X0008466Y0033522D01*
X0008554Y0033512D01*
X0008642Y0033498D01*
X0008728Y0033481D01*
X0008814Y0033459D01*
X0008898Y0033434D01*
X0008982Y0033404D01*
X0009064Y0033372D01*
X0009144Y0033335D01*
X0009223Y0033295D01*
X0009300Y0033251D01*
X0009375Y0033204D01*
X0009447Y0033154D01*
X0009518Y0033100D01*
X0009585Y0033044D01*
X0009651Y0032984D01*
X0009713Y0032922D01*
X0009773Y0032856D01*
X0009829Y0032789D01*
X0009883Y0032718D01*
X0009933Y0032646D01*
X0009980Y0032571D01*
X0010024Y0032494D01*
X0010064Y0032415D01*
X0010101Y0032335D01*
X0010133Y0032253D01*
X0010163Y0032169D01*
X0010188Y0032085D01*
X0010210Y0031999D01*
X0010227Y0031913D01*
X0010241Y0031825D01*
X0010251Y0031737D01*
X0010257Y0031649D01*
X0010259Y0031561D01*
X0010257Y0031473D01*
X0010251Y0031385D01*
X0010241Y0031297D01*
X0010227Y0031209D01*
X0010210Y0031123D01*
X0010188Y0031037D01*
X0010163Y0030953D01*
X0010133Y0030869D01*
X0010101Y0030787D01*
X0010064Y0030707D01*
X0010024Y0030628D01*
X0009980Y0030551D01*
X0009933Y0030476D01*
X0009883Y0030404D01*
X0009829Y0030333D01*
X0009773Y0030266D01*
X0009713Y0030200D01*
X0009651Y0030138D01*
X0009585Y0030078D01*
X0009518Y0030022D01*
X0009447Y0029968D01*
X0009375Y0029918D01*
X0009300Y0029871D01*
X0009223Y0029827D01*
X0009144Y0029787D01*
X0009064Y0029750D01*
X0008982Y0029718D01*
X0008898Y0029688D01*
X0008814Y0029663D01*
X0008728Y0029641D01*
X0008642Y0029624D01*
X0008554Y0029610D01*
X0008466Y0029600D01*
X0008378Y0029594D01*
X0008290Y0029592D01*
X0008202Y0029594D01*
X0008114Y0029600D01*
X0008026Y0029610D01*
X0007938Y0029624D01*
X0007852Y0029641D01*
X0007766Y0029663D01*
X0007682Y0029688D01*
X0007598Y0029718D01*
X0007516Y0029750D01*
X0007436Y0029787D01*
X0007357Y0029827D01*
X0007280Y0029871D01*
X0007205Y0029918D01*
X0007133Y0029968D01*
X0007062Y0030022D01*
X0006995Y0030078D01*
X0006929Y0030138D01*
X0006867Y0030200D01*
X0006807Y0030266D01*
X0006751Y0030333D01*
X0006697Y0030404D01*
X0006647Y0030476D01*
X0006600Y0030551D01*
X0006556Y0030628D01*
X0006516Y0030707D01*
X0006479Y0030787D01*
X0006447Y0030869D01*
X0006417Y0030953D01*
X0006392Y0031037D01*
X0006370Y0031123D01*
X0006353Y0031209D01*
X0006339Y0031297D01*
X0006329Y0031385D01*
X0006323Y0031473D01*
X0006321Y0031561D01*
X0004352Y0047309D02*
X0004354Y0047397D01*
X0004360Y0047485D01*
X0004370Y0047573D01*
X0004384Y0047661D01*
X0004401Y0047747D01*
X0004423Y0047833D01*
X0004448Y0047917D01*
X0004478Y0048001D01*
X0004510Y0048083D01*
X0004547Y0048163D01*
X0004587Y0048242D01*
X0004631Y0048319D01*
X0004678Y0048394D01*
X0004728Y0048466D01*
X0004782Y0048537D01*
X0004838Y0048604D01*
X0004898Y0048670D01*
X0004960Y0048732D01*
X0005026Y0048792D01*
X0005093Y0048848D01*
X0005164Y0048902D01*
X0005236Y0048952D01*
X0005311Y0048999D01*
X0005388Y0049043D01*
X0005467Y0049083D01*
X0005547Y0049120D01*
X0005629Y0049152D01*
X0005713Y0049182D01*
X0005797Y0049207D01*
X0005883Y0049229D01*
X0005969Y0049246D01*
X0006057Y0049260D01*
X0006145Y0049270D01*
X0006233Y0049276D01*
X0006321Y0049278D01*
X0006409Y0049276D01*
X0006497Y0049270D01*
X0006585Y0049260D01*
X0006673Y0049246D01*
X0006759Y0049229D01*
X0006845Y0049207D01*
X0006929Y0049182D01*
X0007013Y0049152D01*
X0007095Y0049120D01*
X0007175Y0049083D01*
X0007254Y0049043D01*
X0007331Y0048999D01*
X0007406Y0048952D01*
X0007478Y0048902D01*
X0007549Y0048848D01*
X0007616Y0048792D01*
X0007682Y0048732D01*
X0007744Y0048670D01*
X0007804Y0048604D01*
X0007860Y0048537D01*
X0007914Y0048466D01*
X0007964Y0048394D01*
X0008011Y0048319D01*
X0008055Y0048242D01*
X0008095Y0048163D01*
X0008132Y0048083D01*
X0008164Y0048001D01*
X0008194Y0047917D01*
X0008219Y0047833D01*
X0008241Y0047747D01*
X0008258Y0047661D01*
X0008272Y0047573D01*
X0008282Y0047485D01*
X0008288Y0047397D01*
X0008290Y0047309D01*
X0008288Y0047221D01*
X0008282Y0047133D01*
X0008272Y0047045D01*
X0008258Y0046957D01*
X0008241Y0046871D01*
X0008219Y0046785D01*
X0008194Y0046701D01*
X0008164Y0046617D01*
X0008132Y0046535D01*
X0008095Y0046455D01*
X0008055Y0046376D01*
X0008011Y0046299D01*
X0007964Y0046224D01*
X0007914Y0046152D01*
X0007860Y0046081D01*
X0007804Y0046014D01*
X0007744Y0045948D01*
X0007682Y0045886D01*
X0007616Y0045826D01*
X0007549Y0045770D01*
X0007478Y0045716D01*
X0007406Y0045666D01*
X0007331Y0045619D01*
X0007254Y0045575D01*
X0007175Y0045535D01*
X0007095Y0045498D01*
X0007013Y0045466D01*
X0006929Y0045436D01*
X0006845Y0045411D01*
X0006759Y0045389D01*
X0006673Y0045372D01*
X0006585Y0045358D01*
X0006497Y0045348D01*
X0006409Y0045342D01*
X0006321Y0045340D01*
X0006233Y0045342D01*
X0006145Y0045348D01*
X0006057Y0045358D01*
X0005969Y0045372D01*
X0005883Y0045389D01*
X0005797Y0045411D01*
X0005713Y0045436D01*
X0005629Y0045466D01*
X0005547Y0045498D01*
X0005467Y0045535D01*
X0005388Y0045575D01*
X0005311Y0045619D01*
X0005236Y0045666D01*
X0005164Y0045716D01*
X0005093Y0045770D01*
X0005026Y0045826D01*
X0004960Y0045886D01*
X0004898Y0045948D01*
X0004838Y0046014D01*
X0004782Y0046081D01*
X0004728Y0046152D01*
X0004678Y0046224D01*
X0004631Y0046299D01*
X0004587Y0046376D01*
X0004547Y0046455D01*
X0004510Y0046535D01*
X0004478Y0046617D01*
X0004448Y0046701D01*
X0004423Y0046785D01*
X0004401Y0046871D01*
X0004384Y0046957D01*
X0004370Y0047045D01*
X0004360Y0047133D01*
X0004354Y0047221D01*
X0004352Y0047309D01*
X0004352Y0070931D02*
X0004354Y0071019D01*
X0004360Y0071107D01*
X0004370Y0071195D01*
X0004384Y0071283D01*
X0004401Y0071369D01*
X0004423Y0071455D01*
X0004448Y0071539D01*
X0004478Y0071623D01*
X0004510Y0071705D01*
X0004547Y0071785D01*
X0004587Y0071864D01*
X0004631Y0071941D01*
X0004678Y0072016D01*
X0004728Y0072088D01*
X0004782Y0072159D01*
X0004838Y0072226D01*
X0004898Y0072292D01*
X0004960Y0072354D01*
X0005026Y0072414D01*
X0005093Y0072470D01*
X0005164Y0072524D01*
X0005236Y0072574D01*
X0005311Y0072621D01*
X0005388Y0072665D01*
X0005467Y0072705D01*
X0005547Y0072742D01*
X0005629Y0072774D01*
X0005713Y0072804D01*
X0005797Y0072829D01*
X0005883Y0072851D01*
X0005969Y0072868D01*
X0006057Y0072882D01*
X0006145Y0072892D01*
X0006233Y0072898D01*
X0006321Y0072900D01*
X0006409Y0072898D01*
X0006497Y0072892D01*
X0006585Y0072882D01*
X0006673Y0072868D01*
X0006759Y0072851D01*
X0006845Y0072829D01*
X0006929Y0072804D01*
X0007013Y0072774D01*
X0007095Y0072742D01*
X0007175Y0072705D01*
X0007254Y0072665D01*
X0007331Y0072621D01*
X0007406Y0072574D01*
X0007478Y0072524D01*
X0007549Y0072470D01*
X0007616Y0072414D01*
X0007682Y0072354D01*
X0007744Y0072292D01*
X0007804Y0072226D01*
X0007860Y0072159D01*
X0007914Y0072088D01*
X0007964Y0072016D01*
X0008011Y0071941D01*
X0008055Y0071864D01*
X0008095Y0071785D01*
X0008132Y0071705D01*
X0008164Y0071623D01*
X0008194Y0071539D01*
X0008219Y0071455D01*
X0008241Y0071369D01*
X0008258Y0071283D01*
X0008272Y0071195D01*
X0008282Y0071107D01*
X0008288Y0071019D01*
X0008290Y0070931D01*
X0008288Y0070843D01*
X0008282Y0070755D01*
X0008272Y0070667D01*
X0008258Y0070579D01*
X0008241Y0070493D01*
X0008219Y0070407D01*
X0008194Y0070323D01*
X0008164Y0070239D01*
X0008132Y0070157D01*
X0008095Y0070077D01*
X0008055Y0069998D01*
X0008011Y0069921D01*
X0007964Y0069846D01*
X0007914Y0069774D01*
X0007860Y0069703D01*
X0007804Y0069636D01*
X0007744Y0069570D01*
X0007682Y0069508D01*
X0007616Y0069448D01*
X0007549Y0069392D01*
X0007478Y0069338D01*
X0007406Y0069288D01*
X0007331Y0069241D01*
X0007254Y0069197D01*
X0007175Y0069157D01*
X0007095Y0069120D01*
X0007013Y0069088D01*
X0006929Y0069058D01*
X0006845Y0069033D01*
X0006759Y0069011D01*
X0006673Y0068994D01*
X0006585Y0068980D01*
X0006497Y0068970D01*
X0006409Y0068964D01*
X0006321Y0068962D01*
X0006233Y0068964D01*
X0006145Y0068970D01*
X0006057Y0068980D01*
X0005969Y0068994D01*
X0005883Y0069011D01*
X0005797Y0069033D01*
X0005713Y0069058D01*
X0005629Y0069088D01*
X0005547Y0069120D01*
X0005467Y0069157D01*
X0005388Y0069197D01*
X0005311Y0069241D01*
X0005236Y0069288D01*
X0005164Y0069338D01*
X0005093Y0069392D01*
X0005026Y0069448D01*
X0004960Y0069508D01*
X0004898Y0069570D01*
X0004838Y0069636D01*
X0004782Y0069703D01*
X0004728Y0069774D01*
X0004678Y0069846D01*
X0004631Y0069921D01*
X0004587Y0069998D01*
X0004547Y0070077D01*
X0004510Y0070157D01*
X0004478Y0070239D01*
X0004448Y0070323D01*
X0004423Y0070407D01*
X0004401Y0070493D01*
X0004384Y0070579D01*
X0004370Y0070667D01*
X0004360Y0070755D01*
X0004354Y0070843D01*
X0004352Y0070931D01*
X0006321Y0086679D02*
X0006323Y0086767D01*
X0006329Y0086855D01*
X0006339Y0086943D01*
X0006353Y0087031D01*
X0006370Y0087117D01*
X0006392Y0087203D01*
X0006417Y0087287D01*
X0006447Y0087371D01*
X0006479Y0087453D01*
X0006516Y0087533D01*
X0006556Y0087612D01*
X0006600Y0087689D01*
X0006647Y0087764D01*
X0006697Y0087836D01*
X0006751Y0087907D01*
X0006807Y0087974D01*
X0006867Y0088040D01*
X0006929Y0088102D01*
X0006995Y0088162D01*
X0007062Y0088218D01*
X0007133Y0088272D01*
X0007205Y0088322D01*
X0007280Y0088369D01*
X0007357Y0088413D01*
X0007436Y0088453D01*
X0007516Y0088490D01*
X0007598Y0088522D01*
X0007682Y0088552D01*
X0007766Y0088577D01*
X0007852Y0088599D01*
X0007938Y0088616D01*
X0008026Y0088630D01*
X0008114Y0088640D01*
X0008202Y0088646D01*
X0008290Y0088648D01*
X0008378Y0088646D01*
X0008466Y0088640D01*
X0008554Y0088630D01*
X0008642Y0088616D01*
X0008728Y0088599D01*
X0008814Y0088577D01*
X0008898Y0088552D01*
X0008982Y0088522D01*
X0009064Y0088490D01*
X0009144Y0088453D01*
X0009223Y0088413D01*
X0009300Y0088369D01*
X0009375Y0088322D01*
X0009447Y0088272D01*
X0009518Y0088218D01*
X0009585Y0088162D01*
X0009651Y0088102D01*
X0009713Y0088040D01*
X0009773Y0087974D01*
X0009829Y0087907D01*
X0009883Y0087836D01*
X0009933Y0087764D01*
X0009980Y0087689D01*
X0010024Y0087612D01*
X0010064Y0087533D01*
X0010101Y0087453D01*
X0010133Y0087371D01*
X0010163Y0087287D01*
X0010188Y0087203D01*
X0010210Y0087117D01*
X0010227Y0087031D01*
X0010241Y0086943D01*
X0010251Y0086855D01*
X0010257Y0086767D01*
X0010259Y0086679D01*
X0010257Y0086591D01*
X0010251Y0086503D01*
X0010241Y0086415D01*
X0010227Y0086327D01*
X0010210Y0086241D01*
X0010188Y0086155D01*
X0010163Y0086071D01*
X0010133Y0085987D01*
X0010101Y0085905D01*
X0010064Y0085825D01*
X0010024Y0085746D01*
X0009980Y0085669D01*
X0009933Y0085594D01*
X0009883Y0085522D01*
X0009829Y0085451D01*
X0009773Y0085384D01*
X0009713Y0085318D01*
X0009651Y0085256D01*
X0009585Y0085196D01*
X0009518Y0085140D01*
X0009447Y0085086D01*
X0009375Y0085036D01*
X0009300Y0084989D01*
X0009223Y0084945D01*
X0009144Y0084905D01*
X0009064Y0084868D01*
X0008982Y0084836D01*
X0008898Y0084806D01*
X0008814Y0084781D01*
X0008728Y0084759D01*
X0008642Y0084742D01*
X0008554Y0084728D01*
X0008466Y0084718D01*
X0008378Y0084712D01*
X0008290Y0084710D01*
X0008202Y0084712D01*
X0008114Y0084718D01*
X0008026Y0084728D01*
X0007938Y0084742D01*
X0007852Y0084759D01*
X0007766Y0084781D01*
X0007682Y0084806D01*
X0007598Y0084836D01*
X0007516Y0084868D01*
X0007436Y0084905D01*
X0007357Y0084945D01*
X0007280Y0084989D01*
X0007205Y0085036D01*
X0007133Y0085086D01*
X0007062Y0085140D01*
X0006995Y0085196D01*
X0006929Y0085256D01*
X0006867Y0085318D01*
X0006807Y0085384D01*
X0006751Y0085451D01*
X0006697Y0085522D01*
X0006647Y0085594D01*
X0006600Y0085669D01*
X0006556Y0085746D01*
X0006516Y0085825D01*
X0006479Y0085905D01*
X0006447Y0085987D01*
X0006417Y0086071D01*
X0006392Y0086155D01*
X0006370Y0086241D01*
X0006353Y0086327D01*
X0006339Y0086415D01*
X0006329Y0086503D01*
X0006323Y0086591D01*
X0006321Y0086679D01*
D12*
X0039786Y0027624D02*
X0059471Y0027624D01*
X0061439Y0025656D01*
X0039786Y0027624D02*
X0037817Y0025656D01*
X0110652Y0025656D02*
X0112620Y0027624D01*
X0132306Y0027624D01*
X0134274Y0025656D01*
X0146085Y0025656D02*
X0148054Y0027624D01*
X0167739Y0027624D01*
X0169707Y0025656D01*
X0181518Y0025656D02*
X0183487Y0027624D01*
X0203172Y0027624D01*
X0205140Y0025656D01*
X0216951Y0025656D02*
X0218920Y0027624D01*
X0238605Y0027624D01*
X0240573Y0025656D01*
D13*
X0240573Y0037467D01*
X0240574Y0037467D02*
X0240572Y0037553D01*
X0240567Y0037639D01*
X0240557Y0037724D01*
X0240544Y0037809D01*
X0240527Y0037893D01*
X0240507Y0037977D01*
X0240483Y0038059D01*
X0240455Y0038140D01*
X0240424Y0038221D01*
X0240390Y0038299D01*
X0240352Y0038376D01*
X0240310Y0038452D01*
X0240266Y0038525D01*
X0240218Y0038596D01*
X0240167Y0038666D01*
X0240113Y0038733D01*
X0240057Y0038797D01*
X0239997Y0038859D01*
X0239935Y0038919D01*
X0239871Y0038975D01*
X0239804Y0039029D01*
X0239734Y0039080D01*
X0239663Y0039128D01*
X0239590Y0039172D01*
X0239514Y0039214D01*
X0239437Y0039252D01*
X0239359Y0039286D01*
X0239278Y0039317D01*
X0239197Y0039345D01*
X0239115Y0039369D01*
X0239031Y0039389D01*
X0238947Y0039406D01*
X0238862Y0039419D01*
X0238777Y0039429D01*
X0238691Y0039434D01*
X0238605Y0039436D01*
X0238605Y0039435D02*
X0234668Y0039435D01*
X0234668Y0039436D02*
X0234582Y0039434D01*
X0234496Y0039429D01*
X0234411Y0039419D01*
X0234326Y0039406D01*
X0234242Y0039389D01*
X0234158Y0039369D01*
X0234076Y0039345D01*
X0233995Y0039317D01*
X0233914Y0039286D01*
X0233836Y0039252D01*
X0233759Y0039214D01*
X0233684Y0039172D01*
X0233610Y0039128D01*
X0233539Y0039080D01*
X0233469Y0039029D01*
X0233402Y0038975D01*
X0233338Y0038919D01*
X0233276Y0038859D01*
X0233216Y0038797D01*
X0233160Y0038733D01*
X0233106Y0038666D01*
X0233055Y0038596D01*
X0233007Y0038525D01*
X0232963Y0038452D01*
X0232921Y0038376D01*
X0232883Y0038299D01*
X0232849Y0038221D01*
X0232818Y0038140D01*
X0232790Y0038059D01*
X0232766Y0037977D01*
X0232746Y0037893D01*
X0232729Y0037809D01*
X0232716Y0037724D01*
X0232706Y0037639D01*
X0232701Y0037553D01*
X0232699Y0037467D01*
X0224826Y0037467D02*
X0224824Y0037553D01*
X0224819Y0037639D01*
X0224809Y0037724D01*
X0224796Y0037809D01*
X0224779Y0037893D01*
X0224759Y0037977D01*
X0224735Y0038059D01*
X0224707Y0038140D01*
X0224676Y0038221D01*
X0224642Y0038299D01*
X0224604Y0038376D01*
X0224562Y0038452D01*
X0224518Y0038525D01*
X0224470Y0038596D01*
X0224419Y0038666D01*
X0224365Y0038733D01*
X0224309Y0038797D01*
X0224249Y0038859D01*
X0224187Y0038919D01*
X0224123Y0038975D01*
X0224056Y0039029D01*
X0223986Y0039080D01*
X0223915Y0039128D01*
X0223842Y0039172D01*
X0223766Y0039214D01*
X0223689Y0039252D01*
X0223611Y0039286D01*
X0223530Y0039317D01*
X0223449Y0039345D01*
X0223367Y0039369D01*
X0223283Y0039389D01*
X0223199Y0039406D01*
X0223114Y0039419D01*
X0223029Y0039429D01*
X0222943Y0039434D01*
X0222857Y0039436D01*
X0222857Y0039435D02*
X0218920Y0039435D01*
X0218920Y0039436D02*
X0218834Y0039434D01*
X0218748Y0039429D01*
X0218663Y0039419D01*
X0218578Y0039406D01*
X0218494Y0039389D01*
X0218410Y0039369D01*
X0218328Y0039345D01*
X0218247Y0039317D01*
X0218166Y0039286D01*
X0218088Y0039252D01*
X0218011Y0039214D01*
X0217936Y0039172D01*
X0217862Y0039128D01*
X0217791Y0039080D01*
X0217721Y0039029D01*
X0217654Y0038975D01*
X0217590Y0038919D01*
X0217528Y0038859D01*
X0217468Y0038797D01*
X0217412Y0038733D01*
X0217358Y0038666D01*
X0217307Y0038596D01*
X0217259Y0038525D01*
X0217215Y0038452D01*
X0217173Y0038376D01*
X0217135Y0038299D01*
X0217101Y0038221D01*
X0217070Y0038140D01*
X0217042Y0038059D01*
X0217018Y0037977D01*
X0216998Y0037893D01*
X0216981Y0037809D01*
X0216968Y0037724D01*
X0216958Y0037639D01*
X0216953Y0037553D01*
X0216951Y0037467D01*
X0216951Y0025656D01*
X0240573Y0025656D01*
X0205140Y0025656D02*
X0205140Y0037467D01*
X0205141Y0037467D02*
X0205139Y0037553D01*
X0205134Y0037639D01*
X0205124Y0037724D01*
X0205111Y0037809D01*
X0205094Y0037893D01*
X0205074Y0037977D01*
X0205050Y0038059D01*
X0205022Y0038140D01*
X0204991Y0038221D01*
X0204957Y0038299D01*
X0204919Y0038376D01*
X0204877Y0038452D01*
X0204833Y0038525D01*
X0204785Y0038596D01*
X0204734Y0038666D01*
X0204680Y0038733D01*
X0204624Y0038797D01*
X0204564Y0038859D01*
X0204502Y0038919D01*
X0204438Y0038975D01*
X0204371Y0039029D01*
X0204301Y0039080D01*
X0204230Y0039128D01*
X0204157Y0039172D01*
X0204081Y0039214D01*
X0204004Y0039252D01*
X0203926Y0039286D01*
X0203845Y0039317D01*
X0203764Y0039345D01*
X0203682Y0039369D01*
X0203598Y0039389D01*
X0203514Y0039406D01*
X0203429Y0039419D01*
X0203344Y0039429D01*
X0203258Y0039434D01*
X0203172Y0039436D01*
X0203172Y0039435D02*
X0199235Y0039435D01*
X0199235Y0039436D02*
X0199149Y0039434D01*
X0199063Y0039429D01*
X0198978Y0039419D01*
X0198893Y0039406D01*
X0198809Y0039389D01*
X0198725Y0039369D01*
X0198643Y0039345D01*
X0198562Y0039317D01*
X0198481Y0039286D01*
X0198403Y0039252D01*
X0198326Y0039214D01*
X0198251Y0039172D01*
X0198177Y0039128D01*
X0198106Y0039080D01*
X0198036Y0039029D01*
X0197969Y0038975D01*
X0197905Y0038919D01*
X0197843Y0038859D01*
X0197783Y0038797D01*
X0197727Y0038733D01*
X0197673Y0038666D01*
X0197622Y0038596D01*
X0197574Y0038525D01*
X0197530Y0038452D01*
X0197488Y0038376D01*
X0197450Y0038299D01*
X0197416Y0038221D01*
X0197385Y0038140D01*
X0197357Y0038059D01*
X0197333Y0037977D01*
X0197313Y0037893D01*
X0197296Y0037809D01*
X0197283Y0037724D01*
X0197273Y0037639D01*
X0197268Y0037553D01*
X0197266Y0037467D01*
X0189393Y0037467D02*
X0189391Y0037553D01*
X0189386Y0037639D01*
X0189376Y0037724D01*
X0189363Y0037809D01*
X0189346Y0037893D01*
X0189326Y0037977D01*
X0189302Y0038059D01*
X0189274Y0038140D01*
X0189243Y0038221D01*
X0189209Y0038299D01*
X0189171Y0038376D01*
X0189129Y0038452D01*
X0189085Y0038525D01*
X0189037Y0038596D01*
X0188986Y0038666D01*
X0188932Y0038733D01*
X0188876Y0038797D01*
X0188816Y0038859D01*
X0188754Y0038919D01*
X0188690Y0038975D01*
X0188623Y0039029D01*
X0188553Y0039080D01*
X0188482Y0039128D01*
X0188409Y0039172D01*
X0188333Y0039214D01*
X0188256Y0039252D01*
X0188178Y0039286D01*
X0188097Y0039317D01*
X0188016Y0039345D01*
X0187934Y0039369D01*
X0187850Y0039389D01*
X0187766Y0039406D01*
X0187681Y0039419D01*
X0187596Y0039429D01*
X0187510Y0039434D01*
X0187424Y0039436D01*
X0187424Y0039435D02*
X0183487Y0039435D01*
X0183487Y0039436D02*
X0183401Y0039434D01*
X0183315Y0039429D01*
X0183230Y0039419D01*
X0183145Y0039406D01*
X0183061Y0039389D01*
X0182977Y0039369D01*
X0182895Y0039345D01*
X0182814Y0039317D01*
X0182733Y0039286D01*
X0182655Y0039252D01*
X0182578Y0039214D01*
X0182503Y0039172D01*
X0182429Y0039128D01*
X0182358Y0039080D01*
X0182288Y0039029D01*
X0182221Y0038975D01*
X0182157Y0038919D01*
X0182095Y0038859D01*
X0182035Y0038797D01*
X0181979Y0038733D01*
X0181925Y0038666D01*
X0181874Y0038596D01*
X0181826Y0038525D01*
X0181782Y0038452D01*
X0181740Y0038376D01*
X0181702Y0038299D01*
X0181668Y0038221D01*
X0181637Y0038140D01*
X0181609Y0038059D01*
X0181585Y0037977D01*
X0181565Y0037893D01*
X0181548Y0037809D01*
X0181535Y0037724D01*
X0181525Y0037639D01*
X0181520Y0037553D01*
X0181518Y0037467D01*
X0181518Y0025656D01*
X0205140Y0025656D01*
X0169707Y0025656D02*
X0169707Y0037467D01*
X0169708Y0037467D02*
X0169706Y0037553D01*
X0169701Y0037639D01*
X0169691Y0037724D01*
X0169678Y0037809D01*
X0169661Y0037893D01*
X0169641Y0037977D01*
X0169617Y0038059D01*
X0169589Y0038140D01*
X0169558Y0038221D01*
X0169524Y0038299D01*
X0169486Y0038376D01*
X0169444Y0038452D01*
X0169400Y0038525D01*
X0169352Y0038596D01*
X0169301Y0038666D01*
X0169247Y0038733D01*
X0169191Y0038797D01*
X0169131Y0038859D01*
X0169069Y0038919D01*
X0169005Y0038975D01*
X0168938Y0039029D01*
X0168868Y0039080D01*
X0168797Y0039128D01*
X0168724Y0039172D01*
X0168648Y0039214D01*
X0168571Y0039252D01*
X0168493Y0039286D01*
X0168412Y0039317D01*
X0168331Y0039345D01*
X0168249Y0039369D01*
X0168165Y0039389D01*
X0168081Y0039406D01*
X0167996Y0039419D01*
X0167911Y0039429D01*
X0167825Y0039434D01*
X0167739Y0039436D01*
X0167739Y0039435D02*
X0163802Y0039435D01*
X0163802Y0039436D02*
X0163716Y0039434D01*
X0163630Y0039429D01*
X0163545Y0039419D01*
X0163460Y0039406D01*
X0163376Y0039389D01*
X0163292Y0039369D01*
X0163210Y0039345D01*
X0163129Y0039317D01*
X0163048Y0039286D01*
X0162970Y0039252D01*
X0162893Y0039214D01*
X0162818Y0039172D01*
X0162744Y0039128D01*
X0162673Y0039080D01*
X0162603Y0039029D01*
X0162536Y0038975D01*
X0162472Y0038919D01*
X0162410Y0038859D01*
X0162350Y0038797D01*
X0162294Y0038733D01*
X0162240Y0038666D01*
X0162189Y0038596D01*
X0162141Y0038525D01*
X0162097Y0038452D01*
X0162055Y0038376D01*
X0162017Y0038299D01*
X0161983Y0038221D01*
X0161952Y0038140D01*
X0161924Y0038059D01*
X0161900Y0037977D01*
X0161880Y0037893D01*
X0161863Y0037809D01*
X0161850Y0037724D01*
X0161840Y0037639D01*
X0161835Y0037553D01*
X0161833Y0037467D01*
X0153960Y0037467D02*
X0153958Y0037553D01*
X0153953Y0037639D01*
X0153943Y0037724D01*
X0153930Y0037809D01*
X0153913Y0037893D01*
X0153893Y0037977D01*
X0153869Y0038059D01*
X0153841Y0038140D01*
X0153810Y0038221D01*
X0153776Y0038299D01*
X0153738Y0038376D01*
X0153696Y0038452D01*
X0153652Y0038525D01*
X0153604Y0038596D01*
X0153553Y0038666D01*
X0153499Y0038733D01*
X0153443Y0038797D01*
X0153383Y0038859D01*
X0153321Y0038919D01*
X0153257Y0038975D01*
X0153190Y0039029D01*
X0153120Y0039080D01*
X0153049Y0039128D01*
X0152976Y0039172D01*
X0152900Y0039214D01*
X0152823Y0039252D01*
X0152745Y0039286D01*
X0152664Y0039317D01*
X0152583Y0039345D01*
X0152501Y0039369D01*
X0152417Y0039389D01*
X0152333Y0039406D01*
X0152248Y0039419D01*
X0152163Y0039429D01*
X0152077Y0039434D01*
X0151991Y0039436D01*
X0151991Y0039435D02*
X0148054Y0039435D01*
X0148054Y0039436D02*
X0147968Y0039434D01*
X0147882Y0039429D01*
X0147797Y0039419D01*
X0147712Y0039406D01*
X0147628Y0039389D01*
X0147544Y0039369D01*
X0147462Y0039345D01*
X0147381Y0039317D01*
X0147300Y0039286D01*
X0147222Y0039252D01*
X0147145Y0039214D01*
X0147070Y0039172D01*
X0146996Y0039128D01*
X0146925Y0039080D01*
X0146855Y0039029D01*
X0146788Y0038975D01*
X0146724Y0038919D01*
X0146662Y0038859D01*
X0146602Y0038797D01*
X0146546Y0038733D01*
X0146492Y0038666D01*
X0146441Y0038596D01*
X0146393Y0038525D01*
X0146349Y0038452D01*
X0146307Y0038376D01*
X0146269Y0038299D01*
X0146235Y0038221D01*
X0146204Y0038140D01*
X0146176Y0038059D01*
X0146152Y0037977D01*
X0146132Y0037893D01*
X0146115Y0037809D01*
X0146102Y0037724D01*
X0146092Y0037639D01*
X0146087Y0037553D01*
X0146085Y0037467D01*
X0146085Y0025656D01*
X0169707Y0025656D01*
X0134274Y0025656D02*
X0134274Y0037467D01*
X0134275Y0037467D02*
X0134273Y0037553D01*
X0134268Y0037639D01*
X0134258Y0037724D01*
X0134245Y0037809D01*
X0134228Y0037893D01*
X0134208Y0037977D01*
X0134184Y0038059D01*
X0134156Y0038140D01*
X0134125Y0038221D01*
X0134091Y0038299D01*
X0134053Y0038376D01*
X0134011Y0038452D01*
X0133967Y0038525D01*
X0133919Y0038596D01*
X0133868Y0038666D01*
X0133814Y0038733D01*
X0133758Y0038797D01*
X0133698Y0038859D01*
X0133636Y0038919D01*
X0133572Y0038975D01*
X0133505Y0039029D01*
X0133435Y0039080D01*
X0133364Y0039128D01*
X0133291Y0039172D01*
X0133215Y0039214D01*
X0133138Y0039252D01*
X0133060Y0039286D01*
X0132979Y0039317D01*
X0132898Y0039345D01*
X0132816Y0039369D01*
X0132732Y0039389D01*
X0132648Y0039406D01*
X0132563Y0039419D01*
X0132478Y0039429D01*
X0132392Y0039434D01*
X0132306Y0039436D01*
X0132306Y0039435D02*
X0128369Y0039435D01*
X0128369Y0039436D02*
X0128283Y0039434D01*
X0128197Y0039429D01*
X0128112Y0039419D01*
X0128027Y0039406D01*
X0127943Y0039389D01*
X0127859Y0039369D01*
X0127777Y0039345D01*
X0127696Y0039317D01*
X0127615Y0039286D01*
X0127537Y0039252D01*
X0127460Y0039214D01*
X0127385Y0039172D01*
X0127311Y0039128D01*
X0127240Y0039080D01*
X0127170Y0039029D01*
X0127103Y0038975D01*
X0127039Y0038919D01*
X0126977Y0038859D01*
X0126917Y0038797D01*
X0126861Y0038733D01*
X0126807Y0038666D01*
X0126756Y0038596D01*
X0126708Y0038525D01*
X0126664Y0038452D01*
X0126622Y0038376D01*
X0126584Y0038299D01*
X0126550Y0038221D01*
X0126519Y0038140D01*
X0126491Y0038059D01*
X0126467Y0037977D01*
X0126447Y0037893D01*
X0126430Y0037809D01*
X0126417Y0037724D01*
X0126407Y0037639D01*
X0126402Y0037553D01*
X0126400Y0037467D01*
X0118526Y0037467D02*
X0118524Y0037553D01*
X0118519Y0037639D01*
X0118509Y0037724D01*
X0118496Y0037809D01*
X0118479Y0037893D01*
X0118459Y0037977D01*
X0118435Y0038059D01*
X0118407Y0038140D01*
X0118376Y0038221D01*
X0118342Y0038299D01*
X0118304Y0038376D01*
X0118262Y0038452D01*
X0118218Y0038525D01*
X0118170Y0038596D01*
X0118119Y0038666D01*
X0118065Y0038733D01*
X0118009Y0038797D01*
X0117949Y0038859D01*
X0117887Y0038919D01*
X0117823Y0038975D01*
X0117756Y0039029D01*
X0117686Y0039080D01*
X0117615Y0039128D01*
X0117542Y0039172D01*
X0117466Y0039214D01*
X0117389Y0039252D01*
X0117311Y0039286D01*
X0117230Y0039317D01*
X0117149Y0039345D01*
X0117067Y0039369D01*
X0116983Y0039389D01*
X0116899Y0039406D01*
X0116814Y0039419D01*
X0116729Y0039429D01*
X0116643Y0039434D01*
X0116557Y0039436D01*
X0116557Y0039435D02*
X0112620Y0039435D01*
X0112620Y0039436D02*
X0112534Y0039434D01*
X0112448Y0039429D01*
X0112363Y0039419D01*
X0112278Y0039406D01*
X0112194Y0039389D01*
X0112110Y0039369D01*
X0112028Y0039345D01*
X0111947Y0039317D01*
X0111866Y0039286D01*
X0111788Y0039252D01*
X0111711Y0039214D01*
X0111636Y0039172D01*
X0111562Y0039128D01*
X0111491Y0039080D01*
X0111421Y0039029D01*
X0111354Y0038975D01*
X0111290Y0038919D01*
X0111228Y0038859D01*
X0111168Y0038797D01*
X0111112Y0038733D01*
X0111058Y0038666D01*
X0111007Y0038596D01*
X0110959Y0038525D01*
X0110915Y0038452D01*
X0110873Y0038376D01*
X0110835Y0038299D01*
X0110801Y0038221D01*
X0110770Y0038140D01*
X0110742Y0038059D01*
X0110718Y0037977D01*
X0110698Y0037893D01*
X0110681Y0037809D01*
X0110668Y0037724D01*
X0110658Y0037639D01*
X0110653Y0037553D01*
X0110651Y0037467D01*
X0110652Y0037467D02*
X0110652Y0025656D01*
X0134274Y0025656D01*
X0061439Y0025656D02*
X0061439Y0037467D01*
X0061440Y0037467D02*
X0061438Y0037553D01*
X0061433Y0037639D01*
X0061423Y0037724D01*
X0061410Y0037809D01*
X0061393Y0037893D01*
X0061373Y0037977D01*
X0061349Y0038059D01*
X0061321Y0038140D01*
X0061290Y0038221D01*
X0061256Y0038299D01*
X0061218Y0038376D01*
X0061176Y0038452D01*
X0061132Y0038525D01*
X0061084Y0038596D01*
X0061033Y0038666D01*
X0060979Y0038733D01*
X0060923Y0038797D01*
X0060863Y0038859D01*
X0060801Y0038919D01*
X0060737Y0038975D01*
X0060670Y0039029D01*
X0060600Y0039080D01*
X0060529Y0039128D01*
X0060456Y0039172D01*
X0060380Y0039214D01*
X0060303Y0039252D01*
X0060225Y0039286D01*
X0060144Y0039317D01*
X0060063Y0039345D01*
X0059981Y0039369D01*
X0059897Y0039389D01*
X0059813Y0039406D01*
X0059728Y0039419D01*
X0059643Y0039429D01*
X0059557Y0039434D01*
X0059471Y0039436D01*
X0059471Y0039435D02*
X0055534Y0039435D01*
X0055534Y0039436D02*
X0055448Y0039434D01*
X0055362Y0039429D01*
X0055277Y0039419D01*
X0055192Y0039406D01*
X0055108Y0039389D01*
X0055024Y0039369D01*
X0054942Y0039345D01*
X0054861Y0039317D01*
X0054780Y0039286D01*
X0054702Y0039252D01*
X0054625Y0039214D01*
X0054550Y0039172D01*
X0054476Y0039128D01*
X0054405Y0039080D01*
X0054335Y0039029D01*
X0054268Y0038975D01*
X0054204Y0038919D01*
X0054142Y0038859D01*
X0054082Y0038797D01*
X0054026Y0038733D01*
X0053972Y0038666D01*
X0053921Y0038596D01*
X0053873Y0038525D01*
X0053829Y0038452D01*
X0053787Y0038376D01*
X0053749Y0038299D01*
X0053715Y0038221D01*
X0053684Y0038140D01*
X0053656Y0038059D01*
X0053632Y0037977D01*
X0053612Y0037893D01*
X0053595Y0037809D01*
X0053582Y0037724D01*
X0053572Y0037639D01*
X0053567Y0037553D01*
X0053565Y0037467D01*
X0045692Y0037467D02*
X0045690Y0037553D01*
X0045685Y0037639D01*
X0045675Y0037724D01*
X0045662Y0037809D01*
X0045645Y0037893D01*
X0045625Y0037977D01*
X0045601Y0038059D01*
X0045573Y0038140D01*
X0045542Y0038221D01*
X0045508Y0038299D01*
X0045470Y0038376D01*
X0045428Y0038452D01*
X0045384Y0038525D01*
X0045336Y0038596D01*
X0045285Y0038666D01*
X0045231Y0038733D01*
X0045175Y0038797D01*
X0045115Y0038859D01*
X0045053Y0038919D01*
X0044989Y0038975D01*
X0044922Y0039029D01*
X0044852Y0039080D01*
X0044781Y0039128D01*
X0044708Y0039172D01*
X0044632Y0039214D01*
X0044555Y0039252D01*
X0044477Y0039286D01*
X0044396Y0039317D01*
X0044315Y0039345D01*
X0044233Y0039369D01*
X0044149Y0039389D01*
X0044065Y0039406D01*
X0043980Y0039419D01*
X0043895Y0039429D01*
X0043809Y0039434D01*
X0043723Y0039436D01*
X0043723Y0039435D02*
X0039786Y0039435D01*
X0039786Y0039436D02*
X0039700Y0039434D01*
X0039614Y0039429D01*
X0039529Y0039419D01*
X0039444Y0039406D01*
X0039360Y0039389D01*
X0039276Y0039369D01*
X0039194Y0039345D01*
X0039113Y0039317D01*
X0039032Y0039286D01*
X0038954Y0039252D01*
X0038877Y0039214D01*
X0038802Y0039172D01*
X0038728Y0039128D01*
X0038657Y0039080D01*
X0038587Y0039029D01*
X0038520Y0038975D01*
X0038456Y0038919D01*
X0038394Y0038859D01*
X0038334Y0038797D01*
X0038278Y0038733D01*
X0038224Y0038666D01*
X0038173Y0038596D01*
X0038125Y0038525D01*
X0038081Y0038452D01*
X0038039Y0038376D01*
X0038001Y0038299D01*
X0037967Y0038221D01*
X0037936Y0038140D01*
X0037908Y0038059D01*
X0037884Y0037977D01*
X0037864Y0037893D01*
X0037847Y0037809D01*
X0037834Y0037724D01*
X0037824Y0037639D01*
X0037819Y0037553D01*
X0037817Y0037467D01*
X0037817Y0025656D01*
X0061439Y0025656D01*
X0045066Y0069524D02*
X0042063Y0069524D01*
X0043565Y0069524D02*
X0043565Y0074028D01*
X0042063Y0072526D01*
X0092063Y0088274D02*
X0092814Y0087524D01*
X0094315Y0087524D01*
X0095066Y0088274D01*
X0095066Y0089025D01*
X0094315Y0089776D01*
X0092063Y0089776D01*
X0092063Y0088274D01*
X0092063Y0089776D02*
X0093565Y0091277D01*
X0095066Y0092028D01*
X0107949Y0079688D02*
X0108850Y0080589D01*
X0109751Y0079688D01*
X0109751Y0077887D01*
X0110896Y0078337D02*
X0111346Y0077887D01*
X0112697Y0077887D01*
X0112697Y0079688D01*
X0113842Y0079688D02*
X0114743Y0079688D01*
X0114293Y0080139D02*
X0114293Y0078337D01*
X0114743Y0077887D01*
X0115807Y0078337D02*
X0115807Y0079238D01*
X0116257Y0079688D01*
X0117158Y0079688D01*
X0117608Y0079238D01*
X0117608Y0078337D01*
X0117158Y0077887D01*
X0116257Y0077887D01*
X0115807Y0078337D01*
X0118753Y0079238D02*
X0119654Y0079238D01*
X0119203Y0080139D02*
X0119203Y0077887D01*
X0120717Y0078337D02*
X0121168Y0078787D01*
X0122519Y0078787D01*
X0122519Y0079238D02*
X0122519Y0077887D01*
X0121168Y0077887D01*
X0120717Y0078337D01*
X0121168Y0079688D02*
X0122069Y0079688D01*
X0122519Y0079238D01*
X0123664Y0079688D02*
X0125015Y0079688D01*
X0125466Y0079238D01*
X0125466Y0078337D01*
X0125015Y0077887D01*
X0123664Y0077887D01*
X0123664Y0080589D01*
X0126610Y0079688D02*
X0126610Y0077887D01*
X0126610Y0078787D02*
X0127511Y0079688D01*
X0127962Y0079688D01*
X0129066Y0079688D02*
X0129516Y0079688D01*
X0129516Y0077887D01*
X0129066Y0077887D02*
X0129967Y0077887D01*
X0131030Y0078337D02*
X0131481Y0077887D01*
X0132832Y0077887D01*
X0133977Y0078337D02*
X0134427Y0078787D01*
X0135778Y0078787D01*
X0135778Y0079238D02*
X0135778Y0077887D01*
X0134427Y0077887D01*
X0133977Y0078337D01*
X0134427Y0079688D02*
X0135328Y0079688D01*
X0135778Y0079238D01*
X0136923Y0079688D02*
X0138274Y0079688D01*
X0138725Y0079238D01*
X0138725Y0077887D01*
X0140320Y0078337D02*
X0140771Y0077887D01*
X0140320Y0078337D02*
X0140320Y0080139D01*
X0139870Y0079688D02*
X0140771Y0079688D01*
X0141834Y0079238D02*
X0142285Y0079688D01*
X0143185Y0079688D01*
X0143636Y0079238D01*
X0143636Y0078787D01*
X0141834Y0078787D01*
X0141834Y0078337D02*
X0141834Y0079238D01*
X0141834Y0078337D02*
X0142285Y0077887D01*
X0143185Y0077887D01*
X0144781Y0077887D02*
X0146132Y0077887D01*
X0146582Y0078337D01*
X0146132Y0078787D01*
X0145231Y0078787D01*
X0144781Y0079238D01*
X0145231Y0079688D01*
X0146582Y0079688D01*
X0150674Y0077887D02*
X0152475Y0080589D01*
X0156567Y0080589D02*
X0156567Y0078337D01*
X0157017Y0077887D01*
X0157918Y0077887D01*
X0158368Y0078337D01*
X0158368Y0080589D01*
X0159513Y0079688D02*
X0160864Y0079688D01*
X0161315Y0079238D01*
X0161315Y0077887D01*
X0159513Y0077887D02*
X0159513Y0079688D01*
X0165406Y0079688D02*
X0165857Y0079688D01*
X0165857Y0077887D01*
X0166307Y0077887D02*
X0165406Y0077887D01*
X0167371Y0077887D02*
X0167371Y0079688D01*
X0168722Y0079688D01*
X0169172Y0079238D01*
X0169172Y0077887D01*
X0170317Y0077887D02*
X0171668Y0077887D01*
X0172119Y0078337D01*
X0171668Y0078787D01*
X0170768Y0078787D01*
X0170317Y0079238D01*
X0170768Y0079688D01*
X0172119Y0079688D01*
X0173264Y0079688D02*
X0174164Y0079688D01*
X0173714Y0080139D02*
X0173714Y0078337D01*
X0174164Y0077887D01*
X0175228Y0077887D02*
X0175228Y0079688D01*
X0175228Y0078787D02*
X0176129Y0079688D01*
X0176579Y0079688D01*
X0177683Y0079688D02*
X0177683Y0078337D01*
X0178134Y0077887D01*
X0179485Y0077887D01*
X0179485Y0079688D01*
X0180630Y0079688D02*
X0181080Y0079688D01*
X0181531Y0079238D01*
X0181981Y0079688D01*
X0182432Y0079238D01*
X0182432Y0077887D01*
X0181531Y0077887D02*
X0181531Y0079238D01*
X0180630Y0079688D02*
X0180630Y0077887D01*
X0183577Y0078337D02*
X0183577Y0079238D01*
X0184027Y0079688D01*
X0184928Y0079688D01*
X0185378Y0079238D01*
X0185378Y0078787D01*
X0183577Y0078787D01*
X0183577Y0078337D02*
X0184027Y0077887D01*
X0184928Y0077887D01*
X0186523Y0077887D02*
X0186523Y0079688D01*
X0187874Y0079688D01*
X0188325Y0079238D01*
X0188325Y0077887D01*
X0189920Y0078337D02*
X0190370Y0077887D01*
X0189920Y0078337D02*
X0189920Y0080139D01*
X0189470Y0079688D02*
X0190370Y0079688D01*
X0191434Y0079238D02*
X0191434Y0078337D01*
X0191884Y0077887D01*
X0192785Y0077887D01*
X0193235Y0078337D01*
X0193235Y0079238D01*
X0192785Y0079688D01*
X0191884Y0079688D01*
X0191434Y0079238D01*
X0197327Y0079688D02*
X0197327Y0076986D01*
X0197327Y0077887D02*
X0198678Y0077887D01*
X0199128Y0078337D01*
X0199128Y0079238D01*
X0198678Y0079688D01*
X0197327Y0079688D01*
X0200273Y0078337D02*
X0200724Y0078787D01*
X0202075Y0078787D01*
X0202075Y0079238D02*
X0202075Y0077887D01*
X0200724Y0077887D01*
X0200273Y0078337D01*
X0200724Y0079688D02*
X0201625Y0079688D01*
X0202075Y0079238D01*
X0203220Y0079688D02*
X0203220Y0077887D01*
X0203220Y0078787D02*
X0204121Y0079688D01*
X0204571Y0079688D01*
X0206126Y0079688D02*
X0207027Y0079688D01*
X0207477Y0079238D01*
X0207477Y0077887D01*
X0206126Y0077887D01*
X0205675Y0078337D01*
X0206126Y0078787D01*
X0207477Y0078787D01*
X0211568Y0079238D02*
X0213370Y0079238D01*
X0214515Y0079238D02*
X0214965Y0079688D01*
X0215866Y0079688D01*
X0216316Y0079238D01*
X0216316Y0078787D01*
X0214515Y0078787D01*
X0214515Y0078337D02*
X0214515Y0079238D01*
X0214515Y0078337D02*
X0214965Y0077887D01*
X0215866Y0077887D01*
X0217461Y0077887D02*
X0217461Y0079688D01*
X0218813Y0079688D01*
X0219263Y0079238D01*
X0219263Y0077887D01*
X0220408Y0078337D02*
X0220858Y0078787D01*
X0222210Y0078787D01*
X0222210Y0079238D02*
X0222210Y0077887D01*
X0220858Y0077887D01*
X0220408Y0078337D01*
X0220858Y0079688D02*
X0221759Y0079688D01*
X0222210Y0079238D01*
X0223354Y0079688D02*
X0223354Y0077887D01*
X0223354Y0078787D02*
X0224255Y0079688D01*
X0224706Y0079688D01*
X0213370Y0080589D02*
X0213370Y0077887D01*
X0211568Y0077887D02*
X0211568Y0080589D01*
X0165857Y0080589D02*
X0165857Y0081039D01*
X0136923Y0079688D02*
X0136923Y0077887D01*
X0132832Y0079688D02*
X0131481Y0079688D01*
X0131030Y0079238D01*
X0131030Y0078337D01*
X0129516Y0080589D02*
X0129516Y0081039D01*
X0119654Y0080589D02*
X0119203Y0080139D01*
X0110896Y0079688D02*
X0110896Y0078337D01*
X0109751Y0079238D02*
X0107949Y0079238D01*
X0107949Y0079688D02*
X0107949Y0077887D01*
X0108400Y0075789D02*
X0107949Y0075339D01*
X0107949Y0074888D01*
X0108400Y0074438D01*
X0109300Y0074438D01*
X0109751Y0073987D01*
X0109751Y0073537D01*
X0109300Y0073087D01*
X0108400Y0073087D01*
X0107949Y0073537D01*
X0110896Y0073087D02*
X0112247Y0073087D01*
X0112697Y0073537D01*
X0112697Y0074438D01*
X0112247Y0074888D01*
X0110896Y0074888D01*
X0110896Y0072186D01*
X0113842Y0073537D02*
X0114293Y0073987D01*
X0115644Y0073987D01*
X0115644Y0074438D02*
X0115644Y0073087D01*
X0114293Y0073087D01*
X0113842Y0073537D01*
X0114293Y0074888D02*
X0115193Y0074888D01*
X0115644Y0074438D01*
X0116789Y0074888D02*
X0117239Y0074888D01*
X0117239Y0073087D01*
X0116789Y0073087D02*
X0117690Y0073087D01*
X0118753Y0073087D02*
X0118753Y0074888D01*
X0120104Y0074888D01*
X0120555Y0074438D01*
X0120555Y0073087D01*
X0121700Y0072186D02*
X0122600Y0073087D01*
X0122150Y0073087D01*
X0122150Y0073537D01*
X0122600Y0073537D01*
X0122600Y0073087D01*
X0126610Y0073087D02*
X0128412Y0074888D01*
X0128412Y0075339D01*
X0127962Y0075789D01*
X0127061Y0075789D01*
X0126610Y0075339D01*
X0129557Y0075339D02*
X0130007Y0075789D01*
X0130908Y0075789D01*
X0131359Y0075339D01*
X0129557Y0073537D01*
X0130007Y0073087D01*
X0130908Y0073087D01*
X0131359Y0073537D01*
X0131359Y0075339D01*
X0132504Y0075339D02*
X0132954Y0075789D01*
X0133855Y0075789D01*
X0134305Y0075339D01*
X0134305Y0074888D01*
X0132504Y0073087D01*
X0134305Y0073087D01*
X0135450Y0073537D02*
X0137252Y0075339D01*
X0137252Y0073537D01*
X0136801Y0073087D01*
X0135900Y0073087D01*
X0135450Y0073537D01*
X0135450Y0075339D01*
X0135900Y0075789D01*
X0136801Y0075789D01*
X0137252Y0075339D01*
X0129557Y0075339D02*
X0129557Y0073537D01*
X0128412Y0073087D02*
X0126610Y0073087D01*
X0117239Y0075789D02*
X0117239Y0076239D01*
X0109751Y0075339D02*
X0109300Y0075789D01*
X0108400Y0075789D01*
D14*
X0120354Y0082945D02*
X0124090Y0082945D01*
X0126431Y0083879D02*
X0126431Y0089484D01*
X0129233Y0089484D01*
X0130167Y0088550D01*
X0130167Y0086682D01*
X0129233Y0085747D01*
X0126431Y0085747D01*
X0132508Y0084813D02*
X0133442Y0083879D01*
X0136244Y0083879D01*
X0136244Y0086682D01*
X0135310Y0087616D01*
X0133442Y0087616D01*
X0133442Y0085747D02*
X0136244Y0085747D01*
X0138585Y0084813D02*
X0138585Y0086682D01*
X0139519Y0087616D01*
X0142322Y0087616D01*
X0144662Y0088550D02*
X0144662Y0084813D01*
X0145596Y0083879D01*
X0147465Y0083879D01*
X0148399Y0084813D01*
X0150740Y0084813D02*
X0151674Y0083879D01*
X0153542Y0083879D01*
X0154476Y0084813D01*
X0154476Y0086682D01*
X0153542Y0087616D01*
X0151674Y0087616D01*
X0150740Y0086682D01*
X0150740Y0084813D01*
X0156817Y0083879D02*
X0156817Y0087616D01*
X0159619Y0087616D01*
X0160553Y0086682D01*
X0160553Y0083879D01*
X0163828Y0084813D02*
X0164762Y0083879D01*
X0163828Y0084813D02*
X0163828Y0088550D01*
X0162894Y0087616D02*
X0164762Y0087616D01*
X0166945Y0087616D02*
X0166945Y0083879D01*
X0166945Y0085747D02*
X0168814Y0087616D01*
X0169748Y0087616D01*
X0172010Y0086682D02*
X0172010Y0084813D01*
X0172944Y0083879D01*
X0174812Y0083879D01*
X0175746Y0084813D01*
X0175746Y0086682D01*
X0174812Y0087616D01*
X0172944Y0087616D01*
X0172010Y0086682D01*
X0178087Y0089484D02*
X0179021Y0089484D01*
X0179021Y0083879D01*
X0178087Y0083879D02*
X0179955Y0083879D01*
X0182138Y0083879D02*
X0184007Y0083879D01*
X0183072Y0083879D02*
X0183072Y0089484D01*
X0182138Y0089484D01*
X0186190Y0086682D02*
X0187124Y0087616D01*
X0188992Y0087616D01*
X0189926Y0086682D01*
X0189926Y0085747D01*
X0186190Y0085747D01*
X0186190Y0084813D02*
X0186190Y0086682D01*
X0186190Y0084813D02*
X0187124Y0083879D01*
X0188992Y0083879D01*
X0192267Y0083879D02*
X0192267Y0087616D01*
X0194135Y0087616D02*
X0195069Y0087616D01*
X0194135Y0087616D02*
X0192267Y0085747D01*
X0197331Y0082945D02*
X0201068Y0082945D01*
X0203408Y0083879D02*
X0203408Y0089484D01*
X0206211Y0089484D01*
X0207145Y0088550D01*
X0207145Y0086682D01*
X0206211Y0085747D01*
X0203408Y0085747D01*
X0205277Y0085747D02*
X0207145Y0083879D01*
X0209486Y0084813D02*
X0209486Y0086682D01*
X0210420Y0087616D01*
X0212288Y0087616D01*
X0213222Y0086682D01*
X0213222Y0085747D01*
X0209486Y0085747D01*
X0209486Y0084813D02*
X0210420Y0083879D01*
X0212288Y0083879D01*
X0215563Y0087616D02*
X0217431Y0083879D01*
X0219299Y0087616D01*
X0227717Y0087616D02*
X0229586Y0089484D01*
X0229586Y0083879D01*
X0231454Y0083879D02*
X0227717Y0083879D01*
X0225377Y0082945D02*
X0221640Y0082945D01*
X0148399Y0088550D02*
X0147465Y0089484D01*
X0145596Y0089484D01*
X0144662Y0088550D01*
X0142322Y0089484D02*
X0142322Y0083879D01*
X0139519Y0083879D01*
X0138585Y0084813D01*
X0133442Y0085747D02*
X0132508Y0084813D01*
X0118013Y0086682D02*
X0114276Y0086682D01*
X0117079Y0089484D01*
X0117079Y0083879D01*
X0111936Y0083879D02*
X0111936Y0089484D01*
X0108199Y0089484D02*
X0108199Y0083879D01*
X0108199Y0086682D02*
X0111936Y0086682D01*
D15*
X0099313Y0083274D02*
X0099313Y0078274D01*
X0096813Y0075774D01*
X0091813Y0075774D01*
X0089313Y0078274D01*
X0086813Y0075774D01*
X0081813Y0075774D01*
X0079313Y0078274D01*
X0076813Y0075774D01*
X0071813Y0075774D01*
X0069313Y0078274D01*
X0066813Y0075774D01*
X0061813Y0075774D01*
X0059313Y0078274D01*
X0056813Y0075774D01*
X0051813Y0075774D01*
X0049313Y0078274D01*
X0046813Y0075774D01*
X0041813Y0075774D01*
X0039313Y0078274D01*
X0039313Y0083274D01*
X0041813Y0085774D01*
X0046813Y0085774D01*
X0049313Y0083274D01*
X0051813Y0085774D01*
X0056813Y0085774D01*
X0059313Y0083274D01*
X0061813Y0085774D01*
X0066813Y0085774D01*
X0069313Y0083274D01*
X0071813Y0085774D01*
X0076813Y0085774D01*
X0079313Y0083274D01*
X0081813Y0085774D01*
X0086813Y0085774D01*
X0089313Y0083274D01*
X0091813Y0085774D01*
X0096813Y0085774D01*
X0099313Y0083274D01*
X0106446Y0069055D02*
X0106446Y0066786D01*
X0106446Y0067921D02*
X0103044Y0067921D01*
X0104178Y0066786D01*
X0103611Y0065372D02*
X0105879Y0063103D01*
X0106446Y0063670D01*
X0106446Y0064805D01*
X0105879Y0065372D01*
X0103611Y0065372D01*
X0103044Y0064805D01*
X0103044Y0063670D01*
X0103611Y0063103D01*
X0105879Y0063103D01*
X0107014Y0061689D02*
X0107014Y0059420D01*
X0105879Y0058006D02*
X0103611Y0058006D01*
X0103044Y0057438D01*
X0103044Y0055737D01*
X0106446Y0055737D01*
X0106446Y0057438D01*
X0105879Y0058006D01*
X0106446Y0054322D02*
X0106446Y0052054D01*
X0103044Y0052054D01*
X0103044Y0054322D01*
X0104745Y0053188D02*
X0104745Y0052054D01*
X0106446Y0050639D02*
X0106446Y0048371D01*
X0103044Y0048371D01*
X0071013Y0048371D02*
X0071013Y0050639D01*
X0071013Y0052054D02*
X0067610Y0052054D01*
X0067610Y0054322D01*
X0067610Y0055737D02*
X0067610Y0057438D01*
X0068178Y0058006D01*
X0070446Y0058006D01*
X0071013Y0057438D01*
X0071013Y0055737D01*
X0067610Y0055737D01*
X0071013Y0054322D02*
X0071013Y0052054D01*
X0069312Y0052054D02*
X0069312Y0053188D01*
X0067610Y0048371D02*
X0071013Y0048371D01*
X0071478Y0037940D02*
X0069209Y0037940D01*
X0068642Y0037373D01*
X0068642Y0035671D01*
X0072045Y0035671D01*
X0072045Y0037373D01*
X0071478Y0037940D01*
X0066045Y0037373D02*
X0066045Y0035671D01*
X0062642Y0035671D01*
X0062642Y0037373D01*
X0063209Y0037940D01*
X0065478Y0037940D01*
X0066045Y0037373D01*
X0066045Y0034257D02*
X0063776Y0034257D01*
X0062642Y0033122D01*
X0063776Y0031988D01*
X0066045Y0031988D01*
X0064343Y0031988D02*
X0064343Y0034257D01*
X0068642Y0034257D02*
X0072045Y0034257D01*
X0068642Y0031988D01*
X0072045Y0031988D01*
X0071478Y0030574D02*
X0070343Y0030574D01*
X0070343Y0029439D01*
X0069209Y0028305D02*
X0068642Y0028872D01*
X0068642Y0030006D01*
X0069209Y0030574D01*
X0071478Y0030574D02*
X0072045Y0030006D01*
X0072045Y0028872D01*
X0071478Y0028305D01*
X0069209Y0028305D01*
X0066045Y0028305D02*
X0062642Y0028305D01*
X0062642Y0030006D01*
X0063209Y0030574D01*
X0064343Y0030574D01*
X0064911Y0030006D01*
X0064911Y0028305D01*
X0135477Y0028305D02*
X0135477Y0030006D01*
X0136044Y0030574D01*
X0137178Y0030574D01*
X0137745Y0030006D01*
X0137745Y0028305D01*
X0138880Y0028305D02*
X0135477Y0028305D01*
X0141477Y0030714D02*
X0142044Y0030146D01*
X0144312Y0030146D01*
X0142044Y0032415D01*
X0144312Y0032415D01*
X0144880Y0031848D01*
X0144880Y0030714D01*
X0144312Y0030146D01*
X0141477Y0030714D02*
X0141477Y0031848D01*
X0142044Y0032415D01*
X0142044Y0033830D02*
X0141477Y0034397D01*
X0141477Y0035531D01*
X0142044Y0036098D01*
X0144312Y0033830D01*
X0144880Y0034397D01*
X0144880Y0035531D01*
X0144312Y0036098D01*
X0142044Y0036098D01*
X0138880Y0035671D02*
X0138880Y0037373D01*
X0138312Y0037940D01*
X0136044Y0037940D01*
X0135477Y0037373D01*
X0135477Y0035671D01*
X0138880Y0035671D01*
X0138880Y0034257D02*
X0136611Y0034257D01*
X0135477Y0033122D01*
X0136611Y0031988D01*
X0138880Y0031988D01*
X0137178Y0031988D02*
X0137178Y0034257D01*
X0142044Y0033830D02*
X0144312Y0033830D01*
X0170910Y0033122D02*
X0172044Y0034257D01*
X0174313Y0034257D01*
X0174313Y0035671D02*
X0174313Y0037373D01*
X0173745Y0037940D01*
X0171477Y0037940D01*
X0170910Y0037373D01*
X0170910Y0035671D01*
X0174313Y0035671D01*
X0172611Y0034257D02*
X0172611Y0031988D01*
X0172044Y0031988D02*
X0170910Y0033122D01*
X0172044Y0031988D02*
X0174313Y0031988D01*
X0172611Y0030574D02*
X0173178Y0030006D01*
X0173178Y0028305D01*
X0174313Y0028305D02*
X0170910Y0028305D01*
X0170910Y0030006D01*
X0171477Y0030574D01*
X0172611Y0030574D01*
X0176910Y0030714D02*
X0177477Y0030146D01*
X0179745Y0030146D01*
X0177477Y0032415D01*
X0179745Y0032415D01*
X0180313Y0031848D01*
X0180313Y0030714D01*
X0179745Y0030146D01*
X0176910Y0030714D02*
X0176910Y0031848D01*
X0177477Y0032415D01*
X0178044Y0033830D02*
X0176910Y0034964D01*
X0180313Y0034964D01*
X0180313Y0033830D02*
X0180313Y0036098D01*
X0206343Y0035671D02*
X0206343Y0037373D01*
X0206910Y0037940D01*
X0209179Y0037940D01*
X0209746Y0037373D01*
X0209746Y0035671D01*
X0206343Y0035671D01*
X0207477Y0034257D02*
X0209746Y0034257D01*
X0208044Y0034257D02*
X0208044Y0031988D01*
X0207477Y0031988D02*
X0206343Y0033122D01*
X0207477Y0034257D01*
X0212343Y0034397D02*
X0212910Y0033830D01*
X0212343Y0034397D02*
X0212343Y0035531D01*
X0212910Y0036098D01*
X0213477Y0036098D01*
X0215746Y0033830D01*
X0215746Y0036098D01*
X0215179Y0032415D02*
X0212910Y0032415D01*
X0215179Y0030146D01*
X0215746Y0030714D01*
X0215746Y0031848D01*
X0215179Y0032415D01*
X0212910Y0032415D02*
X0212343Y0031848D01*
X0212343Y0030714D01*
X0212910Y0030146D01*
X0215179Y0030146D01*
X0209746Y0028305D02*
X0206343Y0028305D01*
X0206343Y0030006D01*
X0206910Y0030574D01*
X0208044Y0030574D01*
X0208611Y0030006D01*
X0208611Y0028305D01*
X0209746Y0031988D02*
X0207477Y0031988D01*
X0241776Y0033122D02*
X0242910Y0031988D01*
X0245179Y0031988D01*
X0243477Y0031988D02*
X0243477Y0034257D01*
X0242910Y0034257D02*
X0245179Y0034257D01*
X0245179Y0035671D02*
X0241776Y0035671D01*
X0241776Y0037373D01*
X0242343Y0037940D01*
X0244612Y0037940D01*
X0245179Y0037373D01*
X0245179Y0035671D01*
X0247776Y0035531D02*
X0247776Y0034397D01*
X0248343Y0033830D01*
X0248343Y0032415D02*
X0250612Y0030146D01*
X0251179Y0030714D01*
X0251179Y0031848D01*
X0250612Y0032415D01*
X0248343Y0032415D01*
X0247776Y0031848D01*
X0247776Y0030714D01*
X0248343Y0030146D01*
X0250612Y0030146D01*
X0245179Y0028305D02*
X0241776Y0028305D01*
X0241776Y0030006D01*
X0242343Y0030574D01*
X0243477Y0030574D01*
X0244044Y0030006D01*
X0244044Y0028305D01*
X0241776Y0033122D02*
X0242910Y0034257D01*
X0247776Y0035531D02*
X0248343Y0036098D01*
X0248910Y0036098D01*
X0249477Y0035531D01*
X0250044Y0036098D01*
X0250612Y0036098D01*
X0251179Y0035531D01*
X0251179Y0034397D01*
X0250612Y0033830D01*
X0249477Y0034964D02*
X0249477Y0035531D01*
X0248179Y0048371D02*
X0244776Y0048371D01*
X0248179Y0048371D02*
X0248179Y0050639D01*
X0248179Y0052054D02*
X0244776Y0052054D01*
X0244776Y0054322D01*
X0244776Y0055737D02*
X0244776Y0057438D01*
X0245343Y0058006D01*
X0247612Y0058006D01*
X0248179Y0057438D01*
X0248179Y0055737D01*
X0244776Y0055737D01*
X0248179Y0054322D02*
X0248179Y0052054D01*
X0246477Y0052054D02*
X0246477Y0053188D01*
X0248746Y0059420D02*
X0248746Y0061689D01*
X0247612Y0063103D02*
X0245343Y0063103D01*
X0244776Y0063670D01*
X0244776Y0064805D01*
X0245343Y0065372D01*
X0247612Y0063103D01*
X0248179Y0063670D01*
X0248179Y0064805D01*
X0247612Y0065372D01*
X0245343Y0065372D01*
X0244776Y0066786D02*
X0246477Y0066786D01*
X0245910Y0067921D01*
X0245910Y0068488D01*
X0246477Y0069055D01*
X0247612Y0069055D01*
X0248179Y0068488D01*
X0248179Y0067354D01*
X0247612Y0066786D01*
X0244776Y0066786D02*
X0244776Y0069055D01*
X0213313Y0061689D02*
X0213313Y0059420D01*
X0212179Y0058006D02*
X0209910Y0058006D01*
X0209343Y0057438D01*
X0209343Y0055737D01*
X0212746Y0055737D01*
X0212746Y0057438D01*
X0212179Y0058006D01*
X0212746Y0054322D02*
X0212746Y0052054D01*
X0209343Y0052054D01*
X0209343Y0054322D01*
X0211044Y0053188D02*
X0211044Y0052054D01*
X0212746Y0050639D02*
X0212746Y0048371D01*
X0209343Y0048371D01*
X0177313Y0048371D02*
X0177313Y0050639D01*
X0177313Y0052054D02*
X0173910Y0052054D01*
X0173910Y0054322D01*
X0173910Y0055737D02*
X0173910Y0057438D01*
X0174477Y0058006D01*
X0176745Y0058006D01*
X0177313Y0057438D01*
X0177313Y0055737D01*
X0173910Y0055737D01*
X0177313Y0054322D02*
X0177313Y0052054D01*
X0175611Y0052054D02*
X0175611Y0053188D01*
X0173910Y0048371D02*
X0177313Y0048371D01*
X0177880Y0059420D02*
X0177880Y0061689D01*
X0176745Y0063103D02*
X0174477Y0063103D01*
X0173910Y0063670D01*
X0173910Y0064805D01*
X0174477Y0065372D01*
X0176745Y0063103D01*
X0177313Y0063670D01*
X0177313Y0064805D01*
X0176745Y0065372D01*
X0174477Y0065372D01*
X0174477Y0066786D02*
X0173910Y0067354D01*
X0173910Y0068488D01*
X0174477Y0069055D01*
X0175044Y0069055D01*
X0175611Y0068488D01*
X0176178Y0069055D01*
X0176745Y0069055D01*
X0177313Y0068488D01*
X0177313Y0067354D01*
X0176745Y0066786D01*
X0175611Y0067921D02*
X0175611Y0068488D01*
X0209343Y0068488D02*
X0211044Y0066786D01*
X0211044Y0069055D01*
X0212746Y0068488D02*
X0209343Y0068488D01*
X0209910Y0065372D02*
X0212179Y0063103D01*
X0212746Y0063670D01*
X0212746Y0064805D01*
X0212179Y0065372D01*
X0209910Y0065372D01*
X0209343Y0064805D01*
X0209343Y0063670D01*
X0209910Y0063103D01*
X0212179Y0063103D01*
X0142447Y0061689D02*
X0142447Y0059420D01*
X0141312Y0058006D02*
X0139044Y0058006D01*
X0138477Y0057438D01*
X0138477Y0055737D01*
X0141880Y0055737D01*
X0141880Y0057438D01*
X0141312Y0058006D01*
X0141880Y0054322D02*
X0141880Y0052054D01*
X0138477Y0052054D01*
X0138477Y0054322D01*
X0140178Y0053188D02*
X0140178Y0052054D01*
X0141880Y0050639D02*
X0141880Y0048371D01*
X0138477Y0048371D01*
X0139044Y0063103D02*
X0138477Y0063670D01*
X0138477Y0064805D01*
X0139044Y0065372D01*
X0141312Y0063103D01*
X0141880Y0063670D01*
X0141880Y0064805D01*
X0141312Y0065372D01*
X0139044Y0065372D01*
X0139044Y0066786D02*
X0138477Y0067354D01*
X0138477Y0068488D01*
X0139044Y0069055D01*
X0139611Y0069055D01*
X0141880Y0066786D01*
X0141880Y0069055D01*
X0141312Y0063103D02*
X0139044Y0063103D01*
X0071581Y0061689D02*
X0071581Y0059420D01*
X0070446Y0063103D02*
X0068178Y0063103D01*
X0067610Y0063670D01*
X0067610Y0064805D01*
X0068178Y0065372D01*
X0070446Y0063103D01*
X0071013Y0063670D01*
X0071013Y0064805D01*
X0070446Y0065372D01*
X0068178Y0065372D01*
X0068178Y0066786D02*
X0067610Y0067354D01*
X0067610Y0068488D01*
X0068178Y0069055D01*
X0070446Y0066786D01*
X0071013Y0067354D01*
X0071013Y0068488D01*
X0070446Y0069055D01*
X0068178Y0069055D01*
X0068178Y0066786D02*
X0070446Y0066786D01*
D16*
X0034913Y0064376D02*
X0034913Y0063041D01*
X0034913Y0064042D02*
X0033579Y0064042D01*
X0033579Y0064376D02*
X0034246Y0065043D01*
X0034913Y0064376D01*
X0033579Y0064376D02*
X0033579Y0063041D01*
X0032703Y0063375D02*
X0032703Y0064710D01*
X0032370Y0065043D01*
X0031369Y0065043D01*
X0031369Y0063041D01*
X0032370Y0063041D01*
X0032703Y0063375D01*
X0030494Y0063375D02*
X0030494Y0063709D01*
X0030160Y0064042D01*
X0029493Y0064042D01*
X0029159Y0064376D01*
X0029159Y0064710D01*
X0029493Y0065043D01*
X0030160Y0065043D01*
X0030494Y0064710D01*
X0030494Y0063375D02*
X0030160Y0063041D01*
X0029493Y0063041D01*
X0029159Y0063375D01*
X0029493Y0054216D02*
X0029159Y0053883D01*
X0029159Y0053549D01*
X0029493Y0053216D01*
X0030160Y0053216D01*
X0030494Y0052882D01*
X0030494Y0052548D01*
X0030160Y0052215D01*
X0029493Y0052215D01*
X0029159Y0052548D01*
X0030494Y0053883D02*
X0030160Y0054216D01*
X0029493Y0054216D01*
X0031369Y0053883D02*
X0031369Y0052548D01*
X0031703Y0052215D01*
X0032370Y0052215D01*
X0032703Y0052548D01*
X0033579Y0052215D02*
X0034913Y0052215D01*
X0033579Y0052215D02*
X0033579Y0054216D01*
X0032703Y0053883D02*
X0032370Y0054216D01*
X0031703Y0054216D01*
X0031369Y0053883D01*
X0056115Y0046342D02*
X0057116Y0046342D01*
X0057449Y0046009D01*
X0057449Y0045341D01*
X0057116Y0045008D01*
X0056115Y0045008D01*
X0056782Y0045008D02*
X0057449Y0044341D01*
X0058325Y0044007D02*
X0059659Y0044007D01*
X0060534Y0044341D02*
X0061869Y0044341D01*
X0062744Y0044341D02*
X0064079Y0044341D01*
X0064954Y0044341D02*
X0065955Y0044341D01*
X0066289Y0044674D01*
X0066289Y0046009D01*
X0065955Y0046342D01*
X0064954Y0046342D01*
X0064954Y0044341D01*
X0063412Y0045341D02*
X0062744Y0045341D01*
X0062744Y0044341D02*
X0062744Y0046342D01*
X0064079Y0046342D01*
X0060534Y0046342D02*
X0060534Y0044341D01*
X0056115Y0044341D02*
X0056115Y0046342D01*
X0034913Y0044040D02*
X0034913Y0042706D01*
X0034580Y0042372D01*
X0033579Y0042372D01*
X0033579Y0044374D01*
X0034580Y0044374D01*
X0034913Y0044040D01*
X0032703Y0044374D02*
X0032703Y0042372D01*
X0031369Y0044374D01*
X0031369Y0042372D01*
X0030494Y0042706D02*
X0030494Y0043373D01*
X0029826Y0043373D01*
X0029159Y0042706D02*
X0029493Y0042372D01*
X0030160Y0042372D01*
X0030494Y0042706D01*
X0029159Y0042706D02*
X0029159Y0044040D01*
X0029493Y0044374D01*
X0030160Y0044374D01*
X0030494Y0044040D01*
X0029826Y0072884D02*
X0030494Y0073551D01*
X0030494Y0074886D01*
X0031369Y0074886D02*
X0032036Y0074886D01*
X0031703Y0074886D02*
X0031703Y0072884D01*
X0032036Y0072884D02*
X0031369Y0072884D01*
X0032842Y0072884D02*
X0032842Y0074886D01*
X0034177Y0072884D01*
X0034177Y0074886D01*
X0029826Y0072884D02*
X0029159Y0073551D01*
X0029159Y0074886D01*
X0041926Y0087648D02*
X0042593Y0087648D01*
X0042927Y0087981D01*
X0042927Y0088649D01*
X0042259Y0088649D01*
X0041592Y0089316D02*
X0041592Y0087981D01*
X0041926Y0087648D01*
X0043802Y0087648D02*
X0043802Y0089649D01*
X0045137Y0087648D01*
X0045137Y0089649D01*
X0046012Y0089649D02*
X0047013Y0089649D01*
X0047346Y0089316D01*
X0047346Y0087981D01*
X0047013Y0087648D01*
X0046012Y0087648D01*
X0046012Y0089649D01*
X0042927Y0089316D02*
X0042593Y0089649D01*
X0041926Y0089649D01*
X0041592Y0089316D01*
X0052540Y0089649D02*
X0052540Y0088649D01*
X0053207Y0088982D01*
X0053541Y0088982D01*
X0053874Y0088649D01*
X0053874Y0087981D01*
X0053541Y0087648D01*
X0052873Y0087648D01*
X0052540Y0087981D01*
X0054750Y0088315D02*
X0055417Y0087648D01*
X0056084Y0088315D01*
X0056084Y0089649D01*
X0054750Y0089649D02*
X0054750Y0088315D01*
X0053874Y0089649D02*
X0052540Y0089649D01*
X0061277Y0089649D02*
X0061277Y0087648D01*
X0061277Y0088315D02*
X0062278Y0088315D01*
X0062612Y0088649D01*
X0062612Y0089316D01*
X0062278Y0089649D01*
X0061277Y0089649D01*
X0061945Y0088315D02*
X0062612Y0087648D01*
X0063487Y0087981D02*
X0063821Y0087648D01*
X0064488Y0087648D01*
X0064822Y0087981D01*
X0064822Y0088315D01*
X0064488Y0088649D01*
X0063821Y0088649D01*
X0063487Y0088982D01*
X0063487Y0089316D01*
X0063821Y0089649D01*
X0064488Y0089649D01*
X0064822Y0089316D01*
X0065697Y0089649D02*
X0067032Y0089649D01*
X0066364Y0089649D02*
X0066364Y0087648D01*
X0071120Y0087981D02*
X0071453Y0087648D01*
X0072121Y0087648D01*
X0072454Y0087981D01*
X0072454Y0088315D01*
X0072121Y0088649D01*
X0071453Y0088649D01*
X0071120Y0088982D01*
X0071120Y0089316D01*
X0071453Y0089649D01*
X0072121Y0089649D01*
X0072454Y0089316D01*
X0073330Y0089316D02*
X0073330Y0087981D01*
X0073663Y0087648D01*
X0074331Y0087648D01*
X0074664Y0087981D01*
X0075540Y0087648D02*
X0075540Y0089649D01*
X0074664Y0089316D02*
X0074331Y0089649D01*
X0073663Y0089649D01*
X0073330Y0089316D01*
X0075540Y0088315D02*
X0076874Y0089649D01*
X0075873Y0088649D02*
X0076874Y0087648D01*
X0080226Y0087648D02*
X0080226Y0089649D01*
X0080893Y0088982D01*
X0081560Y0089649D01*
X0081560Y0087648D01*
X0082436Y0087981D02*
X0082769Y0087648D01*
X0083436Y0087648D01*
X0083770Y0087981D01*
X0083770Y0089316D01*
X0083436Y0089649D01*
X0082769Y0089649D01*
X0082436Y0089316D01*
X0082436Y0087981D01*
X0084645Y0087981D02*
X0084979Y0087648D01*
X0085646Y0087648D01*
X0085980Y0087981D01*
X0085980Y0088315D01*
X0085646Y0088649D01*
X0084979Y0088649D01*
X0084645Y0088982D01*
X0084645Y0089316D01*
X0084979Y0089649D01*
X0085646Y0089649D01*
X0085980Y0089316D01*
X0086855Y0089649D02*
X0087523Y0089649D01*
X0087189Y0089649D02*
X0087189Y0087648D01*
X0086855Y0087648D02*
X0087523Y0087648D01*
X0091052Y0087648D02*
X0091052Y0089649D01*
X0091720Y0088982D01*
X0092387Y0089649D01*
X0092387Y0087648D01*
X0093262Y0087648D02*
X0093930Y0087648D01*
X0093596Y0087648D02*
X0093596Y0089649D01*
X0093262Y0089649D02*
X0093930Y0089649D01*
X0094736Y0089316D02*
X0094736Y0088982D01*
X0095069Y0088649D01*
X0095736Y0088649D01*
X0096070Y0088315D01*
X0096070Y0087981D01*
X0095736Y0087648D01*
X0095069Y0087648D01*
X0094736Y0087981D01*
X0096945Y0087981D02*
X0097279Y0087648D01*
X0097946Y0087648D01*
X0098280Y0087981D01*
X0098280Y0089316D01*
X0097946Y0089649D01*
X0097279Y0089649D01*
X0096945Y0089316D01*
X0096945Y0087981D01*
X0096070Y0089316D02*
X0095736Y0089649D01*
X0095069Y0089649D01*
X0094736Y0089316D01*
X0238258Y0086697D02*
X0238926Y0086697D01*
X0238592Y0086697D02*
X0238592Y0084695D01*
X0238258Y0084695D02*
X0238926Y0084695D01*
X0239732Y0084695D02*
X0241066Y0086029D01*
X0241066Y0086363D01*
X0240733Y0086697D01*
X0240065Y0086697D01*
X0239732Y0086363D01*
X0239732Y0084695D02*
X0241066Y0084695D01*
X0241942Y0085029D02*
X0241942Y0086363D01*
X0242275Y0086697D01*
X0242942Y0086697D01*
X0243276Y0086363D01*
X0244152Y0086029D02*
X0244152Y0085696D01*
X0244485Y0085696D01*
X0244485Y0086029D01*
X0244152Y0086029D01*
X0244152Y0085029D02*
X0244152Y0084695D01*
X0244485Y0084695D01*
X0244485Y0085029D01*
X0244152Y0085029D01*
X0243276Y0085029D02*
X0242942Y0084695D01*
X0242275Y0084695D01*
X0241942Y0085029D01*
X0260471Y0082760D02*
X0260471Y0081425D01*
X0261138Y0080758D01*
X0261805Y0081425D01*
X0261805Y0082760D01*
X0262681Y0082760D02*
X0263348Y0082760D01*
X0263014Y0082760D02*
X0263014Y0080758D01*
X0262681Y0080758D02*
X0263348Y0080758D01*
X0264154Y0080758D02*
X0264154Y0082760D01*
X0265488Y0080758D01*
X0265488Y0082760D01*
X0260567Y0074886D02*
X0260567Y0072884D01*
X0259233Y0074886D01*
X0259233Y0072884D01*
X0258427Y0072884D02*
X0257759Y0072884D01*
X0258093Y0072884D02*
X0258093Y0074886D01*
X0257759Y0074886D02*
X0258427Y0074886D01*
X0256884Y0074886D02*
X0256884Y0073551D01*
X0256217Y0072884D01*
X0255549Y0073551D01*
X0255549Y0074886D01*
X0255814Y0065043D02*
X0255146Y0065043D01*
X0254813Y0064710D01*
X0254813Y0064376D01*
X0255146Y0064042D01*
X0255814Y0064042D01*
X0256147Y0063709D01*
X0256147Y0063375D01*
X0255814Y0063041D01*
X0255146Y0063041D01*
X0254813Y0063375D01*
X0257023Y0063041D02*
X0258024Y0063041D01*
X0258357Y0063375D01*
X0258357Y0064710D01*
X0258024Y0065043D01*
X0257023Y0065043D01*
X0257023Y0063041D01*
X0259233Y0063041D02*
X0259233Y0064376D01*
X0259900Y0065043D01*
X0260567Y0064376D01*
X0260567Y0063041D01*
X0260567Y0064042D02*
X0259233Y0064042D01*
X0256147Y0064710D02*
X0255814Y0065043D01*
X0255814Y0055201D02*
X0255146Y0055201D01*
X0254813Y0054867D01*
X0254813Y0054533D01*
X0255146Y0054200D01*
X0255814Y0054200D01*
X0256147Y0053866D01*
X0256147Y0053533D01*
X0255814Y0053199D01*
X0255146Y0053199D01*
X0254813Y0053533D01*
X0256147Y0054867D02*
X0255814Y0055201D01*
X0257023Y0054867D02*
X0257356Y0055201D01*
X0258024Y0055201D01*
X0258357Y0054867D01*
X0259233Y0055201D02*
X0259233Y0053199D01*
X0260567Y0053199D01*
X0258357Y0053533D02*
X0258024Y0053199D01*
X0257356Y0053199D01*
X0257023Y0053533D01*
X0257023Y0054867D01*
X0257023Y0045358D02*
X0258357Y0043356D01*
X0258357Y0045358D01*
X0259233Y0045358D02*
X0260233Y0045358D01*
X0260567Y0045024D01*
X0260567Y0043690D01*
X0260233Y0043356D01*
X0259233Y0043356D01*
X0259233Y0045358D01*
X0257023Y0045358D02*
X0257023Y0043356D01*
X0256147Y0043690D02*
X0255814Y0043356D01*
X0255146Y0043356D01*
X0254813Y0043690D01*
X0254813Y0045024D01*
X0255146Y0045358D01*
X0255814Y0045358D01*
X0256147Y0045024D01*
X0256147Y0044357D02*
X0255480Y0044357D01*
X0256147Y0044357D02*
X0256147Y0043690D01*
X0250725Y0043690D02*
X0250391Y0043356D01*
X0249390Y0043356D01*
X0249390Y0045358D01*
X0250391Y0045358D01*
X0250725Y0045024D01*
X0250725Y0043690D01*
X0248515Y0043356D02*
X0248515Y0045358D01*
X0247180Y0045358D02*
X0248515Y0043356D01*
X0247180Y0043356D02*
X0247180Y0045358D01*
X0246305Y0045024D02*
X0245971Y0045358D01*
X0245304Y0045358D01*
X0244970Y0045024D01*
X0244970Y0043690D01*
X0245304Y0043356D01*
X0245971Y0043356D01*
X0246305Y0043690D01*
X0246305Y0044357D01*
X0245638Y0044357D01*
D17*
X0238562Y0048820D02*
X0238362Y0048820D01*
X0238362Y0048840D01*
X0218872Y0048840D01*
X0218872Y0049750D01*
X0218762Y0055720D02*
X0218762Y0059120D01*
X0228762Y0069120D01*
X0238442Y0069330D02*
X0218882Y0069330D01*
X0218882Y0068440D01*
X0203209Y0068250D02*
X0203209Y0069320D01*
X0203009Y0069320D01*
X0203009Y0069330D01*
X0183449Y0069330D01*
X0183449Y0068440D01*
X0183329Y0059120D02*
X0193329Y0069120D01*
X0203329Y0062620D02*
X0203329Y0055920D01*
X0203129Y0049820D02*
X0203129Y0048820D01*
X0202929Y0048820D01*
X0202929Y0048840D01*
X0183439Y0048840D01*
X0183439Y0049750D01*
X0183329Y0055720D02*
X0183329Y0059120D01*
X0183329Y0062520D01*
X0167896Y0062620D02*
X0167896Y0055920D01*
X0167696Y0049820D02*
X0167696Y0048820D01*
X0167496Y0048820D01*
X0167496Y0048840D01*
X0148006Y0048840D01*
X0148006Y0049750D01*
X0132263Y0049820D02*
X0132263Y0048820D01*
X0132063Y0048820D01*
X0132063Y0048840D01*
X0112573Y0048840D01*
X0112573Y0049750D01*
X0112463Y0055720D02*
X0112463Y0059120D01*
X0122463Y0069120D01*
X0132143Y0069330D02*
X0112583Y0069330D01*
X0112583Y0068440D01*
X0096910Y0068250D02*
X0096910Y0069320D01*
X0096710Y0069320D01*
X0096710Y0069330D01*
X0077150Y0069330D01*
X0077150Y0068440D01*
X0077030Y0059120D02*
X0087030Y0069120D01*
X0097030Y0062620D02*
X0097030Y0055920D01*
X0096830Y0049820D02*
X0096830Y0048820D01*
X0096630Y0048820D01*
X0096630Y0048840D01*
X0077140Y0048840D01*
X0077140Y0049750D01*
X0077030Y0055720D02*
X0077030Y0059120D01*
X0077030Y0062520D01*
X0061597Y0062620D02*
X0061597Y0055920D01*
X0061397Y0049820D02*
X0061397Y0048820D01*
X0061197Y0048820D01*
X0061197Y0048840D01*
X0041707Y0048840D01*
X0041707Y0049750D01*
X0041597Y0055720D02*
X0041597Y0059120D01*
X0051597Y0069120D01*
X0061277Y0069320D02*
X0061277Y0069330D01*
X0041717Y0069330D01*
X0041717Y0068440D01*
X0041597Y0062520D02*
X0041597Y0059120D01*
X0026991Y0058136D02*
X0024038Y0058136D01*
X0024038Y0079789D01*
X0026991Y0079789D01*
X0026991Y0058136D01*
X0024038Y0058136D02*
X0001400Y0058136D01*
X0001400Y0079789D01*
X0024038Y0079789D01*
X0061277Y0069320D02*
X0061477Y0069320D01*
X0061477Y0068250D01*
X0026991Y0060104D02*
X0024038Y0060104D01*
X0024038Y0038451D01*
X0001400Y0038451D01*
X0001400Y0060104D01*
X0024038Y0060104D01*
X0026991Y0060104D02*
X0026991Y0038451D01*
X0024038Y0038451D01*
X0112463Y0059120D02*
X0112463Y0062520D01*
X0132463Y0062620D02*
X0132463Y0055920D01*
X0147896Y0055720D02*
X0147896Y0059120D01*
X0157896Y0069120D01*
X0167576Y0069320D02*
X0167576Y0069330D01*
X0148016Y0069330D01*
X0148016Y0068440D01*
X0132343Y0068250D02*
X0132343Y0069320D01*
X0132143Y0069320D01*
X0132143Y0069330D01*
X0147896Y0062520D02*
X0147896Y0059120D01*
X0167776Y0068250D02*
X0167776Y0069320D01*
X0167576Y0069320D01*
X0218762Y0062520D02*
X0218762Y0059120D01*
X0238762Y0055920D02*
X0238762Y0062620D01*
X0253369Y0060104D02*
X0276006Y0060104D01*
X0276006Y0038451D01*
X0253369Y0038451D01*
X0253369Y0060104D01*
X0253369Y0058136D02*
X0253369Y0079789D01*
X0276006Y0079789D01*
X0276006Y0058136D01*
X0253369Y0058136D01*
X0276006Y0058136D02*
X0278959Y0058136D01*
X0278959Y0079789D01*
X0276006Y0079789D01*
X0238642Y0069320D02*
X0238642Y0068250D01*
X0238642Y0069320D02*
X0238442Y0069320D01*
X0238442Y0069330D01*
X0276006Y0060104D02*
X0278959Y0060104D01*
X0278959Y0038451D01*
X0276006Y0038451D01*
X0238562Y0048820D02*
X0238562Y0049820D01*
M02*
