%
M48
M72
T01C0.01969
T02C0.02500
T03C0.03150
T04C0.03937
T05C0.04000
T06C0.08661
%
T01
X136243Y49278
X116557Y57152
X148054Y68963
X120494Y72900
X171676Y53215
X203172Y49278
X238605Y49278
X228762Y65026
X203172Y70931
X185455Y65026
X232699Y82742
X57502Y53215
X33880Y65026
T02
X87030Y49278
X88014Y41404
X116557Y41404
X141164Y50262
X167739Y47309
X147069Y37467
X167739Y36482
X197266Y48293
X210061Y45341
X217935Y37467
X238605Y36482
X152975Y59120
X126400Y63057
X151006Y72900
X157896Y78805
X178565Y81758
X206124Y75852
X212030Y81758
X226794Y69947
X252384Y66994
X129353Y75852
X116557Y75852
X104746Y81758
T03
X41754Y31049
X57502Y31049
X114589Y31049
X130337Y31049
X150022Y31049
X165770Y31049
X185455Y31049
X201203Y31049
X220888Y31049
X236636Y31049
T04
X272069Y31561
X274038Y47309
X274038Y70931
X272069Y86679
X98841Y31561
X77187Y31561
X8290Y31561
X6321Y47309
X6321Y70931
X8290Y86679
T05
X44313Y80774
X54313Y80774
X64313Y80774
X74313Y80774
X84313Y80774
X94313Y80774
X14195Y73884
X14195Y63884
X14195Y54199
X14195Y44199
X266164Y44199
X266164Y54199
X266164Y63884
X266164Y73884
T06
X228762Y33530
X193329Y33530
X157896Y33530
X122463Y33530
X49628Y33530
M30
