G75*
%MOIN*%
%OFA0B0*%
%FSLAX25Y25*%
%IPPOS*%
%LPD*%
%AMOC8*
5,1,8,0,0,1.08239X$1,22.5*
%
%ADD10C,0.01600*%
%ADD11C,0.00000*%
%ADD12C,0.01200*%
%ADD13R,0.06500X0.03937*%
%ADD14C,0.04724*%
%ADD15C,0.12661*%
%ADD16R,0.23622X0.05906*%
%ADD17R,0.06000X0.06000*%
%ADD18R,0.05118X0.06299*%
%ADD19C,0.06000*%
%ADD20C,0.02969*%
%ADD21C,0.01000*%
%ADD22C,0.02400*%
%ADD23C,0.01500*%
%ADD24C,0.03200*%
%ADD25C,0.03750*%
D10*
X0008290Y0025656D02*
X0014195Y0025656D01*
X0014195Y0033530D01*
X0026006Y0033530D01*
X0026006Y0025656D01*
X0037817Y0025656D01*
X0035817Y0029256D02*
X0029606Y0029256D01*
X0029606Y0034246D01*
X0029058Y0035569D01*
X0028046Y0036582D01*
X0026722Y0037130D01*
X0013479Y0037130D01*
X0012156Y0036582D01*
X0011143Y0035569D01*
X0011109Y0035486D01*
X0010991Y0035604D01*
X0009238Y0036330D01*
X0007341Y0036330D01*
X0005984Y0035768D01*
X0005984Y0042541D01*
X0007270Y0042541D01*
X0009022Y0043267D01*
X0009195Y0043440D01*
X0009195Y0040370D01*
X0010367Y0039199D01*
X0018024Y0039199D01*
X0019195Y0040370D01*
X0019195Y0041699D01*
X0020728Y0041699D01*
X0021647Y0042080D01*
X0041018Y0061451D01*
X0045530Y0061451D01*
X0046701Y0062622D01*
X0046701Y0067252D01*
X0046913Y0067764D01*
X0046913Y0068331D01*
X0056607Y0068331D01*
X0056493Y0068216D01*
X0056493Y0062622D01*
X0057664Y0061451D01*
X0062034Y0061451D01*
X0071634Y0051851D01*
X0071634Y0051043D01*
X0067500Y0051043D01*
X0066993Y0051551D01*
X0066993Y0055618D01*
X0065821Y0056789D01*
X0057664Y0056789D01*
X0057574Y0056699D01*
X0056809Y0056699D01*
X0055529Y0056168D01*
X0054549Y0055188D01*
X0054018Y0053908D01*
X0054018Y0052522D01*
X0054549Y0051241D01*
X0055529Y0050261D01*
X0056770Y0049747D01*
X0057664Y0048852D01*
X0061912Y0048852D01*
X0062924Y0047841D01*
X0053991Y0047841D01*
X0053991Y0049319D01*
X0052819Y0050490D01*
X0046701Y0050490D01*
X0046701Y0055618D01*
X0045530Y0056789D01*
X0037373Y0056789D01*
X0036201Y0055618D01*
X0036201Y0050024D01*
X0037373Y0048852D01*
X0037392Y0048852D01*
X0037392Y0041363D01*
X0038564Y0040191D01*
X0044508Y0040191D01*
X0042566Y0038249D01*
X0041391Y0035412D01*
X0040887Y0035412D01*
X0039283Y0034747D01*
X0038097Y0033561D01*
X0036989Y0033561D01*
X0035817Y0032390D01*
X0035817Y0029256D01*
X0029606Y0029256D01*
X0029606Y0034246D01*
X0029058Y0035569D01*
X0028046Y0036582D01*
X0026722Y0037130D01*
X0013479Y0037130D01*
X0012156Y0036582D01*
X0011143Y0035569D01*
X0011109Y0035486D01*
X0010991Y0035604D01*
X0009238Y0036330D01*
X0007341Y0036330D01*
X0005984Y0035768D01*
X0005984Y0042541D01*
X0007270Y0042541D01*
X0009022Y0043267D01*
X0009395Y0043640D01*
X0009395Y0040962D01*
X0009518Y0040504D01*
X0009755Y0040094D01*
X0010090Y0039759D01*
X0010500Y0039522D01*
X0010958Y0039399D01*
X0013995Y0039399D01*
X0013995Y0043999D01*
X0014395Y0043999D01*
X0014395Y0039399D01*
X0017432Y0039399D01*
X0017890Y0039522D01*
X0018300Y0039759D01*
X0018636Y0040094D01*
X0018873Y0040504D01*
X0018995Y0040962D01*
X0018995Y0043999D01*
X0014395Y0043999D01*
X0014395Y0044399D01*
X0013995Y0044399D01*
X0013995Y0048999D01*
X0010958Y0048999D01*
X0010800Y0048957D01*
X0010700Y0049199D01*
X0010700Y0049199D01*
X0018024Y0049199D01*
X0019195Y0050370D01*
X0019195Y0058027D01*
X0018181Y0059041D01*
X0019195Y0060056D01*
X0019195Y0067712D01*
X0018024Y0068884D01*
X0019195Y0070056D01*
X0019195Y0075343D01*
X0021426Y0077574D01*
X0026643Y0077574D01*
X0027819Y0078061D01*
X0031756Y0081998D01*
X0032656Y0082898D01*
X0033143Y0084074D01*
X0033143Y0085448D01*
X0039595Y0085448D01*
X0039313Y0084768D01*
X0039313Y0076779D01*
X0040075Y0074941D01*
X0041481Y0073535D01*
X0041713Y0073439D01*
X0041713Y0069388D01*
X0037373Y0069388D01*
X0036211Y0068226D01*
X0035260Y0068226D01*
X0034573Y0068510D01*
X0033187Y0068510D01*
X0031907Y0067979D01*
X0030927Y0066999D01*
X0030396Y0065719D01*
X0030396Y0064333D01*
X0030927Y0063052D01*
X0031907Y0062072D01*
X0033187Y0061541D01*
X0034038Y0061541D01*
X0019195Y0046699D01*
X0019195Y0048027D01*
X0018024Y0049199D01*
X0010700Y0049199D01*
X0018024Y0049199D01*
X0019195Y0050370D01*
X0019195Y0058027D01*
X0018181Y0059041D01*
X0019195Y0060056D01*
X0019195Y0067712D01*
X0018024Y0068884D01*
X0010635Y0068884D01*
X0010635Y0068884D01*
X0018024Y0068884D01*
X0010635Y0068884D01*
X0010635Y0068884D01*
X0018024Y0068884D01*
X0019195Y0070056D01*
X0019195Y0075343D01*
X0021426Y0077574D01*
X0026643Y0077574D01*
X0027819Y0078061D01*
X0031756Y0081998D01*
X0032656Y0082898D01*
X0033143Y0084074D01*
X0033143Y0085448D01*
X0039810Y0085448D01*
X0039632Y0084898D01*
X0039513Y0084151D01*
X0039513Y0080974D01*
X0044113Y0080974D01*
X0044113Y0080574D01*
X0039513Y0080574D01*
X0039513Y0077396D01*
X0039632Y0076650D01*
X0039865Y0075931D01*
X0040208Y0075258D01*
X0040652Y0074647D01*
X0041186Y0074112D01*
X0041798Y0073668D01*
X0042471Y0073325D01*
X0043189Y0073092D01*
X0043936Y0072974D01*
X0044113Y0072974D01*
X0044113Y0080574D01*
X0044513Y0080574D01*
X0044513Y0072974D01*
X0044691Y0072974D01*
X0045437Y0073092D01*
X0046156Y0073325D01*
X0046829Y0073668D01*
X0047440Y0074112D01*
X0047975Y0074647D01*
X0048419Y0075258D01*
X0048762Y0075931D01*
X0048995Y0076650D01*
X0049113Y0077396D01*
X0049113Y0080574D01*
X0044513Y0080574D01*
X0044513Y0080974D01*
X0049113Y0080974D01*
X0049113Y0084151D01*
X0048995Y0084898D01*
X0048816Y0085448D01*
X0049595Y0085448D01*
X0049313Y0084768D01*
X0049032Y0085448D01*
X0049595Y0085448D01*
X0049313Y0084768D01*
X0049313Y0076779D01*
X0048552Y0074941D01*
X0047146Y0073535D01*
X0047137Y0073531D01*
X0051490Y0073531D01*
X0051481Y0073535D01*
X0050075Y0074941D01*
X0049313Y0076779D01*
X0049313Y0084768D01*
X0049313Y0076779D01*
X0050075Y0074941D01*
X0051481Y0073535D01*
X0053319Y0072774D01*
X0055308Y0072774D01*
X0057146Y0073535D01*
X0058552Y0074941D01*
X0059313Y0076779D01*
X0059313Y0084768D01*
X0059032Y0085448D01*
X0059595Y0085448D01*
X0059313Y0084768D01*
X0059032Y0085448D01*
X0059595Y0085448D01*
X0059313Y0084768D01*
X0059313Y0076779D01*
X0058552Y0074941D01*
X0057146Y0073535D01*
X0057137Y0073531D01*
X0061490Y0073531D01*
X0061481Y0073535D01*
X0060075Y0074941D01*
X0059313Y0076779D01*
X0059313Y0084768D01*
X0059313Y0076779D01*
X0060075Y0074941D01*
X0061481Y0073535D01*
X0063319Y0072774D01*
X0065308Y0072774D01*
X0067146Y0073535D01*
X0068552Y0074941D01*
X0069313Y0076779D01*
X0069313Y0084768D01*
X0069032Y0085448D01*
X0069595Y0085448D01*
X0069313Y0084768D01*
X0069032Y0085448D01*
X0069595Y0085448D01*
X0069313Y0084768D01*
X0069313Y0076779D01*
X0068552Y0074941D01*
X0067146Y0073535D01*
X0067137Y0073531D01*
X0069831Y0073531D01*
X0070786Y0073135D01*
X0071375Y0072547D01*
X0071799Y0072547D01*
X0078926Y0072547D01*
X0077542Y0073931D01*
X0077146Y0073535D01*
X0075308Y0072774D01*
X0073319Y0072774D01*
X0071481Y0073535D01*
X0070075Y0074941D01*
X0069313Y0076779D01*
X0069313Y0084768D01*
X0069313Y0076779D01*
X0070075Y0074941D01*
X0071481Y0073535D01*
X0073319Y0072774D01*
X0075308Y0072774D01*
X0077146Y0073535D01*
X0077542Y0073931D01*
X0080693Y0070780D01*
X0081611Y0070400D01*
X0096385Y0070400D01*
X0097304Y0070780D01*
X0098008Y0071484D01*
X0104407Y0077883D01*
X0105517Y0077883D01*
X0106941Y0078473D01*
X0108032Y0079563D01*
X0108621Y0080987D01*
X0108621Y0082529D01*
X0108032Y0083953D01*
X0106941Y0085043D01*
X0105964Y0085448D01*
X0177347Y0085448D01*
X0176370Y0085043D01*
X0175280Y0083953D01*
X0174690Y0082529D01*
X0174690Y0080987D01*
X0175280Y0079563D01*
X0176370Y0078473D01*
X0177795Y0077883D01*
X0179336Y0077883D01*
X0180760Y0078473D01*
X0181850Y0079563D01*
X0182440Y0080987D01*
X0182440Y0082097D01*
X0183538Y0083195D01*
X0208431Y0083195D01*
X0208155Y0082529D01*
X0208155Y0081418D01*
X0206464Y0079727D01*
X0205354Y0079727D01*
X0203929Y0079138D01*
X0202839Y0078047D01*
X0202249Y0076623D01*
X0202249Y0075082D01*
X0202525Y0074415D01*
X0202479Y0074415D01*
X0201198Y0073885D01*
X0200218Y0072905D01*
X0199687Y0071624D01*
X0199687Y0070238D01*
X0200040Y0069388D01*
X0199396Y0069388D01*
X0198225Y0068216D01*
X0198225Y0066618D01*
X0193761Y0071082D01*
X0192842Y0071463D01*
X0191848Y0071463D01*
X0163853Y0071463D01*
X0159882Y0075434D01*
X0160091Y0075520D01*
X0161181Y0076610D01*
X0161771Y0078034D01*
X0161771Y0079576D01*
X0161181Y0081000D01*
X0160091Y0082090D01*
X0158667Y0082680D01*
X0157125Y0082680D01*
X0156182Y0082289D01*
X0119997Y0082289D01*
X0119078Y0081909D01*
X0118375Y0081206D01*
X0116897Y0079727D01*
X0115787Y0079727D01*
X0114362Y0079138D01*
X0113272Y0078047D01*
X0112682Y0076623D01*
X0112682Y0075082D01*
X0113272Y0073657D01*
X0114362Y0072567D01*
X0115787Y0071977D01*
X0115895Y0071977D01*
X0113306Y0069388D01*
X0111935Y0069388D01*
X0109172Y0072151D01*
X0108216Y0072547D01*
X0099071Y0072547D01*
X0104407Y0077883D01*
X0105517Y0077883D01*
X0106941Y0078473D01*
X0108032Y0079563D01*
X0108621Y0080987D01*
X0108621Y0082529D01*
X0108032Y0083953D01*
X0106941Y0085043D01*
X0105964Y0085448D01*
X0177347Y0085448D01*
X0176370Y0085043D01*
X0175280Y0083953D01*
X0174690Y0082529D01*
X0174690Y0080987D01*
X0175280Y0079563D01*
X0176370Y0078473D01*
X0177795Y0077883D01*
X0179336Y0077883D01*
X0180760Y0078473D01*
X0181850Y0079563D01*
X0182440Y0080987D01*
X0182440Y0082097D01*
X0183538Y0083195D01*
X0208431Y0083195D01*
X0208155Y0082529D01*
X0208155Y0081419D01*
X0206464Y0079727D01*
X0205354Y0079727D01*
X0203929Y0079138D01*
X0202839Y0078047D01*
X0202249Y0076623D01*
X0202249Y0075082D01*
X0202839Y0073657D01*
X0203929Y0072567D01*
X0205354Y0071977D01*
X0206895Y0071977D01*
X0208319Y0072567D01*
X0209409Y0073657D01*
X0209999Y0075082D01*
X0209999Y0076192D01*
X0211690Y0077883D01*
X0212801Y0077883D01*
X0214225Y0078473D01*
X0215315Y0079563D01*
X0215905Y0080987D01*
X0215905Y0082529D01*
X0215629Y0083195D01*
X0223790Y0083195D01*
X0234288Y0072697D01*
X0229524Y0072697D01*
X0228989Y0073232D01*
X0227564Y0073822D01*
X0226023Y0073822D01*
X0224599Y0073232D01*
X0223509Y0072142D01*
X0222919Y0070718D01*
X0222919Y0069176D01*
X0222927Y0069156D01*
X0222695Y0069388D01*
X0214538Y0069388D01*
X0213367Y0068216D01*
X0213367Y0068209D01*
X0211197Y0070379D01*
X0210493Y0071082D01*
X0209574Y0071463D01*
X0206656Y0071463D01*
X0206656Y0071624D01*
X0206510Y0071977D01*
X0206895Y0071977D01*
X0208319Y0072567D01*
X0209409Y0073657D01*
X0209999Y0075082D01*
X0209999Y0076192D01*
X0211690Y0077883D01*
X0212801Y0077883D01*
X0214225Y0078473D01*
X0215315Y0079563D01*
X0215905Y0080987D01*
X0215905Y0082529D01*
X0215629Y0083195D01*
X0223790Y0083195D01*
X0234288Y0072697D01*
X0229524Y0072697D01*
X0228989Y0073232D01*
X0227564Y0073822D01*
X0226023Y0073822D01*
X0224599Y0073232D01*
X0223509Y0072142D01*
X0222919Y0070718D01*
X0222919Y0069176D01*
X0223127Y0068673D01*
X0222972Y0068828D01*
X0222561Y0069065D01*
X0222104Y0069188D01*
X0218801Y0069188D01*
X0218801Y0065604D01*
X0218432Y0065604D01*
X0218432Y0069188D01*
X0215130Y0069188D01*
X0214672Y0069065D01*
X0214261Y0068828D01*
X0213926Y0068493D01*
X0213689Y0068083D01*
X0213567Y0067625D01*
X0213567Y0065604D01*
X0218432Y0065604D01*
X0218432Y0065235D01*
X0213567Y0065235D01*
X0213567Y0063214D01*
X0213689Y0062756D01*
X0213926Y0062346D01*
X0214261Y0062011D01*
X0214672Y0061774D01*
X0215130Y0061651D01*
X0218432Y0061651D01*
X0218432Y0065235D01*
X0218801Y0065235D01*
X0218801Y0065604D01*
X0223667Y0065604D01*
X0223667Y0067594D01*
X0224599Y0066662D01*
X0226023Y0066072D01*
X0227564Y0066072D01*
X0228989Y0066662D01*
X0229524Y0067197D01*
X0233658Y0067197D01*
X0233658Y0063689D01*
X0232338Y0063689D01*
X0232142Y0064080D01*
X0232246Y0064333D01*
X0232246Y0065719D01*
X0231716Y0066999D01*
X0231518Y0067197D01*
X0233658Y0067197D01*
X0233658Y0062622D01*
X0234829Y0061451D01*
X0242986Y0061451D01*
X0244158Y0062622D01*
X0244158Y0067197D01*
X0248292Y0067197D01*
X0248509Y0066980D01*
X0248509Y0066223D01*
X0249099Y0064799D01*
X0250189Y0063709D01*
X0251613Y0063119D01*
X0253155Y0063119D01*
X0254579Y0063709D01*
X0255669Y0064799D01*
X0256259Y0066223D01*
X0256259Y0067765D01*
X0255669Y0069189D01*
X0254579Y0070279D01*
X0254288Y0070400D01*
X0256270Y0070400D01*
X0261164Y0065506D01*
X0261164Y0060056D01*
X0262178Y0059041D01*
X0261164Y0058027D01*
X0261164Y0052876D01*
X0251478Y0062561D01*
X0251478Y0062561D01*
X0250747Y0063293D01*
X0249791Y0063689D01*
X0244158Y0063689D01*
X0244158Y0067197D01*
X0248292Y0067197D01*
X0248509Y0066980D01*
X0248509Y0066223D01*
X0249099Y0064799D01*
X0250189Y0063709D01*
X0251613Y0063119D01*
X0253155Y0063119D01*
X0254579Y0063709D01*
X0255669Y0064799D01*
X0256259Y0066223D01*
X0256259Y0067765D01*
X0255669Y0069189D01*
X0254579Y0070279D01*
X0254288Y0070400D01*
X0256270Y0070400D01*
X0261164Y0065506D01*
X0261164Y0060056D01*
X0262178Y0059041D01*
X0261164Y0058027D01*
X0261164Y0050370D01*
X0262335Y0049199D01*
X0269659Y0049199D01*
X0264841Y0049199D01*
X0264841Y0049199D01*
X0269659Y0049199D01*
X0269659Y0049199D01*
X0269559Y0048957D01*
X0269401Y0048999D01*
X0266364Y0048999D01*
X0266364Y0044399D01*
X0265964Y0044399D01*
X0265964Y0048999D01*
X0262927Y0048999D01*
X0262469Y0048876D01*
X0262059Y0048639D01*
X0261723Y0048304D01*
X0261486Y0047894D01*
X0261364Y0047436D01*
X0261364Y0044399D01*
X0265964Y0044399D01*
X0265964Y0043999D01*
X0266364Y0043999D01*
X0266364Y0039399D01*
X0269401Y0039399D01*
X0269859Y0039522D01*
X0270269Y0039759D01*
X0270604Y0040094D01*
X0270841Y0040504D01*
X0270964Y0040962D01*
X0270964Y0043640D01*
X0271337Y0043267D01*
X0273089Y0042541D01*
X0274375Y0042541D01*
X0274375Y0035768D01*
X0273018Y0036330D01*
X0271121Y0036330D01*
X0269368Y0035604D01*
X0269250Y0035486D01*
X0269216Y0035569D01*
X0268203Y0036582D01*
X0266880Y0037130D01*
X0253637Y0037130D01*
X0252314Y0036582D01*
X0251301Y0035569D01*
X0250753Y0034246D01*
X0250753Y0029256D01*
X0242573Y0029256D01*
X0242573Y0032390D01*
X0241402Y0033561D01*
X0241164Y0033561D01*
X0241890Y0034287D01*
X0242480Y0035712D01*
X0242480Y0037253D01*
X0241890Y0038677D01*
X0240800Y0039767D01*
X0239376Y0040357D01*
X0238265Y0040357D01*
X0229194Y0049429D01*
X0228275Y0049809D01*
X0223652Y0049809D01*
X0223867Y0050024D01*
X0223867Y0055618D01*
X0222695Y0056789D01*
X0215782Y0056789D01*
X0208725Y0063846D01*
X0208725Y0065780D01*
X0211204Y0063300D01*
X0212123Y0062919D01*
X0213367Y0062919D01*
X0213367Y0062622D01*
X0214538Y0061451D01*
X0222695Y0061451D01*
X0223857Y0062612D01*
X0226344Y0062517D01*
X0226789Y0062072D01*
X0227474Y0061788D01*
X0228364Y0060008D01*
X0228527Y0059616D01*
X0228594Y0059549D01*
X0228636Y0059463D01*
X0228958Y0059185D01*
X0229258Y0058885D01*
X0229346Y0058848D01*
X0229418Y0058786D01*
X0229821Y0058651D01*
X0230214Y0058489D01*
X0230309Y0058489D01*
X0230399Y0058459D01*
X0230823Y0058489D01*
X0248197Y0058489D01*
X0261164Y0045522D01*
X0261164Y0040370D01*
X0262335Y0039199D01*
X0269992Y0039199D01*
X0271164Y0040370D01*
X0271164Y0043440D01*
X0271337Y0043267D01*
X0273089Y0042541D01*
X0274375Y0042541D01*
X0274375Y0035768D01*
X0273018Y0036330D01*
X0271121Y0036330D01*
X0269368Y0035604D01*
X0269250Y0035486D01*
X0269216Y0035569D01*
X0268203Y0036582D01*
X0266880Y0037130D01*
X0253637Y0037130D01*
X0252314Y0036582D01*
X0251301Y0035569D01*
X0250753Y0034246D01*
X0250753Y0029256D01*
X0242573Y0029256D01*
X0242573Y0032390D01*
X0241402Y0033561D01*
X0241164Y0033561D01*
X0241890Y0034287D01*
X0242480Y0035712D01*
X0242480Y0037253D01*
X0241890Y0038677D01*
X0240800Y0039767D01*
X0239376Y0040357D01*
X0238265Y0040357D01*
X0229194Y0049429D01*
X0228275Y0049809D01*
X0223652Y0049809D01*
X0223867Y0050024D01*
X0223867Y0055618D01*
X0222695Y0056789D01*
X0215782Y0056789D01*
X0208725Y0063846D01*
X0208725Y0068216D01*
X0207553Y0069388D01*
X0199396Y0069388D01*
X0198225Y0068216D01*
X0198225Y0066618D01*
X0193761Y0071082D01*
X0192842Y0071463D01*
X0163853Y0071463D01*
X0159882Y0075434D01*
X0160091Y0075520D01*
X0161181Y0076610D01*
X0161771Y0078034D01*
X0161771Y0079576D01*
X0161181Y0081000D01*
X0160091Y0082090D01*
X0158667Y0082680D01*
X0157125Y0082680D01*
X0156182Y0082289D01*
X0119997Y0082289D01*
X0119078Y0081909D01*
X0118375Y0081206D01*
X0116897Y0079727D01*
X0115787Y0079727D01*
X0114362Y0079138D01*
X0113272Y0078047D01*
X0112682Y0076623D01*
X0112682Y0075082D01*
X0113272Y0073657D01*
X0114362Y0072567D01*
X0115787Y0071977D01*
X0117328Y0071977D01*
X0118752Y0072567D01*
X0119843Y0073657D01*
X0120432Y0075082D01*
X0120432Y0076192D01*
X0121530Y0077289D01*
X0125754Y0077289D01*
X0125478Y0076623D01*
X0125478Y0075082D01*
X0126068Y0073657D01*
X0127158Y0072567D01*
X0127207Y0072547D01*
X0124524Y0072547D01*
X0123979Y0073092D01*
X0123979Y0073593D01*
X0123448Y0074873D01*
X0122468Y0075854D01*
X0121188Y0076384D01*
X0120624Y0076384D01*
X0121530Y0077289D01*
X0125754Y0077289D01*
X0125478Y0076623D01*
X0125478Y0075082D01*
X0126068Y0073657D01*
X0127158Y0072567D01*
X0128582Y0071977D01*
X0130124Y0071977D01*
X0131548Y0072567D01*
X0132638Y0073657D01*
X0132919Y0074337D01*
X0147407Y0074337D01*
X0147131Y0073670D01*
X0147131Y0072547D01*
X0131498Y0072547D01*
X0131548Y0072567D01*
X0132638Y0073657D01*
X0132919Y0074337D01*
X0147407Y0074337D01*
X0147131Y0073670D01*
X0147131Y0072129D01*
X0147721Y0070705D01*
X0148811Y0069615D01*
X0148853Y0069597D01*
X0148887Y0069515D01*
X0149214Y0069188D01*
X0147935Y0069188D01*
X0147935Y0065604D01*
X0147566Y0065604D01*
X0147566Y0069188D01*
X0144263Y0069188D01*
X0143806Y0069065D01*
X0143395Y0068828D01*
X0143060Y0068493D01*
X0142823Y0068083D01*
X0142700Y0067625D01*
X0142700Y0065604D01*
X0147566Y0065604D01*
X0147566Y0065235D01*
X0147935Y0065235D01*
X0147935Y0065604D01*
X0152798Y0065604D01*
X0160317Y0058085D01*
X0160317Y0041544D01*
X0159553Y0041860D01*
X0156239Y0041860D01*
X0155475Y0041544D01*
X0155475Y0056140D01*
X0156260Y0056925D01*
X0156850Y0058349D01*
X0156850Y0059891D01*
X0156260Y0061315D01*
X0155170Y0062405D01*
X0153746Y0062995D01*
X0153000Y0062995D01*
X0153000Y0065402D01*
X0160317Y0058085D01*
X0160317Y0041544D01*
X0159553Y0041860D01*
X0156239Y0041860D01*
X0155475Y0041544D01*
X0155475Y0056140D01*
X0156260Y0056925D01*
X0156850Y0058349D01*
X0156850Y0059891D01*
X0156260Y0061315D01*
X0155170Y0062405D01*
X0153746Y0062995D01*
X0152742Y0062995D01*
X0152800Y0063214D01*
X0152800Y0065235D01*
X0147935Y0065235D01*
X0147935Y0061651D01*
X0150025Y0061651D01*
X0149690Y0061315D01*
X0149100Y0059891D01*
X0149100Y0058349D01*
X0149690Y0056925D01*
X0149825Y0056789D01*
X0144916Y0056789D01*
X0137859Y0063846D01*
X0137859Y0068216D01*
X0136687Y0069388D01*
X0128530Y0069388D01*
X0127359Y0068216D01*
X0127359Y0066854D01*
X0127171Y0066932D01*
X0125629Y0066932D01*
X0124205Y0066342D01*
X0123115Y0065252D01*
X0122525Y0063828D01*
X0122525Y0062286D01*
X0123115Y0060862D01*
X0123900Y0060077D01*
X0123900Y0051778D01*
X0117567Y0051778D01*
X0117567Y0053799D01*
X0118531Y0054198D01*
X0119511Y0055178D01*
X0120042Y0056459D01*
X0120042Y0057845D01*
X0119511Y0059125D01*
X0118531Y0060105D01*
X0117251Y0060636D01*
X0116609Y0060636D01*
X0115794Y0061451D01*
X0116396Y0061451D01*
X0117567Y0062622D01*
X0117567Y0066296D01*
X0120494Y0069223D01*
X0121243Y0068474D01*
X0121974Y0067743D01*
X0122930Y0067347D01*
X0127359Y0067347D01*
X0127359Y0066854D01*
X0127171Y0066932D01*
X0125629Y0066932D01*
X0124205Y0066342D01*
X0123115Y0065252D01*
X0122525Y0063828D01*
X0122525Y0062286D01*
X0123115Y0060862D01*
X0123900Y0060077D01*
X0123900Y0051778D01*
X0117567Y0051778D01*
X0117567Y0055618D01*
X0116396Y0056789D01*
X0109482Y0056789D01*
X0102426Y0063846D01*
X0102426Y0068216D01*
X0101254Y0069388D01*
X0093097Y0069388D01*
X0091926Y0068216D01*
X0091926Y0062622D01*
X0093097Y0061451D01*
X0097467Y0061451D01*
X0107067Y0051851D01*
X0107067Y0051778D01*
X0102426Y0051778D01*
X0102426Y0055618D01*
X0101254Y0056789D01*
X0093097Y0056789D01*
X0092272Y0055965D01*
X0084514Y0055965D01*
X0083504Y0055546D01*
X0082134Y0054177D01*
X0082134Y0055618D01*
X0080963Y0056789D01*
X0074049Y0056789D01*
X0066993Y0063846D01*
X0066993Y0068216D01*
X0066878Y0068331D01*
X0068236Y0068331D01*
X0069317Y0067251D01*
X0071625Y0064942D01*
X0071625Y0064783D01*
X0071634Y0064761D01*
X0071634Y0062622D01*
X0072806Y0061451D01*
X0080963Y0061451D01*
X0082134Y0062622D01*
X0082134Y0067347D01*
X0091926Y0067347D01*
X0091926Y0062622D01*
X0093097Y0061451D01*
X0097467Y0061451D01*
X0107067Y0051851D01*
X0107067Y0051778D01*
X0102426Y0051778D01*
X0102426Y0055618D01*
X0101254Y0056789D01*
X0093097Y0056789D01*
X0092272Y0055965D01*
X0084514Y0055965D01*
X0083504Y0055546D01*
X0082134Y0054177D01*
X0082134Y0055618D01*
X0080963Y0056789D01*
X0074049Y0056789D01*
X0066993Y0063846D01*
X0066993Y0068216D01*
X0065821Y0069388D01*
X0057664Y0069388D01*
X0056493Y0068216D01*
X0056493Y0062622D01*
X0057664Y0061451D01*
X0062034Y0061451D01*
X0071634Y0051851D01*
X0071634Y0051043D01*
X0067500Y0051043D01*
X0066993Y0051551D01*
X0066993Y0055618D01*
X0065821Y0056789D01*
X0057664Y0056789D01*
X0057574Y0056699D01*
X0056809Y0056699D01*
X0055529Y0056168D01*
X0054549Y0055188D01*
X0054018Y0053908D01*
X0054018Y0052522D01*
X0054549Y0051241D01*
X0055529Y0050261D01*
X0056770Y0049747D01*
X0057664Y0048852D01*
X0061912Y0048852D01*
X0062924Y0047841D01*
X0053991Y0047841D01*
X0053991Y0049319D01*
X0052819Y0050490D01*
X0046701Y0050490D01*
X0046701Y0055618D01*
X0045530Y0056789D01*
X0037373Y0056789D01*
X0036201Y0055618D01*
X0036201Y0050024D01*
X0037373Y0048852D01*
X0037392Y0048852D01*
X0037392Y0041363D01*
X0038564Y0040191D01*
X0044508Y0040191D01*
X0042566Y0038249D01*
X0041391Y0035412D01*
X0040887Y0035412D01*
X0039283Y0034747D01*
X0038097Y0033561D01*
X0036989Y0033561D01*
X0035817Y0032390D01*
X0035817Y0029256D01*
X0035817Y0029593D02*
X0029606Y0029593D01*
X0035817Y0029593D01*
X0035817Y0031191D02*
X0029606Y0031191D01*
X0035817Y0031191D01*
X0036217Y0032790D02*
X0029606Y0032790D01*
X0036217Y0032790D01*
X0038924Y0034388D02*
X0029547Y0034388D01*
X0038924Y0034388D01*
X0041629Y0035987D02*
X0028640Y0035987D01*
X0041629Y0035987D01*
X0042291Y0037585D02*
X0005984Y0037585D01*
X0042291Y0037585D01*
X0043501Y0039184D02*
X0005984Y0039184D01*
X0043501Y0039184D01*
X0037973Y0040782D02*
X0019195Y0040782D01*
X0018947Y0040782D02*
X0037973Y0040782D01*
X0037392Y0042381D02*
X0021948Y0042381D01*
X0018995Y0042381D02*
X0037392Y0042381D01*
X0037392Y0043979D02*
X0023547Y0043979D01*
X0025145Y0045578D02*
X0037392Y0045578D01*
X0018995Y0045578D01*
X0018995Y0044399D02*
X0018995Y0047436D01*
X0018873Y0047894D01*
X0018636Y0048304D01*
X0018300Y0048639D01*
X0017890Y0048876D01*
X0017432Y0048999D01*
X0014395Y0048999D01*
X0014395Y0044399D01*
X0018995Y0044399D01*
X0018995Y0043979D02*
X0037392Y0043979D01*
X0037392Y0047176D02*
X0026744Y0047176D01*
X0028342Y0048775D02*
X0037392Y0048775D01*
X0018066Y0048775D01*
X0018448Y0048775D02*
X0021271Y0048775D01*
X0022870Y0050373D02*
X0019195Y0050373D01*
X0036201Y0050373D01*
X0029941Y0050373D01*
X0031539Y0051972D02*
X0036201Y0051972D01*
X0019195Y0051972D01*
X0024468Y0051972D01*
X0026067Y0053570D02*
X0019195Y0053570D01*
X0036201Y0053570D01*
X0033138Y0053570D01*
X0034736Y0055169D02*
X0036201Y0055169D01*
X0019195Y0055169D01*
X0027665Y0055169D01*
X0029264Y0056767D02*
X0019195Y0056767D01*
X0037351Y0056767D01*
X0036335Y0056767D01*
X0037933Y0058366D02*
X0065119Y0058366D01*
X0018857Y0058366D01*
X0030862Y0058366D01*
X0032461Y0059964D02*
X0019104Y0059964D01*
X0063521Y0059964D01*
X0039532Y0059964D01*
X0037964Y0061651D02*
X0041267Y0061651D01*
X0041267Y0065235D01*
X0041635Y0065235D01*
X0041635Y0061651D01*
X0044938Y0061651D01*
X0045396Y0061774D01*
X0045806Y0062011D01*
X0046142Y0062346D01*
X0046379Y0062756D01*
X0046501Y0063214D01*
X0046501Y0065235D01*
X0041636Y0065235D01*
X0041636Y0065604D01*
X0046501Y0065604D01*
X0046501Y0067625D01*
X0046379Y0068083D01*
X0046142Y0068493D01*
X0045806Y0068828D01*
X0045396Y0069065D01*
X0044938Y0069188D01*
X0041635Y0069188D01*
X0041635Y0065604D01*
X0041267Y0065604D01*
X0041267Y0069188D01*
X0037964Y0069188D01*
X0037506Y0069065D01*
X0037096Y0068828D01*
X0036761Y0068493D01*
X0036524Y0068083D01*
X0036401Y0067625D01*
X0036401Y0065604D01*
X0041267Y0065604D01*
X0041267Y0065235D01*
X0036401Y0065235D01*
X0036401Y0063214D01*
X0036524Y0062756D01*
X0036761Y0062346D01*
X0037096Y0062011D01*
X0037506Y0061774D01*
X0037964Y0061651D01*
X0036415Y0063161D02*
X0019195Y0063161D01*
X0030881Y0063161D01*
X0030396Y0064760D02*
X0019195Y0064760D01*
X0036401Y0064760D01*
X0036401Y0066358D02*
X0019195Y0066358D01*
X0030661Y0066358D01*
X0031884Y0067957D02*
X0018951Y0067957D01*
X0036490Y0067957D01*
X0041267Y0067957D02*
X0041635Y0067957D01*
X0041635Y0066358D02*
X0041267Y0066358D01*
X0041267Y0064760D02*
X0041635Y0064760D01*
X0041635Y0063161D02*
X0041267Y0063161D01*
X0045642Y0061563D02*
X0057552Y0061563D01*
X0019195Y0061563D01*
X0033136Y0061563D01*
X0045552Y0056767D02*
X0057642Y0056767D01*
X0045552Y0056767D01*
X0046701Y0055169D02*
X0054540Y0055169D01*
X0046701Y0055169D01*
X0046701Y0053570D02*
X0054018Y0053570D01*
X0046701Y0053570D01*
X0046701Y0051972D02*
X0054246Y0051972D01*
X0046701Y0051972D01*
X0052936Y0050373D02*
X0055416Y0050373D01*
X0052936Y0050373D01*
X0053991Y0048775D02*
X0061990Y0048775D01*
X0053991Y0048775D01*
X0066993Y0051972D02*
X0071513Y0051972D01*
X0066993Y0051972D01*
X0066993Y0053570D02*
X0069915Y0053570D01*
X0066993Y0053570D01*
X0066993Y0055169D02*
X0068316Y0055169D01*
X0066993Y0055169D01*
X0066718Y0056767D02*
X0065843Y0056767D01*
X0066718Y0056767D01*
X0072473Y0058366D02*
X0100552Y0058366D01*
X0072473Y0058366D01*
X0070875Y0059964D02*
X0098954Y0059964D01*
X0070874Y0059964D01*
X0069276Y0061563D02*
X0072694Y0061563D01*
X0072939Y0061774D02*
X0072529Y0062011D01*
X0072194Y0062346D01*
X0071957Y0062756D01*
X0071834Y0063214D01*
X0071834Y0065235D01*
X0076700Y0065235D01*
X0077069Y0065235D01*
X0077069Y0065604D01*
X0081934Y0065604D01*
X0081934Y0067625D01*
X0081812Y0068083D01*
X0081575Y0068493D01*
X0081239Y0068828D01*
X0080829Y0069065D01*
X0080371Y0069188D01*
X0077069Y0069188D01*
X0077069Y0065604D01*
X0076700Y0065604D01*
X0076700Y0069188D01*
X0073397Y0069188D01*
X0072939Y0069065D01*
X0072529Y0068828D01*
X0072194Y0068493D01*
X0071957Y0068083D01*
X0071834Y0067625D01*
X0071834Y0065604D01*
X0076700Y0065604D01*
X0076700Y0065235D01*
X0076700Y0061651D01*
X0073397Y0061651D01*
X0072939Y0061774D01*
X0071848Y0063161D02*
X0067677Y0063161D01*
X0071634Y0063161D01*
X0071634Y0064760D02*
X0066993Y0064760D01*
X0071834Y0064760D01*
X0071834Y0066358D02*
X0066993Y0066358D01*
X0070209Y0066358D01*
X0068611Y0067957D02*
X0066993Y0067957D01*
X0071923Y0067957D01*
X0076700Y0067957D02*
X0077069Y0067957D01*
X0077069Y0066358D02*
X0076700Y0066358D01*
X0077069Y0065235D02*
X0081934Y0065235D01*
X0081934Y0063214D01*
X0081812Y0062756D01*
X0081575Y0062346D01*
X0081239Y0062011D01*
X0080829Y0061774D01*
X0080371Y0061651D01*
X0077069Y0061651D01*
X0077069Y0065235D01*
X0077069Y0064760D02*
X0076700Y0064760D01*
X0076700Y0063161D02*
X0077069Y0063161D01*
X0081075Y0061563D02*
X0092985Y0061563D01*
X0069276Y0061563D01*
X0056493Y0063161D02*
X0046701Y0063161D01*
X0046487Y0063161D02*
X0056493Y0063161D01*
X0056493Y0064760D02*
X0046701Y0064760D01*
X0046501Y0064760D02*
X0056493Y0064760D01*
X0056493Y0066358D02*
X0046701Y0066358D01*
X0046501Y0066358D02*
X0056493Y0066358D01*
X0056493Y0067957D02*
X0046913Y0067957D01*
X0046412Y0067957D02*
X0056493Y0067957D01*
X0071169Y0072752D02*
X0078720Y0072752D01*
X0019195Y0072752D01*
X0041713Y0072752D01*
X0041713Y0071154D02*
X0019195Y0071154D01*
X0080319Y0071154D01*
X0081845Y0067957D02*
X0091926Y0067957D01*
X0091926Y0066358D02*
X0082134Y0066358D01*
X0081934Y0066358D02*
X0091926Y0066358D01*
X0091926Y0064760D02*
X0082134Y0064760D01*
X0081934Y0064760D02*
X0091926Y0064760D01*
X0091926Y0063161D02*
X0082134Y0063161D01*
X0081920Y0063161D02*
X0091926Y0063161D01*
X0102426Y0063846D02*
X0109482Y0056789D01*
X0113073Y0056789D01*
X0113073Y0057100D01*
X0110198Y0059976D01*
X0109817Y0060895D01*
X0109817Y0061451D01*
X0108239Y0061451D01*
X0107067Y0062622D01*
X0107067Y0066902D01*
X0106622Y0067347D01*
X0102426Y0067347D01*
X0102426Y0063846D01*
X0102426Y0064760D02*
X0107067Y0064760D01*
X0107267Y0064760D02*
X0102426Y0064760D01*
X0102426Y0066358D02*
X0107067Y0066358D01*
X0107267Y0066358D02*
X0102426Y0066358D01*
X0102426Y0067957D02*
X0107356Y0067957D01*
X0107390Y0068083D02*
X0107267Y0067625D01*
X0107267Y0065604D01*
X0112133Y0065604D01*
X0112133Y0069188D01*
X0108830Y0069188D01*
X0108373Y0069065D01*
X0107962Y0068828D01*
X0107627Y0068493D01*
X0107390Y0068083D01*
X0112133Y0067957D02*
X0112502Y0067957D01*
X0112502Y0069188D02*
X0112502Y0065604D01*
X0112133Y0065604D01*
X0112133Y0065235D01*
X0112502Y0065235D01*
X0112502Y0065604D01*
X0117367Y0065604D01*
X0117367Y0067625D01*
X0117245Y0068083D01*
X0117008Y0068493D01*
X0116673Y0068828D01*
X0116262Y0069065D01*
X0115804Y0069188D01*
X0112502Y0069188D01*
X0111768Y0069555D02*
X0113473Y0069555D01*
X0115072Y0071154D02*
X0110169Y0071154D01*
X0114177Y0072752D02*
X0099276Y0072752D01*
X0114177Y0072752D01*
X0112985Y0074351D02*
X0100875Y0074351D01*
X0112985Y0074351D01*
X0112682Y0075949D02*
X0102473Y0075949D01*
X0112682Y0075949D01*
X0113066Y0077548D02*
X0104072Y0077548D01*
X0113066Y0077548D01*
X0114384Y0079146D02*
X0107615Y0079146D01*
X0114384Y0079146D01*
X0117914Y0080745D02*
X0108521Y0080745D01*
X0117914Y0080745D01*
X0108621Y0082343D02*
X0156312Y0082343D01*
X0108621Y0082343D01*
X0108036Y0083942D02*
X0175276Y0083942D01*
X0108036Y0083942D01*
X0103529Y0085448D02*
X0102551Y0085043D01*
X0101461Y0083953D01*
X0100871Y0082529D01*
X0100871Y0081419D01*
X0099313Y0079860D01*
X0099313Y0084768D01*
X0099032Y0085448D01*
X0103529Y0085448D01*
X0101457Y0083942D02*
X0099313Y0083942D01*
X0099313Y0082343D02*
X0100871Y0082343D01*
X0100198Y0080745D02*
X0099313Y0080745D01*
X0089313Y0080745D02*
X0089313Y0080745D01*
X0089313Y0082343D02*
X0089313Y0082343D01*
X0089313Y0083942D02*
X0089313Y0083942D01*
X0089313Y0084768D02*
X0089313Y0076779D01*
X0088742Y0075400D01*
X0089885Y0075400D01*
X0089313Y0076779D01*
X0089313Y0084768D01*
X0089032Y0085448D01*
X0089595Y0085448D01*
X0089313Y0084768D01*
X0079595Y0085448D02*
X0079313Y0084768D01*
X0079313Y0079231D01*
X0079313Y0079230D01*
X0079313Y0084768D01*
X0079032Y0085448D01*
X0079595Y0085448D01*
X0079313Y0083942D02*
X0079313Y0083942D01*
X0079313Y0082343D02*
X0079313Y0082343D01*
X0079313Y0080745D02*
X0079313Y0080745D01*
X0089313Y0079146D02*
X0089313Y0079146D01*
X0089313Y0077548D02*
X0089313Y0077548D01*
X0088970Y0075949D02*
X0089657Y0075949D01*
X0097678Y0071154D02*
X0147535Y0071154D01*
X0148870Y0069555D02*
X0018695Y0069555D01*
X0041713Y0069555D01*
X0040948Y0074351D02*
X0019195Y0074351D01*
X0040665Y0074351D01*
X0039859Y0075949D02*
X0019802Y0075949D01*
X0039657Y0075949D01*
X0044113Y0075949D02*
X0044513Y0075949D01*
X0044513Y0074351D02*
X0044113Y0074351D01*
X0047679Y0074351D02*
X0050665Y0074351D01*
X0047962Y0074351D01*
X0048768Y0075949D02*
X0049657Y0075949D01*
X0048970Y0075949D01*
X0049113Y0077548D02*
X0049313Y0077548D01*
X0049313Y0077548D01*
X0049313Y0079146D02*
X0049313Y0079146D01*
X0049113Y0079146D01*
X0049313Y0080745D02*
X0044513Y0080745D01*
X0044113Y0080745D02*
X0030503Y0080745D01*
X0039313Y0080745D01*
X0039313Y0082343D02*
X0032102Y0082343D01*
X0039513Y0082343D01*
X0039513Y0083942D02*
X0033089Y0083942D01*
X0039313Y0083942D01*
X0049113Y0083942D02*
X0049313Y0083942D01*
X0049313Y0083942D01*
X0049313Y0082343D02*
X0049313Y0082343D01*
X0049113Y0082343D01*
X0049313Y0080745D02*
X0049313Y0080745D01*
X0044513Y0079146D02*
X0044113Y0079146D01*
X0039513Y0079146D02*
X0028905Y0079146D01*
X0039313Y0079146D01*
X0039313Y0077548D02*
X0021400Y0077548D01*
X0039513Y0077548D01*
X0044113Y0077548D02*
X0044513Y0077548D01*
X0057962Y0074351D02*
X0060665Y0074351D01*
X0057962Y0074351D01*
X0058970Y0075949D02*
X0059657Y0075949D01*
X0058970Y0075949D01*
X0059313Y0077548D02*
X0059313Y0077548D01*
X0059313Y0077548D01*
X0059313Y0079146D02*
X0059313Y0079146D01*
X0059313Y0079146D01*
X0059313Y0080745D02*
X0059313Y0080745D01*
X0059313Y0080745D01*
X0059313Y0082343D02*
X0059313Y0082343D01*
X0059313Y0082343D01*
X0059313Y0083942D02*
X0059313Y0083942D01*
X0059313Y0083942D01*
X0069313Y0083942D02*
X0069313Y0083942D01*
X0069313Y0083942D01*
X0069313Y0082343D02*
X0069313Y0082343D01*
X0069313Y0082343D01*
X0069313Y0080745D02*
X0069313Y0080745D01*
X0069313Y0080745D01*
X0069313Y0079146D02*
X0069313Y0079146D01*
X0069313Y0079146D01*
X0069313Y0077548D02*
X0069313Y0077548D01*
X0069313Y0077548D01*
X0068970Y0075949D02*
X0069657Y0075949D01*
X0068970Y0075949D01*
X0067962Y0074351D02*
X0070665Y0074351D01*
X0067962Y0074351D01*
X0103111Y0063161D02*
X0107281Y0063161D01*
X0107267Y0063214D02*
X0107390Y0062756D01*
X0107627Y0062346D01*
X0107962Y0062011D01*
X0108373Y0061774D01*
X0108830Y0061651D01*
X0112133Y0061651D01*
X0112133Y0065235D01*
X0107267Y0065235D01*
X0107267Y0063214D01*
X0107067Y0063161D02*
X0103111Y0063161D01*
X0104709Y0061563D02*
X0122825Y0061563D01*
X0116508Y0061563D01*
X0116262Y0061774D02*
X0115804Y0061651D01*
X0112502Y0061651D01*
X0112502Y0065235D01*
X0117367Y0065235D01*
X0117367Y0063214D01*
X0117245Y0062756D01*
X0117008Y0062346D01*
X0116673Y0062011D01*
X0116262Y0061774D01*
X0117353Y0063161D02*
X0122525Y0063161D01*
X0117567Y0063161D01*
X0112502Y0063161D02*
X0112133Y0063161D01*
X0112133Y0064760D02*
X0112502Y0064760D01*
X0112502Y0066358D02*
X0112133Y0066358D01*
X0117367Y0066358D02*
X0124244Y0066358D01*
X0117630Y0066358D01*
X0117567Y0064760D02*
X0122911Y0064760D01*
X0117367Y0064760D01*
X0117278Y0067957D02*
X0127359Y0067957D01*
X0121760Y0067957D02*
X0119229Y0067957D01*
X0118938Y0072752D02*
X0126973Y0072752D01*
X0124319Y0072752D01*
X0123665Y0074351D02*
X0125780Y0074351D01*
X0120130Y0074351D01*
X0120432Y0075949D02*
X0125478Y0075949D01*
X0122237Y0075949D01*
X0131733Y0072752D02*
X0147131Y0072752D01*
X0131733Y0072752D01*
X0137859Y0067957D02*
X0142789Y0067957D01*
X0142500Y0067347D02*
X0137859Y0067347D01*
X0137859Y0063846D01*
X0144916Y0056789D01*
X0149825Y0056789D01*
X0149690Y0056925D01*
X0149100Y0058349D01*
X0149100Y0059891D01*
X0149690Y0061315D01*
X0149825Y0061451D01*
X0143672Y0061451D01*
X0142500Y0062622D01*
X0142500Y0067347D01*
X0142500Y0066358D02*
X0137859Y0066358D01*
X0142700Y0066358D01*
X0142700Y0065235D02*
X0142700Y0063214D01*
X0142823Y0062756D01*
X0143060Y0062346D01*
X0143395Y0062011D01*
X0143806Y0061774D01*
X0144263Y0061651D01*
X0147566Y0061651D01*
X0147566Y0065235D01*
X0142700Y0065235D01*
X0142700Y0064760D02*
X0137859Y0064760D01*
X0142500Y0064760D01*
X0142500Y0063161D02*
X0138544Y0063161D01*
X0142714Y0063161D01*
X0143560Y0061563D02*
X0140142Y0061563D01*
X0149937Y0061563D01*
X0149130Y0059964D02*
X0141741Y0059964D01*
X0149130Y0059964D01*
X0149100Y0058366D02*
X0143339Y0058366D01*
X0149100Y0058366D01*
X0156102Y0056767D02*
X0160317Y0056767D01*
X0156102Y0056767D01*
X0155475Y0055169D02*
X0160317Y0055169D01*
X0155475Y0055169D01*
X0155475Y0053570D02*
X0160317Y0053570D01*
X0155475Y0053570D01*
X0155475Y0051972D02*
X0160317Y0051972D01*
X0155475Y0051972D01*
X0155475Y0050373D02*
X0160317Y0050373D01*
X0155475Y0050373D01*
X0155475Y0048775D02*
X0160317Y0048775D01*
X0155475Y0048775D01*
X0155475Y0047176D02*
X0160317Y0047176D01*
X0155475Y0047176D01*
X0155475Y0045578D02*
X0160317Y0045578D01*
X0155475Y0045578D01*
X0155475Y0043979D02*
X0160317Y0043979D01*
X0155475Y0043979D01*
X0155475Y0042381D02*
X0160317Y0042381D01*
X0155475Y0042381D01*
X0150475Y0042919D02*
X0149525Y0042919D01*
X0148606Y0042539D01*
X0147409Y0041342D01*
X0146298Y0041342D01*
X0144874Y0040752D01*
X0143784Y0039662D01*
X0143194Y0038237D01*
X0143194Y0036696D01*
X0143784Y0035272D01*
X0144874Y0034182D01*
X0146298Y0033592D01*
X0146395Y0033592D01*
X0146365Y0033561D01*
X0145257Y0033561D01*
X0144085Y0032390D01*
X0144085Y0029256D01*
X0136274Y0029256D01*
X0136274Y0032390D01*
X0135102Y0033561D01*
X0133994Y0033561D01*
X0132808Y0034747D01*
X0131205Y0035412D01*
X0130701Y0035412D01*
X0129525Y0038249D01*
X0127182Y0040592D01*
X0124120Y0041860D01*
X0120806Y0041860D01*
X0120432Y0041706D01*
X0120432Y0042174D01*
X0120156Y0042841D01*
X0141661Y0042841D01*
X0142580Y0043221D01*
X0143283Y0043925D01*
X0143664Y0044843D01*
X0143664Y0047282D01*
X0144449Y0048067D01*
X0144774Y0048852D01*
X0150475Y0048852D01*
X0150475Y0042919D01*
X0150475Y0043979D02*
X0143306Y0043979D01*
X0143664Y0045578D02*
X0150475Y0045578D01*
X0150475Y0047176D02*
X0143664Y0047176D01*
X0144742Y0048775D02*
X0150475Y0048775D01*
X0138969Y0053547D02*
X0137879Y0052457D01*
X0137859Y0052408D01*
X0137859Y0055618D01*
X0136687Y0056789D01*
X0128900Y0056789D01*
X0128900Y0060077D01*
X0129685Y0060862D01*
X0129929Y0061451D01*
X0132900Y0061451D01*
X0140267Y0054085D01*
X0138969Y0053547D01*
X0139025Y0053570D02*
X0137859Y0053570D01*
X0137859Y0055169D02*
X0139182Y0055169D01*
X0137584Y0056767D02*
X0136709Y0056767D01*
X0135985Y0058366D02*
X0128900Y0058366D01*
X0123900Y0058366D02*
X0119826Y0058366D01*
X0120042Y0056767D02*
X0123900Y0056767D01*
X0116418Y0056767D01*
X0117567Y0055169D02*
X0123900Y0055169D01*
X0119502Y0055169D01*
X0117567Y0053570D02*
X0123900Y0053570D01*
X0117567Y0053570D01*
X0117567Y0051972D02*
X0123900Y0051972D01*
X0117567Y0051972D01*
X0106946Y0051972D02*
X0102426Y0051972D01*
X0106946Y0051972D01*
X0105348Y0053570D02*
X0102426Y0053570D01*
X0105348Y0053570D01*
X0103749Y0055169D02*
X0102426Y0055169D01*
X0103749Y0055169D01*
X0102151Y0056767D02*
X0101276Y0056767D01*
X0102151Y0056767D01*
X0107906Y0058366D02*
X0123900Y0058366D01*
X0123900Y0059964D02*
X0118672Y0059964D01*
X0123900Y0059964D02*
X0106308Y0059964D01*
X0110209Y0059964D01*
X0108127Y0061563D02*
X0104709Y0061563D01*
X0107906Y0058366D02*
X0111808Y0058366D01*
X0128900Y0059964D02*
X0134387Y0059964D01*
X0147566Y0063161D02*
X0147935Y0063161D01*
X0147935Y0064760D02*
X0147566Y0064760D01*
X0147566Y0066358D02*
X0147935Y0066358D01*
X0147935Y0067957D02*
X0147566Y0067957D01*
X0152800Y0064760D02*
X0153642Y0064760D01*
X0153000Y0064760D01*
X0153000Y0063161D02*
X0155241Y0063161D01*
X0152786Y0063161D01*
X0156012Y0061563D02*
X0156839Y0061563D01*
X0156012Y0061563D01*
X0156819Y0059964D02*
X0158438Y0059964D01*
X0156819Y0059964D01*
X0156850Y0058366D02*
X0160036Y0058366D01*
X0156850Y0058366D01*
X0164022Y0061451D02*
X0168333Y0061451D01*
X0173592Y0056192D01*
X0172369Y0056699D01*
X0172211Y0056699D01*
X0172120Y0056789D01*
X0165317Y0056789D01*
X0165317Y0059617D01*
X0164937Y0060536D01*
X0164233Y0061240D01*
X0164022Y0061451D01*
X0165174Y0059964D02*
X0169820Y0059964D01*
X0171418Y0058366D02*
X0165317Y0058366D01*
X0172142Y0056767D02*
X0173017Y0056767D01*
X0174653Y0055131D02*
X0177933Y0051851D01*
X0177933Y0050793D01*
X0174182Y0050793D01*
X0174629Y0051241D01*
X0175160Y0052522D01*
X0175160Y0053908D01*
X0174653Y0055131D01*
X0175160Y0053570D02*
X0176214Y0053570D01*
X0174932Y0051972D02*
X0177812Y0051972D01*
X0187262Y0056789D02*
X0188433Y0055618D01*
X0188433Y0050793D01*
X0194286Y0050793D01*
X0195071Y0051578D01*
X0196495Y0052168D01*
X0198037Y0052168D01*
X0198225Y0052091D01*
X0198225Y0055618D01*
X0199396Y0056789D01*
X0200983Y0056789D01*
X0191309Y0066463D01*
X0188631Y0066463D01*
X0188939Y0065719D01*
X0188939Y0064333D01*
X0188433Y0063111D01*
X0188433Y0062622D01*
X0187262Y0061451D01*
X0179105Y0061451D01*
X0177933Y0062622D01*
X0177933Y0066463D01*
X0173292Y0066463D01*
X0173292Y0063846D01*
X0180349Y0056789D01*
X0187262Y0056789D01*
X0180349Y0056789D01*
X0173292Y0063846D01*
X0173292Y0066463D01*
X0178133Y0066463D01*
X0178133Y0065604D01*
X0182999Y0065604D01*
X0182999Y0065235D01*
X0178133Y0065235D01*
X0178133Y0063214D01*
X0178256Y0062756D01*
X0178493Y0062346D01*
X0178828Y0062011D01*
X0179239Y0061774D01*
X0179696Y0061651D01*
X0182999Y0061651D01*
X0182999Y0065235D01*
X0183368Y0065235D01*
X0183368Y0065604D01*
X0188233Y0065604D01*
X0188233Y0066463D01*
X0191309Y0066463D01*
X0200983Y0056789D01*
X0199396Y0056789D01*
X0198225Y0055618D01*
X0198225Y0052091D01*
X0198037Y0052168D01*
X0196495Y0052168D01*
X0195071Y0051578D01*
X0194286Y0050793D01*
X0188433Y0050793D01*
X0188433Y0055618D01*
X0187262Y0056789D01*
X0187284Y0056767D02*
X0199374Y0056767D01*
X0187284Y0056767D01*
X0188433Y0055169D02*
X0198225Y0055169D01*
X0188433Y0055169D01*
X0188433Y0053570D02*
X0198225Y0053570D01*
X0188433Y0053570D01*
X0188433Y0051972D02*
X0196021Y0051972D01*
X0188433Y0051972D01*
X0200807Y0046715D02*
X0201198Y0046324D01*
X0202479Y0045793D01*
X0203865Y0045793D01*
X0205145Y0046324D01*
X0206125Y0047304D01*
X0206656Y0048585D01*
X0206656Y0048852D01*
X0207553Y0048852D01*
X0208725Y0050024D01*
X0208725Y0052000D01*
X0210514Y0050211D01*
X0210514Y0049216D01*
X0209291Y0049216D01*
X0207866Y0048626D01*
X0206776Y0047536D01*
X0206186Y0046111D01*
X0206186Y0044570D01*
X0206776Y0043146D01*
X0207866Y0042056D01*
X0209291Y0041466D01*
X0210401Y0041466D01*
X0214060Y0037806D01*
X0214060Y0036696D01*
X0214650Y0035272D01*
X0215740Y0034182D01*
X0217165Y0033592D01*
X0217261Y0033592D01*
X0217231Y0033561D01*
X0216123Y0033561D01*
X0214951Y0032390D01*
X0214951Y0029256D01*
X0207140Y0029256D01*
X0207140Y0032390D01*
X0205969Y0033561D01*
X0204860Y0033561D01*
X0203674Y0034747D01*
X0202071Y0035412D01*
X0201567Y0035412D01*
X0200392Y0038249D01*
X0198048Y0040592D01*
X0194986Y0041860D01*
X0191672Y0041860D01*
X0188610Y0040592D01*
X0186267Y0038249D01*
X0185092Y0035412D01*
X0184587Y0035412D01*
X0182984Y0034747D01*
X0181798Y0033561D01*
X0180690Y0033561D01*
X0179518Y0032390D01*
X0179518Y0029256D01*
X0171707Y0029256D01*
X0171707Y0032390D01*
X0170536Y0033561D01*
X0170297Y0033561D01*
X0171024Y0034287D01*
X0171614Y0035712D01*
X0171614Y0037253D01*
X0171024Y0038677D01*
X0169934Y0039767D01*
X0168509Y0040357D01*
X0167399Y0040357D01*
X0165317Y0042439D01*
X0165317Y0044250D01*
X0165544Y0044024D01*
X0166968Y0043434D01*
X0168509Y0043434D01*
X0169934Y0044024D01*
X0171024Y0045114D01*
X0171305Y0045793D01*
X0194286Y0045793D01*
X0195071Y0045008D01*
X0196495Y0044418D01*
X0198037Y0044418D01*
X0199461Y0045008D01*
X0200551Y0046098D01*
X0200807Y0046715D01*
X0200031Y0045578D02*
X0206186Y0045578D01*
X0205998Y0047176D02*
X0206627Y0047176D01*
X0206656Y0048775D02*
X0208226Y0048775D01*
X0208725Y0050373D02*
X0210352Y0050373D01*
X0208753Y0051972D02*
X0208725Y0051972D01*
X0222717Y0056767D02*
X0234807Y0056767D01*
X0222717Y0056767D01*
X0223867Y0055169D02*
X0233658Y0055169D01*
X0223867Y0055169D01*
X0223867Y0053570D02*
X0233658Y0053570D01*
X0223867Y0053570D01*
X0223867Y0051972D02*
X0233658Y0051972D01*
X0223867Y0051972D01*
X0223867Y0050373D02*
X0233658Y0050373D01*
X0223867Y0050373D01*
X0229848Y0048775D02*
X0235120Y0048775D01*
X0229848Y0048775D01*
X0231446Y0047176D02*
X0235779Y0047176D01*
X0231446Y0047176D01*
X0233045Y0045578D02*
X0261108Y0045578D01*
X0261364Y0045578D02*
X0233045Y0045578D01*
X0235651Y0047304D02*
X0236631Y0046324D01*
X0237912Y0045793D01*
X0239298Y0045793D01*
X0240578Y0046324D01*
X0241559Y0047304D01*
X0242089Y0048585D01*
X0242089Y0048852D01*
X0242986Y0048852D01*
X0244158Y0050024D01*
X0244158Y0055618D01*
X0242986Y0056789D01*
X0234829Y0056789D01*
X0233658Y0055618D01*
X0233658Y0050024D01*
X0234829Y0048852D01*
X0235120Y0048852D01*
X0235120Y0048585D01*
X0235651Y0047304D01*
X0236631Y0046324D01*
X0237912Y0045793D01*
X0239298Y0045793D01*
X0240578Y0046324D01*
X0241559Y0047304D01*
X0242089Y0048585D01*
X0242089Y0048852D01*
X0242986Y0048852D01*
X0244158Y0050024D01*
X0244158Y0055618D01*
X0242986Y0056789D01*
X0234829Y0056789D01*
X0233658Y0055618D01*
X0233658Y0050024D01*
X0234829Y0048852D01*
X0235120Y0048852D01*
X0235120Y0048585D01*
X0235651Y0047304D01*
X0241431Y0047176D02*
X0259510Y0047176D01*
X0261364Y0047176D02*
X0241431Y0047176D01*
X0242089Y0048775D02*
X0257911Y0048775D01*
X0256312Y0050373D02*
X0244158Y0050373D01*
X0261164Y0050373D01*
X0261164Y0051972D02*
X0244158Y0051972D01*
X0254714Y0051972D01*
X0253115Y0053570D02*
X0244158Y0053570D01*
X0261164Y0053570D01*
X0260469Y0053570D01*
X0261164Y0055169D02*
X0258871Y0055169D01*
X0257272Y0056767D02*
X0261164Y0056767D01*
X0243008Y0056767D01*
X0249918Y0056767D01*
X0251517Y0055169D02*
X0244158Y0055169D01*
X0261164Y0055169D01*
X0261502Y0058366D02*
X0255674Y0058366D01*
X0254075Y0059964D02*
X0261255Y0059964D01*
X0212607Y0059964D01*
X0228382Y0059964D01*
X0227587Y0061563D02*
X0222807Y0061563D01*
X0222561Y0061774D02*
X0222104Y0061651D01*
X0218801Y0061651D01*
X0218801Y0065235D01*
X0223667Y0065235D01*
X0223667Y0063214D01*
X0223544Y0062756D01*
X0223307Y0062346D01*
X0222972Y0062011D01*
X0222561Y0061774D01*
X0223652Y0063161D02*
X0233658Y0063161D01*
X0233658Y0064760D02*
X0232246Y0064760D01*
X0233658Y0064760D02*
X0223667Y0064760D01*
X0223667Y0066358D02*
X0225331Y0066358D01*
X0228256Y0066358D02*
X0233658Y0066358D01*
X0231982Y0066358D01*
X0222919Y0069555D02*
X0212020Y0069555D01*
X0210320Y0071154D02*
X0223099Y0071154D01*
X0193588Y0071154D01*
X0199687Y0071154D01*
X0199970Y0069555D02*
X0195288Y0069555D01*
X0222919Y0069555D01*
X0218801Y0067957D02*
X0218432Y0067957D01*
X0213655Y0067957D02*
X0208725Y0067957D01*
X0208725Y0066358D02*
X0213567Y0066358D01*
X0213567Y0064760D02*
X0208725Y0064760D01*
X0209744Y0064760D01*
X0209410Y0063161D02*
X0211539Y0063161D01*
X0213581Y0063161D02*
X0209410Y0063161D01*
X0211008Y0061563D02*
X0214426Y0061563D01*
X0211008Y0061563D02*
X0234717Y0061563D01*
X0243098Y0061563D02*
X0261164Y0061563D01*
X0252477Y0061563D01*
X0253257Y0063161D02*
X0261164Y0063161D01*
X0253257Y0063161D01*
X0251512Y0063161D02*
X0250878Y0063161D01*
X0251512Y0063161D02*
X0244158Y0063161D01*
X0244158Y0064760D02*
X0249138Y0064760D01*
X0244158Y0064760D01*
X0244158Y0066358D02*
X0248509Y0066358D01*
X0244158Y0066358D01*
X0255630Y0064760D02*
X0261164Y0064760D01*
X0255630Y0064760D01*
X0256259Y0066358D02*
X0260311Y0066358D01*
X0256259Y0066358D01*
X0256180Y0067957D02*
X0258713Y0067957D01*
X0256180Y0067957D01*
X0255303Y0069555D02*
X0257114Y0069555D01*
X0255303Y0069555D01*
X0258722Y0075019D02*
X0261164Y0072577D01*
X0261164Y0074358D01*
X0257949Y0077574D01*
X0253716Y0077574D01*
X0252540Y0078061D01*
X0251640Y0078961D01*
X0245153Y0085448D01*
X0235899Y0085448D01*
X0235899Y0084122D01*
X0236183Y0083435D01*
X0236183Y0082049D01*
X0235653Y0080769D01*
X0234673Y0079788D01*
X0234386Y0079670D01*
X0238656Y0075400D01*
X0257803Y0075400D01*
X0258722Y0075019D01*
X0259390Y0074351D02*
X0261164Y0074351D01*
X0259573Y0075949D02*
X0238106Y0075949D01*
X0236508Y0077548D02*
X0257974Y0077548D01*
X0263462Y0081111D02*
X0265689Y0078884D01*
X0269992Y0078884D01*
X0271164Y0077712D01*
X0271164Y0074801D01*
X0271337Y0074974D01*
X0273089Y0075700D01*
X0274375Y0075700D01*
X0274375Y0082473D01*
X0273018Y0081911D01*
X0271121Y0081911D01*
X0269368Y0082637D01*
X0269250Y0082755D01*
X0269216Y0082671D01*
X0268203Y0081659D01*
X0266880Y0081111D01*
X0265448Y0081111D01*
X0263462Y0081111D01*
X0263828Y0080745D02*
X0274375Y0080745D01*
X0274375Y0082343D02*
X0274063Y0082343D01*
X0270076Y0082343D02*
X0268888Y0082343D01*
X0266164Y0084711D02*
X0266164Y0092585D01*
X0272069Y0092585D01*
X0272221Y0092583D01*
X0272373Y0092577D01*
X0272525Y0092567D01*
X0272676Y0092554D01*
X0272827Y0092536D01*
X0272978Y0092515D01*
X0273128Y0092489D01*
X0273277Y0092460D01*
X0273426Y0092427D01*
X0273573Y0092390D01*
X0273720Y0092350D01*
X0273865Y0092305D01*
X0274009Y0092257D01*
X0274152Y0092205D01*
X0274294Y0092150D01*
X0274434Y0092091D01*
X0274573Y0092028D01*
X0274710Y0091962D01*
X0274845Y0091892D01*
X0274978Y0091819D01*
X0275109Y0091742D01*
X0275239Y0091662D01*
X0275366Y0091579D01*
X0275491Y0091493D01*
X0275614Y0091403D01*
X0275734Y0091310D01*
X0275852Y0091214D01*
X0275968Y0091115D01*
X0276081Y0091013D01*
X0276191Y0090909D01*
X0276299Y0090801D01*
X0276403Y0090691D01*
X0276505Y0090578D01*
X0276604Y0090462D01*
X0276700Y0090344D01*
X0276793Y0090224D01*
X0276883Y0090101D01*
X0276969Y0089976D01*
X0277052Y0089849D01*
X0277132Y0089719D01*
X0277209Y0089588D01*
X0277282Y0089455D01*
X0277352Y0089320D01*
X0277418Y0089183D01*
X0277481Y0089044D01*
X0277540Y0088904D01*
X0277595Y0088762D01*
X0277647Y0088619D01*
X0277695Y0088475D01*
X0277740Y0088330D01*
X0277780Y0088183D01*
X0277817Y0088036D01*
X0277850Y0087887D01*
X0277879Y0087738D01*
X0277905Y0087588D01*
X0277926Y0087437D01*
X0277944Y0087286D01*
X0277957Y0087135D01*
X0277967Y0086983D01*
X0277973Y0086831D01*
X0277975Y0086679D01*
X0277975Y0031561D01*
X0277973Y0031409D01*
X0277967Y0031257D01*
X0277957Y0031105D01*
X0277944Y0030954D01*
X0277926Y0030803D01*
X0277905Y0030652D01*
X0277879Y0030502D01*
X0277850Y0030353D01*
X0277817Y0030204D01*
X0277780Y0030057D01*
X0277740Y0029910D01*
X0277695Y0029765D01*
X0277647Y0029621D01*
X0277595Y0029478D01*
X0277540Y0029336D01*
X0277481Y0029196D01*
X0277418Y0029057D01*
X0277352Y0028920D01*
X0277282Y0028785D01*
X0277209Y0028652D01*
X0277132Y0028521D01*
X0277052Y0028391D01*
X0276969Y0028264D01*
X0276883Y0028139D01*
X0276793Y0028016D01*
X0276700Y0027896D01*
X0276604Y0027778D01*
X0276505Y0027662D01*
X0276403Y0027549D01*
X0276299Y0027439D01*
X0276191Y0027331D01*
X0276081Y0027227D01*
X0275968Y0027125D01*
X0275852Y0027026D01*
X0275734Y0026930D01*
X0275614Y0026837D01*
X0275491Y0026747D01*
X0275366Y0026661D01*
X0275239Y0026578D01*
X0275109Y0026498D01*
X0274978Y0026421D01*
X0274845Y0026348D01*
X0274710Y0026278D01*
X0274573Y0026212D01*
X0274434Y0026149D01*
X0274294Y0026090D01*
X0274152Y0026035D01*
X0274009Y0025983D01*
X0273865Y0025935D01*
X0273720Y0025890D01*
X0273573Y0025850D01*
X0273426Y0025813D01*
X0273277Y0025780D01*
X0273128Y0025751D01*
X0272978Y0025725D01*
X0272827Y0025704D01*
X0272676Y0025686D01*
X0272525Y0025673D01*
X0272373Y0025663D01*
X0272221Y0025657D01*
X0272069Y0025655D01*
X0272069Y0025656D02*
X0266164Y0025656D01*
X0266164Y0033530D01*
X0254353Y0033530D01*
X0254353Y0025656D01*
X0240573Y0025656D01*
X0242573Y0029593D02*
X0250753Y0029593D01*
X0242573Y0029593D01*
X0242573Y0031191D02*
X0250753Y0031191D01*
X0242573Y0031191D01*
X0242173Y0032790D02*
X0250753Y0032790D01*
X0242173Y0032790D01*
X0241932Y0034388D02*
X0250812Y0034388D01*
X0241932Y0034388D01*
X0242480Y0035987D02*
X0251719Y0035987D01*
X0242480Y0035987D01*
X0242342Y0037585D02*
X0274375Y0037585D01*
X0242342Y0037585D01*
X0241383Y0039184D02*
X0274375Y0039184D01*
X0241383Y0039184D01*
X0237840Y0040782D02*
X0261164Y0040782D01*
X0261412Y0040782D02*
X0237840Y0040782D01*
X0236242Y0042381D02*
X0261164Y0042381D01*
X0261364Y0042381D02*
X0236242Y0042381D01*
X0234643Y0043979D02*
X0261164Y0043979D01*
X0261364Y0043979D02*
X0234643Y0043979D01*
X0229691Y0041860D02*
X0227105Y0041860D01*
X0224043Y0040592D01*
X0221775Y0038324D01*
X0221220Y0039662D01*
X0220130Y0040752D01*
X0218706Y0041342D01*
X0217596Y0041342D01*
X0214128Y0044809D01*
X0226742Y0044809D01*
X0229691Y0041860D01*
X0229171Y0042381D02*
X0216557Y0042381D01*
X0214958Y0043979D02*
X0227572Y0043979D01*
X0224502Y0040782D02*
X0220057Y0040782D01*
X0221418Y0039184D02*
X0222635Y0039184D01*
X0214060Y0037585D02*
X0200666Y0037585D01*
X0201328Y0035987D02*
X0214354Y0035987D01*
X0215534Y0034388D02*
X0204033Y0034388D01*
X0206740Y0032790D02*
X0215351Y0032790D01*
X0214951Y0031191D02*
X0207140Y0031191D01*
X0207140Y0029593D02*
X0214951Y0029593D01*
X0216951Y0025656D02*
X0205140Y0025656D01*
X0181518Y0025656D02*
X0169707Y0025656D01*
X0171707Y0029593D02*
X0179518Y0029593D01*
X0179518Y0031191D02*
X0171707Y0031191D01*
X0171307Y0032790D02*
X0179918Y0032790D01*
X0182625Y0034388D02*
X0171065Y0034388D01*
X0171614Y0035987D02*
X0185330Y0035987D01*
X0185992Y0037585D02*
X0171476Y0037585D01*
X0170517Y0039184D02*
X0187202Y0039184D01*
X0189069Y0040782D02*
X0166974Y0040782D01*
X0165376Y0042381D02*
X0207541Y0042381D01*
X0206431Y0043979D02*
X0169825Y0043979D01*
X0165652Y0043979D02*
X0165317Y0043979D01*
X0171216Y0045578D02*
X0194502Y0045578D01*
X0197589Y0040782D02*
X0211084Y0040782D01*
X0212683Y0039184D02*
X0199456Y0039184D01*
X0242089Y0048775D02*
X0262293Y0048775D01*
X0265964Y0048775D02*
X0266364Y0048775D01*
X0266364Y0047176D02*
X0265964Y0047176D01*
X0265964Y0045578D02*
X0266364Y0045578D01*
X0266364Y0043979D02*
X0265964Y0043979D01*
X0265964Y0043999D02*
X0265964Y0039399D01*
X0262927Y0039399D01*
X0262469Y0039522D01*
X0262059Y0039759D01*
X0261723Y0040094D01*
X0261486Y0040504D01*
X0261364Y0040962D01*
X0261364Y0043999D01*
X0265964Y0043999D01*
X0265964Y0042381D02*
X0266364Y0042381D01*
X0270964Y0042381D02*
X0274375Y0042381D01*
X0271164Y0042381D01*
X0271164Y0040782D02*
X0274375Y0040782D01*
X0270916Y0040782D01*
X0266364Y0040782D02*
X0265964Y0040782D01*
X0268798Y0035987D02*
X0270293Y0035987D01*
X0268798Y0035987D01*
X0273846Y0035987D02*
X0274375Y0035987D01*
X0273846Y0035987D01*
X0271164Y0051179D02*
X0271164Y0058027D01*
X0270150Y0059041D01*
X0271164Y0060056D01*
X0271164Y0067062D01*
X0271337Y0066889D01*
X0273089Y0066163D01*
X0274375Y0066163D01*
X0274375Y0052078D01*
X0273089Y0052078D01*
X0271337Y0051352D01*
X0271164Y0051179D01*
X0271164Y0051972D02*
X0272834Y0051972D01*
X0274375Y0053570D02*
X0271164Y0053570D01*
X0271164Y0055169D02*
X0274375Y0055169D01*
X0274375Y0056767D02*
X0271164Y0056767D01*
X0270825Y0058366D02*
X0274375Y0058366D01*
X0274375Y0059964D02*
X0271073Y0059964D01*
X0271164Y0061563D02*
X0274375Y0061563D01*
X0274375Y0063161D02*
X0271164Y0063161D01*
X0271164Y0064760D02*
X0274375Y0064760D01*
X0272617Y0066358D02*
X0271164Y0066358D01*
X0269724Y0068884D02*
X0264857Y0068884D01*
X0264857Y0068884D01*
X0269724Y0068884D01*
X0269724Y0068884D01*
X0261164Y0072752D02*
X0260988Y0072752D01*
X0271164Y0075949D02*
X0274375Y0075949D01*
X0274375Y0077548D02*
X0271164Y0077548D01*
X0274375Y0079146D02*
X0265427Y0079146D01*
X0251455Y0079146D02*
X0234909Y0079146D01*
X0235629Y0080745D02*
X0249856Y0080745D01*
X0248257Y0082343D02*
X0236183Y0082343D01*
X0235974Y0083942D02*
X0246659Y0083942D01*
X0254353Y0084711D02*
X0266164Y0084711D01*
X0254353Y0084711D02*
X0254353Y0092585D01*
X0026006Y0092585D01*
X0026006Y0084711D01*
X0014195Y0084711D01*
X0014195Y0092585D01*
X0008290Y0092585D01*
X0008138Y0092583D01*
X0007986Y0092577D01*
X0007834Y0092567D01*
X0007683Y0092554D01*
X0007532Y0092536D01*
X0007381Y0092515D01*
X0007231Y0092489D01*
X0007082Y0092460D01*
X0006933Y0092427D01*
X0006786Y0092390D01*
X0006639Y0092350D01*
X0006494Y0092305D01*
X0006350Y0092257D01*
X0006207Y0092205D01*
X0006065Y0092150D01*
X0005925Y0092091D01*
X0005786Y0092028D01*
X0005649Y0091962D01*
X0005514Y0091892D01*
X0005381Y0091819D01*
X0005250Y0091742D01*
X0005120Y0091662D01*
X0004993Y0091579D01*
X0004868Y0091493D01*
X0004745Y0091403D01*
X0004625Y0091310D01*
X0004507Y0091214D01*
X0004391Y0091115D01*
X0004278Y0091013D01*
X0004168Y0090909D01*
X0004060Y0090801D01*
X0003956Y0090691D01*
X0003854Y0090578D01*
X0003755Y0090462D01*
X0003659Y0090344D01*
X0003566Y0090224D01*
X0003476Y0090101D01*
X0003390Y0089976D01*
X0003307Y0089849D01*
X0003227Y0089719D01*
X0003150Y0089588D01*
X0003077Y0089455D01*
X0003007Y0089320D01*
X0002941Y0089183D01*
X0002878Y0089044D01*
X0002819Y0088904D01*
X0002764Y0088762D01*
X0002712Y0088619D01*
X0002664Y0088475D01*
X0002619Y0088330D01*
X0002579Y0088183D01*
X0002542Y0088036D01*
X0002509Y0087887D01*
X0002480Y0087738D01*
X0002454Y0087588D01*
X0002433Y0087437D01*
X0002415Y0087286D01*
X0002402Y0087135D01*
X0002392Y0086983D01*
X0002386Y0086831D01*
X0002384Y0086679D01*
X0002384Y0031561D01*
X0002386Y0031409D01*
X0002392Y0031257D01*
X0002402Y0031105D01*
X0002415Y0030954D01*
X0002433Y0030803D01*
X0002454Y0030652D01*
X0002480Y0030502D01*
X0002509Y0030353D01*
X0002542Y0030204D01*
X0002579Y0030057D01*
X0002619Y0029910D01*
X0002664Y0029765D01*
X0002712Y0029621D01*
X0002764Y0029478D01*
X0002819Y0029336D01*
X0002878Y0029196D01*
X0002941Y0029057D01*
X0003007Y0028920D01*
X0003077Y0028785D01*
X0003150Y0028652D01*
X0003227Y0028521D01*
X0003307Y0028391D01*
X0003390Y0028264D01*
X0003476Y0028139D01*
X0003566Y0028016D01*
X0003659Y0027896D01*
X0003755Y0027778D01*
X0003854Y0027662D01*
X0003956Y0027549D01*
X0004060Y0027439D01*
X0004168Y0027331D01*
X0004278Y0027227D01*
X0004391Y0027125D01*
X0004507Y0027026D01*
X0004625Y0026930D01*
X0004745Y0026837D01*
X0004868Y0026747D01*
X0004993Y0026661D01*
X0005120Y0026578D01*
X0005250Y0026498D01*
X0005381Y0026421D01*
X0005514Y0026348D01*
X0005649Y0026278D01*
X0005786Y0026212D01*
X0005925Y0026149D01*
X0006065Y0026090D01*
X0006207Y0026035D01*
X0006350Y0025983D01*
X0006494Y0025935D01*
X0006639Y0025890D01*
X0006786Y0025850D01*
X0006933Y0025813D01*
X0007082Y0025780D01*
X0007231Y0025751D01*
X0007381Y0025725D01*
X0007532Y0025704D01*
X0007683Y0025686D01*
X0007834Y0025673D01*
X0007986Y0025663D01*
X0008138Y0025657D01*
X0008290Y0025655D01*
X0010066Y0035987D02*
X0011561Y0035987D01*
X0010066Y0035987D01*
X0006513Y0035987D02*
X0005984Y0035987D01*
X0006513Y0035987D01*
X0005984Y0040782D02*
X0009195Y0040782D01*
X0009443Y0040782D02*
X0005984Y0040782D01*
X0005984Y0042381D02*
X0009195Y0042381D01*
X0009395Y0042381D02*
X0005984Y0042381D01*
X0013995Y0042381D02*
X0014395Y0042381D01*
X0014395Y0043979D02*
X0013995Y0043979D01*
X0013995Y0045578D02*
X0014395Y0045578D01*
X0014395Y0047176D02*
X0013995Y0047176D01*
X0013995Y0048775D02*
X0014395Y0048775D01*
X0018995Y0047176D02*
X0037392Y0047176D01*
X0053991Y0042841D02*
X0053991Y0041363D01*
X0053550Y0040922D01*
X0054347Y0040592D01*
X0056691Y0038249D01*
X0057866Y0035412D01*
X0058370Y0035412D01*
X0059973Y0034747D01*
X0061160Y0033561D01*
X0062268Y0033561D01*
X0063439Y0032390D01*
X0063439Y0029256D01*
X0072981Y0029256D01*
X0072419Y0030613D01*
X0072419Y0032510D01*
X0073145Y0034262D01*
X0074486Y0035604D01*
X0076239Y0036330D01*
X0078136Y0036330D01*
X0079889Y0035604D01*
X0081230Y0034262D01*
X0081956Y0032510D01*
X0081956Y0030613D01*
X0081394Y0029256D01*
X0094635Y0029256D01*
X0094072Y0030613D01*
X0094072Y0032510D01*
X0094798Y0034262D01*
X0096140Y0035604D01*
X0097892Y0036330D01*
X0099789Y0036330D01*
X0101542Y0035604D01*
X0102883Y0034262D01*
X0103609Y0032510D01*
X0103609Y0030613D01*
X0103047Y0029256D01*
X0108652Y0029256D01*
X0108652Y0032390D01*
X0109824Y0033561D01*
X0110932Y0033561D01*
X0112118Y0034747D01*
X0113721Y0035412D01*
X0114225Y0035412D01*
X0115203Y0037771D01*
X0114362Y0038119D01*
X0113827Y0038654D01*
X0090744Y0038654D01*
X0090209Y0038119D01*
X0088785Y0037529D01*
X0087243Y0037529D01*
X0085819Y0038119D01*
X0084729Y0039209D01*
X0084139Y0040633D01*
X0084139Y0042174D01*
X0084415Y0042841D01*
X0053991Y0042841D01*
X0053991Y0042381D02*
X0084225Y0042381D01*
X0084139Y0040782D02*
X0053888Y0040782D01*
X0055756Y0039184D02*
X0084754Y0039184D01*
X0087107Y0037585D02*
X0056966Y0037585D01*
X0057628Y0035987D02*
X0075411Y0035987D01*
X0073271Y0034388D02*
X0060333Y0034388D01*
X0063039Y0032790D02*
X0072535Y0032790D01*
X0072419Y0031191D02*
X0063439Y0031191D01*
X0063439Y0029593D02*
X0072841Y0029593D01*
X0081533Y0029593D02*
X0094495Y0029593D01*
X0094072Y0031191D02*
X0081956Y0031191D01*
X0081840Y0032790D02*
X0094188Y0032790D01*
X0094924Y0034388D02*
X0081104Y0034388D01*
X0078964Y0035987D02*
X0097064Y0035987D01*
X0100617Y0035987D02*
X0114464Y0035987D01*
X0111759Y0034388D02*
X0102758Y0034388D01*
X0103493Y0032790D02*
X0109052Y0032790D01*
X0108652Y0031191D02*
X0103609Y0031191D01*
X0103187Y0029593D02*
X0108652Y0029593D01*
X0110652Y0025656D02*
X0061439Y0025656D01*
X0088921Y0037585D02*
X0115126Y0037585D01*
X0126723Y0040782D02*
X0144948Y0040782D01*
X0143586Y0039184D02*
X0128590Y0039184D01*
X0129800Y0037585D02*
X0143194Y0037585D01*
X0143488Y0035987D02*
X0130462Y0035987D01*
X0133167Y0034388D02*
X0144668Y0034388D01*
X0144485Y0032790D02*
X0135874Y0032790D01*
X0136274Y0031191D02*
X0144085Y0031191D01*
X0144085Y0029593D02*
X0136274Y0029593D01*
X0134274Y0025656D02*
X0146085Y0025656D01*
X0148448Y0042381D02*
X0120347Y0042381D01*
X0128498Y0047841D02*
X0128519Y0047862D01*
X0128900Y0048780D01*
X0128900Y0048852D01*
X0132758Y0048852D01*
X0132758Y0048585D01*
X0133066Y0047841D01*
X0128498Y0047841D01*
X0128898Y0048775D02*
X0132758Y0048775D01*
X0093075Y0056767D02*
X0080985Y0056767D01*
X0093075Y0056767D01*
X0083126Y0055169D02*
X0082134Y0055169D01*
X0083126Y0055169D01*
X0019673Y0047176D02*
X0019195Y0047176D01*
X0009195Y0051179D02*
X0009022Y0051352D01*
X0007270Y0052078D01*
X0005984Y0052078D01*
X0005984Y0066163D01*
X0007270Y0066163D01*
X0009022Y0066889D01*
X0009195Y0067062D01*
X0009195Y0060056D01*
X0010209Y0059041D01*
X0009195Y0058027D01*
X0009195Y0051179D01*
X0009195Y0051972D02*
X0007525Y0051972D01*
X0005984Y0053570D02*
X0009195Y0053570D01*
X0009195Y0055169D02*
X0005984Y0055169D01*
X0005984Y0056767D02*
X0009195Y0056767D01*
X0009534Y0058366D02*
X0005984Y0058366D01*
X0005984Y0059964D02*
X0009286Y0059964D01*
X0009195Y0061563D02*
X0005984Y0061563D01*
X0005984Y0063161D02*
X0009195Y0063161D01*
X0009195Y0064760D02*
X0005984Y0064760D01*
X0007742Y0066358D02*
X0009195Y0066358D01*
X0009195Y0074801D02*
X0009022Y0074974D01*
X0007270Y0075700D01*
X0005984Y0075700D01*
X0005984Y0082473D01*
X0007341Y0081911D01*
X0009238Y0081911D01*
X0010991Y0082637D01*
X0011109Y0082755D01*
X0011143Y0082671D01*
X0012156Y0081659D01*
X0013479Y0081111D01*
X0015912Y0081111D01*
X0013686Y0078884D01*
X0010367Y0078884D01*
X0009195Y0077712D01*
X0009195Y0074801D01*
X0009195Y0075949D02*
X0005984Y0075949D01*
X0005984Y0077548D02*
X0009195Y0077548D01*
X0005984Y0079146D02*
X0013948Y0079146D01*
X0015547Y0080745D02*
X0005984Y0080745D01*
X0005984Y0082343D02*
X0006296Y0082343D01*
X0010283Y0082343D02*
X0011471Y0082343D01*
X0013995Y0040782D02*
X0014395Y0040782D01*
X0154431Y0071042D02*
X0154881Y0072129D01*
X0154881Y0073363D01*
X0160698Y0067547D01*
X0161401Y0066843D01*
X0162320Y0066463D01*
X0162792Y0066463D01*
X0162792Y0062681D01*
X0154431Y0071042D01*
X0154477Y0071154D02*
X0157091Y0071154D01*
X0155918Y0069555D02*
X0158689Y0069555D01*
X0157516Y0067957D02*
X0160288Y0067957D01*
X0159115Y0066358D02*
X0162792Y0066358D01*
X0162792Y0064760D02*
X0160713Y0064760D01*
X0162312Y0063161D02*
X0162792Y0063161D01*
X0173292Y0064760D02*
X0177933Y0064760D01*
X0178133Y0064760D02*
X0173292Y0064760D01*
X0173292Y0066358D02*
X0177933Y0066358D01*
X0178133Y0066358D02*
X0173292Y0066358D01*
X0173977Y0063161D02*
X0177933Y0063161D01*
X0178148Y0063161D02*
X0173977Y0063161D01*
X0175575Y0061563D02*
X0178993Y0061563D01*
X0177174Y0059964D02*
X0197808Y0059964D01*
X0177174Y0059964D01*
X0175575Y0061563D02*
X0196209Y0061563D01*
X0187374Y0061563D01*
X0187128Y0061774D02*
X0186670Y0061651D01*
X0183368Y0061651D01*
X0183368Y0065235D01*
X0188233Y0065235D01*
X0188233Y0063214D01*
X0188111Y0062756D01*
X0187874Y0062346D01*
X0187539Y0062011D01*
X0187128Y0061774D01*
X0188219Y0063161D02*
X0194611Y0063161D01*
X0188454Y0063161D01*
X0188233Y0064760D02*
X0193012Y0064760D01*
X0188939Y0064760D01*
X0188674Y0066358D02*
X0191414Y0066358D01*
X0188233Y0066358D01*
X0183368Y0064760D02*
X0182999Y0064760D01*
X0182999Y0063161D02*
X0183368Y0063161D01*
X0178772Y0058366D02*
X0199406Y0058366D01*
X0178772Y0058366D01*
X0203392Y0061451D02*
X0205191Y0059652D01*
X0205566Y0059652D01*
X0203766Y0061451D01*
X0203392Y0061451D01*
X0204879Y0059964D02*
X0205253Y0059964D01*
X0214205Y0058366D02*
X0248320Y0058366D01*
X0261502Y0058366D02*
X0214205Y0058366D01*
X0218432Y0063161D02*
X0218801Y0063161D01*
X0218801Y0064760D02*
X0218432Y0064760D01*
X0218432Y0066358D02*
X0218801Y0066358D01*
X0224119Y0072752D02*
X0208504Y0072752D01*
X0224119Y0072752D01*
X0229468Y0072752D02*
X0234232Y0072752D01*
X0229468Y0072752D01*
X0232634Y0074351D02*
X0209697Y0074351D01*
X0232634Y0074351D01*
X0231035Y0075949D02*
X0209999Y0075949D01*
X0231035Y0075949D01*
X0229437Y0077548D02*
X0211355Y0077548D01*
X0229437Y0077548D01*
X0227838Y0079146D02*
X0214898Y0079146D01*
X0227838Y0079146D01*
X0226240Y0080745D02*
X0215805Y0080745D01*
X0226240Y0080745D01*
X0224641Y0082343D02*
X0215905Y0082343D01*
X0224641Y0082343D01*
X0228608Y0085448D02*
X0229499Y0084556D01*
X0229499Y0085448D01*
X0228608Y0085448D01*
X0208155Y0082343D02*
X0182686Y0082343D01*
X0208155Y0082343D01*
X0207481Y0080745D02*
X0182340Y0080745D01*
X0207481Y0080745D01*
X0203951Y0079146D02*
X0181434Y0079146D01*
X0203951Y0079146D01*
X0202632Y0077548D02*
X0161570Y0077548D01*
X0202632Y0077548D01*
X0202249Y0075949D02*
X0160520Y0075949D01*
X0202249Y0075949D01*
X0202323Y0074351D02*
X0160965Y0074351D01*
X0202552Y0074351D01*
X0203744Y0072752D02*
X0162563Y0072752D01*
X0200155Y0072752D01*
X0198225Y0067957D02*
X0196886Y0067957D01*
X0198225Y0067957D01*
X0175697Y0079146D02*
X0161771Y0079146D01*
X0175697Y0079146D01*
X0174791Y0080745D02*
X0161287Y0080745D01*
X0174791Y0080745D01*
X0174690Y0082343D02*
X0159480Y0082343D01*
X0174690Y0082343D01*
X0155492Y0072752D02*
X0154881Y0072752D01*
X0250667Y0088985D02*
X0250753Y0088985D01*
X0250753Y0088899D01*
X0250667Y0088985D01*
D11*
X0270100Y0086679D02*
X0270102Y0086767D01*
X0270108Y0086855D01*
X0270118Y0086943D01*
X0270132Y0087031D01*
X0270149Y0087117D01*
X0270171Y0087203D01*
X0270196Y0087287D01*
X0270226Y0087371D01*
X0270258Y0087453D01*
X0270295Y0087533D01*
X0270335Y0087612D01*
X0270379Y0087689D01*
X0270426Y0087764D01*
X0270476Y0087836D01*
X0270530Y0087907D01*
X0270586Y0087974D01*
X0270646Y0088040D01*
X0270708Y0088102D01*
X0270774Y0088162D01*
X0270841Y0088218D01*
X0270912Y0088272D01*
X0270984Y0088322D01*
X0271059Y0088369D01*
X0271136Y0088413D01*
X0271215Y0088453D01*
X0271295Y0088490D01*
X0271377Y0088522D01*
X0271461Y0088552D01*
X0271545Y0088577D01*
X0271631Y0088599D01*
X0271717Y0088616D01*
X0271805Y0088630D01*
X0271893Y0088640D01*
X0271981Y0088646D01*
X0272069Y0088648D01*
X0272157Y0088646D01*
X0272245Y0088640D01*
X0272333Y0088630D01*
X0272421Y0088616D01*
X0272507Y0088599D01*
X0272593Y0088577D01*
X0272677Y0088552D01*
X0272761Y0088522D01*
X0272843Y0088490D01*
X0272923Y0088453D01*
X0273002Y0088413D01*
X0273079Y0088369D01*
X0273154Y0088322D01*
X0273226Y0088272D01*
X0273297Y0088218D01*
X0273364Y0088162D01*
X0273430Y0088102D01*
X0273492Y0088040D01*
X0273552Y0087974D01*
X0273608Y0087907D01*
X0273662Y0087836D01*
X0273712Y0087764D01*
X0273759Y0087689D01*
X0273803Y0087612D01*
X0273843Y0087533D01*
X0273880Y0087453D01*
X0273912Y0087371D01*
X0273942Y0087287D01*
X0273967Y0087203D01*
X0273989Y0087117D01*
X0274006Y0087031D01*
X0274020Y0086943D01*
X0274030Y0086855D01*
X0274036Y0086767D01*
X0274038Y0086679D01*
X0274036Y0086591D01*
X0274030Y0086503D01*
X0274020Y0086415D01*
X0274006Y0086327D01*
X0273989Y0086241D01*
X0273967Y0086155D01*
X0273942Y0086071D01*
X0273912Y0085987D01*
X0273880Y0085905D01*
X0273843Y0085825D01*
X0273803Y0085746D01*
X0273759Y0085669D01*
X0273712Y0085594D01*
X0273662Y0085522D01*
X0273608Y0085451D01*
X0273552Y0085384D01*
X0273492Y0085318D01*
X0273430Y0085256D01*
X0273364Y0085196D01*
X0273297Y0085140D01*
X0273226Y0085086D01*
X0273154Y0085036D01*
X0273079Y0084989D01*
X0273002Y0084945D01*
X0272923Y0084905D01*
X0272843Y0084868D01*
X0272761Y0084836D01*
X0272677Y0084806D01*
X0272593Y0084781D01*
X0272507Y0084759D01*
X0272421Y0084742D01*
X0272333Y0084728D01*
X0272245Y0084718D01*
X0272157Y0084712D01*
X0272069Y0084710D01*
X0271981Y0084712D01*
X0271893Y0084718D01*
X0271805Y0084728D01*
X0271717Y0084742D01*
X0271631Y0084759D01*
X0271545Y0084781D01*
X0271461Y0084806D01*
X0271377Y0084836D01*
X0271295Y0084868D01*
X0271215Y0084905D01*
X0271136Y0084945D01*
X0271059Y0084989D01*
X0270984Y0085036D01*
X0270912Y0085086D01*
X0270841Y0085140D01*
X0270774Y0085196D01*
X0270708Y0085256D01*
X0270646Y0085318D01*
X0270586Y0085384D01*
X0270530Y0085451D01*
X0270476Y0085522D01*
X0270426Y0085594D01*
X0270379Y0085669D01*
X0270335Y0085746D01*
X0270295Y0085825D01*
X0270258Y0085905D01*
X0270226Y0085987D01*
X0270196Y0086071D01*
X0270171Y0086155D01*
X0270149Y0086241D01*
X0270132Y0086327D01*
X0270118Y0086415D01*
X0270108Y0086503D01*
X0270102Y0086591D01*
X0270100Y0086679D01*
X0272069Y0070931D02*
X0272071Y0071019D01*
X0272077Y0071107D01*
X0272087Y0071195D01*
X0272101Y0071283D01*
X0272118Y0071369D01*
X0272140Y0071455D01*
X0272165Y0071539D01*
X0272195Y0071623D01*
X0272227Y0071705D01*
X0272264Y0071785D01*
X0272304Y0071864D01*
X0272348Y0071941D01*
X0272395Y0072016D01*
X0272445Y0072088D01*
X0272499Y0072159D01*
X0272555Y0072226D01*
X0272615Y0072292D01*
X0272677Y0072354D01*
X0272743Y0072414D01*
X0272810Y0072470D01*
X0272881Y0072524D01*
X0272953Y0072574D01*
X0273028Y0072621D01*
X0273105Y0072665D01*
X0273184Y0072705D01*
X0273264Y0072742D01*
X0273346Y0072774D01*
X0273430Y0072804D01*
X0273514Y0072829D01*
X0273600Y0072851D01*
X0273686Y0072868D01*
X0273774Y0072882D01*
X0273862Y0072892D01*
X0273950Y0072898D01*
X0274038Y0072900D01*
X0274126Y0072898D01*
X0274214Y0072892D01*
X0274302Y0072882D01*
X0274390Y0072868D01*
X0274476Y0072851D01*
X0274562Y0072829D01*
X0274646Y0072804D01*
X0274730Y0072774D01*
X0274812Y0072742D01*
X0274892Y0072705D01*
X0274971Y0072665D01*
X0275048Y0072621D01*
X0275123Y0072574D01*
X0275195Y0072524D01*
X0275266Y0072470D01*
X0275333Y0072414D01*
X0275399Y0072354D01*
X0275461Y0072292D01*
X0275521Y0072226D01*
X0275577Y0072159D01*
X0275631Y0072088D01*
X0275681Y0072016D01*
X0275728Y0071941D01*
X0275772Y0071864D01*
X0275812Y0071785D01*
X0275849Y0071705D01*
X0275881Y0071623D01*
X0275911Y0071539D01*
X0275936Y0071455D01*
X0275958Y0071369D01*
X0275975Y0071283D01*
X0275989Y0071195D01*
X0275999Y0071107D01*
X0276005Y0071019D01*
X0276007Y0070931D01*
X0276005Y0070843D01*
X0275999Y0070755D01*
X0275989Y0070667D01*
X0275975Y0070579D01*
X0275958Y0070493D01*
X0275936Y0070407D01*
X0275911Y0070323D01*
X0275881Y0070239D01*
X0275849Y0070157D01*
X0275812Y0070077D01*
X0275772Y0069998D01*
X0275728Y0069921D01*
X0275681Y0069846D01*
X0275631Y0069774D01*
X0275577Y0069703D01*
X0275521Y0069636D01*
X0275461Y0069570D01*
X0275399Y0069508D01*
X0275333Y0069448D01*
X0275266Y0069392D01*
X0275195Y0069338D01*
X0275123Y0069288D01*
X0275048Y0069241D01*
X0274971Y0069197D01*
X0274892Y0069157D01*
X0274812Y0069120D01*
X0274730Y0069088D01*
X0274646Y0069058D01*
X0274562Y0069033D01*
X0274476Y0069011D01*
X0274390Y0068994D01*
X0274302Y0068980D01*
X0274214Y0068970D01*
X0274126Y0068964D01*
X0274038Y0068962D01*
X0273950Y0068964D01*
X0273862Y0068970D01*
X0273774Y0068980D01*
X0273686Y0068994D01*
X0273600Y0069011D01*
X0273514Y0069033D01*
X0273430Y0069058D01*
X0273346Y0069088D01*
X0273264Y0069120D01*
X0273184Y0069157D01*
X0273105Y0069197D01*
X0273028Y0069241D01*
X0272953Y0069288D01*
X0272881Y0069338D01*
X0272810Y0069392D01*
X0272743Y0069448D01*
X0272677Y0069508D01*
X0272615Y0069570D01*
X0272555Y0069636D01*
X0272499Y0069703D01*
X0272445Y0069774D01*
X0272395Y0069846D01*
X0272348Y0069921D01*
X0272304Y0069998D01*
X0272264Y0070077D01*
X0272227Y0070157D01*
X0272195Y0070239D01*
X0272165Y0070323D01*
X0272140Y0070407D01*
X0272118Y0070493D01*
X0272101Y0070579D01*
X0272087Y0070667D01*
X0272077Y0070755D01*
X0272071Y0070843D01*
X0272069Y0070931D01*
X0272069Y0047309D02*
X0272071Y0047397D01*
X0272077Y0047485D01*
X0272087Y0047573D01*
X0272101Y0047661D01*
X0272118Y0047747D01*
X0272140Y0047833D01*
X0272165Y0047917D01*
X0272195Y0048001D01*
X0272227Y0048083D01*
X0272264Y0048163D01*
X0272304Y0048242D01*
X0272348Y0048319D01*
X0272395Y0048394D01*
X0272445Y0048466D01*
X0272499Y0048537D01*
X0272555Y0048604D01*
X0272615Y0048670D01*
X0272677Y0048732D01*
X0272743Y0048792D01*
X0272810Y0048848D01*
X0272881Y0048902D01*
X0272953Y0048952D01*
X0273028Y0048999D01*
X0273105Y0049043D01*
X0273184Y0049083D01*
X0273264Y0049120D01*
X0273346Y0049152D01*
X0273430Y0049182D01*
X0273514Y0049207D01*
X0273600Y0049229D01*
X0273686Y0049246D01*
X0273774Y0049260D01*
X0273862Y0049270D01*
X0273950Y0049276D01*
X0274038Y0049278D01*
X0274126Y0049276D01*
X0274214Y0049270D01*
X0274302Y0049260D01*
X0274390Y0049246D01*
X0274476Y0049229D01*
X0274562Y0049207D01*
X0274646Y0049182D01*
X0274730Y0049152D01*
X0274812Y0049120D01*
X0274892Y0049083D01*
X0274971Y0049043D01*
X0275048Y0048999D01*
X0275123Y0048952D01*
X0275195Y0048902D01*
X0275266Y0048848D01*
X0275333Y0048792D01*
X0275399Y0048732D01*
X0275461Y0048670D01*
X0275521Y0048604D01*
X0275577Y0048537D01*
X0275631Y0048466D01*
X0275681Y0048394D01*
X0275728Y0048319D01*
X0275772Y0048242D01*
X0275812Y0048163D01*
X0275849Y0048083D01*
X0275881Y0048001D01*
X0275911Y0047917D01*
X0275936Y0047833D01*
X0275958Y0047747D01*
X0275975Y0047661D01*
X0275989Y0047573D01*
X0275999Y0047485D01*
X0276005Y0047397D01*
X0276007Y0047309D01*
X0276005Y0047221D01*
X0275999Y0047133D01*
X0275989Y0047045D01*
X0275975Y0046957D01*
X0275958Y0046871D01*
X0275936Y0046785D01*
X0275911Y0046701D01*
X0275881Y0046617D01*
X0275849Y0046535D01*
X0275812Y0046455D01*
X0275772Y0046376D01*
X0275728Y0046299D01*
X0275681Y0046224D01*
X0275631Y0046152D01*
X0275577Y0046081D01*
X0275521Y0046014D01*
X0275461Y0045948D01*
X0275399Y0045886D01*
X0275333Y0045826D01*
X0275266Y0045770D01*
X0275195Y0045716D01*
X0275123Y0045666D01*
X0275048Y0045619D01*
X0274971Y0045575D01*
X0274892Y0045535D01*
X0274812Y0045498D01*
X0274730Y0045466D01*
X0274646Y0045436D01*
X0274562Y0045411D01*
X0274476Y0045389D01*
X0274390Y0045372D01*
X0274302Y0045358D01*
X0274214Y0045348D01*
X0274126Y0045342D01*
X0274038Y0045340D01*
X0273950Y0045342D01*
X0273862Y0045348D01*
X0273774Y0045358D01*
X0273686Y0045372D01*
X0273600Y0045389D01*
X0273514Y0045411D01*
X0273430Y0045436D01*
X0273346Y0045466D01*
X0273264Y0045498D01*
X0273184Y0045535D01*
X0273105Y0045575D01*
X0273028Y0045619D01*
X0272953Y0045666D01*
X0272881Y0045716D01*
X0272810Y0045770D01*
X0272743Y0045826D01*
X0272677Y0045886D01*
X0272615Y0045948D01*
X0272555Y0046014D01*
X0272499Y0046081D01*
X0272445Y0046152D01*
X0272395Y0046224D01*
X0272348Y0046299D01*
X0272304Y0046376D01*
X0272264Y0046455D01*
X0272227Y0046535D01*
X0272195Y0046617D01*
X0272165Y0046701D01*
X0272140Y0046785D01*
X0272118Y0046871D01*
X0272101Y0046957D01*
X0272087Y0047045D01*
X0272077Y0047133D01*
X0272071Y0047221D01*
X0272069Y0047309D01*
X0270100Y0031561D02*
X0270102Y0031649D01*
X0270108Y0031737D01*
X0270118Y0031825D01*
X0270132Y0031913D01*
X0270149Y0031999D01*
X0270171Y0032085D01*
X0270196Y0032169D01*
X0270226Y0032253D01*
X0270258Y0032335D01*
X0270295Y0032415D01*
X0270335Y0032494D01*
X0270379Y0032571D01*
X0270426Y0032646D01*
X0270476Y0032718D01*
X0270530Y0032789D01*
X0270586Y0032856D01*
X0270646Y0032922D01*
X0270708Y0032984D01*
X0270774Y0033044D01*
X0270841Y0033100D01*
X0270912Y0033154D01*
X0270984Y0033204D01*
X0271059Y0033251D01*
X0271136Y0033295D01*
X0271215Y0033335D01*
X0271295Y0033372D01*
X0271377Y0033404D01*
X0271461Y0033434D01*
X0271545Y0033459D01*
X0271631Y0033481D01*
X0271717Y0033498D01*
X0271805Y0033512D01*
X0271893Y0033522D01*
X0271981Y0033528D01*
X0272069Y0033530D01*
X0272157Y0033528D01*
X0272245Y0033522D01*
X0272333Y0033512D01*
X0272421Y0033498D01*
X0272507Y0033481D01*
X0272593Y0033459D01*
X0272677Y0033434D01*
X0272761Y0033404D01*
X0272843Y0033372D01*
X0272923Y0033335D01*
X0273002Y0033295D01*
X0273079Y0033251D01*
X0273154Y0033204D01*
X0273226Y0033154D01*
X0273297Y0033100D01*
X0273364Y0033044D01*
X0273430Y0032984D01*
X0273492Y0032922D01*
X0273552Y0032856D01*
X0273608Y0032789D01*
X0273662Y0032718D01*
X0273712Y0032646D01*
X0273759Y0032571D01*
X0273803Y0032494D01*
X0273843Y0032415D01*
X0273880Y0032335D01*
X0273912Y0032253D01*
X0273942Y0032169D01*
X0273967Y0032085D01*
X0273989Y0031999D01*
X0274006Y0031913D01*
X0274020Y0031825D01*
X0274030Y0031737D01*
X0274036Y0031649D01*
X0274038Y0031561D01*
X0274036Y0031473D01*
X0274030Y0031385D01*
X0274020Y0031297D01*
X0274006Y0031209D01*
X0273989Y0031123D01*
X0273967Y0031037D01*
X0273942Y0030953D01*
X0273912Y0030869D01*
X0273880Y0030787D01*
X0273843Y0030707D01*
X0273803Y0030628D01*
X0273759Y0030551D01*
X0273712Y0030476D01*
X0273662Y0030404D01*
X0273608Y0030333D01*
X0273552Y0030266D01*
X0273492Y0030200D01*
X0273430Y0030138D01*
X0273364Y0030078D01*
X0273297Y0030022D01*
X0273226Y0029968D01*
X0273154Y0029918D01*
X0273079Y0029871D01*
X0273002Y0029827D01*
X0272923Y0029787D01*
X0272843Y0029750D01*
X0272761Y0029718D01*
X0272677Y0029688D01*
X0272593Y0029663D01*
X0272507Y0029641D01*
X0272421Y0029624D01*
X0272333Y0029610D01*
X0272245Y0029600D01*
X0272157Y0029594D01*
X0272069Y0029592D01*
X0271981Y0029594D01*
X0271893Y0029600D01*
X0271805Y0029610D01*
X0271717Y0029624D01*
X0271631Y0029641D01*
X0271545Y0029663D01*
X0271461Y0029688D01*
X0271377Y0029718D01*
X0271295Y0029750D01*
X0271215Y0029787D01*
X0271136Y0029827D01*
X0271059Y0029871D01*
X0270984Y0029918D01*
X0270912Y0029968D01*
X0270841Y0030022D01*
X0270774Y0030078D01*
X0270708Y0030138D01*
X0270646Y0030200D01*
X0270586Y0030266D01*
X0270530Y0030333D01*
X0270476Y0030404D01*
X0270426Y0030476D01*
X0270379Y0030551D01*
X0270335Y0030628D01*
X0270295Y0030707D01*
X0270258Y0030787D01*
X0270226Y0030869D01*
X0270196Y0030953D01*
X0270171Y0031037D01*
X0270149Y0031123D01*
X0270132Y0031209D01*
X0270118Y0031297D01*
X0270108Y0031385D01*
X0270102Y0031473D01*
X0270100Y0031561D01*
X0096872Y0031561D02*
X0096874Y0031649D01*
X0096880Y0031737D01*
X0096890Y0031825D01*
X0096904Y0031913D01*
X0096921Y0031999D01*
X0096943Y0032085D01*
X0096968Y0032169D01*
X0096998Y0032253D01*
X0097030Y0032335D01*
X0097067Y0032415D01*
X0097107Y0032494D01*
X0097151Y0032571D01*
X0097198Y0032646D01*
X0097248Y0032718D01*
X0097302Y0032789D01*
X0097358Y0032856D01*
X0097418Y0032922D01*
X0097480Y0032984D01*
X0097546Y0033044D01*
X0097613Y0033100D01*
X0097684Y0033154D01*
X0097756Y0033204D01*
X0097831Y0033251D01*
X0097908Y0033295D01*
X0097987Y0033335D01*
X0098067Y0033372D01*
X0098149Y0033404D01*
X0098233Y0033434D01*
X0098317Y0033459D01*
X0098403Y0033481D01*
X0098489Y0033498D01*
X0098577Y0033512D01*
X0098665Y0033522D01*
X0098753Y0033528D01*
X0098841Y0033530D01*
X0098929Y0033528D01*
X0099017Y0033522D01*
X0099105Y0033512D01*
X0099193Y0033498D01*
X0099279Y0033481D01*
X0099365Y0033459D01*
X0099449Y0033434D01*
X0099533Y0033404D01*
X0099615Y0033372D01*
X0099695Y0033335D01*
X0099774Y0033295D01*
X0099851Y0033251D01*
X0099926Y0033204D01*
X0099998Y0033154D01*
X0100069Y0033100D01*
X0100136Y0033044D01*
X0100202Y0032984D01*
X0100264Y0032922D01*
X0100324Y0032856D01*
X0100380Y0032789D01*
X0100434Y0032718D01*
X0100484Y0032646D01*
X0100531Y0032571D01*
X0100575Y0032494D01*
X0100615Y0032415D01*
X0100652Y0032335D01*
X0100684Y0032253D01*
X0100714Y0032169D01*
X0100739Y0032085D01*
X0100761Y0031999D01*
X0100778Y0031913D01*
X0100792Y0031825D01*
X0100802Y0031737D01*
X0100808Y0031649D01*
X0100810Y0031561D01*
X0100808Y0031473D01*
X0100802Y0031385D01*
X0100792Y0031297D01*
X0100778Y0031209D01*
X0100761Y0031123D01*
X0100739Y0031037D01*
X0100714Y0030953D01*
X0100684Y0030869D01*
X0100652Y0030787D01*
X0100615Y0030707D01*
X0100575Y0030628D01*
X0100531Y0030551D01*
X0100484Y0030476D01*
X0100434Y0030404D01*
X0100380Y0030333D01*
X0100324Y0030266D01*
X0100264Y0030200D01*
X0100202Y0030138D01*
X0100136Y0030078D01*
X0100069Y0030022D01*
X0099998Y0029968D01*
X0099926Y0029918D01*
X0099851Y0029871D01*
X0099774Y0029827D01*
X0099695Y0029787D01*
X0099615Y0029750D01*
X0099533Y0029718D01*
X0099449Y0029688D01*
X0099365Y0029663D01*
X0099279Y0029641D01*
X0099193Y0029624D01*
X0099105Y0029610D01*
X0099017Y0029600D01*
X0098929Y0029594D01*
X0098841Y0029592D01*
X0098753Y0029594D01*
X0098665Y0029600D01*
X0098577Y0029610D01*
X0098489Y0029624D01*
X0098403Y0029641D01*
X0098317Y0029663D01*
X0098233Y0029688D01*
X0098149Y0029718D01*
X0098067Y0029750D01*
X0097987Y0029787D01*
X0097908Y0029827D01*
X0097831Y0029871D01*
X0097756Y0029918D01*
X0097684Y0029968D01*
X0097613Y0030022D01*
X0097546Y0030078D01*
X0097480Y0030138D01*
X0097418Y0030200D01*
X0097358Y0030266D01*
X0097302Y0030333D01*
X0097248Y0030404D01*
X0097198Y0030476D01*
X0097151Y0030551D01*
X0097107Y0030628D01*
X0097067Y0030707D01*
X0097030Y0030787D01*
X0096998Y0030869D01*
X0096968Y0030953D01*
X0096943Y0031037D01*
X0096921Y0031123D01*
X0096904Y0031209D01*
X0096890Y0031297D01*
X0096880Y0031385D01*
X0096874Y0031473D01*
X0096872Y0031561D01*
X0075218Y0031561D02*
X0075220Y0031649D01*
X0075226Y0031737D01*
X0075236Y0031825D01*
X0075250Y0031913D01*
X0075267Y0031999D01*
X0075289Y0032085D01*
X0075314Y0032169D01*
X0075344Y0032253D01*
X0075376Y0032335D01*
X0075413Y0032415D01*
X0075453Y0032494D01*
X0075497Y0032571D01*
X0075544Y0032646D01*
X0075594Y0032718D01*
X0075648Y0032789D01*
X0075704Y0032856D01*
X0075764Y0032922D01*
X0075826Y0032984D01*
X0075892Y0033044D01*
X0075959Y0033100D01*
X0076030Y0033154D01*
X0076102Y0033204D01*
X0076177Y0033251D01*
X0076254Y0033295D01*
X0076333Y0033335D01*
X0076413Y0033372D01*
X0076495Y0033404D01*
X0076579Y0033434D01*
X0076663Y0033459D01*
X0076749Y0033481D01*
X0076835Y0033498D01*
X0076923Y0033512D01*
X0077011Y0033522D01*
X0077099Y0033528D01*
X0077187Y0033530D01*
X0077275Y0033528D01*
X0077363Y0033522D01*
X0077451Y0033512D01*
X0077539Y0033498D01*
X0077625Y0033481D01*
X0077711Y0033459D01*
X0077795Y0033434D01*
X0077879Y0033404D01*
X0077961Y0033372D01*
X0078041Y0033335D01*
X0078120Y0033295D01*
X0078197Y0033251D01*
X0078272Y0033204D01*
X0078344Y0033154D01*
X0078415Y0033100D01*
X0078482Y0033044D01*
X0078548Y0032984D01*
X0078610Y0032922D01*
X0078670Y0032856D01*
X0078726Y0032789D01*
X0078780Y0032718D01*
X0078830Y0032646D01*
X0078877Y0032571D01*
X0078921Y0032494D01*
X0078961Y0032415D01*
X0078998Y0032335D01*
X0079030Y0032253D01*
X0079060Y0032169D01*
X0079085Y0032085D01*
X0079107Y0031999D01*
X0079124Y0031913D01*
X0079138Y0031825D01*
X0079148Y0031737D01*
X0079154Y0031649D01*
X0079156Y0031561D01*
X0079154Y0031473D01*
X0079148Y0031385D01*
X0079138Y0031297D01*
X0079124Y0031209D01*
X0079107Y0031123D01*
X0079085Y0031037D01*
X0079060Y0030953D01*
X0079030Y0030869D01*
X0078998Y0030787D01*
X0078961Y0030707D01*
X0078921Y0030628D01*
X0078877Y0030551D01*
X0078830Y0030476D01*
X0078780Y0030404D01*
X0078726Y0030333D01*
X0078670Y0030266D01*
X0078610Y0030200D01*
X0078548Y0030138D01*
X0078482Y0030078D01*
X0078415Y0030022D01*
X0078344Y0029968D01*
X0078272Y0029918D01*
X0078197Y0029871D01*
X0078120Y0029827D01*
X0078041Y0029787D01*
X0077961Y0029750D01*
X0077879Y0029718D01*
X0077795Y0029688D01*
X0077711Y0029663D01*
X0077625Y0029641D01*
X0077539Y0029624D01*
X0077451Y0029610D01*
X0077363Y0029600D01*
X0077275Y0029594D01*
X0077187Y0029592D01*
X0077099Y0029594D01*
X0077011Y0029600D01*
X0076923Y0029610D01*
X0076835Y0029624D01*
X0076749Y0029641D01*
X0076663Y0029663D01*
X0076579Y0029688D01*
X0076495Y0029718D01*
X0076413Y0029750D01*
X0076333Y0029787D01*
X0076254Y0029827D01*
X0076177Y0029871D01*
X0076102Y0029918D01*
X0076030Y0029968D01*
X0075959Y0030022D01*
X0075892Y0030078D01*
X0075826Y0030138D01*
X0075764Y0030200D01*
X0075704Y0030266D01*
X0075648Y0030333D01*
X0075594Y0030404D01*
X0075544Y0030476D01*
X0075497Y0030551D01*
X0075453Y0030628D01*
X0075413Y0030707D01*
X0075376Y0030787D01*
X0075344Y0030869D01*
X0075314Y0030953D01*
X0075289Y0031037D01*
X0075267Y0031123D01*
X0075250Y0031209D01*
X0075236Y0031297D01*
X0075226Y0031385D01*
X0075220Y0031473D01*
X0075218Y0031561D01*
X0006321Y0031561D02*
X0006323Y0031649D01*
X0006329Y0031737D01*
X0006339Y0031825D01*
X0006353Y0031913D01*
X0006370Y0031999D01*
X0006392Y0032085D01*
X0006417Y0032169D01*
X0006447Y0032253D01*
X0006479Y0032335D01*
X0006516Y0032415D01*
X0006556Y0032494D01*
X0006600Y0032571D01*
X0006647Y0032646D01*
X0006697Y0032718D01*
X0006751Y0032789D01*
X0006807Y0032856D01*
X0006867Y0032922D01*
X0006929Y0032984D01*
X0006995Y0033044D01*
X0007062Y0033100D01*
X0007133Y0033154D01*
X0007205Y0033204D01*
X0007280Y0033251D01*
X0007357Y0033295D01*
X0007436Y0033335D01*
X0007516Y0033372D01*
X0007598Y0033404D01*
X0007682Y0033434D01*
X0007766Y0033459D01*
X0007852Y0033481D01*
X0007938Y0033498D01*
X0008026Y0033512D01*
X0008114Y0033522D01*
X0008202Y0033528D01*
X0008290Y0033530D01*
X0008378Y0033528D01*
X0008466Y0033522D01*
X0008554Y0033512D01*
X0008642Y0033498D01*
X0008728Y0033481D01*
X0008814Y0033459D01*
X0008898Y0033434D01*
X0008982Y0033404D01*
X0009064Y0033372D01*
X0009144Y0033335D01*
X0009223Y0033295D01*
X0009300Y0033251D01*
X0009375Y0033204D01*
X0009447Y0033154D01*
X0009518Y0033100D01*
X0009585Y0033044D01*
X0009651Y0032984D01*
X0009713Y0032922D01*
X0009773Y0032856D01*
X0009829Y0032789D01*
X0009883Y0032718D01*
X0009933Y0032646D01*
X0009980Y0032571D01*
X0010024Y0032494D01*
X0010064Y0032415D01*
X0010101Y0032335D01*
X0010133Y0032253D01*
X0010163Y0032169D01*
X0010188Y0032085D01*
X0010210Y0031999D01*
X0010227Y0031913D01*
X0010241Y0031825D01*
X0010251Y0031737D01*
X0010257Y0031649D01*
X0010259Y0031561D01*
X0010257Y0031473D01*
X0010251Y0031385D01*
X0010241Y0031297D01*
X0010227Y0031209D01*
X0010210Y0031123D01*
X0010188Y0031037D01*
X0010163Y0030953D01*
X0010133Y0030869D01*
X0010101Y0030787D01*
X0010064Y0030707D01*
X0010024Y0030628D01*
X0009980Y0030551D01*
X0009933Y0030476D01*
X0009883Y0030404D01*
X0009829Y0030333D01*
X0009773Y0030266D01*
X0009713Y0030200D01*
X0009651Y0030138D01*
X0009585Y0030078D01*
X0009518Y0030022D01*
X0009447Y0029968D01*
X0009375Y0029918D01*
X0009300Y0029871D01*
X0009223Y0029827D01*
X0009144Y0029787D01*
X0009064Y0029750D01*
X0008982Y0029718D01*
X0008898Y0029688D01*
X0008814Y0029663D01*
X0008728Y0029641D01*
X0008642Y0029624D01*
X0008554Y0029610D01*
X0008466Y0029600D01*
X0008378Y0029594D01*
X0008290Y0029592D01*
X0008202Y0029594D01*
X0008114Y0029600D01*
X0008026Y0029610D01*
X0007938Y0029624D01*
X0007852Y0029641D01*
X0007766Y0029663D01*
X0007682Y0029688D01*
X0007598Y0029718D01*
X0007516Y0029750D01*
X0007436Y0029787D01*
X0007357Y0029827D01*
X0007280Y0029871D01*
X0007205Y0029918D01*
X0007133Y0029968D01*
X0007062Y0030022D01*
X0006995Y0030078D01*
X0006929Y0030138D01*
X0006867Y0030200D01*
X0006807Y0030266D01*
X0006751Y0030333D01*
X0006697Y0030404D01*
X0006647Y0030476D01*
X0006600Y0030551D01*
X0006556Y0030628D01*
X0006516Y0030707D01*
X0006479Y0030787D01*
X0006447Y0030869D01*
X0006417Y0030953D01*
X0006392Y0031037D01*
X0006370Y0031123D01*
X0006353Y0031209D01*
X0006339Y0031297D01*
X0006329Y0031385D01*
X0006323Y0031473D01*
X0006321Y0031561D01*
X0004352Y0047309D02*
X0004354Y0047397D01*
X0004360Y0047485D01*
X0004370Y0047573D01*
X0004384Y0047661D01*
X0004401Y0047747D01*
X0004423Y0047833D01*
X0004448Y0047917D01*
X0004478Y0048001D01*
X0004510Y0048083D01*
X0004547Y0048163D01*
X0004587Y0048242D01*
X0004631Y0048319D01*
X0004678Y0048394D01*
X0004728Y0048466D01*
X0004782Y0048537D01*
X0004838Y0048604D01*
X0004898Y0048670D01*
X0004960Y0048732D01*
X0005026Y0048792D01*
X0005093Y0048848D01*
X0005164Y0048902D01*
X0005236Y0048952D01*
X0005311Y0048999D01*
X0005388Y0049043D01*
X0005467Y0049083D01*
X0005547Y0049120D01*
X0005629Y0049152D01*
X0005713Y0049182D01*
X0005797Y0049207D01*
X0005883Y0049229D01*
X0005969Y0049246D01*
X0006057Y0049260D01*
X0006145Y0049270D01*
X0006233Y0049276D01*
X0006321Y0049278D01*
X0006409Y0049276D01*
X0006497Y0049270D01*
X0006585Y0049260D01*
X0006673Y0049246D01*
X0006759Y0049229D01*
X0006845Y0049207D01*
X0006929Y0049182D01*
X0007013Y0049152D01*
X0007095Y0049120D01*
X0007175Y0049083D01*
X0007254Y0049043D01*
X0007331Y0048999D01*
X0007406Y0048952D01*
X0007478Y0048902D01*
X0007549Y0048848D01*
X0007616Y0048792D01*
X0007682Y0048732D01*
X0007744Y0048670D01*
X0007804Y0048604D01*
X0007860Y0048537D01*
X0007914Y0048466D01*
X0007964Y0048394D01*
X0008011Y0048319D01*
X0008055Y0048242D01*
X0008095Y0048163D01*
X0008132Y0048083D01*
X0008164Y0048001D01*
X0008194Y0047917D01*
X0008219Y0047833D01*
X0008241Y0047747D01*
X0008258Y0047661D01*
X0008272Y0047573D01*
X0008282Y0047485D01*
X0008288Y0047397D01*
X0008290Y0047309D01*
X0008288Y0047221D01*
X0008282Y0047133D01*
X0008272Y0047045D01*
X0008258Y0046957D01*
X0008241Y0046871D01*
X0008219Y0046785D01*
X0008194Y0046701D01*
X0008164Y0046617D01*
X0008132Y0046535D01*
X0008095Y0046455D01*
X0008055Y0046376D01*
X0008011Y0046299D01*
X0007964Y0046224D01*
X0007914Y0046152D01*
X0007860Y0046081D01*
X0007804Y0046014D01*
X0007744Y0045948D01*
X0007682Y0045886D01*
X0007616Y0045826D01*
X0007549Y0045770D01*
X0007478Y0045716D01*
X0007406Y0045666D01*
X0007331Y0045619D01*
X0007254Y0045575D01*
X0007175Y0045535D01*
X0007095Y0045498D01*
X0007013Y0045466D01*
X0006929Y0045436D01*
X0006845Y0045411D01*
X0006759Y0045389D01*
X0006673Y0045372D01*
X0006585Y0045358D01*
X0006497Y0045348D01*
X0006409Y0045342D01*
X0006321Y0045340D01*
X0006233Y0045342D01*
X0006145Y0045348D01*
X0006057Y0045358D01*
X0005969Y0045372D01*
X0005883Y0045389D01*
X0005797Y0045411D01*
X0005713Y0045436D01*
X0005629Y0045466D01*
X0005547Y0045498D01*
X0005467Y0045535D01*
X0005388Y0045575D01*
X0005311Y0045619D01*
X0005236Y0045666D01*
X0005164Y0045716D01*
X0005093Y0045770D01*
X0005026Y0045826D01*
X0004960Y0045886D01*
X0004898Y0045948D01*
X0004838Y0046014D01*
X0004782Y0046081D01*
X0004728Y0046152D01*
X0004678Y0046224D01*
X0004631Y0046299D01*
X0004587Y0046376D01*
X0004547Y0046455D01*
X0004510Y0046535D01*
X0004478Y0046617D01*
X0004448Y0046701D01*
X0004423Y0046785D01*
X0004401Y0046871D01*
X0004384Y0046957D01*
X0004370Y0047045D01*
X0004360Y0047133D01*
X0004354Y0047221D01*
X0004352Y0047309D01*
X0004352Y0070931D02*
X0004354Y0071019D01*
X0004360Y0071107D01*
X0004370Y0071195D01*
X0004384Y0071283D01*
X0004401Y0071369D01*
X0004423Y0071455D01*
X0004448Y0071539D01*
X0004478Y0071623D01*
X0004510Y0071705D01*
X0004547Y0071785D01*
X0004587Y0071864D01*
X0004631Y0071941D01*
X0004678Y0072016D01*
X0004728Y0072088D01*
X0004782Y0072159D01*
X0004838Y0072226D01*
X0004898Y0072292D01*
X0004960Y0072354D01*
X0005026Y0072414D01*
X0005093Y0072470D01*
X0005164Y0072524D01*
X0005236Y0072574D01*
X0005311Y0072621D01*
X0005388Y0072665D01*
X0005467Y0072705D01*
X0005547Y0072742D01*
X0005629Y0072774D01*
X0005713Y0072804D01*
X0005797Y0072829D01*
X0005883Y0072851D01*
X0005969Y0072868D01*
X0006057Y0072882D01*
X0006145Y0072892D01*
X0006233Y0072898D01*
X0006321Y0072900D01*
X0006409Y0072898D01*
X0006497Y0072892D01*
X0006585Y0072882D01*
X0006673Y0072868D01*
X0006759Y0072851D01*
X0006845Y0072829D01*
X0006929Y0072804D01*
X0007013Y0072774D01*
X0007095Y0072742D01*
X0007175Y0072705D01*
X0007254Y0072665D01*
X0007331Y0072621D01*
X0007406Y0072574D01*
X0007478Y0072524D01*
X0007549Y0072470D01*
X0007616Y0072414D01*
X0007682Y0072354D01*
X0007744Y0072292D01*
X0007804Y0072226D01*
X0007860Y0072159D01*
X0007914Y0072088D01*
X0007964Y0072016D01*
X0008011Y0071941D01*
X0008055Y0071864D01*
X0008095Y0071785D01*
X0008132Y0071705D01*
X0008164Y0071623D01*
X0008194Y0071539D01*
X0008219Y0071455D01*
X0008241Y0071369D01*
X0008258Y0071283D01*
X0008272Y0071195D01*
X0008282Y0071107D01*
X0008288Y0071019D01*
X0008290Y0070931D01*
X0008288Y0070843D01*
X0008282Y0070755D01*
X0008272Y0070667D01*
X0008258Y0070579D01*
X0008241Y0070493D01*
X0008219Y0070407D01*
X0008194Y0070323D01*
X0008164Y0070239D01*
X0008132Y0070157D01*
X0008095Y0070077D01*
X0008055Y0069998D01*
X0008011Y0069921D01*
X0007964Y0069846D01*
X0007914Y0069774D01*
X0007860Y0069703D01*
X0007804Y0069636D01*
X0007744Y0069570D01*
X0007682Y0069508D01*
X0007616Y0069448D01*
X0007549Y0069392D01*
X0007478Y0069338D01*
X0007406Y0069288D01*
X0007331Y0069241D01*
X0007254Y0069197D01*
X0007175Y0069157D01*
X0007095Y0069120D01*
X0007013Y0069088D01*
X0006929Y0069058D01*
X0006845Y0069033D01*
X0006759Y0069011D01*
X0006673Y0068994D01*
X0006585Y0068980D01*
X0006497Y0068970D01*
X0006409Y0068964D01*
X0006321Y0068962D01*
X0006233Y0068964D01*
X0006145Y0068970D01*
X0006057Y0068980D01*
X0005969Y0068994D01*
X0005883Y0069011D01*
X0005797Y0069033D01*
X0005713Y0069058D01*
X0005629Y0069088D01*
X0005547Y0069120D01*
X0005467Y0069157D01*
X0005388Y0069197D01*
X0005311Y0069241D01*
X0005236Y0069288D01*
X0005164Y0069338D01*
X0005093Y0069392D01*
X0005026Y0069448D01*
X0004960Y0069508D01*
X0004898Y0069570D01*
X0004838Y0069636D01*
X0004782Y0069703D01*
X0004728Y0069774D01*
X0004678Y0069846D01*
X0004631Y0069921D01*
X0004587Y0069998D01*
X0004547Y0070077D01*
X0004510Y0070157D01*
X0004478Y0070239D01*
X0004448Y0070323D01*
X0004423Y0070407D01*
X0004401Y0070493D01*
X0004384Y0070579D01*
X0004370Y0070667D01*
X0004360Y0070755D01*
X0004354Y0070843D01*
X0004352Y0070931D01*
X0006321Y0086679D02*
X0006323Y0086767D01*
X0006329Y0086855D01*
X0006339Y0086943D01*
X0006353Y0087031D01*
X0006370Y0087117D01*
X0006392Y0087203D01*
X0006417Y0087287D01*
X0006447Y0087371D01*
X0006479Y0087453D01*
X0006516Y0087533D01*
X0006556Y0087612D01*
X0006600Y0087689D01*
X0006647Y0087764D01*
X0006697Y0087836D01*
X0006751Y0087907D01*
X0006807Y0087974D01*
X0006867Y0088040D01*
X0006929Y0088102D01*
X0006995Y0088162D01*
X0007062Y0088218D01*
X0007133Y0088272D01*
X0007205Y0088322D01*
X0007280Y0088369D01*
X0007357Y0088413D01*
X0007436Y0088453D01*
X0007516Y0088490D01*
X0007598Y0088522D01*
X0007682Y0088552D01*
X0007766Y0088577D01*
X0007852Y0088599D01*
X0007938Y0088616D01*
X0008026Y0088630D01*
X0008114Y0088640D01*
X0008202Y0088646D01*
X0008290Y0088648D01*
X0008378Y0088646D01*
X0008466Y0088640D01*
X0008554Y0088630D01*
X0008642Y0088616D01*
X0008728Y0088599D01*
X0008814Y0088577D01*
X0008898Y0088552D01*
X0008982Y0088522D01*
X0009064Y0088490D01*
X0009144Y0088453D01*
X0009223Y0088413D01*
X0009300Y0088369D01*
X0009375Y0088322D01*
X0009447Y0088272D01*
X0009518Y0088218D01*
X0009585Y0088162D01*
X0009651Y0088102D01*
X0009713Y0088040D01*
X0009773Y0087974D01*
X0009829Y0087907D01*
X0009883Y0087836D01*
X0009933Y0087764D01*
X0009980Y0087689D01*
X0010024Y0087612D01*
X0010064Y0087533D01*
X0010101Y0087453D01*
X0010133Y0087371D01*
X0010163Y0087287D01*
X0010188Y0087203D01*
X0010210Y0087117D01*
X0010227Y0087031D01*
X0010241Y0086943D01*
X0010251Y0086855D01*
X0010257Y0086767D01*
X0010259Y0086679D01*
X0010257Y0086591D01*
X0010251Y0086503D01*
X0010241Y0086415D01*
X0010227Y0086327D01*
X0010210Y0086241D01*
X0010188Y0086155D01*
X0010163Y0086071D01*
X0010133Y0085987D01*
X0010101Y0085905D01*
X0010064Y0085825D01*
X0010024Y0085746D01*
X0009980Y0085669D01*
X0009933Y0085594D01*
X0009883Y0085522D01*
X0009829Y0085451D01*
X0009773Y0085384D01*
X0009713Y0085318D01*
X0009651Y0085256D01*
X0009585Y0085196D01*
X0009518Y0085140D01*
X0009447Y0085086D01*
X0009375Y0085036D01*
X0009300Y0084989D01*
X0009223Y0084945D01*
X0009144Y0084905D01*
X0009064Y0084868D01*
X0008982Y0084836D01*
X0008898Y0084806D01*
X0008814Y0084781D01*
X0008728Y0084759D01*
X0008642Y0084742D01*
X0008554Y0084728D01*
X0008466Y0084718D01*
X0008378Y0084712D01*
X0008290Y0084710D01*
X0008202Y0084712D01*
X0008114Y0084718D01*
X0008026Y0084728D01*
X0007938Y0084742D01*
X0007852Y0084759D01*
X0007766Y0084781D01*
X0007682Y0084806D01*
X0007598Y0084836D01*
X0007516Y0084868D01*
X0007436Y0084905D01*
X0007357Y0084945D01*
X0007280Y0084989D01*
X0007205Y0085036D01*
X0007133Y0085086D01*
X0007062Y0085140D01*
X0006995Y0085196D01*
X0006929Y0085256D01*
X0006867Y0085318D01*
X0006807Y0085384D01*
X0006751Y0085451D01*
X0006697Y0085522D01*
X0006647Y0085594D01*
X0006600Y0085669D01*
X0006556Y0085746D01*
X0006516Y0085825D01*
X0006479Y0085905D01*
X0006447Y0085987D01*
X0006417Y0086071D01*
X0006392Y0086155D01*
X0006370Y0086241D01*
X0006353Y0086327D01*
X0006339Y0086415D01*
X0006329Y0086503D01*
X0006323Y0086591D01*
X0006321Y0086679D01*
D12*
X0044313Y0080774D02*
X0044313Y0070931D01*
X0069313Y0070931D01*
X0070790Y0069455D01*
X0071282Y0069947D01*
X0107699Y0069947D01*
X0111636Y0066010D01*
X0113014Y0065419D02*
X0120494Y0072900D01*
X0123447Y0069947D01*
X0147069Y0069947D01*
X0148054Y0068963D01*
X0147750Y0068660D02*
X0147750Y0065419D01*
X0145207Y0052821D02*
X0132609Y0065419D01*
X0168042Y0065419D02*
X0180640Y0052821D01*
X0183183Y0052821D01*
X0171676Y0053215D02*
X0168435Y0053215D01*
X0168042Y0052821D01*
X0147750Y0052821D02*
X0145207Y0052821D01*
X0136243Y0049278D02*
X0132699Y0052821D01*
X0132609Y0052821D01*
X0112317Y0052821D02*
X0109774Y0052821D01*
X0097176Y0065419D01*
X0074825Y0065419D02*
X0070790Y0069455D01*
X0061743Y0065419D02*
X0074341Y0052821D01*
X0076884Y0052821D01*
X0061743Y0052821D02*
X0057502Y0053215D01*
X0041754Y0053215D02*
X0041451Y0052912D01*
X0041451Y0052821D01*
X0041451Y0045841D01*
X0041453Y0045797D01*
X0041459Y0045754D01*
X0041468Y0045712D01*
X0041481Y0045670D01*
X0041498Y0045630D01*
X0041518Y0045591D01*
X0041541Y0045554D01*
X0041568Y0045520D01*
X0041597Y0045487D01*
X0041630Y0045458D01*
X0041664Y0045431D01*
X0041701Y0045408D01*
X0041740Y0045388D01*
X0041780Y0045371D01*
X0041822Y0045358D01*
X0041864Y0045349D01*
X0041907Y0045343D01*
X0041951Y0045341D01*
X0039786Y0027624D02*
X0059471Y0027624D01*
X0061439Y0025656D01*
X0039786Y0027624D02*
X0037817Y0025656D01*
X0110652Y0025656D02*
X0112620Y0027624D01*
X0132306Y0027624D01*
X0134274Y0025656D01*
X0146085Y0025656D02*
X0148054Y0027624D01*
X0167739Y0027624D01*
X0169707Y0025656D01*
X0181518Y0025656D02*
X0183487Y0027624D01*
X0203172Y0027624D01*
X0205140Y0025656D01*
X0216951Y0025656D02*
X0218920Y0027624D01*
X0238605Y0027624D01*
X0240573Y0025656D01*
X0266164Y0044199D02*
X0249274Y0061089D01*
X0230731Y0061089D01*
X0228762Y0065026D01*
X0218526Y0065419D01*
X0218617Y0065419D01*
X0216073Y0052821D02*
X0203475Y0065419D01*
X0203475Y0052821D02*
X0203475Y0049581D01*
X0203172Y0049278D01*
X0216073Y0052821D02*
X0218617Y0052821D01*
X0238908Y0052821D02*
X0238908Y0049581D01*
X0238605Y0049278D01*
X0044313Y0068282D02*
X0041451Y0065419D01*
X0044313Y0068282D02*
X0044313Y0070931D01*
D13*
X0041451Y0065419D03*
X0061743Y0065419D03*
X0076884Y0065419D03*
X0097176Y0065419D03*
X0112317Y0065419D03*
X0132609Y0065419D03*
X0147750Y0065419D03*
X0168042Y0065419D03*
X0183183Y0065419D03*
X0203475Y0065419D03*
X0218617Y0065419D03*
X0238908Y0065419D03*
X0238908Y0052821D03*
X0218617Y0052821D03*
X0203475Y0052821D03*
X0183183Y0052821D03*
X0168042Y0052821D03*
X0147750Y0052821D03*
X0132609Y0052821D03*
X0112317Y0052821D03*
X0097176Y0052821D03*
X0076884Y0052821D03*
X0061743Y0052821D03*
X0041451Y0052821D03*
D14*
X0041754Y0031049D03*
X0057502Y0031049D03*
X0114589Y0031049D03*
X0130337Y0031049D03*
X0150022Y0031049D03*
X0165770Y0031049D03*
X0185455Y0031049D03*
X0201203Y0031049D03*
X0220888Y0031049D03*
X0236636Y0031049D03*
D15*
X0228762Y0033530D03*
X0193329Y0033530D03*
X0157896Y0033530D03*
X0122463Y0033530D03*
X0049628Y0033530D03*
D16*
X0049628Y0028608D03*
X0122463Y0028608D03*
X0157896Y0028608D03*
X0193329Y0028608D03*
X0228762Y0028608D03*
D17*
X0266164Y0044199D03*
X0266164Y0054199D03*
X0266164Y0063884D03*
X0266164Y0073884D03*
X0014195Y0073884D03*
X0014195Y0063884D03*
X0014195Y0054199D03*
X0014195Y0044199D03*
D18*
X0041951Y0045341D03*
X0049431Y0045341D03*
D19*
X0054313Y0077774D02*
X0054313Y0083774D01*
X0064313Y0083774D02*
X0064313Y0077774D01*
X0074313Y0077774D02*
X0074313Y0083774D01*
X0084313Y0083774D02*
X0084313Y0077774D01*
X0094313Y0077774D02*
X0094313Y0083774D01*
X0044313Y0083774D02*
X0044313Y0077774D01*
D20*
X0033880Y0065026D03*
X0057502Y0053215D03*
X0116557Y0057152D03*
X0136243Y0049278D03*
X0171676Y0053215D03*
X0203172Y0049278D03*
X0238605Y0049278D03*
X0228762Y0065026D03*
X0203172Y0070931D03*
X0185455Y0065026D03*
X0148054Y0068963D03*
X0120494Y0072900D03*
X0232699Y0082742D03*
D21*
X0224825Y0085695D02*
X0237620Y0072900D01*
X0257306Y0072900D01*
X0266164Y0064041D01*
X0266164Y0063884D01*
X0218526Y0065419D02*
X0212620Y0065419D01*
X0209077Y0068963D01*
X0205140Y0068963D01*
X0203172Y0070931D01*
X0192345Y0068963D02*
X0204156Y0057152D01*
X0207109Y0057152D01*
X0213014Y0051246D01*
X0213014Y0047309D01*
X0227778Y0047309D01*
X0238605Y0036482D01*
X0217935Y0037467D02*
X0210061Y0045341D01*
X0197266Y0048293D02*
X0168723Y0048293D01*
X0167739Y0047309D01*
X0163802Y0040419D02*
X0167739Y0036482D01*
X0163802Y0040419D02*
X0162817Y0040419D01*
X0162817Y0059120D01*
X0151006Y0070931D01*
X0151006Y0072900D01*
X0148054Y0068963D02*
X0147750Y0068660D01*
X0154943Y0076837D02*
X0162817Y0068963D01*
X0192345Y0068963D01*
X0185455Y0065026D02*
X0185061Y0065419D01*
X0183183Y0065419D01*
X0206124Y0075852D02*
X0212030Y0081758D01*
X0224825Y0085695D02*
X0182502Y0085695D01*
X0178565Y0081758D01*
X0157896Y0078805D02*
X0156912Y0079789D01*
X0120494Y0079789D01*
X0116557Y0075852D01*
X0129353Y0075852D02*
X0130337Y0076837D01*
X0154943Y0076837D01*
X0126400Y0063057D02*
X0126400Y0049278D01*
X0087030Y0049278D01*
X0112317Y0061392D02*
X0116557Y0057152D01*
X0112317Y0061392D02*
X0112317Y0065419D01*
X0113014Y0065419D01*
X0104746Y0081758D02*
X0095888Y0072900D01*
X0082109Y0072900D01*
X0074235Y0080774D01*
X0074313Y0080774D01*
X0041451Y0065419D02*
X0020231Y0044199D01*
X0014195Y0044199D01*
X0049431Y0045341D02*
X0141164Y0045341D01*
X0141164Y0050262D01*
X0150022Y0040419D02*
X0147069Y0037467D01*
X0150022Y0040419D02*
X0152975Y0040419D01*
X0152975Y0059120D01*
D22*
X0076884Y0065419D02*
X0074825Y0065419D01*
X0041451Y0065419D02*
X0041057Y0065026D01*
X0033880Y0065026D01*
X0020101Y0080774D02*
X0014195Y0074868D01*
X0020101Y0080774D02*
X0026006Y0080774D01*
X0029943Y0084711D01*
X0029943Y0088648D01*
X0232699Y0088648D01*
X0232699Y0082742D01*
X0232699Y0088648D02*
X0246479Y0088648D01*
X0254353Y0080774D01*
X0259274Y0080774D01*
X0266164Y0073884D01*
D23*
X0252384Y0066994D02*
X0249431Y0069947D01*
X0226794Y0069947D01*
X0116557Y0041404D02*
X0088014Y0041404D01*
X0080140Y0048293D02*
X0066361Y0048293D01*
X0062424Y0052230D01*
X0061743Y0052821D01*
X0080140Y0048293D02*
X0085061Y0053215D01*
X0096872Y0053215D01*
X0097176Y0052821D01*
X0111636Y0066010D02*
X0112317Y0065419D01*
D24*
X0014195Y0073884D02*
X0014195Y0074868D01*
D25*
X0087030Y0049278D03*
X0088014Y0041404D03*
X0116557Y0041404D03*
X0141164Y0050262D03*
X0167739Y0047309D03*
X0147069Y0037467D03*
X0167739Y0036482D03*
X0197266Y0048293D03*
X0210061Y0045341D03*
X0217935Y0037467D03*
X0238605Y0036482D03*
X0152975Y0059120D03*
X0126400Y0063057D03*
X0151006Y0072900D03*
X0157896Y0078805D03*
X0178565Y0081758D03*
X0206124Y0075852D03*
X0212030Y0081758D03*
X0226794Y0069947D03*
X0252384Y0066994D03*
X0129353Y0075852D03*
X0116557Y0075852D03*
X0104746Y0081758D03*
M02*
